<svg xmlns="http://www.w3.org/2000/svg" viewBox="0 0 42 40"><path d="M17.132 0c2.346.705 4.32 2.024 5.814 3.962h.44l.342-.15c3.993-1.711 8.522-2.455 14.177-2.505h.025a24.774 24.774 0 00-.155-.009l.231.008.532-.002v.025l2.934 2.658v29.248c-7.079.493-12.636 2.532-16.67 6.117H17.17C13.135 35.767 7.58 33.728.5 33.235V3.987L3.434 1.33v-.025c6.132 0 10.634.71 14.819 2.512l.331.146h.178c-.4-1.248-.944-2.566-1.63-3.962zm21.406 2.304c-5.827 0-10.415.713-14.414 2.426l-.426.188-.076.016c.876 1.399 1.538 3.063 1.956 4.994.344-.5.576-1.132.704-1.904 1.688 2.206 1.902 5.534.223 7.25l-9.373 9.683c-.769-1.115-1.259-1.348-2.388-1.62-.878 2.632-.878 4.04 0 7.212-7.26-4.798-8.167-12.384-2.388-18.085-.868 2.79.531 4.06 1.997 4.06.977 0 2.12-.524 3.062-1.46 2.18-2.868 2.693-6.127 1.64-10.101h-.576l-.205-.045C14.25 3.103 9.944 2.354 4.049 2.306l-.615-.002v28.751c6.146.844 11.161 2.912 15.045 6.205h5.013c3.885-3.293 8.9-5.361 15.046-6.205V2.304zm-7.404 12.414c2.027 3.314 2.55 6.542.523 8.75l-7.753 7.746c-1.766 1.724-2.974 2.498-2.923 4.931-1.612-3.665-1.118-7.53 1.302-9.85l.341-.34c3.48-3.474 5.731-5.603 6.957-6.879 1.266-1.317 1.799-2.37 1.553-4.358z" fill="#000" fill-rule="nonzero"/></svg>
