<?xml version="1.0" encoding="UTF-8" standalone="no"?>
<svg xmlns="http://www.w3.org/2000/svg" version="1.1" width="600" height="849.88568">
  <path d="m 67.976653,844.68922 c -14.98382,-4.60496 -20.64186,-12.00446 -17.72072,-23.17455 2.54286,-9.72383 25.17485,-17.24278 60.091817,-19.96423 17.63669,-1.37447 37.91459,-4.62606 45.06184,-7.22544 37.25354,-13.54849 73.6648,-41.33741 82.79446,-63.18741 2.40778,-5.76203 6.99974,-43.7987 10.86075,-89.95941 6.1682,-73.74185 6.311,-80.39439 1.83471,-85.34071 -2.67002,-2.95053 -24.65509,-15.2711 -48.8556,-27.37918 -38.70921,-19.36723 -46.78522,-24.75814 -67.15693,-44.8288 -21.01544,-20.7046 -24.47838,-25.867 -37.453417,-55.83256 C 81.602373,391.23515 54.397453,310.97659 46.126473,276.4334 41.165083,255.71203 39.470723,252.8587 22.063293,235.91057 8.0054033,222.2238 2.8173833,214.87252 1.2516933,206.42219 c -3.7542,-20.26282 0.63506,-32.42326 17.2729197,-47.85469 l 15.18709,-14.08577 -2.14895,-61.024151 c -2.08752,-59.28024 -1.96714,-61.255112 4.20972,-69.107689 3.49724,-4.4459565 11.36244,-9.4732785 17.47826,-11.1719735 15.25642,-4.237222 478.248747,-4.237222 493.504787,0 6.11602,1.698695 14.01192,6.756348 17.54646,11.2396045 6.24525,7.921151 6.36243,9.719126 4.15075,63.682492 -1.25184,30.542217 -2.12577,58.086987 -1.94209,61.210657 0.18274,3.12366 7.04458,11.90348 15.24605,19.51097 16.3485,15.16391 20.73304,27.44209 16.99806,47.60056 -1.56757,8.46031 -6.76369,15.81121 -20.91841,29.59217 -17.48429,17.02274 -19.21595,19.92429 -24.18224,40.52264 -8.56807,35.53581 -35.54297,115.43248 -51.06935,151.25992 -12.98144,29.95501 -16.45739,35.13531 -37.46529,55.83255 -20.3719,20.07067 -28.4479,25.46158 -67.15712,44.82881 -24.20051,12.10808 -46.18539,24.42865 -48.85541,27.37918 -4.47647,4.94632 -4.33273,11.63051 1.84149,85.74461 3.7606,45.14059 8.48368,84.69115 10.77316,90.21299 8.72218,21.03653 45.99719,49.15212 82.87508,62.51128 7.14726,2.58902 27.63596,5.93366 45.52999,7.43229 35.25983,2.95335 57.12094,10.20403 59.62405,19.77603 3.01214,11.51936 -2.67134,18.50347 -19.00533,23.35408 -22.89442,6.79911 -440.589427,6.63691 -462.768717,-0.17897 z"/>
</svg>
