<?xml version="1.0" encoding="UTF-8" standalone="no"?>
<svg xmlns="http://www.w3.org/2000/svg" version="1.1" width="600" height="470.37875">
  <path d="M 152.8562,467.79226 C 132.62796,464.43865 5.290286,435.288 2.002196,433.2558 c -4.4587,-2.75567 0.63436,-6.37383 11.94276,-8.48412 9.97287,-1.86114 82.172696,-20.26915 112.536414,-28.69223 13.22825,-3.66957 19.03248,-12.07303 14.36399,-20.7963 C 138.1429,370.23356 74.584662,314.30388 16.979526,266.28448 -0.46867399,251.73954 -4.016434,246.1142 4.259056,246.1142 c 2.49562,0 41.615306,14.96527 86.932496,33.25621 45.317308,18.29081 84.807188,32.79907 87.755338,32.24037 12.29295,-2.32957 8.13469,-17.7239 -30.48361,-112.85687 -36.69419,-90.39306 -42.61293,-108.763876 -33.37597,-103.594646 2.37278,1.32796 33.44868,41.238556 69.05753,88.690276 65.01878,86.64283 70.75428,92.55169 79.54961,81.95408 2.10247,-2.53346 9.05782,-56.11536 16.80808,-129.48607 C 293.99841,8.555804 295.2225,0 300.00588,0 c 4.34971,0 5.27361,6.636194 19.16919,137.69 13.71054,129.30808 14.97592,135.29299 27.7473,131.23949 3.14139,-0.99699 35.22173,-40.97928 71.28978,-88.84954 36.06792,-47.87026 66.73875,-87.036746 68.15723,-87.036746 5.88502,0 0.85671,15.017976 -33.70527,100.669066 -19.95652,49.45557 -37.46987,93.80604 -38.91862,98.55659 -3.15267,10.33757 1.03675,19.876 8.72994,19.876 2.94199,0 40.37442,-14.35605 83.18303,-31.90223 C 582.73106,248.65252 600,242.79546 600,248.24501 c 0,1.54671 -20.5133,20.27107 -45.58507,41.60991 -99.32162,84.53292 -101.26842,86.50973 -95.60896,97.08439 3.63533,6.79275 6.01606,7.57393 78.16486,25.6479 66.48498,16.65536 64.76143,16.10807 61.2801,19.4563 -4.07799,3.92193 -104.24375,26.84943 -163.46883,37.41742 -14.61264,2.60731 -16.35991,-1.26179 -16.4407,-36.40478 -0.0616,-26.69068 -1.29076,-35.41639 -7.00754,-49.73205 -9.69782,-24.28443 -34.12561,-51.39814 -59.91009,-62.87234 -34.77689,-15.47576 -73.57113,-14.51621 -103.07505,-0.0244 -47.33861,23.25102 -71.40325,66.16517 -67.37271,119.91724 1.67751,22.37059 1.20421,24.74863 -3.96604,27.76294 -8.05186,4.69324 -17.16443,0.84312 -24.15377,-0.3157 z"/>
</svg>
