<?xml version="1.0" encoding="UTF-8" standalone="no"?>
<svg xmlns="http://www.w3.org/2000/svg" version="1.1" width="600" height="798.29449">
  <path d="m 245.33257,796.70855 c -0.98691,-0.9867 -0.94614,-4.0257 0.09,-6.7534 1.03667,-2.7275 39.21124,-63.714 84.8321,-135.5256 45.6207,-71.8114 84.60551,-133.6678 86.63266,-137.4585 5.863,-10.9625 3.04531,-25.2559 -5.97086,-30.2919 -7.10708,-3.9695 -24.22149,-1.7812 -193.59847,24.7552 -102.19094,16.0103 -189.33421,29.0708 -193.65129,29.0234 C 11.03636,540.31845 0,529.67325 0,517.62845 0,504.85335 13.70899,478.37205 96.33389,331.54167 172.48293,196.21939 171.16852,201.52388 130.62691,193.15883 117.33987,190.41724 111.6807,181.0649 115.08969,167.48246 118.0166,155.82033 194.61272,29.98152 206.21744,17.76954 211.88408,11.80632 221.64986,5.39058 227.91917,3.51224 242.32426,-0.80365 554.1693,-1.31868 565.4097,2.95491 c 11.073,4.21007 14.825,12.9869 10.1836,23.82282 -2.0915,4.88238 -78.06728,85.99788 -168.83526,180.25652 -90.76781,94.25884 -166.69058,174.54354 -168.71654,178.41048 -2.96548,5.65984 -2.88683,8.12082 0.40223,12.61897 3.93336,5.37923 8.10248,4.7774 111.68733,-16.12173 59.18105,-11.94037 112.66675,-21.69884 118.85742,-21.68576 14.92691,0.0323 20.99833,6.6442 29.31161,31.92359 15.48761,47.09528 20.46141,50.82765 63.56401,47.70085 32.041,-2.32424 40.7414,0.87122 37.5031,13.7744 -1.003,3.9957 -25.1768,30.1217 -53.7198,58.0577 -28.5429,27.9363 -89.04025,87.3578 -134.43826,132.048 -162.15269,159.625 -160.61628,158.2083 -165.8766,152.9478 z"/>
</svg>
