<?xml version="1.0" encoding="UTF-8"?>
<svg xmlns="http://www.w3.org/2000/svg" width="900pt" height="780pt" viewBox="0 0 900 780" version="1.1">
  <g>
    <path stroke="#000000" stroke-width="0.09375" d=" M 450.38 0.00 L 451.61 0.00 C 452.84 4.71 455.87 8.60 458.16 12.82 C 514.62 110.95 571.24 208.99 627.62 307.16 C 596.36 281.31 559.43 262.31 520.11 252.26 C 463.77 237.71 402.85 241.41 348.78 262.94 C 321.27 273.72 295.79 289.28 272.97 307.98 C 329.88 209.55 386.71 111.07 443.67 12.67 C 445.87 8.43 448.67 4.50 450.38 0.00 Z"/>
    <path stroke="#000000" stroke-width="0.09375" d=" M 438.77 275.61 C 441.79 275.71 444.82 275.83 447.84 276.03 C 448.48 288.61 448.08 301.23 448.30 313.82 C 446.77 313.34 445.26 312.87 443.74 312.39 C 442.13 300.12 440.48 287.86 438.77 275.61 Z"/>
    <path stroke="#000000" stroke-width="0.09375" d=" M 453.20 277.91 C 458.39 277.33 463.63 277.59 468.84 277.36 C 468.21 280.89 467.40 284.38 466.47 287.84 C 464.14 287.61 461.82 287.38 459.49 287.18 C 458.93 289.00 458.38 290.83 457.85 292.66 C 461.38 293.78 464.92 294.87 468.49 295.87 C 468.97 298.76 469.28 301.67 469.48 304.60 C 466.52 304.75 463.57 304.98 460.62 305.29 C 460.88 307.40 461.16 309.50 461.42 311.62 C 458.98 311.51 456.55 311.39 454.12 311.28 C 453.53 300.17 453.22 289.03 453.20 277.91 Z"/>
    <path stroke="#000000" stroke-width="0.09375" d=" M 413.78 279.40 C 419.59 279.18 425.39 278.62 431.21 278.58 C 431.29 279.39 431.45 281.02 431.53 281.83 C 428.51 282.18 425.50 282.47 422.48 282.73 C 422.83 284.76 423.21 286.78 423.58 288.81 C 427.09 290.13 430.61 291.42 434.11 292.76 C 434.67 299.59 435.54 306.41 435.78 313.27 C 432.12 313.39 428.47 313.53 424.82 313.66 C 421.16 302.23 417.23 290.89 413.78 279.40 Z"/>
    <path stroke="#000000" stroke-width="0.09375" d=" M 388.91 284.45 C 395.32 282.70 401.70 280.84 408.15 279.27 C 408.28 289.16 408.52 299.05 408.71 308.94 C 408.68 312.74 411.17 315.84 412.70 319.14 C 407.62 320.22 402.53 321.28 397.47 322.42 C 398.56 317.68 401.66 312.76 399.64 307.86 C 396.79 299.74 392.55 292.22 388.91 284.45 Z"/>
    <path stroke="#000000" stroke-width="0.09375" d=" M 497.52 282.97 C 501.95 283.49 506.31 284.42 510.72 285.08 C 510.09 286.99 509.45 288.91 508.83 290.83 C 510.14 291.78 513.06 291.81 512.71 294.02 C 512.71 295.28 512.68 296.54 512.62 297.81 C 510.30 298.09 507.98 298.34 505.65 298.53 C 504.10 300.47 502.90 302.65 502.18 305.03 C 504.25 306.52 506.40 307.91 508.64 309.16 C 508.83 311.47 509.26 313.79 508.98 316.12 C 505.77 316.58 502.52 316.55 499.30 316.73 C 499.26 318.04 499.22 319.36 499.20 320.68 C 495.64 320.84 492.08 321.08 488.53 321.26 C 490.01 316.21 491.92 311.22 492.53 305.97 C 492.45 301.22 489.67 297.11 487.68 292.96 C 490.75 292.40 493.81 291.77 496.88 291.18 C 497.15 288.45 497.34 285.71 497.52 282.97 Z"/>
    <path stroke="#000000" stroke-width="0.09375" d=" M 370.83 290.11 C 373.32 288.77 375.81 287.41 378.31 286.09 C 379.99 289.74 381.01 293.65 382.54 297.36 C 384.31 301.23 386.43 304.92 388.38 308.71 C 391.40 313.78 391.86 319.96 391.68 325.73 C 387.47 328.01 382.50 328.19 377.84 328.69 C 379.89 323.29 379.04 317.55 378.24 312.01 C 374.28 312.54 370.40 313.48 366.57 314.60 C 363.44 308.29 360.53 301.87 357.37 295.57 C 359.71 294.60 362.07 293.68 364.46 292.84 C 365.20 295.60 365.94 298.37 366.67 301.14 C 368.44 301.73 370.19 302.40 372.03 302.78 C 373.47 301.89 374.57 300.56 375.77 299.39 C 374.00 296.36 372.35 293.27 370.83 290.11 Z"/>
    <path stroke="#000000" stroke-width="0.09375" d=" M 512.08 326.82 C 516.21 313.78 520.69 300.84 525.01 287.86 C 526.20 289.40 527.26 291.03 528.26 292.71 C 531.40 292.86 534.58 292.70 537.71 293.26 C 536.39 296.04 534.66 298.60 533.07 301.23 C 529.73 302.74 525.24 303.45 523.36 306.90 C 523.80 309.46 526.74 310.42 528.60 311.84 C 528.85 313.15 529.11 314.47 529.36 315.79 C 526.93 317.15 526.52 319.71 526.47 322.27 C 528.33 323.71 530.16 325.18 531.97 326.69 C 531.12 327.28 530.27 327.88 529.43 328.49 C 529.36 330.63 529.30 332.77 529.25 334.92 C 523.47 332.32 517.84 329.44 512.08 326.82 Z"/>
    <path stroke="#000000" stroke-width="0.09375" d=" M 341.05 299.89 C 344.33 298.81 347.84 298.10 351.30 298.40 C 357.43 310.22 362.64 322.53 368.08 334.68 C 364.10 336.27 360.09 337.77 356.02 339.08 C 350.48 328.61 344.89 318.16 339.44 307.65 C 338.69 306.14 337.95 304.61 337.49 302.98 C 337.71 301.22 339.62 300.46 341.05 299.89 Z"/>
    <path stroke="#000000" stroke-width="0.09375" d=" M 543.47 308.53 C 542.49 305.50 541.99 302.31 542.52 299.14 C 548.77 299.57 554.44 302.38 560.24 304.46 C 557.85 310.54 550.37 310.57 545.27 313.05 C 546.71 315.48 548.79 317.41 551.05 319.07 C 547.01 326.08 542.69 332.93 538.83 340.04 C 537.03 338.76 535.26 337.43 533.51 336.09 C 536.15 330.66 538.58 325.11 541.66 319.89 C 539.45 318.05 537.20 316.29 534.91 314.58 C 537.91 312.79 541.04 311.10 543.47 308.53 Z"/>
    <path stroke="#000000" stroke-width="0.09375" d=" M 320.65 315.86 C 324.03 313.60 327.48 311.45 331.01 309.45 C 333.88 315.94 336.18 322.66 338.69 329.30 C 334.82 332.56 331.04 335.94 327.06 339.08 C 325.15 337.14 323.23 335.21 321.35 333.25 C 322.42 331.84 323.49 330.44 324.57 329.04 C 323.30 324.63 322.02 320.23 320.65 315.86 Z"/>
    <path stroke="#000000" stroke-width="0.09375" d=" M 562.20 322.39 C 564.62 318.68 565.79 314.32 567.70 310.35 C 571.71 312.38 575.69 314.48 579.61 316.71 C 572.51 327.69 564.97 338.37 557.77 349.27 C 554.94 348.02 552.20 346.58 549.55 345.01 C 551.36 341.70 553.73 338.76 555.91 335.69 C 555.24 333.07 551.88 332.75 549.86 331.48 C 551.22 327.73 553.40 324.37 555.80 321.22 C 557.88 321.55 560.13 323.08 562.20 322.39 Z"/>
    <path stroke="#000000" stroke-width="0.09375" d=" M 585.36 322.19 C 590.27 324.80 594.45 328.61 599.01 331.77 C 596.15 335.00 593.52 338.44 590.63 341.65 C 588.55 344.19 584.96 344.18 582.14 345.42 C 580.96 345.97 578.88 346.16 579.20 347.96 C 579.32 351.07 580.91 353.82 582.02 356.64 C 579.35 358.42 576.93 360.65 573.98 361.95 C 572.23 361.16 571.25 359.29 569.93 357.98 C 571.54 356.92 573.16 355.89 574.80 354.87 C 572.89 353.19 570.80 351.71 569.07 349.84 C 570.14 344.59 574.69 340.87 577.43 336.43 C 581.11 336.33 584.79 335.97 588.39 335.18 C 587.01 331.33 584.09 328.41 581.36 325.49 C 582.66 324.35 583.94 323.18 585.36 322.19 Z"/>
    <path stroke="#000000" stroke-width="0.09375" d=" M 441.42 328.09 C 445.13 328.25 448.85 328.43 452.57 328.64 C 452.29 337.12 450.92 345.52 450.20 353.97 C 454.60 357.23 459.08 360.38 463.84 363.09 C 462.15 364.52 460.54 367.18 457.96 366.51 C 452.77 365.58 447.49 365.50 442.26 366.20 C 441.49 353.51 441.76 340.79 441.42 328.09 Z"/>
    <path stroke="#000000" stroke-width="0.09375" d=" M 457.83 331.02 C 462.19 331.37 466.49 332.11 470.82 332.73 C 470.61 338.08 470.74 343.64 468.39 348.60 C 467.50 350.47 466.55 353.29 464.01 353.14 C 461.86 352.73 459.85 351.85 457.83 351.08 C 457.69 344.39 457.83 337.71 457.83 331.02 Z"/>
    <path stroke="#000000" stroke-width="0.09375" d=" M 330.86 340.91 C 335.19 337.75 339.63 334.76 344.11 331.82 C 346.46 335.38 348.78 338.95 350.97 342.62 C 346.72 345.48 342.51 348.42 338.16 351.14 C 335.84 347.65 333.39 344.24 330.86 340.91 Z"/>
    <path stroke="#000000" stroke-width="0.09375" d=" M 406.37 337.60 C 414.04 335.06 421.80 332.30 430.01 332.45 C 430.05 333.79 430.10 335.13 430.15 336.47 C 431.48 336.88 432.82 337.29 434.17 337.71 C 434.38 341.19 434.62 344.67 434.83 348.16 C 431.58 348.47 427.98 348.90 426.08 351.93 C 428.31 355.09 431.57 357.23 434.35 359.85 C 435.16 362.63 434.63 365.64 434.72 368.52 C 429.80 369.39 424.88 370.29 419.92 370.90 C 418.55 362.70 417.48 354.43 415.38 346.38 C 413.14 345.95 410.86 345.94 408.61 346.27 C 407.85 343.39 407.12 340.49 406.37 337.60 Z"/>
    <path stroke="#000000" stroke-width="0.09375" d=" M 479.19 333.91 C 483.33 335.40 487.50 336.87 491.52 338.68 C 494.23 339.92 494.65 343.46 494.13 346.06 C 493.14 350.16 491.51 354.10 489.72 357.91 C 488.44 360.93 484.90 361.52 482.16 362.56 C 481.49 364.27 480.84 365.98 480.18 367.69 C 477.35 366.89 474.46 366.18 471.81 364.87 C 471.34 363.56 472.07 362.21 472.28 360.92 C 474.68 351.94 476.99 342.94 479.19 333.91 Z"/>
    <path stroke="#000000" stroke-width="0.09375" d=" M 282.84 345.01 C 285.83 342.35 288.90 339.79 292.01 337.26 C 300.83 345.93 309.47 354.78 317.89 363.83 C 311.83 370.66 306.04 377.72 300.14 384.68 C 300.10 379.76 300.16 374.85 300.26 369.94 C 302.46 367.70 304.67 365.47 306.91 363.28 C 306.46 361.04 306.21 358.70 305.13 356.66 C 301.83 355.01 298.37 357.69 295.32 358.88 C 291.18 354.23 286.86 349.76 282.84 345.01 Z"/>
    <path stroke="#000000" stroke-width="0.09375" d=" M 603.54 337.98 C 607.54 340.86 611.17 344.21 614.87 347.46 C 606.73 355.07 598.23 362.28 590.05 369.84 C 589.11 370.62 588.22 371.51 587.06 371.93 C 585.20 370.45 583.52 368.74 582.10 366.84 C 588.74 356.89 596.32 347.54 603.54 337.98 Z"/>
    <path stroke="#000000" stroke-width="0.09375" d=" M 388.30 344.08 C 392.06 343.48 395.79 342.73 399.54 342.10 C 400.94 346.07 402.33 350.04 403.84 353.98 C 406.89 355.45 410.01 356.81 412.95 358.52 C 411.03 361.40 406.70 362.00 405.15 365.15 C 406.17 368.09 408.22 370.50 409.86 373.10 C 404.26 374.47 398.73 376.09 393.13 377.44 C 390.80 371.97 388.04 366.71 385.83 361.19 C 387.88 359.36 390.21 357.62 391.34 355.03 C 391.94 351.13 389.62 347.59 388.30 344.08 Z"/>
    <path stroke="#000000" stroke-width="0.09375" d=" M 500.78 343.50 C 503.12 342.87 505.50 342.40 507.90 342.05 C 508.07 343.91 509.01 345.95 507.85 347.68 C 506.10 351.14 504.13 354.50 502.93 358.21 C 504.67 359.09 506.42 359.94 508.20 360.76 C 504.83 366.78 503.04 373.46 500.26 379.74 C 496.46 377.23 490.72 375.63 489.34 370.88 C 491.83 361.30 497.00 352.62 500.78 343.50 Z"/>
    <path stroke="#000000" stroke-width="0.09375" d=" M 519.13 348.88 C 522.43 350.82 525.63 352.92 528.83 355.03 C 527.22 358.02 525.20 360.87 524.27 364.18 C 523.91 365.45 524.81 366.59 525.45 367.60 C 528.31 371.58 532.01 374.86 535.63 378.13 C 532.97 380.33 530.56 382.86 527.71 384.82 C 524.94 384.40 522.99 381.63 520.70 380.10 C 519.00 382.35 517.36 384.64 515.74 386.96 C 512.60 384.42 509.62 381.70 506.63 378.98 C 510.81 368.96 515.03 358.94 519.13 348.88 Z"/>
    <path stroke="#000000" stroke-width="0.09375" d=" M 267.05 361.00 C 270.47 358.07 273.90 355.14 277.18 352.06 C 283.33 357.48 289.10 363.30 295.01 368.98 C 291.84 372.12 288.45 375.02 285.04 377.90 C 281.67 375.17 278.31 372.43 274.92 369.74 C 276.93 366.80 282.37 364.74 280.45 360.50 C 280.19 359.15 278.48 358.73 277.43 359.44 C 274.81 360.69 272.75 362.81 270.56 364.65 C 269.38 363.43 268.21 362.21 267.05 361.00 Z"/>
    <path stroke="#000000" stroke-width="0.09375" d=" M 592.41 380.55 C 601.83 371.23 611.29 361.93 620.94 352.83 C 623.55 356.04 626.20 359.24 628.92 362.38 C 621.59 368.71 614.61 375.73 606.14 380.52 C 604.15 379.71 602.24 378.57 600.09 378.28 C 597.94 377.72 598.51 380.67 598.46 381.89 C 598.54 383.67 598.75 385.45 598.94 387.23 C 596.79 384.97 594.61 382.75 592.41 380.55 Z"/>
    <path stroke="#000000" stroke-width="0.09375" d=" M 531.62 365.17 C 532.44 361.81 532.26 357.89 534.87 355.28 C 538.76 357.63 542.66 359.98 546.66 362.14 C 543.71 365.52 540.64 368.79 537.40 371.90 C 535.49 369.64 533.55 367.41 531.62 365.17 Z"/>
    <path stroke="#000000" stroke-width="0.09375" d=" M 356.17 359.65 C 357.82 358.99 359.57 356.16 361.39 357.70 C 364.56 360.49 367.51 363.55 371.04 365.92 C 373.88 364.25 376.58 362.37 379.15 360.31 C 380.68 362.25 382.22 364.19 383.79 366.12 C 382.29 368.91 379.91 371.60 380.11 374.96 C 382.39 377.87 386.53 378.48 389.76 379.97 C 384.93 383.76 379.99 387.42 375.14 391.19 C 374.15 391.78 373.26 392.85 372.03 392.83 C 370.29 391.37 368.88 389.57 367.34 387.92 C 367.72 384.61 369.07 381.05 367.56 377.83 C 364.56 371.32 360.33 365.46 356.17 359.65 Z"/>
    <path stroke="#000000" stroke-width="0.09375" d=" M 342.24 367.99 C 345.27 366.35 348.31 364.73 351.38 363.16 C 354.91 367.82 357.18 373.30 359.33 378.70 C 360.59 381.71 357.85 384.30 357.05 387.05 C 359.12 390.81 362.81 393.37 365.05 397.03 C 361.68 400.22 358.32 404.07 354.11 405.92 C 346.06 397.16 338.48 387.96 330.56 379.07 C 332.70 377.03 334.82 374.98 336.95 372.95 C 339.62 375.61 342.57 378.43 346.60 378.53 C 346.91 374.47 344.30 371.21 342.24 367.99 Z"/>
    <path stroke="#000000" stroke-width="0.09375" d=" M 255.99 376.58 C 258.52 373.63 261.14 370.75 263.89 368.00 C 265.60 369.01 267.31 370.04 269.02 371.06 C 268.28 373.34 266.62 375.77 267.65 378.22 C 270.42 380.62 274.25 379.04 277.40 378.49 C 282.84 383.39 288.23 388.36 293.63 393.32 C 291.75 395.59 289.85 397.85 287.92 400.09 C 277.21 392.34 266.46 384.64 255.99 376.58 Z"/>
    <path stroke="#000000" stroke-width="0.09375" d=" M 531.32 398.09 C 538.22 387.92 544.84 377.56 552.04 367.59 C 554.75 368.89 557.45 370.23 560.14 371.58 C 555.87 379.03 550.35 385.67 545.70 392.88 C 548.70 395.98 551.66 399.10 554.69 402.18 C 551.88 405.40 549.09 408.64 546.20 411.79 C 541.26 407.20 536.35 402.59 531.32 398.09 Z"/>
    <path stroke="#000000" stroke-width="0.09375" d=" M 626.12 379.03 C 629.12 376.34 631.80 373.29 635.03 370.88 C 638.31 374.29 640.54 378.54 643.47 382.25 C 635.71 388.22 627.85 394.06 620.03 399.95 C 619.15 400.73 617.71 401.49 618.08 402.92 C 618.62 405.03 620.37 406.59 620.91 408.69 C 620.14 409.67 619.26 410.71 617.99 411.02 C 615.55 408.52 613.59 405.60 611.35 402.93 C 612.71 400.48 613.84 397.88 614.04 395.05 C 610.84 395.09 607.85 396.23 604.96 397.47 C 604.47 396.22 604.00 394.98 603.53 393.74 C 609.23 387.68 615.41 382.08 621.11 376.02 C 622.79 377.00 624.47 377.99 626.12 379.03 Z"/>
    <path stroke="#000000" stroke-width="0.09375" d=" M 562.33 374.97 C 565.40 376.91 568.40 378.95 571.39 381.00 C 569.87 384.69 567.84 388.47 568.40 392.60 C 569.42 392.99 570.31 392.79 571.05 392.01 C 573.26 390.02 574.93 387.53 576.82 385.25 C 578.80 387.69 580.62 390.25 582.28 392.92 C 573.59 402.59 564.95 412.31 556.17 421.90 C 553.92 419.49 551.65 417.10 549.35 414.75 C 552.94 410.46 556.70 406.32 560.37 402.10 C 557.36 399.00 554.41 395.86 551.35 392.82 C 554.89 386.79 558.68 380.92 562.33 374.97 Z"/>
    <path stroke="#000000" stroke-width="0.09375" d=" M 248.22 385.44 C 251.27 385.65 254.74 384.72 257.37 386.73 C 266.62 392.82 275.88 398.91 285.16 404.97 C 284.68 408.84 282.70 412.22 280.79 415.53 C 279.24 415.73 277.68 415.87 276.17 416.28 C 273.87 418.50 272.17 421.25 270.19 423.75 C 268.32 422.46 266.44 421.19 264.56 419.93 C 265.39 416.98 266.58 414.02 266.44 410.91 C 263.86 407.30 259.16 405.88 254.99 405.15 C 250.99 404.35 249.71 409.07 248.37 411.81 C 246.77 410.94 245.17 410.09 243.57 409.24 C 244.25 406.84 245.13 404.47 245.36 401.97 C 245.39 399.62 244.47 397.36 244.52 395.02 C 246.42 392.05 249.03 389.28 248.22 385.44 Z"/>
    <path stroke="#000000" stroke-width="0.09375" d=" M 315.36 391.15 C 319.17 389.38 322.90 387.43 326.79 385.84 C 333.91 394.10 341.33 402.10 348.63 410.20 C 345.50 414.43 342.25 418.56 339.06 422.75 C 337.69 421.98 336.33 421.22 334.97 420.46 C 337.01 418.11 339.43 415.92 340.48 412.91 C 340.08 410.67 337.50 411.04 336.13 412.10 C 334.19 413.45 332.61 415.23 330.95 416.90 C 326.98 412.98 322.97 409.10 319.06 405.13 C 319.58 402.72 320.24 400.32 320.32 397.85 C 319.49 395.12 317.16 393.24 315.36 391.15 Z"/>
    <path stroke="#000000" stroke-width="0.09375" d=" M 644.54 386.97 C 648.68 390.30 651.78 394.65 654.98 398.84 C 650.76 401.52 646.15 403.79 642.84 407.65 C 648.02 407.62 652.80 405.44 657.68 403.97 C 658.10 406.41 658.49 408.86 658.87 411.31 C 647.29 417.14 635.78 423.11 624.10 428.75 C 622.91 426.49 621.71 424.25 620.50 422.01 C 623.87 418.87 627.71 416.21 630.88 412.86 C 630.74 408.71 629.57 404.67 629.33 400.53 C 634.27 398.28 639.75 397.84 644.91 396.25 C 644.73 393.16 644.46 390.07 644.54 386.97 Z"/>
    <path stroke="#000000" stroke-width="0.09375" d=" M 425.49 392.64 C 429.04 391.77 432.61 390.93 436.23 390.29 C 436.42 392.16 436.77 394.03 436.65 395.93 C 435.77 399.57 432.69 402.28 431.87 405.93 C 431.63 413.39 431.98 420.87 431.89 428.34 C 428.05 429.21 424.23 430.11 420.38 430.89 C 418.91 429.03 417.52 427.12 416.27 425.12 C 417.20 421.99 421.52 418.50 418.53 415.36 C 415.22 411.70 410.41 409.53 407.80 405.16 C 405.76 403.05 406.29 399.40 408.47 397.63 C 411.45 396.26 413.68 399.71 416.03 401.02 C 418.16 403.39 421.17 401.38 423.62 400.70 C 424.23 398.01 424.84 395.32 425.49 392.64 Z"/>
    <path stroke="#000000" stroke-width="0.09375" d=" M 444.35 391.36 C 447.07 391.32 449.79 391.28 452.52 391.23 C 452.50 402.55 452.45 413.87 452.36 425.20 C 448.03 425.48 443.70 425.75 439.37 425.96 C 438.99 422.18 438.67 418.40 438.46 414.62 C 439.79 414.28 441.12 413.94 442.46 413.61 C 443.13 406.19 443.54 398.76 444.35 391.36 Z"/>
    <path stroke="#000000" stroke-width="0.09375" d=" M 466.44 391.26 C 470.54 392.93 474.70 394.46 478.71 396.36 C 477.41 399.19 475.88 401.95 475.06 404.97 C 476.86 407.21 479.58 408.46 481.85 410.18 C 479.65 416.89 477.44 423.61 475.20 430.31 C 470.99 429.42 466.77 428.59 462.52 427.96 C 462.89 425.53 463.30 423.11 463.68 420.69 C 461.86 420.22 460.04 419.75 458.23 419.30 C 457.87 412.48 457.74 405.65 457.78 398.82 C 460.58 398.60 463.39 398.39 466.20 398.18 C 466.28 395.87 466.35 393.56 466.44 391.26 Z"/>
    <path stroke="#000000" stroke-width="0.09375" d=" M 565.78 415.88 C 569.36 411.05 573.09 406.32 576.89 401.66 C 578.35 404.06 579.80 406.48 581.19 408.93 C 577.27 412.55 573.71 416.57 569.63 420.03 C 568.04 418.96 566.99 417.31 565.78 415.88 Z"/>
    <path stroke="#000000" stroke-width="0.09375" d=" M 297.48 416.72 C 300.74 412.53 303.93 408.31 307.10 404.06 C 316.06 412.77 324.91 421.60 333.90 430.28 C 331.69 431.68 329.66 434.59 327.07 434.68 C 320.87 430.05 315.38 424.50 310.02 418.93 C 306.36 416.55 301.62 417.42 297.48 416.72 Z"/>
    <path stroke="#000000" stroke-width="0.09375" d=" M 503.70 416.88 C 505.25 413.35 508.30 410.84 510.95 408.16 C 516.11 411.22 521.35 414.18 526.14 417.82 C 521.91 421.80 517.85 425.96 513.73 430.05 C 514.14 432.58 515.29 435.36 514.07 437.84 C 512.13 440.50 508.47 440.25 505.57 440.75 C 503.56 442.24 501.40 443.51 499.10 444.48 C 498.33 444.16 496.80 443.50 496.03 443.18 C 497.36 436.49 502.36 431.61 505.66 425.94 C 505.18 422.88 503.83 419.99 503.70 416.88 Z"/>
    <path stroke="#000000" stroke-width="0.09375" d=" M 366.02 424.35 C 370.38 420.65 374.32 416.48 378.76 412.87 C 379.73 414.04 380.76 415.18 381.62 416.45 C 380.93 419.16 379.62 421.70 379.14 424.48 C 382.44 424.81 385.69 424.09 388.81 423.07 C 393.67 429.43 398.62 435.85 402.03 443.13 C 400.96 443.74 399.86 444.30 398.75 444.83 C 395.46 443.59 393.22 439.66 389.28 440.37 C 390.50 443.66 392.14 446.78 393.86 449.85 C 391.20 452.40 388.59 455.00 386.00 457.62 C 376.39 449.39 366.67 441.29 357.05 433.08 C 358.78 431.87 360.51 430.65 362.24 429.43 C 366.02 432.80 369.79 436.22 373.95 439.13 C 375.78 440.35 377.84 441.63 380.15 441.32 C 382.14 440.67 382.10 438.22 382.92 436.65 C 380.30 435.69 377.52 435.35 374.74 435.31 C 371.75 431.72 368.78 428.11 366.02 424.35 Z"/>
    <path stroke="#000000" stroke-width="0.09375" d=" M 627.30 434.01 C 638.63 428.71 649.83 423.14 661.10 417.73 C 663.89 422.19 666.25 426.89 668.79 431.50 C 667.37 432.01 665.97 432.51 664.56 432.98 C 665.03 436.04 665.53 439.11 665.92 442.19 C 662.92 442.09 659.62 442.72 656.87 441.33 C 653.81 438.40 651.16 434.95 647.32 432.97 C 646.92 437.68 648.83 442.08 650.11 446.52 C 647.26 447.28 644.39 447.96 641.54 448.66 C 640.34 446.48 639.18 444.28 638.03 442.08 C 635.29 443.02 632.55 443.93 629.78 444.77 C 628.77 441.22 627.92 437.64 627.30 434.01 Z"/>
    <path stroke="#000000" stroke-width="0.09375" d=" M 231.51 420.68 C 237.64 421.77 244.27 422.84 249.87 419.35 C 252.46 420.80 255.09 422.20 257.74 423.54 C 257.93 425.93 258.11 428.33 258.26 430.73 C 261.49 431.28 264.79 431.42 267.97 432.26 C 269.41 433.15 270.35 434.63 271.48 435.87 C 270.79 437.98 270.11 440.10 269.40 442.22 C 266.47 442.19 263.54 442.18 260.61 442.18 C 260.23 443.96 259.84 445.73 259.47 447.51 C 256.12 447.40 252.78 447.24 249.47 446.80 C 249.25 443.57 249.51 440.27 248.79 437.10 C 242.71 433.36 236.24 430.27 229.98 426.83 C 230.46 424.77 230.98 422.72 231.51 420.68 Z"/>
    <path stroke="#000000" stroke-width="0.09375" d=" M 527.21 424.98 C 530.33 427.34 533.33 429.86 536.42 432.28 C 530.55 439.08 524.05 445.31 517.96 451.91 C 519.77 454.18 521.85 456.30 523.12 458.95 C 521.11 461.12 518.32 462.30 515.78 463.72 C 512.12 459.40 508.44 455.09 504.78 450.78 C 511.11 445.36 518.17 440.86 524.50 435.46 C 525.97 432.15 526.26 428.45 527.21 424.98 Z"/>
    <path stroke="#000000" stroke-width="0.09375" d=" M 293.72 426.96 C 299.06 426.99 304.38 426.38 309.70 426.31 C 315.88 431.60 321.60 437.43 327.68 442.85 C 324.75 445.41 321.89 448.04 319.02 450.67 C 314.00 444.79 309.61 438.11 303.01 433.85 C 299.82 431.69 296.62 429.51 293.72 426.96 Z"/>
    <path stroke="#000000" stroke-width="0.09375" d=" M 573.43 447.75 C 583.25 441.85 593.10 436.02 602.97 430.21 C 605.81 433.03 608.63 435.86 611.23 438.91 C 608.28 440.09 605.23 441.04 602.43 442.54 C 598.64 445.03 596.14 449.33 591.74 450.89 C 586.71 452.58 581.59 454.06 576.37 455.01 C 575.41 452.58 574.43 450.16 573.43 447.75 Z"/>
    <path stroke="#000000" stroke-width="0.09375" d=" M 229.27 442.70 C 229.62 439.44 232.23 437.59 234.87 436.12 C 237.43 437.84 240.44 439.14 242.39 441.63 C 243.45 443.99 241.93 446.55 241.87 449.00 C 245.11 453.21 251.14 453.52 256.04 453.38 C 259.65 453.14 263.31 456.15 262.31 460.02 C 263.09 463.74 258.11 462.55 255.88 463.45 C 254.67 464.61 253.57 466.01 251.96 466.62 C 250.51 466.60 249.20 465.92 247.87 465.45 C 239.65 461.98 231.31 458.80 223.10 455.29 C 223.49 452.24 223.29 449.09 224.06 446.10 C 225.24 444.29 227.49 443.73 229.27 442.70 Z"/>
    <path stroke="#000000" stroke-width="0.09375" d=" M 527.32 453.21 C 532.03 448.88 536.57 444.37 541.14 439.89 C 544.83 444.51 548.21 449.36 551.79 454.07 C 549.23 455.91 546.68 457.75 544.13 459.58 C 542.47 458.47 541.06 456.44 538.88 456.57 C 536.08 457.49 536.28 460.68 536.10 463.04 C 531.47 466.47 526.92 470.00 522.13 473.19 C 521.02 471.78 519.89 470.37 518.78 468.97 C 522.69 465.56 526.63 462.20 530.61 458.87 C 529.51 456.98 528.41 455.09 527.32 453.21 Z"/>
    <path stroke="#000000" stroke-width="0.09375" d=" M 345.11 450.12 C 347.82 446.90 350.49 443.63 353.19 440.39 C 363.40 448.15 373.59 455.95 383.88 463.62 C 382.29 465.47 380.69 467.31 379.07 469.13 C 373.19 464.28 367.68 458.92 361.33 454.68 C 358.39 452.78 355.98 455.93 354.24 457.88 C 351.16 455.33 348.11 452.75 345.11 450.12 Z"/>
    <path stroke="#000000" stroke-width="0.09375" d=" M 599.44 455.44 C 603.92 452.81 607.06 448.50 610.87 445.04 C 613.08 449.13 615.38 453.17 617.70 457.20 C 613.37 459.00 609.00 460.68 604.63 462.35 C 599.33 464.12 596.37 469.19 592.93 473.21 C 589.42 474.20 585.91 475.17 582.38 476.04 C 581.26 470.65 580.29 465.24 579.29 459.83 C 586.03 458.57 593.00 457.91 599.44 455.44 Z"/>
    <path stroke="#000000" stroke-width="0.09375" d=" M 660.87 452.90 C 664.91 451.54 665.06 444.81 670.09 445.44 C 674.93 444.70 674.78 451.07 675.96 454.19 C 674.08 454.59 671.10 454.22 671.14 456.96 C 671.52 460.98 675.55 463.33 677.27 466.82 C 671.80 467.11 666.46 465.78 661.05 465.47 C 656.66 465.15 652.76 468.49 648.36 467.50 C 645.55 466.50 644.23 463.55 642.56 461.32 C 640.15 460.95 637.74 460.64 635.33 460.36 C 635.50 458.70 635.58 457.03 636.05 455.43 C 639.09 455.26 642.33 455.79 644.94 453.84 C 647.27 452.21 649.62 454.78 651.93 455.24 C 654.97 454.77 657.92 453.81 660.87 452.90 Z"/>
    <path stroke="#000000" stroke-width="0.09375" d=" M 278.95 461.49 C 283.78 460.51 288.64 459.49 293.59 459.35 C 292.69 461.36 292.01 463.56 290.56 465.27 C 287.69 466.10 284.69 466.38 281.75 466.81 C 280.80 465.04 279.87 463.26 278.95 461.49 Z"/>
    <path stroke="#000000" stroke-width="0.09375" d=" M 339.46 465.30 C 340.64 463.29 341.81 461.28 342.97 459.26 C 348.39 461.97 353.83 464.62 359.20 467.43 C 360.73 465.79 361.94 462.45 364.73 463.26 C 367.87 465.31 370.13 468.45 371.71 471.81 C 370.29 473.69 367.83 475.39 368.15 478.05 C 368.84 481.30 370.15 484.41 370.58 487.73 C 366.12 487.77 361.67 487.31 357.34 486.25 C 357.18 482.53 358.95 479.20 360.46 475.93 C 353.46 472.38 346.43 468.91 339.46 465.30 Z"/>
    <path stroke="#000000" stroke-width="0.09375" d=" M 523.30 479.67 C 532.89 472.78 542.63 466.11 552.22 459.22 C 555.35 465.80 558.27 472.49 561.37 479.09 C 558.62 480.08 555.95 481.37 553.06 481.93 C 550.51 480.52 548.39 476.53 545.07 478.05 C 538.66 480.91 533.12 485.32 527.23 489.07 C 525.93 485.93 524.63 482.79 523.30 479.67 Z"/>
    <path stroke="#000000" stroke-width="0.09375" d=" M 224.60 464.23 C 225.88 463.73 227.18 462.68 228.59 463.45 C 236.08 466.31 243.35 469.72 250.75 472.80 C 250.41 474.47 250.08 476.15 249.74 477.83 C 247.00 477.71 244.27 477.57 241.54 477.43 C 241.58 476.66 241.66 475.14 241.70 474.38 C 238.99 474.49 236.29 474.60 233.58 474.71 C 234.35 476.73 235.11 478.75 235.87 480.79 C 229.28 480.10 222.72 479.23 216.14 478.47 C 216.20 476.46 216.27 474.46 216.34 472.46 C 219.34 472.49 222.34 472.52 225.35 472.53 C 225.22 469.75 224.99 466.98 224.60 464.23 Z"/>
    <path stroke="#000000" stroke-width="0.09375" d=" M 290.10 472.84 C 294.53 471.31 297.79 467.63 301.93 465.51 C 305.93 466.75 309.71 468.61 313.29 470.77 C 313.36 473.65 313.45 476.52 313.54 479.40 C 309.59 479.50 305.62 479.60 301.71 480.27 C 301.68 483.60 301.57 486.94 301.44 490.27 C 303.95 491.17 306.47 492.06 309.01 492.92 C 308.84 494.76 308.67 496.61 308.50 498.45 C 305.09 497.54 301.67 496.68 298.25 495.82 C 298.37 493.63 298.50 491.44 298.65 489.26 C 296.18 488.83 293.70 488.47 291.22 488.14 C 291.20 489.82 291.19 491.51 291.18 493.20 C 289.34 493.20 287.49 493.20 285.65 493.21 C 284.90 490.08 284.15 486.95 283.10 483.92 C 280.32 486.14 279.47 489.68 278.26 492.85 C 275.59 491.28 272.90 489.72 270.22 488.16 C 271.89 482.82 274.00 477.64 275.97 472.42 C 280.68 472.42 285.42 473.45 290.10 472.84 Z"/>
    <path stroke="#000000" stroke-width="0.09375" d=" M 599.56 474.61 C 601.13 471.29 603.14 467.59 606.96 466.53 C 610.46 465.91 612.21 469.58 613.93 471.92 C 616.05 471.34 618.17 470.73 620.30 470.15 C 620.73 472.11 621.19 474.07 621.63 476.04 C 611.25 478.19 601.03 481.07 590.60 482.99 C 593.57 480.18 597.92 478.60 599.56 474.61 Z"/>
    <path stroke="#000000" stroke-width="0.09375" d=" M 121.75 569.64 C 140.68 537.15 159.17 504.39 178.37 472.06 C 167.48 533.75 178.44 599.08 209.26 653.66 C 226.94 685.25 250.92 713.29 279.35 735.69 C 303.43 754.85 330.86 769.53 359.75 780.00 L 0.00 780.00 L 0.00 780.22 C 40.66 710.08 81.15 639.83 121.75 569.64 Z"/>
    <path stroke="#000000" stroke-width="0.09375" d=" M 333.63 477.95 C 334.78 475.71 335.91 473.46 337.02 471.21 C 340.80 472.66 344.53 474.23 348.25 475.85 C 348.82 480.67 349.35 485.51 350.21 490.30 C 355.66 491.76 361.16 493.15 366.30 495.52 C 366.33 496.59 366.41 498.74 366.44 499.81 C 357.87 497.71 349.25 495.82 340.74 493.47 C 340.35 491.53 339.94 489.60 339.49 487.68 C 335.70 485.87 334.91 481.52 333.63 477.95 Z"/>
    <path stroke="#000000" stroke-width="0.09375" d=" M 724.04 474.44 C 780.48 572.51 837.01 670.53 893.43 768.60 C 895.91 771.98 896.97 776.29 900.00 779.29 L 900.00 780.00 L 541.90 780.00 C 550.49 776.71 559.09 773.41 567.42 769.50 C 622.83 743.92 669.26 699.42 697.06 645.08 C 716.66 607.19 727.07 564.63 727.43 521.98 C 727.77 506.06 726.03 490.21 724.04 474.44 Z"/>
    <path stroke="#000000" stroke-width="0.09375" d=" M 587.65 491.44 C 599.09 488.73 610.56 486.09 622.10 483.84 C 624.15 488.48 626.02 493.23 627.26 498.17 C 622.23 497.18 618.37 492.83 613.03 493.14 C 608.48 492.70 605.87 497.05 603.89 500.42 C 601.62 499.35 599.39 498.12 596.95 497.48 C 593.79 496.79 590.70 498.17 587.70 498.95 C 587.68 496.44 587.67 493.94 587.65 491.44 Z"/>
    <path stroke="#000000" stroke-width="0.09375" d=" M 672.57 487.42 C 674.92 487.55 677.27 487.69 679.63 487.79 C 680.60 492.23 680.76 496.78 681.38 501.27 C 675.68 502.25 668.78 499.92 664.16 504.29 C 657.96 504.34 651.76 504.16 645.57 504.17 C 645.46 500.67 645.42 497.17 645.42 493.68 C 646.93 493.44 648.45 493.21 649.98 493.00 C 651.41 495.21 652.52 497.95 655.04 499.17 C 657.00 499.85 658.95 498.54 660.24 497.17 C 661.01 495.05 661.08 492.75 661.44 490.54 C 665.07 490.41 668.70 490.27 672.35 490.17 C 672.40 489.48 672.51 488.11 672.57 487.42 Z"/>
    <path stroke="#000000" stroke-width="0.09375" d=" M 329.45 495.18 C 342.06 498.68 354.71 502.06 367.30 505.63 C 367.60 509.88 367.81 514.14 367.88 518.40 C 359.96 518.61 352.04 518.16 344.13 518.43 C 342.82 520.74 342.12 523.33 341.23 525.83 C 337.34 523.25 333.20 521.07 329.38 518.40 C 330.02 515.36 336.26 514.99 335.86 510.99 C 335.66 507.26 333.03 504.42 329.56 503.35 C 329.52 500.62 329.47 497.90 329.45 495.18 Z"/>
    <path stroke="#000000" stroke-width="0.09375" d=" M 269.79 501.24 C 273.92 500.66 278.10 500.53 282.27 500.46 C 282.26 503.13 282.26 505.80 282.27 508.48 C 277.77 509.05 273.25 509.52 268.73 509.87 C 269.14 507.00 269.50 504.12 269.79 501.24 Z"/>
    <path stroke="#000000" stroke-width="0.09375" d=" M 288.34 510.04 C 289.62 506.50 290.84 502.73 293.81 500.20 C 295.77 501.68 297.69 503.22 299.57 504.80 C 299.85 506.99 300.16 509.17 300.44 511.36 C 296.42 510.78 292.38 510.39 288.34 510.04 Z"/>
    <path stroke="#000000" stroke-width="0.09375" d=" M 544.07 504.41 C 550.89 503.73 557.74 503.35 564.58 503.05 C 566.03 509.67 568.06 516.42 566.09 523.18 C 555.41 523.46 544.72 523.77 534.03 523.81 C 533.75 522.44 533.48 521.08 533.23 519.73 C 540.38 518.18 547.52 516.57 554.69 515.10 C 554.37 513.29 554.04 511.49 553.69 509.70 C 550.16 509.49 546.63 509.18 543.13 508.71 C 543.43 507.27 543.75 505.84 544.07 504.41 Z"/>
    <path stroke="#000000" stroke-width="0.09375" d=" M 616.59 504.72 C 621.18 503.94 625.76 503.17 630.35 502.40 C 630.34 504.33 630.33 506.28 630.32 508.23 C 627.49 509.78 623.50 510.71 622.33 514.07 C 622.51 517.06 624.29 519.70 624.97 522.61 C 615.96 522.92 606.95 522.21 597.96 521.71 C 595.37 521.61 592.52 521.25 590.67 519.24 C 589.44 516.99 590.73 514.09 593.14 513.33 C 596.00 512.33 597.65 509.77 599.24 507.37 C 602.59 507.26 605.94 507.06 609.29 506.74 C 609.98 507.97 610.66 509.20 611.36 510.44 C 613.17 510.47 614.99 510.50 616.82 510.54 C 616.74 508.59 616.66 506.65 616.59 504.72 Z"/>
    <path stroke="#000000" stroke-width="0.09375" d=" M 240.22 504.70 C 243.59 504.26 247.00 504.54 250.39 504.55 C 250.85 508.24 248.53 510.72 246.12 513.08 C 246.12 515.70 249.30 516.49 250.69 518.34 C 251.20 519.92 251.37 521.58 251.66 523.22 C 245.70 522.94 239.74 522.76 233.77 522.74 C 233.75 521.98 233.71 520.46 233.68 519.69 C 227.60 519.06 221.45 518.84 215.41 517.91 C 215.08 513.99 215.29 510.06 215.23 506.14 C 223.20 506.28 231.18 506.54 239.16 506.70 C 239.42 506.20 239.95 505.20 240.22 504.70 Z"/>
    <path stroke="#000000" stroke-width="0.09375" d=" M 668.06 509.11 C 668.33 508.75 668.87 508.02 669.13 507.65 C 673.53 507.03 677.99 506.98 682.41 506.58 C 682.07 508.52 681.75 510.46 681.44 512.40 C 680.00 512.86 678.58 513.33 677.16 513.79 C 676.85 515.60 676.56 517.43 676.29 519.25 C 669.52 519.71 662.79 520.46 656.02 520.92 C 655.04 521.75 654.09 522.62 653.03 523.34 C 649.91 524.29 647.16 522.05 644.65 520.55 C 644.74 516.96 644.95 513.38 645.37 509.81 C 652.93 509.69 660.50 509.44 668.06 509.11 Z"/>
    <path stroke="#000000" stroke-width="0.09375" d=" M 274.06 517.49 C 282.38 517.16 290.69 516.52 299.03 516.35 C 301.32 516.14 303.24 517.59 305.22 518.52 C 305.97 520.55 306.76 522.58 307.57 524.60 C 303.88 525.27 300.17 525.81 296.48 526.42 C 296.37 529.85 296.25 533.28 296.15 536.72 C 294.13 536.69 292.11 536.66 290.10 536.62 C 288.88 534.74 287.44 532.61 284.91 532.65 C 282.01 533.53 282.82 536.83 282.67 539.11 C 278.42 538.65 273.51 540.33 269.68 538.31 C 267.95 533.88 273.53 531.17 273.78 527.13 C 272.02 524.53 269.81 522.27 268.01 519.70 C 269.80 518.45 271.80 517.44 274.06 517.49 Z"/>
    <path stroke="#000000" stroke-width="0.09375" d=" M 352.50 525.71 C 357.23 525.04 362.04 525.40 366.80 525.19 C 366.65 528.70 366.50 532.22 366.40 535.74 C 360.11 536.75 353.76 537.30 347.46 538.25 C 346.02 542.38 344.52 546.49 343.09 550.63 C 339.16 550.85 335.24 551.15 331.32 551.35 C 332.75 547.79 334.48 543.96 333.60 540.05 C 332.86 537.55 330.76 535.81 329.08 533.94 C 336.94 531.33 344.62 528.21 352.50 525.71 Z"/>
    <path stroke="#000000" stroke-width="0.09375" d=" M 675.65 525.37 C 678.00 525.42 680.35 525.49 682.70 525.57 C 682.81 531.24 682.97 536.93 682.61 542.60 C 678.08 541.33 673.81 538.59 668.97 538.83 C 667.21 538.82 665.48 538.89 663.74 538.94 C 663.75 542.59 663.95 546.24 664.25 549.89 C 659.35 550.76 654.52 549.44 649.83 548.16 C 649.77 546.25 649.72 544.35 649.68 542.46 C 651.68 542.08 653.68 541.72 655.70 541.37 C 655.27 539.17 654.83 536.97 654.39 534.78 C 651.60 534.74 648.82 534.68 646.05 534.62 C 646.23 532.93 646.43 531.25 646.63 529.58 C 650.15 529.76 653.66 530.06 657.17 530.33 C 657.26 528.80 657.38 527.28 657.50 525.77 C 661.45 525.78 665.41 525.76 669.37 525.72 C 669.27 527.95 669.17 530.18 669.09 532.42 C 670.27 532.15 671.46 531.87 672.66 531.60 C 673.60 529.50 674.60 527.42 675.65 525.37 Z"/>
    <path stroke="#000000" stroke-width="0.09375" d=" M 214.89 525.26 C 220.04 525.18 225.19 525.23 230.35 525.28 C 230.26 526.27 230.09 528.24 230.01 529.22 C 237.60 530.00 245.18 530.95 252.78 531.64 C 252.87 535.23 252.89 538.83 252.89 542.42 C 247.32 542.12 241.77 541.63 236.20 541.44 C 236.36 544.73 236.53 548.02 236.68 551.32 C 234.42 551.36 232.16 551.41 229.90 551.45 C 229.73 547.91 229.53 544.37 229.32 540.83 C 224.59 539.06 219.70 537.77 214.96 536.04 C 214.60 532.46 214.86 528.85 214.89 525.26 Z"/>
    <path stroke="#000000" stroke-width="0.09375" d=" M 599.92 528.72 C 609.86 529.33 619.81 529.44 629.76 529.69 C 629.80 532.53 629.78 535.37 629.66 538.22 C 628.15 537.02 626.68 535.79 625.21 534.57 C 617.40 534.37 609.60 534.35 601.80 534.27 C 601.16 532.42 600.52 530.58 599.92 528.72 Z"/>
    <path stroke="#000000" stroke-width="0.09375" d=" M 530.32 531.45 C 538.97 530.81 547.64 530.42 556.32 530.16 C 556.74 533.31 557.19 536.46 557.53 539.63 C 551.70 539.95 545.87 540.58 540.03 540.44 C 535.38 539.61 531.92 535.73 530.32 531.45 Z"/>
    <path stroke="#000000" stroke-width="0.09375" d=" M 299.02 541.06 C 302.02 539.97 305.21 539.55 308.37 539.10 C 308.71 543.58 309.06 548.07 309.40 552.56 C 304.59 553.53 299.82 554.63 295.02 555.62 C 295.27 557.25 295.52 558.89 295.78 560.52 C 290.25 562.78 285.36 568.00 278.92 566.71 C 277.03 566.72 275.65 565.38 274.31 564.26 C 275.51 561.56 277.98 559.11 277.85 556.02 C 275.73 552.77 271.69 550.85 271.08 546.64 C 277.48 544.19 283.62 548.32 289.95 548.73 C 293.89 547.55 295.64 543.13 299.02 541.06 Z"/>
    <path stroke="#000000" stroke-width="0.09375" d=" M 602.80 542.40 C 607.42 542.13 612.02 541.74 616.64 541.53 C 617.27 543.89 617.87 546.24 618.50 548.60 C 617.47 548.99 616.45 549.38 615.43 549.78 C 615.61 552.18 615.80 554.59 615.98 557.00 C 614.86 557.81 613.75 558.61 612.65 559.44 C 612.95 564.82 613.29 570.20 613.40 575.60 C 615.31 576.74 617.21 577.92 619.01 579.26 C 616.66 579.74 614.14 580.06 611.92 578.93 C 603.24 575.26 594.62 571.44 585.88 567.92 C 584.96 567.35 583.55 567.24 583.12 566.14 C 584.86 562.95 586.40 559.58 588.67 556.73 C 590.03 554.77 592.75 555.38 594.09 557.03 C 597.09 559.32 597.03 563.36 597.75 566.72 C 600.04 566.95 602.35 566.89 604.65 566.60 C 604.78 563.84 605.15 561.01 604.55 558.29 C 599.62 554.29 593.45 552.19 587.62 549.87 C 587.78 547.61 587.99 545.36 588.25 543.12 C 592.49 544.23 596.78 545.22 601.15 545.72 C 601.70 544.61 602.25 543.50 602.80 542.40 Z"/>
    <path stroke="#000000" stroke-width="0.09375" d=" M 351.74 542.19 C 357.33 542.17 362.91 542.15 368.49 542.21 C 369.15 543.98 369.81 545.75 370.49 547.53 C 364.66 549.36 357.90 550.08 353.65 554.98 C 353.63 555.62 353.61 556.91 353.60 557.55 C 347.47 559.94 341.40 562.44 335.31 564.92 C 334.82 563.07 334.36 561.21 333.94 559.35 C 338.61 557.00 343.35 554.71 347.60 551.66 C 350.72 549.55 350.97 545.51 351.74 542.19 Z"/>
    <path stroke="#000000" stroke-width="0.09375" d=" M 527.89 543.84 C 528.53 543.40 529.80 542.52 530.44 542.08 C 531.41 543.87 532.14 545.81 533.40 547.43 C 536.38 549.54 540.33 550.35 543.90 549.60 C 546.45 548.67 547.35 545.83 548.66 543.71 C 550.59 543.98 552.53 544.24 554.47 544.49 C 553.20 545.96 551.84 547.37 550.83 549.03 C 550.46 551.27 551.23 553.72 552.78 555.39 C 556.61 556.49 560.54 554.68 564.29 553.92 C 562.06 561.21 559.93 568.52 557.75 575.83 C 555.24 575.72 552.73 575.60 550.22 575.49 C 550.20 572.63 550.20 569.78 550.19 566.93 C 542.03 562.74 533.73 558.81 525.67 554.43 C 526.52 550.93 527.24 547.39 527.89 543.84 Z"/>
    <path stroke="#000000" stroke-width="0.09375" d=" M 618.03 565.08 C 619.59 557.81 620.78 550.38 623.52 543.43 C 624.83 543.97 626.15 544.51 627.47 545.06 C 625.51 552.29 623.16 559.42 621.08 566.62 C 620.05 566.10 619.03 565.59 618.03 565.08 Z"/>
    <path stroke="#000000" stroke-width="0.09375" d=" M 216.17 547.84 C 219.32 547.69 222.47 547.47 225.63 547.24 C 225.85 550.59 226.15 553.94 226.39 557.30 C 233.68 557.26 240.97 557.24 248.26 557.19 C 248.36 555.45 248.47 553.71 248.57 551.97 C 250.80 552.27 253.02 552.58 255.25 552.90 C 256.33 557.47 257.35 562.06 258.47 566.63 C 247.88 567.87 237.16 567.92 226.59 569.38 C 226.81 571.46 227.05 573.54 227.29 575.62 C 224.41 574.81 221.53 573.96 218.66 573.13 C 217.82 564.70 216.45 556.32 216.17 547.84 Z"/>
    <path stroke="#000000" stroke-width="0.09375" d=" M 665.07 554.58 C 667.61 553.46 668.75 550.73 670.17 548.54 C 673.98 548.73 677.78 549.12 681.59 549.48 C 681.37 551.55 681.26 553.67 680.70 555.70 C 678.98 556.17 677.20 556.33 675.46 556.59 C 675.54 561.29 677.35 565.64 680.62 569.02 C 678.46 569.85 676.39 571.05 674.07 571.29 C 667.97 569.06 661.48 567.21 654.93 568.08 C 651.64 568.54 648.07 568.75 645.44 566.38 C 646.11 564.59 647.80 562.98 647.55 560.97 C 645.39 558.16 642.48 555.93 640.97 552.64 C 648.99 549.84 657.05 554.36 665.07 554.58 Z"/>
    <path stroke="#000000" stroke-width="0.09375" d=" M 366.73 555.68 C 368.37 554.60 369.98 553.37 371.93 552.91 C 373.75 554.60 374.67 556.98 375.88 559.10 C 368.01 564.84 359.58 569.90 352.22 576.29 C 352.18 579.29 354.73 581.39 356.22 583.75 C 353.54 585.46 350.86 587.18 348.16 588.85 C 345.75 583.83 343.17 578.89 340.76 573.88 C 349.32 567.68 358.05 561.70 366.73 555.68 Z"/>
    <path stroke="#000000" stroke-width="0.09375" d=" M 298.07 568.28 C 302.01 565.95 304.29 561.94 307.47 558.81 C 310.05 562.25 312.51 565.81 314.29 569.75 C 310.68 571.99 307.09 574.26 303.55 576.62 C 299.56 578.66 301.83 583.78 301.81 587.25 C 299.76 587.43 297.72 587.62 295.68 587.82 C 293.62 585.29 291.72 582.09 288.13 581.80 C 287.74 585.19 288.45 588.54 289.54 591.74 C 287.87 591.70 286.20 591.68 284.54 591.66 C 282.41 586.41 280.33 581.13 278.22 575.86 C 280.98 574.17 283.55 572.10 286.55 570.85 C 290.38 569.98 294.91 571.18 298.07 568.28 Z"/>
    <path stroke="#000000" stroke-width="0.09375" d=" M 528.48 562.91 C 534.07 565.22 539.18 568.53 544.39 571.58 C 543.78 573.81 543.21 576.04 542.62 578.28 C 545.76 579.26 548.92 580.18 552.11 581.03 C 550.20 585.61 547.89 590.00 545.81 594.51 C 542.15 591.83 538.89 588.59 535.05 586.18 C 532.38 587.36 529.91 588.95 527.29 590.23 C 522.68 585.51 517.87 580.99 513.25 576.28 C 514.48 574.15 515.51 571.86 517.12 569.98 C 519.67 568.65 522.92 569.73 525.49 568.47 C 526.69 566.73 527.52 564.78 528.48 562.91 Z"/>
    <path stroke="#000000" stroke-width="0.09375" d=" M 365.14 573.13 C 367.15 569.25 372.47 567.57 376.60 568.36 C 377.76 571.20 376.77 574.38 377.49 577.32 C 381.01 579.57 385.42 580.54 388.07 584.03 C 384.96 587.35 380.21 587.04 376.06 587.25 C 370.65 593.43 365.17 599.54 359.74 605.71 C 357.14 603.15 354.21 600.90 351.97 598.01 C 357.28 592.17 363.24 586.96 368.71 581.27 C 367.48 578.57 365.97 575.98 365.14 573.13 Z"/>
    <path stroke="#000000" stroke-width="0.09375" d=" M 585.09 574.23 C 588.21 573.37 590.91 576.01 592.38 578.46 C 594.21 581.95 596.85 585.69 600.80 586.80 C 603.60 585.87 606.07 584.22 608.69 582.90 C 610.70 585.10 613.72 586.82 614.34 589.96 C 614.27 592.66 612.25 594.75 610.00 595.95 C 606.71 597.75 602.89 599.58 599.08 598.36 C 594.71 597.09 590.26 595.85 586.14 593.89 C 583.31 591.75 580.89 589.10 578.43 586.55 C 576.82 585.45 577.47 583.57 577.88 582.05 C 579.86 580.89 582.05 580.15 584.15 579.21 C 584.49 577.60 583.92 575.53 585.09 574.23 Z"/>
    <path stroke="#000000" stroke-width="0.09375" d=" M 647.97 578.22 C 653.72 579.39 658.88 576.07 664.15 574.42 C 665.94 573.88 667.26 575.68 668.10 577.01 C 669.70 580.00 670.65 583.36 672.87 586.02 C 674.21 587.52 674.85 589.40 674.90 591.42 C 669.12 591.30 663.55 589.68 657.89 588.74 C 654.14 588.10 650.42 589.18 646.76 589.83 C 645.62 587.84 644.47 585.87 643.28 583.92 C 641.33 583.23 639.21 582.77 637.58 581.46 C 636.49 579.37 636.62 576.93 636.30 574.67 C 638.60 574.52 640.90 574.39 643.21 574.26 C 644.63 575.72 645.77 577.85 647.97 578.22 Z"/>
    <path stroke="#000000" stroke-width="0.09375" d=" M 234.33 577.21 C 243.90 578.54 253.34 576.51 262.65 574.49 C 263.37 579.04 263.83 583.64 264.45 588.21 C 259.79 589.61 255.13 591.01 250.47 592.43 C 250.74 591.55 251.26 589.79 251.53 588.90 C 247.24 588.60 242.96 588.29 238.67 588.11 C 239.78 591.11 240.91 594.11 242.04 597.11 C 238.79 598.54 235.49 599.89 232.11 601.01 C 231.63 599.09 231.23 597.14 230.47 595.32 C 228.59 593.87 226.10 593.32 224.42 591.66 C 223.11 589.18 222.38 586.47 221.41 583.86 C 224.11 583.78 226.88 584.08 229.51 583.34 C 232.06 582.25 233.07 579.46 234.33 577.21 Z"/>
    <path stroke="#000000" stroke-width="0.09375" d=" M 309.02 579.12 C 314.45 578.61 318.33 582.53 321.85 586.03 C 324.06 588.39 325.16 591.49 326.64 594.31 C 322.91 598.04 319.38 602.01 315.28 605.35 C 314.66 603.42 314.06 601.50 313.45 599.58 C 309.17 598.47 305.12 600.02 301.39 602.00 C 302.82 604.06 304.25 606.12 305.73 608.16 C 301.84 609.94 297.89 611.58 293.91 613.14 C 291.44 608.80 289.14 604.38 287.10 599.82 C 294.56 596.09 302.42 592.96 309.38 588.34 C 310.24 585.50 309.13 582.14 309.02 579.12 Z"/>
    <path stroke="#000000" stroke-width="0.09375" d=" M 493.13 598.05 C 497.47 593.08 501.22 587.56 505.93 582.93 C 507.51 583.98 508.89 585.32 510.50 586.36 C 512.54 587.15 514.88 587.00 516.88 587.97 C 520.85 590.95 521.14 596.68 524.88 599.85 C 527.77 598.73 529.52 594.85 532.87 595.25 C 535.54 596.74 537.48 599.19 539.63 601.31 C 536.19 605.88 532.51 610.25 528.96 614.74 C 521.86 607.58 514.81 600.39 507.79 593.17 C 506.39 594.62 505.03 596.11 503.68 597.61 C 510.13 604.81 516.33 612.24 522.80 619.44 C 519.57 622.05 516.21 624.48 512.89 626.95 C 510.07 624.16 507.31 621.33 504.79 618.28 C 506.86 616.21 508.91 614.12 510.98 612.05 C 509.65 608.40 506.97 605.60 504.03 603.21 C 502.63 604.08 501.24 604.95 499.86 605.84 C 497.60 603.25 495.37 600.64 493.13 598.05 Z"/>
    <path stroke="#000000" stroke-width="0.09375" d=" M 392.63 586.73 C 395.16 589.36 397.37 592.28 399.68 595.12 C 398.54 597.63 397.28 600.09 395.90 602.49 C 394.58 601.06 393.32 599.58 392.11 598.06 C 387.55 599.84 384.49 603.75 381.10 607.07 C 377.42 610.74 373.77 614.43 370.06 618.06 C 367.79 615.63 365.48 613.24 363.10 610.92 C 371.23 603.74 379.24 596.28 388.50 590.55 C 390.04 589.46 391.32 588.07 392.63 586.73 Z"/>
    <path stroke="#000000" stroke-width="0.09375" d=" M 629.59 589.68 C 637.17 588.94 643.02 594.74 650.03 596.39 C 655.42 596.82 660.75 594.81 666.15 595.68 C 670.49 600.92 670.09 609.42 665.13 614.21 C 660.62 616.98 655.81 613.45 652.84 610.12 C 646.37 603.51 637.23 600.16 631.23 593.01 C 630.57 591.95 630.02 590.84 629.59 589.68 Z"/>
    <path stroke="#000000" stroke-width="0.09375" d=" M 563.02 603.99 C 566.69 600.01 570.29 595.98 573.96 592.01 C 581.32 596.41 588.60 600.94 595.83 605.56 C 594.85 607.59 593.87 609.64 592.92 611.69 C 589.08 610.36 585.31 608.85 581.56 607.32 C 582.00 608.93 582.45 610.54 582.90 612.16 C 588.34 615.40 594.13 618.26 598.76 622.69 C 595.88 627.59 593.64 633.10 589.16 636.82 C 583.37 633.28 578.13 628.91 573.12 624.35 C 575.13 622.52 576.97 620.52 578.58 618.34 C 573.24 613.72 568.07 608.92 563.02 603.99 Z"/>
    <path stroke="#000000" stroke-width="0.09375" d=" M 229.42 607.64 C 241.36 602.78 253.42 598.23 265.36 593.37 C 267.37 596.60 269.12 599.98 270.81 603.38 C 267.15 604.96 263.25 606.00 259.69 607.83 C 257.31 610.30 255.55 613.30 253.23 615.83 C 250.39 614.71 247.98 612.50 245.06 611.71 C 240.50 612.38 236.03 613.52 231.51 614.44 C 230.78 612.18 230.10 609.91 229.42 607.64 Z"/>
    <path stroke="#000000" stroke-width="0.09375" d=" M 298.17 619.57 C 308.32 613.43 318.40 607.14 328.88 601.57 C 330.88 603.84 332.79 606.20 334.53 608.69 C 327.96 612.45 321.55 616.49 315.02 620.31 C 315.79 621.97 316.57 623.62 317.37 625.28 C 313.36 627.68 309.51 630.52 305.02 631.94 C 301.77 628.49 300.49 623.65 298.17 619.57 Z"/>
    <path stroke="#000000" stroke-width="0.09375" d=" M 473.10 607.26 C 475.59 606.58 478.07 605.88 480.56 605.19 C 484.49 616.29 487.65 627.66 490.78 639.01 C 485.49 640.59 480.31 642.50 475.00 644.02 C 474.08 641.99 473.15 639.97 472.23 637.96 C 474.26 635.99 476.30 634.02 478.33 632.05 C 476.59 623.79 474.52 615.59 473.10 607.26 Z"/>
    <path stroke="#000000" stroke-width="0.09375" d=" M 423.25 607.59 C 425.24 607.90 427.23 608.25 429.23 608.58 C 427.21 613.69 424.75 618.61 422.48 623.61 C 421.00 626.98 417.29 628.36 414.80 630.84 C 411.63 633.35 410.08 637.17 408.49 640.76 C 406.63 638.52 402.63 636.45 403.88 633.03 C 405.55 627.85 408.22 622.93 411.82 618.84 C 413.54 616.72 416.29 616.06 418.45 614.55 C 420.50 612.58 421.78 609.99 423.25 607.59 Z"/>
    <path stroke="#000000" stroke-width="0.09375" d=" M 462.56 609.91 C 464.47 609.83 466.39 609.75 468.31 609.69 C 468.61 621.74 469.40 633.78 469.69 645.84 C 463.00 645.49 456.29 645.39 449.63 644.71 C 449.36 642.04 449.06 639.38 448.71 636.73 C 453.01 636.67 457.32 636.61 461.63 636.60 C 462.07 634.31 462.48 632.02 462.86 629.74 C 459.09 629.39 455.34 628.94 451.59 628.46 C 451.50 625.78 451.40 623.10 451.31 620.43 C 455.33 620.62 459.35 620.98 463.35 621.46 C 463.24 617.60 462.88 613.76 462.56 609.91 Z"/>
    <path stroke="#000000" stroke-width="0.09375" d=" M 438.49 612.65 C 440.73 612.10 442.96 611.54 445.20 611.03 C 444.45 622.77 443.58 634.51 443.22 646.27 C 441.32 646.84 439.36 648.25 437.34 647.71 C 434.21 645.62 431.89 642.03 428.05 641.20 C 425.17 640.89 425.15 644.70 424.20 646.55 C 421.71 645.81 419.09 645.31 416.88 643.89 C 415.41 641.57 417.23 638.64 418.95 636.98 C 422.07 635.10 425.83 634.74 429.07 633.13 C 433.14 626.79 435.34 619.46 438.49 612.65 Z"/>
    <path stroke="#000000" stroke-width="0.09375" d=" M 264.44 616.55 C 266.16 615.32 267.99 614.23 269.86 613.26 C 271.54 616.28 273.26 619.30 274.98 622.31 C 276.44 622.34 277.91 622.38 279.38 622.44 C 280.85 624.36 282.35 626.26 283.86 628.16 C 279.68 630.74 275.23 632.82 270.75 634.80 C 270.68 637.62 270.61 640.44 270.53 643.27 C 268.67 644.81 266.81 646.37 264.97 647.94 C 262.39 647.01 259.89 645.77 257.18 645.29 C 253.95 646.09 250.97 647.68 247.88 648.88 C 245.76 645.50 243.57 642.16 241.84 638.56 C 243.38 637.76 244.92 636.97 246.46 636.18 C 244.85 630.93 240.61 627.50 236.67 624.01 C 239.76 622.87 242.87 621.79 245.98 620.70 C 247.02 622.32 247.43 625.13 249.97 624.69 C 251.14 623.71 252.19 622.58 253.24 621.48 C 254.72 621.74 256.19 622.02 257.66 622.33 C 258.57 624.90 259.43 629.02 262.99 628.79 C 264.95 629.09 266.29 627.55 267.51 626.30 C 266.55 623.03 265.59 619.76 264.44 616.55 Z"/>
    <path stroke="#000000" stroke-width="0.09375" d=" M 331.16 617.20 C 334.18 616.85 337.19 616.27 339.99 615.02 C 342.61 617.67 345.20 620.34 347.83 622.97 C 346.79 625.55 345.66 628.10 344.41 630.59 C 341.62 629.05 338.57 627.83 335.32 628.33 C 335.02 630.95 335.70 633.48 336.83 635.83 C 334.52 637.73 332.29 639.71 330.11 641.75 C 328.33 640.30 326.30 636.85 323.71 638.87 C 323.34 641.26 325.07 643.17 326.09 645.15 C 324.42 646.94 322.73 648.72 321.06 650.51 C 317.13 646.64 313.14 642.84 309.22 638.98 C 313.48 635.03 318.10 631.41 322.01 627.10 C 324.88 623.71 325.87 617.53 331.16 617.20 Z"/>
    <path stroke="#000000" stroke-width="0.09375" d=" M 550.04 622.88 C 551.26 619.48 555.27 617.70 557.82 615.21 C 562.10 615.76 566.84 615.77 570.49 618.37 C 572.31 621.63 568.31 622.84 566.24 624.20 C 565.34 626.14 564.41 629.06 566.50 630.58 C 571.88 635.91 577.47 641.04 583.13 646.07 C 580.27 647.93 577.26 649.55 574.40 651.39 C 572.10 652.79 571.24 655.51 569.92 657.71 C 566.76 655.00 563.57 652.32 560.37 649.66 C 561.85 647.46 563.51 645.39 565.36 643.48 C 559.29 643.54 554.51 639.70 550.61 635.48 C 553.23 633.63 555.83 631.75 558.43 629.88 C 555.79 627.35 552.75 625.31 550.04 622.88 Z"/>
    <path stroke="#000000" stroke-width="0.09375" d=" M 615.24 624.12 C 616.35 622.23 619.07 619.94 621.15 621.87 C 623.95 623.87 623.30 627.61 623.49 630.61 C 627.33 632.07 631.03 629.57 634.78 628.94 C 635.49 631.13 635.62 633.82 637.59 635.33 C 641.47 638.45 647.13 639.69 649.59 644.36 C 650.66 646.62 648.87 648.54 647.19 649.79 C 644.85 648.55 642.70 646.77 640.08 646.17 C 636.81 645.94 633.75 647.32 630.77 648.48 C 624.32 643.47 617.67 638.68 611.36 633.48 C 611.67 630.12 613.67 627.07 615.24 624.12 Z"/>
    <path stroke="#000000" stroke-width="0.09375" d=" M 544.47 627.57 C 546.35 625.67 549.06 627.21 551.24 627.65 C 551.42 628.71 551.60 629.78 551.79 630.86 C 549.45 632.51 546.81 633.82 544.91 636.00 C 547.28 638.99 550.62 641.02 553.05 643.97 C 551.70 646.09 549.59 647.55 547.74 649.20 C 549.13 651.99 550.85 654.61 552.84 657.02 C 554.52 655.42 556.21 653.81 557.92 652.24 C 560.38 655.84 562.52 659.64 564.72 663.40 C 560.86 665.83 556.87 668.04 552.89 670.27 C 545.53 660.05 538.07 649.90 530.98 639.49 C 535.54 635.59 539.84 631.39 544.47 627.57 Z"/>
    <path stroke="#000000" stroke-width="0.09375" d=" M 344.70 635.48 C 347.11 633.46 349.51 631.41 351.94 629.41 C 357.08 634.48 361.84 639.92 366.84 645.13 C 360.03 654.35 352.92 663.34 345.96 672.45 C 344.06 670.93 342.17 669.40 340.28 667.89 C 343.05 664.82 345.80 661.74 348.56 658.66 C 347.04 657.03 345.52 655.41 344.01 653.80 C 339.87 656.69 336.19 660.21 331.96 662.96 C 329.04 660.84 326.87 657.90 324.35 655.36 C 328.93 650.69 333.39 645.91 338.15 641.41 C 340.09 643.66 341.97 645.97 343.81 648.31 C 345.90 648.83 348.00 649.36 350.11 649.86 C 351.13 647.96 352.26 646.10 352.93 644.04 C 350.68 640.77 347.12 638.64 344.70 635.48 Z"/>
    <path stroke="#000000" stroke-width="0.09375" d=" M 278.33 645.38 C 280.43 641.89 282.23 638.24 284.04 634.61 C 286.38 635.48 288.68 636.47 290.89 637.66 C 290.43 639.52 290.34 641.56 289.35 643.25 C 287.86 644.35 285.91 644.43 284.19 644.92 C 284.65 646.27 284.26 648.47 286.15 648.73 C 290.16 648.57 293.00 645.14 296.27 643.22 C 297.08 645.06 297.74 647.42 296.01 649.00 C 291.23 653.37 287.06 658.96 280.63 660.96 C 280.36 659.53 280.08 658.11 279.80 656.69 C 274.08 660.27 269.70 666.03 263.04 668.02 C 258.59 665.22 255.60 660.66 252.00 656.90 C 254.21 655.24 256.58 653.80 259.02 652.50 C 260.36 653.77 261.65 655.13 263.16 656.22 C 265.36 657.16 267.29 655.17 269.03 654.11 C 272.33 651.44 276.17 649.16 278.33 645.38 Z"/>
    <path stroke="#000000" stroke-width="0.09375" d=" M 598.19 649.87 C 601.32 645.64 604.41 641.34 608.31 637.77 C 610.21 642.00 610.93 647.11 614.39 650.43 C 617.91 651.54 621.39 649.19 624.95 649.38 C 628.40 650.47 630.85 653.44 634.18 654.76 C 637.49 655.48 640.89 655.76 644.19 656.59 C 640.15 661.56 635.74 666.21 631.66 671.14 C 626.25 667.32 621.20 663.01 615.94 658.99 C 613.29 659.67 610.69 660.58 607.96 660.92 C 604.16 657.76 601.68 653.34 598.19 649.87 Z"/>
    <path stroke="#000000" stroke-width="0.09375" d=" M 506.04 657.56 C 512.67 653.41 519.20 648.99 526.34 645.75 C 526.58 647.74 525.64 649.44 524.46 650.96 C 524.50 652.67 524.59 654.39 524.69 656.12 C 527.54 657.34 530.27 658.84 532.69 660.79 C 531.68 663.51 530.23 666.03 529.20 668.74 C 530.03 673.48 535.50 677.69 532.85 682.67 C 530.48 681.25 527.18 677.92 524.47 680.48 C 522.33 682.47 524.90 685.12 525.87 687.05 C 524.25 687.40 522.64 687.76 521.03 688.12 C 517.77 684.67 514.48 681.26 511.10 677.93 C 512.47 675.52 514.37 673.49 516.51 671.73 C 513.14 666.92 509.60 662.23 506.04 657.56 Z"/>
    <path stroke="#000000" stroke-width="0.09375" d=" M 366.15 663.24 C 369.31 658.24 371.16 652.55 373.70 647.23 C 375.72 648.31 377.75 649.39 379.77 650.49 C 375.93 659.16 372.25 667.90 368.58 676.64 C 363.91 677.48 359.18 677.80 354.50 678.48 C 354.13 675.08 352.91 671.14 355.05 668.11 C 358.09 665.23 362.53 665.01 366.15 663.24 Z"/>
    <path stroke="#000000" stroke-width="0.09375" d=" M 287.45 665.50 C 292.62 662.85 296.07 658.00 300.13 654.02 C 302.84 654.16 303.74 657.26 305.21 659.08 C 302.62 661.01 300.01 662.92 297.36 664.77 C 297.17 668.34 297.31 671.91 297.37 675.49 C 293.67 674.59 290.23 672.73 286.38 672.49 C 287.04 675.44 288.09 678.28 289.05 681.15 C 285.87 680.93 283.37 678.96 280.67 677.54 C 278.54 676.39 274.49 677.75 275.37 680.67 C 276.89 683.27 279.64 684.84 281.84 686.82 C 280.55 687.19 279.27 687.56 277.99 687.94 C 274.12 683.89 269.45 680.17 267.39 674.82 C 268.68 672.86 271.05 672.18 272.95 670.98 C 275.57 669.63 277.33 667.13 279.88 665.71 C 282.39 665.48 285.00 666.23 287.45 665.50 Z"/>
    <path stroke="#000000" stroke-width="0.09375" d=" M 384.08 653.87 C 385.52 654.51 386.96 655.16 388.40 655.83 C 385.67 664.24 383.11 672.69 380.39 681.10 C 382.84 682.80 386.67 683.91 387.38 687.12 C 385.93 689.30 383.69 691.10 381.12 691.71 C 377.01 690.25 373.75 687.10 370.12 684.76 C 374.69 674.43 379.54 664.21 384.08 653.87 Z"/>
    <path stroke="#000000" stroke-width="0.09375" d=" M 595.17 654.34 C 599.98 657.65 604.49 661.40 609.42 664.54 C 615.56 668.28 621.75 672.14 626.85 677.26 C 629.44 679.63 624.74 681.37 623.27 682.72 C 621.86 681.16 620.83 679.09 618.90 678.14 C 616.43 678.42 614.28 679.88 612.00 680.74 C 613.79 683.54 616.59 685.85 617.56 689.09 C 617.24 689.74 616.61 691.06 616.29 691.71 C 609.77 689.04 604.30 684.41 599.24 679.62 C 599.91 677.67 601.06 675.94 601.96 674.11 C 597.97 670.30 594.35 666.12 590.87 661.85 C 592.29 659.34 593.74 656.85 595.17 654.34 Z"/>
    <path stroke="#000000" stroke-width="0.09375" d=" M 490.01 661.56 C 492.04 661.15 494.07 660.74 496.11 660.35 C 498.13 662.45 500.00 665.01 502.94 665.87 C 505.41 666.57 507.40 668.21 509.19 670.00 C 508.00 672.96 506.12 675.85 506.18 679.15 C 508.11 683.97 512.48 687.25 515.82 691.08 C 509.38 692.67 502.97 694.36 496.53 695.95 C 494.30 684.50 491.95 673.06 490.01 661.56 Z"/>
    <path stroke="#000000" stroke-width="0.09375" d=" M 402.03 661.60 C 404.84 662.53 407.65 663.47 410.43 664.48 C 410.37 665.93 410.31 667.38 410.25 668.85 C 408.59 669.91 406.76 670.80 405.37 672.23 C 403.41 680.07 402.33 688.11 400.60 696.01 C 396.83 695.99 392.54 697.11 389.18 694.92 C 388.66 692.29 392.13 691.42 392.32 688.99 C 392.73 687.29 393.00 685.57 393.30 683.86 C 391.96 681.13 390.47 678.46 389.57 675.55 C 389.18 674.41 389.20 673.03 390.36 672.37 C 393.27 669.81 396.99 668.46 400.59 667.18 C 401.12 665.33 401.59 663.47 402.03 661.60 Z"/>
    <path stroke="#000000" stroke-width="0.09375" d=" M 535.11 665.85 C 537.51 665.09 539.92 664.32 542.33 663.54 C 543.88 667.33 546.30 670.85 547.32 674.81 C 545.86 676.28 544.21 677.53 542.62 678.83 C 539.90 674.63 537.52 670.23 535.11 665.85 Z"/>
    <path stroke="#000000" stroke-width="0.09375" d=" M 421.02 667.84 C 421.82 667.80 423.41 667.72 424.21 667.69 C 424.45 671.79 424.75 675.88 425.05 679.98 C 426.24 684.87 418.26 685.96 419.34 690.87 C 420.62 692.93 422.25 694.75 423.56 696.80 C 422.47 699.38 421.41 701.98 420.29 704.56 C 415.54 703.41 410.87 701.96 406.24 700.43 C 406.59 696.19 405.54 691.56 407.70 687.67 C 409.36 684.37 411.11 681.12 412.82 677.85 C 414.83 677.51 416.86 677.25 418.80 676.59 C 419.89 673.77 420.34 670.76 421.02 667.84 Z"/>
    <path stroke="#000000" stroke-width="0.09375" d=" M 464.66 668.40 C 468.66 668.14 472.66 667.77 476.66 667.47 C 477.14 670.40 477.47 673.36 477.74 676.33 C 481.05 676.55 484.36 676.75 487.67 677.02 C 487.96 679.31 488.25 681.62 488.49 683.93 C 486.25 684.58 484.02 685.26 481.79 685.93 C 481.35 687.49 480.90 689.03 480.46 690.61 C 483.40 693.68 488.04 692.51 491.83 692.89 C 491.79 695.07 491.73 697.25 491.67 699.44 C 483.39 701.24 475.08 702.89 466.77 704.59 C 466.69 702.00 466.62 699.43 466.57 696.86 C 468.46 694.24 471.32 691.45 470.52 687.92 C 469.31 685.59 466.91 684.33 464.83 682.92 C 464.71 678.08 464.70 673.24 464.66 668.40 Z"/>
    <path stroke="#000000" stroke-width="0.09375" d=" M 452.42 669.09 C 454.81 669.14 457.21 669.21 459.61 669.28 C 459.57 679.37 459.42 689.48 459.84 699.58 C 457.34 699.49 454.85 699.40 452.36 699.36 C 451.79 697.27 451.21 695.16 451.25 693.00 C 451.34 685.01 452.01 677.05 452.42 669.09 Z"/>
    <path stroke="#000000" stroke-width="0.09375" d=" M 586.68 672.78 C 589.01 671.49 591.40 670.27 594.04 669.73 C 594.10 673.10 592.49 676.04 591.20 679.04 C 595.63 686.28 603.21 691.08 608.27 697.88 C 609.51 699.07 608.06 700.37 607.01 701.01 C 603.73 703.01 599.90 703.79 596.16 704.45 C 596.60 701.67 599.08 698.80 598.14 696.07 C 594.93 694.18 591.13 695.57 587.80 696.25 C 584.60 693.08 581.00 690.19 578.71 686.25 C 576.70 682.93 574.94 679.47 573.41 675.92 C 574.29 674.65 575.15 673.36 576.26 672.29 C 579.75 672.08 583.43 674.89 586.68 672.78 Z"/>
    <path stroke="#000000" stroke-width="0.09375" d=" M 314.04 683.07 C 316.73 680.46 318.90 677.29 321.93 675.05 C 323.25 675.83 324.47 676.77 325.72 677.69 C 325.22 679.97 324.35 682.25 324.41 684.63 C 325.28 686.18 326.49 687.50 327.59 688.89 C 326.43 690.96 325.07 692.93 324.16 695.13 C 323.90 698.14 326.88 699.91 328.56 701.99 C 324.34 707.33 320.57 713.04 316.01 718.11 C 315.09 719.66 313.29 718.55 312.08 718.02 C 307.92 715.60 304.24 712.47 300.47 709.52 C 297.59 707.43 300.78 703.87 301.50 701.39 C 305.21 703.23 308.93 705.06 312.69 706.82 C 312.61 704.35 313.46 701.46 311.72 699.39 C 310.19 696.92 307.23 695.11 307.05 692.00 C 310.06 690.29 312.52 695.39 315.83 694.85 C 316.74 693.07 317.52 691.15 317.67 689.15 C 316.89 686.89 315.32 685.03 314.04 683.07 Z"/>
    <path stroke="#000000" stroke-width="0.09375" d=" M 337.74 686.05 C 341.95 687.07 345.15 690.19 348.95 692.12 C 345.52 698.77 341.38 705.21 338.52 712.04 C 340.36 715.98 343.55 719.08 346.07 722.59 C 343.85 722.77 341.56 722.56 339.39 723.11 C 338.47 725.86 339.67 729.12 339.63 732.07 C 337.23 732.28 334.83 732.51 332.44 732.76 C 331.97 730.15 331.80 727.48 331.01 724.95 C 329.05 721.90 326.19 719.56 323.78 716.87 C 326.44 712.86 329.21 708.92 332.01 705.01 C 336.37 699.69 336.25 692.44 337.74 686.05 Z"/>
    <path stroke="#000000" stroke-width="0.09375" d=" M 568.74 686.61 C 569.00 686.52 569.52 686.32 569.78 686.23 C 573.83 690.55 576.27 696.24 580.76 700.16 C 585.62 702.31 590.71 704.49 594.02 708.89 C 592.25 711.18 590.49 713.47 588.70 715.75 C 586.83 713.68 585.07 711.53 583.30 709.40 C 581.30 709.49 579.30 709.58 577.32 709.68 C 579.24 712.80 581.36 716.12 580.72 719.99 C 573.46 716.48 569.45 708.94 564.37 703.03 C 565.69 701.02 567.17 699.07 568.09 696.83 C 568.75 693.46 568.14 689.98 568.74 686.61 Z"/>
    <path stroke="#000000" stroke-width="0.09375" d=" M 536.52 700.90 C 544.36 696.40 551.92 691.36 560.05 687.40 C 562.07 688.20 562.98 690.46 563.54 692.41 C 564.86 696.95 556.83 697.40 557.46 701.96 C 558.69 706.98 562.60 710.91 563.66 715.98 C 564.50 718.77 561.49 720.06 559.89 721.62 C 563.27 722.93 566.94 723.01 570.41 723.95 C 571.41 726.64 568.60 728.35 566.80 729.79 C 564.58 731.61 561.49 732.36 558.74 731.40 C 556.06 728.83 555.28 724.86 552.48 722.36 C 550.45 722.94 548.41 724.31 546.23 723.75 C 544.55 722.18 544.19 719.35 545.36 717.38 C 546.75 714.58 548.00 711.71 548.64 708.64 C 545.60 707.33 542.29 706.93 539.03 706.64 C 538.20 704.72 537.36 702.80 536.52 700.90 Z"/>
    <path stroke="#000000" stroke-width="0.09375" d=" M 360.99 699.26 C 363.69 698.50 365.61 700.12 366.77 702.38 C 371.16 702.84 374.16 706.87 374.49 711.03 C 372.98 715.04 369.31 717.80 366.06 720.39 C 363.61 720.32 361.80 718.16 359.69 717.14 C 358.23 720.87 357.01 724.71 355.21 728.31 C 353.24 732.30 352.15 737.21 348.07 739.68 C 345.42 738.63 343.94 735.95 342.13 733.91 C 344.82 729.95 350.53 728.11 351.25 722.95 C 351.77 719.89 352.63 716.92 353.40 713.93 C 351.76 712.11 349.66 710.80 348.01 709.00 C 346.46 707.42 346.98 704.08 349.40 703.71 C 353.29 702.38 359.28 704.15 360.99 699.26 Z"/>
    <path stroke="#000000" stroke-width="0.09375" d=" M 506.49 716.97 C 506.66 714.56 505.56 711.29 507.95 709.71 C 511.51 709.59 514.87 711.10 518.33 711.77 C 521.46 717.07 522.68 723.18 525.29 728.72 C 526.68 731.81 530.28 733.16 531.59 736.34 C 533.39 739.49 532.74 743.23 532.60 746.69 C 529.40 746.59 525.11 747.40 523.32 743.96 C 521.93 741.55 519.31 738.20 516.23 740.34 C 513.00 743.75 515.99 749.14 514.20 753.11 C 509.95 754.46 505.41 754.97 500.97 755.24 C 498.26 753.98 497.29 750.95 496.12 748.45 C 499.33 748.13 503.63 748.73 505.31 745.23 C 510.59 736.56 506.60 726.33 506.49 716.97 Z"/>
    <path stroke="#000000" stroke-width="0.09375" d=" M 380.86 712.96 C 382.89 709.07 387.90 711.07 391.34 711.05 C 391.68 715.36 392.52 719.69 394.87 723.41 C 392.34 724.53 389.79 725.62 387.23 726.68 C 386.87 730.63 387.02 734.65 389.28 738.07 C 389.30 741.01 389.38 744.89 387.04 747.03 C 383.13 748.06 379.03 748.17 375.04 748.79 C 373.75 747.38 372.46 745.98 371.17 744.58 C 372.41 741.65 373.29 738.57 373.37 735.37 C 371.47 735.46 369.58 735.61 367.70 735.79 C 367.09 739.09 366.80 742.50 365.44 745.61 C 362.91 744.97 359.02 746.00 357.62 743.23 C 357.62 737.26 361.32 732.25 363.23 726.80 C 366.52 726.55 370.44 727.56 373.08 725.02 C 377.15 722.08 378.43 717.07 380.86 712.96 Z"/>
    <path stroke="#000000" stroke-width="0.09375" d=" M 403.14 717.16 C 406.67 714.32 410.20 718.73 413.63 719.64 C 414.21 722.42 415.20 725.71 413.22 728.19 C 410.79 731.62 405.96 734.23 406.51 739.03 C 408.21 742.88 411.63 745.57 414.75 748.26 C 414.34 751.55 414.45 755.38 412.03 757.97 C 407.91 758.26 406.14 752.71 401.96 753.17 C 398.18 753.44 394.47 754.36 390.67 754.43 C 391.92 749.97 391.21 744.97 393.83 740.93 C 395.28 738.05 398.87 736.42 398.96 732.89 C 399.44 727.55 398.92 721.21 403.14 717.16 Z"/>
    <path stroke="#000000" stroke-width="0.09375" d=" M 491.48 716.19 C 494.02 716.39 496.57 716.59 499.12 716.81 C 499.41 725.35 500.13 733.88 500.50 742.42 C 495.81 744.44 490.37 744.25 485.96 746.88 C 482.69 749.98 485.07 754.89 486.05 758.53 C 482.20 759.09 478.34 759.70 474.52 760.45 C 473.46 758.07 472.72 755.26 473.83 752.77 C 475.99 747.99 479.12 743.40 479.45 738.02 C 479.46 732.55 475.85 728.07 474.60 722.93 C 475.27 719.20 480.03 719.92 482.82 719.59 C 482.80 722.10 482.73 724.62 482.64 727.15 C 485.66 727.28 488.68 727.43 491.70 727.59 C 491.63 723.78 491.56 719.99 491.48 716.19 Z"/>
    <path stroke="#000000" stroke-width="0.09375" d=" M 430.10 722.61 C 431.93 722.60 433.75 722.59 435.59 722.58 C 436.21 730.11 436.60 737.65 436.94 745.19 C 433.76 746.47 430.26 747.35 427.65 749.67 C 425.66 752.93 425.58 756.90 424.72 760.55 C 423.54 760.47 421.17 760.32 419.99 760.24 C 420.94 755.80 422.69 751.45 422.66 746.86 C 422.07 744.07 420.07 741.82 418.91 739.26 C 422.49 738.23 426.07 737.17 429.63 736.03 C 429.67 731.55 429.63 727.06 430.10 722.61 Z"/>
    <path stroke="#000000" stroke-width="0.09375" d=" M 458.90 760.46 C 458.28 747.77 460.47 735.16 461.72 722.57 C 464.25 722.84 466.79 723.16 469.33 723.47 C 469.06 727.66 468.75 731.85 468.65 736.05 C 471.06 738.07 475.34 739.57 475.48 743.08 C 473.52 744.97 470.85 745.75 468.40 746.77 C 468.44 751.24 468.49 755.72 468.50 760.20 C 465.30 760.36 462.10 760.48 458.90 760.46 Z"/>
    <path stroke="#000000" stroke-width="0.09375" d=" M 442.45 725.59 C 445.41 723.88 448.89 724.38 452.15 724.49 C 451.71 726.67 450.66 728.62 449.33 730.38 C 450.73 731.28 452.16 732.15 453.62 732.97 C 454.77 736.98 454.61 741.18 454.57 745.31 C 453.12 745.76 451.68 746.22 450.25 746.68 C 449.35 752.32 449.99 758.04 449.68 763.72 C 443.38 763.03 437.38 760.68 430.97 760.67 C 431.56 758.63 432.20 756.60 432.78 754.56 C 435.38 753.41 438.14 752.70 440.77 751.62 C 441.78 750.12 441.88 748.22 442.20 746.50 C 442.89 739.55 442.76 732.55 442.45 725.59 Z"/>
  </g>
</svg>
