<?xml version="1.0" encoding="UTF-8"?>
<svg xmlns="http://www.w3.org/2000/svg" width="900pt" height="886pt" viewBox="0 0 900 886" version="1.1">
  <g>
    <path stroke="#000000" stroke-width="0.09375" d=" M 439.79 44.76 C 442.99 30.14 445.73 15.41 449.22 0.86 C 454.10 20.88 458.31 41.07 462.93 61.15 C 473.58 108.46 484.17 155.78 494.84 203.09 C 499.30 203.63 503.70 204.54 508.17 205.05 C 548.18 150.95 587.83 96.57 627.90 42.51 C 625.62 62.33 622.53 82.06 619.93 101.85 C 613.75 147.59 607.13 193.29 601.23 239.06 C 607.08 242.00 612.39 245.89 618.16 248.94 C 623.79 246.14 629.04 242.61 634.53 239.53 C 671.90 217.58 709.27 195.63 746.64 173.68 C 758.02 167.15 769.15 160.14 780.70 153.92 C 750.58 207.31 720.24 260.58 690.23 314.03 C 696.10 320.93 701.18 328.45 706.56 335.72 C 713.64 334.50 720.79 333.67 727.90 332.60 C 775.69 325.93 823.43 318.91 871.25 312.43 C 829.55 347.75 787.77 382.97 745.96 418.17 C 748.67 429.36 751.91 440.46 753.85 451.84 C 800.27 465.28 846.68 478.76 893.10 492.21 C 895.14 492.83 897.35 493.15 899.15 494.42 C 852.02 508.55 804.91 522.76 757.73 536.72 C 756.29 547.65 755.02 558.62 752.70 569.42 C 740.36 630.82 708.41 687.96 662.95 730.98 C 664.65 736.17 666.99 741.12 668.97 746.21 C 679.88 772.89 690.67 799.62 701.66 826.27 C 672.38 853.13 636.75 872.29 599.59 885.86 C 586.55 819.93 573.30 754.05 560.37 688.10 C 560.24 686.69 559.53 684.97 560.90 683.95 C 577.35 666.71 593.86 649.52 610.40 632.36 C 611.57 631.29 611.90 629.71 612.33 628.26 C 622.34 590.93 632.66 553.68 642.59 516.33 C 601.42 537.24 560.27 558.19 519.09 579.08 C 516.37 580.35 513.85 582.10 510.95 582.94 C 498.45 577.72 486.27 571.66 473.89 566.10 C 443.10 551.98 412.36 537.72 381.54 523.65 C 359.58 523.06 337.51 523.58 315.50 523.40 C 315.49 518.64 315.46 513.88 315.53 509.13 C 351.76 509.05 388.01 509.38 424.24 508.96 C 424.35 484.88 424.27 460.80 424.27 436.72 C 365.60 436.69 306.93 436.68 248.26 436.73 C 248.23 476.50 248.28 516.28 248.24 556.05 C 248.25 557.33 248.18 558.77 249.20 559.75 C 280.67 600.74 312.03 641.82 343.47 682.84 C 329.32 750.23 314.94 817.57 300.79 884.96 C 296.83 883.94 293.10 882.21 289.29 880.74 C 257.30 867.79 226.99 850.17 201.23 827.08 C 212.68 794.00 224.46 761.03 235.98 727.98 C 215.14 707.36 196.98 683.99 182.65 658.40 C 161.79 621.52 148.91 580.23 144.72 538.09 C 96.51 522.92 48.29 507.78 0.00 492.91 L 0.00 492.87 C 49.39 478.82 98.98 465.45 148.40 451.49 C 150.31 441.12 152.78 430.86 155.74 420.74 C 112.56 384.61 69.41 348.46 26.22 312.34 C 82.30 320.68 138.36 329.17 194.40 337.70 C 199.90 329.63 205.65 321.74 211.75 314.12 C 192.00 279.22 172.26 244.32 152.52 209.41 C 142.00 190.61 131.12 172.00 120.83 153.08 C 175.32 184.86 229.51 217.19 284.04 248.90 C 289.14 246.24 293.90 242.93 298.90 240.05 C 293.31 195.08 287.55 150.13 281.88 105.17 C 279.42 84.43 276.38 63.75 274.22 42.98 C 313.65 97.22 353.03 151.50 392.64 205.60 C 397.15 204.53 401.74 203.84 406.33 203.21 C 417.61 150.42 428.61 97.57 439.79 44.76 M 394.23 298.25 C 394.13 340.52 394.24 382.78 394.18 425.05 C 409.16 425.47 424.17 425.09 439.16 425.24 C 439.35 450.70 439.16 476.17 439.26 501.64 C 450.75 501.63 462.25 501.61 473.75 501.65 C 473.81 433.86 473.77 366.07 473.77 298.28 C 447.26 298.26 420.74 298.31 394.23 298.25 M 297.64 328.54 C 297.68 360.77 297.58 393.00 297.69 425.23 C 325.24 425.22 352.79 425.23 380.34 425.23 C 380.42 393.00 380.36 360.77 380.37 328.54 C 352.80 328.52 325.22 328.51 297.64 328.54 M 488.81 328.58 C 488.82 374.07 488.81 419.55 488.81 465.03 C 489.01 477.24 488.42 489.51 489.11 501.68 C 513.86 501.40 538.66 501.99 563.39 501.39 C 563.17 443.77 563.36 386.15 563.29 328.54 C 538.46 328.55 513.63 328.46 488.81 328.58 M 576.81 349.82 C 576.67 400.32 576.91 450.82 576.69 501.32 C 578.73 501.87 580.86 501.58 582.96 501.63 C 603.21 501.64 623.47 501.61 643.73 501.65 C 643.79 451.07 643.73 400.50 643.76 349.93 C 621.45 349.61 599.12 349.82 576.81 349.82 Z"/>
  </g>
</svg>
