<?xml version="1.0" encoding="UTF-8"?>
<svg xmlns="http://www.w3.org/2000/svg" width="853pt" height="937pt" viewBox="0 0 853 937" version="1.1">
  <g>
    <path stroke="#000000" stroke-width="0.09375" d=" M 323.18 0.00 L 324.29 0.00 C 325.04 1.51 326.59 2.28 327.99 3.09 C 349.19 14.96 367.49 32.15 379.94 53.08 C 382.76 58.01 386.04 62.74 388.07 68.08 C 367.61 71.68 348.33 80.63 331.44 92.60 C 334.00 75.58 335.74 58.25 333.58 41.08 C 332.34 26.91 327.96 13.31 323.18 0.00 Z"/>
    <path stroke="#000000" stroke-width="0.09375" d=" M 529.13 0.00 L 529.71 0.00 C 528.79 4.20 527.00 8.13 525.72 12.22 C 522.20 23.16 519.83 34.52 519.25 46.02 C 517.54 61.41 519.70 76.87 521.77 92.11 C 504.81 80.11 485.46 71.37 465.00 67.49 C 472.30 53.03 481.21 39.21 492.55 27.57 C 500.56 19.48 509.52 12.32 519.17 6.28 C 522.44 4.11 526.05 2.47 529.13 0.00 Z"/>
    <path stroke="#000000" stroke-width="0.09375" d=" M 136.47 13.48 C 137.11 12.59 138.10 12.33 139.12 12.19 C 148.89 34.55 162.59 55.15 178.70 73.45 C 198.00 94.66 221.87 112.99 249.92 120.58 C 266.47 125.26 284.06 125.11 300.75 121.23 C 276.43 150.30 259.95 185.36 250.11 221.80 C 249.85 221.60 249.34 221.19 249.08 220.99 C 243.38 204.94 233.09 190.84 221.00 179.00 C 201.38 160.05 175.59 146.64 148.07 144.98 C 129.20 144.09 110.18 148.74 93.47 157.48 C 76.81 166.32 62.23 178.72 49.71 192.73 C 30.86 213.94 16.12 238.45 3.54 263.79 C 2.65 265.54 1.86 267.38 0.40 268.77 C 4.24 232.96 16.44 198.58 31.79 166.18 C 51.53 125.00 76.62 86.54 104.63 50.53 C 114.77 37.79 125.07 25.12 136.47 13.48 Z"/>
    <path stroke="#000000" stroke-width="0.09375" d=" M 653.90 92.85 C 680.36 70.92 700.23 41.99 714.79 11.07 C 727.46 23.84 738.87 37.78 749.98 51.90 C 772.91 81.52 793.77 112.80 811.39 145.87 C 830.55 182.23 846.56 221.04 851.97 262.04 L 853.00 261.49 L 853.00 269.36 C 848.01 260.53 843.78 251.31 838.71 242.53 C 823.19 215.22 804.37 189.07 779.34 169.69 C 762.78 156.80 743.00 147.64 722.04 145.23 C 690.38 140.99 658.62 154.49 635.44 175.56 C 621.64 188.35 609.65 203.84 603.77 221.91 C 602.96 219.94 602.24 217.94 601.66 215.91 C 591.55 181.65 575.77 148.74 552.84 121.19 C 557.03 121.55 561.13 122.55 565.30 123.08 C 579.98 124.72 594.99 123.16 608.99 118.45 C 625.53 113.13 640.53 103.82 653.90 92.85 Z"/>
    <path stroke="#000000" stroke-width="0.09375" d=" M 410.04 119.22 C 431.79 115.43 454.58 119.71 474.12 129.82 C 495.04 140.47 512.34 157.24 525.77 176.33 C 546.64 206.06 558.71 241.33 563.63 277.15 C 563.70 278.35 563.72 279.55 563.71 280.76 C 563.94 280.21 564.18 279.68 564.42 279.14 C 563.99 284.45 565.45 289.66 565.51 294.95 C 565.68 304.30 566.84 313.64 566.00 322.98 C 564.64 364.13 554.25 405.48 532.96 440.94 C 517.11 467.04 494.67 490.27 466.11 502.15 C 448.22 509.72 428.15 512.32 408.99 508.83 C 389.28 505.41 370.78 496.18 355.47 483.40 C 342.34 472.80 331.47 459.64 322.27 445.56 C 300.95 412.27 289.78 373.15 286.92 333.92 C 283.59 285.61 292.33 235.74 316.00 193.15 C 324.63 177.74 335.30 163.35 348.18 151.23 C 365.25 135.09 386.67 122.97 410.04 119.22 M 414.65 277.15 C 400.41 278.97 386.63 283.56 373.70 289.74 C 360.68 296.01 348.28 303.72 337.39 313.25 C 331.53 318.10 326.32 323.75 321.97 329.99 C 319.04 334.44 316.37 339.56 316.65 345.04 C 317.40 350.46 320.08 355.40 323.25 359.79 C 330.25 369.43 339.42 377.25 349.01 384.21 C 366.42 396.50 386.06 405.96 407.03 410.18 C 415.26 411.64 423.70 412.84 432.07 411.97 C 453.39 410.50 474.06 403.22 492.45 392.48 C 506.36 384.31 519.50 374.11 528.75 360.74 C 533.79 353.58 536.74 344.07 533.15 335.65 C 528.30 324.17 519.01 315.27 509.43 307.63 C 495.74 296.95 480.15 288.76 463.76 283.09 C 448.03 277.83 431.21 274.96 414.65 277.15 Z"/>
    <path stroke="#000000" stroke-width="0.09375" d=" M 612.36 263.09 C 622.03 277.12 635.38 288.11 649.19 297.87 C 669.89 312.21 692.56 323.58 715.99 332.71 C 732.66 338.86 749.60 344.68 767.12 347.82 C 767.92 348.45 768.97 348.41 769.94 348.65 C 777.05 349.86 784.15 351.43 791.38 351.63 C 791.79 352.68 792.07 353.78 792.23 354.90 C 793.10 376.39 790.74 397.79 788.03 419.06 C 784.45 447.06 778.71 474.73 773.24 502.39 C 773.11 502.45 772.84 502.57 772.71 502.63 C 770.01 517.90 765.98 532.92 762.17 547.95 C 756.14 569.83 750.56 591.99 741.54 612.88 C 742.22 606.32 743.88 599.82 743.63 593.20 C 743.88 593.74 744.14 594.28 744.41 594.83 C 744.04 588.54 745.69 582.35 745.69 576.06 C 746.90 566.42 746.42 556.68 747.20 547.01 C 747.22 510.72 743.03 473.92 730.06 439.80 C 718.42 409.52 699.55 380.95 672.18 362.78 C 659.92 354.59 645.82 348.59 630.99 347.54 C 625.59 347.11 620.24 348.13 615.14 349.87 C 615.37 344.58 615.86 339.31 616.35 334.05 C 617.04 316.69 616.28 299.30 614.49 282.04 C 613.98 275.70 612.68 269.44 612.36 263.09 Z"/>
    <path stroke="#000000" stroke-width="0.09375" d=" M 187.11 309.15 C 207.18 297.10 226.69 283.06 240.71 264.03 C 240.49 270.34 239.25 276.56 238.67 282.85 C 236.67 305.35 235.32 328.10 238.42 350.57 C 228.30 346.22 216.84 347.82 206.58 350.83 C 185.91 357.27 168.25 371.03 154.13 387.15 C 133.01 411.80 119.99 442.53 113.19 474.06 C 106.15 505.61 105.17 538.18 107.00 570.35 C 107.83 584.62 109.87 598.79 111.45 612.98 C 104.51 596.62 99.67 579.49 94.86 562.41 C 88.97 541.16 83.74 519.73 79.22 498.15 C 71.04 460.15 64.33 421.73 61.51 382.95 C 61.31 372.58 59.86 362.18 61.76 351.88 C 68.97 351.82 76.01 350.16 83.10 349.07 C 119.63 341.56 154.89 327.91 187.11 309.15 Z"/>
    <path stroke="#000000" stroke-width="0.09375" d=" M 419.58 308.95 C 426.33 307.69 433.54 308.29 439.76 311.34 C 449.48 315.79 456.65 325.40 458.03 336.02 C 460.34 350.58 450.96 365.84 437.04 370.59 C 429.20 373.44 420.31 373.00 412.75 369.51 C 403.33 365.24 396.24 356.15 394.51 345.94 C 393.77 339.37 394.11 332.45 397.22 326.48 C 401.40 317.54 409.98 311.02 419.58 308.95 Z"/>
    <path stroke="#000000" stroke-width="0.09375" d=" M 219.64 479.60 C 237.41 461.26 248.08 436.58 249.99 411.17 C 251.56 415.47 252.79 419.90 254.18 424.26 C 263.19 452.89 275.89 480.43 292.93 505.17 C 288.71 505.30 284.27 506.05 280.99 508.92 C 275.17 513.69 273.24 521.42 272.01 528.49 C 270.64 538.93 270.25 549.51 271.17 560.00 C 271.70 574.06 273.24 588.06 274.61 602.06 C 277.41 627.75 279.70 653.52 283.65 679.07 C 293.96 745.83 310.66 811.64 333.91 875.07 C 339.51 891.08 346.37 906.61 352.61 922.37 C 353.78 927.73 359.23 931.13 358.83 937.00 L 358.36 937.00 C 352.39 929.80 346.18 922.77 341.17 914.83 C 322.95 886.82 308.09 856.81 293.52 826.79 C 274.11 786.25 256.08 745.06 238.90 703.52 C 222.61 664.23 207.13 624.59 192.86 584.51 C 186.21 564.85 179.20 545.25 174.25 525.07 C 173.76 522.88 173.11 520.66 173.37 518.41 C 176.36 515.06 180.01 512.37 183.57 509.66 C 196.12 500.30 209.01 491.19 219.64 479.60 Z"/>
    <path stroke="#000000" stroke-width="0.09375" d=" M 602.97 411.06 C 604.39 419.04 605.33 427.20 607.79 434.99 C 613.04 453.22 623.68 469.61 637.08 482.92 C 646.05 491.80 656.23 499.28 666.35 506.77 C 671.19 510.51 676.35 513.94 680.42 518.55 C 676.12 538.20 669.30 557.17 663.23 576.30 C 663.11 576.40 662.87 576.60 662.75 576.70 C 655.93 597.72 647.75 618.29 640.03 638.99 C 613.48 707.09 585.10 774.53 552.97 840.19 C 545.71 855.04 538.11 869.72 530.17 884.21 C 521.81 898.90 513.46 913.71 502.93 926.98 C 500.17 930.08 497.80 933.69 494.23 935.93 C 504.34 912.95 514.18 889.82 522.41 866.09 C 534.54 832.28 544.56 797.74 553.03 762.85 C 553.46 761.30 553.59 759.71 553.69 758.13 C 553.85 758.55 554.17 759.37 554.32 759.78 C 554.33 758.17 554.38 756.55 554.83 755.02 C 564.22 714.49 571.45 673.42 575.44 632.01 C 577.97 606.36 581.18 580.75 582.37 554.99 C 582.61 543.72 582.65 532.26 579.75 521.29 C 578.12 515.67 575.34 509.73 569.90 506.91 C 566.93 505.17 563.39 505.11 560.10 504.50 C 580.32 476.52 593.35 444.03 602.97 411.06 Z"/>
  </g>
</svg>
