<?xml version="1.0" encoding="UTF-8"?>
<svg xmlns="http://www.w3.org/2000/svg" width="900pt" height="803pt" viewBox="0 0 900 803" version="1.1">
  <g>
    <path stroke="#000000" stroke-width="0.09375" d=" M 428.13 0.00 L 428.33 0.00 C 432.03 9.37 440.95 14.68 448.68 20.37 C 449.72 21.43 450.98 20.69 451.95 19.97 C 459.43 14.35 468.12 9.18 471.64 0.00 L 471.75 0.00 C 478.24 2.86 481.98 10.52 489.53 11.12 C 506.61 12.99 523.80 13.56 540.97 13.87 C 542.60 13.91 544.29 14.31 545.59 15.37 C 550.35 19.00 553.03 24.59 557.49 28.54 C 560.50 30.95 559.54 35.33 560.60 38.66 C 568.01 73.77 577.30 108.51 582.58 144.04 C 585.16 159.39 586.75 174.93 590.53 190.05 C 591.75 195.56 596.13 199.40 599.32 203.78 C 600.35 204.93 599.13 206.38 598.73 207.53 C 585.92 231.62 570.87 254.52 559.42 279.33 C 552.09 252.15 534.81 228.61 513.94 210.14 C 508.62 205.68 503.26 201.08 496.88 198.19 C 495.20 200.79 493.73 203.52 492.68 206.43 C 488.58 217.21 485.67 228.51 484.59 240.01 C 483.76 247.99 486.03 255.80 487.82 263.48 C 493.31 285.18 499.68 306.64 504.77 328.44 C 508.78 345.75 512.40 363.26 513.36 381.04 C 513.48 387.36 513.76 393.82 512.16 399.99 C 510.92 402.64 508.84 404.77 507.00 407.00 C 498.59 416.76 490.09 426.66 484.16 438.18 C 478.91 448.09 476.04 459.68 478.63 470.81 C 471.66 466.85 465.57 460.75 463.27 452.91 C 459.32 440.02 463.11 426.41 467.44 414.14 C 469.19 408.91 472.31 403.81 471.51 398.08 C 470.32 387.72 466.29 377.54 459.74 369.39 C 456.63 365.58 451.39 361.55 446.33 364.30 C 439.29 368.32 435.37 375.97 432.31 383.17 C 429.38 390.98 426.45 400.04 430.24 408.07 C 435.37 421.28 440.41 435.63 437.51 449.96 C 435.82 459.04 429.28 466.42 421.37 470.81 C 423.36 461.91 422.12 452.57 418.61 444.21 C 412.36 428.74 400.87 416.33 390.27 403.74 C 386.71 400.08 386.88 394.68 386.59 389.94 C 386.18 373.13 389.23 356.47 392.62 340.07 C 398.02 314.54 405.53 289.53 411.99 264.25 C 413.83 256.31 416.25 248.26 415.41 240.01 C 414.33 228.50 411.41 217.20 407.31 206.40 C 406.26 203.50 404.79 200.77 403.11 198.19 C 397.60 200.67 392.88 204.50 388.24 208.30 C 366.35 226.96 348.26 251.16 340.60 279.18 C 329.08 254.73 314.40 231.96 301.60 208.19 C 301.02 206.98 300.28 205.76 300.27 204.39 C 303.67 199.49 308.63 195.32 309.71 189.16 C 313.97 170.94 315.80 152.28 319.05 133.88 C 323.54 107.41 329.87 81.29 335.83 55.12 C 337.56 47.43 339.36 39.75 340.54 31.96 C 340.54 29.97 342.30 28.85 343.52 27.54 C 347.45 23.76 349.99 18.69 354.40 15.38 C 357.11 13.24 360.79 13.98 363.99 13.78 C 379.35 13.43 394.74 12.83 410.02 11.17 C 417.75 10.80 421.65 3.06 428.13 0.00 Z"/>
    <path stroke="#000000" stroke-width="0.09375" d=" M 297.04 13.92 C 299.14 13.34 301.99 12.25 303.55 14.45 C 308.58 20.42 311.29 27.96 313.87 35.23 C 315.29 38.99 314.87 43.09 313.93 46.91 C 310.26 61.95 304.00 76.28 301.32 91.57 C 301.19 92.63 300.88 94.18 299.48 94.05 C 276.06 94.08 253.66 103.52 234.45 116.37 C 208.85 133.68 187.71 156.77 169.42 181.51 C 158.49 196.56 148.27 212.22 139.98 228.90 C 137.84 232.57 139.39 236.94 138.49 240.91 C 136.32 253.67 132.12 265.96 128.85 278.47 C 117.57 318.52 112.03 360.44 115.33 402.03 C 114.89 414.23 105.45 423.97 104.37 436.04 C 104.17 452.83 110.44 468.75 116.57 484.10 C 123.01 499.35 127.51 515.36 134.58 530.36 C 149.67 564.18 171.43 594.34 192.18 624.81 C 202.45 640.08 212.57 655.67 219.34 672.87 C 223.66 683.73 226.13 695.34 226.19 707.05 C 225.46 724.48 222.79 741.91 217.36 758.52 C 213.87 768.92 209.16 779.23 201.36 787.15 C 203.72 767.19 204.80 746.90 201.74 726.95 C 198.84 706.86 191.61 687.44 180.76 670.30 C 162.78 641.74 137.24 619.20 116.28 592.98 C 91.21 561.97 73.07 526.23 54.79 491.00 C 49.37 480.99 44.39 470.64 37.44 461.57 C 35.25 459.08 32.69 455.76 28.94 456.33 C 20.90 456.82 14.32 462.61 9.88 468.93 C 6.22 474.05 3.88 479.94 1.89 485.88 C -1.65 471.73 0.49 456.61 6.68 443.51 C 14.11 427.62 24.83 413.60 33.44 398.37 C 43.46 381.42 50.15 362.84 57.38 344.60 C 71.80 306.80 84.67 268.39 95.48 229.39 C 98.76 217.34 101.92 205.23 104.11 192.92 C 104.46 190.43 105.36 187.57 103.60 185.38 C 99.07 178.51 92.64 172.65 84.95 169.56 C 81.15 167.93 76.93 168.13 72.94 168.78 C 73.55 163.49 75.78 158.35 79.70 154.69 C 85.26 149.51 92.41 146.60 99.07 143.14 C 108.16 138.66 116.96 133.44 124.64 126.78 C 152.40 102.08 178.58 74.99 210.67 55.74 C 238.07 39.22 266.17 23.00 297.04 13.92 Z"/>
    <path stroke="#000000" stroke-width="0.09375" d=" M 595.96 14.98 C 597.07 13.23 599.17 12.68 601.07 13.42 C 621.85 19.14 641.39 28.55 660.26 38.82 C 673.19 46.01 686.01 53.46 698.43 61.51 C 723.56 78.19 745.13 99.42 767.42 119.57 C 773.46 125.36 779.81 130.88 786.92 135.34 C 795.52 140.98 805.13 144.80 813.99 149.98 C 820.97 153.79 826.42 160.67 827.06 168.78 C 818.16 166.59 809.47 171.27 803.22 177.27 C 800.08 180.65 795.82 184.10 795.35 188.92 C 797.48 204.18 801.75 219.03 805.76 233.88 C 818.12 277.48 832.80 320.43 849.67 362.49 C 854.62 375.02 860.05 387.40 866.93 399.01 C 875.57 414.20 886.29 428.21 893.61 444.14 C 899.60 457.09 901.59 472.00 898.10 485.93 C 894.94 475.95 889.96 465.83 881.03 459.83 C 877.21 457.41 872.38 455.42 867.85 456.75 C 863.10 459.67 860.24 464.70 857.26 469.24 C 850.38 480.63 844.44 492.54 838.29 504.33 C 822.10 535.48 805.22 566.61 782.96 593.92 C 765.40 615.66 744.93 634.92 728.16 657.32 C 716.70 672.54 707.47 689.60 702.33 708.01 C 694.90 733.70 695.42 760.88 698.63 787.19 C 688.56 776.76 683.52 762.73 679.84 749.00 C 676.18 734.61 674.09 719.80 673.82 704.97 C 674.33 683.27 683.80 663.11 694.86 644.89 C 711.49 617.77 731.11 592.59 747.21 565.12 C 758.20 546.60 767.77 527.16 774.87 506.80 C 777.73 498.23 781.11 489.86 784.48 481.48 C 790.33 466.66 796.13 451.18 795.57 435.00 C 793.93 423.42 785.16 413.90 784.67 402.07 C 787.36 367.19 784.10 331.97 776.10 297.95 C 772.70 283.07 768.25 268.46 764.30 253.72 C 762.68 247.24 760.87 240.68 761.17 233.94 C 761.50 230.12 758.81 226.99 757.37 223.67 C 742.29 195.90 723.60 170.04 701.79 147.16 C 690.43 135.43 678.02 124.64 664.39 115.60 C 649.44 105.76 632.76 98.15 615.01 95.23 C 609.75 94.23 604.38 94.24 599.08 93.71 C 596.92 80.07 591.83 67.15 587.96 53.95 C 586.35 47.91 583.84 41.40 586.14 35.19 C 588.61 28.12 591.32 20.93 595.96 14.98 Z"/>
    <path stroke="#000000" stroke-width="0.09375" d=" M 391.96 222.94 C 394.73 220.99 396.17 217.83 397.52 214.85 C 399.47 234.55 399.18 254.58 395.52 274.07 C 392.96 288.18 388.16 301.72 383.34 315.18 C 378.04 329.53 374.43 345.09 377.47 360.38 C 370.92 359.92 364.46 361.68 358.66 364.61 C 343.76 372.08 332.63 385.48 325.05 400.07 C 314.33 421.19 309.94 445.03 309.22 468.55 C 314.47 471.06 318.84 475.01 322.72 479.29 C 333.13 490.74 341.30 503.94 350.01 516.67 C 345.50 513.81 340.51 511.16 335.03 511.27 C 328.56 510.97 322.25 514.35 318.54 519.58 C 313.63 526.49 312.80 536.03 316.28 543.74 C 321.70 556.61 332.12 567.38 344.89 573.08 C 356.86 578.29 370.85 579.11 383.17 574.59 C 391.08 586.90 395.85 600.95 399.33 615.08 C 404.26 636.28 406.05 658.41 402.73 680.00 C 397.85 713.96 385.33 747.60 362.74 773.83 C 352.82 785.50 340.65 795.00 327.65 803.00 L 327.39 803.00 C 335.23 794.24 340.20 783.24 342.60 771.80 C 346.84 751.73 345.25 730.94 341.59 710.91 C 338.00 692.53 332.89 674.26 324.52 657.45 C 316.14 642.65 306.18 628.74 294.91 616.01 C 285.59 605.97 275.62 596.08 263.31 589.78 C 258.98 587.53 252.92 585.70 249.30 590.14 C 245.14 577.71 243.22 564.69 240.98 551.83 C 237.18 527.71 234.05 503.43 233.00 479.02 C 232.37 469.64 233.21 460.26 233.53 450.89 C 235.63 420.08 242.36 388.63 259.32 362.37 C 268.27 348.34 280.35 336.49 294.03 327.09 C 301.05 322.43 307.40 316.76 314.99 312.99 C 327.71 306.45 341.11 300.61 351.76 290.80 C 370.10 274.22 380.21 250.74 387.38 227.55 C 387.76 225.11 390.28 224.32 391.96 222.94 Z"/>
    <path stroke="#000000" stroke-width="0.09375" d=" M 507.67 287.88 C 501.12 264.18 500.03 239.22 502.50 214.84 C 503.81 217.83 505.27 220.97 508.01 222.93 C 509.68 224.32 512.22 225.09 512.61 227.53 C 520.17 252.01 531.10 276.99 551.46 293.53 C 563.70 303.88 579.23 308.89 592.59 317.47 C 603.02 325.32 614.30 332.17 623.56 341.48 C 634.31 351.81 642.85 364.32 649.24 377.75 C 658.59 397.61 663.46 419.31 665.63 441.06 C 666.99 455.98 667.74 471.02 666.64 485.99 C 665.26 509.09 662.22 532.08 658.51 554.91 C 656.45 566.74 654.51 578.66 650.76 590.09 C 648.10 587.20 644.06 586.66 640.52 588.20 C 629.37 592.49 620.27 600.66 611.87 608.92 C 598.01 622.76 586.46 638.77 576.50 655.59 C 569.18 669.24 564.62 684.19 560.92 699.17 C 556.04 719.99 553.27 741.62 555.88 762.96 C 557.72 777.46 562.56 792.21 572.80 803.00 L 572.68 803.00 C 554.79 792.74 539.33 778.41 527.66 761.42 C 508.42 733.38 498.41 699.71 495.78 666.00 C 494.95 649.75 496.63 633.41 500.10 617.53 C 503.59 602.55 508.47 587.61 516.83 574.59 C 528.38 578.84 541.41 578.36 552.86 574.01 C 566.67 568.64 578.00 557.33 583.73 543.70 C 586.90 536.69 586.45 528.21 582.70 521.51 C 579.21 515.23 572.21 510.91 564.94 511.28 C 559.48 511.17 554.51 513.81 550.03 516.66 C 557.88 505.06 565.39 493.17 574.48 482.47 C 579.14 477.03 584.23 471.67 590.79 468.54 C 590.26 449.69 587.20 430.79 580.68 413.06 C 574.56 396.58 564.78 381.01 550.61 370.32 C 542.53 364.38 532.81 359.67 522.53 360.38 C 524.43 350.01 523.75 339.28 521.02 329.13 C 517.30 315.15 511.33 301.89 507.67 287.88 Z"/>
    <path stroke="#000000" stroke-width="0.09375" d=" M 274.67 244.67 C 276.37 241.35 277.77 237.81 280.19 234.92 C 283.36 251.84 288.15 268.90 298.00 283.24 C 286.67 285.05 277.85 293.54 271.67 302.72 C 268.46 307.22 266.38 312.37 263.79 317.22 C 260.85 308.11 260.86 298.38 261.69 288.94 C 263.49 273.59 268.13 258.65 274.67 244.67 Z"/>
    <path stroke="#000000" stroke-width="0.09375" d=" M 619.80 234.94 C 622.25 237.80 623.62 241.36 625.33 244.68 C 632.00 258.97 636.73 274.28 638.41 290.00 C 639.11 299.09 639.05 308.45 636.21 317.21 C 632.25 309.12 628.16 300.88 621.69 294.45 C 616.45 288.84 609.64 284.47 601.97 283.22 C 611.88 268.93 616.63 251.84 619.80 234.94 Z"/>
  </g>
</svg>
