<?xml version="1.0" encoding="UTF-8"?>
<svg xmlns="http://www.w3.org/2000/svg" width="690pt" height="1158pt" viewBox="0 0 690 1158" version="1.1">
  <g id="#070400ff">
    <path fill="#070400" stroke="#070400" stroke-width="0.09375" d=" M 315.49 60.38 C 325.74 41.16 338.48 22.63 343.17 1.03 C 346.37 15.53 352.54 29.16 359.83 42.03 C 363.45 48.65 367.40 55.09 370.63 61.92 C 372.95 66.81 373.69 72.25 375.74 77.25 C 381.16 91.22 389.13 104.08 398.11 116.02 C 401.03 120.02 404.73 123.49 406.84 128.04 C 414.00 142.72 419.51 158.12 426.05 173.07 C 432.98 186.62 432.14 202.30 433.00 217.05 C 433.23 217.25 433.68 217.66 433.90 217.86 C 437.36 215.36 439.58 211.61 441.57 207.93 C 446.06 199.39 449.34 190.26 451.94 180.99 C 452.82 177.41 453.97 173.68 453.12 169.99 C 451.68 163.05 449.04 156.15 449.88 148.95 C 450.49 141.34 452.87 133.37 458.31 127.83 C 458.55 147.51 465.35 166.99 477.54 182.46 C 485.23 192.64 494.81 201.13 504.04 209.88 C 509.97 215.37 513.27 223.00 515.51 230.63 C 516.89 234.77 517.47 239.33 519.97 243.02 C 521.57 245.35 524.81 244.28 526.43 242.54 C 528.51 240.08 526.74 236.83 526.46 234.05 C 525.57 231.43 527.81 229.38 528.71 227.14 C 529.99 224.86 528.53 222.33 528.60 219.92 C 530.34 217.02 532.78 214.58 534.24 211.51 C 538.05 203.53 539.50 194.68 540.27 185.95 C 540.70 180.88 539.41 175.91 538.29 171.02 C 535.22 158.43 531.42 145.97 526.18 134.10 C 524.25 130.21 522.55 125.68 518.46 123.57 C 516.38 122.77 515.80 120.44 516.62 118.50 C 518.30 116.76 521.49 115.82 521.43 112.95 C 521.34 107.66 517.71 103.30 514.27 99.63 C 516.70 98.57 519.87 97.83 521.97 99.99 C 527.25 105.64 525.25 114.81 530.71 120.35 C 538.86 128.95 546.50 138.09 553.05 147.98 C 561.70 161.13 568.82 176.03 569.61 191.98 C 569.27 204.79 572.99 217.17 575.85 229.52 C 580.87 250.30 584.32 271.63 583.47 293.08 C 582.78 308.19 581.10 324.36 571.89 336.94 C 562.84 349.06 548.04 354.29 536.53 363.51 C 528.38 369.69 521.66 377.62 516.42 386.38 C 513.37 393.70 506.20 397.94 502.51 404.81 C 498.54 412.17 497.84 420.72 497.66 428.93 C 497.59 432.74 496.80 436.64 497.79 440.40 C 499.11 444.18 502.94 445.91 506.07 447.94 C 504.52 449.69 502.20 450.90 501.31 453.14 C 502.52 455.13 504.93 455.86 506.60 457.40 C 508.16 458.56 508.04 460.72 508.37 462.43 C 499.71 462.80 492.88 456.50 488.05 450.01 C 481.75 441.32 471.97 436.38 462.92 431.10 C 461.92 430.27 459.97 429.73 460.25 428.09 C 460.43 417.32 460.51 406.53 461.45 395.80 C 464.03 391.82 469.24 391.69 473.09 389.56 C 479.41 386.88 483.38 380.57 484.69 374.03 C 486.34 365.19 487.22 355.73 483.90 347.15 C 480.66 338.72 476.90 330.22 476.79 321.02 C 476.71 308.65 469.13 297.82 460.51 289.57 C 456.26 285.57 453.23 280.55 450.62 275.39 C 449.95 273.76 448.29 273.05 446.85 272.29 C 443.81 274.38 443.89 278.31 444.74 281.52 C 445.98 284.39 448.86 286.20 449.99 289.16 C 451.70 292.91 451.51 297.13 452.53 301.07 C 453.02 303.41 454.00 305.64 454.26 308.04 C 452.74 315.12 443.90 318.64 444.32 326.39 C 441.45 327.93 438.10 327.63 434.98 328.11 C 427.20 328.76 419.35 329.90 412.06 332.82 C 408.89 334.06 406.03 335.96 402.87 337.23 C 400.39 331.91 400.17 325.96 398.50 320.42 C 397.37 316.65 393.26 315.57 390.45 313.46 C 389.31 312.43 390.88 311.30 391.73 310.89 C 398.66 307.03 405.89 303.25 411.17 297.16 C 417.61 290.11 420.44 280.41 420.57 271.00 C 420.80 259.49 419.22 247.90 415.57 236.96 C 411.58 224.88 404.92 213.87 397.19 203.83 C 394.13 199.49 390.10 195.43 389.16 190.01 C 387.21 181.68 383.77 173.41 377.65 167.26 C 374.77 164.17 371.05 161.84 368.78 158.19 C 364.34 150.78 357.05 145.68 349.84 141.21 C 345.30 138.32 340.22 136.50 335.09 135.02 C 331.13 132.20 330.31 126.56 326.01 124.06 C 324.18 122.82 321.97 123.96 320.15 124.58 C 321.72 128.95 322.85 133.45 324.06 137.92 C 326.96 141.99 333.40 142.80 334.95 148.08 C 336.94 155.06 340.29 161.59 344.58 167.43 C 346.47 170.37 349.26 173.34 348.65 177.12 C 347.64 184.85 342.64 191.17 339.39 198.02 C 337.81 202.49 343.11 205.57 342.47 209.97 C 335.48 211.90 329.15 215.89 324.02 220.98 C 320.49 224.47 317.06 228.11 313.07 231.11 C 305.87 236.91 297.27 240.57 289.67 245.77 C 277.02 253.87 266.95 266.24 262.89 280.82 C 259.87 290.56 259.90 300.89 260.35 310.98 C 260.80 318.72 266.24 324.81 271.76 329.71 C 261.44 329.10 250.74 326.91 242.17 320.83 C 235.21 315.89 230.79 306.30 233.93 297.99 C 236.18 291.44 239.47 285.25 241.20 278.51 C 241.87 275.28 242.33 271.21 239.19 269.09 C 217.42 285.71 203.29 311.25 198.73 338.07 C 196.67 351.49 196.34 365.97 202.31 378.49 C 205.54 385.53 212.63 390.79 220.56 390.59 C 221.11 405.56 224.91 420.25 225.66 435.22 C 214.16 446.42 200.15 454.47 186.99 463.50 C 183.23 462.25 180.17 459.68 177.20 457.14 C 181.26 447.94 185.41 438.58 186.75 428.52 C 187.86 421.74 187.05 414.84 186.19 408.08 C 185.56 405.01 184.57 401.83 182.38 399.52 C 179.80 397.13 176.36 395.81 174.07 393.09 C 171.41 390.01 170.23 386.05 168.58 382.41 C 164.32 372.72 157.85 363.80 148.99 357.86 C 138.59 350.77 125.07 348.23 116.93 337.99 C 107.60 326.17 105.95 310.48 104.56 295.99 C 104.47 287.32 103.32 278.65 104.29 270.01 C 105.68 243.55 118.20 219.24 120.54 192.93 C 121.27 185.95 119.77 178.75 121.94 171.95 C 123.17 167.62 125.81 163.91 128.18 160.13 C 131.81 154.32 133.61 147.64 136.37 141.41 C 137.20 139.68 138.00 137.82 139.52 136.57 C 148.31 130.44 154.61 121.60 162.07 114.06 C 163.87 112.19 166.12 110.55 167.04 108.03 C 167.91 105.07 167.73 101.84 168.93 98.97 C 170.13 96.17 173.05 94.90 175.51 93.46 C 172.80 100.64 171.13 108.53 173.43 116.08 C 174.54 119.11 171.51 120.95 169.88 122.95 C 167.62 125.25 166.38 128.26 165.22 131.21 C 163.82 134.94 160.57 137.65 159.37 141.49 C 157.62 146.15 158.99 151.18 158.81 156.00 C 159.07 159.82 154.87 161.37 153.32 164.38 C 150.99 167.82 151.92 172.12 151.78 176.01 C 151.64 182.06 150.83 188.20 152.32 194.15 C 153.61 200.91 157.23 206.85 159.90 213.10 C 161.79 217.16 160.95 221.68 161.20 225.99 C 161.44 232.85 164.88 239.53 170.38 243.65 C 173.41 246.02 177.01 247.47 180.55 248.88 C 183.25 229.53 191.59 211.58 200.51 194.40 C 213.27 170.01 228.62 147.12 243.64 124.10 C 237.46 141.65 235.35 160.51 236.72 179.03 C 237.58 186.66 238.71 194.58 242.79 201.24 C 244.37 203.91 246.86 205.91 249.73 207.06 C 252.00 186.35 257.90 166.08 267.16 147.42 C 277.55 125.86 291.88 106.54 306.84 87.98 C 311.19 82.33 316.02 76.93 319.32 70.56 C 320.17 68.78 321.22 66.11 319.49 64.53 C 318.18 62.83 315.90 64.26 314.24 64.31 C 314.46 62.94 314.87 61.63 315.49 60.38 Z"/>
    <path fill="#070400" stroke="#070400" stroke-width="0.09375" d=" M 42.07 291.13 C 50.48 284.58 56.23 275.08 59.46 265.02 C 58.76 271.47 58.90 278.08 61.76 284.04 C 53.80 292.28 49.77 303.34 47.74 314.42 C 47.07 319.71 42.90 323.67 42.12 328.92 C 40.58 337.72 41.73 346.85 45.00 355.13 C 46.72 360.72 50.63 365.85 49.83 371.98 C 50.03 376.86 47.72 383.18 51.97 386.90 C 59.93 391.79 68.15 396.55 74.62 403.42 C 78.75 407.34 81.88 412.23 86.27 415.89 C 86.81 416.11 87.90 416.55 88.45 416.77 C 89.12 404.60 88.22 392.05 92.19 380.32 C 94.39 373.61 98.56 367.30 104.86 363.84 C 104.11 370.53 102.85 377.34 104.36 384.04 C 106.04 394.54 112.35 403.34 117.49 412.39 C 123.76 423.16 127.59 435.46 127.76 447.97 C 127.85 455.02 127.96 462.13 126.77 469.10 C 124.18 466.06 121.96 462.69 118.99 460.00 C 112.93 454.21 105.10 450.64 97.08 448.49 C 88.79 446.14 80.17 444.54 72.50 440.43 C 64.59 436.33 58.02 429.60 54.47 421.40 C 52.72 417.69 51.95 413.59 50.05 409.96 C 49.49 409.82 48.38 409.53 47.82 409.39 C 46.12 411.97 45.36 415.02 44.80 418.03 C 43.29 429.98 45.36 442.07 48.81 453.52 C 52.71 465.57 57.68 478.07 67.46 486.60 C 72.30 491.03 78.58 493.26 84.55 495.68 C 84.09 498.84 85.68 501.71 86.83 504.53 C 92.08 516.33 100.12 526.68 109.15 535.83 C 115.21 541.51 121.62 547.21 129.47 550.26 C 131.50 550.71 134.26 551.59 135.96 549.97 C 138.06 545.98 138.85 541.47 140.26 537.23 C 142.41 542.87 143.52 548.94 143.48 554.99 C 143.51 562.60 140.06 569.58 138.44 576.89 C 133.96 594.35 137.13 613.39 145.87 629.03 C 134.41 624.66 127.74 613.60 120.85 604.13 C 117.10 599.04 113.17 593.55 107.32 590.76 C 98.51 587.55 88.94 587.32 80.11 584.15 C 66.22 579.92 54.75 569.66 47.77 557.08 C 37.98 539.66 33.93 519.68 31.66 500.02 C 36.26 512.05 44.78 522.76 56.10 529.06 C 59.51 530.96 63.33 532.21 67.25 532.32 C 70.67 531.03 69.03 526.81 67.80 524.45 C 62.96 515.55 55.40 508.60 49.39 500.53 C 45.33 494.82 39.00 491.50 33.24 487.79 C 24.64 482.40 16.07 476.40 10.16 467.98 C 1.38 455.95 -0.96 440.28 0.87 425.75 C 4.66 398.02 9.30 370.40 14.96 342.99 C 16.17 337.55 17.28 332.03 19.52 326.89 C 23.10 318.47 26.07 309.74 30.76 301.85 C 33.42 297.24 38.02 294.37 42.07 291.13 Z"/>
    <path fill="#070400" stroke="#070400" stroke-width="0.09375" d=" M 634.50 264.82 C 637.18 267.12 638.56 270.47 640.85 273.11 C 646.55 280.08 653.55 285.87 659.22 292.88 C 663.10 297.09 665.50 302.36 667.90 307.49 C 673.01 318.71 676.84 330.67 677.91 343.00 C 678.56 348.23 678.02 353.55 678.95 358.76 C 681.26 372.33 685.56 385.47 687.63 399.08 C 690.02 414.31 690.90 430.06 687.28 445.18 C 685.27 453.49 681.60 461.47 676.15 468.09 C 669.69 476.19 660.78 481.80 652.06 487.16 C 644.83 491.69 636.20 496.78 634.58 505.91 C 634.16 508.90 633.59 514.64 638.05 514.53 C 643.95 513.35 648.38 508.56 652.29 504.27 C 657.63 498.04 662.19 491.01 664.88 483.23 C 665.20 484.79 665.41 486.36 665.44 487.96 C 665.62 500.68 666.10 513.64 662.76 526.05 C 661.23 531.95 658.46 537.76 653.74 541.78 C 647.69 546.92 639.39 549.01 634.32 555.38 C 631.72 558.72 629.15 562.61 628.77 566.90 C 630.31 569.77 634.27 568.79 636.94 568.51 C 645.63 566.20 653.36 560.20 657.63 552.26 C 655.40 565.17 646.62 576.12 635.54 582.76 C 619.49 592.57 601.09 598.99 587.48 612.45 C 577.78 621.36 571.05 632.92 565.76 644.85 C 563.92 641.94 563.53 638.40 563.64 635.03 C 564.47 621.33 568.19 607.82 567.39 594.03 C 565.96 581.71 563.36 569.49 563.30 557.05 C 563.26 550.35 563.04 543.37 565.83 537.11 C 567.19 542.74 567.82 548.56 569.77 554.03 C 570.39 556.32 572.44 557.66 574.32 558.87 C 576.16 555.81 576.70 552.21 578.24 549.01 C 584.14 535.12 595.09 524.17 601.39 510.49 C 603.09 506.89 604.27 503.08 605.51 499.31 C 598.13 502.91 590.10 505.39 581.78 504.65 C 586.88 496.78 597.34 494.55 606.12 495.78 C 606.26 494.60 606.41 493.42 606.57 492.25 C 612.19 492.93 618.33 493.62 623.52 490.80 C 632.62 486.16 637.80 476.67 641.47 467.55 C 647.48 451.48 650.31 434.16 649.36 417.01 C 649.21 413.85 648.14 410.82 646.28 408.28 C 643.86 408.19 641.14 408.71 640.13 411.21 C 636.82 418.56 636.96 427.33 631.94 433.96 C 628.00 439.34 621.08 440.85 614.94 442.18 C 604.40 444.40 593.02 445.50 584.02 451.99 C 580.98 454.14 578.69 457.10 576.45 460.04 C 576.88 446.86 582.07 433.74 591.37 424.30 C 604.31 410.34 623.12 403.16 634.88 387.95 C 641.74 379.23 644.29 367.97 644.29 357.06 C 644.08 354.11 645.69 351.61 647.23 349.26 C 649.24 346.22 650.07 342.59 650.45 339.01 C 650.99 331.99 651.46 324.79 649.53 317.92 C 646.10 304.70 641.20 291.68 633.72 280.20 C 632.60 278.52 634.18 276.69 634.59 275.03 C 636.18 271.81 634.67 268.13 634.50 264.82 Z"/>
    <path fill="#070400" stroke="#070400" stroke-width="0.09375" d=" M 388.40 314.86 C 388.81 314.86 389.64 314.87 390.05 314.87 C 391.31 317.74 390.42 321.03 390.13 324.03 C 388.44 333.39 380.88 340.35 372.83 344.66 C 367.60 347.31 362.25 350.03 356.41 351.03 C 356.04 344.12 358.34 337.13 363.14 332.09 C 370.26 324.58 380.35 321.15 388.40 314.86 Z"/>
    <path fill="#070400" stroke="#070400" stroke-width="0.09375" d=" M 220.70 391.16 C 229.99 394.21 240.11 395.91 248.11 401.90 C 251.14 404.26 253.81 407.24 255.20 410.88 C 249.84 410.54 244.27 410.02 239.43 407.51 C 235.19 405.26 231.75 401.86 228.15 398.76 C 225.53 396.36 222.70 394.13 220.70 391.16 Z"/>
    <path fill="#070400" stroke="#070400" stroke-width="0.09375" d=" M 439.49 401.33 C 446.39 398.39 453.88 396.86 461.34 396.28 C 451.92 405.11 441.01 414.58 427.35 414.71 C 429.43 408.86 433.72 403.81 439.49 401.33 Z"/>
    <path fill="#070400" stroke="#070400" stroke-width="0.09375" d=" M 323.04 441.85 C 327.13 441.17 330.96 443.61 335.05 443.60 C 341.14 444.21 347.03 442.32 352.97 441.48 C 358.29 442.41 363.56 443.99 369.03 443.70 C 373.15 443.89 376.99 442.24 381.01 441.70 C 384.58 442.02 387.84 443.76 391.27 444.71 C 401.97 447.94 412.99 451.49 424.32 450.52 C 424.44 452.91 425.23 455.69 427.86 456.40 C 430.05 457.02 430.82 454.51 431.61 453.07 C 437.84 456.65 444.41 459.69 450.32 463.79 C 457.38 470.81 467.47 473.52 474.76 480.28 C 479.74 485.05 483.73 490.75 487.41 496.55 C 496.31 512.08 509.18 524.96 517.49 540.87 C 526.48 557.35 529.29 576.39 529.73 594.94 C 531.93 625.58 525.57 656.34 514.63 684.89 C 508.72 700.17 501.60 715.03 492.85 728.91 C 490.24 733.08 487.34 737.07 484.03 740.72 C 482.11 738.70 479.22 737.34 476.51 738.69 C 472.62 740.96 470.14 744.90 466.72 747.75 C 464.44 750.06 461.43 752.55 461.51 756.09 C 462.28 758.52 464.85 759.51 466.80 760.82 C 464.53 765.05 461.13 768.74 456.73 770.80 C 446.89 775.62 435.70 775.88 425.06 777.58 C 419.26 778.28 414.04 781.10 408.52 782.79 C 373.00 794.83 333.66 794.84 298.10 783.02 C 293.03 781.53 288.30 779.04 283.14 777.90 C 272.60 775.96 261.56 775.97 251.52 771.86 C 246.22 769.77 241.17 765.95 239.17 760.44 C 241.38 759.29 244.58 757.94 244.30 754.94 C 243.30 751.30 240.17 748.92 237.61 746.39 C 234.85 743.86 232.63 740.70 229.44 738.68 C 226.71 737.33 223.75 738.58 221.85 740.70 C 215.51 733.94 210.94 725.78 206.39 717.77 C 189.34 686.22 177.52 651.25 175.85 615.25 C 175.07 605.51 176.23 595.79 176.43 586.07 C 177.44 573.46 179.47 560.76 184.40 549.03 C 190.18 534.94 199.77 522.93 208.83 510.85 C 215.26 502.75 219.58 493.19 226.32 485.31 C 232.13 477.36 241.38 473.31 249.62 468.46 C 252.71 466.72 254.85 463.71 257.98 462.01 C 263.30 458.89 268.75 455.98 274.18 453.06 C 274.91 454.64 275.83 457.06 278.12 456.31 C 280.72 455.56 281.10 452.72 281.64 450.48 C 295.97 451.53 309.61 446.04 323.04 441.85 M 306.74 499.75 C 298.65 505.53 291.82 512.82 284.70 519.71 C 279.78 524.39 275.23 529.58 269.48 533.29 C 267.94 540.12 267.43 547.15 265.61 553.92 C 263.66 561.49 261.02 569.65 254.60 574.63 C 252.53 576.48 249.08 576.42 247.60 578.90 C 246.83 583.08 250.22 586.32 253.77 587.74 C 249.68 599.11 245.65 610.75 245.55 622.98 C 245.16 647.49 251.40 672.12 263.65 693.37 C 269.53 703.35 276.70 712.95 286.38 719.52 C 291.40 722.86 298.21 725.28 303.87 722.04 C 314.55 716.03 321.41 705.08 332.02 698.96 C 335.02 697.11 338.58 696.92 341.96 696.33 C 346.14 695.16 349.34 690.81 354.02 691.57 C 358.29 692.67 361.47 696.52 366.03 696.76 C 368.72 697.08 371.44 697.63 373.81 699.03 C 384.50 705.15 391.23 716.35 402.13 722.18 C 407.83 725.33 414.60 722.83 419.58 719.46 C 428.18 713.53 434.84 705.20 440.35 696.41 C 449.25 681.94 455.22 665.71 458.17 648.99 C 459.14 642.76 460.32 636.44 459.50 630.12 C 459.76 631.69 460.05 633.28 460.34 634.86 C 460.37 624.82 460.40 614.63 457.63 604.88 C 456.24 598.96 453.50 593.46 452.15 587.54 C 456.19 586.41 459.90 581.70 457.45 577.60 C 452.93 576.34 448.78 573.64 446.38 569.52 C 439.59 558.74 438.68 545.70 436.38 533.48 C 422.60 523.53 412.59 509.23 398.60 499.50 C 395.88 497.78 392.79 495.71 389.40 496.45 C 386.89 497.26 384.90 499.12 382.98 500.86 C 374.01 509.33 366.76 519.37 358.42 528.42 C 356.84 530.14 354.92 531.49 353.01 532.80 C 350.36 531.27 348.06 529.24 346.06 526.95 C 339.94 520.06 334.20 512.85 328.02 506.02 C 324.69 502.68 321.55 498.94 317.31 496.73 C 313.52 495.18 309.78 497.72 306.74 499.75 Z"/>
    <path fill="#070400" stroke="#070400" stroke-width="0.09375" d=" M 84.74 495.53 C 93.86 494.57 104.23 496.66 110.03 504.36 C 106.71 504.80 103.26 505.18 99.99 504.25 C 95.87 502.98 92.34 500.42 88.56 498.43 C 87.20 497.60 85.50 497.07 84.74 495.53 Z"/>
    <path fill="#070400" stroke="#070400" stroke-width="0.09375" d=" M 344.95 548.62 C 346.59 546.20 348.81 543.60 352.01 543.59 C 355.06 543.19 358.02 544.69 359.71 547.22 C 360.97 549.61 363.86 549.10 366.13 549.35 C 375.09 549.93 384.38 554.17 389.06 562.13 C 391.21 565.44 391.73 569.61 394.43 572.60 C 399.82 579.15 405.71 585.67 408.36 593.91 C 412.21 605.85 413.23 618.62 412.30 631.08 C 409.71 642.64 402.59 653.00 393.46 660.42 C 391.14 662.55 387.95 662.51 385.00 662.57 C 377.72 662.99 370.25 664.80 364.49 669.50 C 360.62 671.89 357.37 675.63 352.95 676.91 C 348.51 675.68 345.29 671.91 341.43 669.55 C 334.88 664.23 326.25 662.51 318.00 662.41 C 313.96 662.53 310.99 659.33 308.21 656.85 C 301.13 649.41 295.05 640.32 293.39 630.01 C 292.83 616.71 293.59 602.94 298.73 590.49 C 301.97 582.94 307.94 577.14 312.74 570.64 C 314.90 566.27 316.23 561.32 319.95 557.91 C 326.28 550.95 336.02 549.29 344.95 548.62 Z"/>
    <path fill="#070400" stroke="#070400" stroke-width="0.09375" d=" M 99.27 679.35 C 106.38 681.09 112.59 685.24 118.05 690.00 C 126.78 697.63 134.27 706.52 141.68 715.40 C 142.85 716.78 144.19 718.01 145.54 719.22 C 145.18 716.83 144.32 714.42 144.70 712.00 C 145.98 709.67 148.91 709.76 151.16 709.23 C 157.56 713.95 163.09 719.71 168.73 725.28 C 181.36 737.98 193.56 751.12 206.63 763.37 C 210.64 767.47 216.45 768.69 221.03 771.96 C 232.57 779.52 241.41 790.30 252.10 798.89 C 254.69 801.30 258.74 801.27 261.80 799.85 C 264.31 797.60 266.21 794.67 269.24 793.00 C 276.08 801.68 275.05 813.69 280.10 823.20 C 281.99 824.27 284.29 823.32 286.33 823.29 C 284.95 825.76 282.20 827.95 282.54 831.02 C 283.66 834.11 285.99 836.56 288.12 839.00 C 298.91 850.58 309.70 862.19 321.22 873.06 C 322.92 852.91 324.67 832.78 326.54 812.65 C 330.40 812.25 334.27 811.88 338.15 811.81 C 341.04 815.79 346.05 816.16 350.55 816.39 C 351.21 821.03 351.63 825.70 351.90 830.39 C 355.32 829.80 358.74 829.17 362.17 828.58 C 362.32 836.05 363.02 843.52 362.56 850.99 C 362.91 848.32 363.26 845.66 363.59 843.00 C 362.78 853.58 363.81 864.19 364.47 874.74 C 377.30 867.29 390.64 860.55 402.59 851.69 C 406.60 849.18 404.15 843.50 407.29 840.41 C 411.19 836.06 416.79 833.69 422.19 831.81 C 425.10 830.66 428.03 832.21 430.95 832.20 C 438.75 829.94 445.90 826.00 452.70 821.65 C 467.18 812.38 480.94 802.05 494.62 791.66 C 508.20 781.57 521.13 770.57 535.20 761.16 C 536.33 763.26 537.28 765.46 538.61 767.45 C 539.73 767.98 541.00 767.62 542.00 767.00 C 559.91 755.47 578.26 744.63 596.56 733.72 C 603.01 730.03 609.25 725.92 616.01 722.78 C 606.52 735.33 592.75 743.70 582.50 755.54 C 581.03 757.08 580.57 759.16 580.36 761.21 C 586.82 763.57 593.57 761.17 600.11 760.48 C 596.32 764.29 591.96 767.45 587.74 770.76 C 575.26 780.33 562.56 789.61 549.82 798.83 C 526.84 815.31 503.86 831.82 480.06 847.11 C 473.79 851.41 466.01 854.00 461.49 860.47 C 458.06 864.98 458.10 870.85 457.04 876.17 C 455.83 882.70 446.49 885.85 441.59 881.36 C 439.48 879.56 437.41 877.70 435.06 876.22 C 422.21 886.28 408.00 894.42 394.42 903.43 C 385.89 909.13 376.89 914.23 369.01 920.84 C 386.88 939.26 405.73 956.72 424.21 974.53 C 427.01 972.10 429.60 968.90 433.40 968.13 C 436.55 967.54 438.58 970.54 440.76 972.27 C 452.72 983.63 463.86 995.82 474.71 1008.23 C 478.47 1012.98 483.01 1017.33 485.47 1022.94 C 485.19 1026.33 482.17 1028.38 479.73 1030.29 C 482.35 1034.27 485.72 1037.66 488.76 1041.31 C 503.05 1058.01 517.35 1074.70 531.60 1091.43 C 536.69 1097.78 542.61 1103.50 547.03 1110.34 C 538.75 1113.56 530.84 1108.08 524.04 1103.97 C 521.75 1102.79 518.78 1100.12 516.30 1102.32 C 512.26 1106.43 512.08 1112.62 510.60 1117.90 C 509.01 1117.44 507.00 1117.58 505.98 1116.06 C 503.42 1112.37 503.89 1107.38 501.26 1103.74 C 498.85 1101.07 494.78 1101.18 492.15 1098.83 C 455.09 1064.22 418.40 1029.20 380.70 995.29 C 378.18 993.41 376.14 990.40 373.00 989.67 C 370.04 990.80 368.19 993.70 367.79 996.77 C 366.92 1002.73 367.95 1008.98 365.89 1014.77 C 364.77 1017.96 361.71 1020.93 358.09 1020.39 C 353.89 1020.37 350.09 1018.26 347.33 1015.19 C 346.82 1036.09 346.46 1057.00 345.10 1077.87 C 344.40 1083.59 344.69 1089.58 342.34 1094.98 C 339.43 1093.59 336.77 1091.60 333.56 1090.99 C 333.92 1101.04 333.37 1111.10 333.93 1121.15 C 334.10 1113.89 333.35 1106.60 334.51 1099.38 C 335.11 1102.58 334.17 1105.78 334.20 1109.00 C 334.48 1119.73 333.46 1130.58 330.88 1141.00 C 328.15 1146.45 328.52 1152.98 324.80 1158.00 L 324.33 1158.00 C 322.74 1141.38 322.42 1124.67 322.18 1107.98 C 321.20 1092.59 322.10 1077.13 320.60 1061.77 C 318.35 1059.82 316.28 1057.67 314.52 1055.28 C 315.15 1051.04 316.19 1046.70 315.52 1042.43 C 313.92 1040.06 310.63 1040.27 308.18 1039.49 C 309.60 1016.29 313.72 993.24 313.51 969.94 C 313.41 966.00 313.40 961.91 311.76 958.26 C 308.16 958.10 305.24 960.57 302.34 962.35 C 292.86 968.74 284.21 976.31 274.44 982.29 C 269.52 985.50 263.37 985.24 258.10 987.59 C 241.96 994.06 229.01 1006.02 214.98 1015.93 C 206.88 1021.57 197.98 1027.74 187.64 1027.28 C 190.60 1023.97 193.96 1020.90 195.79 1016.76 C 193.85 1015.74 191.57 1015.00 189.49 1016.13 C 180.17 1020.40 172.12 1027.05 162.78 1031.30 C 159.28 1032.96 156.10 1030.32 152.91 1029.26 C 150.16 1028.40 148.08 1030.66 146.22 1032.26 C 140.31 1037.61 132.92 1040.87 126.57 1045.61 C 125.33 1046.64 123.49 1047.81 124.27 1049.72 C 127.24 1052.53 131.55 1050.84 135.10 1050.56 C 136.27 1051.90 137.44 1053.26 138.64 1054.60 C 141.49 1052.49 144.50 1050.38 148.05 1049.70 C 152.49 1048.86 157.03 1049.52 161.47 1049.98 C 159.38 1052.75 156.46 1054.65 153.76 1056.76 C 131.64 1074.03 109.36 1091.10 87.18 1108.29 C 83.57 1111.46 78.42 1110.43 74.02 1110.47 C 70.25 1110.63 66.24 1108.15 66.30 1104.03 C 69.66 1101.54 73.07 1098.83 75.14 1095.12 C 75.91 1093.56 77.24 1091.56 75.15 1090.42 C 70.54 1090.80 67.04 1094.18 62.86 1095.78 C 56.05 1098.39 49.46 1102.09 41.98 1102.31 C 59.00 1086.53 76.17 1070.88 93.62 1055.57 C 100.82 1049.01 109.15 1043.89 116.68 1037.74 C 129.88 1027.27 142.55 1016.12 156.24 1006.29 C 165.96 998.98 177.74 995.32 188.01 988.92 C 194.08 985.58 199.39 981.11 204.31 976.28 C 208.77 971.81 215.33 970.32 219.58 965.60 C 229.25 955.59 235.13 942.67 244.23 932.19 C 247.99 927.95 252.61 923.63 258.42 922.75 C 263.72 924.86 266.14 931.53 272.05 932.49 C 275.70 931.20 279.07 929.22 282.72 927.92 C 286.20 926.39 290.19 925.24 292.58 922.10 C 292.89 919.45 290.62 917.67 289.21 915.77 C 275.51 899.83 261.39 884.28 247.10 868.88 C 245.63 867.49 244.30 865.38 242.02 865.51 C 236.93 865.05 231.02 865.83 226.93 862.07 C 219.36 855.44 215.82 845.71 210.76 837.28 C 203.43 827.62 191.40 823.40 182.69 815.27 C 180.56 813.39 179.29 810.09 180.64 807.44 C 182.84 805.73 186.95 804.78 186.29 801.19 C 184.86 798.33 182.10 796.39 180.03 794.00 C 160.71 773.32 141.19 752.83 122.29 731.77 C 120.44 729.42 117.66 727.31 117.50 724.09 C 116.51 714.75 114.21 705.46 109.87 697.09 C 106.75 690.93 102.38 685.51 99.27 679.35 Z"/>
  </g>
</svg>
