<?xml version="1.0" encoding="UTF-8"?>
<svg xmlns="http://www.w3.org/2000/svg" width="841pt" height="949pt" viewBox="0 0 841 949" version="1.1">
  <g>
    <path stroke="#000000" stroke-width="0.09375" d=" M 419.83 2.83 C 421.68 2.91 421.46 4.87 421.94 6.08 C 425.90 22.61 430.83 38.90 436.43 54.94 C 441.08 67.39 446.03 79.97 453.88 90.80 C 448.93 90.69 444.00 90.33 439.10 89.74 C 427.08 89.11 415.03 89.15 403.01 89.66 C 397.72 90.19 392.43 90.73 387.11 90.79 C 392.06 84.17 395.67 76.67 398.97 69.12 C 407.98 47.75 414.39 25.35 419.83 2.83 Z"/>
    <path stroke="#000000" stroke-width="0.09375" d=" M 295.32 38.90 C 307.62 55.52 319.48 72.49 332.42 88.64 C 335.22 92.37 338.53 95.69 341.17 99.54 C 324.95 103.53 309.06 108.68 293.26 114.04 C 297.45 94.32 297.17 74.05 296.39 54.01 C 296.08 48.97 295.26 43.96 295.32 38.90 Z"/>
    <path stroke="#000000" stroke-width="0.09375" d=" M 499.83 99.53 C 515.96 79.95 530.79 59.34 545.70 38.82 C 545.74 44.60 544.68 50.30 544.51 56.07 C 543.86 75.42 543.67 95.00 547.74 114.04 C 531.94 108.69 516.05 103.52 499.83 99.53 Z"/>
    <path stroke="#000000" stroke-width="0.09375" d=" M 196.11 105.35 C 209.43 115.88 222.96 126.17 236.48 136.45 C 237.34 137.18 238.18 137.95 239.01 138.71 C 228.94 144.19 219.20 150.28 209.80 156.85 C 207.64 139.13 201.26 122.33 196.11 105.35 Z"/>
    <path stroke="#000000" stroke-width="0.09375" d=" M 601.99 138.71 C 616.01 127.26 630.79 116.74 644.87 105.35 C 639.78 122.32 633.35 139.09 631.21 156.80 C 621.75 150.33 612.07 144.17 601.99 138.71 Z"/>
    <path stroke="#000000" stroke-width="0.09375" d=" M 395.98 123.68 C 408.31 123.05 420.67 122.00 433.01 123.06 C 463.59 124.19 493.87 129.98 523.19 138.57 C 562.19 150.28 599.51 167.42 633.99 189.05 C 694.21 226.77 746.07 278.28 782.42 339.48 C 800.60 369.97 814.85 402.81 824.58 436.96 C 835.68 475.33 840.82 515.32 841.00 555.22 L 841.00 555.80 C 840.75 619.64 830.02 684.42 802.04 742.24 C 786.74 773.70 766.55 803.05 740.94 827.02 C 737.92 829.47 734.07 830.51 730.83 832.62 C 717.35 840.90 708.26 854.59 701.66 868.66 C 700.99 869.77 700.60 871.24 699.38 871.93 C 694.77 859.91 692.68 846.71 694.56 833.91 C 695.54 824.21 699.31 814.88 699.09 805.05 C 698.81 799.28 696.48 793.86 693.21 789.17 C 677.12 806.78 657.33 820.49 637.47 833.48 C 620.29 844.61 602.52 854.77 584.74 864.89 C 573.57 871.50 561.57 877.10 552.08 886.15 C 542.18 895.57 532.33 905.10 521.54 913.52 C 502.06 928.88 479.33 940.43 454.94 945.44 C 446.25 947.25 437.42 948.43 428.56 949.00 L 412.42 949.00 C 400.18 948.15 387.96 946.36 376.15 942.98 C 348.75 935.46 324.41 919.46 303.86 900.15 C 295.78 893.24 288.80 885.06 280.04 878.94 C 275.48 875.82 270.65 873.11 265.87 870.36 C 237.00 853.89 207.85 837.70 180.98 818.06 C 169.17 809.35 157.61 800.10 147.74 789.20 C 145.69 792.40 143.73 795.73 142.82 799.46 C 140.25 809.06 143.91 818.71 145.56 828.13 C 148.55 842.85 147.20 858.53 141.26 872.37 C 133.43 855.71 123.09 838.52 105.85 830.32 C 98.99 827.70 94.74 821.40 89.55 816.57 C 53.40 778.27 29.27 729.77 15.60 679.18 C 3.94 636.21 -0.47 591.47 0.12 547.02 C 1.15 490.53 13.08 434.11 36.24 382.51 C 60.35 328.45 96.26 279.86 139.94 240.01 C 178.56 204.76 223.11 176.00 271.20 155.46 C 310.82 138.53 353.00 127.25 395.98 123.68 M 402.63 148.11 C 373.17 150.79 344.49 160.83 319.50 176.60 C 295.36 191.74 274.62 212.17 258.92 235.94 C 237.06 268.71 224.81 307.71 223.48 347.04 C 221.99 385.88 231.12 425.14 249.94 459.19 C 267.12 490.59 292.64 517.31 323.27 535.85 C 326.03 530.98 328.11 525.76 330.81 520.85 C 341.07 500.84 353.24 481.80 366.96 463.98 C 370.03 459.97 373.50 456.23 375.95 451.78 C 380.65 443.55 382.29 433.94 382.37 424.57 C 384.17 424.17 386.25 424.03 387.53 422.53 C 390.14 419.73 389.71 415.59 389.52 412.07 C 388.78 404.03 383.43 395.70 375.06 394.17 C 370.67 392.93 366.30 394.67 362.04 395.57 C 360.48 391.96 358.23 388.28 354.39 386.79 C 348.87 385.28 341.91 386.46 338.79 391.75 C 334.34 398.72 337.05 408.53 343.70 413.10 C 341.73 413.43 339.20 413.56 338.55 415.88 C 338.29 420.48 341.87 423.97 343.95 427.75 C 335.62 422.88 325.89 420.06 318.89 413.16 C 315.10 409.62 313.13 404.73 310.98 400.13 C 306.54 390.36 302.84 380.25 299.79 369.95 C 296.97 359.88 294.55 349.43 295.47 338.90 C 296.12 333.90 298.54 329.33 301.04 325.03 C 308.64 312.68 319.18 302.56 329.54 292.57 C 339.32 283.66 349.03 274.67 359.21 266.22 C 377.87 250.77 398.94 236.82 423.10 232.15 C 425.83 228.30 429.14 224.88 433.13 222.33 C 452.11 209.82 475.22 203.62 491.59 187.25 C 488.22 199.09 478.97 208.08 474.79 219.57 C 474.17 221.42 473.62 223.35 473.76 225.32 C 475.95 227.28 479.33 226.21 482.03 226.48 C 500.47 225.38 517.12 216.33 532.86 207.40 C 519.04 222.98 507.54 240.54 498.04 259.05 C 496.71 261.67 495.01 265.14 497.15 267.81 C 499.45 270.85 502.82 274.00 506.96 273.42 C 516.79 272.88 526.43 270.63 536.08 268.79 C 553.24 265.44 570.65 262.18 588.19 262.79 C 588.45 263.09 588.97 263.69 589.23 263.99 C 581.00 266.15 573.56 270.60 567.00 275.93 C 554.57 286.02 545.57 299.51 537.21 312.99 C 541.85 323.17 549.06 332.40 558.66 338.32 C 566.91 343.56 576.46 346.10 585.82 348.55 L 585.72 350.16 C 561.13 351.40 537.84 364.38 522.22 383.17 C 518.16 388.49 513.81 394.14 512.87 400.97 C 510.65 418.89 512.17 436.97 511.43 454.97 C 511.39 460.29 509.89 465.53 510.40 470.87 C 510.17 470.28 509.96 469.69 509.75 469.12 C 509.56 473.45 508.73 477.71 508.23 482.02 C 505.45 502.22 503.24 522.56 503.62 542.98 C 507.52 541.89 510.89 539.57 514.42 537.66 C 542.78 521.48 566.86 498.09 584.33 470.55 C 607.46 434.29 619.05 390.90 617.54 347.95 C 616.34 305.91 602.54 264.20 577.99 230.00 C 557.33 200.90 528.75 177.45 496.06 163.09 C 466.86 150.18 434.37 145.18 402.63 148.11 M 194.05 342.14 C 182.87 380.66 179.18 421.02 180.50 461.01 C 182.75 519.31 197.22 577.80 226.76 628.42 C 243.46 657.22 265.21 682.95 290.37 704.70 C 294.19 700.47 297.60 695.86 301.90 692.07 C 299.01 667.86 297.05 643.31 299.71 618.99 C 300.14 615.41 300.79 611.85 300.72 608.23 C 300.89 608.74 301.06 609.26 301.24 609.79 C 302.36 598.00 305.54 586.49 308.69 575.11 C 310.19 569.45 312.67 564.08 313.91 558.35 C 293.75 546.57 275.70 531.28 260.30 513.76 C 232.25 481.86 213.44 442.09 205.91 400.34 C 201.65 376.47 201.09 351.97 203.75 327.89 C 204.25 322.53 205.65 317.25 205.58 311.84 C 201.01 321.64 197.04 331.74 194.05 342.14 M 635.43 311.91 C 635.44 318.70 637.33 325.32 637.67 332.09 C 639.66 348.01 638.31 364.07 638.55 380.04 C 638.26 378.69 638.79 376.11 636.72 376.43 L 637.92 377.84 C 634.17 426.26 614.87 473.40 583.51 510.50 C 562.31 535.76 535.41 556.17 505.35 569.75 C 508.48 600.15 516.76 629.88 527.84 658.31 C 534.53 671.90 544.31 683.65 552.76 696.15 C 553.79 697.35 554.44 699.19 556.01 699.79 C 593.86 666.26 622.17 622.50 639.04 574.93 C 651.76 539.69 658.42 502.40 660.41 465.05 C 661.53 433.21 659.99 401.19 653.65 369.92 C 649.78 349.99 644.25 330.26 635.43 311.91 Z"/>
  </g>
</svg>
