<?xml version="1.0" encoding="UTF-8"?>
<svg xmlns="http://www.w3.org/2000/svg" width="893pt" height="894pt" viewBox="0 0 893 894" version="1.1">
  <g>
    <path stroke="#000000" stroke-width="0.09375" d=" M 445.85 3.76 C 446.15 4.06 446.75 4.66 447.05 4.96 C 456.23 84.73 465.35 164.53 474.66 244.30 C 485.16 236.95 494.34 227.82 504.95 220.61 C 510.52 234.37 516.29 248.04 521.91 261.78 C 535.38 255.46 548.59 248.59 562.12 242.39 C 563.88 257.55 567.15 272.50 568.82 287.67 C 569.33 287.68 570.33 287.70 570.83 287.72 C 610.93 261.07 651.17 234.60 691.40 208.15 C 666.15 243.99 640.54 279.57 615.14 315.30 C 612.88 318.53 610.24 321.55 608.72 325.24 C 618.50 325.28 628.20 326.51 637.98 326.64 C 641.30 326.76 644.60 327.26 647.92 327.54 C 641.68 341.51 635.65 355.57 629.29 369.49 C 643.48 374.54 657.80 379.22 672.09 383.98 C 663.72 395.20 654.18 405.53 645.43 416.47 C 690.00 422.20 734.64 427.47 779.24 433.01 C 816.56 437.75 853.97 441.90 891.25 447.00 C 848.22 452.46 805.07 456.97 762.01 462.12 C 736.43 465.01 710.86 468.02 685.28 470.95 C 678.81 471.64 672.36 472.65 665.85 472.88 C 667.47 473.06 669.13 473.10 670.72 473.56 C 663.40 473.07 656.09 474.15 648.89 475.39 C 656.98 485.31 665.05 495.24 673.05 505.23 C 659.38 511.04 645.64 516.68 631.88 522.29 C 637.60 535.94 644.80 548.93 650.97 562.38 C 634.95 565.38 618.87 568.13 602.79 570.84 C 604.15 574.14 606.04 577.17 607.92 580.19 C 630.15 617.29 652.41 654.39 674.64 691.50 C 677.68 696.70 680.99 701.76 683.72 707.14 C 656.02 684.22 628.33 661.27 600.65 638.31 C 590.64 630.19 581.02 621.57 570.75 613.79 C 569.23 625.25 567.58 636.70 566.24 648.18 C 561.47 646.92 557.14 644.50 552.61 642.61 C 542.99 638.45 533.51 633.97 523.80 630.02 C 518.91 644.32 514.26 658.71 509.25 672.97 C 498.47 663.95 487.82 654.77 476.84 646.03 C 469.21 709.70 461.22 773.34 453.48 837.01 C 451.43 854.76 448.85 872.45 447.14 890.24 C 446.84 889.93 446.25 889.33 445.96 889.03 C 436.74 809.26 427.69 729.45 418.34 649.69 C 407.85 657.06 398.66 666.18 388.06 673.39 C 382.46 659.63 376.72 645.95 371.09 632.21 C 361.16 636.90 351.36 641.84 341.47 646.60 C 337.99 648.23 334.66 650.33 330.82 651.03 C 329.20 639.89 326.85 628.87 325.12 617.75 C 323.77 618.48 322.41 619.23 321.20 620.18 C 290.88 644.94 260.46 669.59 230.05 694.25 C 215.06 706.27 200.36 718.66 185.18 730.43 C 218.67 679.15 252.17 627.87 285.73 576.63 C 287.46 574.15 289.08 571.59 290.20 568.77 C 278.76 568.73 267.40 567.45 255.97 567.35 C 252.32 567.22 248.71 566.69 245.08 566.48 C 251.30 552.51 257.34 538.45 263.71 524.55 C 249.54 519.43 235.19 514.80 220.91 510.02 C 229.29 498.80 238.82 488.46 247.57 477.52 C 175.64 468.42 103.64 459.85 31.69 450.87 C 23.51 450.10 15.41 448.61 7.20 448.18 C 7.23 447.39 7.25 446.60 7.28 445.82 C 20.56 445.03 33.73 442.95 46.97 441.58 C 100.68 435.41 154.38 429.21 208.09 423.02 C 220.09 421.49 232.19 420.55 244.12 418.58 C 235.98 408.71 227.98 398.73 219.94 388.79 C 233.59 383.02 247.24 377.25 261.03 371.84 C 259.90 367.67 257.63 363.97 255.83 360.08 C 251.30 350.56 246.49 341.17 242.04 331.61 C 255.49 330.02 268.91 327.87 282.44 327.13 C 282.51 326.69 282.65 325.82 282.72 325.38 C 260.27 295.07 238.09 264.57 215.79 234.15 C 206.94 221.87 197.74 209.84 189.12 197.40 C 231.65 226.72 274.08 256.20 316.56 285.60 C 319.32 287.44 321.85 289.78 325.08 290.75 C 325.02 275.79 326.48 260.90 326.70 245.95 C 331.14 246.82 335.08 249.16 339.22 250.88 C 349.23 255.20 359.10 259.85 369.19 263.99 C 373.93 249.89 378.75 235.82 383.39 221.68 C 384.43 222.21 385.51 222.70 386.46 223.40 C 396.45 231.48 406.03 240.08 416.19 247.95 C 419.17 221.61 422.65 195.33 425.77 169.01 C 426.45 162.67 427.65 156.38 427.75 150.00 C 427.90 150.63 428.06 151.26 428.21 151.89 C 428.31 146.52 429.23 141.23 429.86 135.91 C 433.82 103.25 437.89 70.59 441.86 37.92 C 443.14 26.53 444.91 15.19 445.85 3.76 M 305.97 332.99 C 274.59 371.30 260.21 422.88 267.27 471.90 C 272.38 509.56 289.81 545.45 316.33 572.68 C 338.96 596.33 368.22 613.54 399.86 621.92 C 421.35 627.86 443.93 629.02 466.06 626.98 C 505.39 622.79 543.21 605.24 571.63 577.71 C 599.54 551.20 618.48 515.49 624.86 477.54 C 627.57 462.80 627.66 447.78 627.28 432.85 C 627.07 434.23 626.88 435.62 626.70 437.02 C 627.07 427.86 625.32 418.80 623.60 409.86 C 614.57 365.76 588.19 325.58 551.47 299.60 C 520.71 277.59 482.87 265.41 445.00 266.17 C 391.69 265.88 339.31 291.56 305.97 332.99 Z"/>
    <path stroke="#000000" stroke-width="0.09375" d=" M 438.35 285.42 C 475.31 283.37 512.72 294.68 542.46 316.67 C 569.51 336.62 590.20 365.11 600.43 397.15 C 613.12 435.87 610.29 479.29 592.85 516.09 C 577.11 549.58 549.51 577.34 516.05 593.15 C 480.01 610.49 437.44 613.51 399.24 601.81 C 366.83 592.03 337.84 571.64 317.45 544.65 C 298.12 519.22 286.69 487.93 284.99 456.04 C 283.43 430.15 288.43 403.91 299.07 380.28 C 310.01 355.94 327.20 334.51 348.37 318.30 C 374.15 298.64 405.93 286.84 438.35 285.42 Z"/>
  </g>
</svg>
