<?xml version="1.0" encoding="UTF-8"?>
<svg xmlns="http://www.w3.org/2000/svg" width="900pt" height="623pt" viewBox="0 0 900 623" version="1.1">
  <g>
    <path stroke="#000000" stroke-width="0.09375" d=" M 358.97 0.00 L 359.13 0.00 C 374.92 8.88 389.68 19.72 402.54 32.50 C 415.77 45.74 427.55 61.99 430.04 81.01 C 431.79 92.86 428.10 104.88 421.73 114.83 C 411.53 130.96 397.22 144.02 386.97 160.13 C 377.59 174.48 371.81 191.79 373.57 209.06 C 375.67 220.80 381.57 231.43 387.54 241.60 C 404.67 240.40 421.85 239.99 439.02 239.79 C 441.07 239.51 442.44 241.38 442.99 243.12 C 444.80 248.21 445.13 253.68 445.52 259.03 C 447.04 296.75 442.93 334.35 441.20 371.98 C 441.86 395.19 443.22 418.38 444.01 441.58 C 444.62 461.70 445.89 481.80 445.70 501.94 C 445.56 512.19 444.80 522.64 441.20 532.34 C 438.58 539.56 434.51 546.13 430.44 552.61 C 427.84 552.71 425.24 552.66 422.65 552.44 C 424.57 548.20 427.11 543.83 426.39 538.98 C 426.09 535.20 423.21 531.69 419.29 531.42 C 419.59 539.75 414.75 547.46 408.98 553.09 C 404.49 539.09 401.33 523.95 391.49 512.48 C 387.10 507.11 381.09 503.27 374.46 501.28 C 371.45 507.18 369.07 513.40 365.58 519.06 C 367.67 524.13 369.49 529.46 369.44 535.03 C 369.48 543.75 365.80 552.00 361.06 559.16 C 359.65 554.50 357.85 549.31 353.35 546.78 C 349.45 544.66 344.88 546.26 341.36 548.38 C 333.65 553.18 327.95 560.50 322.94 567.93 C 319.43 573.55 315.87 579.42 314.64 586.01 C 314.22 593.75 318.90 600.61 323.72 606.23 C 329.90 613.53 338.08 618.62 346.45 623.00 L 336.40 623.00 C 318.25 622.79 300.21 618.80 283.48 611.81 C 272.08 606.96 261.00 600.87 251.98 592.27 C 233.79 597.19 214.93 600.45 196.02 599.47 C 189.46 599.04 182.83 597.95 176.82 595.16 C 191.15 589.58 203.95 580.59 215.03 570.02 C 229.72 555.99 241.72 539.37 251.81 521.79 C 258.33 510.16 264.39 498.17 268.63 485.50 C 270.31 481.12 269.30 475.53 265.04 473.03 C 258.52 469.12 250.38 470.80 243.85 473.80 C 239.25 454.02 232.71 433.66 218.68 418.42 C 211.87 410.98 202.87 405.40 192.91 403.44 C 187.69 402.28 182.33 402.42 177.03 402.58 C 164.01 403.09 150.89 405.46 139.06 411.10 C 128.18 416.10 118.96 423.94 108.39 429.47 C 99.37 434.22 89.18 436.63 79.00 436.68 C 51.32 437.01 22.23 431.18 0.00 413.80 L 0.00 413.73 C 8.70 413.68 17.44 413.08 25.95 411.19 C 39.01 408.49 51.37 402.29 61.00 393.02 C 72.85 381.74 81.02 367.39 89.91 353.82 C 99.75 338.44 110.73 323.60 124.30 311.28 C 136.71 299.81 150.96 290.38 166.12 282.94 C 160.18 265.25 158.35 246.55 157.56 228.01 C 157.09 209.49 157.12 190.81 160.39 172.51 C 158.55 172.71 156.65 172.97 155.15 174.14 C 149.74 177.86 145.80 183.25 142.14 188.61 C 130.77 188.81 121.94 198.18 116.99 207.63 C 121.22 177.22 134.25 147.17 157.26 126.29 C 171.06 113.35 187.79 104.24 204.26 95.22 C 214.41 89.46 225.01 83.71 232.56 74.58 C 235.79 70.79 237.92 66.23 239.33 61.49 C 239.09 77.13 236.83 93.02 230.52 107.45 C 225.73 118.57 218.31 128.80 216.67 141.08 C 213.66 161.67 219.68 182.55 228.96 200.82 C 238.00 218.25 250.21 234.16 265.30 246.79 C 268.15 248.91 270.81 251.50 274.15 252.82 C 283.02 252.31 291.81 250.68 300.68 250.08 C 294.52 228.66 289.66 206.87 285.74 184.92 C 283.74 175.71 285.50 166.00 289.32 157.49 C 294.01 147.20 302.06 138.96 310.50 131.66 C 322.89 121.21 336.60 112.44 348.91 101.88 C 356.35 95.34 363.43 88.17 368.47 79.57 C 376.64 66.00 378.96 48.98 374.40 33.78 C 371.07 21.76 364.45 11.09 358.97 0.00 M 283.27 347.31 C 287.58 355.44 293.92 364.20 290.75 373.89 C 302.90 380.89 310.08 393.42 316.88 405.18 C 322.93 416.54 335.53 422.08 347.22 425.79 C 351.95 426.95 357.58 429.06 362.01 425.97 C 367.45 421.88 368.71 414.73 372.53 409.43 C 374.90 406.17 378.66 404.49 382.29 403.04 C 384.16 397.57 385.70 391.99 387.77 386.58 C 376.60 378.67 365.02 371.28 352.76 365.16 C 331.26 354.39 307.53 346.82 283.27 347.31 Z"/>
    <path stroke="#000000" stroke-width="0.09375" d=" M 540.61 0.00 L 540.90 0.00 C 534.48 13.24 526.31 26.02 523.94 40.81 C 521.49 56.01 525.52 72.00 534.62 84.39 C 545.55 99.51 561.27 110.04 575.99 121.10 C 586.92 129.28 597.94 137.85 605.85 149.13 C 611.76 157.52 615.14 167.70 615.08 177.98 C 614.73 183.18 613.60 188.29 612.69 193.41 C 608.94 212.46 604.68 231.42 599.27 250.07 C 607.53 250.73 615.73 251.95 623.97 252.78 C 626.37 253.35 628.26 251.54 630.08 250.30 C 644.08 239.96 655.53 226.45 664.77 211.77 C 676.29 193.30 684.31 171.99 684.12 149.99 C 683.90 140.81 681.71 131.70 677.42 123.56 C 673.17 115.21 668.56 106.95 665.88 97.91 C 662.28 86.12 660.77 73.74 660.64 61.44 C 663.46 72.73 672.49 81.01 681.95 87.07 C 696.91 96.65 713.25 103.95 727.74 114.29 C 742.99 124.82 756.17 138.51 765.33 154.67 C 774.57 170.97 780.39 189.15 783.00 207.68 C 778.01 198.17 769.16 188.81 757.73 188.56 C 754.16 183.16 750.14 177.84 744.76 174.11 C 743.27 172.96 741.37 172.72 739.58 172.50 C 743.53 196.09 743.18 220.22 741.39 244.01 C 740.12 257.14 738.34 270.41 733.62 282.81 C 748.86 290.31 763.21 299.75 775.68 311.32 C 789.47 323.83 800.57 338.95 810.54 354.59 C 820.13 369.28 829.03 384.95 842.70 396.33 C 858.45 409.74 879.82 413.89 900.00 413.72 L 900.00 413.74 C 883.50 426.81 862.73 433.34 842.03 435.65 C 827.78 437.07 812.84 437.94 799.19 432.83 C 787.33 428.59 777.67 420.26 766.81 414.16 C 750.62 404.78 731.48 401.88 713.00 402.61 C 700.10 403.39 688.16 410.22 679.87 419.95 C 666.82 435.09 660.53 454.65 656.11 473.80 C 649.41 470.72 640.86 468.99 634.36 473.42 C 630.35 476.13 629.79 481.62 631.43 485.86 C 635.87 498.84 642.10 511.14 648.86 523.05 C 658.70 539.96 670.31 555.99 684.46 569.56 C 695.09 579.84 707.35 588.59 721.03 594.31 C 722.69 594.46 721.75 596.38 720.58 596.29 C 708.53 600.48 695.46 600.00 682.93 598.92 C 671.06 597.81 659.35 595.42 647.89 592.15 C 637.98 602.06 625.11 608.37 612.23 613.51 C 596.73 619.42 580.21 622.81 563.60 623.00 L 552.83 623.00 C 564.09 618.15 574.22 610.29 580.97 599.98 C 584.02 595.04 586.68 588.92 584.66 583.09 C 582.42 576.37 578.71 570.23 574.64 564.47 C 569.98 558.16 564.79 551.96 557.91 547.98 C 554.55 546.09 550.28 544.80 546.66 546.76 C 542.13 549.26 540.30 554.48 538.89 559.14 C 534.48 552.51 531.01 544.97 530.57 536.93 C 530.13 530.74 531.99 524.70 534.38 519.07 C 531.04 513.42 528.32 507.45 525.79 501.41 C 518.92 502.96 512.93 507.15 508.45 512.49 C 498.63 523.96 495.45 539.08 491.00 553.08 C 485.20 547.48 480.33 539.74 480.68 531.42 C 477.52 531.68 474.86 533.94 474.01 536.99 C 472.29 542.38 474.84 547.83 477.58 552.40 C 474.89 552.65 472.20 552.73 469.52 552.62 C 464.82 545.16 460.15 537.53 457.63 529.01 C 453.94 516.71 454.19 503.71 454.27 491.00 C 455.01 461.65 456.35 432.33 457.53 403.00 C 457.88 390.34 459.31 377.68 458.51 365.01 C 456.36 329.73 453.12 294.42 454.44 259.04 C 454.91 253.15 455.07 246.95 457.71 241.54 C 458.87 239.17 461.81 239.86 463.93 239.77 C 480.18 240.07 496.43 240.57 512.66 241.49 C 518.28 231.19 524.37 220.77 526.38 209.05 C 527.90 194.23 523.84 179.23 516.67 166.31 C 507.25 149.09 492.74 135.52 481.42 119.66 C 474.43 109.90 469.08 98.33 469.53 86.09 C 469.98 69.24 478.67 53.86 489.31 41.28 C 503.63 24.45 521.59 11.08 540.61 0.00 M 564.32 357.51 C 545.70 364.73 528.44 375.03 512.19 386.57 C 514.18 391.85 515.72 397.29 517.52 402.62 C 519.41 404.20 522.04 404.66 524.02 406.15 C 531.17 411.09 531.18 421.56 538.52 426.34 C 543.43 429.04 549.17 426.64 554.17 425.35 C 564.90 421.71 576.40 416.60 582.36 406.38 C 589.39 394.33 596.53 381.31 608.96 374.02 C 608.49 370.36 607.94 366.55 609.09 362.94 C 610.73 357.34 614.06 352.46 616.67 347.30 C 598.74 346.89 580.97 351.08 564.32 357.51 Z"/>
  </g>
</svg>
