<?xml version="1.0" encoding="UTF-8"?>
<svg xmlns="http://www.w3.org/2000/svg" width="897pt" height="890pt" viewBox="0 0 897 890" version="1.1">
  <g>
    <path stroke="#000000" stroke-width="0.09375" d=" M 447.45 0.00 L 447.92 0.00 C 464.04 27.35 479.54 55.07 495.45 82.56 C 497.57 86.59 500.34 90.30 501.96 94.60 C 478.19 90.74 454.03 89.77 429.99 90.75 C 424.30 91.37 418.58 91.67 412.86 91.84 C 412.71 91.96 412.41 92.22 412.25 92.34 C 406.23 92.72 400.29 93.82 394.30 94.53 C 411.61 64.48 428.78 34.35 446.10 4.30 C 446.52 2.93 448.47 1.45 447.45 0.00 Z"/>
    <path stroke="#000000" stroke-width="0.09375" d=" M 308.30 22.97 C 309.94 23.83 311.33 25.06 312.72 26.27 C 332.15 42.87 351.60 59.44 371.03 76.04 C 378.22 82.39 385.86 88.26 392.77 94.91 C 355.98 100.66 320.22 112.71 287.22 129.94 C 287.32 128.66 287.46 127.38 287.65 126.11 C 294.61 91.75 301.41 57.35 308.30 22.97 Z"/>
    <path stroke="#000000" stroke-width="0.09375" d=" M 582.52 27.47 C 584.40 25.91 586.03 23.92 588.39 23.08 C 595.37 58.69 602.72 94.23 609.61 129.86 C 598.09 124.34 586.65 118.49 574.56 114.29 C 574.52 114.15 574.44 113.86 574.40 113.72 C 551.77 105.62 528.60 98.64 504.76 95.11 C 504.69 94.84 504.55 94.31 504.48 94.04 C 530.51 71.87 556.50 49.65 582.52 27.47 Z"/>
    <path stroke="#000000" stroke-width="0.09375" d=" M 184.52 87.32 C 217.78 101.43 250.89 115.90 284.17 129.95 C 284.34 130.30 284.69 131.00 284.87 131.34 C 239.07 155.31 199.03 189.91 167.65 230.90 C 126.35 284.72 100.33 350.03 93.03 417.45 C 90.95 438.18 89.70 459.12 91.27 479.95 C 91.11 487.98 92.70 495.89 92.70 503.92 C 62.25 486.10 31.82 468.25 1.34 450.49 C 1.30 450.13 1.22 449.40 1.18 449.03 C 30.73 431.57 60.33 414.17 89.89 396.73 C 91.66 395.59 93.83 394.86 95.03 393.03 C 76.11 371.60 57.17 350.19 38.23 328.78 C 33.42 323.04 28.03 317.77 23.57 311.77 C 57.15 304.39 90.80 297.32 124.40 290.05 C 126.11 289.67 127.85 289.37 129.59 289.15 C 130.13 286.47 128.35 284.19 127.39 281.84 C 114.05 252.20 100.74 222.54 87.40 192.90 C 86.39 190.85 85.48 188.76 84.86 186.56 C 122.02 189.63 159.22 192.81 196.36 196.38 C 192.28 160.04 188.40 123.68 184.52 87.32 Z"/>
    <path stroke="#000000" stroke-width="0.09375" d=" M 709.97 88.16 C 710.75 87.88 711.56 87.64 712.40 87.46 C 710.73 97.22 710.20 107.19 708.92 117.02 C 706.77 136.68 704.74 156.35 702.49 176.00 C 702.12 182.80 700.65 189.53 700.55 196.34 C 737.63 192.92 774.74 189.55 811.86 186.39 C 807.60 197.41 802.24 208.00 797.56 218.85 C 787.62 240.96 777.68 263.06 767.74 285.17 C 766.98 286.38 766.83 288.47 765.09 288.67 C 733.20 224.65 681.72 170.53 619.42 135.37 C 616.79 133.85 614.11 132.44 611.37 131.13 C 611.51 130.85 611.79 130.29 611.93 130.01 C 623.83 125.48 635.38 120.06 647.14 115.16 C 668.09 106.18 689.04 97.19 709.97 88.16 Z"/>
    <path stroke="#000000" stroke-width="0.09375" d=" M 383.25 127.36 C 391.61 125.40 399.82 122.52 408.33 121.30 C 421.27 143.30 434.98 164.84 447.97 186.81 C 450.36 184.71 451.53 181.65 453.26 179.05 C 464.94 159.82 476.76 140.68 488.32 121.38 C 490.15 121.46 491.98 121.55 493.83 121.64 C 493.27 121.84 492.72 122.05 492.17 122.26 C 499.56 123.40 506.69 125.79 513.94 127.59 C 503.26 148.28 492.05 168.71 481.21 189.32 C 476.44 198.53 471.15 207.51 466.75 216.89 C 467.59 227.52 467.26 238.26 468.29 248.90 C 468.59 256.26 468.35 263.64 469.21 270.97 C 469.65 279.31 469.41 287.68 470.01 296.02 C 470.68 301.65 470.42 307.34 470.74 313.00 C 471.86 323.60 471.31 334.30 472.04 344.93 C 472.73 344.17 473.47 343.45 474.06 342.61 C 494.48 308.87 514.98 275.17 535.48 241.47 C 536.60 239.37 538.52 237.47 538.57 234.96 C 538.88 216.31 538.37 197.64 539.22 179.01 C 539.24 163.72 539.27 148.43 539.40 133.14 C 548.06 135.94 556.67 138.89 565.26 141.88 C 566.84 168.59 568.66 195.29 570.53 221.99 C 593.84 209.05 616.88 195.60 640.05 182.40 C 646.88 188.45 653.94 194.23 660.81 200.22 C 632.43 219.76 603.81 238.95 575.36 258.39 C 572.80 260.09 572.03 263.24 570.63 265.80 C 559.18 289.04 547.79 312.31 536.31 335.53 C 530.31 348.03 523.82 360.29 518.18 372.94 C 553.60 352.18 588.91 331.21 624.31 310.40 C 626.76 308.91 629.70 307.75 631.05 305.01 C 642.65 285.26 654.32 265.56 665.94 245.82 C 671.63 236.58 676.60 226.87 682.77 217.94 C 688.22 224.71 694.22 231.02 699.62 237.84 C 687.21 261.96 674.78 286.10 662.81 310.45 C 690.22 310.53 717.63 310.36 745.04 310.29 C 747.95 316.88 750.32 323.70 753.19 330.31 C 754.06 332.17 754.56 334.16 754.80 336.20 C 746.50 336.31 738.27 337.45 729.98 337.72 C 704.67 339.85 679.32 341.41 654.01 343.41 C 651.66 343.28 649.93 344.97 648.13 346.18 C 614.80 369.78 581.29 393.13 547.87 416.58 C 557.91 416.73 567.96 416.43 578.00 416.27 C 585.99 415.42 594.03 415.69 602.05 415.46 C 615.99 414.26 630.01 414.84 643.98 414.17 C 653.97 413.21 664.03 413.74 674.04 413.18 C 677.47 412.52 680.17 410.02 683.15 408.34 C 710.22 391.63 737.09 374.57 764.28 358.06 C 766.17 367.24 768.07 376.42 769.69 385.66 C 747.58 401.74 725.13 417.37 703.19 433.67 C 726.54 445.79 750.17 457.39 773.35 469.82 C 773.22 479.07 773.42 488.33 773.24 497.58 C 753.83 489.84 734.86 480.94 714.99 474.39 C 692.97 467.11 670.25 461.00 646.97 460.10 C 639.64 459.04 632.30 460.19 624.98 460.60 C 599.56 463.12 574.36 470.80 552.85 484.80 C 536.82 495.22 523.17 509.42 513.84 526.15 C 505.33 541.22 500.26 558.07 497.91 575.17 C 493.35 609.72 498.93 645.21 511.60 677.54 C 523.91 708.82 545.54 736.90 574.57 754.31 C 604.28 772.25 639.56 779.25 673.98 778.65 C 682.32 778.37 690.76 778.92 699.02 777.44 C 698.80 778.03 698.38 779.20 698.17 779.79 C 692.18 786.68 685.72 793.18 679.00 799.36 C 650.32 801.11 621.63 795.86 594.54 786.64 C 588.80 785.01 583.29 782.17 577.21 782.16 C 577.11 785.34 578.15 788.41 580.18 790.87 C 585.48 797.57 592.36 802.81 599.31 807.69 C 612.22 816.56 625.91 824.29 640.15 830.79 C 635.32 833.91 630.67 837.35 625.65 840.14 C 621.88 839.91 618.32 838.30 614.80 837.04 C 596.53 829.34 581.47 816.08 566.16 803.83 C 561.63 800.33 557.24 796.48 551.98 794.12 C 550.69 793.55 548.42 793.12 548.19 795.08 C 548.08 798.69 550.90 801.47 552.64 804.40 C 564.08 820.45 577.02 835.36 589.70 850.43 C 591.39 852.61 593.69 854.40 594.79 856.98 C 589.57 859.83 583.91 861.79 578.60 864.47 C 570.59 857.08 566.31 846.18 557.15 839.90 C 554.47 837.90 550.54 837.65 547.77 839.60 C 543.24 842.44 541.37 847.91 540.64 852.94 C 539.78 861.01 540.41 869.15 541.64 877.15 C 531.39 879.96 521.04 882.39 510.60 884.34 C 509.12 884.58 507.47 884.84 506.25 883.77 C 497.98 877.98 493.17 868.81 486.24 861.70 C 483.45 858.97 479.53 856.15 475.44 857.55 C 472.77 860.33 471.37 864.05 469.81 867.52 C 466.92 874.86 464.29 882.35 462.32 890.00 L 447.22 890.00 C 442.81 889.86 438.38 890.01 433.99 889.47 C 432.72 883.21 430.39 877.24 428.30 871.23 C 426.50 866.76 424.85 862.10 421.84 858.29 C 420.53 856.48 417.91 857.23 416.11 857.69 C 412.20 859.34 409.25 862.58 406.67 865.84 C 401.31 872.55 396.47 879.97 389.11 884.72 C 378.53 883.22 368.15 880.58 357.81 877.95 C 356.94 877.46 354.76 877.64 355.26 876.08 C 356.25 866.63 357.76 856.78 354.70 847.54 C 353.27 843.45 350.33 839.29 345.85 838.37 C 341.64 837.53 338.19 840.58 335.44 843.32 C 328.85 849.66 324.68 858.01 318.26 864.48 C 312.74 861.95 307.08 859.73 301.70 856.91 C 309.48 847.00 317.98 837.67 325.86 827.84 C 333.44 818.29 341.50 809.01 347.71 798.48 C 348.70 797.06 349.43 793.63 346.86 793.67 C 343.52 793.95 340.78 796.26 338.05 798.02 C 327.90 805.48 318.52 813.94 308.31 821.34 C 297.03 829.56 284.90 837.44 271.03 840.32 C 266.22 837.19 261.34 834.18 256.67 830.84 C 273.74 822.56 290.55 813.39 305.49 801.61 C 311.51 796.49 319.12 790.88 319.62 782.30 C 317.05 782.24 314.46 782.45 312.04 783.37 C 299.80 787.42 287.57 791.59 274.95 794.33 C 256.22 798.70 236.93 800.33 217.72 799.45 C 210.25 792.50 203.09 785.20 196.28 777.61 C 202.21 777.48 208.07 778.72 214.00 778.54 C 237.10 779.28 260.43 777.48 282.74 771.21 C 312.37 763.07 339.68 746.06 359.06 722.09 C 384.32 691.14 396.80 651.42 399.95 612.01 C 401.05 600.94 400.05 589.83 399.20 578.78 C 396.92 559.80 391.55 540.99 381.81 524.45 C 372.80 508.97 360.13 495.71 345.25 485.78 C 319.86 468.82 289.27 460.69 258.95 459.69 C 230.17 459.69 201.98 467.15 175.03 476.71 C 157.54 482.84 140.70 490.61 123.56 497.62 C 123.36 488.31 123.60 478.99 123.43 469.68 C 146.46 457.60 169.61 445.73 192.88 434.12 C 192.68 433.38 192.31 432.76 191.78 432.25 C 170.33 416.70 148.58 401.52 127.32 385.74 C 127.20 380.11 129.63 374.80 129.70 369.18 C 129.91 369.70 130.11 370.23 130.32 370.76 C 130.46 366.43 131.32 362.14 132.61 358.01 C 161.60 376.15 190.69 394.12 219.69 412.23 C 220.69 412.83 221.80 413.29 223.00 413.27 C 231.00 413.55 239.02 413.27 246.99 414.10 C 256.96 414.55 266.97 414.13 276.92 415.11 C 288.28 415.50 299.68 415.17 311.02 416.17 C 323.66 416.31 336.31 416.72 348.95 416.60 C 314.40 392.67 280.07 368.41 245.68 344.25 C 242.39 342.78 238.54 343.36 235.02 342.76 C 208.02 341.14 181.09 338.42 154.07 337.20 C 155.94 337.00 157.83 336.87 159.66 336.41 C 153.54 336.22 147.20 337.42 141.23 335.50 C 145.00 327.33 147.91 318.79 151.41 310.52 C 152.59 310.36 153.77 310.28 154.96 310.30 C 181.25 310.40 207.54 310.46 233.82 310.50 C 232.24 306.49 230.04 302.79 228.15 298.93 C 218.69 280.39 209.37 261.78 199.86 243.27 C 198.98 241.35 197.58 239.56 197.33 237.42 C 199.97 233.74 203.30 230.61 206.11 227.05 C 208.93 224.10 211.14 220.58 214.32 217.98 C 230.73 246.07 247.39 274.02 263.85 302.09 C 265.23 304.29 266.23 307.01 268.69 308.27 C 302.10 327.91 335.45 347.66 368.85 367.33 C 372.12 369.19 375.21 371.41 378.72 372.82 C 360.31 335.73 342.13 298.52 323.81 261.38 C 322.72 258.84 320.10 257.64 317.98 256.12 C 291.29 238.07 264.71 219.87 238.00 201.86 C 237.27 201.24 235.86 200.78 236.50 199.58 C 242.07 194.80 247.73 190.10 253.26 185.25 C 254.54 184.38 255.76 182.65 257.53 183.23 C 259.93 184.11 262.05 185.59 264.28 186.83 C 282.23 197.11 300.20 207.36 318.16 217.63 C 320.78 219.18 323.41 220.77 326.24 221.94 C 327.81 195.19 329.59 168.45 331.57 141.73 C 340.21 139.02 348.64 135.64 357.37 133.27 C 357.52 166.53 357.69 199.80 357.79 233.06 C 357.65 235.52 358.75 237.77 360.07 239.76 C 381.57 274.81 402.67 310.11 424.24 345.12 C 425.20 326.74 426.24 308.37 426.71 289.96 C 427.78 280.66 427.03 271.25 428.12 261.95 C 428.61 251.96 428.31 241.94 429.34 231.99 C 429.22 226.50 430.13 220.92 429.32 215.50 C 414.88 188.13 400.25 160.85 385.70 133.53 C 384.77 131.54 383.11 129.68 383.25 127.36 M 387.66 790.88 C 379.41 794.71 371.87 800.16 365.82 806.97 C 363.48 809.58 361.53 812.80 361.60 816.43 C 363.29 816.78 364.49 815.32 365.85 814.62 C 374.88 808.94 384.20 803.72 393.42 798.35 C 394.59 795.52 394.73 792.44 394.69 789.42 C 392.27 789.42 389.85 789.78 387.66 790.88 M 501.93 789.86 C 501.73 792.62 502.19 796.01 503.55 798.51 C 513.93 804.57 524.36 810.59 534.61 816.88 C 535.62 810.78 530.39 806.38 526.52 802.53 C 519.93 796.91 512.62 791.38 504.01 789.46 C 503.49 789.56 502.45 789.76 501.93 789.86 M 446.42 797.45 C 441.36 805.57 437.82 814.55 434.82 823.60 C 433.69 827.15 435.59 830.59 436.68 833.87 C 439.81 841.76 443.27 849.56 447.75 856.79 C 449.66 856.18 450.43 854.19 451.37 852.61 C 454.93 845.97 457.97 839.05 460.66 832.00 C 462.14 828.45 462.24 824.37 460.88 820.77 C 458.01 812.71 454.73 804.74 450.27 797.42 C 449.58 795.74 447.04 795.67 446.42 797.45 M 390.00 825.00 C 384.54 829.55 378.33 834.83 377.79 842.45 C 377.48 849.42 374.93 857.26 378.79 863.65 C 384.67 862.23 387.81 856.55 391.13 852.03 C 398.10 841.59 403.69 830.31 408.98 818.95 C 409.51 817.82 409.59 816.55 409.82 815.36 C 402.31 816.09 395.80 820.49 390.00 825.00 M 486.32 815.47 C 491.26 827.65 497.44 839.36 504.46 850.48 C 507.89 855.50 511.34 861.16 517.16 863.69 C 517.95 862.82 519.39 862.28 519.35 860.91 C 519.90 856.28 519.60 851.61 519.40 846.98 C 519.01 842.29 518.48 837.26 515.33 833.51 C 510.64 827.85 504.86 823.12 498.52 819.43 C 494.78 817.31 490.71 815.41 486.32 815.47 Z"/>
    <path stroke="#000000" stroke-width="0.09375" d=" M 765.35 288.65 C 801.24 296.13 837.03 304.11 872.92 311.61 C 871.77 314.34 869.36 316.22 867.52 318.45 C 848.44 340.02 829.38 361.60 810.30 383.17 C 807.91 386.21 804.92 388.74 802.80 391.99 C 802.11 392.09 800.75 392.30 800.06 392.40 L 800.20 391.24 C 800.04 391.65 799.72 392.46 799.56 392.87 C 799.86 389.49 798.75 386.26 798.18 382.98 C 791.56 350.24 780.34 318.49 765.35 288.65 Z"/>
    <path stroke="#000000" stroke-width="0.09375" d=" M 800.35 395.30 C 800.94 394.68 801.56 394.07 802.19 393.49 C 803.08 394.37 804.07 395.15 805.15 395.82 C 835.21 413.47 865.22 431.23 895.28 448.90 C 895.41 449.27 895.65 450.01 895.78 450.37 C 865.98 467.31 836.59 484.98 806.91 502.13 C 806.20 502.38 804.78 502.87 804.08 503.12 C 804.34 497.74 804.45 492.34 805.22 487.00 C 805.71 478.69 805.55 470.35 806.25 462.05 C 805.66 439.72 804.60 417.28 800.35 395.30 Z"/>
  </g>
</svg>
