<?xml version="1.0" encoding="UTF-8"?>
<svg xmlns="http://www.w3.org/2000/svg" width="847pt" height="944pt" viewBox="0 0 847 944" version="1.1">
  <g>
    <path stroke="#000000" stroke-width="0.09375" d=" M 332.28 0.00 L 342.34 0.00 C 360.00 1.37 377.45 7.37 391.45 18.38 C 404.54 28.37 414.66 41.57 424.12 54.91 C 431.04 47.91 437.73 40.62 445.54 34.57 C 466.93 17.01 494.21 6.35 522.01 6.48 C 541.18 6.22 561.33 9.51 577.26 20.83 C 590.48 30.01 599.20 45.01 601.27 60.91 C 602.61 74.05 601.23 87.70 595.76 99.83 C 588.61 115.88 574.34 128.41 557.74 134.00 C 544.55 138.50 529.36 137.73 517.09 130.90 C 510.42 127.13 504.43 121.70 501.02 114.75 C 496.43 105.59 498.13 94.17 503.66 85.79 C 509.78 76.91 519.41 71.31 529.11 67.10 C 518.59 73.80 511.77 85.61 510.68 97.97 C 510.31 102.84 512.40 107.71 515.91 111.05 C 521.88 117.04 530.69 119.53 538.99 118.57 C 555.00 117.73 568.93 104.63 571.63 89.00 C 572.71 79.25 570.26 68.81 563.62 61.41 C 555.24 52.00 542.35 47.86 530.06 47.35 C 511.78 46.41 493.79 54.18 480.49 66.47 C 460.37 84.89 448.14 110.35 440.69 136.23 C 435.39 156.51 431.67 178.19 436.84 198.88 C 440.17 198.20 443.28 196.83 446.43 195.58 C 477.08 183.86 507.81 172.20 539.34 163.06 C 550.14 159.63 561.55 159.39 572.70 157.91 C 580.12 157.33 587.50 155.97 594.97 156.36 C 593.97 156.18 592.98 155.99 591.99 155.80 C 598.01 155.61 604.03 155.37 610.03 154.78 C 622.36 154.22 634.70 154.43 647.04 154.32 C 667.40 153.34 688.06 153.22 707.92 148.03 C 715.50 145.86 723.51 142.95 728.58 136.58 C 732.48 131.87 732.49 125.08 730.72 119.51 C 726.42 108.14 715.51 101.27 705.11 96.11 C 692.07 90.18 677.60 85.55 663.14 87.85 C 657.66 88.98 651.84 90.78 648.01 95.09 C 645.76 97.48 645.91 101.40 647.97 103.86 C 653.80 111.53 663.07 115.12 671.55 118.99 C 664.31 120.92 656.57 122.59 649.20 120.34 C 638.43 117.63 630.52 108.24 627.15 97.98 C 624.62 91.15 624.69 83.01 628.73 76.77 C 631.95 71.71 637.44 68.64 643.04 66.88 C 653.64 63.44 664.96 64.13 675.94 64.49 C 694.97 65.93 714.27 70.97 730.07 82.04 C 744.67 92.05 756.14 106.93 761.19 123.97 C 763.83 132.09 762.69 141.25 758.44 148.63 C 753.22 157.49 744.08 163.21 734.75 166.95 C 716.15 174.23 695.96 175.53 676.21 176.34 C 681.10 182.69 686.13 188.98 689.85 196.12 C 691.92 199.56 693.03 203.47 695.03 206.93 C 709.34 202.58 723.99 198.85 739.00 198.11 C 745.67 197.13 752.35 198.42 759.04 198.52 C 778.24 200.17 797.99 206.21 812.11 219.88 C 822.41 229.47 828.52 242.82 831.19 256.48 C 834.18 272.26 833.57 288.84 828.48 304.13 C 824.43 316.76 817.43 328.64 807.33 337.35 C 804.99 339.45 802.19 340.97 799.93 343.15 C 800.13 344.46 801.35 345.10 802.30 345.87 C 815.90 355.81 825.89 369.92 833.27 384.90 C 840.21 399.42 844.87 415.07 846.73 431.06 C 848.80 463.23 829.82 494.60 802.15 510.33 C 792.40 515.84 780.75 520.44 769.49 517.12 C 755.71 513.21 744.40 502.78 737.28 490.58 C 732.98 483.24 730.71 474.53 732.19 466.04 C 733.04 455.33 738.12 444.18 747.98 439.00 C 759.31 433.08 773.08 433.31 785.10 436.92 C 772.79 439.67 761.19 446.56 753.76 456.86 C 750.34 461.16 750.80 467.07 752.10 472.07 C 754.88 482.47 765.39 489.83 776.02 489.72 C 784.90 489.92 793.11 485.34 799.75 479.81 C 815.45 466.50 822.23 444.02 817.31 424.15 C 813.24 409.09 801.93 397.00 788.83 389.05 C 773.07 379.46 754.68 373.12 736.05 374.34 C 719.91 374.84 702.73 376.84 689.12 386.28 C 687.00 388.07 683.53 389.61 684.19 392.95 C 684.86 419.04 680.57 445.62 669.20 469.27 C 656.07 497.23 633.53 520.72 605.97 534.72 C 588.66 543.42 569.43 548.87 549.96 548.62 C 533.00 548.84 516.14 542.70 503.02 532.00 C 487.49 519.33 477.00 500.96 472.84 481.44 C 469.69 465.84 469.79 448.72 477.43 434.37 C 484.68 420.68 498.83 412.00 513.53 408.34 C 529.18 404.51 545.78 404.14 561.51 407.72 C 561.50 408.06 561.47 408.74 561.46 409.08 C 553.10 409.90 545.03 412.47 537.15 415.25 C 525.69 419.53 514.25 425.90 507.57 436.53 C 501.11 447.09 500.75 460.19 502.52 472.12 C 504.18 484.90 510.39 497.44 520.92 505.15 C 532.58 513.91 548.24 517.04 562.35 513.26 C 580.21 508.50 595.99 497.83 609.04 484.96 C 620.75 473.12 630.32 458.95 635.80 443.16 C 640.45 430.36 641.94 416.49 640.21 403.00 C 637.21 384.77 629.79 367.18 618.30 352.66 C 608.10 339.41 594.42 328.97 579.19 322.14 C 561.62 314.03 542.14 310.98 522.92 310.57 C 490.64 310.03 458.85 319.54 430.48 334.53 C 399.27 351.07 371.63 373.81 347.71 399.68 C 322.45 427.23 301.12 458.41 284.84 492.06 C 268.59 525.84 257.29 562.46 255.63 600.08 C 254.85 620.40 258.88 640.56 264.21 660.08 C 273.73 693.31 289.41 724.85 310.71 752.12 C 333.67 781.63 363.52 805.66 397.08 822.10 C 429.55 838.14 465.13 847.18 501.02 851.23 C 530.18 854.22 559.73 854.82 588.85 851.02 C 615.97 847.33 642.78 839.93 667.19 827.37 C 690.10 815.79 710.76 799.70 727.32 780.06 C 737.17 768.34 745.63 755.34 751.38 741.11 C 753.11 736.60 754.85 731.91 754.62 727.00 C 754.33 718.70 751.27 710.44 745.79 704.18 C 742.59 700.55 738.08 697.58 733.04 698.19 C 724.23 697.72 716.45 702.78 710.70 709.00 C 715.07 701.99 721.18 695.57 729.25 693.01 C 735.36 691.40 742.19 692.09 747.59 695.53 C 757.77 701.74 763.75 713.35 765.02 724.99 C 766.05 732.27 764.25 739.51 764.24 746.79 C 764.10 746.23 763.98 745.67 763.86 745.12 C 762.07 758.59 755.94 771.12 748.08 782.07 C 740.63 792.82 731.54 802.27 722.81 811.96 C 705.53 830.34 687.50 848.14 667.39 863.44 C 626.66 895.02 578.52 916.20 528.55 928.18 C 483.15 939.20 436.33 943.38 389.70 944.00 L 385.23 944.00 C 357.78 926.79 332.80 905.95 309.11 883.94 C 286.38 862.08 264.73 838.63 248.37 811.52 C 244.78 805.44 241.48 799.18 238.70 792.69 C 236.62 798.00 237.40 803.87 237.94 809.41 C 240.84 828.09 247.27 846.04 254.45 863.45 C 265.32 888.54 277.68 913.37 294.95 934.73 C 283.18 932.83 271.71 929.37 260.28 926.02 C 229.84 916.82 200.50 904.00 173.11 887.84 C 170.91 886.39 168.13 885.48 166.67 883.16 C 156.88 866.57 148.40 849.25 140.07 831.89 C 121.91 792.35 105.59 751.63 96.34 708.99 C 92.60 691.96 90.71 674.51 91.53 657.07 C 81.63 670.65 78.33 687.64 76.03 703.95 C 73.16 728.52 72.95 753.36 74.37 778.04 C 74.20 786.70 75.61 795.29 75.51 803.96 C 53.71 776.52 36.33 745.38 25.99 711.83 C 18.87 688.26 15.08 663.61 15.61 638.96 C 15.53 630.69 16.61 622.46 16.83 614.20 C 16.96 614.73 17.09 615.26 17.22 615.80 C 18.09 599.08 21.72 582.57 26.22 566.48 C 38.39 524.67 63.19 487.44 93.92 456.96 C 123.19 426.99 157.53 402.67 187.91 373.92 C 205.40 356.86 221.78 337.03 227.87 312.86 C 230.45 302.14 231.58 290.82 229.22 279.95 C 227.01 269.22 221.97 259.29 215.92 250.24 C 206.56 236.47 194.43 224.73 180.95 215.04 C 164.48 203.35 145.48 193.86 124.99 192.77 C 101.55 192.79 79.10 203.37 62.00 219.01 C 50.73 229.59 40.80 242.52 37.02 257.75 C 34.79 266.23 36.17 275.01 37.06 283.56 C 39.45 300.89 47.38 317.79 60.79 329.27 C 73.25 340.01 89.50 346.28 105.95 346.55 C 119.87 346.74 134.26 343.74 145.89 335.80 C 158.20 327.57 166.83 313.88 168.41 299.11 C 169.31 287.83 167.45 275.72 160.43 266.52 C 153.23 256.99 141.64 251.48 129.90 250.31 C 118.85 248.50 106.85 251.03 98.08 258.19 C 86.64 267.21 81.58 284.38 88.47 297.63 C 93.17 307.01 103.25 312.20 113.22 313.99 C 103.24 317.93 91.11 319.27 81.60 313.38 C 72.16 307.65 68.02 296.45 66.10 286.09 C 63.90 271.60 65.02 255.87 72.97 243.19 C 83.72 226.11 104.50 218.10 124.01 217.63 C 135.20 218.05 146.60 219.49 156.82 224.36 C 168.17 229.46 177.75 238.27 183.78 249.15 C 189.37 259.20 192.69 270.53 193.46 281.99 C 193.97 299.99 191.40 318.42 183.67 334.82 C 177.19 348.77 165.95 360.47 152.19 367.39 C 140.68 373.32 127.75 375.98 114.91 376.84 C 104.89 378.03 94.80 376.95 84.82 375.93 C 61.65 373.04 38.75 362.52 23.90 344.10 C 8.29 325.31 1.39 300.72 0.00 276.68 L 0.00 268.28 C 0.36 254.96 2.33 241.64 6.16 228.87 C 11.22 212.02 20.50 196.40 33.19 184.19 C 51.60 166.55 76.14 156.42 101.05 152.31 C 118.29 149.31 135.90 150.29 153.21 151.99 C 158.54 152.46 163.79 153.81 169.17 153.68 C 168.86 140.45 172.03 127.15 178.32 115.50 C 185.70 101.72 197.84 90.76 211.84 83.94 C 228.15 75.70 246.69 72.30 264.89 73.40 C 263.12 66.40 262.86 59.11 263.62 51.95 C 265.76 36.03 275.33 21.56 288.60 12.66 C 301.45 4.12 317.04 0.60 332.28 0.00 M 308.96 29.73 C 300.90 32.09 293.98 38.02 290.49 45.67 C 285.68 55.82 285.70 67.63 288.71 78.30 C 303.05 84.37 316.16 93.52 326.03 105.64 C 332.08 102.89 337.68 98.29 340.17 91.98 C 341.82 86.65 339.41 81.05 335.96 77.00 C 330.62 70.61 322.71 67.24 314.96 64.78 C 320.58 64.09 326.27 64.06 331.91 64.43 C 339.27 65.03 346.96 68.49 350.45 75.33 C 355.13 84.93 353.43 96.48 348.88 105.80 C 346.09 111.19 342.18 116.74 336.27 118.88 C 336.45 119.61 336.69 120.32 336.99 121.01 C 344.68 133.92 350.30 148.17 352.86 163.00 C 355.95 185.47 348.90 210.20 331.50 225.42 C 321.49 234.13 308.42 239.79 295.03 239.60 C 297.75 247.31 301.69 254.68 302.86 262.89 C 303.61 262.73 304.29 262.43 304.89 261.97 C 311.75 255.75 320.07 251.48 328.13 247.05 C 341.59 239.90 355.46 233.56 369.34 227.29 C 368.69 217.59 367.98 207.84 368.68 198.15 C 367.66 199.53 367.83 201.39 367.49 202.99 C 368.15 184.02 365.64 164.99 366.72 146.00 C 374.72 132.12 382.15 117.90 390.04 103.96 C 391.81 92.21 390.44 79.78 385.20 69.01 C 377.86 53.52 364.38 41.44 348.90 34.37 C 336.58 28.65 322.24 25.75 308.96 29.73 M 237.39 113.42 C 218.96 125.69 212.48 152.87 224.14 171.85 C 228.74 174.74 233.66 177.18 238.36 179.96 C 240.70 163.60 253.88 149.13 270.06 145.55 C 279.87 144.57 290.78 144.99 299.02 151.07 C 305.99 156.22 308.22 166.31 304.97 174.13 C 303.38 169.15 300.07 164.08 294.55 163.10 C 286.49 161.50 278.50 165.48 272.17 170.15 C 265.67 175.25 260.20 182.54 259.61 191.02 C 259.32 197.40 263.01 203.20 267.89 207.02 C 274.16 211.94 281.13 216.27 288.94 218.23 C 295.06 219.35 301.91 219.29 307.16 215.49 C 316.56 208.68 320.63 196.93 322.58 185.93 C 325.91 169.20 319.79 152.17 310.95 138.14 C 301.64 123.85 288.11 111.17 271.18 107.01 C 259.66 104.87 247.12 106.59 237.39 113.42 M 612.07 193.22 C 604.49 197.23 600.93 206.88 603.33 214.98 C 604.36 219.93 607.47 224.05 610.90 227.61 C 601.61 226.72 591.59 222.35 587.35 213.53 C 584.19 206.74 586.26 199.13 587.60 192.16 C 565.56 201.51 543.68 211.26 521.87 221.13 C 502.66 230.25 483.10 238.80 464.89 249.83 C 463.13 251.29 459.70 252.44 460.37 255.26 C 468.05 255.47 475.54 253.45 483.08 252.27 C 502.05 248.75 521.61 248.07 540.71 250.91 C 553.85 252.89 566.71 256.29 579.51 259.82 C 586.93 261.65 594.33 264.12 602.03 264.37 C 622.01 263.45 639.16 250.01 650.07 234.03 C 654.04 227.72 658.69 220.79 657.68 212.95 C 656.92 203.86 649.35 196.95 641.27 193.77 C 632.13 190.12 621.09 188.34 612.07 193.22 M 729.27 230.98 C 716.59 234.87 704.43 240.86 693.88 248.90 C 682.21 267.44 665.42 282.11 647.95 295.04 C 646.04 296.52 646.63 299.13 646.39 301.22 C 656.00 314.29 665.24 327.76 671.80 342.67 C 682.44 339.52 693.22 336.84 704.11 334.65 C 703.55 333.62 703.04 332.55 702.31 331.64 C 693.64 320.61 691.08 305.79 692.73 292.12 C 695.30 279.96 703.83 269.83 713.92 262.97 C 720.07 258.93 727.31 255.28 734.90 256.66 C 744.93 258.33 754.70 262.18 762.89 268.25 C 765.19 270.18 767.72 272.13 768.97 274.94 C 764.48 272.87 759.90 270.71 754.91 270.24 C 739.26 267.68 722.74 278.56 718.97 293.99 C 716.27 304.66 721.44 315.20 727.25 323.85 C 728.99 326.09 730.37 328.85 732.78 330.41 C 745.53 329.09 758.64 328.62 771.22 331.53 C 782.40 323.77 792.37 313.71 797.95 301.14 C 803.39 289.60 803.74 276.31 801.66 263.92 C 799.45 250.66 791.09 238.14 778.57 232.69 C 763.11 225.93 745.24 226.11 729.27 230.98 Z"/>
  </g>
</svg>
