<?xml version="1.0" encoding="UTF-8" standalone="no"?>
<svg xmlns="http://www.w3.org/2000/svg" width="358.05908pt" height="407.61633pt" viewBox="0 0 358.05908 407.61633">
  <path d="M 176.03027,1.3099361e-4 C 143.70152,0.00140599 111.37383,0.01150099 79.048828,0.02650099 78.998803,20.676498 79.059553,41.326458 79.019503,61.986459 c -26.319996,0.1 -52.640678,-0.0702 -78.9506785,0.0498 -0.0799995,19.909994 -0.0997455,39.810211 0.0102525,59.720211 12.28,-1.19 24.629667,-0.0805 36.909667,0.49951 63.080006,3.88 124.459996,28.48004 173.249996,68.54003 15.91999,12.32001 29.17101,27.59094 42.04101,42.96094 39.86,48.68 62.0189,111.03881 63.8789,173.7788 13.95,-0.69999 27.94039,-0.72943 41.9004,0.0806 -0.08,-115.19 0.0299,-230.39006 -0.0601,-345.580061 -28.32,-0.110002 -56.63922,0.0402 -84.94922,-0.0498 -0.05,-20.649996 0.009,-41.309961 -0.0308,-61.95995801 -32.33,-0.0200025 -64.66002,-0.027615 -96.98876,-0.0263699964 z M 14.430175,164.67932 c -4.7943164,-0.0193 -9.5891209,0.0839 -14.3803705,0.30762 -0.0699975,80.86 0.0401925,161.71958 -0.0498075,242.57958 16.99,-0.83 34.019294,-0.54982 51.029294,-0.56983 73.379999,0 146.749389,0.0398 220.129389,-0.0103 -1.17,-54.95 -22.28916,-108.68972 -57.13916,-150.96972 -27.28,-31.92 -62.35006,-57.06095 -101.31006,-72.73096 C 81.471963,170.92199 47.990387,164.81411 14.430172,164.6793 Z"/>
</svg>
