<?xml version="1.0" encoding="UTF-8" standalone="no"?>
<svg xmlns="http://www.w3.org/2000/svg" width="288.1561pt" height="450.03116pt" viewBox="0 0 288.1561 450.03116">
  <path d="m 140.48609,0.42977257 c 30.33,-3.76999997 61.69,17.69000043 68.55,47.60000043 7.13,24.99 -2.68,53.929997 -24.04,68.869997 -5.49,4.22 -11.92,6.91 -18.21,9.68 30.55,4.87 61.17,15.24 84.67,36.07 15.65,13.9 28.91,31.72 33.59,52.45 2.95,11.05 3.09,22.55 3.11,33.92 -0.14,66.99 -0.02,133.99 -0.07,200.98 -19.33,0.05 -38.66,0.03 -57.99,0.01 0.01,-55 -0.05,-110 0.07,-165 -0.18,-10.08 0.1,-20.59 -3.98,-30.04 -5.15,-10.16 -16.22,-17.37 -27.77,-16.65 -8.81,0.64 -17.26,5.44 -22.21,12.77 -6.63,8.4 -5.77,19.88 -6.18,29.92 0.12,56.33 0.06,112.67 0.07,169 -17.33,0.03 -34.67,0.02 -52,0 0.02,-56.67 -0.07,-113.33 0.09,-170 -0.36,-8.67 0.53,-18.18 -4.18,-25.93 -6.21,-12.1 -21.859999,-19.28 -34.789999,-13.97 -10.8,4.23 -20.3,14.75 -19.87,26.92 -0.64,60.98 -0.03,121.98 -0.25,182.97 -19.67,0.05 -39.33,0.03 -58.99999992,0.01 -0.05,-68.33 0.1,-136.67 -0.09,-205 -0.15,-16.43 2.45000002,-33.29 10.06999992,-48.01 7.4,-15.06 18.81,-27.74 31.76,-38.24 24.02,-19.26 54.26,-28.85 84.529999,-32.22 -14.79,-6.15 -28.889999,-15.9 -36.169999,-30.589997 -10.32,-18.9 -11.11,-43.14 -0.07,-61.92 9.5,-18.93 29.429999,-31.6400004 50.359999,-33.60000043 z"/>
</svg>
