<?xml version="1.0" encoding="UTF-8" standalone="no"?>
<svg xmlns="http://www.w3.org/2000/svg" width="478.10043pt" height="392.48547pt" viewBox="0 0 478.10043 392.48547">
  <circle cx="239.0502" cy="150.40198" r="45.709217" id="circle2"/>
  <path d="M 56.900541,0.00328716 C 54.270981,0.02800701 51.572236,0.19085399 48.807278,0.49254501 32.531423,2.0406344 16.539674,8.9030759 7.0079613,22.554556 c -2.6343652,4.094557 -5.2549357,8.455476 -6.34863301,13.22754 -0.31341493,1.574036 -0.53587664,3.356546 -0.53027625,4.842773 -0.0150375,0.727132 -0.03837,1.508692 -0.06006,2.283691 -8.325e-5,0.003 8.325e-5,0.0058 0,0.0088 -0.055245,1.257606 -0.07991325,2.520827 -0.064455,3.780762 -0.02676,7.162116 0.8150205,14.99031 7.26416026,18.716309 5.2391037,3.690394 14.0756297,4.985382 20.1210937,1.896973 0.785781,-0.315764 1.556122,-0.66079 2.291016,-1.066407 5.179999,-4.4 6.590937,-12.789746 3.210937,-18.739746 -0.872279,-1.912821 -1.49914,-3.703419 -2.068359,-5.563476 -1.528452,-5.354112 -1.733676,-11.234449 2.348145,-15.206544 2.657407,-3.085797 6.001122,-5.022041 9.662109,-6.115722 2.679064,-0.574251 5.425294,-1.015142 7.970214,-1.145508 3.35898,-0.05658 6.758542,0.341868 9.97998,1.023926 11.558812,2.940481 21.669135,11.637936 27.194827,22.16748 9.24,15.1 12.36034,33.149398 11.840333,50.629393 -0.81,12.47 -5.15088,24.26961 -10.650885,35.34961 -26.709992,60.95 -22.369209,136.24029 17.050792,190.80029 23.77797,34.99399 61.43425,60.58763 102.73536,69.54346 6.71352,1.52008 13.52183,2.63397 20.38769,3.28711 6.66176,0.23903 13.23122,0.31872 19.4165,0 6.86587,-0.65314 13.67417,-1.76703 20.3877,-3.28711 41.30111,-8.95583 78.95739,-34.54947 102.73535,-69.54346 39.42,-54.56 43.75932,-129.85029 17.04932,-190.80029 -5.5,-11.08 -9.83942,-22.87961 -10.64942,-35.34961 -0.51999,-17.479995 2.60034,-35.529393 11.84034,-50.629394 5.52571,-10.529596 15.63594,-19.227041 27.19482,-22.16748 3.22088,-0.68192 6.62011,-1.080359 9.97851,-1.023925 2.78004,0.253995 5.46353,0.506304 7.98194,1.148437 3.65692,1.094243 6.99696,3.029916 9.65185,6.112793 4.07367,3.964157 3.87702,9.828807 2.35694,15.174316 -0.56907,1.929927 -1.30288,3.883994 -2.07715,5.595704 -3.38,5.949999 -1.97053,14.339745 3.20947,18.739746 0.73395,0.405095 1.50484,0.749467 2.28955,1.064941 6.04553,3.090069 14.88419,1.795404 20.12403,-1.895508 6.44913,-3.725998 7.29091,-11.554192 7.26416,-18.716308 0.0155,-1.259936 -0.009,-2.523157 -0.0644,-3.780762 -1.2e-4,-0.0029 1.3e-4,-0.0059 0,-0.0088 -0.0583,-2.511909 -0.17961,-4.934972 -0.58894,-7.123536 -1.09328,-4.773267 -3.71663,-9.135031 -6.35156,-13.230468 C 461.55963,8.9036129 445.56978,2.0409922 429.29459,0.49254501 422.34535,-0.26581891 415.82484,-0.12334936 409.73892,0.81041609 406.20119,1.1953357 402.81636,2.0278814 399.5773,3.2200837 380.32431,9.5397764 366.40136,24.731193 358.35074,44.856803 c -1.76653,3.955316 -3.0704,8.081742 -4.04004,12.310547 -3.91465,14.945542 -5.04594,31.830142 -3.2124,49.40771 1.82,12.15 5.07986,24.09971 5.35986,36.44971 0,23.16607 -4.44112,42.8677 -11.93408,59.34668 -6.15003,12.76623 -14.64222,25.15586 -25.52197,35.76123 -22.96056,21.54586 -53.01608,31.5393 -79.95264,31.65967 -26.94662,-0.1207 -57.01394,-10.12184 -79.97754,-31.68457 -10.86227,-10.59469 -19.34373,-22.96761 -25.48828,-35.71729 -7.49816,-16.4828 -11.94287,-36.1908 -11.94287,-59.36572 0.28,-12.35 3.54133,-24.29971 5.36133,-36.44971 1.83469,-17.588645 0.69943,-34.483033 -3.22119,-49.435542 -0.96776,-4.213781 -2.2661,-8.325962 -4.02539,-12.268067 C 111.70544,24.737633 97.779209,9.5407897 78.520169,3.2200837 75.284526,2.0293364 71.902476,1.1971297 68.368799,0.81188091 64.702386,0.24889019 60.882254,-0.03414406 56.900541,0.00328716 Z M 364.70376,180.60973 c 4.69224,86.93975 -69.4151,127.22846 -125.65429,128.39062 -56.23758,-1.1622 -130.34048,-41.44871 -125.65283,-128.38329 5.32272,28.9588 22.40941,60.52124 48.63281,82.76513 11.2993,9.76016 24.27896,17.54348 38.83887,22.6333 0.64482,0.22687 1.3234,0.45594 1.88231,0.64453 10.6141,3.57777 22.00174,5.79465 34.09571,6.05714 1.51349,0.0328 3.00252,0.0346 4.40625,0 12.08596,-0.298 23.46674,-2.48087 34.07666,-6.05127 0.63191,-0.21265 1.26095,-0.42683 1.88818,-0.646 14.59412,-5.09963 27.60097,-12.90473 38.91943,-22.69483 26.18753,-22.24267 43.25027,-53.77931 48.5669,-82.71533 z"/>
</svg>
