<?xml version="1.0" encoding="UTF-8" standalone="no"?>
<svg xmlns="http://www.w3.org/2000/svg" version="1.1" id="svg2" width="88.95356" height="96.970001" viewBox="0 0 88.95356 96.970001">
  <g transform="translate(-275.02344,-6.9726562)">
    <path d="M 319.5,6.9726562 275.02344,24.072266 v 79.461484 c 25.94261,0 38.42254,3.03805 44.47656,-7.447812 6.05402,10.485862 18.53395,7.447812 44.47656,7.447812 l 4.4e-4,-79.461484 z"/>
    <path d="m 320.02063,24.361597 c 3.4786,0 6.26117,0.48343 8.342,1.386746 l 0.004,0.002 0.004,0.002 c 2.11422,0.894871 3.54342,2.070977 4.4123,3.525462 l 0.004,0.0078 0.006,0.0078 c 0.91475,1.472855 1.38081,3.195792 1.38081,5.250106 0,1.813019 -0.33825,3.471901 -1.0105,5.009867 l -0.002,0.0059 -0.002,0.0059 c -0.64733,1.531983 -1.83391,3.366237 -3.56727,5.451282 l -0.002,0.0039 -0.002,0.002 c -1.69474,2.066872 -4.64207,5.109341 -8.80686,9.068541 l -0.008,0.0059 -0.006,0.0059 c -1.88958,1.85765 -3.65777,3.742202 -5.30461,5.652458 -1.6345,1.871526 -2.84854,3.342566 -3.65591,4.43759 l -0.19303,0.263677 v 1.693393 h 13.94601 c 1.62671,0 2.86226,-0.09912 3.81348,-0.369149 l 0.0138,-0.0039 0.0138,-0.0059 c 0.93648,-0.295374 1.74239,-0.819482 2.31252,-1.552766 v -0.002 c 0.44289,-0.565025 0.70635,-1.394457 0.97899,-2.222701 h 2.47206 l -0.57525,11.168194 H 303.0234 v -1.171899 c 0.98417,-2.240943 2.3766,-4.695457 4.23107,-7.373195 l 0.002,-0.0039 c 1.92187,-2.739675 4.26053,-5.74476 7.01437,-9.0119 2.6376,-3.130523 4.64577,-5.712055 6.03933,-7.771642 1.41744,-2.059174 2.48975,-4.024673 3.20483,-5.906369 0.72213,-1.90021 1.08535,-3.875958 1.08535,-5.906368 0,-2.840578 -0.62856,-5.189484 -1.99341,-6.935686 l -0.002,-0.002 c -1.36134,-1.765188 -3.36489,-2.707086 -5.6828,-2.707086 -2.1876,0 -4.13402,0.839079 -5.59219,2.421924 -1.31288,1.427039 -2.17367,3.566247 -2.78133,6.222781 h -4.7964 v -6.980608 c 2.56815,-1.02317 4.76511,-1.834129 6.22646,-2.24028 l 0.006,-0.002 0.006,-0.002 c 1.63467,-0.47823 3.24255,-0.836216 4.82201,-1.074241 1.59566,-0.236843 3.33191,-0.355475 5.20809,-0.355475 z" style="fill:#ffffff"/>
    <rect y="71.305977" x="323.30356" height="4.9242649" width="11.376753" style="fill:#ffffff;"/>
    <path d="m 358.79102,73.174376 c -29.05084,0.351258 -54.84313,2.504315 -83.76758,13.083984 v 16.89062 c 19.31781,-16.418519 57.74172,-29.637828 83.76758,-29.974604 z" style="fill:#ffffff"/>
  </g>
</svg>
