<?xml version="1.0" encoding="UTF-8" standalone="no"?>
<svg xmlns="http://www.w3.org/2000/svg" version="1.1" id="svg2" width="88.95356" height="96.970001" viewBox="0 0 88.95356 96.970001">
  <g transform="translate(-274.83133,-6.9726562)">
    <path d="M 319.5,6.9726562 275.02344,24.072266 v 79.461484 c 25.94261,0 38.42254,3.03805 44.47656,-7.447812 6.05402,10.485862 18.53395,7.447812 44.47656,7.447812 l 4.4e-4,-79.461484 z"/>
    <rect style="fill:#ffffff" id="rect905" width="15.508276" height="4.9242649" x="312.36893" y="72.664391"/>
    <path style="fill:#ffffff" d="m 358.79102,73.174376 c -29.05084,0.351258 -54.84313,2.504315 -83.76758,13.083984 v 16.89062 c 19.31781,-16.418519 57.74172,-29.637828 83.76758,-29.974604 z" id="path883"/>
    <path style="fill:#ffffff" d="m 319.81163,25.47672 c 2.91146,0 5.4429,0.403519 7.60685,1.186709 h 0.002 l 0.002,0.002 c 2.17969,0.780586 3.78032,1.892279 4.89238,3.332295 l 0.004,0.0079 0.006,0.0059 c 1.12396,1.40583 1.68491,3.077513 1.68491,5.162876 0,1.940734 -0.38341,3.600394 -1.12856,5.02816 -0.76048,1.432405 -1.83148,2.686935 -3.24507,3.782017 l -0.002,0.002 -0.004,0.002 c -1.40689,1.107748 -3.28652,2.225253 -5.63088,3.32635 l -0.57615,0.271418 v 1.816715 l 0.83354,0.142643 c 2.01148,0.347024 3.81606,1.011604 5.43883,1.995019 l 0.002,0.002 0.002,0.002 c 1.62035,0.968309 2.88148,2.240474 3.8252,3.859281 l 0.002,0.004 0.002,0.004 c 0.95045,1.592426 1.43347,3.436717 1.43347,5.606655 0,2.670155 -0.64422,4.993873 -1.93438,7.054875 l -0.002,0.002 c -1.25056,2.01107 -3.15878,3.613826 -5.8249,4.820138 -2.64589,1.172988 -5.90992,1.781054 -9.80853,1.781054 -2.69918,0 -5.34711,-0.240014 -7.94737,-0.717176 h -0.004 c -2.36829,-0.457229 -4.35802,-1.113336 -6.13575,-1.872187 v -7.460848 h 4.88445 c 0.71936,2.480966 1.66243,4.48027 3.0055,5.798828 l 0.002,0.002 0.004,0.004 c 1.49009,1.434757 3.49026,2.151529 5.78927,2.151529 2.79582,0 5.10453,-0.920073 6.60499,-2.775591 1.5005,-1.855516 2.16604,-4.498436 2.16604,-7.835448 0,-3.622878 -0.98954,-6.518435 -3.07085,-8.435739 -2.05824,-1.918376 -5.0987,-2.797382 -8.9611,-2.797382 h -1.88884 v -2.317946 c 3.88332,-0.290142 7.07398,-1.210972 9.30561,-3.04701 l 0.002,-0.002 0.002,-0.002 c 2.43599,-2.031252 3.65889,-5.031578 3.65889,-8.691306 0,-2.845799 -0.5696,-5.124709 -1.86905,-6.745816 -1.29199,-1.635164 -3.26264,-2.470495 -5.58335,-2.470495 -1.3458,0 -2.62838,0.310217 -3.7955,0.921235 -1.21293,0.623075 -2.23535,1.689955 -3.1065,3.116348 l -0.002,0.002 -0.002,0.002 c -0.74934,1.241871 -1.2638,2.815664 -1.64531,4.610138 h -4.80525 v -6.961764 c 5.83299,-2.419578 11.1267,-3.675032 15.8116,-3.675032 z"/>
  </g>
</svg>
