<?xml version="1.0" encoding="UTF-8" standalone="no"?>
<svg xmlns="http://www.w3.org/2000/svg" version="1.1" id="svg2" width="88.95356" height="96.970001" viewBox="0 0 88.95356 96.970001">
  <g transform="translate(-274.83133,-6.9726562)">
    <path d="M 319.30789,6.9726562 274.83133,24.072266 v 79.461484 c 25.94261,0 38.42254,3.03805 44.47656,-7.447812 6.05402,10.485862 18.53395,7.447812 44.47656,7.447812 l 4.4e-4,-79.461484 z"/>
    <path d="m 358.79102,73.174376 c -29.05084,0.351258 -54.84313,2.504315 -83.76758,13.083984 v 16.89062 c 19.31781,-16.418519 57.74172,-29.637828 83.76758,-29.974604 z" style="fill:#ffffff"/>
    <rect y="71.815575" x="322.16742" height="4.5846605" width="12.383914" id="rect910" style="fill:#ffffff;"/>
    <path style="fill:#ffffff;" d="m 321.20532,24.207702 h 3.36923 c -0.11742,2.313057 -0.196,5.073231 -0.196,8.815744 v 30.887875 c 0,1.463639 0.067,2.589487 0.23716,3.451624 l 0.004,0.01788 0.006,0.01986 c 0.19927,0.836476 0.54051,1.581902 1.04468,2.188546 l 0.0196,0.02183 0.0196,0.02184 c 0.55182,0.592029 1.28092,1.02091 2.14228,1.330604 l 0.0137,0.004 0.0138,0.006 c 0.83856,0.274087 1.83985,0.478332 3.02427,0.63154 l 0.01,0.002 h 0.0117 c 0.93468,0.100753 2.25733,0.156917 3.62599,0.208528 v 1.392168 h -29.46845 v -1.416 c 2.06418,-0.113205 3.89304,-0.236331 4.92938,-0.415069 h 0.008 l 0.008,-0.002 c 1.2481,-0.23712 2.25392,-0.578508 3.03995,-1.120091 0.78161,-0.538543 1.35682,-1.330842 1.68559,-2.262025 0.37929,-1.001417 0.50372,-2.306742 0.50372,-4.081179 v -26.71341 c 0,-1.134716 -0.19897,-2.110392 -0.82908,-2.83796 -0.55404,-0.664537 -1.41446,-1.020791 -2.2873,-1.020791 -0.91449,0 -1.85294,0.357847 -3.03603,0.95724 l -0.004,0.002 -0.004,0.002 c -0.99202,0.513761 -2.70356,1.649895 -4.6295,2.957117 l -1.21518,-2.14088 z"/>
  </g>
</svg>
