<?xml version="1.0" encoding="utf-8"?>
<svg xmlns="http://www.w3.org/2000/svg" version="1.1" x="0px" y="0px" width="347px" height="347px" viewBox="-164.8 -164.65 347 347">
  <path d="M182.2,8.85c0,95.821-77.679,173.5-173.5,173.5s-173.5-77.679-173.5-173.5s77.679-173.5,173.5-173.5  S182.2-86.971,182.2,8.85z"/>
  <path fill="#FFFFFF" d="M175.26,8.85c0,91.988-74.571,166.561-166.56,166.561c-91.989,0-166.56-74.572-166.56-166.561  c0-91.989,74.571-166.56,166.56-166.56C100.688-157.71,175.26-83.139,175.26,8.85z"/>
  <path d="M163.115,8.85c0,85.281-69.134,154.415-154.415,154.415S-145.715,94.131-145.715,8.85  S-76.581-145.565,8.7-145.565S163.115-76.431,163.115,8.85z"/>
  <path fill="#FFFFFF" d="M8.7,121.467c6.927,0,35.773,28.637,35.773,28.637s10.399-41.419,16.668-44.39  c4.48-2.123,52.459,5.681,52.459,5.681s-13.665-37.862-8.035-46.069c5.677-8.277,44.354-16.105,44.354-16.105  s-28.917-31.505-28.57-40.398c0.248-6.361,29.516-36.272,29.516-36.272s-39.092-8.92-45.299-20.176  c-4.373-7.931,5.626-48.458,5.626-48.458S79.54-78.771,65.055-88.737c-13.576-9.342-16.02-43.631-16.02-43.631  S20.792-103.609,8.7-103.828c-16.124-0.292-40.371-28.575-40.371-28.575s-2.136,36.317-16.106,44.423  c-13.191,7.654-47.842-6.337-47.842-6.337s12.581,37.775,7.206,46.032s-44.498,18.835-44.498,18.835s29.197,32.603,28.963,38.271  c-0.234,5.668-29.012,38.265-29.012,38.265s40.285,9.849,44.796,18.239c3.689,6.863-8.035,46.046-8.035,46.046  s41.066-9.021,48.388-5.692c9.98,4.538,16.177,44.424,16.177,44.424S1.771,121.467,8.7,121.467z"/>
  <path d="M103.773,9.822c0,52.507-42.565,95.073-95.073,95.073c-52.509,0-95.074-42.566-95.074-95.073  c0-52.509,42.565-95.075,95.074-95.075C61.208-85.253,103.773-42.688,103.773,9.822z"/>
  <path fill="#FFFFFF" d="M96.168,8.822c0,48.306-39.16,87.468-87.468,87.468c-48.308,0-87.468-39.162-87.468-87.468  c0-48.309,39.16-87.469,87.468-87.469C57.008-78.647,96.168-39.487,96.168,8.822z"/>
</svg>
