<?xml version="1.0" encoding="UTF-8" standalone="no"?>
<svg xmlns="http://www.w3.org/2000/svg" version="1.1" width="347" height="347">
  <path d="m 350,324.5 a 173.5,173.5 0 1 1 -347,0 173.5,173.5 0 1 1 347,0 z" transform="translate(-3,-151)"/>
  <path d="m 350,324.5 a 173.5,173.5 0 1 1 -347,0 173.5,173.5 0 1 1 347,0 z" transform="matrix(0.96,0,0,0.96,4.06,-138.02)" style="fill:#ffffff"/>
  <path d="m 350,324.5 a 173.5,173.5 0 1 1 -347,0 173.5,173.5 0 1 1 347,0 z" transform="matrix(0.89,0,0,0.89,16.415,-115.305)"/>
  <path d="m 173.5,40.375 c -14.21669,0 -1.63048,20.23559 -107.625,81.25 -2.521731,1.4516 -2.695822,16.90396 -1.5,18.625 1.177755,1.69504 4.772942,2.79102 7.4375,3.21875 19.182943,3.07933 50.73147,0.58504 57.65625,5 6.92475,4.41496 6.90125,11.4702 6.90625,16.84375 0.005,5.37355 -0.9956,10.17102 -4.4375,14.875 -3.4419,4.70398 -13.37218,7.32613 -16.40625,11.25 -3.03407,3.92387 -4.00992,8.12046 -2.625,9.875 5.93783,7.52255 11.56118,15.10381 18,26.4375 -2.60508,2.9163 -4.76145,6.46285 -5.4375,10.6875 -0.84571,5.28483 4.6316,14.10397 7.25,14.71875 C 133.96207,250.26084 129.91,247.23549 130,243.125 c 0.0526,-2.40289 2.66914,-4.12499 6.09375,-5.75 1.95704,3.82655 4.00095,8.01727 6.15625,12.6875 0.94817,2.05456 3.419,7.61181 5.8125,13.96875 -1.35591,1.15672 -2.68605,1.86908 -3.96875,2 -2.63955,0.2694 -4.42989,-2.582 -10.25,-7.6875 -3.92852,6.30336 7.08157,20.06542 14.59375,20.5625 1.51555,0.10028 2.93602,0.0325 4.25,-0.1875 0.6613,2.88222 1.08333,5.52228 1.03125,7.625 -0.19175,7.74131 -5.26155,9.07735 -9.71875,9.1875 -4.42285,0.1093 -6.7861,-2.60648 -6.8125,-5.53125 -0.0165,-1.82765 2.3741,-3.30287 4.1875,-3.53125 2.21206,-0.0865 2.2112,2.16059 4.625,1.9375 -0.11281,-3.35181 -2.07332,-5.66425 -4.84375,-5.65625 -4.88343,0.014 -11.24679,5.21654 -11,10.09375 0.34575,6.83276 9.56631,13.19756 17.03125,13.34375 7.61869,0.1492 14.78586,-5.98598 15.25,-15.5625 0.25456,-5.25222 -0.59228,-10.47896 -2,-15.75 10.86526,-10.06559 10.53615,-36.23134 13.0625,-48.96875 2.52635,12.73741 2.19724,38.90316 13.0625,48.96875 -1.40772,5.27104 -2.25456,10.49778 -2,15.75 0.46414,9.57652 7.63131,15.7117 15.25,15.5625 7.46494,-0.14619 16.6855,-6.51099 17.03125,-13.34375 0.24679,-4.87721 -6.11657,-10.07979 -11,-10.09375 -2.77043,-0.008 -4.73094,2.30444 -4.84375,5.65625 2.4138,0.22309 2.41294,-2.024 4.625,-1.9375 1.8134,0.22838 4.20401,1.7036 4.1875,3.53125 -0.0264,2.92477 -2.38965,5.64055 -6.8125,5.53125 -4.4572,-0.11015 -9.527,-1.44619 -9.71875,-9.1875 -0.0521,-2.10272 0.36995,-4.74278 1.03125,-7.625 1.31398,0.21997 2.73445,0.28778 4.25,0.1875 7.51218,-0.49707 18.52227,-14.25914 14.59375,-20.5625 -5.82011,5.1055 -7.61045,7.9569 -10.25,7.6875 -1.2827,-0.13092 -2.61284,-0.84328 -3.96875,-2 2.3935,-6.35694 4.86433,-11.91419 5.8125,-13.96875 2.1553,-4.67023 4.19921,-8.86095 6.15625,-12.6875 3.42461,1.62501 6.04112,3.34711 6.09375,5.75 0.09,4.11049 -3.96207,7.13584 -2.71875,10.03125 2.6184,-0.61478 8.09571,-9.43392 7.25,-14.71875 -0.67605,-4.22465 -2.83242,-7.7712 -5.4375,-10.6875 6.43882,-11.33369 12.06217,-18.91495 18,-26.4375 1.38492,-1.75454 0.40907,-5.95113 -2.625,-9.875 -3.03407,-3.92387 -12.96435,-6.54602 -16.40625,-11.25 -3.4419,-4.70398 -4.44212,-9.50145 -4.4375,-14.875 0.005,-5.37355 -0.0185,-12.42879 6.90625,-16.84375 6.92478,-4.41496 38.50455,-1.92067 57.6875,-5 2.66455,-0.42772 6.2285,-1.52371 7.40625,-3.21875 1.19582,-1.72104 1.02173,-17.1734 -1.5,-18.625 C 175.13048,60.61059 187.71669,40.375 173.5,40.375 z m -20.75,147.6875 c 3.06781,-0.0198 4.09595,0.58511 4.03125,3.59375 -0.1447,6.73025 -7.54249,18.04374 -13.46875,25.6875 -0.30367,0.39168 -0.88833,0.89501 -1.59375,1.4375 -0.49269,-1.13259 -0.99398,-2.19005 -1.46875,-3.1875 -3.72948,-7.83526 -9.48052,-12.44712 -9.28125,-14.84375 0.25279,-3.04033 13.66186,-12.6351 21.78125,-12.6875 z m 41.5,0 c 8.11939,0.0524 21.52846,9.64717 21.78125,12.6875 0.19927,2.39663 -5.55177,7.00849 -9.28125,14.84375 -0.47477,0.99745 -0.97606,2.05491 -1.46875,3.1875 -0.70542,-0.54249 -1.29008,-1.04582 -1.59375,-1.4375 -5.92626,-7.64376 -13.32405,-18.95725 -13.46875,-25.6875 -0.0647,-3.00864 0.96344,-3.61356 4.03125,-3.59375 z m -26.03125,16.875 c -0.81603,17.52247 -7.05025,38.82848 -14.0625,51.09375 -1.17973,-3.41587 -2.29125,-6.87763 -3.1875,-10.34375 -1.07869,-4.17166 -2.52669,-8.80468 -4.09375,-13.375 1.12612,-0.67814 2.13303,-1.40903 2.96875,-2.21875 7.54523,-7.3105 13.01926,-14.3997 18.375,-25.15625 z m 10.5625,0 c 5.35574,10.75655 10.82977,17.84575 18.375,25.15625 0.83572,0.80972 1.84263,1.54061 2.96875,2.21875 -1.56706,4.57032 -3.01506,9.20334 -4.09375,13.375 -0.89625,3.46612 -2.00777,6.92788 -3.1875,10.34375 -7.01225,-12.26527 -13.24647,-33.57128 -14.0625,-51.09375 z" style="fill:#d5d4cc"/>
</svg>
