<?xml version="1.0" encoding="UTF-8" standalone="no"?>
<svg xmlns="http://www.w3.org/2000/svg" version="1.1" width="247" height="247">
  <path d="m 247,123.5 a 123.5,123.5 0 0 1 -247,0 123.5,123.5 0 1 1 247,0 z"/>
  <path d="m 242.06,123.5 a 118.56,118.56 0 0 1 -237.12,0 118.56,118.56 0 1 1 237.12,0 z" style="fill:#ffffff"/>
  <path d="m 233.415,123.5 a 109.915,109.915 0 0 1 -219.83,0 109.915,109.915 0 1 1 219.83,0 z"/>
  <path d="m 207.48,123.5 a 83.98,83.98 0 0 1 -167.96,0 83.98,83.98 0 1 1 167.96,0 z" style="fill:#dbdbd1"/>
  <path d="m 142.70481,53.533753 c 0.0812,-2.789346 -45.02387,-1.841763 -54.354035,0.512614 -6.216315,1.568626 -22.777588,18.049106 -22.999155,21.715416 1.609074,6.620773 19.439602,14.577732 25.160406,15.293202 -2.251326,4.523455 -7.495972,10.540335 -9.899739,10.627775 -2.682705,0.0976 -14.712595,-16.772044 -16.57694,-16.556716 -9.91364,1.145006 -15.436249,23.411206 -15.47521,37.018286 -0.08431,29.44404 20.782389,49.26533 26.969072,55.811 16.809861,17.78527 25.222301,17.61457 35.918321,17.89409 7.56747,0.19776 10.81652,-4.28606 15.48135,-7.66111 5.27738,-3.03653 14.50516,-3.2031 14.65398,-7.34369 0.14883,-4.1406 -19.32942,1.77323 -26.90577,-3.14516 -5.96454,-3.87204 -1.32927,-7.41869 -3.62788,-10.05009 -1.75139,-2.00497 -5.33752,3.51723 -14.22313,-7.15992 -2.73556,-3.28712 -6.889044,-7.90642 -6.518047,-16.93833 0.286614,-6.9776 2.473027,-7.00812 2.697617,-13.84064 0.2129,-6.47724 -6.142993,-18.68413 -4.506282,-22.00294 2.270323,-4.60361 5.387512,-3.70745 8.402342,-1.75503 2.36444,1.53122 14.17452,-10.65475 14.44733,-14.565155 0.18176,-2.60523 -4.30262,-7.772935 -8.16581,-9.921727 -3.23605,-1.799966 -24.598764,-2.216243 -24.603821,-6.644664 -0.0031,-2.737319 9.190834,-9.343965 14.289961,-9.388009 5.09913,-0.04404 14.96098,-6.213195 22.04111,-6.548445 7.08013,-0.33525 8.34128,-3.024123 15.0384,-3.033208 6.05833,-0.0082 12.67473,0.471797 12.75593,-2.317549 z" style="fill:#a5a393;fill-opacity:0.49803922"/>
  <path d="m 119.97709,126.70103 a 5.22108,5.22108 0 0 1 -10.44216,0 5.22108,5.22108 0 1 1 10.44216,0 z" style="fill:#cbc9bd;fill-opacity:0.49803922"/>
  <path d="m 138.50087,102.49554 a 4.3711338,4.3711338 0 1 1 -8.74226,0 4.3711338,4.3711338 0 1 1 8.74226,0 z" style="fill:#cbc9bd;fill-opacity:0.49803922"/>
  <path d="m 162.41247,73.914176 a 13.96335,7.7466235 45 1 1 -10.95538,10.95538 13.96335,7.7466235 45 1 1 10.95538,-10.95538 z" style="fill:#cbc9bd;fill-opacity:0.49803922"/>
  <path d="m 181,62.34375 c -5.5597,2.713773 -8.54953,6.109011 -8.78125,8.25 -0.34184,3.158405 12.73005,13.904249 14.84375,14.15625 1.73595,0.206965 4.77265,-4.041931 6.75,-7.15625 -3.65693,-5.591205 -7.96504,-10.691031 -12.8125,-15.25 z" style="fill:#cbc9bd;fill-opacity:0.49803922"/>
  <path d="m 182.30012,90.580352 c 12.97671,0.951801 6.67447,14.686018 13.78858,25.544228 1.87909,2.86804 9.30743,6.04086 8.92722,9.54595 -0.38144,3.51638 -7.01588,8.39587 -12.05713,13.40857 -5.99069,5.95679 -5.78361,9.54186 -15.69681,9.74917 -6.91035,0.14452 -24.45376,-18.03083 -24.66035,-22.27386 -0.34892,-7.16592 10.32904,-8.67577 12.63953,-16.97056 0.57119,-2.05061 -1.86648,-4.70686 -0.53033,-6.36396 5.49167,-6.8108 10.59803,-13.152324 17.58929,-12.639538 z" style="fill:#cbc9bd;fill-opacity:0.49803922"/>
  <path d="m 173.19611,153.77802 c 3.25193,-0.31879 13.62841,7.89911 14.14214,14.67247 0.1072,1.41337 -8.82193,12.43593 -11.99207,14.43919 -2.02281,1.27825 -5.82083,-0.54086 -8.16047,-0.0391 -4.10689,0.8808 -9.32089,8.68887 -10.8656,7.34342 -2.3109,-2.01282 6.20667,-6.09068 6.01142,-9.77719 -0.11002,-2.07744 -3.6788,-3.02347 -3.64447,-7.55827 0.0298,-3.93957 3.18382,-6.57637 3.26318,-9.26326 0.0452,-1.5314 -2.15939,-3.50277 -1.65883,-4.95075 0.57455,-1.66203 2.54592,-3.96299 5.26119,-3.88707 1.83231,0.0512 3.19266,2.19354 4.63831,2.02575 1.40722,-0.16333 1.59529,-2.86699 3.0052,-3.00521 z" style="fill:#cbc9bd;fill-opacity:0.49803922"/>
  <path d="m 144.375,191.59375 c -2.53171,0.0229 -10.04259,7.99413 -10.34375,10.75 -0.13073,1.1963 1.0299,2.75354 2.59375,4.09375 3.65447,-0.57389 7.23677,-1.37704 10.71875,-2.40625 1.28919,-1.78779 2.30712,-3.75371 2.4375,-5.34375 0.33268,-4.05725 -2.88963,-7.11655 -5.40625,-7.09375 z" style="fill:#cbc9bd;fill-opacity:0.49803922"/>
  <path d="m 144.61097,140.37412 c 10.5842,8.97136 4.84217,4.54138 0.40621,11.86413 -1.47278,2.43124 0.92257,7.11291 -0.26592,8.5595 -1.01461,1.23495 -4.46152,-1.04537 -7.40987,0.16117 -2.94836,1.20654 -4.06857,4.83626 -6.54593,4.51937 -2.57398,-0.32925 -9.1603,-7.09812 -9.0165,-10.32578 0.15865,-3.56108 6.45428,-8.30829 8.54057,-10.97066 2.08629,-2.66237 -2.5309,-5.24106 -0.56592,-6.98639 1.59982,-1.42098 8.32631,-2.35718 14.85736,3.17866 z" style="fill:#cbc9bd;fill-opacity:0.49803922"/>
</svg>
