<?xml version="1.0" encoding="UTF-8" standalone="no"?>
<svg xmlns="http://www.w3.org/2000/svg" width="62" height="62" version="1.1">
  <g transform="translate(-164,-396.36218)">
    <path style="fill:#ffffff;stroke:#000000;stroke-width:2" d="m 60.5,30.487181 c 0,16.568542 -13.431458,30 -30,30 -16.568542,0 -30,-13.431458 -30,-30 0,-16.568543 13.431458,-30.00000029 30,-30.00000029 16.568542,0 30,13.43145729 30,30.00000029 z" transform="translate(164.5,396.875)"/>
    <path style="fill:#303030;stroke:#000000;stroke-width:2" d="m 220,427.36218 c 0,13.80712 -11.19288,25 -25,25 -13.80712,0 -25,-11.19288 -25,-25 0,-13.80712 11.19288,-25 25,-25 13.80712,0 25,11.19288 25,25 z"/>
    <path d="m 210.60874,427.16026 c -0.27006,-5.92567 -0.88089,-8.17579 -1.28565,-8.17579 -0.41083,0 -0.54011,3.28215 -1.08002,6.18253 -0.54012,2.89369 -1.49107,6.17531 -1.49107,6.17531 l -2.43031,-0.77263 c 0,0 -0.68132,-4.18726 -0.95117,-9.20528 -0.26377,-5.01821 -0.4694,-9.40081 -1.22124,-9.40081 -0.73359,-0.005 -0.87437,4.12049 -1.14444,9.46688 -0.27027,5.3433 -1.21493,8.3027 -1.21493,8.3027 l -2.23053,-0.25941 c 0,0 -1.08024,-4.63459 -1.48544,-18.79163 C 195.98004,407.33153 195,406.6592 195,406.6592 c 0,0 -0.98046,0.67233 -1.07438,4.02291 -0.40476,14.15706 -1.49108,18.79165 -1.49108,18.79165 l -2.22489,0.25942 c 0,0 -0.95052,-2.95941 -1.22057,-8.30271 -0.27005,-5.3464 -0.40541,-9.47213 -1.14444,-9.46688 -0.74576,0 -0.95138,4.38261 -1.22753,9.40081 -0.26375,5.018 -0.93924,9.20528 -0.93924,9.20528 l -2.4303,0.77264 c 0,0 -0.95052,-3.28163 -1.49064,-6.17532 -0.53991,-2.90038 -0.67527,-6.18253 -1.08003,-6.18253 -0.40519,0 -1.01538,2.25012 -1.28565,8.17579 -0.27006,5.91826 -0.33448,7.07518 -0.33448,7.07518 0,0 4.18204,1.76067 8.76702,6.31718 4.59365,4.55381 6.21354,8.50784 6.23697,8.94683 0.0408,0.68135 0.93924,0.76809 0.93924,0.76809 0,0 0.78089,-0.0867 0.93923,-0.76809 0.0996,-0.43585 1.64352,-4.39302 6.23654,-8.94683 4.58563,-4.55651 8.76746,-6.31718 8.76746,-6.31718 0,0 -0.0649,-1.15692 -0.33449,-7.07518" style="fill:#ffffff;stroke:#000000;stroke-width:2"/>
  </g>
</svg>
