<?xml version="1.0" encoding="UTF-8" standalone="no"?>
<svg xmlns:svg="http://www.w3.org/2000/svg" xmlns="http://www.w3.org/2000/svg" xmlns:xlink="http://www.w3.org/1999/xlink" version="1.1" width="347" height="347">
  <linearGradient id="linearGradient3035">
    <stop style="stop-color:#8b7746" offset="0"/>
    <stop style="stop-color:#7e6c3c" offset="0.2"/>
    <stop style="stop-color:#655124" offset="0.69999999"/>
    <stop style="stop-color:#402c03" offset="1"/>
  </linearGradient>
  <radialGradient cx="176.06963" cy="171.9738" r="154.41499" fx="176.06963" fy="171.9738" id="radialGradient3041" xlink:href="#linearGradient3035" gradientUnits="userSpaceOnUse" gradientTransform="matrix(1,-3.5144498e-6,6.2864319e-8,1.0000001,-2.5696325,1.5268102)"/>
  <path d="m 347,173.5 a 173.5,173.5 0 0 1 -347,0 173.5,173.5 0 1 1 347,0 z" style="fill:#402c03"/>
  <path d="m 340.06,173.5 a 166.56,166.56 0 0 1 -333.12,0 166.56,166.56 0 1 1 333.12,0 z" style="fill:#ffffff"/>
  <path d="m 327.915,173.5 a 154.415,154.415 0 0 1 -308.83,0 154.415,154.415 0 1 1 308.83,0 z" style="fill:url(#radialGradient3041)"/>
  <path d="m 139.6779,271.46096 c -34.44484,-3.31474 -68.29621,-12.15621 -82.46665,-21.54732 -14.859651,-9.84713 -12.570416,-20.11232 9.768222,-43.75916 20.063222,-21.22191 29.278442,-39.0036 42.294978,-81.5317 8.56438,-27.928851 16.43814,-45.483817 21.77399,-48.45194 8.229,-4.578122 13.91228,2.012902 24.82102,28.9258 11.58377,28.56806 21.52144,45.89417 33.76812,58.94045 3.71126,3.94831 7.3014,6.61045 8.88032,6.61045 3.138,0 7.73548,-5.48586 15.98425,-19.08219 6.66992,-10.99192 11.76093,-14.48464 19.53602,-13.26095 7.20274,0.98706 12.62955,8.24843 19.00371,24.99648 3.00005,7.85393 7.30142,17.93769 9.53118,22.47828 4.22422,8.46605 14.97781,23.91328 16.655,23.96287 2.0129,0.0421 16.41872,14.60275 18.43127,18.51011 6.03845,11.80063 -2.86214,22.2516 -25.79392,30.06421 -27.52838,9.41266 -52.40628,13.14242 -91.25209,13.79368 -15.92476,0.17254 -34.36206,-0.0421 -40.92554,-0.78879 z" style="fill:#ffffff"/>
</svg>
