<?xml version="1.0" encoding="utf-8"?>
<svg xmlns="http://www.w3.org/2000/svg" version="1.1" x="0px" y="0px" width="347px" height="347px" viewBox="-164.8 -164.8 347 347">
  <path d="M182.2,8.7c0,95.821-77.679,173.5-173.5,173.5S-164.8,104.521-164.8,8.7S-87.121-164.8,8.7-164.8  S182.2-87.121,182.2,8.7z"/>
  <path fill="#FFFFFF" d="M175.26,8.7c0,91.988-74.571,166.561-166.56,166.561c-91.989,0-166.56-74.572-166.56-166.561  c0-91.989,74.571-166.56,166.56-166.56C100.688-157.86,175.26-83.289,175.26,8.7z"/>
  <path d="M163.115,8.7c0,85.281-69.134,154.415-154.415,154.415S-145.715,93.981-145.715,8.7  S-76.581-145.715,8.7-145.715S163.115-76.581,163.115,8.7z"/>
  <path fill="#FFFFFF" d="M6.249,128.048c-34.019-15.446-67.202-53.45-72.815-83.376C-79.356-23.581-54.291-78.1,3.529-107.663  l29.09-14.889L9.59-122.659c-36.824-0.193-88.624,27.635-109.146,58.634c-57.025,86.203,4.114,204.07,105.87,204.07h26.306  L6.249,128.048z"/>
</svg>
