<?xml version="1.0" encoding="utf-8"?>
<svg xmlns="http://www.w3.org/2000/svg" xmlns:xlink="http://www.w3.org/1999/xlink" version="1.1" x="0px" y="0px" width="347px" height="347px" viewBox="0 0 347 347">
    <path fill="#FFFFFF" d="M173.5,5.914C80.77,5.914,5.597,81.086,5.597,173.816   S80.77,341.721,173.5,341.721s167.903-75.174,167.903-167.904S266.23,5.914,173.5,5.914z M173.5,33.898   c77.275,0,139.92,62.643,139.92,139.918s-62.645,139.92-139.92,139.92S33.581,251.092,33.581,173.816S96.225,33.898,173.5,33.898z"/>
    <path fill="#7D7B71" d="M173.5,347.317C77.832,347.317,0,269.485,0,173.816c0-95.668,77.832-173.5,173.5-173.5   S347,78.148,347,173.816C347,269.485,269.168,347.317,173.5,347.317z M173.5,11.51c-89.496,0-162.307,72.811-162.307,162.307   c0,89.497,72.811,162.308,162.307,162.308s162.307-72.811,162.307-162.308C335.807,84.32,262.996,11.51,173.5,11.51z    M173.5,319.333c-80.237,0-145.516-65.278-145.516-145.517c0-80.237,65.278-145.516,145.516-145.516   c80.238,0,145.517,65.278,145.517,145.516C319.017,254.055,253.738,319.333,173.5,319.333z M173.5,39.494   c-74.065,0-134.322,60.257-134.322,134.322c0,74.066,60.257,134.323,134.322,134.323c74.066,0,134.323-60.257,134.323-134.323   C307.823,99.751,247.566,39.494,173.5,39.494z"/>
    <path fill="#7D7B71" d="M173.096,22.639   C74.709,19.25-4.133,127.523,29.82,220.012c26.232,94.334,152.514,136.756,230.342,77.316   c82.404-52.924,85.572-186.119,5.783-242.902C239.803,33.672,206.391,22.668,173.096,22.639L173.096,22.639z"/>
    <path fill="#FFFFFF" d="   M95.146,173.746c0-40.184,35.08-72.76,78.354-72.76s78.354,32.576,78.354,72.76l0,0H173.5H95.146z"/>
    <path fill="#7D7B71" d="M257.451,179.343H89.549v-5.597c0-43.205,37.66-78.355,83.951-78.355s83.951,35.15,83.951,78.355V179.343z    M100.992,168.149h145.016c-3.092-34.425-34.432-61.565-72.508-61.565S104.084,133.725,100.992,168.149z"/>
    <path fill="#FFFFFF" d="M173.5,145.762   c55.968,0,100.742,33.58,100.742,33.58s-39.074,27.881-55.968,44.773c-16.894,16.895-44.774,55.969-44.774,55.969   s-27.881-39.074-44.774-55.969c-16.894-16.893-55.968-44.773-55.968-44.773S117.532,145.762,173.5,145.762L173.5,145.762z"/>
    <path fill="#7D7B71" d="M173.5,289.719l-4.556-6.384c-0.276-0.387-27.808-38.893-44.177-55.263   c-16.375-16.374-54.874-43.898-55.261-44.175l-6.228-4.443l6.12-4.59c1.89-1.417,46.925-34.7,104.101-34.7   s102.211,33.283,104.101,34.7l6.119,4.59l-6.227,4.443c-0.387,0.276-38.893,27.808-55.262,44.176   c-16.368,16.369-43.899,54.875-44.176,55.262L173.5,289.719z M82.536,179.517c11.945,8.748,37.159,27.654,50.146,40.641   c13.076,13.076,32.148,38.543,40.817,50.387c8.669-11.844,27.741-37.311,40.816-50.386c12.985-12.984,38.19-31.885,50.14-40.636   c-14.054-8.825-49.574-28.165-90.956-28.165C132.02,151.357,96.563,170.689,82.536,179.517z"/>
</svg>
