<?xml version="1.0" encoding="UTF-8" standalone="no"?>
<svg xmlns="http://www.w3.org/2000/svg" width="62" height="62" version="1.1">
  <g transform="translate(-164,-396.375)">
    <path style="fill:#ffffff;stroke:#000000;stroke-width:2" d="m 195,397.375 c -16.56854,0 -30,13.43146 -30,30 0,16.56854 13.43146,30 30,30 16.56854,0 30,-13.43146 30,-30 0,-16.56854 -13.43146,-30 -30,-30 z m 0,5 c 13.80712,0 25,11.19288 25,25 0,13.80712 -11.19288,25 -25,25 -13.80712,0 -25,-11.19288 -25,-25 0,-13.80712 11.19288,-25 25,-25 z"/>
    <path style="fill-opacity:0.50196078;" d="m 220,427.36218 c 0,13.80712 -11.19288,25 -25,25 -13.80712,0 -25,-11.19288 -25,-25 0,-13.80712 11.19288,-25 25,-25 13.80712,0 25,11.19288 25,25 z"/>
    <path style="fill:#ffffff;stroke:#000000;stroke-width:2" d="m 181,427.36218 c 0,-7.1797 6.26801,-13 14,-13 7.73199,0 14,5.8203 14,13 l -14,0 z"/>
    <path style="fill:#ffffff;stroke:#000000;stroke-width:2" d="m 195,422.36218 c 10,0 18,6 18,6 0,0 -6.98154,4.98154 -10,8 -3.01846,3.01846 -8,10 -8,10 0,0 -4.98154,-6.98154 -8,-10 -3.01846,-3.01846 -10,-8 -10,-8 0,0 8,-6 18,-6 z"/>
  </g>
</svg>
