<?xml version="1.0" encoding="utf-8"?>
<svg xmlns="http://www.w3.org/2000/svg" xmlns:xlink="http://www.w3.org/1999/xlink" version="1.1" x="0px" y="0px" width="347px" height="347px" viewBox="0 0 347 347">
    <path fill="#FFFFFF" d="M173.863,5.598C81.133,5.598,5.96,80.77,5.96,173.5   s75.173,167.904,167.903,167.904S341.767,266.23,341.767,173.5S266.594,5.598,173.863,5.598z M173.863,33.582   c77.275,0,139.92,62.643,139.92,139.918s-62.645,139.92-139.92,139.92S33.944,250.775,33.944,173.5S96.588,33.582,173.863,33.582z"/>
    <path fill="#1F2352" d="M173.863,347.001c-95.668,0-173.5-77.832-173.5-173.501C0.363,77.832,78.195,0,173.863,0   s173.5,77.832,173.5,173.5C347.363,269.169,269.531,347.001,173.863,347.001z M173.863,11.193   c-89.496,0-162.307,72.811-162.307,162.307c0,89.497,72.811,162.308,162.307,162.308S336.17,262.997,336.17,173.5   C336.17,84.004,263.359,11.193,173.863,11.193z M173.863,319.017c-80.237,0-145.516-65.278-145.516-145.517   c0-80.237,65.278-145.516,145.516-145.516c80.238,0,145.517,65.278,145.517,145.516   C319.38,253.738,254.102,319.017,173.863,319.017z M173.863,39.178c-74.065,0-134.322,60.257-134.322,134.322   c0,74.066,60.257,134.323,134.322,134.323c74.066,0,134.323-60.257,134.323-134.323C308.187,99.435,247.93,39.178,173.863,39.178z"/>
    <path fill="#1F2352" d="M173.459,22.322   C75.072,18.934-3.77,127.207,30.184,219.695c26.232,94.334,152.514,136.756,230.342,77.316   c82.404-52.924,85.572-186.119,5.783-242.902C240.166,33.355,206.754,22.352,173.459,22.322L173.459,22.322z"/>
    <path fill="#FFFFFF" d="   M95.509,173.43c0-40.184,35.08-72.76,78.354-72.76s78.354,32.576,78.354,72.76l0,0h-78.354H95.509z"/>
    <path fill="#1F2352" d="M257.814,179.026H89.912v-5.597c0-43.205,37.66-78.355,83.951-78.355s83.951,35.15,83.951,78.355V179.026z    M101.355,167.833h145.016c-3.092-34.425-34.432-61.565-72.508-61.565S104.447,133.408,101.355,167.833z"/>
    <path fill="#FFFFFF" d="M173.863,145.445   c55.968,0,100.742,33.58,100.742,33.58s-39.074,27.881-55.968,44.773c-16.894,16.895-44.774,55.969-44.774,55.969   s-27.881-39.074-44.774-55.969c-16.894-16.893-55.968-44.773-55.968-44.773S117.896,145.445,173.863,145.445L173.863,145.445z"/>
    <path fill="#1F2352" d="M173.863,289.402l-4.556-6.384c-0.276-0.387-27.808-38.893-44.177-55.263   c-16.375-16.374-54.874-43.898-55.261-44.175l-6.228-4.443l6.12-4.59c1.89-1.417,46.925-34.7,104.101-34.7   s102.211,33.283,104.101,34.7l6.119,4.59l-6.227,4.443c-0.387,0.276-38.893,27.808-55.262,44.176   c-16.368,16.369-43.899,54.875-44.176,55.262L173.863,289.402z M82.899,179.2c11.945,8.748,37.159,27.654,50.146,40.641   c13.076,13.076,32.148,38.543,40.817,50.387c8.669-11.844,27.741-37.311,40.816-50.386c12.985-12.984,38.19-31.885,50.14-40.636   c-14.054-8.825-49.574-28.165-90.956-28.165C132.383,151.041,96.927,170.373,82.899,179.2z"/>
</svg>
