<?xml version="1.0" encoding="UTF-8" standalone="no"?>
<svg xmlns="http://www.w3.org/2000/svg" width="118.13182pt" height="118pt" viewBox="0 0 118.13182 118" version="1.1">
  <path d="m 21.66316,20.73 c -10.93,11.15 -16.71,26.73 -16.97,42.23 14.94,1.41 29.33,9.16 38.1,21.43 5.99,8.44 8.6,18.78 9.33,28.98 h 13.88 c 0.73,-10.2 3.34,-20.55 9.34,-28.99 8.76,-12.26 23.16,-20.01 38.09,-21.42 -0.26,-15.52 -6.05,-31.11 -17,-42.26 -9.65,-10.06 -23.4,-16.14 -37.38,-16.05 -13.99,-0.09 -27.74,6.01 -37.39,16.08 z" style="fill:#ffffff"/>
  <path d="M 54.75293,0 C 41.082931,1.28 27.922833,7.4093557 18.402832,17.339356 5.4828322,30.429356 -0.75675781,49.180645 0.07324219,67.410645 c 15.04999981,0.15 30.04937581,7.358711 38.85937581,19.678711 6.33,8.960003 8.45041,20.131134 8.67041,30.911134 h 22.92041 c 0.22,-10.77 2.339903,-21.930626 8.649901,-30.890629 8.810002,-12.339997 23.820141,-19.53947 38.890141,-19.709469 0.78,-17.750001 -5.08987,-36.00004 -17.35987,-49.04004 C 91.063614,7.8303519 77.432911,1.25 63.232911,0 Z m 4.300782,4.6494142 c 13.98,-0.09 27.729884,5.9902928 37.379879,16.0502928 10.949999,11.15 16.739509,26.740743 16.999519,42.260743 -14.930006,1.41 -29.330336,9.158946 -38.090336,21.418946 -6,8.439998 -8.609843,18.790724 -9.339844,28.990724 H 52.123536 c -0.73,-10.2 -3.341055,-20.540474 -9.331055,-28.980471 -8.77,-12.27 -23.159122,-20.019199 -38.0991216,-21.429199 0.2600001,-15.5 6.0402146,-31.079981 16.9702156,-42.229981 9.649999,-10.07 23.400137,-16.1710548 37.390137,-16.0810548 z m -0.04687,1.1132812 -0.84375,7.1777346 -0.306153,4.067871 c 0,0 -1.284365,14.044844 -2.154785,20.762696 -0.66357,4.717326 -1.318779,9.048521 -2.068359,13.148437 l -3.720704,0.458496 -3.912597,-31.322754 -0.297363,-3.675293 -1.82959,14.258789 c 0,0 -0.343724,2.671493 -0.505371,3.814453 -0.704843,4.985902 -1.58729,9.945842 -2.655762,14.8667 -0.306218,1.391612 -0.652318,2.889198 -0.959473,4.136719 l -3.196289,1.022461 C 35.638948,51.641464 34.949748,48.754783 34.379883,45.843751 33.587186,41.611157 32.474121,33.0542 32.474121,33.0542 L 31.64209,27.650391 29.289551,50.21338 28.372559,60.760255 c 4.27e-4,1.56e-4 0.0022,-1.57e-4 0.0029,0 -5.85e-4,0.0063 -0.0022,0.0127 -0.0029,0.01904 4.898512,1.783983 9.38073,4.586692 13.265625,8.050782 0.466545,0.420901 0.931698,0.843833 1.379883,1.284668 0.0096,0.0095 0.02116,0.01838 0.03076,0.02783 0.0075,0.0072 0.01455,0.01475 0.02198,0.02197 2.17284,2.144176 4.11486,4.523955 5.816895,7.067867 4.182248,6.382748 6.687565,13.706138 8.200196,21.237308 4.87e-4,0.0023 7.15e-4,0.0053 0.0015,0.0075 0.496327,2.79067 0.874645,5.60586 1.305175,8.40235 l 0.61377,4.48827 0.61377,-4.48388 c 0.43233,-2.8077 0.811782,-5.63436 1.311035,-8.436035 1.513462,-7.525395 4.020062,-14.842028 8.200195,-21.219728 1.69758,-2.53652 3.633534,-4.909705 5.799316,-7.048823 0.02872,-0.02792 0.0576,-0.05565 0.08643,-0.0835 0.441067,-0.433263 0.897615,-0.850186 1.356442,-1.26416 3.88527,-3.464759 8.369355,-6.268015 13.268558,-8.052247 -5.78e-4,-0.0063 -7.13e-4,-0.0127 -0.0015,-0.01904 0,0 0.0015,0 0.0015,0 -0.293453,-3.486707 -0.91113,-10.46045 -0.91113,-10.46045 L 86.373091,27.650563 85.545459,33.02361 c -0.59643,4.277943 -1.11426,8.576598 -1.908698,12.818848 -0.569925,2.911546 -1.258897,5.798685 -2.176755,8.636719 -1.07337,-0.321669 -3.19629,-1.020996 -3.19629,-1.020996 -0.357525,-1.47272 -0.6579,-2.759606 -0.95508,-4.110352 -1.071247,-4.930145 -1.955497,-9.899435 -2.661662,-14.894715 L 74.129884,30.5537 72.312013,16.379872 c -0.07417,1.174138 -0.206377,2.407767 -0.290039,3.581543 -0.832853,10.525592 -1.881363,21.043633 -3.919923,31.416504 -1.236585,-0.149587 -2.474142,-0.298936 -3.720702,-0.458496 -0.794318,-4.449018 -1.54444,-9.242811 -2.06836,-13.148437 C 61.400426,30.836596 60.158204,17.00829 60.158204,17.00829 l -0.306153,-4.06786 z" style="fill:#000000"/>
</svg>
