<?xml version="1.0" encoding="UTF-8" ?>
<svg width="300pt" height="175pt" viewBox="0 0 300 175" version="1.1" xmlns="http://www.w3.org/2000/svg">
<path d=" M 126.95 0.00 L 138.38 0.00 C 154.77 1.14 170.71 5.86 185.81 12.19 C 219.65 26.53 250.09 47.69 278.97 70.18 C 286.07 75.75 293.08 81.45 300.00 87.27 L 300.00 87.66 C 271.61 111.59 241.69 134.03 208.98 151.74 C 187.04 163.38 163.42 173.18 138.39 175.00 L 126.88 175.00 C 111.66 174.02 96.55 168.20 85.45 157.58 C 75.39 148.31 68.45 136.16 63.61 123.48 C 49.97 146.49 26.37 163.70 0.00 168.72 L 0.00 6.32 C 26.35 11.33 49.96 28.54 63.62 51.52 C 68.36 39.07 75.13 27.12 84.91 17.93 C 96.06 6.95 111.45 0.97 126.95 0.00 M 119.96 12.22 C 104.99 15.48 93.16 26.75 85.56 39.61 C 77.41 53.31 72.48 68.76 69.86 84.43 C 74.80 79.61 80.57 75.60 86.98 73.01 C 98.26 68.39 110.92 68.82 122.63 71.46 C 144.67 76.41 164.63 87.59 186.29 93.73 C 198.83 97.35 212.03 97.99 224.99 97.03 C 243.98 95.62 262.70 91.33 280.69 85.16 C 274.96 80.87 269.11 76.76 263.24 72.68 C 233.72 52.55 203.11 33.49 169.86 20.12 C 154.08 14.25 136.93 8.52 119.96 12.22 Z" />
<path d="m 119.96,12.22 c -14.97,3.26 -26.8,14.53 -34.4,27.39 -8.15,13.7 -13.08,29.15 -15.7,44.82 4.94,-4.82 10.71,-8.83 17.12,-11.42 11.28,-4.62 23.94,-4.19 35.65,-1.55 22.04,4.95 42,16.13 63.66,22.27 12.54,3.62 25.74,4.26 38.7,3.3 18.99,-1.41 37.71,-5.7 55.7,-11.87 -5.73,-4.29 -11.58,-8.4 -17.45,-12.48 -29.52,-20.13 -60.13,-39.19 -93.38,-52.56 -15.78,-5.87 -32.93,-11.6 -49.9,-7.9 z"
     style="fill:#ffffff" />
</svg>
