<svg xmlns="http://www.w3.org/2000/svg" viewBox="0 0 90 90">
  <path d="M69.1 27.7c8.5 3.1 16.1 9.1 20.9 17.5.2-6.9-13.2-24.8-32.8-27.2 9-1.6 18.5-.2 26.9 4.7-3.2-6.1-23.8-14.8-42-7.1 7-5.9 15.9-9.4 25.6-9.4-5.9-3.7-28.1-.9-39.9 14.8 3-8.6 9-16.2 17.4-21C38.3-.2 20.4 13.2 18 32.8c-1.6-9-.2-18.5 4.7-26.9-6.1 3.2-14.8 23.8-7.1 42-5.9-7-9.4-15.9-9.4-25.6-3.7 5.9-.9 28.1 14.8 39.9-8.6-3-16.2-9-21-17.4-.2 6.9 13.2 24.8 32.8 27.2-9 1.6-18.5.2-26.9-4.7 3.2 6.1 23.8 14.8 42 7.1-7 5.9-15.9 9.4-25.6 9.4 5.9 3.7 28.1.9 39.9-14.8-3.1 8.5-9.1 16.1-17.5 20.9 6.9.2 24.8-13.2 27.2-32.8 1.6 9 .2 18.5-4.7 26.9 6.1-3.2 14.8-23.8 7.1-42 5.9 7 9.4 15.9 9.4 25.6 3.8-5.8 1.1-28-14.6-39.9zM45 65.8c-11.5 0-20.8-9.3-20.8-20.8S33.5 24.2 45 24.2 65.8 33.5 65.8 45 56.5 65.8 45 65.8z" fill-rule="nonzero"/>
</svg>
