<?xml version="1.0" encoding="UTF-8"?>
<svg xmlns="http://www.w3.org/2000/svg" width="163pt" height="300pt" viewBox="0 0 163 300" version="1.1">
  <g>
    <path fill="#ffffff" stroke="#ffffff" stroke-width="0.09375" d=" M 65.61 8.96 C 69.78 5.13 75.67 4.67 81.05 4.52 C 86.84 4.52 93.30 4.88 97.63 9.25 C 101.42 9.07 105.21 8.82 109.00 8.57 C 109.00 17.05 109.00 25.52 109.00 34.00 C 108.23 34.00 106.70 34.00 105.94 34.00 C 108.93 45.78 108.36 58.13 106.20 70.00 C 118.43 70.00 130.66 70.01 142.89 69.99 C 149.42 77.09 156.60 83.55 163.00 90.77 L 163.00 140.22 C 154.51 131.11 145.42 122.58 136.91 113.49 C 132.10 113.51 127.30 113.49 122.49 113.51 C 119.71 150.32 117.00 187.13 114.30 223.94 C 114.16 226.98 112.39 229.57 111.22 232.28 C 101.35 253.40 91.55 274.55 81.68 295.67 C 71.17 273.10 60.67 250.53 50.15 227.97 C 49.41 226.46 49.13 224.79 49.02 223.13 C 46.35 186.58 43.58 150.04 40.91 113.48 C 36.17 113.51 31.42 113.51 26.67 113.48 C 17.78 122.39 8.80 131.22 0.00 140.22 L 0.00 90.94 C 6.88 83.88 13.93 77.00 20.87 70.00 C 32.97 70.00 45.08 70.00 57.18 70.00 C 55.04 58.14 54.45 45.77 57.45 34.00 C 56.59 34.00 54.86 34.00 54.00 34.00 C 54.00 25.52 54.00 17.03 54.00 8.55 C 57.87 8.79 61.74 8.72 65.61 8.96 M 69.01 16.22 C 65.84 16.27 62.67 16.25 59.50 16.26 C 59.51 21.25 59.50 26.25 59.50 31.25 C 61.24 31.25 62.97 31.25 64.70 31.24 C 58.96 45.26 60.20 61.00 63.32 75.50 C 50.32 75.52 37.31 75.47 24.31 75.52 C 18.66 81.24 12.97 86.91 7.27 92.58 C 7.24 103.44 7.23 114.31 7.27 125.18 C 12.35 119.56 17.35 113.87 22.44 108.27 C 23.25 107.10 24.81 107.62 25.97 107.47 C 32.63 107.50 39.28 107.52 45.93 107.48 C 49.02 145.03 51.57 182.65 54.84 220.18 C 63.52 239.61 72.73 258.83 81.67 278.15 C 90.10 260.32 98.30 242.39 106.69 224.54 C 107.62 222.50 108.79 220.46 108.83 218.15 C 111.60 181.26 114.23 144.36 117.08 107.47 C 124.66 107.51 132.25 107.52 139.84 107.47 C 145.32 113.15 150.73 118.88 156.20 124.57 C 156.32 114.01 156.22 103.44 156.25 92.88 C 150.46 87.08 144.67 81.28 138.86 75.49 C 125.80 75.51 112.74 75.51 99.68 75.49 C 102.97 61.04 104.41 45.27 98.65 31.24 C 100.26 31.25 101.88 31.25 103.50 31.26 C 103.50 26.26 103.49 21.26 103.50 16.26 C 100.32 16.25 97.14 16.27 93.96 16.23 C 93.29 14.98 92.60 13.48 91.04 13.20 C 86.43 11.93 81.58 12.14 76.85 12.40 C 73.93 12.70 70.16 12.98 69.01 16.22 Z"/>
    <path fill="#ffffff" stroke="#ffffff" stroke-width="0.09375" d=" M 67.25 21.25 C 76.83 21.25 86.42 21.25 96.00 21.25 C 96.00 22.75 96.00 24.26 95.99 25.76 C 92.85 25.89 89.59 26.04 86.97 24.00 C 82.56 23.84 77.27 22.55 73.60 25.72 C 71.49 25.75 69.37 25.75 67.25 25.75 C 67.25 24.25 67.25 22.75 67.25 21.25 Z"/>
    <path fill="#ffffff" stroke="#ffffff" stroke-width="0.09375" d=" M 76.39 34.47 C 80.05 34.14 83.88 33.94 87.50 34.60 C 91.00 36.00 90.35 41.26 86.85 42.15 C 83.25 42.32 79.61 42.46 76.03 42.02 C 72.62 40.72 72.65 35.28 76.39 34.47 Z"/>
    <path fill="#ffffff" stroke="#ffffff" stroke-width="0.09375" d=" M 75.29 50.20 C 78.62 48.86 82.42 49.63 85.94 49.57 C 89.81 49.38 91.47 55.32 87.89 57.01 C 84.42 58.04 80.64 57.37 77.04 57.45 C 73.36 57.43 72.16 51.98 75.29 50.20 Z"/>
    <path fill="#ffffff" stroke="#ffffff" stroke-width="0.09375" d=" M 76.16 66.15 C 79.91 65.55 83.91 65.37 87.62 66.28 C 90.98 67.65 90.40 72.94 86.94 73.76 C 83.36 74.11 79.61 74.32 76.08 73.64 C 72.67 72.60 72.56 67.00 76.16 66.15 Z"/>
    <path fill="#ffffff" stroke="#ffffff" stroke-width="0.09375" d=" M 29.21 85.03 C 43.87 84.97 58.53 85.00 73.19 85.01 C 74.45 86.95 76.65 87.96 78.96 87.76 C 82.78 87.55 87.74 88.91 90.17 85.03 C 104.82 84.96 119.47 85.02 134.13 85.00 C 137.99 88.84 141.82 92.73 145.72 96.54 C 145.76 99.57 145.75 102.59 145.75 105.61 C 141.97 101.84 138.18 98.07 134.43 94.27 C 121.78 94.23 109.14 94.26 96.50 94.25 C 96.50 96.33 96.50 98.42 96.50 100.50 C 86.42 100.50 76.33 100.50 66.25 100.50 C 66.25 98.41 66.25 96.33 66.25 94.25 C 53.98 94.24 41.70 94.27 29.43 94.24 C 25.38 97.85 21.55 101.70 17.49 105.31 C 17.50 102.27 17.51 99.24 17.46 96.20 C 21.25 92.35 25.35 88.81 29.21 85.03 Z"/>
    <path fill="#ffffff" stroke="#ffffff" stroke-width="0.09375" d=" M 65.00 112.25 C 76.09 112.27 87.18 112.22 98.26 112.27 C 98.24 116.58 98.25 120.88 98.25 125.19 C 92.72 129.98 87.22 134.80 81.68 139.59 C 76.11 134.78 70.60 129.90 65.00 125.13 C 65.00 120.83 65.00 116.54 65.00 112.25 Z"/>
    <path fill="#ffffff" stroke="#ffffff" stroke-width="0.09375" d=" M 64.73 144.90 C 70.38 150.03 76.00 155.19 81.60 160.38 C 87.38 155.35 92.92 150.05 98.60 144.91 C 97.19 166.31 95.79 187.72 94.41 209.12 C 94.34 210.83 93.77 212.46 93.03 213.99 C 89.20 222.18 85.46 230.41 81.69 238.62 C 77.79 230.10 73.88 221.58 69.91 213.09 C 69.26 211.76 68.96 210.30 68.93 208.82 C 67.54 187.52 66.21 166.20 64.73 144.90 Z"/>
  </g>
  <g>
    <path stroke="#000000" stroke-width="0.09375" d=" M 69.01 16.22 C 70.16 12.98 73.93 12.70 76.85 12.40 C 81.58 12.14 86.43 11.93 91.04 13.20 C 92.60 13.48 93.29 14.98 93.96 16.23 C 97.14 16.27 100.32 16.25 103.50 16.26 C 103.49 21.26 103.50 26.26 103.50 31.26 C 101.88 31.25 100.26 31.25 98.65 31.24 C 104.41 45.27 102.97 61.04 99.68 75.49 C 112.74 75.51 125.80 75.51 138.86 75.49 C 144.67 81.28 150.46 87.08 156.25 92.88 C 156.22 103.44 156.32 114.01 156.20 124.57 C 150.73 118.88 145.32 113.15 139.84 107.47 C 132.25 107.52 124.66 107.51 117.08 107.47 C 114.23 144.36 111.60 181.26 108.83 218.15 C 108.79 220.46 107.62 222.50 106.69 224.54 C 98.30 242.39 90.10 260.32 81.67 278.15 C 72.73 258.83 63.52 239.61 54.84 220.18 C 51.57 182.65 49.02 145.03 45.93 107.48 C 39.28 107.52 32.63 107.50 25.97 107.47 C 24.81 107.62 23.25 107.10 22.44 108.27 C 17.35 113.87 12.35 119.56 7.27 125.18 C 7.23 114.31 7.24 103.44 7.27 92.58 C 12.97 86.91 18.66 81.24 24.31 75.52 C 37.31 75.47 50.32 75.52 63.32 75.50 C 60.20 61.00 58.96 45.26 64.70 31.24 C 62.97 31.25 61.24 31.25 59.50 31.25 C 59.50 26.25 59.51 21.25 59.50 16.26 C 62.67 16.25 65.84 16.27 69.01 16.22 M 67.25 21.25 C 67.25 22.75 67.25 24.25 67.25 25.75 C 69.37 25.75 71.49 25.75 73.60 25.72 C 77.27 22.55 82.56 23.84 86.97 24.00 C 89.59 26.04 92.85 25.89 95.99 25.76 C 96.00 24.26 96.00 22.75 96.00 21.25 C 86.42 21.25 76.83 21.25 67.25 21.25 M 76.39 34.47 C 72.65 35.28 72.62 40.72 76.03 42.02 C 79.61 42.46 83.25 42.32 86.85 42.15 C 90.35 41.26 91.00 36.00 87.50 34.60 C 83.88 33.94 80.05 34.14 76.39 34.47 M 75.29 50.20 C 72.16 51.98 73.36 57.43 77.04 57.45 C 80.64 57.37 84.42 58.04 87.89 57.01 C 91.47 55.32 89.81 49.38 85.94 49.57 C 82.42 49.63 78.62 48.86 75.29 50.20 M 76.16 66.15 C 72.56 67.00 72.67 72.60 76.08 73.64 C 79.61 74.32 83.36 74.11 86.94 73.76 C 90.40 72.94 90.98 67.65 87.62 66.28 C 83.91 65.37 79.91 65.55 76.16 66.15 M 29.21 85.03 C 25.35 88.81 21.25 92.35 17.46 96.20 C 17.51 99.24 17.50 102.27 17.49 105.31 C 21.55 101.70 25.38 97.85 29.43 94.24 C 41.70 94.27 53.98 94.24 66.25 94.25 C 66.25 96.33 66.25 98.41 66.25 100.50 C 76.33 100.50 86.42 100.50 96.50 100.50 C 96.50 98.42 96.50 96.33 96.50 94.25 C 109.14 94.26 121.78 94.23 134.43 94.27 C 138.18 98.07 141.97 101.84 145.75 105.61 C 145.75 102.59 145.76 99.57 145.72 96.54 C 141.82 92.73 137.99 88.84 134.13 85.00 C 119.47 85.02 104.82 84.96 90.17 85.03 C 87.74 88.91 82.78 87.55 78.96 87.76 C 76.65 87.96 74.45 86.95 73.19 85.01 C 58.53 85.00 43.87 84.97 29.21 85.03 M 65.00 112.25 C 65.00 116.54 65.00 120.83 65.00 125.13 C 70.60 129.90 76.11 134.78 81.68 139.59 C 87.22 134.80 92.72 129.98 98.25 125.19 C 98.25 120.88 98.24 116.58 98.26 112.27 C 87.18 112.22 76.09 112.27 65.00 112.25 M 64.73 144.90 C 66.21 166.20 67.54 187.52 68.93 208.82 C 68.96 210.30 69.26 211.76 69.91 213.09 C 73.88 221.58 77.79 230.10 81.69 238.62 C 85.46 230.41 89.20 222.18 93.03 213.99 C 93.77 212.46 94.34 210.83 94.41 209.12 C 95.79 187.72 97.19 166.31 98.60 144.91 C 92.92 150.05 87.38 155.35 81.60 160.38 C 76.00 155.19 70.38 150.03 64.73 144.90 Z"/>
  </g>
</svg>
