<?xml version="1.0" encoding="UTF-8"?>
<svg xmlns="http://www.w3.org/2000/svg" width="171pt" height="300pt" viewBox="0 0 171 300" version="1.1">
  <g>
    <path fill="#ffffff" stroke="#ffffff" stroke-width="0.09375" d=" M 85.48 0.00 L 85.82 0.00 C 92.08 13.53 102.04 25.48 114.93 33.14 C 129.54 41.91 146.90 46.06 163.88 45.20 C 167.82 63.45 170.09 82.03 171.00 100.67 L 171.00 123.42 C 169.37 159.59 160.69 195.63 144.00 227.86 C 129.66 255.44 110.28 280.85 85.64 300.00 L 85.01 300.00 C 59.37 279.93 39.42 253.19 24.97 224.16 C 9.55 192.79 1.50 158.10 0.00 123.26 L 0.00 100.57 C 0.97 81.96 3.17 63.39 7.17 45.18 C 21.04 46.03 35.07 43.16 47.78 37.64 C 64.48 30.38 78.12 16.63 85.48 0.00 M 84.89 13.68 C 80.25 23.45 73.65 32.37 65.09 39.04 C 50.65 50.38 31.86 55.42 13.65 54.73 C 8.01 81.27 5.65 108.61 7.81 135.70 C 10.61 172.70 22.41 209.10 42.75 240.21 C 54.25 257.59 68.00 273.76 84.64 286.42 C 112.18 264.87 132.78 235.13 145.90 202.88 C 164.97 156.14 166.32 103.70 155.90 54.73 C 135.96 55.51 115.20 49.30 100.49 35.46 C 93.82 29.38 88.98 21.65 84.89 13.68 Z"/>
    <path fill="#ffffff" stroke="#ffffff" stroke-width="0.09375" d=" M 67.08 61.92 C 74.65 56.45 80.72 48.94 84.52 40.40 C 90.53 53.12 101.27 63.58 114.48 68.60 C 123.16 72.02 132.57 73.49 141.88 73.23 C 146.61 95.82 148.50 119.11 146.14 142.10 C 143.01 174.31 131.32 205.79 111.81 231.70 C 103.97 242.17 94.97 251.85 84.62 259.88 C 60.34 240.71 42.73 213.84 32.43 184.83 C 19.81 149.15 19.47 110.07 27.26 73.29 C 41.23 73.54 55.65 70.24 67.08 61.92 M 65.50 79.15 C 65.50 83.68 65.51 88.21 65.49 92.74 C 78.16 92.76 90.83 92.75 103.51 92.74 C 103.49 88.14 103.50 83.54 103.50 78.94 C 97.13 74.05 90.95 68.92 84.53 64.11 C 78.18 69.12 71.82 74.11 65.50 79.15 M 44.57 105.24 C 41.16 120.50 40.23 136.28 41.45 151.85 C 44.02 182.48 58.05 212.37 81.35 232.66 C 82.61 233.34 84.01 235.88 85.55 234.52 C 100.93 222.10 112.40 205.20 119.62 186.88 C 129.78 161.03 130.39 132.22 124.69 105.26 C 97.98 105.23 71.27 105.27 44.57 105.24 Z"/>
  </g>
  <g>
    <path stroke="#000000" stroke-width="0.09375" d=" M 84.89 13.68 C 88.98 21.65 93.82 29.38 100.49 35.46 C 115.20 49.30 135.96 55.51 155.90 54.73 C 166.32 103.70 164.97 156.14 145.90 202.88 C 132.78 235.13 112.18 264.87 84.64 286.42 C 68.00 273.76 54.25 257.59 42.75 240.21 C 22.41 209.10 10.61 172.70 7.81 135.70 C 5.65 108.61 8.01 81.27 13.65 54.73 C 31.86 55.42 50.65 50.38 65.09 39.04 C 73.65 32.37 80.25 23.45 84.89 13.68 M 67.08 61.92 C 55.65 70.24 41.23 73.54 27.26 73.29 C 19.47 110.07 19.81 149.15 32.43 184.83 C 42.73 213.84 60.34 240.71 84.62 259.88 C 94.97 251.85 103.97 242.17 111.81 231.70 C 131.32 205.79 143.01 174.31 146.14 142.10 C 148.50 119.11 146.61 95.82 141.88 73.23 C 132.57 73.49 123.16 72.02 114.48 68.60 C 101.27 63.58 90.53 53.12 84.52 40.40 C 80.72 48.94 74.65 56.45 67.08 61.92 Z"/>
    <path stroke="#000000" stroke-width="0.09375" d=" M 65.50 79.15 C 71.82 74.11 78.18 69.12 84.53 64.11 C 90.95 68.92 97.13 74.05 103.50 78.94 C 103.50 83.54 103.49 88.14 103.51 92.74 C 90.83 92.75 78.16 92.76 65.49 92.74 C 65.51 88.21 65.50 83.68 65.50 79.15 Z"/>
    <path stroke="#000000" stroke-width="0.09375" d=" M 44.57 105.24 C 71.27 105.27 97.98 105.23 124.69 105.26 C 130.39 132.22 129.78 161.03 119.62 186.88 C 112.40 205.20 100.93 222.10 85.55 234.52 C 84.01 235.88 82.61 233.34 81.35 232.66 C 58.05 212.37 44.02 182.48 41.45 151.85 C 40.23 136.28 41.16 120.50 44.57 105.24 Z"/>
  </g>
</svg>
