<?xml version="1.0" encoding="utf-8"?>
<!-- Generator: Adobe Illustrator 15.1.0, SVG Export Plug-In . SVG Version: 6.00 Build 0)  -->
<!DOCTYPE svg PUBLIC "-//W3C//DTD SVG 1.1//EN" "http://www.w3.org/Graphics/SVG/1.1/DTD/svg11.dtd">
<svg version="1.1" id="Layer_1" xmlns="http://www.w3.org/2000/svg" xmlns:xlink="http://www.w3.org/1999/xlink" x="0px" y="0px"
	 width="140px" height="155px" viewBox="0 0 140 155" enable-background="new 0 0 140 155" xml:space="preserve">
<g id="Layer_1_1_">
</g>
<g id="Layer_3" display="none">
</g>
<g>
	<g>
		<path fill="#FFFFFF" d="M130.246,4.917l-13.604,18.809L93.494,34.078l5.414-29.561l-9.631,3.155l-9.986,21.746l-14.572,0
			c-15.167,0-27.747,2.526-38.46,7.725l-0.366,0.177l-1.075-3.176l-22.365,0l7.492,40.552l0.427,0.315l4.4,59.39l34.743,14.519
			l-0.692,3.355h28.212l43.263-22.558l8.797-58.437l0.364-0.537l8.849-68.469L130.246,4.917z"/>
	</g>
	<path fill="#010101" d="M132.234,10.622l-7.537,58.318l-53.057,78.209V84.444l15.839-14.315l0.007,0.016l24.783-10.982l0.754-4.668
		L88.795,65.229l1.385-7.559l24.051-10.657l0.754-4.668l-23.94,10.608l2.464-13.456l26.371-11.793L132.234,10.622z M109.748,71.34
		h-0.004C98.74,76.313,76.577,85.919,76.577,85.919l6.858,16.845L109.748,71.34L109.748,71.34z M122.172,83.989l-43.193,61.686
		l36.795-19.186L122.172,83.989z M82.467,34.373H71.714l-0.013,8.505h6.859l-6.92,15.069V76.43l10.855-9.813l9.845-53.743
		L82.467,34.373z M54.905,147.321h9.814v-14.085H57.81L54.905,147.321z M64.719,127.291v-5.821H53.653V94.176l-9.874,8.082l0,38.369
		l5.849,2.84l3.336-16.176H64.719z M19.487,130.97l18.265,7.426l0-36.92l-10.917-6.002l-2.831-9.146l-8.279-6.124L19.487,130.97z
		 M59.599,87.471v28.053h5.12V68.381l-9.939-3.96L59.599,87.471z M64.719,61.98v-9.833l-14.595-7.783c0,0,6.688-1.486,14.595-1.486
		v-8.505c-12.799,0-25.097,1.793-36.297,7.227l0.096,0.385l2.181,6.443L64.719,61.98z M48.153,61.781l-22.206-8.846l-4.684-13.837
		l-12.857,0l6.056,32.776l17.5,12.943H52.97L48.153,61.781z M17.482,54.482l25.796,11.432l0.897,4.731L18.355,59.204L17.482,54.482z
		 M46.08,81.044L20.277,69.61l-0.872-4.721l25.851,11.455l0.871,4.593L46.08,81.044z"/>
</g>
</svg>
