<?xml version="1.0" encoding="utf-8"?>
<!-- Generator: Adobe Illustrator 15.1.0, SVG Export Plug-In . SVG Version: 6.00 Build 0)  -->
<!DOCTYPE svg PUBLIC "-//W3C//DTD SVG 1.1//EN" "http://www.w3.org/Graphics/SVG/1.1/DTD/svg11.dtd">
<svg version="1.1" id="Layer_1" xmlns="http://www.w3.org/2000/svg" xmlns:xlink="http://www.w3.org/1999/xlink" x="0px" y="0px"
	 width="140px" height="155px" viewBox="0 0 140 155" enable-background="new 0 0 140 155" xml:space="preserve">
<g id="Layer_1_1_">
</g>
<g id="Layer_3" display="none">
</g>
<g>
	<g>
		<path fill="#010101" d="M129.69,5.25l-13.604,18.809L92.938,34.412l5.414-29.561l-9.631,3.154l-9.986,21.746H64.163
			c-15.167,0-27.748,2.526-38.46,7.725l-0.366,0.178l-1.074-3.177L1.897,34.479L9.389,75.03l0.428,0.315l4.4,59.39l34.742,14.519
			l-0.691,3.355H76.48l43.263-22.558l8.797-58.437l0.364-0.537l8.849-68.469L129.69,5.25z"/>
	</g>
	<linearGradient id="SVGID_1_" gradientUnits="userSpaceOnUse" x1="25.7305" y1="21.5547" x2="123.1089" y2="118.9331">
		<stop  offset="0" style="stop-color:#8E752F"/>
		<stop  offset="0.1139" style="stop-color:#9C833C"/>
		<stop  offset="0.25" style="stop-color:#B39953"/>
		<stop  offset="0.2732" style="stop-color:#B79D57"/>
		<stop  offset="0.4136" style="stop-color:#CDB36C"/>
		<stop  offset="0.5" style="stop-color:#D7BD74"/>
		<stop  offset="0.5864" style="stop-color:#CDB36C"/>
		<stop  offset="0.7268" style="stop-color:#B79D57"/>
		<stop  offset="0.75" style="stop-color:#B39953"/>
		<stop  offset="0.8861" style="stop-color:#9C833C"/>
		<stop  offset="1" style="stop-color:#8E752F"/>
	</linearGradient>
	<path fill="url(#SVGID_1_)" d="M131.679,10.955l-7.537,58.318l-53.057,78.209V84.778l15.839-14.315l0.007,0.016l24.783-10.982
		l0.754-4.668L88.239,65.563l1.385-7.559l24.051-10.657l0.754-4.668l-23.94,10.608l2.464-13.456l26.371-11.793L131.679,10.955z
		 M109.192,71.674h-0.004c-11.004,4.974-33.167,14.579-33.167,14.579l6.858,16.845L109.192,71.674L109.192,71.674z M121.616,84.323
		l-43.193,61.686l36.795-19.186L121.616,84.323z M81.911,34.707H71.158l-0.013,8.505h6.859l-6.92,15.069v18.482l10.855-9.813
		l9.845-53.743L81.911,34.707z M54.348,147.655h9.815V133.57h-6.91L54.348,147.655z M64.163,127.625v-5.821H53.097V94.51
		l-9.874,8.082l0.001,38.369l5.849,2.84l3.336-16.176H64.163z M18.931,131.304l18.265,7.426v-36.92L26.28,95.808l-2.831-9.146
		l-8.278-6.124L18.931,131.304z M59.043,87.805v28.053h5.12V68.715l-9.94-3.96L59.043,87.805z M64.163,62.314v-9.833l-14.596-7.783
		c0,0,6.689-1.486,14.596-1.486v-8.505c-12.799,0-25.097,1.793-36.297,7.227l0.096,0.385l2.182,6.443L64.163,62.314z M47.597,62.115
		L25.391,53.27l-4.684-13.838L7.851,39.433l6.056,32.776l17.5,12.943h21.008L47.597,62.115z M16.926,54.816l25.797,11.432
		l0.896,4.731l-25.82-11.441L16.926,54.816z M45.524,81.378L19.721,69.944l-0.872-4.721L44.7,76.679l0.871,4.593L45.524,81.378z"/>
</g>
</svg>
