<?xml version="1.0" encoding="utf-8"?>
<!-- Generator: Adobe Illustrator 15.1.0, SVG Export Plug-In . SVG Version: 6.00 Build 0)  -->
<!DOCTYPE svg PUBLIC "-//W3C//DTD SVG 1.1//EN" "http://www.w3.org/Graphics/SVG/1.1/DTD/svg11.dtd">
<svg version="1.1" id="Layer_1" xmlns="http://www.w3.org/2000/svg" xmlns:xlink="http://www.w3.org/1999/xlink" x="0px" y="0px"
	 width="140px" height="155px" viewBox="0 0 140 155" enable-background="new 0 0 140 155" xml:space="preserve">
<g id="Layer_1_1_">
</g>
<g id="Layer_3" display="none">
</g>
<g>
	<g>
		<path fill="#010101" d="M129.469,5.25l-13.604,18.809L92.717,34.412l5.414-29.561L88.5,8.006l-9.986,21.746H63.941
			c-15.166,0-27.747,2.526-38.46,7.725l-0.366,0.178l-1.074-3.177L1.675,34.479L9.167,75.03l0.428,0.315l4.4,59.39l34.742,14.519
			l-0.691,3.355h28.211l43.264-22.558l8.797-58.437l0.363-0.537l8.85-68.469L129.469,5.25z"/>
	</g>
	<linearGradient id="SVGID_1_" gradientUnits="userSpaceOnUse" x1="25.5083" y1="21.5547" x2="122.8867" y2="118.9331">
		<stop  offset="0" style="stop-color:#626F78"/>
		<stop  offset="0.0748" style="stop-color:#707E87"/>
		<stop  offset="0.2249" style="stop-color:#97ACB7"/>
		<stop  offset="0.25" style="stop-color:#A0B7C2"/>
		<stop  offset="0.3946" style="stop-color:#B0C8D7"/>
		<stop  offset="0.5" style="stop-color:#B7D1E1"/>
		<stop  offset="0.6054" style="stop-color:#B0C8D7"/>
		<stop  offset="0.75" style="stop-color:#A0B7C2"/>
		<stop  offset="0.7751" style="stop-color:#97ACB7"/>
		<stop  offset="0.9252" style="stop-color:#707E87"/>
		<stop  offset="1" style="stop-color:#626F78"/>
	</linearGradient>
	<path fill="url(#SVGID_1_)" d="M131.457,10.955l-7.537,58.318l-53.057,78.209V84.778l15.838-14.315l0.008,0.016l24.783-10.982
		l0.754-4.668L88.018,65.563l1.385-7.559l24.051-10.657l0.754-4.668L90.266,53.288l2.465-13.456l26.371-11.793L131.457,10.955z
		 M108.971,71.674h-0.004c-11.004,4.974-33.168,14.579-33.168,14.579l6.859,16.845L108.971,71.674L108.971,71.674z M121.395,84.323
		l-43.193,61.686l36.795-19.186L121.395,84.323z M81.689,34.707H70.936l-0.012,8.505h6.859l-6.92,15.069v18.482l10.855-9.813
		l9.844-53.743L81.689,34.707z M54.126,147.655h9.814V133.57h-6.909L54.126,147.655z M63.941,127.625v-5.821H52.875V94.51
		l-9.874,8.082l0.001,38.369l5.849,2.84l3.336-16.176H63.941z M18.709,131.304l18.265,7.426v-36.92l-10.916-6.002l-2.831-9.146
		l-8.278-6.124L18.709,131.304z M58.822,87.805v28.053h5.119V68.715l-9.939-3.96L58.822,87.805z M63.941,62.314v-9.833
		l-14.596-7.783c0,0,6.689-1.486,14.596-1.486v-8.505c-12.799,0-25.097,1.793-36.297,7.227l0.096,0.385l2.182,6.443L63.941,62.314z
		 M47.375,62.115L25.169,53.27l-4.684-13.838L7.629,39.433l6.056,32.776l17.5,12.943h21.008L47.375,62.115z M16.705,54.816
		l25.797,11.432l0.896,4.731l-25.82-11.441L16.705,54.816z M45.302,81.378L19.5,69.944l-0.872-4.721l25.851,11.455l0.871,4.593
		L45.302,81.378z"/>
</g>
</svg>
