<?xml version="1.0" encoding="utf-8"?>
<!-- Generator: Adobe Illustrator 15.1.0, SVG Export Plug-In . SVG Version: 6.00 Build 0)  -->
<!DOCTYPE svg PUBLIC "-//W3C//DTD SVG 1.1//EN" "http://www.w3.org/Graphics/SVG/1.1/DTD/svg11.dtd">
<svg version="1.1" id="Layer_1" xmlns="http://www.w3.org/2000/svg" xmlns:xlink="http://www.w3.org/1999/xlink" x="0px" y="0px"
	 width="140px" height="155px" viewBox="0 0 140 155" enable-background="new 0 0 140 155" xml:space="preserve">
<g id="Layer_1_1_">
</g>
<g id="Layer_3" display="none">
</g>
<g>
	<path fill="#010101" d="M137.926,2.638l-8.271,63.993l-58.22,85.819V83.645l17.381-15.708l0.006,0.017l27.195-12.051l0.827-5.122
		L90.26,62.56l1.52-8.294l26.391-11.694l0.826-5.122L92.727,49.09l2.705-14.766l28.936-12.94L137.926,2.638z M113.252,69.265h-0.006
		c-12.073,5.458-36.393,15.997-36.393,15.997l7.524,18.484L113.252,69.265L113.252,69.265z M126.885,83.145l-47.396,67.688
		l40.375-21.053L126.885,83.145z M83.316,28.701h-11.8l-0.015,9.333h7.527l-7.594,16.536v20.28l11.912-10.767L94.15,5.11
		L83.316,28.701z M53.072,152.639h10.769v-15.455h-7.582L53.072,152.639z M63.841,130.66v-6.389H51.699V94.322l-10.834,8.869
		l0,42.103l6.418,3.116l3.661-17.75H63.841z M14.208,134.696l20.042,8.147l0-40.512l-11.979-6.586l-3.106-10.035l-9.084-6.719
		L14.208,134.696z M58.223,86.965v30.783h5.618v-51.73l-10.907-4.345L58.223,86.965z M63.841,58.995v-10.79l-16.016-8.541
		c0,0,7.339-1.631,16.016-1.631v-9.333c-14.045,0-27.539,1.968-39.829,7.93l0.105,0.422l2.394,7.07L63.841,58.995z M45.664,58.776
		L21.297,49.07l-5.139-15.184L2.05,33.887l6.645,35.965l19.203,14.203h23.051L45.664,58.776z M12.008,50.767l28.307,12.544
		l0.984,5.192L12.966,55.948L12.008,50.767z M43.388,79.913L15.075,67.367l-0.957-5.18l28.366,12.57l0.956,5.04L43.388,79.913z"/>
</g>
</svg>
