<?xml version="1.0" encoding="UTF-8" standalone="no"?>
<svg
   xmlns="http://www.w3.org/2000/svg"
  
   version="1.1"
   id="svg2"
   width="354.66666"
   height="354.66666"
   viewBox="0 0 354.66666 354.66666"
  >
  
  <path
     d="M 248.69544,296.522 A 71.051247,18.534409 0 0 1 177.6442,315.05641 71.051247,18.534409 0 0 1 106.59295,296.522 71.051247,18.534409 0 0 1 177.6442,277.98759 71.051247,18.534409 0 0 1 248.69544,296.522 Z m -69.172,-42.20364 A 155.58514,43.331017 0 0 0 23.9375,297.64844 155.58514,43.331017 0 0 0 179.52344,340.98047 155.58514,43.331017 0 0 0 335.10742,297.64844 155.58514,43.331017 0 0 0 179.52344,254.31836 Z m -0.12305,21.82617 a 91.860168,20.663841 0 0 1 91.85938,20.66406 91.860168,20.663841 0 0 1 -91.85938,20.66407 91.860168,20.663841 0 0 1 -91.861328,-20.66407 91.860168,20.663841 0 0 1 91.861328,-20.66406 z"
     />
  <path
     style="display:inline;fill:#ffffff;stroke:#ffffff;stroke-width:7.1"
          d="m 210,246.66666 v 42.308 c 0,0 0.0488,11.192 -33.7,11.192 -34.27558,0 -34.3,-11.192 -34.3,-11.192 v -42.308 z"
      />
  <path
     
     d="m 336.77932,196.52777 c 0,6.09565 -2.35713,11.56271 -7.07501,16.43775 -4.7106,4.86774 -10.12283,7.30157 -16.21115,7.30157 -9.72814,0 -16.89452,-4.56806 -21.44796,-13.69686 l -21.45528,-0.91361 c -4.57538,0 -13.55436,1.98435 -26.93696,5.93849 -14.30352,3.95411 -23.27746,7.15175 -25.40432,9.58562 -3.34749,3.64711 -6.08101,12.17663 -8.21521,25.56652 C 208.1989,257.7033 208,265.76867 208,270.94336 v 18.0313 c 0,0 2.04879,10.44059 -31.7,10.44059 -28.96229,0 -32.3,-10.44059 -32.3,-10.44059 v -18.94854 c 0,-17.34405 -3.969,-30.27714 -13.10512,-38.79933 -7.92284,-7.60853 -20.99847,-13.08292 -39.263405,-16.43772 -4.867723,17.34403 -18.56461,26.03068 -41.076021,26.03068 -7.308898,0 -14.610498,-4.41093 -21.912083,-13.24009 -7.294287,-8.82915 -10.948728,-16.89452 -10.948728,-24.19612 0,-11.26303 4.703276,-20.54168 14.139072,-27.85785 -7.60126,-7.90094 -11.405549,-15.96632 -11.405549,-24.18152 0,-7.61589 2.349829,-14.30351 7.075017,-20.09945 4.717886,-5.76675 10.879284,-9.12152 18.487857,-10.04247 -0.606633,-9.72814 2.58369,-16.43039 9.585615,-20.08485 -3.347476,-3.340151 -5.017547,-9.271324 -5.017547,-17.793495 0,-10.042428 3.347462,-18.414786 10.042429,-25.109739 6.68764,-6.694934 15.059977,-10.049725 25.10243,-10.049725 10.963343,0 19.942333,3.818895 26.936933,11.420138 8.82916,-30.12727 27.85058,-45.194599 57.05694,-45.194599 15.21714,0 28.60706,6.088345 40.17703,18.264966 4.26111,4.56076 6.38798,7.00191 6.38798,7.29429 -3.65445,0 -1.81993,-0.687036 5.48168,-2.050178 7.29429,-1.370388 12.61883,-2.057424 15.98092,-2.057424 11.86234,0 22.36157,4.410915 31.49771,13.240066 7.90822,7.915529 13.3899,17.950662 16.43771,30.127308 2.11958,0.306949 5.47438,1.213259 10.04243,2.733491 6.68765,3.362124 10.04243,9.128825 10.04243,17.351368 0,1.527523 -1.22789,4.418203 -3.65446,8.671963 19.47092,10.95606 29.21368,26.17318 29.21368,45.65142 0,5.47434 -2.12689,13.09754 -6.38797,22.82933 7.91554,4.55709 11.86234,11.25937 11.86234,20.08119 z m -188.0836,20.08488 v -5.93117 c 0,-6.99461 -3.42056,-13.3899 -10.26536,-19.17123 -6.8521,-5.78136 -13.77725,-8.67201 -20.77188,-8.67201 -8.5295,0 -16.4304,1.97703 -23.739312,5.92383 16.127082,-0.90627 34.392032,8.37969 54.776552,27.85058 z m -8.20791,-56.60377 c -4.56804,-5.18202 -8.52217,-10.50657 -11.87694,-15.98093 -12.7833,3.34748 -19.17125,7.15176 -19.17125,11.40555 3.65445,-0.29233 8.97899,0.38371 15.97359,2.06111 6.99463,1.67738 12.02679,2.51427 15.0746,2.51427 z m 27.85057,-14.15367 v -20.08488 c -7.3089,-1.21327 -11.73442,-1.82724 -13.24007,-1.82724 v 6.84479 z m 59.34098,-12.7833 c -3.65446,-1.52022 -10.50657,-4.56807 -20.54167,-9.12882 v 39.25612 c 14.29624,-8.22249 21.14101,-18.26496 20.54167,-30.1273 z m 25.09512,53.87025 -10.03513,-12.32645 c -6.08099,4.26475 -12.24972,8.60258 -18.49519,13.01351 -6.24544,4.4109 -11.64307,9.36635 -16.1965,14.83707 13.69322,-7.31624 28.6107,-12.47631 44.72682,-15.52413 z"
     id="path4"
     style="stroke:#000000;stroke-width:3"/>
</svg>
