<?xml version="1.0" encoding="UTF-8" standalone="no"?>
<svg xmlns="http://www.w3.org/2000/svg" version="1.1" id="svg2" width="181.37669" height="291.3139" viewBox="0 0 181.3767 291.31391">
  <path d="m 155.40988,264.86573 c -17.32686,17.63094 -38.67149,26.44818 -64.022998,26.44818 -28.45343,0 -51.0287,-9.73665 -67.72577,-29.22076 C 7.883409,243.53558 0,219.88167 0,191.12783 0,160.20583 13.453942,124.94038 40.358182,85.349486 62.307282,52.885549 88.132912,24.432102 117.82427,0 c -4.33263,19.795427 -6.48991,33.861083 -6.48991,42.211435 0,19.180099 6.02298,37.886051 18.08338,56.132301 14.84748,21.645054 26.1297,37.737674 33.86832,48.241624 12.06044,18.2535 18.09063,36.03285 18.09063,53.34162 0.006,25.67363 -8.6544,47.32229 -25.96681,64.93875 z"/>
  <path style="fill:#ffffff" d="m 129.97062,261.32677 c -10.94315,11.13521 -24.4238,16.70392 -40.435088,16.70392 -17.97037,0 -32.22826,-6.14938 -42.77365,-18.45499 -9.96474,-11.72043 -14.94368,-26.65956 -14.94368,-44.81966 0,-19.52944 8.49712,-41.80208 25.48907,-66.80655 13.86242,-20.5033 28.57916,-38.47368 47.331368,-53.904284 -2.73638,12.502224 -3.63198,21.009984 -3.63198,26.283814 0,12.1136 4.93107,24.30346 12.54806,35.82726 9.37725,13.67039 16.50278,23.83403 21.39027,30.46803 7.61702,11.52837 11.42552,22.7573 11.42552,33.68903 0.004,16.21472 -5.46587,29.88738 -16.39989,41.01343 z"/>
  <path d="m 105.36495,269.62265 c -8.506828,8.32744 -18.986238,12.49199 -31.432868,12.49199 -13.96954,0 -25.05316,-4.59881 -33.25078,-13.80153 -7.74626,-8.7651 -13.49524,-20.68871 -13.49524,-34.26971 0,-14.60506 8.4839,-30.5102 21.69286,-49.20974 10.77618,-15.33335 24.20699,-26.89393 38.78433,-38.43369 -2.12716,9.34977 -3.1863,14.11472 -3.1863,18.05875 0,9.05914 2.20564,17.89432 8.12683,26.51237 7.28956,10.22338 12.828698,17.82423 16.628068,22.78545 5.92122,8.62149 8.88181,17.01902 8.88181,25.19428 0.003,12.12615 -4.24897,22.35124 -12.74871,30.67183 z"/>
</svg>
