<svg clip-rule="evenodd" fill-rule="evenodd" stroke-linejoin="round" stroke-miterlimit="2" viewBox="0 0 154 92" xmlns="http://www.w3.org/2000/svg" xmlns:xlink="http://www.w3.org/1999/xlink"><linearGradient id="symbola" gradientUnits="userSpaceOnUse" x1="3" x2="150.5" y1="0" y2="0"><stop offset="0" stop-color="#bf0f00"/><stop offset=".25" stop-color="#e75700"/><stop offset=".45" stop-color="#ff8700"/><stop offset=".55" stop-color="#ff8700"/><stop offset=".75" stop-color="#e75700"/><stop offset="1" stop-color="#bf0f00"/></linearGradient><path d="m114.815 31.496c-.334.038-.664.133-.976.286-.406.199-1.699.784-3.264 1.033-1.234.197-2.704.245-3.885-.656 0 0-.001 0-.002-.001-2.11-1.607-1.678-3.827-1.507-4.427.4-1.399-.261-2.883-1.568-3.521-1.525-.744-10.182-4.934-17.475-7.551-1.493-.536-3.146.184-3.771 1.643-.203.475-.772 1.669-1.752 2.743-.776.849-1.839 1.677-3.296 1.677h-1.154c-1.457 0-2.52-.828-3.296-1.677-.98-1.074-1.549-2.268-1.752-2.743-.625-1.459-2.278-2.179-3.771-1.643-7.296 2.619-15.957 6.81-17.472 7.554-1.294.636-1.953 2.102-1.569 3.492.167.604.613 2.838-1.508 4.453 0 .001 0 .001-.001.001-1.181.901-2.652.853-3.887.656-1.565-.249-2.858-.834-3.264-1.033-.314-.154-.646-.249-.982-.287-.238-.463-.597-.863-1.049-1.152l-.454-.289c-3.022-1.954-18.464-12.365-26.517-27.72l-.372-.716c-.544-1.044-1.648-1.674-2.824-1.61s-2.205.81-2.632 1.907l-.295.755c-.94 2.378-3.507 10.115-1.533 19.74-.678.329-1.224.91-1.5 1.649l-.378 1.014c-.626 1.693-1.96 6.839-.323 13.371.925 3.707 1.955 6.376 3.001 8.352-.525.54-.838 1.27-.847 2.054l-.01.918c-.022 3.132.71 13.2 8.914 18.831-.191.659-.154 1.38.135 2.039l.432.982c.98 2.194 4.18 8.122 11.839 11.111-.092.864.193 1.747.821 2.4l.788.819c1.701 1.769 6.634 6.036 15.272 6.036 3.863 0 8.507-.865 13.974-3.321l.641-.277c.695-.3 1.237-.844 1.539-1.51 8.576 2.949 18.683 3.384 18.811 3.384h1.312c.112 0 10.219-.435 18.793-3.385.298.654.827 1.189 1.506 1.491l.659.293c5.483 2.461 10.13 3.327 13.996 3.327 8.628 0 13.561-4.257 15.272-6.047l.777-.806c.629-.653.916-1.537.823-2.402 7.659-2.989 10.854-8.918 11.835-11.111-.001.002.432-.964.432-.964.297-.663.337-1.392.143-2.059 8.213-5.627 8.935-15.707 8.914-18.83l-.01-.919c-.009-.785-.323-1.517-.85-2.056 1.047-1.977 2.079-4.644 3.007-8.349 1.637-6.535.291-11.694-.334-13.377l-.376-1.009c-.276-.739-.822-1.319-1.5-1.648 1.985-9.633-.585-17.368-1.537-19.751l-.292-.75c-.429-1.1-1.463-1.846-2.642-1.906s-2.283.576-2.822 1.627l-.368.716c-8.048 15.346-23.494 25.764-26.516 27.698l-.473.308c-.444.289-.796.685-1.03 1.143zm.264 25.543v.001c-1.41 1.465-3.305 2.263-5.339 2.263-4.082 0-7.4-3.317-7.4-7.4 0-1.504-.564-2.827-1.542-3.829-.004-.005-.009-.01-.014-.014-1.807-1.828-4.903-2.069-6.962-.573-1.437 1.021-3.119 1.564-4.881 1.564-3.142 0-5.986-1.735-7.429-4.527-.937-1.816-2.828-2.813-4.77-2.813s-3.833.997-4.771 2.814c0 .001-.001.002-.002.004-1.436 2.79-4.285 4.522-7.425 4.522-1.764 0-3.448-.543-4.876-1.567-2.116-1.525-5.133-1.257-6.954.564-.007.007-.014.014-.021.021-.994 1.014-1.549 2.359-1.549 3.796 0 4.113-3.315 7.438-7.4 7.438-2.034 0-3.929-.798-5.339-2.263-1.403-1.46-2.14-3.391-2.062-5.426.147-3.804 3.225-6.914 7.015-7.109 1.639-.031 3.166.356 4.486 1.238.001.001.003.002.004.003 2.136 1.422 5.118 1.066 6.859-.75 1.03-1.061 1.551-2.452 1.488-3.913-.013-.405-.008-.799.029-1.199.394-4.049 3.746-7.287 7.811-7.519.015-.001.03-.002.046-.003 3.201-.232 6.378 1.578 7.889 4.512 0 .001 0 .001.001.002.938 1.819 2.829 2.816 4.771 2.816s3.833-.997 4.771-2.816c.001-.001.001-.001.001-.002 1.515-2.943 4.617-4.713 7.923-4.51.005.001.009.001.013.001 4.064.232 7.425 3.468 7.81 7.516.037.399.044.797.029 1.181 0 .009 0 .017-.001.026-.045 1.486.482 2.855 1.481 3.9.003.003.005.005.008.008 1.742 1.808 4.753 2.167 6.871.742 1.308-.869 2.863-1.261 4.43-1.235 3.833.184 6.916 3.299 7.064 7.111.077 2.035-.652 3.958-2.063 5.425z"/><path d="m103.579 76.459-.523-.77-.148.918c-.502 2.937.435 5.845.631 6.308l-4.613 2.712.661.294c5.007 2.248 9.245 3.067 12.775 3.067 7.402 0 11.652-3.599 13.11-5.127l.779-.808-1.113.187c-14.116 2.387-20.071-4.583-21.559-6.781zm-52.994.146-.158-.918-.513.77c-1.497 2.198-7.491 9.177-21.568 6.792l-1.113-.198.788.819c1.458 1.517 5.708 5.116 13.11 5.116 3.53 0 7.768-.819 12.766-3.067l.66-.285-4.614-2.731c.168-.444 1.154-3.272.642-6.298zm64.576-42.13c-1.025.503-6.516 2.948-10.29.07-3.638-2.77-2.87-6.604-2.574-7.639-1.498-.731-10.005-4.851-17.172-7.423-.532 1.242-2.986 6.239-7.806 6.239h-1.154c-4.82 0-7.274-4.997-7.806-6.239-7.167 2.572-15.674 6.692-17.162 7.423.286 1.035 1.055 4.869-2.582 7.639-3.776 2.878-9.267.433-10.292-.07-7.511 5.127-13.958 12.352-14.884 13.416 2.286 6.211 9.7 19.508 10.734 21.352 5.186-1.676 10.675-2.582 15.871 1.646 4.405 3.588 3.568 9.769 3.341 11.01 8.399 4.791 22.564 5.363 22.711 5.363h1.312c.128 0 14.293-.572 22.691-5.363-.216-1.241-1.064-7.422 3.342-11.01 5.184-4.228 10.686-3.322 15.871-1.646 1.035-1.844 8.457-15.141 10.744-21.352-.936-1.064-7.383-8.289-14.895-13.416zm2.034 37.026c-1.941-.522-3.617-.976-5.156-.976-4.317 0-6.476 2.336-7.037 3.056l-.158.198.138.226c.788 1.252 5.185 7.502 14.116 7.502 13.257 0 18.068-8.507 19.232-11.11l.433-.966-.936.484c-9.159 4.681-15.792 2.897-20.632 1.586zm-68.687 2.503.138-.217-.158-.216c-.562-.711-2.731-3.047-7.038-3.047-1.538 0-3.214.444-5.176.976-4.82 1.321-11.424 3.115-20.612-1.587l-.936-.482.424.965c1.163 2.603 5.984 11.109 19.232 11.109 8.902 0 13.327-6.24 14.126-7.501zm-20.724-3.347c1.597 0 2.73-.206 3.312-.345l.473-.108-5.727-10.548-.177-.029c-1.173-.236-11.692-2.504-19.095-10.094l-.63-.65-.01.906c-.02 2.879.582 12.608 9.039 17.211 5.461 2.987 9.907 3.657 12.815 3.657zm119.133-21.124c-7.403 7.6-17.931 9.858-19.104 10.094l-.177.03-5.718 10.547.474.109c.581.138 1.705.335 3.292.335 2.918 0 7.384-.671 12.834-3.648 8.468-4.603 9.059-14.341 9.04-17.211l-.01-.906zm-29.676 9.586c-1.981 2.06-4.642 3.184-7.501 3.184-5.737 0-10.4-4.662-10.4-10.4 0-.68-.247-1.281-.689-1.734-.799-.808-2.17-.916-3.076-.247-1.952 1.391-4.239 2.129-6.634 2.129-4.269 0-8.133-2.356-10.094-6.15-.819-1.587-3.391-1.587-4.21 0-1.952 3.794-5.825 6.15-10.093 6.15-2.396 0-4.683-.738-6.624-2.129-.937-.68-2.277-.561-3.085.247-.444.453-.691 1.054-.691 1.696 0 5.776-4.663 10.438-10.4 10.438-2.859 0-5.52-1.124-7.501-3.184-1.971-2.05-3.007-4.761-2.898-7.62.207-5.372 4.574-9.758 9.936-9.994 2.258-.05 4.387.512 6.23 1.744.946.63 2.268.473 3.036-.335.454-.464.681-1.075.65-1.716-.018-.541-.009-1.064.04-1.596.532-5.511 5.096-9.917 10.627-10.232 4.367-.316 8.713 2.129 10.773 6.131.819 1.588 3.391 1.588 4.21 0 2.06-4.002 6.278-6.407 10.774-6.131 5.53.315 10.104 4.721 10.626 10.232.049.532.06 1.064.04 1.577-.02.66.206 1.271.65 1.735.77.799 2.1.965 3.036.335 1.854-1.232 4.032-1.794 6.23-1.744 5.373.236 9.729 4.622 9.937 9.994.108 2.859-.917 5.56-2.899 7.62zm32.318-33.006-.375-1.005-.325 1.025c-.424 1.301-1.548 3.943-4.387 6.979-4.741 5.057-12.864 9.197-14.441 9.976l-.443.226 3.725 4.071-4.553 9.956.729-.157c4.8-1.066 11.07-5.255 12.894-6.644 2.01-1.528 5.046-3.382 7.412-12.824 1.42-5.668.306-10.144-.236-11.603zm-138.46 24.427c1.824 1.389 8.093 5.578 12.893 6.644l.73.157-4.554-9.956 3.736-4.071-.444-.226c-1.577-.779-9.7-4.919-14.45-9.986-2.84-3.026-3.963-5.668-4.378-6.969l-.334-1.025-.375 1.005c-.543 1.469-1.647 5.935-.227 11.603 2.356 9.442 5.392 11.296 7.403 12.824zm-2.089-21.187c2.365 2.908 7.659 8.359 16.551 12.105l.226.099.178-.177c.886-.848 5.52-5.235 9.59-8.192l.444-.316-.462-.295c-3.126-2.021-19.174-12.875-27.552-28.853l-.375-.72-.296.76c-.976 2.464-3.883 11.325-.364 21.853.463 1.36 1.153 2.623 2.06 3.736zm118.507 12.031.177.168.227-.099c8.892-3.736 14.185-9.188 16.56-12.096.897-1.113 1.588-2.374 2.05-3.745 3.53-10.537.622-19.389-.364-21.853l-.296-.759-.374.729c-8.37 15.968-24.418 26.831-27.562 28.843l-.453.295.444.325c4.06 2.948 8.704 7.344 9.591 8.192z" fill="url(#symbola)" fill-rule="nonzero"/></svg>