<?xml version="1.0" encoding="UTF-8" standalone="no"?>
<svg xmlns="http://www.w3.org/2000/svg" width="444.33029mm" height="270.20328mm" viewBox="0 0 444.33029 270.20328" version="1.1">
  <path d="M 129.29361,238.27779 C 78.50981,220.65647 36.8818,206.16156 36.7871,206.06687 c -0.095,-0.0947 0.3031,-2.52411 0.884,-5.39867 3.714,-18.37974 3.9967,-41.71129 0.7444,-61.41905 C 35.6076,122.23473 30.6645,106.77675 23.1766,91.59411 17.1153,79.30407 10.6125,69.27839 0.8488,57.17037 0.3069,56.49832 -0.0701,55.89136 0.011,55.82158 0.2984,55.57429 162.42091,0.23691 163.01251,0.18414 c 0.4105,-0.0366 0.8713,0.65729 1.4525,2.18721 2.556,6.72838 6.6698,12.99076 12.1584,18.50881 4.4834,4.50734 8.538,7.47927 13.9603,10.23254 13.054,6.62837 30.8299,8.65059 47.2902,5.37982 17.5088,-3.4791 31.65858,-13.82026 39.37917,-28.77969 1.09215,-2.11617 2.28804,-4.6879 2.65753,-5.71495 0.36946,-1.02706 0.71461,-1.92603 0.76697,-1.99773 0.0781,-0.10695 163.2938,55.54035 163.65088,55.7957 0.0608,0.0436 -1.37634,1.93538 -3.19395,4.204 -20.13098,25.126 -32.21042,53.74216 -36.29046,85.97181 -2.3632,18.66812 -1.59522,40.43893 1.98896,56.38464 0.70453,3.1345 0.75213,3.74858 0.30368,3.92067 -2.86639,1.09993 -184.20448,63.84146 -184.76188,63.9261 -0.4108,0.0624 -42.2974,-14.30396 -93.0812,-31.92528 z"/>
  <path d="M 160.48649,3.25789 C 108.13279,20.7856 55.94319,38.85086 3.6603,56.62703 c 26.622,32.59855 40.92419,74.85269 39.1309,116.92968 -0.183,10.27512 -1.7304,20.86034 -3.2969,30.71875 60.87609,21.25438 121.78839,42.41067 182.81249,63.23632 60.85674,-20.84811 121.61654,-41.98008 182.40033,-63.03906 -5.9873,-32.93263 -4.11969,-67.61554 7.80281,-99.06249 6.5288,-17.7363 16.5349,-33.9838 28.16012,-48.81445 C 387.84363,38.55783 335.08653,20.30568 282.12313,2.70516 c -8.239,20.07803 -27.85504,34.80663 -49.57414,36.51953 -22.8606,2.91974 -48.7282,-3.6289 -62.6996,-23.14961 -3.1689,-4.08281 -5.3515,-8.78166 -7.6286,-13.3836 l -0.9505,0.31045 z" style="fill:#d2d3d5"/>
  <path d="M 151.40638,17.70124 C 108.40393,31.95169 65.63171,46.88291 22.7521,61.49616 c 26.51226,38.76592 36.77393,87.74233 30.10936,134.06055 56.49704,19.49164 112.84115,39.43032 169.47266,58.53125 56.45965,-19.54358 113.00844,-38.8141 169.33398,-58.71485 -7.21005,-46.25606 3.47944,-95.1888 29.91016,-133.89648 C 377.05706,46.3622 332.71543,30.59478 287.98451,16.23444 270.13453,46.15458 230.3547,57.55379 197.96107,47.55475 180.91272,42.55449 165.23263,31.61542 156.21693,16.1153 c -1.60352,0.52865 -3.20703,1.05729 -4.81055,1.58594 z"/>
</svg>
