<?xml version="1.0" encoding="UTF-8" standalone="no"?>
<svg xmlns="http://www.w3.org/2000/svg" version="1.1" width="600" height="1111.1093">
  <path d="M 0,559.79814 1.737037,537.8611 H 1.0555556 L 1.737037,537.50925 24.681481,245.18333 c 0,0 11.433334,202.18148 45.533334,260.6074 14.629629,-5.77778 29.5,-10.95926 44.599995,-15.63333 36.84445,-96.45185 49.78149,-383.02222 49.78149,-383.02222 0,0 8.6,261.07407 41.02963,362.41111 17.78148,-2.66296 35.86666,-4.52963 54.3037,-5.68519 33.51111,-124.64814 42.61852,-463.86295944 42.61852,-463.86295944 0,0 11.04074,340.03332944 44.05555,464.28147944 17.57037,1.26667 34.84815,3.24815 51.85926,5.88148 32.02593,-100.94074 44.84815,-363.16666 44.84815,-363.16666 0,0 10.38148,288.14814 43.92222,383.79629 14.7,4.55926 29.16667,9.7 43.35556,15.33334 37.2,-57.70371 50.3037,-260.56297 50.3037,-260.56297 l 17.74815,292.16297 0.75185,0.37777 h -0.7037 L 600,559.79814 c 0,0 -297.45185,96.82222 -297.45185,551.31116 C 302.54815,658.77592 0,559.79814 0,559.79814"/>
</svg>
