<?xml version="1.0" encoding="UTF-8" standalone="no"?>
<svg xmlns="http://www.w3.org/2000/svg" version="1.1" width="600" height="1204.1633">
  <path d="M 593.70613,462.24488 C 588.6245,328.63672 577.13062,277.90202 569.51429,277.90202 c -7.73061,0 -10.16326,74.00408 -20.32245,139.4 -10.16326,65.2449 -28.05714,139.23674 -28.05714,139.23674 l -45.73061,-17.42041 c 0,0 -12.82041,-94.41225 -17.89796,-207.5551 -4.96327,-113.14694 -8.83265,-211.96327 -22.97959,-211.96327 -13.80409,-0.11837 -16.45307,92.90612 -21.5347,213.45306 -5.08571,120.47755 -22.86122,187.20409 -22.86122,187.20409 l -41.97143,-5.84898 c 0,0 -20.32653,-104.49796 -27.95102,-423.70205 C 318.44082,15.159161 300,-2.3275e-5 300,-2.3275e-5 c 0,0 -18.44898,15.159184275 -20.21632,90.706123275 -7.61633,319.20409 -28.05715,423.70205 -28.05715,423.70205 l -41.8653,5.84898 c 0,0 -17.88572,-66.72654 -22.96735,-187.20409 -5.08163,-120.54694 -7.62857,-213.57143 -21.53469,-213.45306 -14.03266,0 -17.90204,98.81633 -23.09796,211.96327 -4.96327,113.14285 -17.67347,207.5551 -17.67347,207.5551 l -45.730616,17.42041 c 0,0 -17.885714,-73.99184 -28.048979,-139.23674 -10.159184,-65.39592 -12.706123,-139.4 -20.32245,-139.4 -7.62449,0 -19.106122,50.7347 -24.1918367,184.34286 C 1.2122456,595.6857 7.2340003e-7,621.77141 7.2340003e-7,621.77141 c 0,0 150.11020927659996,63.95919 208.54285927659995,229.48164 58.54286,165.42445 73.34286,309.06125 73.78367,325.00815 0.76735,24.751 17.67347,27.9021 17.67347,27.9021 0,0 14.69388,-3.1511 17.67347,-27.9021 1.87347,-15.8326 15.24082,-159.5837 73.77551,-325.00815 58.44082,-165.52245 208.55103,-229.48164 208.55103,-229.48164 0,0 -1.22041,-26.08571 -6.29388,-159.52653"/>
</svg>
