<?xml version="1.0" encoding="utf-8"?>
<!-- Generator: Adobe Illustrator 15.1.0, SVG Export Plug-In . SVG Version: 6.00 Build 0)  -->
<!DOCTYPE svg PUBLIC "-//W3C//DTD SVG 1.1//EN" "http://www.w3.org/Graphics/SVG/1.1/DTD/svg11.dtd">
<svg version="1.1"
	 id="Layer_1" xmlns:rdf="http://www.w3.org/1999/02/22-rdf-syntax-ns#" xmlns:svg="http://www.w3.org/2000/svg" xmlns:cc="http://creativecommons.org/ns#" xmlns:dc="http://purl.org/dc/elements/1.1/"
	 xmlns="http://www.w3.org/2000/svg" xmlns:xlink="http://www.w3.org/1999/xlink" x="0px" y="0px" width="150px" height="156px"
	 viewBox="0 0 150 156" enable-background="new 0 0 150 156" xml:space="preserve">
<g>
	<polygon fill="#FFFFFF" points="10.064,95.229 10.064,69.258 5.338,38.309 38.454,22.451 50.338,2.643 99.143,2.643 
		111.025,22.451 144.145,38.309 139.417,69.258 139.417,95.229 74.74,152.643 	"/>
	<polygon points="16.257,92.446 16.257,68.788 12.152,41.911 42.805,27.232 53.844,8.836 95.637,8.836 106.676,27.232 
		137.328,41.911 133.223,68.788 133.223,92.446 74.74,144.363 	"/>
	<path fill="#FFFFFF" d="M101.837,32.545L91.739,15.716H57.741L47.643,32.545l-27.92,13.369l3.414,22.352v21.09l51.604,45.809
		l51.603-45.809v-21.09l3.414-22.352L101.837,32.545z M59.688,19.156h30.104l8.681,14.465l-23.729,31.97l-23.72-31.989
		L59.688,19.156z M76.462,71.021l45.003,18.063L76.46,129.037L76.462,71.021z M73.021,129.037L28.016,89.084l45.006-18.063V129.037z
		 M48.486,35.955l23.545,31.757L26.576,85.955v-17.95l-3.068-20.09L48.486,35.955z M122.902,68.005v17.948l-45.45-18.241
		l23.563-31.746l24.957,11.949L122.902,68.005z"/>
	<path fill="#FFFFFF" d="M74.74,48.742c-6.213,0-11.266-5.055-11.266-11.268s5.053-11.267,11.266-11.267s11.266,5.054,11.266,11.267
		S80.953,48.742,74.74,48.742z"/>
	<path d="M74.74,46.921c-5.209,0-9.446-4.237-9.446-9.446c0-5.207,4.237-9.444,9.446-9.444s9.445,4.237,9.445,9.444
		C84.188,42.684,79.949,46.921,74.74,46.921z"/>
	<path fill="#FFFFFF" d="M74.74,44.145c-3.678,0-6.67-2.99-6.67-6.67c0-3.677,2.992-6.668,6.67-6.668s6.67,2.991,6.67,6.668
		C81.41,41.152,78.418,44.145,74.74,44.145z"/>
	<path fill="#FFFFFF" d="M42.918,71.791c-6.213,0-11.266-5.055-11.266-11.266c0-6.213,5.053-11.269,11.266-11.269
		s11.266,5.056,11.266,11.269C54.184,66.736,49.131,71.791,42.918,71.791z"/>
	<path d="M42.918,69.971c-5.208,0-9.445-4.236-9.445-9.445s4.237-9.445,9.445-9.445c5.209,0,9.445,4.236,9.445,9.445
		C52.363,65.732,48.127,69.971,42.918,69.971z"/>
	<path fill="#FFFFFF" d="M42.918,67.193c-3.678,0-6.67-2.991-6.67-6.668c0-3.68,2.992-6.67,6.67-6.67s6.67,2.99,6.67,6.67
		C49.588,64.202,46.596,67.193,42.918,67.193z"/>
	<path fill="#FFFFFF" d="M57.023,106.366c-6.213,0-11.268-5.056-11.268-11.269s5.055-11.267,11.268-11.267
		c6.211,0,11.266,5.054,11.266,11.267S63.234,106.366,57.023,106.366z"/>
	<path d="M57.023,104.545c-5.209,0-9.447-4.236-9.447-9.445s4.238-9.447,9.447-9.447c5.207,0,9.444,4.238,9.444,9.447
		C66.469,100.309,62.232,104.545,57.023,104.545z"/>
	<path fill="#FFFFFF" d="M57.023,101.77c-3.678,0-6.672-2.992-6.672-6.67c0-3.679,2.994-6.671,6.672-6.671s6.668,2.992,6.668,6.671
		C63.693,98.777,60.701,101.77,57.023,101.77z"/>
	<path fill="#FFFFFF" d="M106.563,71.791c6.213,0,11.267-5.055,11.267-11.266c0-6.213-5.054-11.269-11.267-11.269
		s-11.266,5.056-11.266,11.269C95.297,66.736,100.35,71.791,106.563,71.791z"/>
	<path d="M106.563,69.971c-5.209,0-9.445-4.236-9.445-9.445s4.236-9.445,9.445-9.445s9.446,4.236,9.446,9.445
		C116.009,65.732,111.771,69.971,106.563,69.971z"/>
	<path fill="#FFFFFF" d="M106.563,67.193c-3.678,0-6.67-2.991-6.67-6.668c0-3.68,2.992-6.67,6.67-6.67c3.679,0,6.67,2.99,6.67,6.67
		C113.232,64.202,110.24,67.193,106.563,67.193z"/>
	<path fill="#FFFFFF" d="M92.457,106.366c6.213,0,11.268-5.056,11.268-11.269S98.67,83.831,92.457,83.831
		c-6.212,0-11.266,5.054-11.266,11.267S86.245,106.366,92.457,106.366z"/>
	<path d="M92.457,104.545c-5.209,0-9.445-4.236-9.445-9.445s4.236-9.447,9.445-9.447s9.447,4.238,9.447,9.447
		S97.666,104.545,92.457,104.545z"/>
	<path fill="#FFFFFF" d="M92.457,101.77c-3.678,0-6.67-2.992-6.67-6.67c0-3.679,2.992-6.671,6.67-6.671s6.671,2.992,6.671,6.671
		C99.128,98.777,96.135,101.77,92.457,101.77z"/>
</g>
</svg>
