<?xml version="1.0" encoding="UTF-8" standalone="no"?>
<svg xmlns="http://www.w3.org/2000/svg" version="1.1" width="494.42386" height="497.5332">
  <path style="fill:#3c3734" d="m 88.926341,413.48586 c -42.793,-41.6626 -69.39811,-100.0639 -69.39811,-164.71909 0,-126.55778 101.937449,-229.152772 227.683869,-229.152772 64.52298,0 122.77737,27.01253 164.20766,70.414114 z"/>
  <path style="fill:#e5412b" d="m 409.96577,88.519022 c 40.16902,41.319688 64.93019,97.873418 64.93019,160.247968 0,126.55767 -101.93756,229.15291 -227.68391,229.15291 -60.509,0 -115.50503,-23.75616 -156.282749,-62.507 z"/>
  <path d="M 247.2129,0 C 110.81372,0 -0.04363212,111.68651 1.2882992e-5,248.75976 v 0.008 0.006 C -0.04362712,385.84701 110.81372,497.53352 247.2129,497.53352 c 136.40114,0 247.25776,-111.68968 247.21094,-248.76562 C 494.47172,111.69041 383.61469,0 247.2129,0 Z m 0,39.054688 c 115.15566,0 208.1995,93.602112 208.15625,209.705072 v 0.008 0.006 c 0.0433,116.10296 -93.00059,209.70507 -208.15625,209.70507 -115.15566,0 -208.201447,-93.60211 -208.1582,-209.70507 v -0.006 -0.008 C 39.011453,132.6568 132.05724,39.054688 247.2129,39.054688 Z"/>
  <path d="M 405.88282,79.666012 76.240251,407.92187 90.062511,421.80078 419.70314,93.544922 Z"/>
</svg>