<?xml version="1.0" encoding="UTF-8" standalone="no"?>
<svg xmlns="http://www.w3.org/2000/svg" version="1.1" width="494.42386" height="497.5332">
  <circle style="fill:#3c3734" id="path824" cx="247.21193" cy="248.7666" r="224.71616"/>
  <path d="M 247.2129,0 C 110.81372,0 -0.04363212,111.68651 1.2882992e-5,248.75976 v 0.008 0.006 C -0.04362712,385.84701 110.81372,497.53352 247.2129,497.53352 c 136.40114,0 247.25776,-111.68968 247.21094,-248.76562 C 494.47172,111.69041 383.61469,0 247.2129,0 Z m 0,39.054688 c 115.15566,0 208.1995,93.602112 208.15625,209.705072 v 0.008 0.006 c 0.0433,116.10296 -93.00059,209.70507 -208.15625,209.70507 -115.15566,0 -208.201447,-93.60211 -208.1582,-209.70507 v -0.006 -0.008 C 39.011453,132.6568 132.05724,39.054688 247.2129,39.054688 Z"/>
</svg>
