<?xml version="1.0" encoding="UTF-8" standalone="no"?>
<svg xmlns="http://www.w3.org/2000/svg" version="1.1" width="494.42191" height="497.5332">
  <path style="fill:#006c47" d="m 248.88909,253.26191 202.90899,-115.65124 26.3158,137.81195 -25.6231,83.10269 -76.17759,87.2578 -119.11391,32.54873 z"/>
  <path style="fill:#006ba7" d="M 49.442557,138.30309 241.96373,249.10682 243.34876,480.40929 116.61729,438.16553 36.977067,350.21512 19.664077,232.48624 Z"/>
  <path style="fill:#e5412b" d="M 48.749937,135.53303 246.81144,249.10682 442.79531,138.9957 362.46268,47.582623 264.81705,19.881793 149.85823,43.427523 Z"/>
  <path d="M 247.21095,0 C 110.81177,0 -0.04363112,111.68651 1.2882629e-5,248.75976 v 0.008 0.006 C -0.04363112,385.84636 110.81177,497.5332 247.21095,497.5332 c 136.40114,0 247.25776,-111.68968 247.21094,-248.76562 C 494.46977,111.69073 383.61274,0 247.21095,0 Z m 0,39.054687 c 115.15566,0 208.1995,93.602103 208.15625,209.705073 v 0.006 0.008 c 0.0433,116.10297 -93.00059,209.70508 -208.15625,209.70508 -115.15566,0 -208.199497,-93.60211 -208.156249,-209.70508 v -0.008 -0.006 C 39.011453,132.65679 132.05529,39.054687 247.21095,39.054687 Z"/>
  <path d="M 246.81144,249.10682 451.79808,137.61067 M 246.81144,249.10682 46.776697,134.00794 m 200.704243,349.32655 -0.6695,-234.22767" id="path10" style="stroke:#000000;stroke-width:20"/>
</svg>
