<?xml version="1.0" encoding="UTF-8" standalone="no"?>
<svg xmlns="http://www.w3.org/2000/svg" version="1.1" width="494.42191" height="497.5332">
  <path style="fill:#006c47" d="M 248.91121,253.02084 88.924807,413.48577 c -42.793,-41.66265 -69.3983,-100.06395 -69.3983,-164.71934 0,-61.6052 24.1543,-117.5324 63.4512,-158.711977 z"/>
  <path style="fill:#3c3734" d="M 249.65691,252.77396 409.96421,88.518523 c 40.1691,41.319687 64.9302,97.873417 64.9302,160.247967 0,64.1636 -26.202,122.16792 -68.4245,163.76568 z"/>
  <path style="fill:#e5412b" d="m 405.48251,413.49907 c -40.9695,39.8808 -96.7734,64.4203 -158.272,64.4203 -60.509,0 -115.505,-23.7561 -156.282703,-62.507 L 250.62421,251.78284 Z"/>
  <path style="fill:#006ba7" d="m 86.375707,86.568083 c 41.190003,-41.37272 98.044003,-66.95438 160.834903,-66.95438 64.523,0 122.7772,27.01253 164.2077,70.41431 l -161.041,161.522397 z"/>
  <path d="M 247.21095,0 C 110.81177,0 -0.04363112,111.68651 1.2882629e-5,248.75976 v 0.008 0.006 C -0.04363112,385.84636 110.81177,497.5332 247.21095,497.5332 c 136.40114,0 247.25776,-111.68968 247.21094,-248.76562 C 494.46977,111.69073 383.61274,0 247.21095,0 Z m 0,39.054687 c 115.15566,0 208.1995,93.602103 208.15625,209.705073 v 0.008 0.006 c 0.0433,116.10297 -93.00059,209.70508 -208.15625,209.70508 -115.15566,0 -208.199497,-93.60211 -208.156249,-209.70508 v -0.006 -0.008 C 39.011453,132.65679 132.05529,39.054687 247.21095,39.054687 Z"/>
  <path style="stroke:#000000;stroke-width:20" d="M 83.150207,86.605103 412.79121,414.86077 m -329.641003,0 L 412.79121,86.605103"/>
</svg>
