<?xml version="1.0" encoding="UTF-8" standalone="no"?>
<svg xmlns="http://www.w3.org/2000/svg" version="1.1" width="494.42191" height="497.53125">
  <path style="fill:#006c47" d="M 28.651506,320.9787 246.29011,250.2458 106.90641,68.900403 41.809406,149.233 21.726106,278.0424 Z"/>
  <path style="fill:#e5412b" d="m 29.343906,323.7488 216.946204,-73.503 -2.9567,229.3206 -132.2719,-41.5514 z"/>
  <path style="fill:#3c3734" d="m 246.29011,250.2458 1.891,233.4757 110.1111,-36.7037 88.6428,-78.9476 13.1579,-52.6318 z"/>
  <path style="fill:#006ba7" d="m 246.29011,250.2458 221.4206,77.6581 2.77,-138.5046 -85.8727,-127.424097 z"/>
  <path style="fill:#f5f1ed" d="M 113.83161,64.745303 246.29011,250.2458 381.14551,58.512603 244.02601,15.576203 Z"/>
  <path d="M 247.21095,0 C 110.81242,0 -0.04257373,111.68545 1.2268059e-5,248.75781 v 0.008 0.008 C -0.04257773,385.84617 110.81242,497.53163 247.21095,497.53163 383.61209,497.53163 494.46871,385.84195 494.42189,248.766 494.46871,111.68929 383.61209,0 247.21095,0 Z m 0,39.054687 c 115.15566,0 208.1995,93.600153 208.15625,209.703123 v 0.008 0.008 c 0.0433,116.10297 -93.00059,209.70313 -208.15625,209.70313 -115.15566,0 -208.199498,-93.60016 -208.15625,-209.70313 v -0.008 -0.008 C 39.011452,132.65484 132.05529,39.054687 247.21095,39.054687 Z"/>
  <path style="display:inline;stroke:#000000;stroke-width:20" d="m 246.29011,250.2458 0.9794,235.0499 m -0.9794,-235.0499 217.4212,70.5149 m -217.4212,-70.5149 0.9794,235.0499 M 109.17761,64.164503 246.29011,250.2458 M 22.992606,319.7814 246.29011,250.2458 m 0,0 135.1537,-189.019397"/>
</svg>
