<?xml version="1.0" encoding="UTF-8" standalone="no"?>
<svg xmlns="http://www.w3.org/2000/svg" width="37.045105mm" height="37.039177mm" viewBox="0 0 37.045105 37.039177" version="1.1">
  <path style="fill:#ffffff" d="M 6.9962021,8.347067 C 9.8748687,5.3131782 14.094091,3.5810393 18.274507,3.7150949 c 2.293056,0.045861 4.744861,0.7796388 6.258278,2.5929166 1.548694,1.8132777 1.446389,4.5578885 0.331611,6.5651945 -1.439333,2.621139 -3.979333,4.487333 -6.695722,5.637389 0.41275,2.063749 1.375833,4.342694 3.478389,5.161138 2.00025,0.850195 4.15925,-0.409222 5.415139,-1.954389 2.945694,-3.728861 3.302,-9.620249 0.02822,-13.2714992 1.742722,0.4268611 3.309055,1.4957777 4.229805,3.0480002 2.102556,3.453694 2.077861,7.84225 0.850195,11.595805 -0.948972,2.744611 -2.712861,5.453944 -5.478639,6.618111 -2.183694,0.963083 -4.875389,0.225778 -6.364111,-1.612194 -2.19075,-2.645834 -2.783417,-6.353528 -2.243667,-9.673167 -1.538111,-0.465667 -3.192638,-0.6985 -4.776611,-0.328083 -1.830916,0.525639 -3.146777,2.413 -2.9845,4.321527 0.211667,2.822223 2.053167,5.242278 4.243917,6.907389 2.204861,1.615722 5.11175,2.638778 7.817555,1.756833 -0.931333,0.948973 -2.021416,1.813278 -3.3655,2.056695 C 14.93723,33.951678 10.813258,32.000816 7.9275354,29.203289 5.7226743,27.0584 4.0258132,24.155039 4.0011188,21.011789 3.9870077,18.609372 5.6450632,16.305733 7.9910354,15.695428 11.596424,14.757039 15.297063,16.23165 18.182785,18.3589 19.533924,17.099483 20.84273,15.536678 20.93798,13.606984 21.061452,11.864261 19.854952,10.280289 18.299202,9.6135392 15.642785,8.410567 12.527757,8.918567 9.9842298,10.163872 7.7511465,11.268067 5.6133132,13.130734 5.1547021,15.695428 3.9411466,13.158956 5.2570077,10.276761 6.9962021,8.347067 Z"/>
  <path d="m 15.798007,0.18026161 c 3.817056,-0.51505555 7.796389,0.0635 11.221861,1.86619439 5.312834,2.7093333 9.182806,8.135055 9.856611,14.079361 0.652639,4.66725 -0.610305,9.577916 -3.421944,13.363222 -3.249083,4.483805 -8.614833,7.355416 -14.153444,7.531805 C 14.228146,37.25015 9.0458409,35.320455 5.489841,31.665678 1.9655911,28.286067 -0.03465889,23.410678 6.188848e-4,18.535289 -0.03818667,13.906845 1.7503966,9.2748725 4.9430354,5.9129004 7.7617298,2.8260949 11.663452,0.79056715 15.798007,0.18026161 M 6.9962021,8.347067 c -1.7391944,1.929694 -3.0550555,4.811889 -1.8415,7.348361 0.4586111,-2.564694 2.5964444,-4.427361 4.8295277,-5.531556 2.5435272,-1.245305 5.6585552,-1.753305 8.3149722,-0.5503328 1.55575,0.6667498 2.76225,2.2507218 2.638778,3.9934448 -0.09525,1.929694 -1.404056,3.492499 -2.755195,4.751916 -2.885722,-2.12725 -6.586361,-3.601861 -10.1917496,-2.663472 -2.3459722,0.610305 -4.0040277,2.913944 -3.9899166,5.316361 0.024694,3.14325 1.7215555,6.046611 3.9264166,8.1915 2.8857226,2.797527 7.0096946,4.748389 11.0913326,3.933472 1.344084,-0.243417 2.434167,-1.107722 3.3655,-2.056695 -2.705805,0.881945 -5.612694,-0.141111 -7.817555,-1.756833 -2.19075,-1.665111 -4.03225,-4.085166 -4.243917,-6.907389 -0.162277,-1.908527 1.153584,-3.795888 2.9845,-4.321527 1.583973,-0.370417 3.2385,-0.137584 4.776611,0.328083 -0.53975,3.319639 0.05292,7.027333 2.243667,9.673167 1.488722,1.837972 4.180417,2.575277 6.364111,1.612194 2.765778,-1.164167 4.529667,-3.8735 5.478639,-6.618111 1.227666,-3.753555 1.252361,-8.142111 -0.850195,-11.595805 -0.92075,-1.5522225 -2.487083,-2.6211391 -4.229805,-3.0480002 3.273778,3.6512502 2.917472,9.5426382 -0.02822,13.2714992 -1.255889,1.545167 -3.414889,2.804584 -5.415139,1.954389 -2.102556,-0.818444 -3.065639,-3.097389 -3.478389,-5.161138 2.716389,-1.150056 5.256389,-3.01625 6.695722,-5.637389 C 25.979174,10.8659 26.081479,8.1212892 24.532785,6.3080115 23.019368,4.4947337 20.567563,3.760956 18.274507,3.7150949 14.094091,3.5810393 9.8748687,5.3131782 6.9962021,8.347067 Z"/>
</svg>
