<?xml version="1.0" encoding="UTF-8" standalone="no"?>
<svg xmlns="http://www.w3.org/2000/svg" width="37.790283mm" height="37.764652mm" viewBox="0 0 37.790283 37.764652" version="1.1">
  <path style="fill:#ffffff" d="m 18.796698,1.3836367 c -0.257418,0.00854 -0.510162,0.09749 -0.718301,0.2888711 -0.599722,0.433917 -0.575155,1.390276 -0.127124,1.9264971 C 18.660357,4.2093112 20.0256,3.9342479 20.149072,2.911192 20.381905,2.0592337 19.56895,1.3580053 18.796698,1.3836367 Z M 15.979299,1.5174789 C 13.95083,1.9302289 11.950396,2.5619293 10.151233,3.6026216 5.6039244,6.1567344 2.3973473,10.837764 1.5083473,15.963625 c 1.143,-0.268111 2.4482707,-0.09177 3.2561318,0.83251 1.3088055,1.245305 0.991556,3.633582 -0.5394995,4.557857 -0.79375,0.599725 -1.8170666,0.476377 -2.7378166,0.39171 0.546802,2.483555 1.4078973,4.92827 2.8825084,7.020242 2.6352535,3.937 6.9637026,6.558047 11.5956746,7.404714 -0.680857,-1.972024 0.927523,-4.310729 3.061829,-4.10259 1.993194,0.08819 3.199825,2.254101 2.691825,4.085022 2.300114,-0.45156 4.547132,-1.245183 6.526219,-2.51871 4.20158,-2.596445 7.027757,-7.087306 7.934396,-11.90625 -1.929691,0.635 -4.233365,-0.85738 -4.092258,-2.956408 -0.05644,-2.039056 2.211504,-3.42193 4.074171,-2.808097 -0.458608,-2.028472 -1.050939,-4.0531 -2.123384,-5.848737 C 31.508728,5.5711082 26.809583,2.4276455 21.719,1.5174789 22.085889,3.1014511 21.401355,5.0171924 19.718605,5.4722757 17.443189,6.308359 15.129104,3.7364503 15.979299,1.5174789 Z m 6.741706,0.9911538 c 4.564948,1.1606403 8.664335,4.2161487 10.872724,8.4036223 0.709083,1.287637 1.1603,2.691639 1.594217,4.088639 -1.605139,0.119945 -3.231445,1.044064 -3.704167,2.659786 -0.899583,2.374194 1.195938,5.136469 3.725355,4.967136 -1.4605,6.081888 -6.410057,11.119322 -12.520165,12.548072 -0.186975,-0.966611 -0.380566,-2.010897 -1.142566,-2.709397 -1.435809,-1.5875 -4.251173,-1.54131 -5.584673,0.155547 -0.677333,0.687917 -0.779558,1.672174 -0.973585,2.564702 C 8.9027281,33.729767 3.8861648,28.741454 2.4891683,22.627816 4.8598314,22.726597 6.916681,20.313294 6.2605144,17.99554 5.925372,16.231655 4.2070161,15.092186 2.4819328,15.003992 3.9283217,8.9538536 8.8710311,3.9305963 14.949389,2.5194849 c 0.232833,1.0724451 0.500778,2.2473245 1.418,2.9564078 1.524,1.3758333 4.15549,1.1182378 5.404323,-0.5115955 0.599722,-0.6843899 0.730574,-1.6089975 0.949293,-2.4556645 z M 17.457247,7.1672628 C 15.065064,7.1328458 12.549226,7.7975084 10.892271,9.6032896 8.9872713,11.709373 8.3347418,14.616254 8.0066585,17.357337 c -0.1975555,3.051531 1.964884,5.623087 4.4943005,7.034198 0.515056,-2.363611 1.323019,-4.723345 3.016352,-6.51898 2.056695,0.282218 4.571968,0.267631 5.961909,-1.545647 0.881948,-1.075972 0.515024,-2.497303 0.14108,-3.689695 1.04775,0.635 1.756639,1.650834 2.271695,2.740917 -1.862667,0.490365 -3.079352,2.257633 -3.382737,4.085022 0.09877,1.114778 0.264573,2.229813 0.08113,3.348115 0.754941,0.469198 1.548691,0.874677 2.38125,1.192177 0.04939,0.567973 -0.346171,1.46062 0.511079,1.531172 0.218719,-0.28575 0.441184,-0.567852 0.659907,-0.850078 -0.105834,0.218726 -0.317486,0.662968 -0.426847,0.885222 0.254,0.09877 0.761869,0.296545 1.012341,0.395323 0.151695,-0.299861 0.303576,-0.599737 0.455267,-0.89607 -0.208135,0.776111 0.102161,1.234878 0.910025,1.308964 0.144636,-0.328086 0.289105,-0.649545 0.4408,-0.9741 -0.289278,0.758472 -0.0314,1.235099 0.787029,1.358572 0.800809,-1.284111 0.550461,-2.822498 1.185461,-4.163053 -0.306917,-0.01764 -0.92092,-0.05626 -1.227836,-0.0739 0.338666,-0.931333 0.719663,-1.841761 1.139468,-2.737816 -0.324559,-0.804333 -0.663183,-1.605072 -1.015961,-2.398822 1.001893,-2.282472 -0.0847,-4.734098 -1.446424,-6.607348 -1.855607,-2.4588624 -5.023633,-3.5594257 -8.022248,-3.5982295 -0.158086,-0.00839 -0.316977,-0.01373 -0.476454,-0.016006 z m 6.459551,9.5622072 c 0.892532,0 1.788446,0.02441 2.680977,0.07028 -0.127,1.143 0.197538,2.631772 -0.896073,3.400828 -1.195916,0.377468 -2.162471,-0.712654 -3.030304,-1.365293 0.398638,-0.712611 0.815015,-1.410843 1.2454,-2.105815 z m 11.200867,0.822688 c -0.284261,-0.0236 -0.572399,0.05383 -0.814937,0.270786 -0.525639,0.363361 -0.564815,1.047771 -0.381374,1.608687 0.416281,0.885473 1.930043,0.959552 2.293401,0 0.5715,-0.830791 -0.244306,-1.808695 -1.09709,-1.879473 z m -32.4455638,0.0018 c -0.2901491,-0.0075 -0.5789824,0.08844 -0.8071837,0.318844 -0.6702778,0.543278 -0.543747,1.728185 0.2253085,2.119768 0.8255,0.483305 2.0111226,-0.260703 1.8841226,-1.227317 -0.019403,-0.679094 -0.6639172,-1.194894 -1.3022474,-1.211295 z m 15.8770668,1.980759 c -1.048081,-0.01224 -2.055463,0.427094 -2.417939,1.54099 1.167695,1.820333 1.227515,4.067432 1.255737,6.162932 2.716389,2.166052 6.120681,3.157781 9.422681,4.046781 0.04939,-1.354666 0.144385,-2.709774 0.09147,-4.067968 -0.239893,-0.05997 -0.722845,-0.183427 -0.962734,-0.243396 -0.02822,0.215195 -0.07771,0.642116 -0.105936,0.85731 -0.06703,-0.04939 -0.20798,-0.141206 -0.278536,-0.187067 0.07761,-0.183445 0.236065,-0.550362 0.313676,-0.733806 -0.635,-0.419806 -1.093741,-0.288908 -1.368908,0.381374 0.215194,-0.6985 -0.271522,-0.980917 -0.850078,-1.167892 -0.204611,0.363368 -0.408968,0.726835 -0.620635,1.08314 0.116417,-0.405701 0.22896,-0.811621 0.352432,-1.21026 -0.737305,-0.246945 -1.153382,0.306846 -1.559076,0.811318 -0.677334,-0.303389 -1.354427,-0.592303 -2.045872,-0.860411 -0.723191,-2.0955 0.857155,-4.268868 -0.187067,-6.258535 -0.336021,-0.09613 -0.689853,-0.150435 -1.039213,-0.15451 z m 0.248045,14.298351 c -0.254328,0.0069 -0.506268,0.09715 -0.718816,0.295589 -0.483306,0.352775 -0.522305,1.022763 -0.374139,1.555461 0.455084,1.072445 2.324711,0.889116 2.458766,-0.320911 0.182563,-0.820209 -0.602816,-1.550811 -1.365811,-1.530139 z"/>
  <path d="M 18.659238,0.00129222 C 18.074111,0.00823136 17.488976,0.04269563 16.906889,0.10619563 11.795143,0.63183415 6.9481629,3.3557548 3.868413,7.4726714 0.92977063,11.236808 -0.4210719,16.171862 0.11515384,20.913196 c 0.4868298,5.090583 3.23140556,9.881143 7.28482566,12.978532 3.2102775,2.437694 7.2068795,3.926829 11.2602965,3.863329 5.93019,0.201083 11.811154,-2.773024 15.331877,-7.517885 2.843388,-3.750028 4.222728,-8.597325 3.682978,-13.275158 C 37.191826,11.755013 34.358989,6.8233599 30.143294,3.7400832 26.865107,1.2737235 22.75514,-0.04727646 18.659238,0.00129222 Z m 0.13746,1.38234448 C 19.56895,1.3580074 20.381905,2.0592337 20.149072,2.911192 20.025596,3.9342479 18.660357,4.2093112 17.951273,3.5990049 17.503242,3.0627841 17.478675,2.1064251 18.078397,1.6725078 18.286532,1.4811262 18.53928,1.3921807 18.796698,1.3836367 Z m -2.817399,0.1338422 c -0.850195,2.2189714 1.46389,4.7908805 3.739306,3.9547968 1.68275,-0.455083 2.367284,-2.3708246 2.000395,-3.9547968 5.090583,0.9101666 9.789728,4.0536296 12.319144,8.5974091 1.072445,1.795637 1.664776,3.820265 2.123384,5.848737 -1.862667,-0.613833 -4.130612,0.769041 -4.074171,2.8081 -0.141107,2.099025 2.162567,3.591405 4.092258,2.956405 -0.906639,4.818944 -3.732816,9.309805 -7.934399,11.90625 -1.979084,1.273531 -4.226105,2.067154 -6.526216,2.518713 0.508,-1.83092 -0.698631,-3.996827 -2.691825,-4.085025 -2.134306,-0.208139 -3.74269,2.130566 -3.061829,4.102593 C 11.333374,35.323995 7.0049213,32.702944 4.3696714,28.765944 2.8950603,26.673972 2.033965,24.229257 1.487163,21.745702 c 0.92075,0.08467 1.9440631,0.208015 2.7378131,-0.391707 1.531059,-0.924278 1.8483085,-3.312555 0.539503,-4.55786 C 3.956618,15.871857 2.6513473,15.695514 1.5083473,15.963625 2.3973473,10.837764 5.6039244,6.1567344 10.15123,3.6026216 11.950396,2.5619293 13.950826,1.9302289 15.979299,1.5174789 Z m 6.741706,0.9911538 C 22.502286,3.3552997 22.371434,4.2799073 21.771708,4.9642972 20.522875,6.5941302 17.891389,6.851726 16.367389,5.4758927 15.450167,4.7668094 15.182222,3.5919296 14.949385,2.5194845 8.8710275,3.9305963 3.9283217,8.9538536 2.4819328,15.003992 c 1.7250833,0.08819 3.4434392,1.227663 3.7785816,2.991548 0.6561666,2.31775 -1.4006795,4.731057 -3.7713461,4.632276 1.3969965,6.113638 6.4135598,11.101951 12.4989767,12.558924 0.194027,-0.892528 0.296252,-1.876785 0.973585,-2.564702 1.3335,-1.696861 4.148864,-1.743047 5.584673,-0.155547 0.761997,0.6985 0.955591,1.742786 1.142566,2.709397 6.110108,-1.42875 11.059665,-6.466184 12.520165,-12.548072 -2.529417,0.169333 -4.624938,-2.592942 -3.725355,-4.967136 0.472722,-1.615722 2.099028,-2.539841 3.704167,-2.659789 -0.433917,-1.397 -0.885137,-2.800999 -1.594221,-4.088636 C 31.38534,6.7247814 27.285953,3.6692726 22.721005,2.5086327 Z m -5.263762,4.6586301 c 0.159481,0.00236 0.318372,0.00765 0.476458,0.016009 2.998615,0.038804 6.166637,1.1393674 8.022248,3.5982302 1.361722,1.873247 2.448313,4.324876 1.446424,6.607349 0.352778,0.79375 0.691402,1.594488 1.015961,2.398818 -0.419809,0.896059 -0.800802,1.806483 -1.139468,2.737816 0.306916,0.01764 0.920919,0.05626 1.227832,0.0739 -0.635,1.340556 -0.384651,2.878939 -1.185457,4.163053 -0.818444,-0.123472 -1.076307,-0.6001 -0.787033,-1.358572 -0.151691,0.324556 -0.29616,0.646017 -0.440796,0.974101 -0.807864,-0.07408 -1.11816,-0.532853 -0.910025,-1.308964 -0.151691,0.296333 -0.303576,0.596208 -0.455267,0.896069 -0.250472,-0.09878 -0.758341,-0.296548 -1.012341,-0.395323 0.109361,-0.222253 0.321013,-0.666496 0.426847,-0.885218 -0.218723,0.282222 -0.441188,0.564325 -0.65991,0.850075 -0.85725,-0.07055 -0.461691,-0.9632 -0.51108,-1.531172 -0.832555,-0.3175 -1.626305,-0.722979 -2.38125,-1.192177 0.183445,-1.118302 0.01764,-2.233338 -0.08113,-3.348112 0.303389,-1.827392 1.520074,-3.594661 3.382741,-4.085025 -0.515056,-1.090084 -1.223945,-2.105918 -2.271695,-2.740918 0.373944,1.192392 0.740868,2.613724 -0.14108,3.689699 -1.389944,1.813274 -3.905214,1.827862 -5.961909,1.545643 -1.693333,1.795635 -2.501296,4.15537 -3.016352,6.518981 C 9.9715425,22.980413 7.809103,20.408858 8.0066585,17.357326 8.3347418,14.616243 8.9872713,11.709361 10.892271,9.603278 12.549223,7.7974968 15.065064,7.1328342 17.457243,7.1672512 Z m 6.459555,9.5622072 c -0.430385,0.694972 -0.846762,1.393204 -1.2454,2.105815 0.867833,0.652639 1.834388,1.742761 3.030304,1.365293 1.093611,-0.769056 0.769073,-2.257828 0.896073,-3.400828 -0.892531,-0.04586 -1.788445,-0.07028 -2.680977,-0.07028 z m 11.200867,0.822688 c 0.852784,0.07078 1.66859,1.048682 1.09709,1.879473 -0.363358,0.959552 -1.87712,0.885473 -2.293401,0 -0.183441,-0.560916 -0.144265,-1.245326 0.381374,-1.608687 0.242538,-0.216959 0.530676,-0.294379 0.814937,-0.270786 z m -32.4455638,0.0018 c 0.6383302,0.0164 1.2828446,0.532201 1.3022474,1.211295 0.127,0.966614 -1.0586226,1.710622 -1.8841261,1.227317 -0.769052,-0.391583 -0.8955828,-1.57649 -0.2253086,-2.119768 0.2282049,-0.230409 0.5170382,-0.326298 0.8071873,-0.318844 z m 15.8770668,1.980759 c 0.34936,0.0041 0.703192,0.05838 1.039213,0.15451 1.044222,1.989667 -0.536124,4.163035 0.187071,6.258535 0.691441,0.268108 1.368534,0.557022 2.045868,0.860411 0.405694,-0.504469 0.821771,-1.058263 1.55908,-0.811318 -0.123476,0.398639 -0.236019,0.804566 -0.352436,1.210264 0.211667,-0.356309 0.416024,-0.71978 0.620635,-1.083141 0.578556,0.186976 1.065272,0.469389 0.850078,1.167889 0.275167,-0.670282 0.733908,-0.80118 1.368908,-0.381374 -0.07761,0.183444 -0.236064,0.550361 -0.313676,0.733806 0.07056,0.04586 0.211508,0.137678 0.278536,0.187067 0.02822,-0.215191 0.07771,-0.642115 0.105936,-0.85731 0.239889,0.05997 0.722841,0.183423 0.962734,0.243396 0.05292,1.358194 -0.04208,2.713302 -0.09147,4.067968 -3.302,-0.889 -6.706292,-1.880725 -9.422681,-4.046781 -0.02822,-2.0955 -0.08804,-4.342599 -1.255737,-6.162932 0.362479,-1.113896 1.369858,-1.553228 2.417939,-1.54099 z m 0.248045,14.298351 c 0.762995,-0.02067 1.548374,0.70993 1.365808,1.530139 -0.134052,1.210027 -2.003679,1.393356 -2.458763,0.320911 -0.148166,-0.532698 -0.109167,-1.202686 0.374139,-1.555461 0.212548,-0.198437 0.464485,-0.288699 0.718816,-0.295589 z"/>
</svg>
