<?xml version="1.0" encoding="UTF-8" standalone="no"?>
<svg xmlns="http://www.w3.org/2000/svg" width="38.745579mm" height="32.282688mm" viewBox="0 0 38.745579 32.282688" version="1.1">
  <path d="m 19.30753,0 c 0.38805,1.25589 0.53269,2.56822 0.78669,3.85586 0.77259,4.48028 1.63336,8.94645 2.38125,13.43378 3.38314,-2.88572 6.70278,-5.842 10.06122,-8.75595 -1.48166,3.90173 -3.2385,7.69409 -4.7625,11.57817 2.99156,-0.76553 5.95489,-1.651 8.94998,-2.40594 -1.59103,2.09197 -3.22792,4.14514 -4.83659,6.223 2.28953,0.4833 4.56142,1.04775 6.858,1.51341 -1.27705,0.75495 -2.62819,1.3582 -3.94758,2.02847 -1.09008,0.48684 -1.59456,1.67217 -2.55058,2.34245 -2.26131,1.68275 -5.13292,2.39536 -7.91281,2.46944 2.9845,-1.03364 6.02544,-2.63525 7.62353,-5.48922 -1.91206,-2.06022 -4.01814,-4.05694 -6.63575,-5.17878 -1.89089,-0.79022 -3.90525,-1.3723 -5.969,-1.38288 -1.94028,0.0529 -3.52778,1.86972 -3.60892,3.75002 0,2.43417 2.63525,4.4697 4.99181,3.67947 2.06728,-0.40216 3.29141,-2.40947 3.45369,-4.39208 -0.11289,1.3335 -0.27517,2.75872 -1.13594,3.84528 -1.73214,2.37067 -5.6127,2.62819 -7.6835,0.56797 -1.64042,-1.55575 -2.0955,-4.02872 -1.32997,-6.12775 -2.70228,1.18181 -5.38692,2.71286 -7.18962,5.1047 1.17828,3.00213 4.49087,4.37091 7.24959,5.60563 C 11.03136,32.131 7.73289,31.24905 5.55272,28.96305 4.25097,27.07217 1.83444,26.64883 0,25.45292 2.26836,24.93433 4.54378,24.44397 6.81214,23.92186 5.21758,21.84047 3.55953,19.80847 1.98967,17.70944 c 2.99508,0.74437 5.95136,1.64748 8.94291,2.40595 -1.46755,-3.89467 -3.37961,-7.62706 -4.6743,-11.5817 3.2385,3.01273 6.64986,5.82437 9.9448,8.77006 C 17.24378,11.53936 18.28447,5.77144 19.30753,0 Z"/>
</svg>
