<?xml version="1.0" encoding="UTF-8" standalone="no"?>
<svg xmlns="http://www.w3.org/2000/svg" width="34.670658mm" height="34.530914mm" viewBox="0 0 34.670658 34.530914" version="1.1">
  <path style="fill:#ffffff" d="M 16.054391,2.1895402 C 12.727697,2.8457069 9.2705417,3.7981091 6.7764064,6.2358053 3.4355974,9.5554423 1.579944,14.459015 2.2361107,19.158014 3.1815551,17.29182 4.7836071,15.701156 6.833246,15.1226 c 2.801059,-0.797278 5.707842,0.04915 8.360731,0.987538 3.545416,1.118302 7.63023,1.404309 11.016897,-0.356055 2.321278,-1.252358 3.323142,-3.894663 3.76411,-6.3499982 C 28.087627,12.039333 24.574267,12.553979 21.561545,12.41992 18.742851,12.176507 15.775683,11.224088 13.835401,9.0650872 12.851151,8.0279206 12.759884,6.4510678 13.24319,5.1599012 13.638301,3.7629008 14.943138,2.9727069 16.054391,2.1895402 Z M 21.6711,3.0680391 c 0.892528,0.8784166 2.268259,2.0003663 1.481564,3.3832562 -1.411111,-0.088196 -2.23666,-1.5733687 -3.66541,-1.5663124 -1.065389,-0.021167 -2.165978,0.5288414 -2.744537,1.4319542 -0.627941,1.0054166 -0.0672,2.2721704 0.705386,3.0235867 1.552222,1.5204712 3.841923,1.7781302 5.909197,1.8980782 1.262948,-0.06703 2.719758,-0.05661 3.718123,-0.963252 0.864302,-0.7937501 0.825539,-2.1589577 0.306955,-3.1326243 -1.0795,-2.2048604 -3.425274,-3.46438 -5.711278,-4.0746866 z M 31.98623,14.769649 c -0.843135,1.273528 -1.901842,2.441092 -3.291787,3.129009 -2.832805,1.495777 -6.194823,1.336999 -9.22166,0.589114 -2.511774,-0.497417 -4.811638,-1.883537 -7.418666,-1.901179 -2.4729721,-0.134056 -5.058632,0.839279 -6.5861598,2.836005 -1.4040555,1.700389 -1.9368593,4.247677 -0.8185573,6.237344 1.4181666,2.458861 3.7990814,4.219123 6.3567201,5.369182 -0.366889,-0.832559 -0.856953,-1.668688 -0.842842,-2.607077 0.04939,-1.037167 0.818342,-1.887259 1.746147,-2.275314 2.398886,-1.125362 5.139909,-0.691237 7.609353,-0.05271 2.44475,0.61031 5.171758,0.405317 7.267258,-1.093988 -1.284115,2.106083 -3.929772,2.825859 -6.261636,2.670641 -1.770941,-0.0071 -3.757232,-0.698331 -5.358843,0.352947 -1.040698,0.589139 -1.562897,2.060211 -0.797369,3.07268 0.779638,0.987781 2.141773,1.252365 3.334166,1.322917 3.672416,0.225781 7.030709,-1.784911 9.7224,-4.085022 3.792361,-3.337275 5.175313,-8.671518 4.561476,-13.564546 z"/>
  <path d="m 14.340124,0.11880278 c 1.104195,-0.15169444 2.226028,-0.09172222 3.337278,-0.10230555 4.353277,-0.21872222 8.628944,1.75683327 11.722805,4.74486097 4.021667,3.8382222 5.972528,9.7084438 5.041194,15.1870828 -0.737305,4.917722 -3.767666,9.398 -7.993944,11.997972 -3.52425,2.204861 -7.870472,3.040945 -11.962694,2.345972 C 9.8810131,33.572719 5.6370965,30.849274 3.026541,26.993413 0.19726329,22.943525 -0.69173669,17.641275 0.54298551,12.868191 2.1269577,6.4017749 7.771402,1.1983028 14.340124,0.11880278 M 6.7765687,6.2359693 C 3.4357632,9.5556081 1.5801522,14.459219 2.2363188,19.158219 c 0.9454444,-1.866194 2.5470555,-3.457222 4.5966943,-4.035778 2.8010555,-0.797277 5.7079439,0.04939 8.3608329,0.987778 3.545417,1.118306 7.630583,1.404056 11.01725,-0.356305 2.321278,-1.252362 3.323167,-3.894667 3.764139,-6.3500003 -1.887361,2.6352503 -5.401028,3.1503053 -8.41375,3.0162503 C 18.742791,12.176747 15.77593,11.224247 13.835652,9.065247 12.851402,8.0280804 12.75968,6.4511638 13.242985,5.1599971 13.638096,3.7629971 14.943374,2.9727749 16.054624,2.1896083 12.72793,2.8457749 9.2707075,3.7982749 6.7765687,6.2359693 M 21.670846,3.0680249 c 0.892528,0.8784167 2.268361,2.00025 1.481667,3.3831389 -1.411111,-0.088195 -2.236611,-1.5733889 -3.665361,-1.5663333 -1.065389,-0.021167 -2.166056,0.5291666 -2.744611,1.4322777 -0.627945,1.0054166 -0.06703,2.2718888 0.705555,3.0233055 1.552222,1.5204723 3.84175,1.7780003 5.909028,1.8979443 1.262944,-0.06703 2.719917,-0.05644 3.718278,-0.963083 0.864305,-0.7937502 0.8255,-2.1590002 0.306916,-3.1326668 -1.0795,-2.2048611 -3.425472,-3.4642777 -5.711472,-4.0745833 m 7.023806,14.8307771 c -2.832806,1.495778 -6.194778,1.337028 -9.221611,0.589139 -2.511778,-0.497416 -4.811889,-1.883833 -7.418917,-1.901472 -2.472972,-0.134055 -5.0588331,0.839611 -6.5863608,2.836333 -1.4040555,1.700389 -1.93675,4.247445 -0.8184444,6.237111 1.4181666,2.458861 3.7994165,4.219222 6.3570552,5.369278 -0.366889,-0.832556 -0.85725,-1.668639 -0.843139,-2.607028 0.04939,-1.037166 0.818445,-1.887361 1.74625,-2.275416 2.398889,-1.125361 5.139972,-0.691445 7.609417,-0.05292 2.44475,0.610306 5.171722,0.405694 7.267222,-1.093611 -1.284111,2.106083 -3.929945,2.82575 -6.261806,2.670528 -1.770944,-0.0071 -3.757083,-0.6985 -5.358694,0.352777 -1.040694,0.589139 -1.562805,2.060223 -0.797278,3.072695 0.779639,0.987778 2.141361,1.252361 3.33375,1.322916 3.672417,0.225778 7.030861,-1.785055 9.722556,-4.085166 3.792361,-3.337278 5.175249,-8.671278 4.561416,-13.564305 -0.843139,1.273527 -1.901472,2.441222 -3.291416,3.129138 z"/>
</svg>
