<?xml version="1.0" encoding="UTF-8" standalone="no"?>
<svg xmlns="http://www.w3.org/2000/svg" width="37.39344mm" height="34.621609mm" viewBox="0 0 37.39344 34.621609" version="1.1">
  <path style="fill:#ffffff" d="M 32.95826,2.3603341 C 29.737399,3.3340007 27.123697,5.5776709 24.791832,7.9165839 23.161999,9.6063895 21.440168,11.21108 19.835033,12.92558 20.6817,13.811052 21.549759,14.679006 22.449342,15.515089 26.213481,11.391113 31.240233,7.9271673 32.95826,2.3603341 Z M 4.3057487,2.4021912 c 1.3158575,4.205111 4.7274761,7.1366766 7.5814443,10.2975658 3.859393,3.795888 7.581135,7.740392 11.578107,11.39517 -0.486833,0.529166 -0.966802,1.149805 -1.697052,1.333249 -0.991309,0.04939 -1.573265,-0.835984 -2.254126,-1.400429 0.0388,0.754945 0.05291,1.537896 0.345715,2.250511 1.781528,1.333496 3.90192,0.405638 5.849253,0.119884 -0.05644,-0.430389 -0.109774,-0.849972 -0.159163,-1.273305 1.816806,1.725083 3.563278,3.52425 5.341278,5.291666 0.684385,0.610306 0.970111,1.49207 1.118277,2.374018 2.088445,-0.222253 3.323089,-2.204787 3.80287,-4.067453 -0.892531,0.504472 -2.116677,1.418029 -3.093868,0.564303 -1.901475,-1.830917 -3.725128,-3.742743 -5.608962,-5.587771 0.419806,0 0.842829,0.0038 1.26969,0.01083 0.15875,-1.100667 0.402181,-2.184048 0.63149,-3.270603 0.01764,-0.934858 -0.398265,-1.816555 -0.758098,-2.656166 -0.762,-0.09525 -1.524251,-0.190412 -2.289782,-0.260968 0.546805,0.684389 1.534442,1.245182 1.439188,2.254127 -0.137583,0.765528 -0.814934,1.227451 -1.3441,1.72134 C 21.404767,16.629828 16.628248,11.877823 11.774026,7.2070455 9.6432481,5.1397678 7.2302764,3.1782811 4.3057487,2.40217 Z M 11.220052,17.511864 c -0.758472,0.05997 -1.5097655,0.179712 -2.2541231,0.317296 -0.3139758,1.058333 -0.9349493,2.169865 -0.5327862,3.288171 0.2151945,0.867833 0.3884648,1.749597 0.5048779,2.638597 0.3139758,-0.02822 0.9417685,-0.08081 1.2557374,-0.109036 -1.7674168,1.908528 -3.6475706,3.707243 -5.4890706,5.538163 -0.9313298,0.945444 -2.272164,0.204741 -3.104716,-0.483175 0.2469444,1.986139 1.6618373,3.689942 3.6126948,4.208529 0.2257813,-0.889 0.4656349,-1.830465 1.1994127,-2.444298 1.7991666,-1.707441 3.4041185,-3.644586 5.3655631,-5.165058 -0.06703,0.356305 -0.137792,0.71616 -0.211871,1.079521 1.732138,0.204611 3.520997,1.10763 5.221386,0.260964 1.167694,-0.310441 0.867971,-1.735575 1.023193,-2.642214 -0.624417,0.532694 -1.146539,1.351153 -2.035535,1.425236 -0.874889,0.0247 -1.404408,-0.772245 -1.947683,-1.329637 1.227667,-1.217083 2.448504,-2.444708 3.672643,-3.661791 -0.867833,-0.874889 -1.728791,-1.757017 -2.653069,-2.571933 -1.213555,1.227663 -2.430596,2.448055 -3.661791,3.654559 -0.5715,-0.525643 -1.04388,-1.142803 -1.4107652,-1.823664 0.3351352,-0.818444 0.8885132,-1.506424 1.4459022,-2.18023 z"/>
  <path d="m 1.9916147,0.0070594 c 2.5082499,0.67380554 5.062361,1.4146389 7.203722,2.9421666 3.5242503,2.5153055 6.3535273,5.8278888 9.4579723,8.808861 3.044472,-2.8575 5.753805,-6.0924722 9.129888,-8.5760277 C 30.016281,1.5240038 32.70092,0.68792049 35.360864,3.8431e-6 34.690586,2.2260316 34.104975,4.5261426 32.838503,6.5052259 30.439614,10.361087 26.788364,13.16567 23.768586,16.492365 c 1.823861,-0.458612 3.947584,-0.885473 5.633861,0.1905 0.948973,1.467555 1.640417,3.418416 0.966611,5.132916 -0.239888,0.800806 -0.349249,1.633361 -0.437444,2.462389 1.322917,1.227667 2.568222,2.536472 3.84175,3.813528 1.090083,-0.811389 2.289528,-1.4605 3.545417,-1.9685 0.3175,2.695222 -0.335139,5.849055 -2.779889,7.394222 -1.30175,0.98425 -2.988028,0.9525 -4.54025,1.012472 0.05997,-0.924278 0.754944,-2.042583 -0.09878,-2.790472 -1.241778,-1.298222 -2.536472,-2.54 -3.813528,-3.802945 -1.217083,0.15875 -2.402416,0.486834 -3.591277,0.772584 -1.351139,-0.08467 -2.610556,-0.606778 -3.827639,-1.150056 -1.27,0.522111 -2.561167,1.11125 -3.961694,1.139472 -1.171223,-0.296333 -2.335389,-0.631472 -3.538362,-0.751416 -1.2558884,1.287639 -2.5682217,2.522361 -3.7888328,3.84175 -0.762,0.779639 -0.09525,1.894416 -0.1552222,2.832805 C 6.0097535,34.424059 4.7185868,34.526364 3.5861702,33.972503 1.6882258,33.13642 0.39705916,31.23142 0.06192027,29.213531 -0.05449639,28.179892 0.02311472,27.13567 0.05486467,26.102031 1.2578368,26.670003 2.4502258,27.276781 3.5156146,28.077587 4.8173645,26.856975 6.0556145,25.569337 7.3220868,24.316976 7.255059,23.473837 7.1845035,22.62717 6.9481423,21.815781 6.2813924,20.101281 6.969309,18.192753 7.8653645,16.696976 9.5622256,15.596309 11.717698,16.02317 13.559198,16.502948 10.782837,13.613698 7.7277812,10.967865 5.3006702,7.7646426 3.5650035,5.4962815 2.6830591,2.7410871 1.9916147,0.0070594 m 2.3142221,2.3953611 c 1.3158611,4.205111 4.7272222,7.1366942 7.5811942,10.2975835 3.859389,3.795888 7.581194,7.739944 11.578167,11.394722 -0.486834,0.529166 -0.966612,1.150055 -1.696862,1.3335 -0.991305,0.04939 -1.573388,-0.836084 -2.254249,-1.400528 0.0388,0.754944 0.05292,1.538111 0.345722,2.250722 1.781527,1.3335 3.901722,0.405694 5.849055,0.119944 -0.05644,-0.430389 -0.109361,-0.850194 -0.15875,-1.273527 1.816806,1.725083 3.563056,3.52425 5.341056,5.291666 0.684388,0.610306 0.970138,1.49225 1.118305,2.374195 2.088445,-0.22225 3.323167,-2.204861 3.802944,-4.067528 -0.892527,0.504472 -2.116666,1.418167 -3.093861,0.564444 -1.901472,-1.830916 -3.725333,-3.742972 -5.609166,-5.588 0.419805,0 0.843139,0.0035 1.27,0.01058 0.15875,-1.100667 0.402167,-2.183695 0.631472,-3.27025 0.01764,-0.934861 -0.398639,-1.816806 -0.758472,-2.656417 -0.762,-0.09525 -1.524,-0.1905 -2.289528,-0.261055 0.546806,0.684389 1.534583,1.245305 1.439333,2.25425 -0.137583,0.765527 -0.814916,1.227666 -1.344083,1.721555 C 21.404975,16.629948 16.628364,11.878031 11.774142,7.2072537 9.6433645,5.139976 7.2303646,3.1785316 4.3058368,2.4024205 M 24.791642,7.916337 c -1.629833,1.6898055 -3.351389,3.294944 -4.956528,5.009444 0.846667,0.885473 1.7145,1.753306 2.614084,2.589389 C 26.213336,11.391198 31.24042,7.9269203 32.958447,2.3600871 29.737586,3.3337538 27.123503,5.5774204 24.791642,7.916337 M 8.9660312,17.829392 c -0.3139722,1.058334 -0.9348611,2.169584 -0.5326944,3.287889 0.2151944,0.867833 0.3880555,1.749778 0.5044722,2.638778 0.3139722,-0.02822 0.9419166,-0.08114 1.255889,-0.109361 -1.7674168,1.908528 -3.6477223,3.707694 -5.4892223,5.538611 -0.9313333,0.945444 -2.2718888,0.204611 -3.1044443,-0.483306 0.2469444,1.986139 1.6615832,3.690056 3.6124443,4.208639 0.2257778,-0.889 0.4656667,-1.830917 1.1994444,-2.44475 1.7991667,-1.707444 3.4043055,-3.644194 5.3657499,-5.164666 -0.06703,0.356305 -0.137583,0.716138 -0.211667,1.079499 1.732139,0.204612 3.520722,1.107723 5.221111,0.261056 1.167695,-0.310444 0.867834,-1.735667 1.023056,-2.642305 -0.624417,0.532694 -1.146528,1.351138 -2.035528,1.425222 -0.874889,0.02469 -1.404055,-0.772584 -1.947333,-1.329972 1.227666,-1.217084 2.448278,-2.44475 3.672416,-3.661834 -0.867833,-0.874889 -1.728611,-1.756833 -2.652888,-2.57175 -1.213556,1.227667 -2.430639,2.448278 -3.661834,3.654778 -0.5715,-0.525639 -1.044222,-1.143 -1.4111107,-1.823861 0.3351387,-0.818444 0.8889997,-1.506361 1.4463887,-2.180167 -0.758472,0.05997 -1.5098887,0.179917 -2.2542498,0.3175 z"/>
</svg>
