<?xml version="1.0" encoding="UTF-8" standalone="no"?>
<svg xmlns="http://www.w3.org/2000/svg" width="29.439304mm" height="36.540722mm" viewBox="0 0 29.439304 36.540722" version="1.1">
  <path style="fill:#ffffff" d="m 15.694981,8.001171 c -0.483309,0.5009445 -0.299678,1.2241389 -0.338483,1.8520833 0.02822,5.4468887 -0.02106,10.8937137 0.0248,16.3406027 0.130528,-0.105833 0.387696,-0.321102 0.514699,-0.430463 0.169333,-3.185583 -0.11629,-6.378176 0.04599,-9.563759 -0.119944,-2.7305 0.222183,-5.492658 -0.247011,-8.198464 z m -2.053107,0.027905 c -0.194028,5.947833 -0.09151,11.913697 -0.05271,17.865061 0.151698,0.08113 0.458696,0.246578 0.613922,0.331244 -0.04233,-5.940777 0.07015,-11.888536 -0.05685,-17.825786 z m 3.464387,0.1834515 c 0.01411,5.6514995 -0.0038,11.3031085 0.01034,16.9581365 1.647468,-1.121833 3.372767,-2.314254 4.364072,-4.092254 0.684389,-1.231198 0.05984,-2.70553 -0.65629,-3.774447 -0.670278,-1.008944 -1.841567,-1.411488 -2.892848,-1.887738 0.596194,-0.0882 1.196125,-0.161989 1.799375,-0.232548 -0.05292,-2.31775 -0.144481,-4.63574 -0.01394,-6.9499616 -0.871361,-0.014111 -1.74286,-0.021202 -2.610697,-0.021202 z m -4.82606,0.00727 c -0.846666,0 -1.693139,0.00681 -2.5362814,0.010336 0.09525,2.3142265 0.024412,4.6285085 -0.010865,6.9427305 0.6385274,0.08114 1.2807354,0.172879 1.9192624,0.285771 -2.2048607,0.437441 -3.9124145,2.409793 -3.9935534,4.65346 0.6526389,2.300114 2.8046144,3.675948 4.6214234,5.027083 0.01411,-5.640916 0.02117,-11.281992 0,-16.9193773 z M 22.960167,24.158869 c -0.770445,-0.04181 -1.248371,0.828471 -1.334801,1.544609 -0.239886,1.689806 -1.252686,3.255935 -2.80138,4.021459 -0.8255,0.324559 -1.414632,1.181992 -0.874882,2.042774 0.850194,0.398635 1.404429,-0.289303 1.439707,-1.079522 1.837972,-0.931333 2.910286,-2.801034 3.393592,-4.741312 0.264583,-0.01058 0.79375,-0.0386 1.058333,-0.05271 -0.01411,-0.592666 0.190408,-1.404295 -0.532783,-1.658295 -0.121708,-0.0463 -0.237723,-0.07102 -0.347786,-0.077 z m -16.3535213,0.0284 c -0.070739,0.0043 -0.1456372,0.01588 -0.2247935,0.03461 -1.2735242,0.123476 -0.9245106,2.134267 0.3772394,1.809711 0.41275,1.912056 1.559313,3.67254 3.2985074,4.62504 0.155222,0.451556 0.211861,1.276844 0.903302,1.192178 1.051277,0.0388 1.100359,-1.449836 0.211356,-1.767336 C 9.725868,29.277135 8.396365,28.091484 8.0365317,26.405206 7.8149449,25.604842 7.6677166,24.12236 6.6066457,24.187257 Z"/>
  <path d="M 3.6265555,-1.6661e-6 C 5.3728055,0.02469278 7.1155277,0.01058167 8.8617776,0.021165 9.1616387,1.6898039 9.4720832,3.3654983 9.5003054,5.0658871 12.975166,5.1011649 16.450027,5.0623593 19.924889,5.0870538 20.09775,3.3901927 20.302361,1.6898039 20.641027,0.01763722 22.397861,-1.6661e-6 24.158222,0.03527611 25.918583,-1.6661e-6 26.003249,1.5169427 24.503944,2.1343038 23.879527,3.3196371 c -0.381,0.5715 -0.522111,1.2488334 -0.670277,1.9085278 0.606777,-0.3527778 1.435805,-1.3088055 2.0955,-0.5609167 0.931333,1.3758333 2.836333,1.143 4.134555,1.9967222 -1.61925,0.7196667 -3.548944,0.8643055 -4.691944,2.38125 -0.613834,-0.3951111 -1.202973,-0.8784167 -1.964973,-0.9136945 0.250473,4.3250551 1.982612,8.6289441 5.30225,11.4970271 -1.068916,5.74675 -3.097388,11.253611 -4.723694,16.852195 -2.155472,0.07408 -4.314472,0 -6.469944,0.05644 -0.01764,-1.8415 -0.903111,-3.608917 -2.215445,-4.868333 C 13.55725,33.07997 12.625916,34.69922 12.54125,36.54072 10.424583,36.491331 8.3079165,36.50897 6.1947777,36.530136 4.8753888,32.41322 3.5806944,28.28572 2.4271111,24.115887 2.0496389,22.567192 1.5522222,21.032609 1.4640278,19.430998 4.8330555,16.756942 6.4981666,12.371915 6.6533888,8.1597482 6.459361,8.1914982 6.0713055,8.2585259 5.8772777,8.2938037 c -0.4092222,0.2504722 -0.762,0.762 -1.3088055,0.6385278 C 4.1451389,8.7206648 3.9228889,8.2938037 3.65125,7.9339704 2.4306389,7.5176926 1.2135556,7.1014148 5.9200005e-8,6.6816093 1.1641667,6.1594982 2.38125,5.782026 3.5912778,5.3798593 3.9087778,5.0623593 4.0569444,4.448526 4.5931666,4.4449982 5.2740277,4.2368594 5.7502777,5.0270816 6.3464721,5.2211093 6.0395555,3.6512483 5.0764722,2.2789427 3.7923611,1.3476094 3.7323889,0.89605387 3.6794722,0.44449832 3.6265555,-1.6660999e-6 M 9.7437221,8.2303037 c 0.09525,2.3142223 0.024694,4.6284443 -0.010583,6.9426663 0.6385269,0.08114 1.2805829,0.172861 1.9191109,0.28575 -2.2048609,0.437445 -3.9123053,2.409472 -3.9934442,4.653139 0.6526389,2.300111 2.8045832,3.675944 4.6213882,5.027083 0.01411,-5.640916 0.02117,-11.281833 0,-16.9192216 -0.846666,0 -1.693333,0.00706 -2.5364715,0.010583 m 5.6126935,1.6227778 c 0.02822,5.4468888 -0.02117,10.8937778 0.0247,16.3406668 0.130528,-0.105834 0.388055,-0.321028 0.515055,-0.430389 0.169334,-3.185583 -0.116416,-6.378222 0.04586,-9.563805 -0.119944,-2.7305 0.22225,-5.49275 -0.246944,-8.1985561 -0.483305,0.5009444 -0.299861,1.2241388 -0.338667,1.8520833 m 1.749778,-1.6404167 c 0.01411,5.6515005 -0.0035,11.3030005 0.01058,16.9580275 1.647473,-1.121833 3.372556,-2.314222 4.363861,-4.092222 0.684389,-1.231194 0.05997,-2.705805 -0.656166,-3.774722 -0.670278,-1.008944 -1.8415,-1.411111 -2.892778,-1.887361 0.596195,-0.0882 1.195917,-0.162278 1.799167,-0.232833 -0.05292,-2.31775 -0.144639,-4.6355 -0.01411,-6.9497228 -0.871361,-0.014111 -1.742723,-0.021167 -2.610556,-0.021167 M 13.589,25.893887 c 0.151694,0.08114 0.458611,0.246944 0.613833,0.331611 C 14.1605,20.28472 14.273389,14.336887 14.146389,8.399637 L 13.641916,8.0292204 C 13.447889,13.977054 13.550194,19.942526 13.589,25.893887 M 6.7592221,26.03147 c 0.41275,1.912055 1.5592778,3.672417 3.2984719,4.624917 0.155223,0.451555 0.211667,1.277055 0.903111,1.192388 1.051278,0.03881 1.100667,-1.449916 0.211667,-1.767416 C 9.7260832,29.277025 8.396111,28.091692 8.0362777,26.405414 7.7999166,25.551692 7.6482221,23.921859 6.3817499,24.22172 5.1082222,24.345192 5.4574722,26.356026 6.7592221,26.03147 M 21.625277,25.703387 c -0.239889,1.689805 -1.252361,3.256138 -2.801055,4.021666 -0.8255,0.324556 -1.414639,1.181806 -0.874889,2.042584 0.850194,0.398638 1.404056,-0.289278 1.439333,-1.0795 1.837972,-0.931334 2.910417,-2.801056 3.393722,-4.741334 0.264584,-0.01058 0.79375,-0.0388 1.058334,-0.05292 -0.01411,-0.592667 0.1905,-1.404056 -0.532695,-1.658056 -0.973666,-0.370417 -1.583972,0.649111 -1.68275,1.467556 z"/>
</svg>
