<?xml version="1.0" encoding="UTF-8" standalone="no"?>
<svg xmlns="http://www.w3.org/2000/svg" width="27.675833mm" height="36.742146mm" viewBox="0 0 27.675833 36.742146" version="1.1">
  <path style="fill:#ffffff" d="m 3.4048087,1.7330294 c 4.7730832,-1.18886109 9.6519993,0.049389 14.3756943,0.8501944 -0.01058,6.4099721 0.0035,12.8199442 -0.0035,19.2299162 1.139472,1.640417 2.275417,3.284361 3.358444,4.967111 0.871362,-1.248833 1.707445,-2.525889 2.585861,-3.771194 0.381,-0.578556 0.903112,-1.153584 0.800806,-1.901472 -0.01058,-6.155973 0.02117,-12.3154724 -0.01764,-18.4749723 0.373945,-0.2681111 0.758472,-0.5256389 1.150056,-0.7796389 0.469194,0.4092222 0.910166,0.9172222 0.814916,1.5980833 0,9.9977219 0.01764,19.9989719 -0.01058,30.0002219 0.116417,1.185333 -1.220611,1.552222 -2.113139,1.792111 C 20.433392,35.998334 16.53167,34.872973 12.68992,34.25914 10.132281,33.800529 7.5076142,33.673529 4.9288087,33.976918 4.0221698,34.043945 3.2848643,34.594279 2.4770032,34.932945 1.8314198,35.017612 1.1258643,34.456695 1.242281,33.768779 1.2246421,23.894529 1.2387532,14.016751 1.2352254,4.1389738 1.0235587,2.8266405 2.2688643,1.9658627 3.4048087,1.7330294 m 0.6914444,3.0762221 c -0.014111,0.3527778 -0.035278,1.0583334 -0.045861,1.4111111 3.8770277,-0.5362222 7.7963889,-0.077611 11.6063889,0.7196667 -0.01411,-0.34925 -0.04233,-1.04775 -0.05645,-1.397 C 11.825614,4.6328627 7.9450586,4.6857793 4.0962531,4.8092515 m -0.00706,6.3394165 c -0.014111,0.578556 -0.028222,1.160639 -0.035278,1.742722 3.8593888,-0.716139 7.7787499,-0.04939 11.5816939,0.677334 -0.0071,-0.578556 -0.01058,-1.157112 -0.01058,-1.735667 -3.788834,-0.762 -7.6870277,-1.277056 -11.5358331,-0.684389 m -0.017639,6.311194 c 0,0.684389 -0.00353,1.372306 -0.00353,2.060223 3.8629166,-0.709084 7.7646391,-0.01411 11.5746391,0.663222 -0.01411,-0.687917 -0.01764,-1.375834 -0.01764,-2.06375 C 11.836197,17.354029 7.9203641,16.810751 4.0715587,17.459862 m -0.00353,6.282972 c 0.00353,0.807862 0.00353,1.615723 0,2.427112 5.1082221,-0.970139 10.1529443,0.599722 15.1906113,1.224138 -0.5715,-0.889 -1.150056,-1.763888 -1.739195,-2.63525 -4.41325,-0.892527 -8.949972,-1.739194 -13.4514163,-1.016 m -0.028222,4.688417 c -0.5538611,0.162278 -1.2029722,0.299861 -1.5628055,0.786694 -0.1164167,1.368778 -0.017639,2.744612 -0.052917,4.116917 2.2013333,-1.344083 4.9424165,-1.026583 7.4083332,-0.959556 5.2352226,0.303389 10.5903886,2.765778 15.7726946,0.896056 0.05997,-1.432278 0.01058,-2.868083 0.08114,-4.296833 -2.839861,1.36525 -6.110111,0.744361 -9.091083,0.282222 -4.116917,-0.807861 -8.3714173,-1.636889 -12.5553623,-0.8255 z"/>
  <path d="M 7.8755014,0.00113748 C 6.8305101,-0.0088814 5.7842101,0.04666698 4.7382275,0.1913094 3.1048629,0.42766697 1.1649168,0.84389183 0.31472237,2.427864 -0.1015554,3.0452251 0.02178629,3.8145064 0.00414741,4.5130064 c 0.02116666,9.7684166 0.003175,19.5367726 0.00670277,29.3051896 -0.11288888,1.17475 0.90329807,2.236748 2.04277022,2.346106 1.0795,0.232837 1.8730278,-0.705496 2.8608055,-0.913638 6.4064481,-1.132417 12.6118551,2.253911 19.0112431,1.329637 1.474611,-0.22225 3.386797,-0.782891 3.750159,-2.45153 C 27.587633,23.672438 27.693572,13.208724 27.619503,2.7523913 27.651253,1.3483358 25.954321,0.30772606 24.726655,0.98505938 22.430071,2.2903336 19.6641,1.6094549 17.208766,1.2284549 14.134308,0.65166322 11.010468,0.03123648 7.8754873,0.00113748 Z m 0.026882,1.24075122 c 3.3094436,0.033232 6.6304116,0.7909665 9.8779496,1.3415186 -0.01058,6.4099756 0.004,12.8198627 -0.0032,19.2298347 1.139469,1.640417 2.275421,3.28439 3.358452,4.96714 0.871361,-1.248834 1.706954,-2.526041 2.585371,-3.771346 0.381,-0.578552 0.903291,-1.153802 0.800982,-1.901691 -0.01058,-6.155972 0.02124,-12.3153418 -0.01757,-18.4748417 0.373945,-0.2681111 0.758218,-0.525279 1.149802,-0.779279 0.469194,0.4092187 0.910188,0.9169717 0.814938,1.5978328 0,9.9977219 0.01788,19.9989859 -0.01034,30.0002359 0.116417,1.185333 -1.220523,1.55225 -2.113047,1.792139 C 20.433412,35.998377 16.531334,34.872828 12.689584,34.258995 10.131945,33.800384 7.5076243,33.673455 4.9288188,33.976843 4.0221764,34.043873 3.2846345,34.59419 2.4767698,34.932857 1.8312152,35.017524 1.1258325,34.456505 1.2422492,33.768588 1.2246103,23.894335 1.238545,14.016646 1.234982,4.1388715 1.0233153,2.8265382 2.2689313,1.9656511 3.4048757,1.7328177 4.896466,1.3612969 6.397987,1.2267827 7.9022772,1.2418887 Z M 6.9866778,4.7440018 C 6.0226561,4.7521157 5.0586168,4.7782565 4.0964154,4.809114 4.0823043,5.1618917 4.0610071,5.8676166 4.0504238,6.2203979 7.9274515,5.6841757 11.84695,6.1429738 15.65695,6.9402515 L 15.600103,5.5429199 C 12.769062,4.860295 9.8787394,4.7196919 6.9866778,4.7440018 Z M 7.7070465,10.89143 c -1.2075513,-0.0049 -2.4151131,0.07214 -3.6178666,0.257347 -0.014111,0.57856 -0.028081,1.160449 -0.035137,1.742532 C 7.9134321,12.17517 11.832821,12.842065 15.635766,13.568784 15.62871,12.990232 15.6249,12.411528 15.6249,11.832976 13.020077,11.309101 10.363657,10.902154 7.7070394,10.89143 Z m -0.013441,6.279719 c -1.209922,-3.53e-4 -2.4192477,0.08602 -3.6220012,0.288872 0,0.684389 -0.00363,1.371907 -0.00363,2.059824 3.8629166,-0.709084 7.7644867,-0.01383 11.5744867,0.663522 -0.01411,-0.687917 -0.01757,-1.376038 -0.01757,-2.063955 -2.604823,-0.526298 -5.26947,-0.947303 -7.9312981,-0.948263 z m -0.2454628,6.299874 c -1.1272908,0.0084 -2.2547932,0.09102 -3.3801579,0.271819 0.00353,0.807861 0.00353,1.615852 0,2.427241 5.1082257,-0.970139 10.1531422,0.599796 15.1908082,1.224213 -0.5715,-0.889 -1.150292,-1.764136 -1.73943,-2.635497 -3.309938,-0.669396 -6.689348,-1.312912 -10.0712203,-1.287776 z m 0.5286481,4.629689 c -1.3149086,-0.01612 -2.6297431,0.07717 -3.9372257,0.33073 -0.5538611,0.162281 -1.2028629,0.299684 -1.5626962,0.786518 -0.1164167,1.368777 -0.017427,2.744755 -0.052709,4.117061 2.2013333,-1.344084 4.9424165,-1.026658 7.4083331,-0.959633 5.235222,0.303389 10.590374,2.765791 15.77268,0.896069 0.05997,-1.432277 0.01058,-2.868143 0.08113,-4.296893 -2.839861,1.36525 -6.109946,0.744291 -9.090918,0.282152 -2.830382,-0.555403 -5.725791,-1.120521 -8.6185967,-1.156004 z"/>
</svg>
