<?xml version="1.0" encoding="UTF-8" standalone="no"?>
<svg xmlns="http://www.w3.org/2000/svg" width="37.233326mm" height="35.910004mm" viewBox="0 0 37.233326 35.910004" version="1.1">
  <path style="fill:#ffffff" d="m 12.954226,3.0972975 c -0.05997,2.9562777 -0.102426,5.909331 -0.127123,8.8656085 2.659947,2.254247 5.25987,4.585917 7.976259,6.769612 -2.621139,-5.207 -5.083358,-10.502304 -7.849136,-15.6352205 z m 5.361432,1.6944692 C 17.17523,4.777585 16.03247,4.8738475 14.905013,5.0868371 17.713124,10.667781 20.475339,16.276983 23.248172,21.879094 17.607255,20.517372 11.944925,19.240733 6.3251754,17.804924 c 1.6439444,-1.576913 3.2776265,-3.16828 4.9180436,-4.75578 0.335142,-0.391583 0.89251,-0.761954 0.772565,-1.361673 0.01058,-1.9649753 0.09838,-3.9298487 0.126609,-5.8983486 C 10.882976,6.350039 9.6378892,6.9427656 8.4878336,7.7047656 9.2463058,8.9924045 9.9623001,10.301037 10.720772,11.585152 9.3202445,10.840787 7.8985924,10.145691 6.5298147,9.3413582 4.2826203,11.662636 2.9491062,14.802474 2.7233285,18.016283 c -0.1975556,3.132667 0.8609012,6.275938 2.7729567,8.752438 1.3088055,-0.388059 2.6176604,-0.779565 3.9299937,-1.157037 -0.6420555,1.097139 -1.3580921,2.148388 -2.0107309,3.234944 5.845528,5.36575 15.493968,6.032602 21.836909,1.164269 -0.522111,-1.143 -1.086686,-2.268319 -1.633492,-3.397208 1.220611,0.500945 2.430826,1.022788 3.630267,1.576649 4.261559,-4.727222 4.328385,-12.50587 0.236163,-17.356564 -1.241777,0.416278 -2.501254,0.790018 -3.767726,1.111045 C 28.299752,10.904125 28.977107,9.9199066 29.59094,8.8933269 26.426961,6.3026116 22.388611,4.8423938 18.315658,4.7917667 Z"/>
  <path d="M 12.368403,3.8838e-6 C 12.844653,0.88194831 13.331487,1.760365 13.790098,2.6528927 c 5.880805,-1.2876388 12.30136,0.1728611 17.025055,3.9123055 2.621139,1.9720277 4.649611,4.7413328 5.626805,7.8810558 1.474611,4.494388 0.885472,9.659055 -1.742722,13.620749 -2.250722,3.361972 -5.760861,5.806722 -9.623778,6.963833 C 19.46982,36.78767 13.130403,35.859864 8.1915144,32.709559 4.5367367,30.384753 1.5945701,26.789948 0.47273681,22.567198 -0.72670761,17.921115 0.40570903,12.798781 3.3090701,8.9993648 5.4786534,6.0677815 8.7559588,4.1345593 12.19907,3.0726983 12.209653,2.0461149 12.273153,1.0230594 12.368403,3.8838e-6 M 12.954014,3.0973927 c -0.05997,2.9562777 -0.102305,5.9090277 -0.127,8.8653053 2.659945,2.25425 5.259917,4.586111 7.976306,6.769805 C 18.182181,13.525504 15.719792,8.2303093 12.954014,3.0973927 m 1.950861,1.9896666 c 2.808111,5.5809447 5.570361,11.1901107 8.343195,16.7922217 -5.640917,-1.361722 -11.303,-2.638778 -16.92275,-4.074583 1.6439444,-1.576917 3.2773055,-3.167944 4.917722,-4.755444 0.335139,-0.391584 0.892528,-0.762 0.772583,-1.361723 0.01058,-1.9649718 0.09878,-3.929944 0.127,-5.8984439 C 10.883209,6.3500037 9.6379033,6.9426704 8.4878477,7.7046704 9.2463199,8.9923092 9.9624588,10.301115 10.720931,11.585226 9.3204033,10.840865 7.8987089,10.145893 6.5299311,9.3415592 4.2827367,11.662837 2.9492368,14.802559 2.723459,18.016365 c -0.1975556,3.132666 0.8607777,6.275916 2.7728333,8.752416 1.3088055,-0.388055 2.617611,-0.779639 3.9299443,-1.157111 -0.6420555,1.097139 -1.3581944,2.148417 -2.0108333,3.234972 5.8455277,5.36575 15.4939997,6.0325 21.8369437,1.164167 -0.522111,-1.143 -1.086555,-2.268361 -1.633361,-3.39725 1.220611,0.500944 2.430639,1.023055 3.630083,1.576916 4.261556,-4.727222 4.328584,-12.505971 0.236362,-17.356666 -1.241778,0.416278 -2.501195,0.790222 -3.767667,1.11125 0.582083,-1.040694 1.259417,-2.0249442 1.87325,-3.0515275 C 25.541125,5.5774204 20.058959,4.1133927 14.904875,5.0870593 Z"/>
</svg>
