<?xml version="1.0" encoding="UTF-8" standalone="no"?>
<svg xmlns="http://www.w3.org/2000/svg" width="36.748859mm" height="35.103645mm" viewBox="0 0 36.748859 35.103646" version="1.1">
  <path style="fill:#ffffff" d="M 18.35519,4.4166124 C 16.862943,6.6179457 15.52599,8.9180497 14.02316,11.112327 13.261157,10.69605 12.491826,10.301242 11.712187,9.9237697 9.8036592,13.444492 7.7397187,16.877147 5.7817986,20.369643 c 2.991559,-2.917472 6.8897994,-4.939037 11.0737474,-5.358846 0.16933,-0.744361 0.349229,-1.481857 0.507979,-2.226218 0.631468,-0.01411 1.270306,-0.0211 1.905306,-0.01757 0.172862,0.740834 0.345701,1.48505 0.507979,2.232939 4.240389,0.419806 8.138308,2.501498 11.18278,5.426026 C 28.857035,16.958169 26.920557,13.391628 24.885025,9.8850136 24.126557,10.311878 23.353716,10.713713 22.595244,11.133515 21.18766,8.8898487 19.734555,6.6743937 18.35519,4.416616 Z M 16.559438,19.51233 c -3.767666,0.289281 -7.7435954,0.709023 -10.9750397,2.846856 -1.04775,0.575028 -1.4218003,1.756756 -1.958019,2.744537 1.1394687,2.032 3.3270013,3.386843 5.6094735,3.711399 1.4216942,0.225777 2.7164032,-0.610588 3.5419032,-1.700671 1.516944,1.241777 3.005462,2.515326 4.550628,3.725354 C 17.032051,27.065083 16.87341,23.283527 16.559438,19.51233 Z m 3.520715,0.0067 c -0.232833,3.764143 -0.493779,7.525008 -0.768946,11.285619 1.566333,-1.192389 3.086731,-2.444842 4.596617,-3.707783 0.790222,1.2065 2.22239,1.971791 3.679363,1.700153 2.19075,-0.423334 4.342747,-1.668258 5.436361,-3.668512 -0.578555,-0.991302 -0.920894,-2.222821 -2.000394,-2.80138 C 27.809348,20.192825 23.830181,19.80478 20.080153,19.51903 Z"/>
  <path d="M 18.309167,5.5000001e-7 C 20.048361,2.5717505 21.575889,5.277556 23.318611,7.8457782 c 0.776111,-0.4233334 1.569861,-0.8149167 2.377722,-1.17475 3.668889,6.8297778 7.383639,13.6348608 11.052528,20.4681658 -4.243917,4.018139 -9.563806,7.168445 -15.455195,7.828139 -3.439583,0.28575 -6.984999,0.1905 -10.276416,-0.9525 C 6.8826945,32.617833 3.0268335,30.250694 2.4900001e-7,27.096861 3.5277779,20.22475 7.3307223,13.486695 10.974917,6.6710282 c 0.804333,0.3986389 1.615722,0.8043333 2.451805,1.143 C 15.010694,5.182306 16.682861,2.6070283 18.309167,5.5000001e-7 M 14.022917,11.1125 C 13.260917,10.696223 12.491861,10.301111 11.712222,9.9236392 9.8036945,13.444361 7.7399445,16.876889 5.7820279,20.369389 8.7735834,17.451917 12.671778,15.4305 16.855722,15.010695 c 0.169333,-0.744361 0.34925,-1.481667 0.508,-2.226028 0.631472,-0.01411 1.27,-0.02117 1.905,-0.01764 0.172861,0.740833 0.345722,1.485194 0.508,2.233083 4.240389,0.419806 8.138583,2.501195 11.183055,5.425722 C 28.857222,16.958028 26.920472,13.391445 24.884944,9.8848337 24.126472,10.311695 23.353889,10.713861 22.595416,11.133667 21.187833,8.8900004 19.734389,6.674556 18.355028,4.4167782 16.862778,6.6181115 15.52575,8.9182226 14.022917,11.1125 M 5.5844723,22.359056 c -1.0477499,0.575027 -1.4216944,1.756833 -1.9579166,2.744611 1.1394722,2.032 3.3266944,3.386666 5.6091666,3.711222 1.4216947,0.225778 2.7163887,-0.610306 3.5418887,-1.700389 1.516944,1.241778 3.005667,2.515305 4.550833,3.725333 -0.296333,-3.774722 -0.455083,-7.5565 -0.769055,-11.327694 -3.767667,0.289278 -7.7434723,0.709083 -10.9749167,2.846917 M 20.080111,19.519195 c -0.232833,3.764138 -0.493889,7.524749 -0.769056,11.28536 1.566334,-1.192388 3.086806,-2.44475 4.596695,-3.707694 0.790222,1.2065 2.2225,1.972028 3.679472,1.700389 2.19075,-0.423333 4.342694,-1.668639 5.436305,-3.668889 -0.578555,-0.991305 -0.92075,-2.2225 -2.00025,-2.801055 C 27.809472,20.193 23.830139,19.804945 20.080111,19.519195 Z"/>
</svg>
