<?xml version="1.0" encoding="UTF-8" standalone="no"?>
<svg xmlns="http://www.w3.org/2000/svg" width="38.14011mm" height="39.158333mm" viewBox="0 0 38.14011 39.158334" version="1.1">
  <path style="fill:#ffffff" d="m 19.086113,3.0729126 c -3.157364,3.6124443 -4.532887,8.3959734 -5.503026,12.9997234 -0.85725,3.534833 0.0773,7.20695 1.534277,10.448974 0.917218,1.940278 2.088571,3.909007 4.014738,4.995562 3.044472,-2.194277 4.472947,-5.891357 5.361946,-9.401492 0.850195,-3.33375 0.02131,-6.762937 -0.910018,-9.98027 C 22.592721,8.9004379 21.312138,5.6693569 19.086113,3.0729126 Z M 30.314882,10.41045 c -1.732139,0.807861 -3.284174,1.975764 -4.571813,3.386871 0.6985,2.54 1.037209,5.22429 0.571542,7.841905 1.305278,-0.941921 2.843347,-1.478104 4.190958,-2.338878 0.550333,-2.913945 0.814729,-6.042981 -0.190687,-8.889898 z m -22.4926841,0.0036 c -1.0195242,2.885726 -0.7373796,6.056947 -0.1658796,9.006173 1.4534444,0.631469 2.8469657,1.386519 4.1945767,2.222602 -0.635003,-2.656416 0.0247,-5.344445 0.426844,-7.972643 C 10.990104,12.347265 9.5049479,11.190165 7.8221979,10.41405 Z m -5.5634818,9.235602 c 0.1411101,2.180167 1.2204594,4.141597 2.3140694,5.983097 1.1218344,1.770948 2.4871055,3.587789 4.5191055,4.356841 1.615722,0.627948 3.453818,1.083116 5.154207,0.532782 0.702027,-1.382885 -0.42326,-2.6038 -0.892454,-3.838522 -0.416274,-0.871327 -0.575335,-1.85551 -1.111557,-2.663367 -0.839611,-0.836087 -1.894081,-1.414516 -2.9171369,-1.989547 -2.2154444,-1.135945 -4.554457,-2.194278 -7.066234,-2.38125 z m 33.6795989,0.01757 c -3.326698,0.257528 -6.427618,1.806568 -9.179285,3.616318 -1.495781,0.829028 -1.50628,2.716131 -2.296502,4.060215 -0.469195,0.970142 -1.457124,2.441056 -0.331763,3.270087 2.991555,0.522112 6.350296,-0.698341 8.152991,-3.188955 1.74625,-2.282469 3.210059,-4.882526 3.654559,-7.757665 z M 15.868738,30.949253 c -0.426861,1.689806 -2.596226,1.245249 -3.919142,1.442805 -0.0635,0.814916 -0.09169,1.640409 -0.05994,2.462382 1.651,0.194027 3.283994,-0.201041 4.82916,-0.751375 0.642059,0.973667 1.415087,1.869938 2.399337,2.511993 0.867834,-0.719666 1.640113,-1.545449 2.246895,-2.494421 1.566333,0.511528 3.20694,0.931182 4.872051,0.726571 0.05997,-0.807865 0.02484,-1.615677 -0.03514,-2.42001 -1.294695,-0.268111 -3.556364,0.254374 -3.902086,-1.470709 -0.906642,0.963083 -1.936411,1.862289 -3.18172,2.345591 -1.312334,-0.388052 -2.363939,-1.343882 -3.249412,-2.352827 z"/>
  <path d="M 12.573903,10.837333 C 13.886236,6.8050826 15.671292,2.6952216 19.082653,-5.489e-7 22.409347,2.7587216 24.264958,6.7980271 25.538486,10.837333 c 1.7145,-1.5028338 3.764139,-2.5611671 5.940778,-3.2138059 0.553861,1.2664722 1.227666,2.5047219 1.467555,3.8840829 0.373944,2.091972 0.254,4.229806 0.08114,6.335889 1.643944,-0.41275 3.337278,-0.486833 5.023555,-0.4445 0.567973,4.402667 -1.679222,8.509 -4.328583,11.839222 -1.312333,1.679222 -3.231444,2.748139 -5.259916,3.323167 0.204611,1.389944 -0.0635,2.776361 -0.440973,4.113388 -1.866194,0.557389 -3.852333,0.582084 -5.725583,0.05292 -0.903111,1.016 -2.032,1.774472 -3.210278,2.430639 -1.224138,-0.617361 -2.345972,-1.418167 -3.284361,-2.423583 -1.848555,0.532694 -3.802944,0.469194 -5.651499,-0.01764 C 9.7269862,35.390665 9.3989029,33.990138 9.7093473,32.600193 8.0442363,32.053388 6.3791252,31.326665 5.1549863,30.035499 3.2958475,28.148138 1.9270697,25.809221 0.87931977,23.385638 0.0361809,21.512388 -0.05554132,19.420416 0.02206979,17.398999 1.7259864,17.356666 3.4404864,17.430749 5.1020697,17.847027 4.6434586,14.375694 4.8233752,10.657416 6.7036807,7.6023604 c 2.1307778,0.73025 4.1733613,1.7321388 5.8702223,3.2349726 m 1.008944,5.235222 c -0.85725,3.534833 0.07761,7.207249 1.534584,10.449277 0.917222,1.940278 2.088444,3.908778 4.014611,4.995333 3.044472,-2.194277 4.473222,-5.891388 5.362222,-9.401527 0.850194,-3.33375 0.02117,-6.76275 -0.910167,-9.980083 C 22.592792,8.9005826 21.312208,5.6691382 19.08618,3.0726938 15.928819,6.6851382 14.552986,11.468805 13.582847,16.072555 m -5.9266663,3.347861 c 1.4534444,0.631472 2.8469163,1.386416 4.1945273,2.2225 -0.635,-2.656417 0.0247,-5.344584 0.426862,-7.972778 C 10.989931,12.347221 9.5047362,11.19011 7.8219863,10.413999 6.8024585,13.299721 7.0846807,16.471194 7.6561807,19.420416 M 25.743097,13.797138 c 0.6985,2.54 1.037167,5.224639 0.5715,7.84225 1.305278,-0.941917 2.843389,-1.478139 4.191,-2.338917 0.550333,-2.913944 0.814917,-6.043083 -0.1905,-8.89 -1.732139,0.807862 -3.284361,1.975556 -4.572,3.386667 M 2.2586808,19.649721 c 0.1411112,2.180167 1.2206111,4.141611 2.3142222,5.983111 1.1218333,1.770945 2.4870833,3.58775 4.5190833,4.356806 1.6157217,0.627944 3.4536947,1.083027 5.1540827,0.532694 0.702028,-1.382889 -0.423333,-2.6035 -0.892527,-3.838222 -0.416278,-0.871361 -0.575028,-1.855611 -1.11125,-2.663472 -0.839611,-0.836084 -1.894417,-1.414639 -2.9174724,-1.989667 -2.2154444,-1.135944 -4.554361,-2.194278 -7.0661388,-2.38125 m 24.5004162,3.633611 c -1.495778,0.829028 -1.506361,2.716389 -2.296583,4.060472 -0.469195,0.970139 -1.456972,2.441223 -0.331611,3.27025 2.991555,0.522111 6.349999,-0.6985 8.152694,-3.189111 1.74625,-2.282472 3.210278,-4.882444 3.654778,-7.757583 -3.326695,0.257528 -6.427611,1.806222 -9.179278,3.615972 m -10.89025,7.665861 c -0.426861,1.689806 -2.596444,1.245306 -3.919361,1.442861 -0.0635,0.814917 -0.09172,1.640417 -0.05997,2.462389 1.651,0.194028 3.284361,-0.201083 4.829528,-0.751417 0.642055,0.973667 1.414638,1.869723 2.398888,2.511778 0.867834,-0.719666 1.640417,-1.545166 2.247195,-2.494139 1.566333,0.511528 3.20675,0.931334 4.871861,0.726723 0.05997,-0.807862 0.02469,-1.615723 -0.03528,-2.420056 -1.294694,-0.268111 -3.556,0.254 -3.901722,-1.471083 -0.906639,0.963083 -1.93675,1.862666 -3.182056,2.345972 -1.312333,-0.388056 -2.363611,-1.344083 -3.249083,-2.353028 z"/>
</svg>
