<?xml version="1.0" encoding="UTF-8" standalone="no"?>
<svg xmlns="http://www.w3.org/2000/svg" width="38.621933mm" height="35.68364mm" viewBox="0 0 38.621933 35.68364" version="1.1">
  <path d="m 19.424134,0 c -0.575024,1.14653 -0.377747,2.52241 -0.988053,3.66541 -0.525638,1.44286 -1.675613,2.47976 -2.825665,3.42873 3.6195,-0.35984 7.549561,0.69521 9.997839,3.51038 1.809749,2.032 2.607094,4.98143 1.834511,7.6202 -0.705557,2.64936 -2.956394,4.68128 -5.499922,5.55264 -2.656416,0.77258 -5.60942,0.31714 -7.846031,-1.33739 1.541639,3.18206 5.030582,5.16497 8.52661,5.16144 2.674056,0.0459 5.542396,-0.0459 7.846031,1.54513 -0.751417,-1.56633 -1.643851,-3.17159 -1.583881,-4.97076 0.134057,-1.36172 0.522171,-2.83255 1.651061,-3.7145 2.25425,-1.92264 5.294823,-2.26123 8.085299,-2.74453 -2.741086,-0.45862 -5.686491,-0.861 -7.905464,-2.69545 C 28.994915,13.61725 28.804058,11.07351 29.379082,9.06973 29.774192,7.54573 30.83606,6.35718 31.6792,5.07307 30.366867,5.7363 29.343911,6.90369 27.897521,7.31997 25.812605,8.1878 23.233764,7.71159 21.688597,6.03942 20.055236,4.48015 19.600527,2.15547 19.424134,0 Z M 8.254795,6.77685 c 0.871358,1.90852 1.908637,3.94778 1.347717,6.11383 C 9.210929,15.2931 6.826296,16.55934 4.72374,17.23667 3.213855,17.86109 1.531052,17.70958 0,18.22111 c 1.728611,0.36336 3.534551,0.42676 5.178492,1.13585 1.64042,0.63852 3.43639,1.58759 4.043165,3.36206 0.807864,2.0567 0.264661,4.37781 -0.892454,6.18051 -0.430385,0.66322 -0.998545,1.2452 -1.249017,2.01073 1.054806,-0.73378 1.996585,-1.65455 3.21014,-2.13786 1.954389,-0.89605 4.431288,-0.80402 6.142264,0.58239 1.908524,1.49578 2.610068,3.98954 2.768818,6.31435 l 0.303858,0.0145 c 0.0035,-2.70934 1.284055,-5.34819 3.559475,-6.8616 -3.302004,0.28222 -6.847547,-0.48348 -9.306408,-2.81534 -2.229556,-1.99319 -3.432715,-5.24913 -2.571937,-8.17366 0.712611,-2.93863 3.312686,-5.1647 6.191352,-5.8632 2.480032,-0.66323 5.196572,0.0422 7.210929,1.58388 -1.252361,-2.7305 -3.972185,-4.5577 -6.87555,-5.10098 C 15.497686,8.00471 13.211584,8.41724 10.992608,7.99747 9.994251,7.80697 9.147319,7.22138 8.254795,6.77688 Z m 10.847917,7.42952 c -2.074337,0.27164 -3.802708,2.24354 -3.368792,4.37079 0.303389,2.26836 3.033953,3.77849 5.090647,2.71663 2.056694,-0.79728 2.758613,-3.58783 1.562696,-5.37642 -0.6985,-1.143 -2.039249,-1.53461 -3.284551,-1.711 z"/>
</svg>
