<?xml version="1.0" encoding="UTF-8" standalone="no"?>
<svg xmlns="http://www.w3.org/2000/svg" width="21.836088mm" height="33.905834mm" viewBox="0 0 21.836088 33.905834" version="1.1">
  <path style="fill:#ffffff" d="M 9.1369253,1.246552 C 9.5426162,2.1108575 10.06798,3.0734992 9.7363688,4.0577492 9.1366501,6.4037224 7.4682018,8.5099986 7.7292573,11.046473 c 0.3598333,2.822218 2.4939267,4.907114 4.3671767,6.857978 1.725084,1.813278 3.816996,3.482129 4.617805,5.951573 0.620889,1.661583 0.600019,3.456961 0.480074,5.199683 1.774472,-2.413 3.224121,-5.308974 2.899565,-8.392255 -0.208139,-2.786941 -1.8236,-5.147342 -3.347603,-7.380425 C 15.723226,11.815472 15.881976,9.952708 16.400563,8.3334581 14.809535,9.2295147 13.937913,10.894796 13.662747,12.655157 12.459774,9.8364632 14.290945,6.6227946 12.777528,3.8887675 12.093143,2.4459075 10.597425,1.680468 9.1369253,1.246552 Z M 5.7500506,11.794227 c -1.6898056,1.467556 -2.6671235,3.849123 -1.9792068,6.057512 0.53975,1.972028 2.4447852,3.121893 3.2985074,4.917532 0.41275,1.636885 -1.8588531,2.067302 -2.8783773,1.262969 -1.6086666,-0.991306 -1.587627,-3.079729 -1.4500436,-4.741312 -1.4146389,2.557639 -1.6439903,5.785488 -0.490407,8.484238 0.98425,2.229552 3.0866467,3.736178 5.3056189,4.589897 -0.8748889,-1.068917 -1.2311027,-2.579018 -0.5255507,-3.834907 1.2594167,-2.525888 4.7765515,-3.037293 7.0801895,-1.724959 1.121834,0.642055 1.622912,1.859216 1.816944,3.076299 0.606774,-2.331861 0.172832,-4.900224 -1.262973,-6.844026 C 12.787971,20.366939 9.718871,19.019254 7.0553953,17.315337 5.29151,16.059452 5.5419117,13.678064 5.7500506,11.794227 Z m 6.7923474,16.416052 c -0.268379,-0.007 -0.534105,0.0388 -0.780827,0.147277 -0.546809,0.846667 -0.32107,2.2471 -1.365293,2.72335 -0.7690551,0.451555 -1.4748294,-0.23996 -2.1662773,-0.511595 0.3104479,0.684385 0.6136357,1.435961 1.2944968,1.838127 1.8203335,1.068917 4.7838255,0.303149 5.2777145,-1.922879 0.111784,-1.221052 -1.096825,-2.243871 -2.259814,-2.27428 z"/>
  <path d="m 6.4485294,0.27622722 c 1.9755555,-0.38099999 4.2333336,-0.54680554 5.9407776,0.71966665 1.943806,1.36172223 2.709333,3.83469433 2.621139,6.12422213 1.27,-0.9348611 2.76225,-1.7145 4.392083,-1.5945556 -1.337028,1.7321389 -2.328333,4.1028055 -1.393472,6.2512226 0.980722,2.183694 2.543528,4.078111 3.291416,6.371166 0.956028,2.511778 0.511528,5.295194 -0.388055,7.754055 -1.23825,3.404306 -3.757083,6.625167 -7.355417,7.665861 C 9.5247515,34.527421 4.6916961,33.472615 2.1093628,30.033032 -0.59997047,26.547588 -0.85397046,21.05131 2.2540017,17.724616 1.9223906,14.591949 3.5522239,11.416949 6.4167794,10.044644 6.2156961,8.0867271 7.1717238,6.3616438 8.057196,4.707116 8.8615293,3.0420049 7.9548905,1.1546439 6.4485294,0.27622722 M 9.136696,1.2463661 C 9.5423904,2.1106716 10.068029,3.0737549 9.7364182,4.0580049 9.136696,6.4039771 7.4680571,8.5100604 7.7291127,11.046533 c 0.3598333,2.822222 2.4941393,4.907138 4.3673883,6.857999 1.725084,1.813278 3.817056,3.481917 4.617861,5.951361 0.620889,1.661584 0.599723,3.457223 0.479778,5.199945 1.774472,-2.413 3.224389,-5.309306 2.899834,-8.392583 C 19.885835,17.87631 18.270112,15.516227 16.746112,13.283144 15.723057,11.815588 15.881807,9.9529215 16.40039,8.3336715 14.809363,9.229727 13.938001,10.894838 13.662835,12.655199 12.459863,9.8365048 14.290779,6.6226993 12.777363,3.8886716 12.092974,2.4458105 10.597196,1.6802827 9.136696,1.2463661 M 3.7709461,17.851616 c 0.53975,1.972027 2.44475,3.122083 3.2984722,4.917722 0.4127499,1.636889 -1.8591389,2.067278 -2.8786666,1.262944 -1.6086667,-0.991305 -1.5875,-3.07975 -1.4499167,-4.741333 -1.4146388,2.557639 -1.6439444,5.785555 -0.4903611,8.484305 0.98425,2.229556 3.0868055,3.735917 5.3057777,4.589639 -0.8748889,-1.068916 -1.2311944,-2.578805 -0.5256389,-3.834694 1.2594166,-2.525889 4.7766113,-3.037417 7.0802503,-1.725083 1.121833,0.642055 1.622777,1.859138 1.816805,3.076222 0.606778,-2.331861 0.172861,-4.900084 -1.262944,-6.843889 C 12.787946,20.366921 9.7187793,19.01931 7.0553071,17.315394 5.2914183,16.059505 5.5418905,13.678255 5.7500294,11.794421 4.0602239,13.261977 3.0830295,15.643227 3.7709461,17.851616 m 7.9904169,10.505722 c -0.546806,0.846666 -0.321028,2.247194 -1.36525,2.723444 -0.7690559,0.451556 -1.4746115,-0.239889 -2.1660559,-0.511528 0.3104445,0.684389 0.6138333,1.435806 1.2946944,1.837973 1.8203335,1.068916 4.7836665,0.303388 5.2775555,-1.922639 0.137583,-1.502834 -1.725083,-2.705806 -3.040944,-2.12725 z"/>
</svg>
