<?xml version="1.0" encoding="UTF-8"?>
<svg xmlns="http://www.w3.org/2000/svg" width="400pt" height="400pt" viewBox="0 0 400 400" version="1.1">
  <g id="#103287ff">
    <path fill="#103287" d=" M 121.77 166.71 C 147.52 121.74 173.54 76.91 199.48 32.05 C 225.40 76.96 251.41 121.82 277.20 166.81 C 258.27 150.33 234.05 139.99 208.99 138.11 C 177.62 135.35 145.49 146.05 121.77 166.71 M 151.96 135.88 C 182.16 123.95 216.74 123.97 246.94 135.87 C 231.16 108.49 215.27 81.17 199.60 53.73 C 183.45 80.95 167.90 108.53 151.96 135.88 Z"/>
    <path fill="#103287" d=" M 4.99 368.67 C 31.05 323.69 57.01 278.66 82.99 233.64 C 79.81 253.07 80.48 273.31 86.66 292.11 C 97.80 327.79 126.95 357.11 162.51 368.59 C 110.00 368.81 57.49 368.67 4.99 368.67 M 23.79 357.85 C 55.74 357.87 87.69 357.83 119.64 357.87 C 93.87 337.68 76.32 307.50 71.59 275.10 C 55.63 302.67 39.71 330.26 23.79 357.85 Z"/>
    <path fill="#103287" d=" M 315.70 233.65 C 341.98 278.51 367.66 323.73 393.82 368.67 C 341.33 368.65 288.83 368.86 236.35 368.56 C 264.13 359.59 288.16 339.81 302.49 314.39 C 316.34 290.19 320.99 261.00 315.70 233.65 M 327.24 275.31 C 322.55 307.64 304.95 337.73 279.25 357.86 C 311.18 357.85 343.10 357.85 375.03 357.86 C 359.07 330.36 343.40 302.69 327.24 275.31 Z"/>
  </g>
  <g id="#22c2f4ff">
    <path fill="#22c2f4" d=" M 151.96 135.88 C 167.90 108.53 183.45 80.95 199.60 53.73 C 215.27 81.17 231.16 108.49 246.94 135.87 C 216.74 123.97 182.16 123.95 151.96 135.88 M 190.92 77.92 C 181.51 94.37 171.83 110.68 162.58 127.22 C 186.60 120.55 212.35 120.51 236.35 127.26 C 224.34 105.79 211.68 84.69 199.65 63.23 C 196.42 67.93 193.85 73.04 190.92 77.92 Z"/>
    <path fill="#22c2f4" d=" M 171.95 154.77 C 175.02 154.02 178.09 153.26 181.18 152.56 C 181.50 154.36 181.83 156.15 182.22 157.93 C 180.90 161.96 181.58 166.30 183.81 169.88 C 181.76 170.81 179.63 171.52 177.43 171.98 C 177.43 169.65 177.60 167.24 176.48 165.12 C 174.89 161.70 174.05 157.93 171.95 154.77 Z"/>
    <path fill="#22c2f4" d=" M 165.06 156.91 C 166.22 156.58 167.39 156.25 168.56 155.92 C 169.98 160.59 173.47 164.21 175.75 168.47 C 175.33 168.80 174.51 169.45 174.10 169.78 C 174.55 170.75 175.00 171.72 175.45 172.70 C 172.87 173.62 170.30 174.58 167.65 175.29 C 167.60 172.78 170.72 169.42 168.11 167.61 C 166.35 168.05 164.66 168.71 162.97 169.36 C 161.72 165.99 160.21 162.72 158.90 159.37 C 160.21 158.82 161.52 158.27 162.83 157.72 C 163.48 159.55 164.18 161.36 164.91 163.17 C 167.70 161.79 165.58 159.05 165.06 156.91 Z"/>
    <path fill="#22c2f4" d=" M 225.31 173.69 C 227.10 167.72 229.25 161.85 230.62 155.77 C 231.55 156.61 232.47 157.45 233.39 158.30 C 234.76 158.31 236.13 158.36 237.50 158.45 C 236.91 160.16 236.30 161.86 235.74 163.58 C 233.60 162.35 232.30 163.22 231.74 165.38 C 232.47 165.52 233.95 165.81 234.69 165.95 C 233.91 167.66 233.15 169.37 232.40 171.09 C 233.04 171.42 234.32 172.08 234.96 172.41 C 234.41 173.95 233.85 175.50 233.34 177.05 C 230.68 175.88 228.00 174.76 225.31 173.69 Z"/>
    <path fill="#22c2f4" d=" M 153.37 162.28 C 154.46 161.65 155.63 161.18 156.82 160.77 C 159.86 165.98 161.04 172.16 165.12 176.72 C 163.09 177.69 161.04 178.62 159.02 179.60 C 156.45 174.01 153.16 168.79 150.95 163.03 C 151.55 162.84 152.76 162.47 153.37 162.28 Z"/>
    <path fill="#22c2f4" d=" M 142.19 168.65 C 144.01 167.35 145.92 166.19 147.84 165.04 C 149.79 167.74 151.67 170.62 152.53 173.88 C 151.08 176.60 147.79 177.54 145.33 179.15 C 143.90 175.71 144.54 171.81 142.19 168.65 Z"/>
    <path fill="#22c2f4" d=" M 247.01 171.04 C 247.54 168.85 248.70 166.93 249.87 165.04 C 251.67 166.11 253.48 167.16 255.30 168.20 C 252.93 173.87 249.38 178.99 245.79 183.95 C 244.52 183.19 243.26 182.42 242.00 181.65 C 242.76 180.08 243.55 178.53 244.32 176.97 C 243.80 176.70 242.77 176.14 242.25 175.87 C 242.86 173.90 243.62 171.99 244.30 170.05 C 244.98 170.30 246.34 170.79 247.01 171.04 Z"/>
    <path fill="#22c2f4" d=" M 179.95 177.71 C 183.85 176.59 187.76 175.48 191.72 174.60 C 191.53 175.22 191.15 176.46 190.96 177.09 C 191.36 177.27 192.16 177.65 192.57 177.84 C 192.83 179.57 193.14 181.30 193.50 183.03 C 192.44 183.13 191.38 183.23 190.33 183.34 C 190.33 183.81 190.34 184.74 190.34 185.21 C 191.15 185.38 192.76 185.71 193.56 185.88 C 193.57 187.62 193.62 189.36 193.70 191.10 C 191.50 192.41 188.93 192.64 186.44 192.94 C 185.82 189.32 185.02 185.74 183.91 182.24 C 183.26 182.21 181.95 182.15 181.30 182.12 C 180.85 180.65 180.41 179.18 179.95 177.71 Z"/>
    <path fill="#22c2f4" d=" M 211.74 175.49 C 213.49 176.24 215.27 176.93 217.06 177.60 C 217.78 178.64 218.52 179.68 219.28 180.70 C 218.38 183.29 217.63 185.94 217.03 188.61 C 215.89 188.60 214.75 188.59 213.62 188.61 C 213.50 189.34 213.26 190.82 213.14 191.56 C 211.32 191.49 209.56 190.99 207.83 190.46 C 209.03 185.44 209.52 180.22 211.74 175.49 Z"/>
    <path fill="#22c2f4" d=" M 254.98 190.36 C 259.23 187.07 260.21 181.10 264.64 177.85 C 268.18 176.02 268.14 181.54 271.42 181.53 C 270.22 183.23 268.68 184.65 266.92 185.76 C 263.51 187.87 261.49 191.43 258.65 194.16 C 257.47 192.84 256.25 191.57 254.98 190.36 Z"/>
    <path fill="#22c2f4" d=" M 172.28 180.30 C 173.95 179.80 175.65 179.38 177.35 178.97 C 177.86 181.19 178.73 183.30 179.78 185.32 C 180.71 184.79 181.65 184.27 182.58 183.76 C 183.01 185.29 183.43 186.83 183.86 188.38 C 183.03 188.49 181.39 188.71 180.56 188.83 C 181.12 190.59 181.74 192.33 182.40 194.06 C 179.87 194.94 177.35 195.84 174.80 196.66 C 173.60 193.60 172.45 190.52 171.27 187.46 C 171.90 187.10 173.16 186.38 173.79 186.02 C 173.36 184.10 172.80 182.20 172.28 180.30 Z"/>
    <path fill="#22c2f4" d=" M 220.68 178.99 C 222.35 179.40 224.01 179.85 225.64 180.40 C 224.79 182.62 221.70 185.99 224.66 187.92 C 223.70 190.79 222.84 193.69 222.06 196.62 C 219.74 195.81 217.42 194.99 215.11 194.17 C 218.20 189.64 219.52 184.26 220.68 178.99 Z"/>
    <path fill="#22c2f4" d=" M 228.72 181.44 C 230.55 182.52 232.43 183.53 234.31 184.56 C 233.31 186.29 232.23 187.99 231.55 189.89 C 232.24 192.27 234.90 193.33 236.42 195.16 C 235.55 196.56 234.66 197.94 233.76 199.32 C 232.42 198.72 231.10 198.09 229.80 197.43 C 229.43 198.11 228.70 199.45 228.33 200.12 C 226.53 199.15 224.74 198.15 222.97 197.12 C 224.92 191.90 226.76 186.65 228.72 181.44 Z"/>
    <path fill="#22c2f4" d=" M 119.94 188.88 C 121.62 186.88 123.32 184.88 125.02 182.89 C 127.61 185.55 130.45 187.94 133.44 190.14 C 132.34 192.59 130.50 194.57 128.65 196.48 C 127.05 194.99 125.45 193.50 123.84 192.02 C 125.24 190.71 126.15 189.08 126.28 187.15 C 124.80 188.17 123.38 189.28 122.00 190.44 C 121.48 190.05 120.45 189.27 119.94 188.88 Z"/>
    <path fill="#22c2f4" d=" M 260.01 196.16 C 264.78 192.35 268.64 187.60 272.95 183.32 C 274.46 185.08 276.00 186.82 277.60 188.51 C 274.37 191.09 271.38 194.01 267.86 196.20 C 267.09 195.81 265.55 195.03 264.78 194.64 C 264.48 195.17 263.89 196.23 263.59 196.76 C 264.09 197.92 264.52 199.10 264.91 200.31 C 263.09 199.16 261.52 197.67 260.01 196.16 Z"/>
    <path fill="#22c2f4" d=" M 158.52 186.93 C 159.11 186.71 160.28 186.26 160.87 186.04 C 161.97 187.52 162.98 189.07 164.19 190.48 C 165.86 189.31 167.44 188.02 169.15 186.91 C 169.81 188.21 170.46 189.52 171.10 190.84 C 170.13 191.60 169.16 192.37 168.19 193.14 C 169.21 194.49 170.59 194.31 171.96 193.76 C 172.35 194.45 173.12 195.84 173.51 196.54 C 171.03 198.96 167.92 200.55 165.03 202.43 C 164.24 201.31 163.46 200.20 162.66 199.10 C 163.44 198.14 163.89 196.93 163.13 195.82 C 161.91 192.70 160.11 189.86 158.52 186.93 Z"/>
    <path fill="#22c2f4" d=" M 152.30 191.01 C 153.67 190.03 155.03 189.04 156.40 188.08 C 158.54 190.42 160.21 193.14 161.49 196.04 C 161.06 196.55 160.21 197.57 159.79 198.07 C 161.14 199.81 162.42 201.61 163.65 203.43 C 161.81 205.08 159.92 206.67 158.00 208.23 C 154.37 203.85 149.67 200.17 147.39 194.83 C 148.35 194.01 149.28 193.17 150.31 192.45 C 151.67 193.41 152.87 194.59 154.25 195.53 C 154.09 193.82 153.17 192.41 152.30 191.01 Z"/>
    <path fill="#22c2f4" d=" M 274.51 195.34 C 276.20 193.95 277.91 192.58 279.64 191.23 C 281.08 193.15 282.47 195.13 283.69 197.21 C 279.58 199.76 275.40 202.31 272.10 205.91 C 272.54 206.45 273.43 207.54 273.87 208.09 C 273.16 209.00 272.45 209.92 271.74 210.84 C 270.46 209.31 269.25 207.73 268.06 206.13 C 268.59 204.97 269.10 203.79 269.59 202.61 C 268.43 203.12 267.28 203.66 266.14 204.22 C 265.86 203.69 265.30 202.64 265.01 202.11 C 267.47 199.08 270.28 196.39 273.04 193.63 C 273.40 194.06 274.14 194.92 274.51 195.34 Z"/>
    <path fill="#22c2f4" d=" M 248.01 192.95 C 249.61 194.18 251.21 195.42 252.80 196.69 C 251.52 198.22 250.27 199.78 249.41 201.59 C 251.26 200.99 252.64 199.61 254.00 198.30 C 254.94 199.48 255.84 200.68 256.72 201.90 C 252.60 205.96 248.14 209.78 245.15 214.81 C 244.06 213.79 242.99 212.76 241.92 211.73 C 243.19 209.54 244.71 207.51 245.91 205.29 C 244.84 204.06 243.59 203.00 242.38 201.92 C 244.34 198.98 246.34 196.06 248.01 192.95 Z"/>
    <path fill="#22c2f4" d=" M 113.20 197.93 C 119.36 199.48 124.28 203.66 129.37 207.21 C 128.54 208.71 127.71 210.21 126.87 211.70 C 124.17 211.14 123.48 213.90 122.45 215.71 C 121.61 215.28 119.93 214.43 119.09 214.00 C 119.49 212.57 119.90 211.15 120.30 209.73 C 118.51 208.86 116.67 208.08 114.80 207.38 C 114.16 208.56 113.54 209.75 112.92 210.94 C 111.75 210.39 110.59 209.85 109.42 209.32 C 109.87 208.19 110.33 207.06 110.78 205.94 C 110.48 205.54 109.87 204.74 109.57 204.34 C 110.75 202.19 111.95 200.05 113.20 197.93 Z"/>
    <path fill="#22c2f4" d=" M 141.44 201.38 C 141.93 199.07 144.48 198.73 146.32 198.02 C 150.15 201.37 152.85 205.70 156.31 209.38 C 155.05 211.21 153.74 213.01 152.38 214.79 C 151.86 214.42 150.82 213.70 150.30 213.34 C 150.97 212.26 151.63 211.18 152.27 210.10 C 150.86 210.90 149.49 211.80 148.02 212.49 C 143.97 210.30 142.62 205.49 141.44 201.38 Z"/>
    <path fill="#22c2f4" d=" M 188.01 201.51 C 189.99 201.14 191.97 200.75 193.97 200.39 C 194.06 203.09 193.89 205.76 192.29 208.04 C 192.18 211.15 192.47 214.27 192.71 217.38 C 190.40 217.95 188.10 218.56 185.84 219.28 C 185.33 217.12 183.16 214.12 186.35 213.07 C 186.27 212.47 186.11 211.28 186.03 210.68 C 185.26 210.73 183.71 210.85 182.94 210.91 C 180.97 209.09 180.18 206.54 179.78 203.97 C 180.97 203.44 182.16 202.92 183.36 202.40 C 183.64 203.11 184.21 204.53 184.49 205.24 C 185.71 204.82 186.92 204.42 188.14 204.01 C 188.11 203.39 188.04 202.13 188.01 201.51 Z"/>
    <path fill="#22c2f4" d=" M 206.05 201.01 C 208.04 201.29 210.02 201.65 211.99 202.00 C 211.67 203.53 211.34 205.05 211.01 206.58 C 211.72 206.73 213.13 207.02 213.83 207.16 C 212.65 210.97 211.61 214.82 210.48 218.65 C 208.39 218.20 206.31 217.68 204.22 217.19 C 204.86 215.22 203.91 214.00 202.11 213.33 C 202.25 209.90 202.37 206.47 202.48 203.04 C 203.42 203.69 204.37 204.33 205.32 204.98 C 205.58 203.66 205.82 202.33 206.05 201.01 Z"/>
    <path fill="#22c2f4" d=" M 221.66 212.23 C 222.76 210.87 223.76 209.41 225.03 208.19 C 228.12 208.19 229.84 211.39 231.94 213.19 C 230.41 214.86 228.91 216.57 227.40 218.25 C 227.54 218.87 227.82 220.10 227.95 220.71 C 227.44 221.14 226.40 222.00 225.89 222.43 C 225.26 222.39 224.00 222.33 223.38 222.29 C 222.59 223.50 221.79 224.71 221.01 225.93 C 220.20 224.63 218.17 223.77 218.45 222.02 C 219.65 219.32 221.46 216.95 223.09 214.50 C 222.73 213.93 222.02 212.80 221.66 212.23 Z"/>
    <path fill="#22c2f4" d=" M 167.96 210.79 C 168.95 209.48 169.98 211.33 170.80 211.78 C 170.18 212.50 168.94 213.93 168.33 214.65 C 170.04 216.13 172.07 213.89 173.76 214.96 C 175.84 217.36 177.32 220.21 179.37 222.65 C 178.91 223.13 177.98 224.11 177.51 224.60 C 176.38 223.55 174.89 220.61 173.41 223.02 C 174.04 224.22 174.87 225.31 175.69 226.39 C 174.58 227.67 173.50 228.98 172.40 230.27 C 168.24 226.22 163.27 223.14 158.92 219.30 C 159.86 218.49 160.81 217.68 161.76 216.87 C 163.56 218.92 165.26 221.08 167.40 222.79 C 168.44 222.27 169.38 221.57 170.35 220.92 C 169.20 220.74 168.05 220.59 166.89 220.47 C 165.41 218.88 163.92 217.31 162.40 215.76 C 164.19 214.03 165.97 212.28 167.96 210.79 Z"/>
    <path fill="#22c2f4" d=" M 109.88 213.72 C 110.38 213.34 111.37 212.58 111.87 212.20 C 113.48 213.08 115.11 213.92 116.77 214.71 C 116.91 215.27 117.17 216.40 117.31 216.96 C 119.24 217.71 121.15 218.51 123.06 219.32 C 122.52 220.72 121.96 222.12 121.39 223.51 C 120.63 223.45 119.13 223.33 118.37 223.27 C 117.92 224.29 117.46 225.31 117.01 226.34 C 115.50 225.65 113.98 224.97 112.47 224.30 C 112.70 223.56 113.15 222.09 113.37 221.36 C 110.25 219.92 107.04 218.60 103.65 217.92 C 104.29 216.10 104.95 214.29 105.65 212.49 C 107.06 212.89 108.47 213.31 109.88 213.72 Z"/>
    <path fill="#22c2f4" d=" M 138.98 224.01 C 139.80 219.05 128.94 219.41 132.44 214.04 C 133.60 215.11 134.88 216.08 136.30 216.80 C 136.75 216.33 137.64 215.39 138.09 214.92 C 141.27 217.08 144.38 219.35 147.30 221.87 C 146.35 223.73 145.27 225.71 143.29 226.65 C 141.80 225.84 140.40 224.92 138.98 224.01 Z"/>
    <path fill="#22c2f4" d=" M 229.56 218.38 C 230.71 216.94 231.85 215.49 232.98 214.04 C 234.54 215.89 236.19 217.66 237.94 219.34 C 235.01 222.17 232.28 225.22 229.43 228.13 C 229.83 228.61 230.62 229.58 231.01 230.06 C 229.81 231.14 228.62 232.23 227.42 233.31 C 225.94 231.09 224.26 229.04 222.55 227.01 C 223.02 226.36 223.95 225.08 224.42 224.43 C 224.90 224.44 225.85 224.47 226.33 224.49 C 227.71 222.87 229.12 221.26 230.59 219.71 C 230.33 219.38 229.82 218.72 229.56 218.38 Z"/>
    <path fill="#22c2f4" d=" M 253.43 224.42 C 257.60 221.66 261.89 219.01 266.45 216.96 C 267.28 218.58 268.07 220.23 268.77 221.91 C 265.41 223.15 263.08 225.93 260.00 227.62 C 257.47 226.66 255.32 228.40 253.18 229.44 C 252.69 227.78 251.36 225.57 253.43 224.42 Z"/>
    <path fill="#22c2f4" d=" M 104.94 219.99 C 107.06 220.64 109.14 221.44 111.11 222.48 C 110.83 223.27 110.26 224.86 109.97 225.65 C 112.83 226.52 116.06 226.67 118.50 228.54 C 119.99 229.43 118.52 231.17 118.49 232.43 C 117.09 232.73 115.74 233.21 114.82 234.38 C 113.18 233.68 111.51 233.00 110.01 232.01 C 107.16 230.01 103.61 229.60 100.41 228.39 C 100.86 226.79 101.31 225.21 101.75 223.62 C 102.32 223.55 103.44 223.39 104.00 223.31 C 104.31 222.20 104.63 221.10 104.94 219.99 Z"/>
    <path fill="#22c2f4" d=" M 265.28 225.19 C 266.63 224.54 267.97 223.88 269.32 223.22 C 270.25 225.25 271.19 227.27 272.10 229.31 C 268.14 230.34 264.70 232.60 261.10 234.45 C 261.20 235.05 261.42 236.25 261.53 236.85 C 259.88 237.47 258.25 238.15 256.64 238.86 C 255.78 236.19 254.96 233.50 253.89 230.91 C 254.98 230.33 256.08 229.75 257.18 229.18 C 260.13 229.94 262.76 228.23 265.37 227.12 C 265.35 226.64 265.30 225.67 265.28 225.19 Z"/>
    <path fill="#22c2f4" d=" M 134.00 231.85 C 136.69 232.81 139.33 233.95 141.67 235.63 C 141.27 237.00 140.86 238.38 140.44 239.75 C 139.79 239.54 138.47 239.12 137.82 238.91 C 135.71 239.02 136.27 241.28 135.98 242.72 C 137.18 243.01 138.39 243.30 139.59 243.59 C 139.27 245.03 138.94 246.48 138.60 247.93 C 136.73 247.31 134.84 246.74 132.91 246.33 C 132.89 244.96 132.75 243.60 131.82 242.52 C 131.42 243.39 130.61 245.12 130.21 245.99 C 129.59 245.72 128.36 245.20 127.75 244.94 C 128.11 243.50 127.97 242.09 127.00 240.94 C 126.53 242.37 126.06 243.80 125.59 245.24 C 124.36 244.57 123.13 243.88 121.92 243.20 C 122.67 240.06 123.38 236.90 124.61 233.92 C 125.70 234.56 126.80 235.21 127.91 235.86 C 129.13 235.07 130.51 234.71 131.96 234.68 C 132.65 233.74 133.33 232.80 134.00 231.85 Z"/>
    <path fill="#22c2f4" d=" M 150.67 234.75 C 152.88 235.81 155.05 236.95 157.29 237.95 C 157.19 239.57 157.10 241.20 157.06 242.84 C 159.61 243.81 162.16 244.79 164.64 245.92 C 164.21 246.42 163.33 247.41 162.89 247.91 C 158.92 247.29 155.05 246.04 151.19 244.94 C 151.07 244.35 150.82 243.19 150.70 242.61 C 150.15 242.30 149.04 241.70 148.49 241.40 C 149.19 239.17 149.90 236.96 150.67 234.75 Z"/>
    <path fill="#22c2f4" d=" M 146.44 250.58 C 146.89 248.89 146.44 246.62 147.77 245.35 C 153.30 246.84 158.85 248.28 164.34 249.94 C 164.20 252.06 163.99 254.19 163.73 256.31 C 160.57 256.47 157.43 256.18 154.27 256.18 C 153.53 257.29 152.80 258.41 152.07 259.53 C 150.24 258.77 148.40 258.06 146.48 257.60 C 146.49 256.39 146.50 255.19 146.50 253.98 C 147.36 253.92 149.08 253.78 149.94 253.72 C 150.09 253.02 150.38 251.63 150.53 250.93 C 149.17 250.81 147.80 250.70 146.44 250.58 Z"/>
    <path fill="#22c2f4" d=" M 98.11 249.56 C 102.14 249.70 106.79 251.95 110.12 248.62 C 111.30 248.70 112.48 248.80 113.65 248.90 C 113.81 249.61 114.14 251.02 114.30 251.72 C 110.88 253.02 114.38 255.97 114.46 258.26 C 111.87 258.24 108.60 259.77 106.50 257.65 C 104.22 255.36 100.68 256.71 97.82 256.28 C 97.84 254.03 97.91 251.79 98.11 249.56 Z"/>
    <path fill="#22c2f4" d=" M 283.73 253.03 C 288.19 252.89 292.64 252.46 297.04 251.69 C 296.60 253.11 296.17 254.54 295.75 255.98 C 292.06 255.89 288.23 255.24 284.70 256.68 C 284.38 255.46 284.05 254.24 283.73 253.03 Z"/>
    <path fill="#22c2f4" d=" M 146.39 261.30 C 150.05 260.46 154.72 261.42 157.35 258.15 C 159.62 258.11 161.89 258.10 164.16 258.12 C 164.04 259.90 164.79 261.92 163.90 263.55 C 161.10 264.40 158.12 264.04 155.29 264.67 C 154.52 266.40 154.39 268.34 153.98 270.17 C 151.86 270.40 149.74 270.68 147.63 270.93 C 147.62 268.38 149.74 265.50 146.82 263.82 C 146.67 262.98 146.53 262.14 146.39 261.30 Z"/>
    <path fill="#22c2f4" d=" M 282.82 259.77 C 284.95 259.65 287.63 260.57 289.00 258.37 C 290.32 258.40 291.64 258.45 292.96 258.51 C 293.60 259.51 294.27 260.50 294.95 261.49 C 295.17 260.76 295.59 259.30 295.81 258.58 C 296.82 258.57 298.84 258.55 299.85 258.55 C 299.75 261.53 299.50 264.50 299.48 267.49 C 298.05 266.99 296.61 266.57 295.17 266.15 C 294.59 265.79 293.41 265.07 292.83 264.71 C 291.17 265.87 291.85 268.25 290.68 269.74 C 287.97 269.86 283.37 269.48 284.72 265.53 C 285.45 265.47 286.90 265.36 287.63 265.30 C 287.01 262.74 284.16 263.59 282.26 263.16 C 282.40 262.31 282.68 260.61 282.82 259.77 Z"/>
    <path fill="#22c2f4" d=" M 264.22 266.82 C 264.72 266.36 265.71 265.44 266.21 264.98 C 268.16 265.08 270.12 265.23 272.05 265.61 C 271.13 270.16 269.93 274.66 269.32 279.28 C 270.47 279.86 271.63 280.44 272.79 281.01 C 272.45 281.47 271.76 282.38 271.42 282.84 C 266.36 280.62 261.38 278.19 256.08 276.57 C 256.72 274.57 257.27 272.54 257.69 270.48 C 259.26 271.20 260.84 271.91 262.43 272.61 C 262.42 273.86 262.42 275.11 262.44 276.36 C 262.88 276.38 263.76 276.42 264.20 276.43 C 264.69 275.21 265.19 273.99 265.67 272.76 C 262.93 271.02 259.56 270.39 257.12 268.19 C 258.01 267.27 258.90 266.36 259.80 265.45 C 261.26 265.92 262.74 266.37 264.22 266.82 Z"/>
    <path fill="#22c2f4" d=" M 98.40 267.57 C 99.80 267.52 101.20 267.49 102.60 267.48 C 103.32 268.92 102.39 272.23 104.83 272.15 C 107.47 272.12 111.31 272.84 112.64 269.87 C 113.39 269.81 114.88 269.69 115.63 269.63 C 116.51 272.06 117.22 274.55 117.89 277.05 C 113.17 277.97 108.35 278.01 103.58 278.59 C 103.60 279.22 103.64 280.49 103.65 281.13 C 102.19 281.16 99.90 281.73 99.60 279.67 C 98.85 275.68 98.36 271.63 98.40 267.57 Z"/>
    <path fill="#22c2f4" d=" M 281.55 268.97 C 285.19 269.92 288.84 270.78 292.54 271.45 C 293.02 270.34 293.49 269.23 293.95 268.12 C 295.79 268.29 297.62 268.47 299.46 268.67 C 299.39 269.55 299.26 271.30 299.19 272.18 C 297.80 272.34 296.73 273.04 296.06 274.24 C 296.83 274.62 298.36 275.38 299.13 275.76 C 298.61 277.43 297.03 278.11 295.70 278.96 C 293.46 278.14 291.19 277.45 288.93 276.72 C 288.33 277.57 287.73 278.43 287.13 279.28 C 285.52 278.56 283.90 277.85 282.28 277.14 C 282.69 276.29 283.11 275.44 283.53 274.60 C 282.71 274.06 281.90 273.51 281.09 272.98 C 281.24 271.64 281.39 270.30 281.55 268.97 Z"/>
    <path fill="#22c2f4" d=" M 135.48 272.94 C 136.13 272.90 137.44 272.82 138.09 272.79 C 138.92 273.83 139.92 274.70 141.10 275.34 C 141.49 276.27 141.87 277.22 142.25 278.17 C 139.97 279.29 137.33 279.96 135.50 281.83 C 135.73 282.73 136.18 284.55 136.41 285.46 C 135.32 285.94 134.23 286.42 133.14 286.91 C 132.40 285.26 132.05 283.01 129.65 283.34 C 130.13 284.77 130.65 286.20 131.20 287.61 C 130.41 287.82 128.83 288.25 128.04 288.46 C 127.10 285.64 125.96 282.89 124.94 280.10 C 128.15 278.35 131.60 277.16 135.14 276.26 C 135.25 275.15 135.37 274.04 135.48 272.94 Z"/>
    <path fill="#22c2f4" d=" M 228.12 276.96 C 230.46 278.42 231.60 275.59 233.05 274.28 C 235.66 275.23 238.13 276.51 240.52 277.92 C 240.19 278.90 239.87 279.88 239.55 280.87 C 241.04 281.53 242.53 282.22 244.02 282.90 C 243.01 285.01 241.99 287.12 240.86 289.17 C 239.19 287.88 237.54 286.58 235.91 285.27 C 235.40 285.75 234.40 286.71 233.89 287.19 C 230.70 285.80 228.27 283.24 225.75 280.93 C 226.54 279.60 227.33 278.28 228.12 276.96 Z"/>
    <path fill="#22c2f4" d=" M 23.79 357.85 C 39.71 330.26 55.63 302.67 71.59 275.10 C 76.32 307.50 93.87 337.68 119.64 357.87 C 87.69 357.83 55.74 357.87 23.79 357.85 M 32.02 353.14 C 56.93 353.20 81.85 353.24 106.77 353.11 C 88.76 335.53 75.49 313.10 69.45 288.62 C 56.67 309.94 44.48 331.63 32.02 353.14 Z"/>
    <path fill="#22c2f4" d=" M 327.24 275.31 C 343.40 302.69 359.07 330.36 375.03 357.86 C 343.10 357.85 311.18 357.85 279.25 357.86 C 304.95 337.73 322.55 307.64 327.24 275.31 M 329.43 288.68 C 323.37 313.15 310.12 335.62 292.04 353.15 C 316.95 353.32 341.86 353.20 366.76 353.21 C 354.45 331.63 342.15 310.02 329.43 288.68 Z"/>
    <path fill="#22c2f4" d=" M 279.66 278.69 C 282.85 279.59 285.89 280.97 289.14 281.68 C 289.36 280.92 289.80 279.41 290.02 278.65 C 291.68 279.10 293.33 279.56 294.99 280.03 C 294.29 281.92 295.26 282.90 297.11 283.23 C 296.68 285.12 296.23 287.01 295.77 288.90 C 291.84 287.07 287.61 285.55 283.23 286.62 C 281.98 284.87 280.64 283.20 278.30 283.06 C 278.75 281.60 279.20 280.14 279.66 278.69 Z"/>
    <path fill="#22c2f4" d=" M 105.68 280.68 C 109.99 280.14 114.37 280.58 118.58 279.29 C 118.76 280.87 118.89 282.45 118.95 284.04 C 119.29 284.54 119.97 285.55 120.31 286.05 C 118.13 286.75 115.94 287.42 113.73 287.98 C 112.85 285.56 110.70 286.27 108.82 286.73 C 109.18 287.71 109.54 288.69 109.90 289.67 C 108.26 290.29 106.62 290.93 105.00 291.59 C 104.86 289.53 104.16 287.86 101.82 287.96 C 101.34 286.49 100.88 285.02 100.41 283.55 C 102.56 283.36 104.93 283.05 105.68 280.68 Z"/>
    <path fill="#22c2f4" d=" M 256.05 281.92 C 256.70 281.03 257.34 280.15 257.99 279.26 C 259.17 279.80 260.36 280.36 261.55 280.91 C 261.02 283.59 265.81 286.65 266.53 282.75 C 268.01 283.53 269.50 284.30 270.99 285.07 C 269.98 286.99 269.26 289.16 267.67 290.71 C 265.96 291.50 263.91 291.23 262.05 291.30 C 258.95 289.45 255.71 287.67 253.15 285.08 C 253.46 283.47 254.63 282.51 256.05 281.92 Z"/>
    <path fill="#22c2f4" d=" M 137.54 281.56 C 142.17 280.12 145.30 284.72 146.84 288.41 C 145.84 289.20 144.83 289.99 143.81 290.77 C 143.31 291.43 142.29 292.74 141.79 293.40 C 141.36 292.62 140.49 291.06 140.06 290.28 C 138.71 290.78 137.37 291.28 136.02 291.80 C 136.47 292.48 137.38 293.85 137.83 294.54 C 135.90 295.28 133.98 296.03 132.04 296.74 C 130.88 294.58 129.77 292.40 128.72 290.18 C 132.14 289.13 135.43 287.72 138.69 286.26 C 138.32 284.69 137.92 283.12 137.54 281.56 Z"/>
    <path fill="#22c2f4" d=" M 217.81 289.27 C 220.00 287.31 222.05 285.20 223.90 282.92 C 226.11 284.92 229.23 285.56 231.12 288.01 C 231.20 288.81 231.36 290.41 231.44 291.21 C 232.43 290.12 233.37 288.98 234.30 287.83 C 236.24 288.51 237.87 289.75 239.47 291.00 C 237.31 293.54 235.06 296.01 232.83 298.49 C 229.97 294.80 227.02 291.15 223.75 287.82 C 223.81 288.76 223.61 289.86 224.37 290.62 C 226.70 293.73 229.34 296.61 231.36 299.96 C 229.52 301.10 227.66 302.27 225.56 302.87 C 224.53 301.11 223.56 299.31 222.88 297.38 C 223.41 296.98 224.46 296.19 224.98 295.79 C 224.31 294.55 223.62 293.31 222.95 292.09 C 222.40 292.62 221.30 293.70 220.75 294.24 C 219.52 292.74 218.54 291.06 217.81 289.27 Z"/>
    <path fill="#22c2f4" d=" M 277.81 284.92 C 281.67 286.60 285.64 290.01 290.08 288.32 C 291.69 288.87 293.29 289.45 294.87 290.09 C 294.16 292.79 293.18 295.41 291.89 297.89 C 289.10 296.96 286.38 295.82 283.68 294.66 C 283.64 294.14 283.57 293.09 283.53 292.57 C 281.13 291.30 278.71 290.07 276.22 288.97 C 276.75 287.61 277.28 286.26 277.81 284.92 Z"/>
    <path fill="#22c2f4" d=" M 103.73 293.70 C 109.47 291.55 115.15 289.25 121.03 287.49 C 121.68 289.07 122.33 290.65 122.98 292.24 C 120.77 293.68 116.82 293.92 116.99 297.36 C 115.95 297.69 114.91 298.02 113.86 298.34 C 113.49 297.77 112.75 296.61 112.38 296.04 C 110.03 296.70 107.72 297.45 105.43 298.29 C 104.79 296.78 104.23 295.25 103.73 293.70 Z"/>
    <path fill="#22c2f4" d=" M 247.77 292.58 C 249.16 290.73 250.40 288.76 251.82 286.94 C 255.54 289.02 259.28 291.12 262.67 293.73 C 262.29 294.45 261.52 295.90 261.13 296.62 C 259.46 295.35 257.73 294.10 255.62 293.66 C 256.82 297.40 261.63 297.84 263.18 301.43 C 261.63 303.42 260.17 305.48 258.76 307.57 C 257.94 306.17 256.77 305.20 255.18 304.91 C 254.15 303.83 253.13 302.74 252.11 301.66 C 252.56 300.46 253.03 299.26 253.51 298.08 C 251.80 296.04 249.97 294.10 247.77 292.58 Z"/>
    <path fill="#22c2f4" d=" M 119.07 297.95 C 119.83 296.78 121.27 296.54 122.46 296.04 C 123.61 297.80 124.16 301.35 127.00 299.63 C 127.37 300.74 127.71 301.86 128.00 303.00 C 126.57 304.71 124.40 305.49 122.62 306.75 C 123.00 307.31 123.76 308.42 124.15 308.97 C 122.77 310.01 121.40 311.05 120.04 312.11 C 119.51 311.63 118.46 310.68 117.93 310.21 C 116.07 311.03 114.15 311.75 112.14 312.13 C 111.36 310.68 110.57 309.24 109.80 307.80 C 112.66 304.29 106.98 303.87 106.98 300.53 C 108.92 299.93 111.24 298.39 112.57 300.82 C 113.73 300.32 114.88 299.82 116.04 299.33 C 116.69 300.67 117.36 302.01 118.04 303.35 C 118.67 303.08 119.92 302.55 120.55 302.28 C 120.03 300.85 119.09 299.51 119.07 297.95 Z"/>
    <path fill="#22c2f4" d=" M 193.76 295.16 C 195.28 295.29 196.79 295.45 198.31 295.63 C 196.90 300.75 197.76 306.18 196.19 311.24 C 195.16 311.57 194.09 311.74 193.03 311.97 C 192.90 309.40 188.98 308.27 188.08 310.93 C 186.79 310.64 185.51 310.35 184.23 310.06 C 184.67 308.44 185.16 306.85 185.67 305.26 C 186.84 305.35 188.02 305.42 189.19 305.50 C 189.80 303.30 190.42 301.11 191.01 298.91 C 191.56 298.76 192.64 298.45 193.19 298.30 C 193.33 297.51 193.62 295.95 193.76 295.16 Z"/>
    <path fill="#22c2f4" d=" M 242.00 300.23 C 243.26 298.72 244.58 297.26 245.94 295.84 C 246.44 296.29 247.43 297.17 247.93 297.61 C 248.34 297.28 249.16 296.62 249.57 296.28 C 250.49 297.01 251.42 297.74 252.35 298.48 C 251.41 299.67 250.44 300.84 249.47 302.01 C 251.74 304.83 254.49 307.19 256.77 310.00 C 255.76 311.53 254.43 312.77 252.81 313.63 C 252.31 314.75 251.79 315.87 251.24 316.98 C 248.97 314.67 247.07 312.10 247.22 308.71 C 246.73 308.98 245.76 309.52 245.27 309.79 C 244.42 308.78 243.56 307.78 242.71 306.79 C 243.33 305.84 243.95 304.91 244.58 303.97 C 243.74 302.71 242.88 301.46 242.00 300.23 Z"/>
    <path fill="#22c2f4" d=" M 143.31 300.00 C 145.02 299.10 146.72 298.18 148.42 297.26 C 149.84 297.76 151.30 297.66 152.74 297.31 C 153.90 298.75 155.03 300.22 156.13 301.71 C 155.16 302.59 154.19 303.48 153.22 304.38 C 152.48 304.12 151.00 303.61 150.26 303.35 C 150.43 304.14 150.78 305.71 150.95 306.50 C 149.99 307.31 149.03 308.12 148.08 308.94 C 147.25 308.41 146.40 307.90 145.55 307.43 C 145.76 309.48 145.56 311.50 144.48 313.32 C 141.75 312.00 139.98 309.48 138.26 307.09 C 140.30 305.34 142.36 303.60 144.46 301.91 C 144.17 301.44 143.60 300.48 143.31 300.00 Z"/>
    <path fill="#22c2f4" d=" M 268.15 305.30 C 269.10 303.29 270.10 301.31 271.12 299.34 C 272.79 300.02 274.41 300.80 276.03 301.63 C 275.55 302.08 274.60 302.97 274.12 303.41 C 276.00 303.83 277.94 303.65 279.85 303.56 C 280.08 307.09 284.07 307.55 286.46 309.14 C 285.85 310.77 285.19 312.37 284.47 313.96 C 282.96 312.88 281.46 311.80 279.95 310.74 C 279.40 311.16 278.31 312.02 277.76 312.45 C 274.46 310.19 271.30 307.75 268.15 305.30 Z"/>
    <path fill="#22c2f4" d=" M 234.01 307.62 C 236.43 305.65 238.69 303.50 241.02 301.44 C 241.80 302.22 242.59 303.02 243.38 303.82 C 242.64 304.73 241.92 305.66 241.21 306.59 C 242.27 307.97 243.32 309.36 244.37 310.76 C 243.73 311.13 242.45 311.87 241.81 312.24 C 242.39 313.13 242.97 314.02 243.56 314.91 C 244.14 314.43 245.30 313.48 245.89 313.00 C 246.84 314.13 247.81 315.27 248.79 316.40 C 248.64 317.07 248.36 318.43 248.21 319.10 C 247.62 319.15 246.44 319.26 245.85 319.32 C 245.21 320.28 244.56 321.25 243.90 322.20 C 240.77 317.23 237.31 312.48 234.01 307.62 Z"/>
    <path fill="#22c2f4" d=" M 156.59 302.58 C 159.41 304.56 162.67 306.44 164.00 309.80 C 161.53 314.48 157.13 317.71 154.90 322.55 C 153.93 321.78 152.96 321.00 152.01 320.21 C 153.22 318.31 154.84 316.45 154.37 313.99 C 152.49 315.35 150.76 316.89 149.22 318.62 C 147.67 317.34 146.08 316.10 144.49 314.88 C 146.31 312.18 148.75 310.01 151.18 307.88 C 152.36 309.26 153.57 310.62 154.80 311.96 C 156.76 309.93 154.66 308.15 153.00 306.87 C 154.15 305.40 155.37 303.98 156.59 302.58 Z"/>
    <path fill="#22c2f4" d=" M 262.65 312.72 C 264.21 310.59 265.72 308.42 267.22 306.25 C 268.15 307.04 269.07 307.83 270.00 308.62 C 269.54 309.22 268.63 310.42 268.18 311.01 C 269.10 311.56 270.02 312.11 270.95 312.66 C 271.35 312.25 272.15 311.44 272.55 311.03 C 274.48 312.00 276.16 313.39 277.96 314.59 C 279.70 313.71 281.60 312.61 282.89 314.81 C 282.35 317.95 279.58 320.11 277.98 322.76 C 275.79 320.26 273.01 318.42 270.34 316.48 C 269.84 316.85 268.83 317.57 268.33 317.93 C 266.39 316.24 264.46 314.54 262.65 312.72 Z"/>
    <path fill="#22c2f4" d=" M 222.57 316.07 C 224.72 312.95 228.37 311.60 231.41 309.56 C 232.05 310.09 232.69 310.62 233.34 311.16 C 231.77 312.06 231.33 313.25 232.00 314.72 C 232.74 314.77 234.21 314.87 234.95 314.92 C 234.72 316.41 234.38 317.88 233.93 319.33 C 235.07 321.93 238.40 325.70 234.40 327.52 C 233.90 325.93 232.83 324.93 231.21 324.69 C 231.59 325.87 231.99 327.05 232.41 328.23 C 231.72 328.59 230.35 329.31 229.67 329.68 C 228.36 327.64 226.52 326.04 225.10 324.09 C 228.41 322.56 225.68 319.32 224.96 317.00 C 224.36 316.77 223.16 316.30 222.57 316.07 Z"/>
    <path fill="#22c2f4" d=" M 161.42 317.89 C 162.58 315.18 163.76 312.34 166.00 310.33 C 167.16 310.76 168.31 311.24 169.45 311.77 C 167.74 316.32 166.02 320.87 163.99 325.30 C 163.56 324.99 162.70 324.37 162.27 324.07 C 160.83 327.49 157.96 323.94 155.95 323.16 C 156.95 321.50 157.95 319.83 158.95 318.17 C 159.57 318.10 160.80 317.96 161.42 317.89 Z"/>
    <path fill="#22c2f4" d=" M 259.40 316.84 C 260.25 315.73 261.09 314.62 261.93 313.50 C 263.76 315.40 265.50 317.68 268.12 318.54 C 271.41 319.72 274.75 321.10 276.99 323.92 C 276.07 324.91 275.16 325.89 274.26 326.88 C 272.85 325.99 271.43 325.08 269.71 325.03 C 270.59 326.49 271.71 327.78 272.84 329.07 C 271.61 329.81 270.36 330.52 269.10 331.21 C 267.20 328.98 265.26 326.79 263.22 324.70 C 263.43 324.11 263.84 322.92 264.05 322.33 C 262.50 320.50 260.96 318.66 259.40 316.84 Z"/>
    <path fill="#22c2f4" d=" M 178.02 316.11 C 179.65 316.68 181.26 317.29 182.86 317.95 C 182.81 318.53 182.69 319.70 182.63 320.29 C 182.19 320.58 181.29 321.16 180.85 321.45 C 180.09 325.49 179.19 329.51 177.96 333.45 C 176.33 332.87 174.71 332.28 173.10 331.66 C 173.61 329.90 174.11 328.15 174.56 326.38 C 174.00 326.04 172.87 325.36 172.30 325.02 C 172.76 322.72 173.38 320.46 174.07 318.23 C 175.07 318.48 176.07 318.74 177.07 319.00 C 177.39 318.04 177.70 317.07 178.02 316.11 Z"/>
    <path fill="#22c2f4" d=" M 215.25 317.43 C 216.67 316.94 218.09 316.46 219.52 316.01 C 219.81 316.74 220.40 318.20 220.69 318.92 C 221.52 318.72 223.17 318.33 224.00 318.13 C 224.63 320.05 224.80 322.01 223.73 323.82 C 223.98 326.88 226.96 328.17 227.77 330.89 C 224.95 331.81 222.08 332.66 219.10 332.73 C 218.16 327.55 216.99 322.40 215.25 317.43 Z"/>
    <path fill="#22c2f4" d=" M 204.60 319.75 C 206.67 319.36 208.74 318.97 210.81 318.58 C 210.84 320.12 210.87 321.66 210.90 323.21 C 212.33 323.19 213.75 323.17 215.18 323.14 C 215.70 324.44 216.22 325.74 216.76 327.05 C 215.30 327.47 213.86 327.93 212.42 328.42 C 212.57 329.25 212.73 330.09 212.89 330.93 C 214.38 330.72 215.88 330.50 217.37 330.28 C 217.67 331.56 217.97 332.85 218.28 334.13 C 214.41 334.81 210.74 336.38 206.80 336.65 C 206.36 334.89 205.90 333.12 205.48 331.36 C 206.12 331.05 207.41 330.43 208.05 330.12 C 204.78 327.61 204.74 323.52 204.60 319.75 Z"/>
    <path fill="#22c2f4" d=" M 258.83 318.59 C 260.11 319.84 261.39 321.09 262.69 322.32 C 262.14 322.75 261.04 323.62 260.49 324.05 C 262.73 327.34 265.94 329.84 268.38 333.00 C 266.94 334.30 265.50 335.60 264.05 336.88 C 263.13 336.12 262.21 335.36 261.29 334.61 C 261.85 334.14 262.96 333.19 263.52 332.71 C 262.45 332.13 261.43 332.18 260.46 332.88 C 259.46 332.68 258.46 332.49 257.47 332.31 C 255.82 330.15 253.52 328.25 253.12 325.40 C 252.78 324.75 252.45 324.10 252.11 323.46 C 253.00 322.70 253.89 321.95 254.79 321.20 C 255.80 322.23 257.36 323.24 258.38 321.64 C 258.50 320.88 258.72 319.36 258.83 318.59 Z"/>
    <path fill="#22c2f4" d=" M 236.02 333.70 C 239.42 331.60 242.97 329.72 246.30 327.50 C 247.14 328.74 247.96 329.98 248.79 331.23 C 247.70 332.15 246.63 333.07 245.56 334.00 C 246.60 336.18 247.74 338.32 248.99 340.40 C 248.56 341.38 248.14 342.37 247.73 343.37 C 248.50 343.10 250.05 342.57 250.83 342.30 C 251.19 343.40 251.54 344.51 251.90 345.63 C 250.23 346.61 248.55 347.58 246.85 348.53 C 245.81 347.04 244.81 345.52 243.83 344.00 C 242.88 344.33 241.93 344.67 240.99 345.02 C 240.39 343.64 239.78 342.26 239.18 340.89 C 239.83 340.45 241.13 339.58 241.78 339.14 C 241.21 338.02 240.65 336.90 240.08 335.79 C 239.51 336.22 238.38 337.08 237.81 337.51 C 237.21 336.24 236.61 334.97 236.02 333.70 Z"/>
    <path fill="#22c2f4" d=" M 248.24 334.94 C 249.09 332.21 249.74 329.42 250.86 326.79 C 253.13 329.25 255.20 331.87 257.22 334.53 C 257.67 334.36 258.57 334.01 259.02 333.84 C 260.11 335.27 261.20 336.70 262.29 338.15 C 261.13 339.10 259.97 340.05 258.82 341.00 C 257.48 339.84 256.37 337.27 254.11 338.45 C 254.88 339.54 255.67 340.62 256.47 341.70 C 255.85 342.14 254.62 343.04 254.00 343.49 C 252.08 340.64 249.92 337.94 248.24 334.94 Z"/>
    <path fill="#22c2f4" d=" M 155.92 334.19 C 156.48 334.55 157.61 335.27 158.17 335.63 C 159.12 334.80 160.07 333.97 161.00 333.14 C 163.21 334.11 165.41 335.11 167.63 336.07 C 166.99 338.47 165.92 340.72 164.82 342.94 C 163.58 342.71 162.34 342.48 161.11 342.27 C 159.86 344.98 158.86 347.85 157.15 350.33 C 155.71 351.78 154.10 349.93 152.85 349.18 C 154.57 346.60 156.22 343.97 157.74 341.27 C 156.31 340.47 154.89 339.67 153.47 338.87 C 154.09 337.21 154.92 335.65 155.92 334.19 Z"/>
    <path fill="#22c2f4" d=" M 169.75 337.28 C 171.55 337.80 173.35 338.37 175.14 338.95 C 174.25 340.73 174.82 342.16 176.43 343.20 C 175.77 344.62 174.50 345.27 173.00 345.48 C 172.88 346.11 172.76 346.74 172.64 347.38 C 173.06 347.69 173.90 348.31 174.32 348.62 C 173.77 350.38 173.25 352.15 172.76 353.93 C 171.74 353.87 170.72 353.82 169.71 353.76 C 169.36 354.32 168.67 355.44 168.33 356.00 C 167.06 355.56 165.80 355.12 164.54 354.67 C 164.71 352.78 166.45 350.67 164.87 348.95 C 163.89 350.60 162.97 352.30 162.08 354.01 C 161.42 353.52 160.11 352.55 159.45 352.07 C 159.31 349.38 161.08 347.10 161.94 344.67 C 163.47 344.78 164.99 344.86 166.52 344.93 C 167.46 342.32 168.64 339.81 169.75 337.28 Z"/>
    <path fill="#22c2f4" d=" M 222.61 339.00 C 224.30 338.44 225.98 337.86 227.67 337.29 C 229.24 340.23 230.20 343.45 231.66 346.45 C 234.43 347.45 235.59 350.26 235.93 352.98 C 234.48 354.18 232.64 354.73 230.97 355.54 C 230.63 353.99 230.30 352.46 229.96 350.92 C 226.52 350.73 228.50 354.28 228.54 356.25 C 225.68 357.19 222.73 357.93 219.71 358.08 C 219.47 357.26 218.99 355.63 218.76 354.81 C 220.54 354.03 222.33 353.24 224.00 352.22 C 223.13 347.85 222.69 343.45 222.61 339.00 Z"/>
    <path fill="#22c2f4" d=" M 178.41 339.97 C 180.58 340.61 182.71 341.37 184.79 342.27 C 184.25 344.00 183.72 345.75 183.21 347.49 C 182.65 347.80 181.54 348.41 180.98 348.72 C 181.38 350.34 181.91 351.94 182.54 353.50 C 183.20 353.60 184.51 353.81 185.16 353.91 C 184.82 355.87 184.48 357.82 184.13 359.79 C 182.49 359.71 181.18 359.07 180.52 357.54 C 179.31 357.36 178.10 357.19 176.89 357.03 C 176.48 357.32 175.65 357.89 175.24 358.18 C 174.71 357.77 173.66 356.95 173.13 356.54 C 173.95 354.34 174.70 352.12 175.43 349.90 C 176.21 349.14 177.46 348.32 176.68 346.99 C 176.35 344.51 177.77 342.28 178.41 339.97 Z"/>
    <path fill="#22c2f4" d=" M 216.48 340.82 C 217.72 340.49 218.95 340.17 220.18 339.84 C 221.03 343.94 221.87 348.07 222.07 352.27 C 219.86 352.87 217.65 353.45 215.40 353.87 C 215.57 355.66 216.05 357.45 215.80 359.25 C 213.69 359.69 211.53 359.84 209.39 360.03 C 209.27 358.45 209.16 356.87 209.06 355.30 C 209.71 355.03 210.99 354.50 211.63 354.24 C 211.47 351.43 212.50 347.82 209.72 345.99 C 209.64 345.12 209.49 343.39 209.42 342.52 C 210.70 342.26 211.99 342.00 213.28 341.75 C 213.45 343.62 213.89 345.71 216.33 345.46 C 216.90 343.96 216.58 342.36 216.48 340.82 Z"/>
  </g>
  <g id="#8bd6f8ff">
    <path fill="#8bd6f8" d=" M 190.92 77.92 C 193.85 73.04 196.42 67.93 199.65 63.23 C 211.68 84.69 224.34 105.79 236.35 127.26 C 212.35 120.51 186.60 120.55 162.58 127.22 C 171.83 110.68 181.51 94.37 190.92 77.92 Z"/>
    <path fill="#8bd6f8" d=" M 32.02 353.14 C 44.48 331.63 56.67 309.94 69.45 288.62 C 75.49 313.10 88.76 335.53 106.77 353.11 C 81.85 353.24 56.93 353.20 32.02 353.14 Z"/>
    <path fill="#8bd6f8" d=" M 329.43 288.68 C 342.15 310.02 354.45 331.63 366.76 353.21 C 341.86 353.20 316.95 353.32 292.04 353.15 C 310.12 335.62 323.37 313.15 329.43 288.68 Z"/>
  </g>
  <g id="#32bdefff">
    <path fill="#32bdef" d=" M 194.10 150.51 C 195.59 150.78 197.07 151.03 198.56 151.28 C 198.37 156.77 198.72 162.27 199.48 167.71 C 198.40 167.59 196.73 168.38 196.12 167.08 C 195.35 161.57 194.14 156.10 194.10 150.51 Z"/>
  </g>
  <g id="#27c1f3ff">
    <path fill="#27c1f3" d=" M 183.07 152.37 C 184.44 152.18 185.81 151.99 187.19 151.82 C 188.81 153.06 190.19 152.35 191.33 150.84 C 191.35 151.81 191.39 153.76 191.40 154.73 C 190.64 154.66 189.12 154.50 188.35 154.42 C 188.19 155.16 187.85 156.63 187.69 157.36 C 189.18 157.41 190.67 157.43 192.17 157.42 C 192.76 161.12 193.38 164.82 194.16 168.49 C 192.03 168.65 189.90 168.80 187.77 168.91 C 187.01 165.57 185.37 162.45 185.23 158.98 C 184.31 156.85 183.47 154.67 183.07 152.37 Z"/>
    <path fill="#27c1f3" d=" M 200.43 319.81 C 201.40 320.01 202.33 320.31 203.22 320.72 C 204.24 325.13 204.34 329.69 204.34 334.20 C 202.74 334.24 201.14 334.26 199.54 334.26 C 198.94 329.43 199.69 324.58 200.43 319.81 Z"/>
  </g>
  <g id="#21c2f5ff">
    <path fill="#21c2f5" d=" M 200.14 151.00 C 202.62 151.18 205.19 151.20 207.47 152.38 C 207.51 154.13 207.56 155.89 207.62 157.65 C 205.90 157.04 204.11 156.63 202.28 156.78 C 203.36 158.76 205.23 159.76 207.46 159.78 C 207.44 161.22 207.42 162.65 207.41 164.09 C 206.67 164.22 205.19 164.47 204.46 164.60 C 204.45 165.34 204.43 166.80 204.42 167.53 C 203.49 167.58 201.63 167.67 200.70 167.71 C 200.35 162.15 200.08 156.58 200.14 151.00 Z"/>
    <path fill="#21c2f5" d=" M 234.00 204.05 C 237.33 199.34 239.36 193.87 242.90 189.29 C 244.40 190.46 245.90 191.63 247.41 192.78 C 244.79 195.80 242.55 199.12 240.53 202.57 C 241.78 203.65 243.09 204.65 244.42 205.63 C 243.23 207.21 242.14 208.86 241.07 210.53 C 238.87 208.20 236.46 206.10 234.00 204.05 Z"/>
    <path fill="#21c2f5" d=" M 182.55 296.64 C 185.46 298.07 186.48 295.09 187.55 293.07 C 188.44 293.28 190.23 293.71 191.12 293.93 C 189.92 297.19 189.80 301.70 186.09 303.17 C 183.91 304.30 183.68 307.13 182.57 309.10 C 181.07 308.53 179.58 307.93 178.09 307.34 C 179.69 303.82 180.94 300.16 182.55 296.64 Z"/>
  </g>
  <g id="#23c2f4ff">
    <path fill="#23c2f4" d=" M 219.83 153.30 C 221.77 153.79 223.71 154.29 225.66 154.78 C 225.52 155.44 225.26 156.78 225.13 157.45 C 225.90 157.70 227.44 158.20 228.21 158.45 C 227.21 160.57 225.30 161.58 222.98 161.48 C 222.15 163.53 222.41 165.67 225.05 165.88 C 224.75 167.41 224.41 168.94 224.08 170.48 C 223.08 169.81 222.07 169.17 221.05 168.54 C 220.71 169.70 220.39 170.86 220.07 172.02 C 218.57 171.57 217.07 171.11 215.58 170.64 C 216.17 168.21 216.70 165.77 217.18 163.32 C 216.40 161.83 215.65 160.33 214.91 158.82 C 216.06 158.55 217.21 158.28 218.37 158.02 C 218.85 156.45 219.34 154.87 219.83 153.30 Z"/>
    <path fill="#23c2f4" d=" M 237.90 160.80 C 239.23 161.37 240.66 161.40 242.07 161.09 C 243.72 161.91 245.39 162.69 247.09 163.42 C 245.72 164.92 244.99 168.54 242.34 166.72 C 241.89 167.21 241.44 167.70 240.99 168.19 C 241.70 168.25 243.12 168.36 243.83 168.42 C 241.95 172.05 240.64 176.00 238.14 179.29 C 236.96 178.79 235.79 178.29 234.61 177.81 C 235.56 175.35 236.56 172.90 237.84 170.59 C 236.89 170.07 235.95 169.55 235.01 169.05 C 235.43 167.87 235.85 166.69 236.25 165.51 C 237.16 166.02 238.07 166.52 239.00 167.01 C 238.93 165.54 237.77 164.79 236.69 164.05 C 237.09 162.96 237.49 161.88 237.90 160.80 Z"/>
    <path fill="#23c2f4" d=" M 195.12 173.89 C 196.91 173.80 198.70 173.72 200.50 173.66 C 200.32 177.81 200.26 181.99 200.74 186.12 C 202.33 186.53 203.92 186.96 205.51 187.37 C 205.37 188.44 205.23 189.52 205.10 190.59 C 201.96 190.84 198.84 191.28 195.76 191.90 C 196.08 185.88 195.04 179.91 195.12 173.89 Z"/>
    <path fill="#23c2f4" d=" M 202.29 174.30 C 204.44 174.78 206.60 175.21 208.77 175.60 C 208.66 178.91 208.08 182.18 207.14 185.35 C 205.53 185.06 203.93 184.75 202.33 184.44 C 201.82 181.08 201.98 177.67 202.29 174.30 Z"/>
    <path fill="#23c2f4" d=" M 115.12 195.20 C 116.39 193.51 117.64 191.80 118.89 190.09 C 120.02 190.93 121.16 191.77 122.31 192.60 C 121.72 193.50 121.13 194.42 120.56 195.34 C 122.21 195.53 123.88 195.62 125.54 195.58 C 127.93 197.84 130.66 199.68 133.57 201.20 C 132.47 202.65 131.36 204.09 130.18 205.49 C 125.13 202.09 120.24 198.48 115.12 195.20 Z"/>
    <path fill="#23c2f4" d=" M 274.61 219.66 C 280.08 216.66 285.70 213.96 291.47 211.60 C 292.33 213.73 293.19 215.85 294.06 217.97 C 293.28 218.57 292.51 219.17 291.74 219.77 C 291.98 220.58 292.46 222.18 292.70 222.98 C 291.68 223.17 289.63 223.55 288.61 223.74 C 287.36 221.86 286.80 218.83 283.84 219.07 C 284.55 220.96 285.36 222.81 286.17 224.66 C 285.13 225.02 283.06 225.74 282.02 226.11 C 283.37 226.83 284.76 227.51 286.08 228.30 C 287.95 227.67 289.81 227.04 291.66 226.34 C 291.61 225.81 291.50 224.75 291.45 224.22 C 292.92 223.97 294.39 223.73 295.88 223.52 C 296.36 225.38 296.84 227.25 297.31 229.12 C 296.35 229.31 293.44 230.21 295.15 231.37 C 295.71 231.52 296.83 231.83 297.39 231.99 C 297.13 232.52 296.62 233.60 296.36 234.13 C 294.97 234.25 293.58 234.38 292.20 234.51 C 289.31 232.54 285.93 234.28 282.86 234.68 C 282.36 233.54 281.88 232.41 281.41 231.27 C 280.81 231.43 279.60 231.74 278.99 231.90 C 278.79 230.82 278.60 229.74 278.41 228.67 C 279.41 228.52 281.41 228.21 282.41 228.06 C 281.44 226.57 280.90 224.86 280.20 223.24 C 279.15 223.90 278.09 224.55 277.02 225.19 C 276.22 223.34 275.43 221.49 274.61 219.66 Z"/>
    <path fill="#23c2f4" d=" M 232.24 227.58 C 234.25 225.09 236.52 222.79 239.21 221.04 C 240.76 223.36 242.25 225.71 243.70 228.09 C 242.49 229.13 241.26 230.16 240.03 231.18 C 239.45 230.66 238.28 229.62 237.69 229.10 C 237.32 230.34 236.98 231.58 236.67 232.84 C 234.42 234.38 232.10 235.83 229.62 236.97 C 227.79 233.77 231.70 232.37 233.37 230.31 C 232.99 229.40 232.62 228.49 232.24 227.58 Z"/>
    <path fill="#23c2f4" d=" M 271.29 249.34 C 273.04 249.02 274.78 248.67 276.52 248.27 C 276.59 249.54 276.67 250.80 276.74 252.08 C 276.16 252.18 275.00 252.38 274.41 252.49 C 274.43 254.45 274.47 256.41 274.52 258.37 C 269.23 258.21 263.95 257.85 258.66 257.76 C 258.67 256.04 258.68 254.32 258.68 252.60 C 260.22 252.78 261.75 252.98 263.28 253.19 C 263.31 252.40 263.37 250.82 263.40 250.03 C 265.56 250.22 268.20 249.61 269.42 251.98 C 270.06 251.11 270.68 250.23 271.29 249.34 Z"/>
    <path fill="#23c2f4" d=" M 121.09 254.91 C 126.78 253.82 132.60 254.47 138.31 255.06 C 138.31 256.27 138.30 257.48 138.29 258.70 C 137.01 258.90 135.73 259.10 134.45 259.31 C 134.49 261.71 134.13 264.01 131.33 264.42 C 130.77 263.86 129.66 262.74 129.11 262.18 C 128.00 265.36 124.28 266.20 121.58 264.53 C 121.23 263.55 120.92 262.56 120.66 261.56 C 122.50 261.29 123.50 260.17 123.67 258.20 C 123.01 258.28 121.69 258.45 121.03 258.53 C 121.05 257.32 121.07 256.11 121.09 254.91 Z"/>
    <path fill="#23c2f4" d=" M 97.83 258.48 C 99.99 258.20 102.17 258.11 104.35 258.02 C 104.50 258.55 104.80 259.61 104.95 260.15 C 107.87 260.19 110.83 259.88 113.74 260.30 C 115.92 261.48 115.16 264.33 115.63 266.36 C 113.17 266.58 110.71 266.64 108.25 266.65 C 108.33 267.96 108.40 269.27 108.49 270.58 C 107.31 270.66 106.13 270.74 104.96 270.82 C 104.45 269.00 104.03 267.15 103.65 265.31 C 101.72 264.82 99.79 264.32 97.87 263.80 C 97.85 262.02 97.84 260.25 97.83 258.48 Z"/>
    <path fill="#23c2f4" d=" M 132.25 265.50 C 134.48 265.08 136.69 264.60 138.93 264.24 C 139.21 266.26 139.49 268.28 139.78 270.31 C 137.56 271.16 135.32 271.96 133.06 272.70 C 133.11 273.30 133.22 274.51 133.27 275.11 C 130.40 276.03 127.65 277.29 124.78 278.24 C 124.37 277.30 123.96 276.36 123.55 275.43 C 124.16 274.64 124.75 273.83 125.31 273.01 C 124.74 271.89 123.81 271.28 122.53 271.18 C 122.31 270.02 122.08 268.87 121.85 267.72 C 124.07 267.58 127.59 265.50 128.48 268.71 C 129.51 268.49 131.57 268.07 132.60 267.85 C 132.51 267.26 132.34 266.08 132.25 265.50 Z"/>
    <path fill="#23c2f4" d=" M 126.41 306.79 C 127.23 306.19 128.06 305.62 128.90 305.04 C 129.82 305.96 130.74 306.87 131.67 307.79 C 130.33 308.94 129.03 310.14 127.78 311.39 C 129.95 312.11 131.21 310.14 132.73 309.13 C 133.13 310.05 133.53 310.99 133.92 311.93 C 131.92 313.63 129.91 315.32 127.92 317.03 C 127.14 316.81 126.36 316.59 125.58 316.38 C 123.24 317.98 121.33 320.37 118.50 321.14 C 117.00 319.07 115.55 316.95 114.30 314.71 C 115.98 313.79 117.72 313.33 119.42 314.57 C 121.93 312.20 125.88 310.59 126.41 306.79 Z"/>
    <path fill="#23c2f4" d=" M 140.20 327.45 C 141.55 325.80 142.90 324.16 144.24 322.50 C 145.07 323.05 145.91 323.59 146.74 324.15 C 146.22 325.63 145.97 327.16 147.35 328.31 C 146.82 329.50 146.29 330.69 145.79 331.90 C 146.31 332.37 147.34 333.31 147.86 333.78 C 145.81 336.87 144.29 340.55 141.05 342.63 C 138.56 340.65 136.00 338.76 133.41 336.92 C 133.97 335.73 134.54 334.56 135.12 333.40 C 136.56 334.48 137.95 335.64 139.50 336.58 C 140.32 336.57 140.27 335.48 140.68 334.99 C 139.36 333.92 138.05 332.84 136.74 331.77 C 137.10 331.29 137.84 330.32 138.20 329.83 C 139.25 330.31 140.31 330.78 141.38 331.24 C 141.70 329.75 141.31 328.49 140.20 327.45 Z"/>
    <path fill="#23c2f4" d=" M 149.68 331.84 C 149.56 330.11 149.81 328.45 150.61 326.91 C 152.34 328.06 154.10 329.17 155.94 330.16 C 154.48 333.14 153.00 336.12 151.74 339.19 C 153.11 340.14 154.50 341.07 155.89 342.02 C 154.65 343.33 153.00 344.08 151.44 344.91 C 151.84 345.29 152.65 346.04 153.06 346.41 C 152.55 346.98 151.54 348.13 151.04 348.71 C 150.37 348.34 149.04 347.60 148.37 347.23 C 148.36 346.71 148.34 345.65 148.34 345.13 C 146.98 344.18 145.59 343.29 144.41 342.13 C 146.01 338.62 148.56 335.55 149.68 331.84 Z"/>
    <path fill="#23c2f4" d=" M 195.48 345.49 C 195.82 345.07 196.51 344.23 196.86 343.81 C 198.13 343.83 199.41 343.85 200.69 343.88 C 200.64 344.59 200.55 346.01 200.50 346.72 C 203.33 351.24 199.33 356.01 200.57 360.80 C 197.47 360.72 194.38 360.63 191.28 360.55 C 191.21 359.29 191.15 358.03 191.09 356.78 C 192.19 356.69 193.29 356.60 194.39 356.51 C 195.26 352.90 195.35 349.18 195.48 345.49 Z"/>
  </g>
  <g id="#25c1f4ff">
    <path fill="#25c1f4" d=" M 257.26 169.67 C 259.55 171.42 261.88 173.13 264.13 174.95 C 262.58 176.79 261.18 178.74 259.78 180.69 C 258.96 182.43 255.50 180.34 255.64 182.87 C 255.94 183.46 256.55 184.63 256.85 185.22 C 255.52 186.62 254.25 188.07 253.02 189.55 C 250.53 187.86 252.05 184.60 249.69 182.75 C 250.59 180.36 252.18 178.37 253.79 176.42 C 255.12 176.69 256.74 178.34 257.90 176.85 C 257.86 175.19 256.25 174.47 255.22 173.46 C 255.92 172.20 256.60 170.94 257.26 169.67 Z"/>
    <path fill="#25c1f4" d=" M 195.94 200.43 C 197.59 200.41 199.25 200.44 200.90 200.51 C 201.07 205.86 200.29 211.23 200.99 216.56 C 198.71 216.50 196.44 216.65 194.17 216.84 C 194.63 214.34 192.80 210.72 195.68 209.32 C 195.75 206.36 195.84 203.39 195.94 200.43 Z"/>
  </g>
  <g id="#22c2f5ff">
    <path fill="#22c2f5" d=" M 147.75 179.22 C 150.18 178.20 152.35 176.72 154.10 174.74 C 155.15 176.73 156.22 178.71 157.32 180.67 C 155.23 181.92 153.16 183.21 151.01 184.35 C 149.94 182.63 148.86 180.91 147.75 179.22 Z"/>
    <path fill="#22c2f5" d=" M 126.56 181.72 C 128.34 180.06 130.00 178.27 131.77 176.60 C 135.38 180.84 139.17 184.93 142.99 188.98 C 140.24 192.32 138.06 196.16 134.73 198.99 C 134.51 196.97 134.08 194.99 133.57 193.04 C 134.28 190.54 138.43 188.92 136.59 186.12 C 135.20 186.30 134.02 187.11 132.81 187.74 C 130.71 185.75 128.66 183.71 126.56 181.72 Z"/>
    <path fill="#22c2f5" d=" M 233.85 190.71 C 234.21 188.77 234.83 186.90 235.61 185.09 C 237.52 186.17 239.42 187.29 241.32 188.40 C 239.94 190.25 238.59 192.13 237.30 194.04 C 236.17 192.90 235.02 191.80 233.85 190.71 Z"/>
    <path fill="#22c2f5" d=" M 282.25 202.75 C 281.65 200.85 282.94 199.38 283.94 197.93 C 285.20 200.06 286.48 202.17 287.80 204.27 C 286.04 205.07 284.28 205.88 282.53 206.71 C 282.54 207.19 282.57 208.15 282.58 208.63 C 284.49 207.64 286.40 206.64 288.29 205.61 C 289.16 206.85 290.01 208.11 290.85 209.37 C 285.33 212.46 279.72 215.38 274.10 218.29 C 273.48 216.92 272.85 215.56 272.24 214.19 C 273.86 212.87 275.45 211.51 276.93 210.04 C 276.18 208.39 275.45 206.75 274.64 205.14 C 275.38 204.85 276.84 204.29 277.58 204.00 C 277.87 204.23 278.45 204.68 278.74 204.90 C 279.91 204.18 281.08 203.46 282.25 202.75 Z"/>
    <path fill="#22c2f5" d=" M 133.60 212.19 C 135.11 209.81 136.61 207.43 138.16 205.07 C 142.60 208.79 146.39 213.21 150.02 217.69 C 149.44 218.69 148.84 219.70 148.25 220.71 C 144.92 218.04 141.61 215.31 137.96 213.08 C 137.59 213.40 136.86 214.04 136.50 214.35 C 135.53 213.62 134.57 212.90 133.60 212.19 Z"/>
    <path fill="#22c2f5" d=" M 153.47 227.72 C 154.72 225.38 156.16 223.15 157.86 221.10 C 162.56 224.40 166.86 228.22 171.27 231.89 C 170.77 232.72 169.76 234.38 169.26 235.21 C 166.75 232.61 164.11 229.94 160.67 228.61 C 159.74 229.13 158.92 229.84 158.06 230.48 C 156.53 229.55 155.01 228.63 153.47 227.72 Z"/>
    <path fill="#22c2f5" d=" M 289.57 246.72 C 292.25 244.92 295.23 243.69 298.43 243.17 C 298.30 244.97 298.21 246.77 298.14 248.57 C 296.32 248.87 294.52 249.28 292.71 249.60 C 289.69 249.66 286.67 249.51 283.66 249.37 C 283.59 248.57 283.46 246.96 283.39 246.15 C 285.38 246.46 287.66 248.07 289.57 246.72 Z"/>
    <path fill="#22c2f5" d=" M 160.35 272.12 C 162.30 271.36 164.23 270.54 166.15 269.70 C 166.73 270.96 167.31 272.22 167.89 273.48 C 164.53 275.72 161.02 277.75 157.83 280.25 C 158.70 281.46 159.60 282.64 160.52 283.82 C 159.04 285.02 157.61 286.29 156.20 287.58 C 154.43 285.10 152.91 282.48 151.40 279.84 C 153.36 276.73 157.23 275.92 160.17 274.04 C 160.22 273.56 160.30 272.60 160.35 272.12 Z"/>
    <path fill="#22c2f5" d=" M 162.02 278.83 C 163.35 277.88 164.71 276.96 166.08 276.06 C 167.09 276.67 168.09 277.28 169.11 277.88 C 168.72 278.85 168.34 279.81 167.96 280.78 C 169.24 280.79 170.51 280.77 171.78 280.73 C 172.28 281.32 173.27 282.49 173.76 283.08 C 172.42 284.88 170.75 286.39 168.35 285.86 C 165.41 288.43 162.23 290.78 159.83 293.90 C 158.96 292.84 158.09 291.79 157.22 290.74 C 158.16 287.75 160.35 285.47 163.01 283.92 C 163.24 283.47 163.69 282.58 163.92 282.13 C 163.28 281.02 162.65 279.92 162.02 278.83 Z"/>
    <path fill="#22c2f5" d=" M 125.03 318.95 C 129.34 319.20 131.87 315.11 135.04 312.88 C 135.70 313.80 136.37 314.72 137.04 315.65 C 134.88 317.92 134.07 320.96 133.00 323.81 C 132.11 323.34 131.22 322.86 130.33 322.39 C 130.53 324.02 130.61 325.67 129.21 326.86 C 128.72 326.22 127.72 324.93 127.23 324.28 C 126.59 324.33 125.33 324.41 124.70 324.46 C 125.73 325.62 126.82 326.71 127.91 327.82 C 127.41 328.33 126.41 329.36 125.91 329.87 C 124.08 327.84 122.34 325.73 120.57 323.65 C 121.92 321.96 123.45 320.42 125.03 318.95 Z"/>
  </g>
  <g id="#24c2f4ff">
    <path fill="#24c2f4" d=" M 248.46 212.29 C 250.63 209.92 252.82 207.57 255.06 205.26 C 255.62 206.46 256.20 207.67 256.78 208.88 C 255.13 210.92 253.20 212.70 251.14 214.31 C 250.25 213.63 249.35 212.96 248.46 212.29 Z"/>
    <path fill="#24c2f4" d=" M 150.82 233.06 C 151.47 231.84 152.12 230.63 152.79 229.43 C 155.38 230.72 158.06 231.87 160.44 233.56 C 161.26 232.90 162.07 232.24 162.90 231.59 C 164.28 232.60 165.69 233.58 167.12 234.55 C 166.13 235.85 165.14 237.16 164.18 238.50 C 164.58 238.73 165.38 239.20 165.78 239.44 C 165.16 240.79 164.58 242.15 164.02 243.53 C 162.13 242.91 160.22 242.32 158.31 241.77 C 158.87 240.19 159.42 238.62 159.94 237.03 C 157.10 235.28 153.97 234.12 150.82 233.06 Z"/>
    <path fill="#24c2f4" d=" M 262.60 234.89 C 264.76 233.94 266.93 233.04 269.15 232.25 C 269.61 233.22 270.13 234.16 270.70 235.07 C 271.36 234.88 272.68 234.48 273.34 234.29 C 273.75 235.50 274.15 236.72 274.55 237.95 C 269.03 238.55 263.75 240.29 258.53 242.12 C 258.62 239.61 260.91 238.73 262.77 237.70 C 262.73 237.00 262.64 235.59 262.60 234.89 Z"/>
    <path fill="#24c2f4" d=" M 238.85 249.32 C 242.62 248.73 246.43 248.30 250.20 247.65 C 250.29 248.30 250.48 249.60 250.58 250.25 C 247.89 250.56 247.72 254.31 250.77 254.19 C 250.77 255.46 250.78 256.74 250.78 258.02 C 245.54 259.43 240.22 258.85 234.90 258.46 C 234.83 257.23 234.77 255.99 234.72 254.77 C 237.81 254.64 240.93 254.74 244.01 254.31 C 243.52 251.87 241.08 252.79 239.44 252.35 C 239.20 251.34 239.01 250.34 238.85 249.32 Z"/>
    <path fill="#24c2f4" d=" M 156.07 265.92 C 158.95 265.15 161.89 264.54 164.88 264.53 C 165.13 265.48 165.61 267.39 165.86 268.34 C 163.21 269.60 159.45 269.85 158.35 273.06 C 155.59 274.22 152.82 275.32 150.07 276.48 C 149.52 275.17 148.97 273.86 148.42 272.56 C 150.25 272.03 152.25 271.84 153.92 270.86 C 155.71 269.89 155.55 267.61 156.07 265.92 Z"/>
    <path fill="#24c2f4" d=" M 232.64 265.29 C 233.16 265.29 234.20 265.29 234.73 265.29 C 234.65 266.00 234.50 267.42 234.42 268.13 C 236.32 268.50 238.22 268.92 240.12 269.33 C 240.58 268.26 241.06 267.18 241.53 266.12 C 242.52 266.34 244.49 266.78 245.48 267.00 C 244.45 268.02 243.38 268.99 242.39 270.05 C 242.99 270.40 244.18 271.10 244.78 271.45 C 246.03 270.13 247.43 269.03 249.37 269.67 C 248.22 273.71 246.84 277.68 245.09 281.50 C 244.09 281.10 243.09 280.69 242.10 280.29 C 241.78 278.95 242.63 276.86 241.01 276.16 C 237.92 274.39 234.43 273.47 231.35 271.69 C 231.06 269.51 232.22 267.40 232.64 265.29 Z"/>
    <path fill="#24c2f4" d=" M 185.04 322.83 C 185.59 321.61 185.21 319.41 186.88 319.05 C 187.53 319.08 188.82 319.14 189.47 319.16 C 189.17 321.76 188.84 324.36 188.59 326.96 C 188.19 327.18 187.38 327.62 186.98 327.84 C 186.88 328.69 186.70 330.38 186.61 331.23 C 188.10 332.26 188.61 334.75 186.94 335.86 C 184.57 335.61 182.25 334.91 180.03 334.08 C 179.53 330.40 181.48 326.83 182.10 323.23 C 182.84 323.13 184.30 322.93 185.04 322.83 Z"/>
    <path fill="#24c2f4" d=" M 189.68 342.73 C 191.06 342.98 192.44 343.23 193.82 343.48 C 193.69 346.88 194.13 350.35 193.47 353.70 C 192.38 354.66 190.86 354.93 189.64 355.70 C 189.37 356.90 189.17 358.11 189.04 359.34 C 187.82 359.61 186.60 359.85 185.37 360.09 C 186.15 356.71 187.74 352.67 184.85 349.81 C 186.37 349.68 187.89 349.56 189.42 349.43 C 189.48 347.19 189.53 344.96 189.68 342.73 Z"/>
  </g>
  <g id="#36bceeff">
    <path fill="#36bcee" d=" M 125.08 231.42 C 127.50 230.49 130.03 229.78 132.62 229.53 C 132.58 231.00 132.19 232.40 131.43 233.71 C 129.88 233.33 128.35 233.55 126.91 234.21 C 126.19 233.35 124.82 232.74 125.08 231.42 Z"/>
  </g>
  <g id="#26c1f4ff">
    <path fill="#26c1f4" d=" M 230.25 238.96 C 235.16 236.21 240.04 233.36 244.30 229.65 C 246.34 232.62 247.20 236.16 248.13 239.59 C 247.31 239.80 245.67 240.22 244.85 240.43 C 242.58 237.68 239.30 238.54 236.59 240.04 C 236.75 240.51 237.08 241.45 237.25 241.91 C 235.53 242.59 233.82 243.29 232.11 243.97 C 231.51 242.29 230.88 240.63 230.25 238.96 Z"/>
  </g>
  <g id="#26c2f4ff">
    <path fill="#26c2f4" d=" M 101.83 231.18 C 106.32 232.39 110.91 233.74 114.77 236.40 C 114.59 237.07 114.23 238.40 114.05 239.07 C 111.92 238.78 109.95 237.96 107.94 237.28 C 106.46 237.48 106.85 239.79 106.10 240.72 C 103.66 240.33 101.04 240.29 98.87 238.95 C 97.91 237.64 99.33 235.96 99.43 234.52 C 99.92 234.73 100.90 235.15 101.39 235.36 C 101.50 234.32 101.72 232.22 101.83 231.18 Z"/>
  </g>
  <g id="#28c1f3ff">
    <path fill="#28c1f3" d=" M 257.69 244.01 C 263.27 241.95 269.04 240.48 274.93 239.66 C 275.40 241.89 275.89 244.12 276.40 246.35 C 275.78 246.59 274.52 247.06 273.89 247.30 C 273.34 246.44 272.80 245.58 272.26 244.73 C 270.40 245.20 268.52 245.63 266.66 246.06 C 266.21 246.82 265.31 248.35 264.86 249.11 C 264.47 248.47 263.70 247.19 263.32 246.54 C 261.65 247.09 259.99 247.67 258.35 248.27 C 258.13 246.85 257.91 245.43 257.69 244.01 Z"/>
    <path fill="#28c1f3" d=" M 203.56 343.54 C 205.09 343.23 206.62 342.92 208.15 342.63 C 208.15 344.67 208.14 346.72 208.16 348.78 C 208.72 348.76 209.84 348.71 210.39 348.69 C 210.40 350.21 210.42 351.73 210.46 353.26 C 209.81 353.39 208.51 353.64 207.86 353.76 C 207.83 355.94 207.79 358.13 207.64 360.32 C 205.99 360.47 204.34 360.63 202.69 360.80 C 203.47 355.07 202.91 349.28 203.56 343.54 Z"/>
  </g>
  <g id="#37a7d4e6">
    <path fill="#37a7d4" opacity="0.90" d=" M 293.44 243.39 C 295.20 242.41 297.17 242.25 299.13 242.54 C 299.33 245.00 299.51 247.45 299.60 249.92 C 299.24 249.58 298.51 248.91 298.14 248.57 C 298.21 246.77 298.30 244.97 298.43 243.17 C 295.23 243.69 292.25 244.92 289.57 246.72 C 287.66 248.07 285.38 246.46 283.39 246.15 C 283.46 246.96 283.59 248.57 283.66 249.37 C 286.67 249.51 289.69 249.66 292.71 249.60 C 289.51 251.13 285.88 249.93 282.50 250.06 C 282.38 247.49 281.69 244.03 285.27 243.84 C 285.76 245.82 287.20 246.70 289.15 246.77 C 289.22 245.95 289.35 244.29 289.42 243.46 C 290.76 243.44 292.10 243.42 293.44 243.39 Z"/>
  </g>
  <g id="#32bef0ff">
    <path fill="#32bef0" d=" M 121.15 247.23 C 123.30 247.27 125.45 247.42 127.60 247.60 C 127.67 248.96 127.72 250.33 127.76 251.70 C 125.93 252.63 123.80 253.20 121.86 252.19 C 120.62 250.83 121.28 248.87 121.15 247.23 Z"/>
  </g>
  <g id="#2ec0f2ff">
    <path fill="#2ec0f2" d=" M 128.89 252.81 C 129.23 250.86 129.66 248.92 130.79 247.26 C 131.99 247.73 133.15 248.28 134.28 248.89 C 134.89 250.22 134.70 251.75 134.91 253.17 C 132.89 253.14 130.89 252.99 128.89 252.81 Z"/>
  </g>
  <g id="#39b4e4f6">
    <path fill="#39b4e4" opacity="0.96" d=" M 282.60 251.32 C 286.09 251.35 289.75 252.10 293.12 250.80 C 295.31 249.86 297.72 250.31 300.03 250.39 C 299.98 253.19 296.64 254.23 297.19 257.21 C 294.03 257.24 290.87 257.31 287.71 257.19 C 287.56 257.60 287.25 258.42 287.09 258.82 C 285.55 258.07 283.15 258.04 282.72 255.99 C 282.60 254.44 282.56 252.88 282.60 251.32 M 283.73 253.03 C 284.05 254.24 284.38 255.46 284.70 256.68 C 288.23 255.24 292.06 255.89 295.75 255.98 C 296.17 254.54 296.60 253.11 297.04 251.69 C 292.64 252.46 288.19 252.89 283.73 253.03 Z"/>
  </g>
  <g id="#34bdefff">
    <path fill="#34bdef" d=" M 263.03 259.32 C 267.68 259.40 272.38 259.36 276.96 260.33 C 276.66 262.26 276.65 264.28 275.86 266.10 C 275.67 270.08 274.66 273.98 273.29 277.72 C 272.71 277.44 271.54 276.90 270.95 276.62 C 272.05 273.44 272.66 270.12 272.94 266.78 C 273.95 265.81 274.96 264.83 275.95 263.85 C 272.31 263.08 268.64 263.94 264.99 263.65 C 262.85 263.56 263.60 260.74 263.03 259.32 Z"/>
  </g>
  <g id="#24c3f5ff">
    <path fill="#24c3f5" d=" M 233.20 260.20 C 237.45 260.56 241.69 260.27 245.94 260.11 C 245.85 261.31 245.68 263.73 245.59 264.93 C 243.88 264.76 242.17 264.57 240.47 264.36 C 240.21 264.97 239.70 266.18 239.44 266.79 C 237.77 266.43 236.19 265.93 235.87 264.09 C 233.87 263.82 232.80 262.35 233.20 260.20 Z"/>
  </g>
  <g id="#21c3f5ff">
    <path fill="#21c3f5" d=" M 169.16 287.88 C 171.45 287.29 173.42 285.97 175.18 284.44 C 176.29 285.52 177.41 286.60 178.53 287.67 C 177.60 289.25 176.68 290.84 175.78 292.43 C 175.27 291.89 174.26 290.79 173.75 290.25 C 170.80 293.27 168.70 297.08 165.15 299.51 C 164.00 298.23 162.83 296.97 161.65 295.71 C 164.02 292.98 166.51 290.35 169.16 287.88 Z"/>
    <path fill="#21c3f5" d=" M 170.59 312.47 C 171.67 313.20 172.74 313.94 173.80 314.71 C 172.59 318.47 171.39 322.23 170.44 326.07 C 171.13 326.32 172.49 326.81 173.18 327.05 C 172.50 328.26 172.18 329.75 171.06 330.65 C 168.77 330.08 166.67 328.96 164.52 328.02 C 166.64 322.87 168.63 317.68 170.59 312.47 Z"/>
  </g>
  <g id="#21c2f4ff">
    <path fill="#21c2f4" d=" M 133.37 298.93 C 138.91 297.47 143.02 293.31 147.90 290.57 C 148.70 291.73 149.50 292.89 150.31 294.06 C 147.65 296.08 144.74 297.78 142.20 299.95 C 142.34 300.49 142.62 301.56 142.75 302.09 C 141.08 303.27 139.40 304.43 137.70 305.57 C 136.08 303.48 134.69 301.22 133.37 298.93 Z"/>
  </g>
  <g id="#25c2f4ff">
    <path fill="#25c2f4" d=" M 208.54 293.21 C 209.96 293.39 212.10 292.50 212.55 294.44 C 214.57 298.96 216.34 303.61 217.72 308.36 C 215.07 308.89 212.50 309.70 209.96 310.60 C 209.75 308.62 208.36 306.10 210.73 304.88 C 209.79 301.03 209.20 297.11 208.54 293.21 Z"/>
    <path fill="#25c2f4" d=" M 204.06 294.45 C 204.84 294.37 206.39 294.20 207.17 294.12 C 207.37 297.81 208.90 301.60 207.77 305.27 C 207.36 307.27 208.21 309.25 208.54 311.22 C 205.21 311.34 201.89 311.17 198.57 311.23 C 198.68 309.59 198.80 307.96 198.93 306.33 C 200.75 306.03 202.56 305.72 204.37 305.36 C 203.20 303.71 201.13 303.77 199.33 303.62 C 199.43 302.57 199.61 300.49 199.70 299.44 C 201.22 299.37 202.75 299.30 204.27 299.20 C 204.21 297.62 204.13 296.03 204.06 294.45 Z"/>
  </g>
  <g id="#26c3f5ff">
    <path fill="#26c3f5" d=" M 235.55 319.12 C 236.36 318.60 237.97 317.55 238.77 317.02 C 239.79 318.69 241.05 320.25 241.77 322.08 C 241.55 323.64 239.82 324.20 238.80 325.17 C 237.72 323.15 236.61 321.15 235.55 319.12 Z"/>
  </g>
</svg>
