<?xml version="1.0" encoding="UTF-8"?>
<svg xmlns="http://www.w3.org/2000/svg" width="400pt" height="400pt" viewBox="0 0 400 400" version="1.1">
  <g id="#6b1f00ff">
    <path fill="#6b1f00" d=" M 198.49 13.13 C 199.16 11.15 198.64 8.62 199.99 6.97 C 201.12 8.32 200.48 10.43 201.04 12.04 C 207.26 39.99 213.58 67.91 219.80 95.85 C 221.22 96.12 222.64 96.38 224.07 96.64 C 241.50 72.94 258.95 49.24 276.43 25.56 C 272.72 54.23 268.93 82.88 265.25 111.55 C 267.26 112.69 269.24 113.88 271.19 115.14 C 295.02 101.76 318.50 87.74 342.21 74.14 C 329.50 97.26 316.06 119.99 303.09 142.98 C 305.50 145.83 307.76 148.80 309.92 151.84 C 333.97 148.66 357.98 145.17 382.05 142.08 C 363.87 157.06 345.79 172.18 327.51 187.03 C 328.87 192.18 330.26 197.34 331.32 202.57 C 351.97 208.22 372.63 213.83 393.25 219.60 C 373.14 226.25 352.89 232.50 332.68 238.84 C 329.06 269.56 313.76 298.47 291.21 319.51 C 295.53 331.85 300.16 344.09 304.57 356.40 C 305.96 360.37 307.64 364.25 309.44 368.06 C 295.22 378.88 279.45 387.79 262.50 393.55 C 261.49 389.93 260.87 386.23 260.12 382.56 C 254.64 355.72 249.35 328.85 243.84 302.02 C 250.96 294.70 258.01 287.33 265.14 280.03 C 266.41 278.85 267.05 277.23 267.49 275.59 C 270.86 263.34 274.36 251.12 277.78 238.88 C 261.22 247.50 244.63 256.08 228.06 264.69 C 209.97 256.14 191.82 247.70 173.73 239.13 C 171.97 238.20 169.98 238.04 168.03 238.08 C 158.76 238.15 149.50 238.10 140.24 238.12 C 140.20 233.28 140.22 228.43 140.18 223.59 C 155.57 223.54 170.95 223.62 186.33 223.54 C 186.27 215.96 186.32 208.37 186.30 200.79 C 164.10 200.79 141.89 200.79 119.69 200.79 C 119.71 215.88 119.64 230.98 119.71 246.08 C 119.55 247.48 120.60 248.54 121.30 249.63 C 134.42 266.69 147.44 283.85 160.54 300.93 C 154.95 328.03 149.50 355.16 143.93 382.27 C 143.18 385.85 142.46 389.45 141.73 393.05 C 131.51 391.56 122.17 386.75 113.42 381.49 C 105.88 376.85 98.63 371.71 91.85 366.01 C 97.33 350.69 102.28 335.18 107.68 319.84 C 85.36 298.85 70.75 269.83 67.59 239.32 C 47.36 232.66 26.93 226.54 6.79 219.64 C 27.44 213.87 48.12 208.23 68.80 202.59 C 69.94 197.54 70.91 192.44 72.63 187.55 C 54.53 172.18 35.94 157.38 17.77 142.08 C 41.78 145.20 65.74 148.66 89.73 151.88 C 92.01 148.68 94.34 145.53 96.89 142.54 C 84.07 119.73 70.66 97.23 58.07 74.30 C 81.33 87.91 104.67 101.41 128.07 114.78 C 130.42 113.72 132.55 112.24 134.79 110.98 C 131.13 82.66 127.48 54.34 123.72 26.04 C 125.40 27.78 126.84 29.73 128.23 31.71 C 144.11 53.27 160.04 74.80 175.91 96.37 C 177.50 96.11 179.10 95.86 180.69 95.60 C 186.62 68.11 192.58 40.62 198.49 13.13 M 197.44 53.39 C 193.87 69.58 190.52 85.82 186.84 101.98 C 182.28 103.07 177.63 103.76 172.98 104.29 C 169.97 101.77 168.13 98.20 165.74 95.15 C 155.55 81.42 145.53 67.57 135.21 53.94 C 135.20 57.90 135.90 61.80 136.46 65.71 C 138.47 81.52 140.53 97.33 142.61 113.12 C 143.34 115.48 140.55 116.14 139.06 117.12 C 135.23 118.90 132.08 122.01 128.03 123.27 C 111.48 114.26 95.45 104.30 78.91 95.26 C 80.22 98.97 82.48 102.21 84.37 105.63 C 91.23 117.75 98.39 129.70 105.16 141.86 C 106.43 143.34 104.65 144.70 103.83 145.84 C 100.07 150.12 96.95 154.90 93.54 159.44 C 90.19 160.15 86.71 158.82 83.34 158.53 C 69.88 156.77 56.46 154.66 42.97 153.18 C 55.28 163.50 67.78 173.60 80.10 183.92 C 81.70 184.91 80.40 186.73 80.18 188.11 C 78.05 194.71 76.56 201.51 75.45 208.35 C 62.69 212.16 49.78 215.41 36.97 219.01 C 36.10 219.49 34.16 219.38 34.22 220.75 C 47.60 225.09 61.03 229.33 74.42 233.68 C 76.75 263.78 90.13 293.12 112.29 313.77 C 113.74 315.45 116.85 317.01 115.59 319.66 C 111.63 331.84 107.14 343.84 103.19 356.02 C 102.32 358.46 101.67 360.98 101.21 363.54 C 112.14 371.31 123.04 379.67 135.88 384.02 C 141.43 356.99 147.11 329.96 152.32 302.87 C 140.67 286.89 128.32 271.36 116.40 255.56 C 114.85 253.18 111.98 251.20 112.22 248.07 C 112.27 229.81 112.18 211.55 112.26 193.29 C 118.44 193.27 124.63 193.52 130.81 193.17 C 130.81 177.03 130.70 160.89 130.86 144.75 C 143.23 144.62 155.60 144.67 167.97 144.72 C 169.30 144.44 171.24 145.27 172.17 144.05 C 172.50 140.01 172.22 135.95 172.22 131.90 C 187.30 131.30 202.43 131.69 217.52 131.69 C 217.64 135.42 217.64 139.15 217.44 142.87 C 218.95 143.08 220.46 143.33 221.99 143.34 C 233.19 143.27 244.40 143.30 255.60 143.32 C 255.59 146.66 255.55 150.01 255.48 153.36 C 266.97 154.12 278.52 153.27 290.02 153.79 C 289.84 173.88 289.95 193.98 289.92 214.07 C 289.87 218.05 290.30 222.12 289.25 226.01 C 284.48 242.68 279.81 259.39 275.12 276.09 C 274.28 278.74 274.04 281.82 271.93 283.85 C 265.31 290.65 258.70 297.44 252.10 304.26 C 257.15 330.66 262.63 356.98 267.96 383.33 C 278.52 379.51 288.20 373.63 297.74 367.80 C 301.09 366.12 297.79 362.18 297.66 359.56 C 293.05 345.59 287.20 332.02 282.92 317.95 C 284.44 315.26 287.08 313.43 289.17 311.19 C 308.55 291.50 322.22 265.62 325.11 237.96 C 325.45 236.02 325.11 233.08 327.68 232.65 C 340.52 228.64 353.35 224.62 366.13 220.45 C 363.57 218.81 360.52 218.35 357.66 217.49 C 346.88 214.47 336.00 211.79 325.31 208.50 C 323.86 206.27 323.89 203.44 323.29 200.92 C 322.52 195.77 320.64 190.91 319.27 185.92 C 318.62 184.58 320.13 183.66 320.90 182.86 C 329.89 175.54 338.82 168.15 347.72 160.72 C 350.59 158.29 353.76 156.17 356.13 153.20 C 339.49 155.17 322.91 157.75 306.28 159.81 C 303.32 155.45 300.30 151.12 296.77 147.20 C 295.63 145.75 293.47 143.93 295.02 141.98 C 303.94 126.32 312.95 110.71 321.83 95.02 C 319.83 95.93 317.85 96.87 315.95 97.97 C 301.65 106.33 287.26 114.56 272.97 122.95 C 271.33 124.39 269.46 122.76 267.96 121.97 C 264.53 119.69 260.80 117.89 257.45 115.52 C 257.19 111.96 258.36 108.45 258.62 104.90 C 260.50 87.93 263.44 71.08 264.95 54.08 C 258.41 61.92 252.89 70.55 246.57 78.57 C 241.23 86.16 235.52 93.48 230.12 101.03 C 229.13 102.29 228.21 103.69 226.83 104.57 C 222.40 104.13 218.06 103.08 213.66 102.41 C 209.24 82.58 204.61 62.80 200.38 42.93 C 198.51 46.11 198.30 49.88 197.44 53.39 M 178.51 137.82 C 178.50 155.63 178.52 173.44 178.49 191.25 C 184.92 191.24 191.35 191.24 197.77 191.25 C 197.74 202.11 197.77 212.98 197.75 223.85 C 202.30 223.83 206.86 223.81 211.41 223.87 C 211.37 195.19 211.54 166.50 211.32 137.81 C 200.38 137.84 189.44 137.83 178.51 137.82 M 219.21 149.63 C 219.30 174.37 219.23 199.11 219.24 223.84 C 229.25 223.84 239.25 223.81 249.26 223.86 C 249.27 199.10 249.24 174.35 249.27 149.59 C 239.25 149.63 229.23 149.57 219.21 149.63 M 137.15 150.86 C 137.09 164.16 137.14 177.46 137.13 190.77 C 148.57 190.80 160.01 190.86 171.45 190.89 C 171.48 177.55 171.47 164.21 171.46 150.87 C 160.02 150.87 148.59 150.89 137.15 150.86 M 257.21 159.93 C 257.17 181.24 257.20 202.54 257.19 223.85 C 266.05 223.82 274.91 223.84 283.77 223.84 C 283.74 202.53 283.79 181.22 283.74 159.91 C 274.90 159.88 266.05 159.85 257.21 159.93 Z"/>
  </g>
  <g id="#8d1a00ff">
    <path fill="#8d1a00" d=" M 197.44 53.39 C 198.30 49.88 198.51 46.11 200.38 42.93 C 204.61 62.80 209.24 82.58 213.66 102.41 C 218.06 103.08 222.40 104.13 226.83 104.57 C 228.21 103.69 229.13 102.29 230.12 101.03 C 235.52 93.48 241.23 86.16 246.57 78.57 C 252.89 70.55 258.41 61.92 264.95 54.08 C 263.44 71.08 260.50 87.93 258.62 104.90 C 258.36 108.45 257.19 111.96 257.45 115.52 C 260.80 117.89 264.53 119.69 267.96 121.97 C 269.46 122.76 271.33 124.39 272.97 122.95 C 287.26 114.56 301.65 106.33 315.95 97.97 C 317.85 96.87 319.83 95.93 321.83 95.02 C 312.95 110.71 303.94 126.32 295.02 141.98 C 293.47 143.93 295.63 145.75 296.77 147.20 C 300.30 151.12 303.32 155.45 306.28 159.81 C 322.91 157.75 339.49 155.17 356.13 153.20 C 353.76 156.17 350.59 158.29 347.72 160.72 C 338.82 168.15 329.89 175.54 320.90 182.86 C 320.13 183.66 318.62 184.58 319.27 185.92 C 320.64 190.91 322.52 195.77 323.29 200.92 C 323.89 203.44 323.86 206.27 325.31 208.50 C 336.00 211.79 346.88 214.47 357.66 217.49 C 360.52 218.35 363.57 218.81 366.13 220.45 C 353.35 224.62 340.52 228.64 327.68 232.65 C 325.11 233.08 325.45 236.02 325.11 237.96 C 322.22 265.62 308.55 291.50 289.17 311.19 C 287.08 313.43 284.44 315.26 282.92 317.95 C 287.20 332.02 293.05 345.59 297.66 359.56 C 290.23 365.53 282.08 370.63 273.17 374.06 C 268.38 351.79 263.86 329.47 259.21 307.18 C 265.43 300.74 271.58 294.23 277.93 287.92 C 280.79 285.06 281.11 280.81 282.23 277.13 C 286.28 262.48 290.23 247.79 294.34 233.15 C 295.18 230.15 295.45 227.03 295.41 223.93 C 295.22 205.31 295.39 186.69 295.27 168.08 C 295.16 161.16 295.58 154.23 294.98 147.33 C 283.57 147.29 272.16 147.46 260.76 147.26 C 260.65 143.89 260.61 140.53 260.60 137.16 C 248.85 136.63 237.08 137.49 225.32 136.83 C 225.36 133.14 225.33 129.45 225.25 125.76 C 205.06 125.57 184.86 125.46 164.66 125.59 C 164.26 129.74 165.30 134.23 164.02 138.18 C 150.45 138.67 136.84 138.27 123.26 138.33 C 122.99 154.54 123.32 170.75 123.10 186.96 C 116.85 187.13 110.59 186.80 104.35 187.24 C 104.45 208.18 104.35 229.13 104.39 250.07 C 104.12 252.93 106.47 254.88 108.03 256.95 C 119.89 271.78 131.69 286.66 143.53 301.50 C 145.08 303.01 144.71 305.19 144.28 307.09 C 140.31 324.32 136.66 341.62 132.78 358.87 C 131.61 363.75 130.90 368.75 129.24 373.51 C 120.09 368.45 111.25 362.70 103.19 356.02 C 107.14 343.84 111.63 331.84 115.59 319.66 C 116.85 317.01 113.74 315.45 112.29 313.77 C 90.13 293.12 76.75 263.78 74.42 233.68 C 61.03 229.33 47.60 225.09 34.22 220.75 C 34.16 219.38 36.10 219.49 36.97 219.01 C 49.78 215.41 62.69 212.16 75.45 208.35 C 76.56 201.51 78.05 194.71 80.18 188.11 C 80.40 186.73 81.70 184.91 80.10 183.92 C 67.78 173.60 55.28 163.50 42.97 153.18 C 56.46 154.66 69.88 156.77 83.34 158.53 C 86.71 158.82 90.19 160.15 93.54 159.44 C 96.95 154.90 100.07 150.12 103.83 145.84 C 104.65 144.70 106.43 143.34 105.16 141.86 C 98.39 129.70 91.23 117.75 84.37 105.63 C 82.48 102.21 80.22 98.97 78.91 95.26 C 95.45 104.30 111.48 114.26 128.03 123.27 C 132.08 122.01 135.23 118.90 139.06 117.12 C 140.55 116.14 143.34 115.48 142.61 113.12 C 140.53 97.33 138.47 81.52 136.46 65.71 C 135.90 61.80 135.20 57.90 135.21 53.94 C 145.53 67.57 155.55 81.42 165.74 95.15 C 168.13 98.20 169.97 101.77 172.98 104.29 C 177.63 103.76 182.28 103.07 186.84 101.98 C 190.52 85.82 193.87 69.58 197.44 53.39 Z"/>
  </g>
  <g id="#b44a04ff">
    <path fill="#b44a04" d=" M 164.66 125.59 C 184.86 125.46 205.06 125.57 225.25 125.76 C 225.33 129.45 225.36 133.14 225.32 136.83 C 237.08 137.49 248.85 136.63 260.60 137.16 C 260.61 140.53 260.65 143.89 260.76 147.26 C 272.16 147.46 283.57 147.29 294.98 147.33 C 295.58 154.23 295.16 161.16 295.27 168.08 C 295.39 186.69 295.22 205.31 295.41 223.93 C 295.45 227.03 295.18 230.15 294.34 233.15 C 290.23 247.79 286.28 262.48 282.23 277.13 C 281.11 280.81 280.79 285.06 277.93 287.92 C 271.58 294.23 265.43 300.74 259.21 307.18 C 263.86 329.47 268.38 351.79 273.17 374.06 C 282.08 370.63 290.23 365.53 297.66 359.56 C 297.79 362.18 301.09 366.12 297.74 367.80 C 288.20 373.63 278.52 379.51 267.96 383.33 C 262.63 356.98 257.15 330.66 252.10 304.26 C 258.70 297.44 265.31 290.65 271.93 283.85 C 274.04 281.82 274.28 278.74 275.12 276.09 C 279.81 259.39 284.48 242.68 289.25 226.01 C 290.30 222.12 289.87 218.05 289.92 214.07 C 289.95 193.98 289.84 173.88 290.02 153.79 C 278.52 153.27 266.97 154.12 255.48 153.36 C 255.55 150.01 255.59 146.66 255.60 143.32 C 244.40 143.30 233.19 143.27 221.99 143.34 C 220.46 143.33 218.95 143.08 217.44 142.87 C 217.64 139.15 217.64 135.42 217.52 131.69 C 202.43 131.69 187.30 131.30 172.22 131.90 C 172.22 135.95 172.50 140.01 172.17 144.05 C 171.24 145.27 169.30 144.44 167.97 144.72 C 155.60 144.67 143.23 144.62 130.86 144.75 C 130.70 160.89 130.81 177.03 130.81 193.17 C 124.63 193.52 118.44 193.27 112.26 193.29 C 112.18 211.55 112.27 229.81 112.22 248.07 C 111.98 251.20 114.85 253.18 116.40 255.56 C 128.32 271.36 140.67 286.89 152.32 302.87 C 147.11 329.96 141.43 356.99 135.88 384.02 C 123.04 379.67 112.14 371.31 101.21 363.54 C 101.67 360.98 102.32 358.46 103.19 356.02 C 111.25 362.70 120.09 368.45 129.24 373.51 C 130.90 368.75 131.61 363.75 132.78 358.87 C 136.66 341.62 140.31 324.32 144.28 307.09 C 144.71 305.19 145.08 303.01 143.53 301.50 C 131.69 286.66 119.89 271.78 108.03 256.95 C 106.47 254.88 104.12 252.93 104.39 250.07 C 104.35 229.13 104.45 208.18 104.35 187.24 C 110.59 186.80 116.85 187.13 123.10 186.96 C 123.32 170.75 122.99 154.54 123.26 138.33 C 136.84 138.27 150.45 138.67 164.02 138.18 C 165.30 134.23 164.26 129.74 164.66 125.59 Z"/>
  </g>
  <g id="#f2f2ebff">
    <path fill="#f2f2eb" d=" M 178.51 137.82 C 189.44 137.83 200.38 137.84 211.32 137.81 C 211.54 166.50 211.37 195.19 211.41 223.87 C 206.86 223.81 202.30 223.83 197.75 223.85 C 197.77 212.98 197.74 202.11 197.77 191.25 C 191.35 191.24 184.92 191.24 178.49 191.25 C 178.52 173.44 178.50 155.63 178.51 137.82 Z"/>
    <path fill="#f2f2eb" d=" M 219.21 149.63 C 229.23 149.57 239.25 149.63 249.27 149.59 C 249.24 174.35 249.27 199.10 249.26 223.86 C 239.25 223.81 229.25 223.84 219.24 223.84 C 219.23 199.11 219.30 174.37 219.21 149.63 Z"/>
    <path fill="#f2f2eb" d=" M 137.15 150.86 C 148.59 150.89 160.02 150.87 171.46 150.87 C 171.47 164.21 171.48 177.55 171.45 190.89 C 160.01 190.86 148.57 190.80 137.13 190.77 C 137.14 177.46 137.09 164.16 137.15 150.86 Z"/>
    <path fill="#f2f2eb" d=" M 257.21 159.93 C 266.05 159.85 274.90 159.88 283.74 159.91 C 283.79 181.22 283.74 202.53 283.77 223.84 C 274.91 223.84 266.05 223.82 257.19 223.85 C 257.20 202.54 257.17 181.24 257.21 159.93 Z"/>
    <path fill="#f2f2eb" d=" M 119.69 200.79 C 141.89 200.79 164.10 200.79 186.30 200.79 C 186.32 208.37 186.27 215.96 186.33 223.54 C 170.95 223.62 155.57 223.54 140.18 223.59 C 140.22 228.43 140.20 233.28 140.24 238.12 C 149.50 238.10 158.76 238.15 168.03 238.08 C 169.98 238.04 171.97 238.20 173.73 239.13 C 191.82 247.70 209.97 256.14 228.06 264.69 C 244.63 256.08 261.22 247.50 277.78 238.88 C 274.36 251.12 270.86 263.34 267.49 275.59 C 267.05 277.23 266.41 278.85 265.14 280.03 C 258.01 287.33 250.96 294.70 243.84 302.02 C 249.35 328.85 254.64 355.72 260.12 382.56 C 240.39 387.32 220.67 392.19 200.90 396.78 C 181.84 392.32 162.93 387.06 143.93 382.27 C 149.50 355.16 154.95 328.03 160.54 300.93 C 147.44 283.85 134.42 266.69 121.30 249.63 C 120.60 248.54 119.55 247.48 119.71 246.08 C 119.64 230.98 119.71 215.88 119.69 200.79 Z"/>
  </g>
</svg>
