<?xml version="1.0" encoding="UTF-8"?>
<svg xmlns="http://www.w3.org/2000/svg" width="400pt" height="400pt" viewBox="0 0 400 400" version="1.1">
  <g id="#00a6e1ff">
    <path d="m 214.91,35.72 c 5.57,-11.95 14.67,-22.76 27.07,-27.9 -4.04,12.3 -5.17,25.44 -3.27,38.25 -6.92,-5.44 -15.12,-8.92 -23.8,-10.35 m 5.56,-2.71 c 4.77,1.32 9.43,3.05 13.78,5.44 -0.23,-7.73 0.02,-15.49 1.68,-23.06 -6.51,4.53 -11.53,10.8 -15.46,17.62 z" id="path2" style="fill:#00a6e1"/>
    <path d="m 158.27,7.78 c 12.38,5.2 21.53,15.98 27.09,27.96 -8.7,1.4 -16.91,4.89 -23.84,10.36 1.93,-12.82 0.83,-26.01 -3.25,-38.32 m 6.04,7.62 c 1.66,7.56 2.02,15.32 1.77,23.04 4.31,-2.43 8.98,-4.11 13.75,-5.38 -3.97,-6.82 -8.94,-13.18 -15.52,-17.66 z" id="path4" style="fill:#00a6e1"/>
    <path d="m 77.77,17.8 c 1.81,-2.14 3.85,-4.05 6.02,-5.8 5.6,12.53 13.79,23.92 24.22,32.88 5.15,4.74 11.66,7.6 18.04,10.26 7.57,3.11 15.94,2.12 23.89,1.71 -9.96,12.08 -16.53,26.59 -20.97,41.5 C 122.58,84.5 110.58,72.51 95.73,68.19 84.87,66.04 72.82,67.11 63.38,73.28 46.81,84.09 35.8,101.19 26.94,118.48 c 0.3,-5.85 1.76,-11.54 3.29,-17.16 3.35,-11.9 7.89,-23.46 13.4,-34.51 C 53.08,49.23 64.78,32.92 77.77,17.8 M 47.49,67.55 c -4.57,8.91 -8.4,18.2 -11.5,27.72 4.66,-5.43 8.69,-11.46 14.07,-16.24 3.9,-3.46 7.9,-6.87 12.37,-9.59 9.64,-5.9 21.55,-6.95 32.53,-5.26 12.56,2.66 23.09,11.28 30.69,21.33 0.76,0.95 1.57,1.91 2.63,2.54 3.74,-9.42 8.05,-18.64 13.72,-27.08 -5.67,0.04 -11.52,0.02 -16.85,-2.18 C 117.93,55.88 110.63,52.57 104.91,47.15 95.58,39.07 88.24,28.98 82.4,18.16 69.17,33.41 57.14,49.79 47.49,67.55 Z" id="path6" style="fill:#00a6e1"/>
    <path d="m 297.67,39.82 c 8.02,-8.01 14.14,-17.7 18.97,-27.9 5.45,4.72 9.72,10.57 14.31,16.08 9.66,12.34 18.55,25.33 25.9,39.18 6.55,13.31 11.83,27.31 15.13,41.79 0.73,2.99 1.02,6.06 1.07,9.14 -8.65,-17.27 -19.8,-34.15 -36.24,-44.89 -7.57,-5.05 -16.93,-6.43 -25.85,-5.93 -8.52,0.26 -16.43,4.36 -22.92,9.65 -7.07,5.83 -13.12,13.08 -16.82,21.52 -4.19,-15.02 -10.97,-29.52 -20.91,-41.61 4.88,0.35 9.78,0.58 14.67,0.36 6.73,-0.35 12.83,-3.47 18.72,-6.46 5.4,-2.56 9.73,-6.81 13.97,-10.93 m -6.8,11 c -4.75,3.31 -10.09,5.69 -15.43,7.86 -5.41,2.24 -11.34,2.37 -17.1,2.43 5.73,8.57 10.27,17.89 13.78,27.57 8.07,-11.27 19.14,-21.48 33.06,-24.47 10.47,-1.64 21.78,-0.82 31.2,4.39 11.31,6.41 20.02,16.3 27.74,26.56 C 355.4,66.07 337.39,40.88 317.8,18.1 311.25,30.72 302.26,42.22 290.87,50.82 Z" id="path8" style="fill:#00a6e1"/>
    <path d="m 191.4,55.79 c 11.57,-2.49 23.92,0.45 33.59,7.14 12.47,8.54 21.04,21.78 26.16,35.82 7.47,20.77 8.14,43.87 2.31,65.13 -4.13,14.79 -11.69,29 -23.4,39.16 -8.5,7.45 -19.64,12.25 -31.07,11.85 -13.68,-0.1 -26.34,-7.6 -35.17,-17.7 -12.89,-14.66 -19.39,-34.04 -20.99,-53.28 -1.7,-22.15 2.83,-45.28 15.31,-63.9 7.77,-11.59 19.34,-21.34 33.26,-24.22 m 0.04,3.82 c -12.95,2.94 -23.49,12.3 -30.64,23.15 -11.51,17.57 -15.72,39.18 -14.31,59.94 1.27,17.07 6.49,34.18 16.83,47.99 7.1,9.42 17.03,17.3 28.79,19.7 10.83,2.43 22.39,-0.57 31.34,-6.94 12.01,-8.44 20,-21.52 24.75,-35.21 7.05,-20.84 7.2,-43.95 0.56,-64.92 -4.57,-14.08 -12.52,-27.57 -24.62,-36.43 -9.25,-6.83 -21.4,-10 -32.7,-7.28 z" id="path10" style="fill:#00a6e1"/>
    <path d="m 100.41,134.47 c 9.79,-5.48 19.57,-12 25.6,-21.71 -1.62,12.54 -3.07,25.26 -1.13,37.85 -6.2,-1.92 -13.09,-1.39 -18.77,1.81 -14.39,7.71 -24.34,21.96 -29.62,37.13 -3.43,9.79 -5,20.13 -5.84,30.44 -0.87,12.4 0.69,24.79 1.95,37.11 -8.01,-19.74 -13.01,-40.56 -16.32,-61.58 -1.95,-14.76 -4.83,-29.55 -4.04,-44.5 16.67,-3.4 33.26,-8.19 48.17,-16.55 m -44.68,19.59 c 0.05,14.82 2.67,29.45 4.75,44.09 1.67,9.45 3.45,18.91 5.99,28.18 0.56,-8.09 1.17,-16.2 2.78,-24.16 3.09,-16.47 10.46,-32.49 22.73,-44.13 7.64,-7.25 17.58,-13.32 28.54,-12.28 -0.49,-6.94 -0.29,-13.9 0.31,-20.82 -18.35,15.75 -41.66,24.42 -65.1,29.12 z" id="path12" style="fill:#00a6e1"/>
    <path d="m 274.25,112.64 c 5.67,9.3 14.89,15.63 24.14,20.98 15.34,8.86 32.52,13.91 49.79,17.43 0.68,15.44 -2.32,30.7 -4.33,45.95 -3.31,19.74 -7.79,39.42 -15.37,58.01 -0.27,0.76 -0.78,1.41 -1.44,1.86 0.24,-0.71 0.74,-2.12 0.98,-2.83 2.92,-21.78 2.96,-44.51 -4.5,-65.45 -5.34,-14.72 -15.11,-28.5 -29.1,-36.07 -5.72,-3.25 -12.7,-3.88 -18.97,-1.92 1.9,-12.62 0.57,-25.4 -1.2,-37.96 m 5.24,12.31 c 0.59,6.9 0.99,13.84 0.24,20.75 14.42,-1.09 26.55,8.91 35.11,19.45 13.82,17.12 18.05,39.64 18.99,61.08 2.74,-9.56 4.49,-19.38 6.21,-29.16 1.96,-14.27 4.57,-28.53 4.55,-42.99 -23.43,-4.77 -46.74,-13.39 -65.1,-29.13 z" id="path14" style="fill:#00a6e1"/>
    <path d="m 195.42,116.67 c 12.7,-1.61 25.23,3.34 35.72,10.13 6.41,4.46 12.83,9.8 15.87,17.2 2.18,5.71 -2.04,11.27 -5.49,15.47 -12.64,13.45 -32.01,20.82 -50.38,17.89 -13.04,-1.99 -24.44,-9.76 -33.42,-19.11 -3.53,-3.66 -6.35,-9 -4.47,-14.14 2.14,-5.62 6.63,-9.95 11.1,-13.78 8.94,-7.1 19.68,-12.24 31.07,-13.66" id="path16" style="fill:#00a6e1"/>
    <path d="m 128.86,172.7 c 4.05,14.05 9.24,28.16 18.24,39.86 -2.29,0.57 -5.07,0.79 -6.45,3 -3.9,5.29 -3.22,12.21 -2.95,18.39 1.5,20.83 4.62,41.5 7.93,62.11 2.14,12.61 4.51,25.23 8.55,37.39 5.97,18.46 12.08,36.88 18.93,55.03 -9.69,-11.08 -16.98,-24.02 -23.54,-37.12 -14.8,-28.47 -26.49,-58.42 -37.39,-88.57 -5.25,-14.89 -10.98,-29.67 -14.95,-44.98 10.26,-7.68 21.54,-15.36 27.36,-27.18 2.65,-5.62 3.67,-11.81 4.27,-17.93 m -27.5,46.9 c 8.1,25.59 17.38,50.8 27.11,75.82 8.93,22.47 18.89,44.56 30.48,65.79 -2.37,-10.08 -6.43,-19.67 -9.29,-29.61 -5.05,-16.5 -7.56,-33.64 -10.2,-50.65 -2.47,-17.56 -5.15,-35.15 -5.72,-52.89 -0.37,-6.63 1.7,-13.56 6.96,-17.91 -4.43,-6.91 -7.89,-14.38 -10.82,-22.03 -5.11,13.81 -17.24,22.89 -28.52,31.48 z" id="path18" style="fill:#00a6e1"/>
    <path d="m 253.31,212.57 c 8.92,-11.81 14.47,-25.9 18.12,-40.15 0.89,8.25 2.55,16.77 7.52,23.62 6.47,8.87 15.5,15.34 24.24,21.79 -2.06,8.33 -4.93,16.44 -7.7,24.55 -14.74,42.03 -30.31,84.03 -52.1,123 -4.83,8.18 -10,16.22 -16.24,23.42 7.58,-20 14.3,-40.32 20.75,-60.7 5.03,-17.7 7.57,-35.97 10.27,-54.13 1.99,-14.63 4.12,-29.28 4.68,-44.05 0.2,-5.21 -0.03,-11.08 -3.79,-15.11 -1.45,-1.64 -3.81,-1.65 -5.75,-2.24 m 17.2,-24.5 c -2.88,7.67 -6.35,15.14 -10.79,22.03 4.54,3.95 7.01,9.82 6.9,15.82 0,14.03 -2.05,27.97 -3.82,41.87 -3.5,24.06 -6.51,48.43 -14.52,71.51 -2.29,7.41 -5.08,14.67 -7.2,22.13 5.44,-8.93 9.77,-18.49 14.42,-27.84 13.87,-29.62 25.2,-60.35 36.01,-91.19 2.62,-7.64 5.32,-15.25 7.44,-23.04 -11.42,-8.32 -23.31,-17.6 -28.44,-31.29 z" id="path20" style="fill:#00a6e1"/>
  </g>
  <g id="#103287fe">
    <path fill="#103287" d=" M 164.31 15.40 C 170.89 19.88 175.86 26.24 179.83 33.06 C 175.06 34.33 170.39 36.01 166.08 38.44 C 166.33 30.72 165.97 22.96 164.31 15.40 M 168.17 21.67 C 168.41 25.79 168.61 29.90 168.68 34.03 C 171.12 33.15 173.56 32.28 176.01 31.41 C 173.60 28.00 170.99 24.74 168.17 21.67 Z" id="path23"/>
    <path fill="#103287" d=" M 220.47 33.01 C 224.40 26.19 229.42 19.92 235.93 15.39 C 234.27 22.96 234.02 30.72 234.25 38.45 C 229.90 36.06 225.24 34.33 220.47 33.01 M 224.28 31.40 C 226.71 32.29 229.15 33.18 231.58 34.08 C 231.66 29.97 231.83 25.87 232.07 21.77 C 229.21 24.75 226.65 28.01 224.28 31.40 Z" id="path25"/>
    <path fill="#103287" d=" M 47.49 67.55 C 57.14 49.79 69.17 33.41 82.40 18.16 C 88.24 28.98 95.58 39.07 104.91 47.15 C 110.63 52.57 117.93 55.88 125.15 58.79 C 130.48 60.99 136.33 61.01 142.00 60.97 C 136.33 69.41 132.02 78.63 128.28 88.05 C 127.22 87.42 126.41 86.46 125.65 85.51 C 118.05 75.46 107.52 66.84 94.96 64.18 C 83.98 62.49 72.07 63.54 62.43 69.44 C 57.96 72.16 53.96 75.57 50.06 79.03 C 44.68 83.81 40.65 89.84 35.99 95.27 C 39.09 85.75 42.92 76.46 47.49 67.55 M 52.58 63.60 C 49.24 69.22 46.45 75.15 43.93 81.17 C 49.97 75.79 55.86 70.04 63.04 66.18 C 72.72 60.97 84.18 60.10 94.90 61.59 C 108.14 64.09 119.13 73.12 127.36 83.39 C 130.25 76.62 133.49 70.00 137.19 63.63 C 127.04 63.48 117.73 58.84 109.20 53.78 C 97.89 45.67 88.86 34.67 82.01 22.62 C 70.95 35.33 61.11 49.09 52.58 63.60 Z" id="path27"/>
    <path fill="#103287" d=" M 290.87 50.82 C 302.26 42.22 311.25 30.72 317.80 18.10 C 337.39 40.88 355.40 66.07 364.12 95.16 C 356.40 84.90 347.69 75.01 336.38 68.60 C 326.96 63.39 315.65 62.57 305.18 64.21 C 291.26 67.20 280.19 77.41 272.12 88.68 C 268.61 79.00 264.07 69.68 258.34 61.11 C 264.10 61.05 270.03 60.92 275.44 58.68 C 280.78 56.51 286.12 54.13 290.87 50.82 M 318.26 22.61 C 314.18 29.79 309.43 36.61 303.72 42.58 C 298.41 48.09 292.76 53.53 285.74 56.80 C 278.69 60.52 271.11 63.58 263.01 63.63 C 266.82 69.81 269.81 76.41 272.76 83.03 C 275.89 80.41 278.26 77.02 281.35 74.37 C 288.99 67.46 298.47 61.91 308.93 61.16 C 317.46 60.53 326.29 61.23 334.20 64.70 C 342.65 68.41 349.44 74.87 356.13 81.06 C 352.87 72.18 348.10 63.96 343.07 55.99 C 335.63 44.27 327.40 33.06 318.26 22.61 Z" id="path29"/>
    <path fill="#103287" d=" M 191.44 59.61 C 202.74 56.89 214.89 60.06 224.14 66.89 C 236.24 75.75 244.19 89.24 248.76 103.32 C 255.40 124.29 255.25 147.40 248.20 168.24 C 243.45 181.93 235.46 195.01 223.45 203.45 C 214.50 209.82 202.94 212.82 192.11 210.39 C 180.35 207.99 170.42 200.11 163.32 190.69 C 152.98 176.88 147.76 159.77 146.49 142.70 C 145.08 121.94 149.29 100.33 160.80 82.76 C 167.95 71.91 178.49 62.55 191.44 59.61 M 166.33 81.46 C 153.64 98.40 149.12 120.20 150.00 141.03 C 154.57 134.04 160.38 127.83 167.48 123.38 C 180.40 114.84 196.75 109.98 212.07 114.11 C 227.10 118.22 241.37 127.04 249.82 140.39 C 250.72 117.07 244.67 92.18 227.97 75.10 C 219.96 66.99 208.68 61.47 197.08 62.55 C 184.53 63.55 173.66 71.62 166.33 81.46 M 195.42 116.67 C 184.03 118.09 173.29 123.23 164.35 130.33 C 159.88 134.16 155.39 138.49 153.25 144.11 C 151.37 149.25 154.19 154.59 157.72 158.25 C 166.70 167.60 178.10 175.37 191.14 177.36 C 209.51 180.29 228.88 172.92 241.52 159.47 C 244.97 155.27 249.19 149.71 247.01 144.00 C 243.97 136.60 237.55 131.26 231.14 126.80 C 220.65 120.01 208.12 115.06 195.42 116.67 M 152.72 158.56 C 155.42 170.00 160.35 181.02 167.74 190.21 C 174.75 198.97 184.73 205.96 196.09 207.23 C 206.97 208.60 217.86 204.01 225.83 196.77 C 236.78 186.86 243.54 173.07 247.06 158.89 C 233.15 175.67 210.13 185.09 188.51 180.71 C 174.33 177.98 162.36 168.93 152.72 158.56 Z" id="path31"/>
    <path fill="#103287" d=" M 55.73 154.06 C 79.17 149.36 102.48 140.69 120.83 124.94 C 120.23 131.86 120.03 138.82 120.52 145.76 C 109.56 144.72 99.62 150.79 91.98 158.04 C 79.71 169.68 72.34 185.70 69.25 202.17 C 67.64 210.13 67.03 218.24 66.47 226.33 C 63.93 217.06 62.15 207.60 60.48 198.15 C 58.40 183.51 55.78 168.88 55.73 154.06 M 58.18 156.20 C 59.16 174.30 61.80 192.29 65.33 210.05 C 67.64 192.73 73.37 175.37 84.88 161.92 C 93.15 152.15 104.42 143.46 117.72 143.01 C 117.64 138.92 117.66 134.83 117.82 130.74 C 100.36 143.94 79.42 151.61 58.18 156.20 Z" id="path33"/>
    <path fill="#103287" d=" M 279.49 124.95 C 297.85 140.69 321.16 149.31 344.59 154.08 C 344.61 168.54 342.00 182.80 340.04 197.07 C 338.32 206.85 336.57 216.67 333.83 226.23 C 332.89 204.79 328.66 182.27 314.84 165.15 C 306.28 154.61 294.15 144.61 279.73 145.70 C 280.48 138.79 280.08 131.85 279.49 124.95 M 282.57 130.88 C 282.61 134.91 282.62 138.95 282.61 142.99 C 295.83 143.47 307.06 152.06 315.33 161.74 C 326.91 175.22 332.70 192.66 335.00 210.05 C 337.32 200.15 338.42 190.03 339.94 179.99 C 341.13 172.10 341.74 164.13 342.11 156.16 C 320.90 151.67 300.10 143.86 282.57 130.88 Z" id="path35"/>
    <path fill="#103287" d=" M 101.36 219.60 C 112.64 211.01 124.77 201.93 129.88 188.12 C 132.81 195.77 136.27 203.24 140.70 210.15 C 135.44 214.50 133.37 221.43 133.74 228.06 C 134.31 245.80 136.99 263.39 139.46 280.95 C 142.10 297.96 144.61 315.10 149.66 331.60 C 152.52 341.54 156.58 351.13 158.95 361.21 C 147.36 339.98 137.40 317.89 128.47 295.42 C 118.74 270.40 109.46 245.19 101.36 219.60 M 129.70 194.80 C 123.70 205.54 113.84 213.23 104.27 220.62 C 110.29 239.29 116.94 257.76 123.78 276.15 C 130.77 294.78 138.12 313.31 146.76 331.24 C 142.13 314.48 139.32 297.31 136.78 280.13 C 134.38 262.82 131.73 245.48 131.20 227.99 C 130.90 221.37 132.84 214.67 137.26 209.65 C 134.56 204.79 132.05 199.83 129.70 194.80 Z" id="path37"/>
    <path fill="#103287" d=" M 270.51 188.07 C 275.64 201.76 287.53 211.04 298.95 219.36 C 296.83 227.15 294.13 234.76 291.51 242.40 C 280.70 273.24 269.37 303.97 255.50 333.59 C 250.85 342.94 246.52 352.50 241.08 361.43 C 243.20 353.97 245.99 346.71 248.28 339.30 C 256.29 316.22 259.30 291.85 262.80 267.79 C 264.57 253.89 266.62 239.95 266.62 225.92 C 266.73 219.92 264.26 214.05 259.72 210.10 C 264.16 203.21 267.63 195.74 270.51 188.07 M 270.60 194.74 C 268.39 199.84 265.85 204.78 263.11 209.61 C 267.00 214.19 269.26 220.01 269.18 226.05 C 269.19 237.30 267.75 248.49 266.43 259.65 C 263.13 283.96 260.04 308.42 253.35 332.09 C 262.93 311.76 271.26 290.87 278.98 269.78 C 284.92 253.41 291.05 237.08 296.03 220.38 C 286.29 213.26 276.70 205.35 270.60 194.74 Z" id="path39"/>
  </g>
  <ellipse style="fill:#000000;stroke-width:11.01063347;stroke-miterlimit:100;stroke-dasharray:none" id="path193" cx="200.05222" cy="-145.70978" rx="14.672362" ry="14.883475" transform="scale(1,-1)"/>
  <g id="#070400ff">
    <path d="m 168.17,21.67 c 2.82,3.07 5.43,6.33 7.84,9.74 -2.45,0.87 -4.89,1.74 -7.33,2.62 -0.07,-4.13 -0.27,-8.24 -0.51,-12.36 z" id="path42" style="fill:#070400"/>
    <path d="m 224.28,31.4 c 2.37,-3.39 4.93,-6.65 7.79,-9.63 -0.24,4.1 -0.41,8.2 -0.49,12.31 -2.43,-0.9 -4.87,-1.79 -7.3,-2.68 z" id="path44" style="fill:#070400"/>
    <path d="m 52.58,63.6 c 8.53,-14.51 18.37,-28.27 29.43,-40.98 6.85,12.05 15.88,23.05 27.19,31.16 8.53,5.06 17.84,9.7 27.99,9.85 -3.7,6.37 -6.94,12.99 -9.83,19.76 C 119.13,73.12 108.14,64.09 94.9,61.59 84.18,60.1 72.72,60.97 63.04,66.18 55.86,70.04 49.97,75.79 43.93,81.17 46.45,75.15 49.24,69.22 52.58,63.6 Z" id="path46" style="fill:#070400"/>
    <path d="m 318.26,22.61 c 9.14,10.45 17.37,21.66 24.81,33.38 5.03,7.97 9.8,16.19 13.06,25.07 -6.69,-6.19 -13.48,-12.65 -21.93,-16.36 -7.91,-3.47 -16.74,-4.17 -25.27,-3.54 -10.46,0.75 -19.94,6.3 -27.58,13.21 -3.09,2.65 -5.46,6.04 -8.59,8.66 -2.95,-6.62 -5.94,-13.22 -9.75,-19.4 8.1,-0.05 15.68,-3.11 22.73,-6.83 7.02,-3.27 12.67,-8.71 17.98,-14.22 5.71,-5.97 10.46,-12.79 14.54,-19.97 z" id="path48" style="fill:#070400"/>
    <path d="m 166.33,81.46 c 7.33,-9.84 18.2,-17.91 30.75,-18.91 11.6,-1.08 22.88,4.44 30.89,12.55 16.7,17.08 22.75,41.97 21.85,65.29 -8.45,-13.35 -22.72,-22.17 -37.75,-26.28 -15.32,-4.13 -31.67,0.73 -44.59,9.27 -7.1,4.45 -12.91,10.66 -17.48,17.65 -0.88,-20.83 3.64,-42.63 16.33,-59.57 z" id="path50" style="fill:#070400"/>
    <path d="m 58.18,156.2 c 21.24,-4.59 42.18,-12.26 59.64,-25.46 -0.16,4.09 -0.18,8.18 -0.1,12.27 -13.3,0.45 -24.57,9.14 -32.84,18.91 C 73.37,175.37 67.64,192.73 65.33,210.05 61.8,192.29 59.16,174.3 58.18,156.2 Z" id="path52" style="fill:#070400"/>
    <path d="m 282.57,130.88 c 17.53,12.98 38.33,20.79 59.54,25.28 -0.37,7.97 -0.98,15.94 -2.17,23.83 -1.52,10.04 -2.62,20.16 -4.94,30.06 -2.3,-17.39 -8.09,-34.83 -19.67,-48.31 -8.27,-9.68 -19.5,-18.27 -32.72,-18.75 0.01,-4.04 0,-8.08 -0.04,-12.11 z" id="path56" style="fill:#070400"/>
    <path d="m 152.72,158.56 c 9.64,10.37 21.61,19.42 35.79,22.15 21.62,4.38 44.64,-5.04 58.55,-21.82 -3.52,14.18 -10.28,27.97 -21.23,37.88 -7.97,7.24 -18.86,11.83 -29.74,10.46 -11.36,-1.27 -21.34,-8.26 -28.35,-17.02 -7.39,-9.19 -12.32,-20.21 -15.02,-31.65 z" id="path58" style="fill:#070400"/>
    <path d="m 129.7,194.8 c 2.35,5.03 4.86,9.99 7.56,14.85 -4.42,5.02 -6.36,11.72 -6.06,18.34 0.53,17.49 3.18,34.83 5.58,52.14 2.54,17.18 5.35,34.35 9.98,51.11 -8.64,-17.93 -15.99,-36.46 -22.98,-55.09 -6.84,-18.39 -13.49,-36.86 -19.51,-55.53 9.57,-7.39 19.43,-15.08 25.43,-25.82 z" id="path60" style="fill:#070400"/>
    <path d="m 270.6,194.74 c 6.1,10.61 15.69,18.52 25.43,25.64 -4.98,16.7 -11.11,33.03 -17.05,49.4 -7.72,21.09 -16.05,41.98 -25.63,62.31 6.69,-23.67 9.78,-48.13 13.08,-72.44 1.32,-11.16 2.76,-22.35 2.75,-33.6 0.08,-6.04 -2.18,-11.86 -6.07,-16.44 2.74,-4.83 5.28,-9.77 7.49,-14.87 z" id="path62" style="fill:#070400"/>
  </g>
</svg>
