<?xml version="1.0" encoding="UTF-8"?>
<svg xmlns="http://www.w3.org/2000/svg" width="400pt" height="400pt" viewBox="0 0 400 400" version="1.1">
  <g id="#4e0b00ff">
    <path fill="#4e0b00" d=" M 192.72 21.45 C 194.57 16.66 197.97 12.63 199.40 7.65 C 200.24 14.05 203.26 19.90 206.74 25.24 C 210.25 30.33 210.62 36.88 214.20 41.95 C 218.29 46.78 221.56 52.34 223.84 58.25 C 225.11 61.10 227.03 63.74 227.53 66.88 C 228.17 70.91 228.81 74.95 229.57 78.96 C 232.02 74.65 234.13 69.94 234.53 64.95 C 234.11 59.97 232.85 54.23 236.91 50.32 C 237.65 54.81 238.59 59.36 240.67 63.45 C 246.02 72.10 255.67 78.01 258.03 88.43 C 258.46 88.00 259.32 87.13 259.75 86.70 C 259.59 84.95 259.54 83.19 259.47 81.44 C 262.64 76.01 265.08 68.95 261.83 63.00 C 262.05 57.48 259.18 52.68 256.43 48.14 C 258.52 45.69 256.49 42.50 256.52 39.72 C 259.00 41.75 259.45 45.06 261.02 47.69 C 264.31 49.31 266.32 52.57 268.43 55.42 C 269.77 58.98 271.28 62.47 273.08 65.83 C 275.00 69.07 273.89 72.95 274.70 76.47 C 275.94 81.67 277.20 86.88 278.30 92.12 C 279.97 99.28 279.15 106.78 277.68 113.89 C 274.24 125.00 260.03 127.26 255.73 137.86 C 251.06 140.77 250.37 146.97 250.59 151.99 C 250.49 153.67 252.00 154.76 252.80 156.07 C 252.63 156.44 252.31 157.19 252.15 157.56 C 252.71 158.95 253.20 160.37 253.63 161.81 C 252.20 161.16 250.50 160.83 249.60 159.43 C 246.32 155.10 241.42 152.56 236.85 149.86 C 237.40 146.50 237.71 143.10 237.74 139.70 C 234.95 143.31 230.70 145.20 226.22 145.58 C 227.19 143.95 227.79 141.67 229.81 141.02 C 233.73 139.41 237.82 138.25 241.70 136.55 C 244.85 134.99 245.55 131.13 245.60 127.95 C 246.01 124.13 244.42 120.55 243.51 116.93 C 242.70 113.96 242.59 110.76 240.96 108.07 C 239.16 104.20 235.47 101.74 233.33 98.09 C 233.26 98.80 233.14 100.20 233.08 100.90 C 234.39 103.72 236.09 106.73 235.74 109.94 C 234.65 112.13 233.21 114.13 232.11 116.31 C 227.45 116.86 223.01 118.36 218.64 120.01 C 218.11 117.04 217.53 114.00 215.83 111.44 C 215.82 118.46 209.26 122.52 203.40 124.59 C 203.74 122.15 203.76 119.34 205.60 117.45 C 210.64 113.87 215.72 110.31 220.74 106.68 C 225.52 102.61 224.60 95.50 223.15 90.06 C 221.51 81.11 214.24 74.67 211.63 66.11 C 210.74 63.66 208.53 62.07 206.91 60.12 C 203.01 55.03 196.23 53.56 192.18 48.57 C 192.56 50.33 192.97 52.08 193.35 53.84 C 197.21 56.87 199.37 61.50 201.12 65.96 C 200.83 69.83 198.37 73.36 199.35 77.38 C 195.40 80.17 190.82 81.99 187.24 85.29 C 183.57 88.66 178.07 89.95 175.70 94.65 C 172.82 98.92 172.76 104.20 171.89 109.10 C 171.09 112.69 174.39 115.18 175.82 118.10 C 172.28 117.07 168.73 116.12 165.17 115.18 C 164.06 112.86 162.82 110.60 161.69 108.29 C 162.22 106.61 162.71 104.91 163.20 103.21 C 164.16 101.50 164.87 99.66 165.14 97.71 C 162.27 100.64 158.76 103.13 156.90 106.90 C 154.71 110.60 154.45 114.99 152.97 118.97 C 151.40 123.30 151.18 128.13 152.64 132.53 C 153.75 135.49 157.04 136.43 159.75 137.32 C 158.65 142.26 159.51 147.33 160.71 152.18 C 155.83 155.29 151.24 158.83 146.46 162.10 C 145.55 161.04 144.63 159.98 143.72 158.93 C 144.14 158.40 144.97 157.33 145.39 156.80 C 145.23 156.10 144.90 154.70 144.74 154.00 C 145.25 153.67 146.26 153.01 146.76 152.69 C 146.96 147.13 147.37 140.06 142.29 136.41 C 138.45 127.67 128.97 123.94 123.08 116.91 C 119.18 111.07 119.51 103.72 119.47 96.99 C 120.13 89.66 122.41 82.60 124.24 75.50 C 125.28 71.52 124.23 67.05 126.49 63.39 C 128.31 60.42 129.69 57.25 130.93 54.00 C 133.13 51.13 135.30 47.91 138.67 46.30 C 140.25 43.72 140.54 39.97 143.64 38.66 C 143.06 41.39 141.75 44.22 143.12 46.93 C 140.02 51.35 137.84 56.33 137.36 61.75 C 134.47 67.70 136.76 74.57 139.49 80.14 C 139.39 81.79 139.30 83.45 139.11 85.09 C 140.13 86.03 141.16 86.95 142.21 87.85 C 143.04 88.66 143.86 89.47 144.70 90.28 C 146.79 83.28 148.62 75.92 153.03 69.96 C 156.95 62.30 162.32 55.51 166.34 47.90 C 167.19 50.89 165.09 53.59 164.61 56.46 C 163.87 63.27 164.11 70.43 167.25 76.67 C 168.98 71.16 168.87 65.03 172.04 60.04 C 174.08 56.89 174.81 53.07 177.18 50.12 C 179.83 46.44 181.45 42.02 184.78 38.84 C 187.33 36.37 189.46 33.52 191.28 30.48 L 189.34 30.03 C 190.35 27.13 191.61 24.32 192.72 21.45 M 198.12 19.63 C 196.26 23.18 194.92 26.99 194.61 31.02 C 194.46 34.29 192.28 36.87 190.22 39.21 C 183.63 46.43 178.98 55.14 174.87 63.93 C 173.08 67.73 173.16 72.00 172.35 76.03 C 171.58 79.28 167.30 82.39 164.38 79.52 C 161.54 76.26 161.26 71.62 159.94 67.65 C 156.00 72.52 152.02 77.91 152.29 84.51 C 150.29 87.18 148.99 90.26 148.19 93.49 C 145.97 93.57 143.64 94.10 141.48 93.40 C 136.82 90.58 134.09 85.46 134.02 80.05 C 131.85 74.80 132.26 69.11 131.66 63.58 C 128.18 67.32 129.20 72.67 128.13 77.26 C 126.04 85.71 122.89 94.16 123.58 103.01 C 123.88 106.88 124.30 111.05 126.64 114.30 C 132.09 120.88 140.62 124.43 145.02 131.96 C 147.20 135.21 149.70 138.46 150.40 142.42 C 151.00 145.99 150.85 149.63 151.02 153.23 C 152.52 152.36 154.28 151.76 155.41 150.38 C 155.89 147.94 155.58 145.42 155.29 142.97 C 155.26 140.19 152.41 138.92 150.80 137.05 C 148.31 134.87 148.08 131.33 147.60 128.28 C 146.77 122.66 149.31 117.36 150.36 111.95 C 151.84 104.71 157.15 99.26 162.09 94.14 C 164.75 91.97 167.84 94.44 169.99 96.12 C 171.63 93.15 173.23 90.04 175.89 87.83 C 182.70 82.67 191.46 79.05 195.45 71.02 C 195.04 69.97 194.62 68.92 194.21 67.87 C 194.88 67.24 195.54 66.62 196.21 65.99 C 194.99 63.29 193.94 60.40 191.82 58.25 C 190.45 56.65 188.65 55.26 188.02 53.17 C 187.17 50.93 187.92 48.56 188.23 46.30 C 189.88 45.61 191.54 44.91 193.19 44.20 C 197.44 47.59 202.04 50.48 206.50 53.56 C 209.45 56.55 212.29 59.70 214.85 63.02 C 217.45 69.61 221.08 75.78 225.26 81.50 C 225.04 76.64 223.65 71.95 222.85 67.17 C 221.46 63.09 219.24 59.34 217.66 55.32 C 215.25 49.10 209.59 44.80 207.68 38.34 C 205.45 31.65 202.23 25.35 198.12 19.63 M 262.68 89.68 C 261.21 92.09 257.69 94.03 255.29 91.71 C 253.28 88.86 252.72 85.23 250.68 82.37 C 247.10 77.36 242.63 73.07 238.67 68.36 C 236.97 75.28 233.17 81.33 230.16 87.71 C 228.86 86.80 227.69 85.71 226.49 84.67 C 227.01 88.44 227.58 92.21 228.27 95.95 C 230.56 95.09 233.05 93.55 235.56 94.55 C 238.88 97.55 241.64 101.16 244.11 104.89 C 246.87 108.93 246.91 113.98 248.38 118.51 C 249.95 123.51 250.28 128.98 248.99 134.08 C 247.90 138.67 241.21 139.89 241.61 145.00 C 241.07 147.61 243.71 149.01 245.76 149.75 C 246.74 145.14 247.68 140.35 250.50 136.44 C 252.90 133.25 254.80 129.49 258.28 127.31 C 261.80 124.86 265.04 122.06 268.38 119.37 C 270.94 117.18 273.77 114.61 274.09 111.03 C 274.52 106.70 275.16 102.35 274.98 97.99 C 274.26 91.91 272.61 85.98 271.26 80.02 C 270.09 75.25 270.66 70.13 268.55 65.58 C 266.33 73.52 267.46 82.56 262.68 89.68 M 228.29 102.24 C 227.36 104.28 226.46 106.34 225.57 108.40 C 227.21 108.82 229.21 111.23 230.73 109.85 C 231.14 107.06 229.98 104.40 228.29 102.24 Z"/>
    <path fill="#4e0b00" d=" M 294.53 93.50 C 294.81 93.40 295.37 93.22 295.65 93.12 C 297.03 95.81 297.47 99.23 300.42 100.76 C 304.89 104.83 306.62 110.64 309.16 115.93 C 310.12 118.16 309.81 120.65 310.12 123.00 C 310.74 130.45 314.01 137.48 313.84 145.02 C 313.84 149.93 313.93 155.11 311.62 159.59 C 310.34 162.30 307.86 164.11 305.70 166.07 C 305.84 171.43 305.96 176.86 305.10 182.17 C 303.84 186.42 299.94 189.14 296.50 191.62 C 294.93 192.56 294.59 194.49 293.83 196.02 C 297.69 195.28 300.84 192.96 303.68 190.37 C 301.93 194.12 300.50 198.60 296.50 200.56 C 294.27 201.56 291.93 202.38 289.99 203.92 C 285.11 207.64 279.44 210.56 275.70 215.57 C 274.34 217.75 273.34 220.13 271.83 222.22 C 270.98 216.06 273.85 210.12 272.89 203.96 C 272.54 197.91 269.69 191.30 273.19 185.67 C 273.71 187.88 274.18 190.10 274.70 192.32 C 276.56 188.66 277.94 184.69 280.63 181.53 C 282.91 178.83 284.76 175.81 286.46 172.72 C 283.82 174.73 280.60 175.55 277.32 175.40 C 280.91 169.84 289.13 172.99 293.23 168.17 C 297.49 163.44 298.44 156.94 299.91 150.99 C 300.62 148.44 299.50 145.97 298.53 143.67 C 298.09 147.89 296.45 152.17 292.38 154.10 C 288.81 155.08 285.07 155.35 281.56 156.55 C 279.10 157.77 277.21 159.81 275.01 161.42 C 275.78 155.85 277.67 149.73 282.81 146.69 C 287.62 142.22 292.17 137.46 297.42 133.46 C 296.30 127.93 300.78 123.44 300.52 117.99 C 299.27 111.84 298.39 105.45 294.69 100.17 C 295.70 98.00 294.70 95.72 294.53 93.50 M 299.79 138.24 C 301.55 140.21 303.64 142.16 304.10 144.91 C 305.88 151.31 301.81 157.26 301.15 163.53 C 304.39 161.82 307.48 159.29 308.70 155.72 C 310.37 149.23 310.26 142.33 308.41 135.89 C 306.79 130.27 306.21 124.45 305.61 118.65 C 302.72 124.90 303.18 132.18 299.79 138.24 M 285.80 151.18 C 288.48 150.37 291.48 149.64 293.30 147.33 C 294.43 145.93 293.35 144.13 293.19 142.60 C 290.18 144.94 287.35 147.63 285.80 151.18 M 303.04 167.58 C 301.46 169.47 299.43 170.87 297.57 172.45 C 295.83 173.87 295.89 176.30 295.46 178.30 C 299.30 176.25 303.06 173.58 304.69 169.36 C 304.14 168.76 303.59 168.17 303.04 167.58 M 283.48 185.49 C 281.86 187.65 279.93 189.83 279.60 192.62 C 279.17 196.09 280.00 199.55 280.55 202.96 C 279.27 202.24 278.00 201.52 276.73 200.81 C 276.78 203.00 276.86 205.18 276.95 207.37 C 281.57 205.00 285.77 201.92 289.92 198.82 C 290.31 195.47 289.78 191.23 292.96 189.04 C 296.06 186.64 299.18 184.18 301.36 180.86 C 298.23 181.42 295.14 182.11 292.04 182.80 C 291.59 180.02 291.23 177.23 290.87 174.44 C 288.05 177.88 286.26 182.02 283.48 185.49 Z"/>
    <path fill="#4e0b00" d=" M 100.98 101.99 C 103.60 100.08 103.75 96.43 106.13 94.29 C 105.81 96.90 105.04 99.57 105.82 102.18 C 102.06 107.06 101.10 113.18 99.74 119.01 C 99.00 124.70 103.70 129.46 102.58 135.17 C 106.63 138.73 111.03 141.92 114.46 146.13 C 115.10 139.60 115.12 131.79 120.43 127.09 C 120.19 131.40 119.33 136.14 122.05 139.91 C 126.71 146.98 129.79 155.69 127.63 164.17 C 125.05 161.77 122.81 158.91 119.78 157.06 C 116.14 155.29 111.94 155.32 108.17 153.98 C 106.59 152.87 105.09 151.59 103.88 150.09 C 102.84 147.92 102.71 145.45 102.01 143.17 C 101.01 145.65 100.05 148.29 100.60 151.00 C 102.04 157.08 102.99 163.80 107.49 168.51 C 109.42 170.70 113.24 170.58 114.43 173.49 C 116.42 177.36 118.35 181.39 121.42 184.53 C 124.13 186.74 127.46 188.02 130.25 190.13 C 130.58 188.25 130.93 186.38 131.33 184.52 C 134.50 187.94 132.63 192.86 132.09 196.89 C 130.48 203.72 131.47 210.90 134.16 217.32 C 128.32 214.04 126.86 206.10 120.25 203.76 C 115.93 202.63 111.65 201.38 107.38 200.08 C 100.33 192.89 96.27 183.15 95.21 173.21 C 95.49 173.18 96.06 173.13 96.35 173.11 C 97.85 178.92 103.03 182.42 108.49 184.07 C 105.42 179.42 102.53 174.42 97.97 171.05 C 95.05 168.23 91.55 166.05 88.79 163.07 C 85.49 157.70 85.03 151.08 85.44 144.93 C 86.34 136.81 89.91 129.18 90.25 120.97 C 90.25 117.10 93.09 114.12 94.28 110.59 C 95.41 107.00 98.37 104.52 100.98 101.99 M 96.96 129.46 C 96.48 125.96 95.88 122.46 94.96 119.04 C 93.81 122.32 91.71 129.14 96.96 129.46 M 93.02 131.60 C 89.85 140.15 87.89 149.96 91.21 158.75 C 93.82 162.55 97.79 165.16 101.16 168.25 C 98.94 162.79 98.39 156.78 95.66 151.54 C 96.12 147.09 97.69 142.89 98.60 138.56 C 97.69 135.61 95.16 133.65 93.02 131.60 M 119.25 143.69 C 118.97 145.33 118.71 146.96 118.45 148.60 C 117.21 149.28 115.97 149.95 114.74 150.64 C 117.50 151.99 120.37 153.10 123.34 153.91 C 122.75 150.24 121.38 146.74 119.25 143.69 M 111.02 177.42 C 111.28 180.14 112.15 182.93 111.59 185.66 C 110.19 188.78 106.31 187.33 103.66 187.47 C 105.17 190.45 106.67 193.66 109.51 195.62 C 114.67 199.20 121.66 198.37 126.57 202.50 C 127.22 199.78 128.18 197.02 127.75 194.19 C 124.91 190.55 119.69 189.77 116.91 186.01 C 114.90 183.18 113.30 180.06 111.02 177.42 Z"/>
    <path fill="#4e0b00" d=" M 160.67 137.96 C 164.55 138.53 169.26 140.27 170.42 144.64 C 166.79 143.86 160.14 142.91 160.67 137.96 Z"/>
    <path fill="#4e0b00" d=" M 199.76 153.68 C 202.20 153.37 204.69 153.39 207.11 153.92 C 210.17 154.68 213.35 153.31 216.36 154.36 C 219.78 155.49 223.15 156.83 226.72 157.42 C 227.09 157.84 227.83 158.66 228.20 159.07 C 228.65 158.74 229.55 158.08 230.00 157.75 C 237.29 163.38 247.19 167.27 250.51 176.57 C 253.43 182.21 258.22 186.86 259.92 193.11 C 262.35 199.81 261.33 207.02 261.84 213.98 C 262.19 218.58 261.14 223.13 259.39 227.37 C 255.69 236.66 252.46 246.48 246.00 254.29 C 245.31 254.12 243.94 253.78 243.25 253.60 C 241.59 255.64 239.72 257.50 237.59 259.06 C 238.77 259.78 239.94 260.52 241.11 261.26 C 237.65 263.86 233.39 264.99 229.14 265.40 C 222.94 265.87 217.46 270.35 211.07 269.38 C 208.00 268.96 205.02 269.92 201.99 270.19 C 194.70 268.61 186.48 270.06 180.09 265.48 C 174.71 264.02 167.76 264.80 163.96 259.99 C 164.72 259.26 165.50 258.56 166.31 257.89 C 164.42 256.17 162.73 254.25 161.16 252.24 C 159.70 253.32 158.14 253.57 157.26 251.72 C 152.75 244.20 148.81 236.26 146.10 227.90 C 144.04 222.88 142.52 217.48 142.94 211.99 C 143.48 203.58 142.68 194.54 147.22 187.01 C 150.51 182.00 154.04 177.14 156.94 171.89 C 161.48 164.88 169.65 161.83 176.11 157.01 C 176.48 157.22 177.21 157.64 177.57 157.85 C 181.07 156.18 184.96 155.68 188.60 154.43 C 192.21 153.13 196.05 154.23 199.76 153.68 M 190.30 158.42 C 186.11 159.55 181.59 160.41 178.36 163.55 C 177.25 163.32 176.14 163.07 175.04 162.84 C 169.55 166.67 162.75 169.51 159.60 175.81 C 156.92 180.62 153.52 184.97 150.62 189.64 C 147.79 194.24 147.47 199.80 147.59 205.06 C 147.73 210.01 146.49 215.06 147.89 219.93 C 150.42 229.07 154.30 237.81 158.95 246.07 C 159.51 245.87 160.64 245.46 161.20 245.26 C 164.57 250.31 169.27 254.33 172.13 259.73 C 175.92 260.90 180.06 260.72 183.72 262.37 C 193.14 266.94 203.96 265.64 214.06 265.13 C 217.52 265.22 219.55 261.38 222.98 261.48 C 225.91 261.26 228.96 261.73 231.81 260.83 C 233.62 259.19 233.85 256.37 235.76 254.78 C 238.97 251.97 241.96 248.91 244.65 245.60 C 245.39 245.57 246.14 245.55 246.89 245.53 C 249.31 240.87 251.73 236.19 253.35 231.18 C 255.26 225.29 258.56 219.49 257.78 213.09 C 257.16 207.69 257.81 202.17 256.52 196.85 C 254.78 188.02 247.39 181.95 243.97 173.86 C 241.25 169.79 236.79 166.89 232.14 165.47 C 227.14 163.86 222.86 160.57 217.75 159.22 C 213.70 157.65 209.34 158.82 205.16 158.39 C 200.23 157.95 195.18 157.18 190.30 158.42 Z"/>
    <path fill="#4e0b00" d=" M 181.26 173.21 C 183.64 170.82 186.18 167.49 190.04 168.27 C 196.11 168.79 197.68 176.18 202.97 178.19 C 207.50 175.10 210.48 169.98 215.91 168.14 C 218.79 169.37 221.71 170.76 223.74 173.26 C 226.50 176.49 230.45 178.54 232.88 182.06 C 234.84 185.50 235.04 189.57 236.36 193.25 C 240.38 194.79 240.71 199.55 241.06 203.24 C 240.95 208.18 242.01 213.09 241.56 218.04 C 241.01 224.09 241.09 230.53 237.87 235.92 C 234.32 242.03 229.96 248.42 223.13 251.11 C 219.18 252.85 215.67 249.53 212.80 247.25 C 209.71 244.27 205.37 243.39 201.95 240.91 C 200.88 241.69 199.82 242.47 198.74 243.24 C 193.19 243.97 190.31 249.93 185.02 251.44 C 179.58 250.93 175.22 247.19 172.01 243.03 C 167.86 238.01 165.05 231.96 163.72 225.60 C 162.69 216.30 163.63 206.94 164.74 197.70 C 166.13 195.40 168.57 193.72 169.22 191.00 C 170.42 187.08 170.62 182.54 173.63 179.44 C 176.08 177.25 179.03 175.66 181.26 173.21 M 181.66 178.60 C 179.24 180.88 175.57 182.42 174.92 186.05 C 173.63 191.16 172.83 197.00 167.93 200.03 C 168.49 201.00 169.05 201.97 169.62 202.93 C 166.29 209.20 167.48 216.31 167.68 223.09 C 168.41 230.30 172.25 236.74 176.87 242.16 C 179.01 244.43 181.68 246.11 184.63 247.10 C 187.50 245.15 190.31 243.12 192.86 240.77 C 195.21 238.52 198.47 237.81 201.32 236.43 C 203.14 235.41 204.66 237.42 206.21 238.09 C 212.21 239.25 215.22 245.73 221.01 247.32 C 227.15 245.23 230.77 239.34 234.01 234.09 C 235.40 230.51 237.27 226.92 237.15 222.97 C 237.18 219.28 237.32 215.60 237.36 211.92 C 237.35 208.19 234.75 204.55 236.57 200.90 C 232.39 197.67 231.53 192.39 230.52 187.55 C 230.08 184.50 227.70 182.41 225.40 180.64 C 222.12 178.17 219.78 174.61 216.11 172.63 C 210.33 175.21 207.90 182.48 201.64 184.01 C 199.22 180.94 196.08 178.55 193.61 175.53 C 192.50 174.27 191.38 172.83 189.68 172.38 C 186.25 173.22 184.31 176.53 181.66 178.60 Z"/>
    <path fill="#4e0b00" d=" M 115.44 173.99 C 115.17 173.23 114.64 171.72 114.37 170.97 C 117.59 171.72 121.10 172.69 122.63 175.95 C 120.16 175.62 117.76 174.91 115.44 173.99 Z"/>
  </g>
  <g id="#762000ff">
    <path fill="#762000" d=" M 198.12 19.63 C 202.23 25.35 205.45 31.65 207.68 38.34 C 209.59 44.80 215.25 49.10 217.66 55.32 C 219.24 59.34 221.46 63.09 222.85 67.17 C 223.65 71.95 225.04 76.64 225.26 81.50 C 221.08 75.78 217.45 69.61 214.85 63.02 C 212.29 59.70 209.45 56.55 206.50 53.56 C 202.04 50.48 197.44 47.59 193.19 44.20 C 191.54 44.91 189.88 45.61 188.23 46.30 C 187.92 48.56 187.17 50.93 188.02 53.17 C 188.65 55.26 190.45 56.65 191.82 58.25 C 193.94 60.40 194.99 63.29 196.21 65.99 C 195.54 66.62 194.88 67.24 194.21 67.87 C 194.62 68.92 195.04 69.97 195.45 71.02 C 191.46 79.05 182.70 82.67 175.89 87.83 C 173.23 90.04 171.63 93.15 169.99 96.12 C 167.84 94.44 164.75 91.97 162.09 94.14 C 157.15 99.26 151.84 104.71 150.36 111.95 C 149.31 117.36 146.77 122.66 147.60 128.28 C 148.08 131.33 148.31 134.87 150.80 137.05 C 152.41 138.92 155.26 140.19 155.29 142.97 C 155.58 145.42 155.89 147.94 155.41 150.38 C 154.28 151.76 152.52 152.36 151.02 153.23 C 150.85 149.63 151.00 145.99 150.40 142.42 C 149.70 138.46 147.20 135.21 145.02 131.96 C 140.62 124.43 132.09 120.88 126.64 114.30 C 124.30 111.05 123.88 106.88 123.58 103.01 C 122.89 94.16 126.04 85.71 128.13 77.26 C 129.20 72.67 128.18 67.32 131.66 63.58 C 132.26 69.11 131.85 74.80 134.02 80.05 C 134.09 85.46 136.82 90.58 141.48 93.40 C 143.64 94.10 145.97 93.57 148.19 93.49 C 148.99 90.26 150.29 87.18 152.29 84.51 C 152.02 77.91 156.00 72.52 159.94 67.65 C 161.26 71.62 161.54 76.26 164.38 79.52 C 167.30 82.39 171.58 79.28 172.35 76.03 C 173.16 72.00 173.08 67.73 174.87 63.93 C 178.98 55.14 183.63 46.43 190.22 39.21 C 192.28 36.87 194.46 34.29 194.61 31.02 C 194.92 26.99 196.26 23.18 198.12 19.63 Z"/>
    <path fill="#762000" d=" M 262.68 89.68 C 267.46 82.56 266.33 73.52 268.55 65.58 C 270.66 70.13 270.09 75.25 271.26 80.02 C 272.61 85.98 274.26 91.91 274.98 97.99 C 275.16 102.35 274.52 106.70 274.09 111.03 C 273.77 114.61 270.94 117.18 268.38 119.37 C 265.04 122.06 261.80 124.86 258.28 127.31 C 254.80 129.49 252.90 133.25 250.50 136.44 C 247.68 140.35 246.74 145.14 245.76 149.75 C 243.71 149.01 241.07 147.61 241.61 145.00 C 241.21 139.89 247.90 138.67 248.99 134.08 C 250.28 128.98 249.95 123.51 248.38 118.51 C 246.91 113.98 246.87 108.93 244.11 104.89 C 241.64 101.16 238.88 97.55 235.56 94.55 C 233.05 93.55 230.56 95.09 228.27 95.95 C 227.58 92.21 227.01 88.44 226.49 84.67 C 227.69 85.71 228.86 86.80 230.16 87.71 C 233.17 81.33 236.97 75.28 238.67 68.36 C 242.63 73.07 247.10 77.36 250.68 82.37 C 252.72 85.23 253.28 88.86 255.29 91.71 C 257.69 94.03 261.21 92.09 262.68 89.68 Z"/>
    <path fill="#762000" d=" M 228.29 102.24 C 229.98 104.40 231.14 107.06 230.73 109.85 C 229.21 111.23 227.21 108.82 225.57 108.40 C 226.46 106.34 227.36 104.28 228.29 102.24 Z"/>
    <path fill="#762000" d=" M 299.79 138.24 C 303.18 132.18 302.72 124.90 305.61 118.65 C 306.21 124.45 306.79 130.27 308.41 135.89 C 310.26 142.33 310.37 149.23 308.70 155.72 C 307.48 159.29 304.39 161.82 301.15 163.53 C 301.81 157.26 305.88 151.31 304.10 144.91 C 303.64 142.16 301.55 140.21 299.79 138.24 Z"/>
    <path fill="#762000" d=" M 96.96 129.46 C 91.71 129.14 93.81 122.32 94.96 119.04 C 95.88 122.46 96.48 125.96 96.96 129.46 Z"/>
    <path fill="#762000" d=" M 93.02 131.60 C 95.16 133.65 97.69 135.61 98.60 138.56 C 97.69 142.89 96.12 147.09 95.66 151.54 C 98.39 156.78 98.94 162.79 101.16 168.25 C 97.79 165.16 93.82 162.55 91.21 158.75 C 87.89 149.96 89.85 140.15 93.02 131.60 Z"/>
    <path fill="#762000" d=" M 285.80 151.18 C 287.35 147.63 290.18 144.94 293.19 142.60 C 293.35 144.13 294.43 145.93 293.30 147.33 C 291.48 149.64 288.48 150.37 285.80 151.18 Z"/>
    <path fill="#762000" d=" M 119.25 143.69 C 121.38 146.74 122.75 150.24 123.34 153.91 C 120.37 153.10 117.50 151.99 114.74 150.64 C 115.97 149.95 117.21 149.28 118.45 148.60 C 118.71 146.96 118.97 145.33 119.25 143.69 Z"/>
    <path fill="#762000" d=" M 190.30 158.42 C 195.18 157.18 200.23 157.95 205.16 158.39 C 209.34 158.82 213.70 157.65 217.75 159.22 C 222.86 160.57 227.14 163.86 232.14 165.47 C 236.79 166.89 241.25 169.79 243.97 173.86 C 247.39 181.95 254.78 188.02 256.52 196.85 C 257.81 202.17 257.16 207.69 257.78 213.09 C 258.56 219.49 255.26 225.29 253.35 231.18 C 251.73 236.19 249.31 240.87 246.89 245.53 C 246.14 245.55 245.39 245.57 244.65 245.60 C 241.96 248.91 238.97 251.97 235.76 254.78 C 233.85 256.37 233.62 259.19 231.81 260.83 C 228.96 261.73 225.91 261.26 222.98 261.48 C 219.55 261.38 217.52 265.22 214.06 265.13 C 203.96 265.64 193.14 266.94 183.72 262.37 C 180.06 260.72 175.92 260.90 172.13 259.73 C 169.27 254.33 164.57 250.31 161.20 245.26 C 160.64 245.46 159.51 245.87 158.95 246.07 C 154.30 237.81 150.42 229.07 147.89 219.93 C 146.49 215.06 147.73 210.01 147.59 205.06 C 147.47 199.80 147.79 194.24 150.62 189.64 C 153.52 184.97 156.92 180.62 159.60 175.81 C 162.75 169.51 169.55 166.67 175.04 162.84 C 176.14 163.07 177.25 163.32 178.36 163.55 C 181.59 160.41 186.11 159.55 190.30 158.42 M 181.26 173.21 C 179.03 175.66 176.08 177.25 173.63 179.44 C 170.62 182.54 170.42 187.08 169.22 191.00 C 168.57 193.72 166.13 195.40 164.74 197.70 C 163.63 206.94 162.69 216.30 163.72 225.60 C 165.05 231.96 167.86 238.01 172.01 243.03 C 175.22 247.19 179.58 250.93 185.02 251.44 C 190.31 249.93 193.19 243.97 198.74 243.24 C 199.82 242.47 200.88 241.69 201.95 240.91 C 205.37 243.39 209.71 244.27 212.80 247.25 C 215.67 249.53 219.18 252.85 223.13 251.11 C 229.96 248.42 234.32 242.03 237.87 235.92 C 241.09 230.53 241.01 224.09 241.56 218.04 C 242.01 213.09 240.95 208.18 241.06 203.24 C 240.71 199.55 240.38 194.79 236.36 193.25 C 235.04 189.57 234.84 185.50 232.88 182.06 C 230.45 178.54 226.50 176.49 223.74 173.26 C 221.71 170.76 218.79 169.37 215.91 168.14 C 210.48 169.98 207.50 175.10 202.97 178.19 C 197.68 176.18 196.11 168.79 190.04 168.27 C 186.18 167.49 183.64 170.82 181.26 173.21 Z"/>
    <path fill="#762000" d=" M 283.48 185.49 C 286.26 182.02 288.05 177.88 290.87 174.44 C 291.23 177.23 291.59 180.02 292.04 182.80 C 295.14 182.11 298.23 181.42 301.36 180.86 C 299.18 184.18 296.06 186.64 292.96 189.04 C 289.78 191.23 290.31 195.47 289.92 198.82 C 285.77 201.92 281.57 205.00 276.95 207.37 C 276.86 205.18 276.78 203.00 276.73 200.81 C 278.00 201.52 279.27 202.24 280.55 202.96 C 280.00 199.55 279.17 196.09 279.60 192.62 C 279.93 189.83 281.86 187.65 283.48 185.49 Z"/>
    <path fill="#762000" d=" M 111.02 177.42 C 113.30 180.06 114.90 183.18 116.91 186.01 C 119.69 189.77 124.91 190.55 127.75 194.19 C 128.18 197.02 127.22 199.78 126.57 202.50 C 121.66 198.37 114.67 199.20 109.51 195.62 C 106.67 193.66 105.17 190.45 103.66 187.47 C 106.31 187.33 110.19 188.78 111.59 185.66 C 112.15 182.93 111.28 180.14 111.02 177.42 Z"/>
  </g>
  <g id="#4b5b15ff">
    <path fill="#4b5b15" d=" M 189.29 194.27 C 191.86 189.11 198.44 189.71 202.87 187.12 C 206.99 189.85 213.13 189.57 215.71 194.37 C 217.40 197.57 219.52 200.51 221.29 203.66 C 222.56 206.91 222.29 210.50 222.63 213.92 C 223.36 218.18 220.90 222.13 218.31 225.28 C 215.79 228.37 211.39 227.57 208.05 228.96 C 206.03 230.10 204.25 231.61 202.32 232.88 C 200.32 231.49 198.53 229.78 196.37 228.66 C 193.79 227.73 190.93 227.76 188.45 226.56 C 186.27 225.01 184.64 222.78 183.47 220.40 C 181.34 216.63 182.55 212.16 182.67 208.08 C 183.06 202.78 186.71 198.66 189.29 194.27 M 197.25 193.81 C 197.32 194.32 197.46 195.34 197.53 195.85 C 194.20 197.56 190.72 199.50 188.90 202.94 C 185.51 208.88 185.30 217.60 190.21 222.78 C 194.53 223.28 198.78 224.37 202.12 227.31 C 204.31 226.12 206.52 224.82 209.02 224.44 C 211.37 223.85 214.25 223.90 215.76 221.68 C 218.83 218.60 218.64 214.00 218.42 209.99 C 218.43 205.14 214.62 201.65 212.53 197.60 C 209.88 191.99 202.34 192.72 197.25 193.81 Z"/>
    <path fill="#4b5b15" d=" M 118.20 232.17 C 118.96 232.64 120.48 233.57 121.24 234.04 C 126.52 235.32 128.76 241.11 132.25 244.77 C 132.85 243.58 133.14 241.77 134.90 242.16 C 142.36 247.13 147.96 254.35 154.69 260.17 C 160.97 263.22 164.70 269.61 170.96 272.64 C 172.27 271.90 173.75 268.83 175.34 270.70 C 177.34 273.55 177.83 277.12 178.72 280.42 C 179.42 280.02 180.82 279.23 181.52 278.83 C 180.77 280.32 179.98 281.79 179.18 283.26 C 183.43 287.82 187.42 292.63 191.97 296.90 C 192.22 290.10 191.24 283.26 192.97 276.57 C 195.88 275.83 198.79 276.74 201.55 277.64 C 201.87 278.88 202.13 280.14 202.31 281.42 C 203.37 281.41 204.44 281.45 205.50 281.53 C 206.36 286.61 205.42 291.80 205.69 296.93 C 210.31 294.48 214.56 291.39 219.10 288.78 C 218.52 284.66 223.15 283.55 225.85 281.74 C 227.01 280.69 227.98 282.46 229.00 282.91 C 240.41 275.17 252.01 267.68 262.96 259.29 C 263.43 259.88 264.37 261.06 264.84 261.65 C 270.08 258.28 274.75 253.87 280.69 251.71 C 284.21 249.97 287.39 247.61 291.00 246.01 C 287.27 250.96 281.10 254.00 278.91 260.00 C 280.50 259.66 283.20 257.49 283.95 260.05 C 282.37 262.78 279.12 263.94 276.74 265.86 C 269.35 271.79 261.45 277.03 254.02 282.90 C 249.24 286.47 244.08 289.53 239.56 293.43 C 237.55 295.02 237.44 297.71 236.68 299.95 C 235.15 300.50 233.51 300.50 231.93 300.73 C 230.99 299.90 230.05 299.08 229.11 298.26 C 221.85 302.81 214.91 307.83 207.73 312.47 C 209.73 314.75 211.93 316.83 214.30 318.72 C 218.44 322.05 221.96 326.06 225.82 329.69 C 227.07 328.95 227.92 327.09 229.58 327.36 C 232.95 330.36 235.61 334.09 239.09 337.00 C 242.21 339.64 244.10 343.30 246.02 346.84 C 245.57 347.41 244.66 348.55 244.20 349.12 C 251.53 357.95 259.75 366.01 266.85 375.03 C 266.21 375.33 264.94 375.93 264.31 376.23 C 262.88 375.70 261.44 375.22 259.98 374.79 C 258.85 373.83 257.72 372.84 256.61 371.88 C 255.62 374.13 255.31 376.67 253.94 378.74 C 252.35 377.26 251.58 375.20 250.44 373.41 C 242.35 367.33 235.78 359.45 227.88 353.11 C 220.94 347.63 215.03 340.98 208.07 335.55 C 207.79 338.13 208.23 340.87 207.35 343.37 C 206.71 345.20 204.67 345.61 203.11 346.31 C 202.38 345.39 201.65 344.47 200.91 343.56 C 200.69 351.37 200.58 359.18 200.26 366.98 C 200.24 368.35 199.72 369.62 199.31 370.91 C 198.59 370.68 197.15 370.21 196.44 369.98 C 196.35 375.35 196.34 380.75 195.65 386.09 C 195.66 387.52 194.77 388.63 193.64 389.42 C 193.33 390.38 193.04 391.36 192.74 392.34 C 190.59 382.01 191.81 371.37 191.17 360.92 C 190.95 359.39 189.84 358.21 189.13 356.90 C 189.22 355.32 189.32 353.76 189.43 352.19 C 188.72 352.21 187.31 352.25 186.60 352.26 C 186.62 343.04 189.00 333.99 188.62 324.77 C 184.06 327.88 180.13 332.06 174.85 334.00 C 173.13 334.48 171.28 334.65 169.77 335.70 C 164.26 339.15 158.95 342.93 153.61 346.64 C 151.52 348.26 148.85 348.43 146.31 348.20 C 147.34 346.81 148.41 345.47 149.40 344.07 C 144.61 346.11 140.45 350.58 134.81 349.70 C 131.97 351.34 129.30 353.26 126.81 355.40 C 127.93 355.13 129.06 354.87 130.18 354.61 C 130.60 354.95 131.44 355.61 131.86 355.95 C 134.57 354.49 137.58 354.44 140.54 355.07 C 131.44 361.37 123.47 369.18 113.91 374.83 C 112.03 375.86 109.79 375.69 107.74 376.06 C 106.67 373.29 107.65 370.71 109.87 368.89 C 105.95 370.41 102.16 372.37 97.96 373.03 C 101.66 369.72 104.97 365.96 108.97 362.99 C 114.54 359.00 118.93 353.56 124.77 349.92 C 129.47 346.97 133.20 342.74 137.90 339.80 C 141.20 337.75 144.30 335.35 147.89 333.80 C 151.84 332.11 154.58 328.61 158.34 326.61 C 158.94 323.45 162.11 322.19 163.60 319.59 C 165.27 316.64 167.75 313.90 171.01 312.78 C 173.16 312.30 174.07 314.92 175.34 316.13 C 177.59 314.83 180.06 313.83 182.01 312.07 C 176.67 306.15 171.58 299.97 165.93 294.34 C 164.66 294.58 163.39 294.83 162.13 295.08 C 158.58 291.79 156.36 287.43 153.15 283.87 C 150.65 281.03 145.88 280.63 144.41 276.89 C 143.66 274.82 145.55 273.88 146.97 272.89 C 144.37 270.20 141.69 267.58 139.28 264.72 C 134.46 258.90 128.70 253.96 123.63 248.37 C 124.90 242.22 119.97 237.60 118.20 232.17 M 132.82 251.65 C 140.06 258.06 145.75 265.92 152.73 272.58 C 151.66 273.75 150.60 274.91 149.53 276.08 C 151.76 277.62 154.09 279.05 156.12 280.85 C 158.82 283.28 160.21 286.77 162.71 289.36 C 164.72 290.48 167.34 290.24 169.14 291.79 C 174.04 295.95 177.51 301.47 182.17 305.87 C 183.74 307.46 185.48 308.94 186.64 310.87 C 185.77 316.76 179.32 318.55 175.68 322.40 C 174.00 320.77 172.20 319.27 170.29 317.92 C 166.95 321.35 165.35 325.89 163.10 329.95 C 157.08 331.49 152.88 336.22 147.84 339.52 C 150.05 340.01 152.17 340.80 154.29 341.60 C 160.05 338.07 164.89 333.02 171.01 330.05 C 179.35 328.40 184.93 321.37 191.84 317.01 C 193.62 325.53 192.29 334.21 191.61 342.77 C 192.17 342.70 193.29 342.55 193.85 342.47 C 194.10 348.10 191.89 354.71 195.89 359.47 C 196.56 355.32 196.40 351.11 196.35 346.94 C 195.72 341.59 200.78 338.39 203.83 334.82 C 205.54 333.35 207.66 330.46 210.21 331.76 C 214.52 334.31 217.38 338.62 221.27 341.71 C 231.83 350.60 241.75 360.20 252.08 369.34 C 252.45 367.81 253.94 366.02 252.27 364.75 C 248.26 360.10 243.89 355.73 240.15 350.86 C 238.56 348.88 241.49 346.27 239.73 344.31 C 236.18 339.73 231.42 336.21 228.03 331.46 C 226.53 332.19 225.03 332.93 223.53 333.66 C 218.87 329.23 214.63 324.34 209.60 320.30 C 206.95 318.16 204.52 315.78 202.19 313.29 C 203.54 311.40 204.75 309.30 206.71 307.96 C 214.07 303.08 221.46 298.22 228.81 293.31 C 230.20 293.68 232.03 296.07 233.21 294.28 C 238.69 286.91 247.37 283.08 254.32 277.33 C 261.75 271.15 270.35 266.44 277.22 259.59 C 271.83 260.58 268.06 265.00 263.42 267.60 C 262.99 267.19 262.12 266.35 261.68 265.93 C 250.38 273.44 239.40 281.44 227.85 288.59 C 226.85 288.05 225.84 287.52 224.84 287.00 C 224.70 288.18 224.56 289.37 224.43 290.56 C 219.53 293.62 214.52 296.49 209.72 299.70 C 207.15 301.66 202.65 300.97 201.67 297.60 C 201.17 294.78 201.33 291.90 201.26 289.05 C 200.35 289.24 199.45 289.44 198.55 289.65 C 198.09 287.59 198.90 284.77 196.98 283.39 C 196.74 283.80 196.27 284.62 196.04 285.03 C 195.46 290.64 196.02 296.30 195.59 301.93 C 193.13 301.42 190.37 301.31 188.37 299.61 C 185.51 297.12 183.54 293.80 180.80 291.19 C 179.18 289.52 177.21 288.17 175.91 286.23 C 174.84 283.40 174.78 280.25 173.39 277.52 C 170.43 276.13 166.90 275.86 164.41 273.56 C 161.39 270.94 158.82 267.75 155.33 265.70 C 152.47 264.02 149.58 262.24 147.59 259.51 C 144.23 254.99 139.49 251.86 135.60 247.87 C 134.67 249.13 133.74 250.39 132.82 251.65 M 122.18 357.07 C 118.36 360.05 115.88 364.27 114.84 368.98 C 119.08 366.40 123.22 363.60 126.68 360.01 C 125.18 359.02 123.68 358.05 122.18 357.07 Z"/>
  </g>
  <g id="#66771cff">
    <path fill="#66771c" d=" M 197.25 193.81 C 202.34 192.72 209.88 191.99 212.53 197.60 C 214.62 201.65 218.43 205.14 218.42 209.99 C 218.64 214.00 218.83 218.60 215.76 221.68 C 214.25 223.90 211.37 223.85 209.02 224.44 C 206.52 224.82 204.31 226.12 202.12 227.31 C 198.78 224.37 194.53 223.28 190.21 222.78 C 185.30 217.60 185.51 208.88 188.90 202.94 C 190.72 199.50 194.20 197.56 197.53 195.85 C 197.46 195.34 197.32 194.32 197.25 193.81 Z"/>
    <path fill="#66771c" d=" M 132.82 251.65 C 133.74 250.39 134.67 249.13 135.60 247.87 C 139.49 251.86 144.23 254.99 147.59 259.51 C 149.58 262.24 152.47 264.02 155.33 265.70 C 158.82 267.75 161.39 270.94 164.41 273.56 C 166.90 275.86 170.43 276.13 173.39 277.52 C 174.78 280.25 174.84 283.40 175.91 286.23 C 177.21 288.17 179.18 289.52 180.80 291.19 C 183.54 293.80 185.51 297.12 188.37 299.61 C 190.37 301.31 193.13 301.42 195.59 301.93 C 196.02 296.30 195.46 290.64 196.04 285.03 C 196.27 284.62 196.74 283.80 196.98 283.39 C 198.90 284.77 198.09 287.59 198.55 289.65 C 199.45 289.44 200.35 289.24 201.26 289.05 C 201.33 291.90 201.17 294.78 201.67 297.60 C 202.65 300.97 207.15 301.66 209.72 299.70 C 214.52 296.49 219.53 293.62 224.43 290.56 C 224.56 289.37 224.70 288.18 224.84 287.00 C 225.84 287.52 226.85 288.05 227.85 288.59 C 239.40 281.44 250.38 273.44 261.68 265.93 C 262.12 266.35 262.99 267.19 263.42 267.60 C 268.06 265.00 271.83 260.58 277.22 259.59 C 270.35 266.44 261.75 271.15 254.32 277.33 C 247.37 283.08 238.69 286.91 233.21 294.28 C 232.03 296.07 230.20 293.68 228.81 293.31 C 221.46 298.22 214.07 303.08 206.71 307.96 C 204.75 309.30 203.54 311.40 202.19 313.29 C 204.52 315.78 206.95 318.16 209.60 320.30 C 214.63 324.34 218.87 329.23 223.53 333.66 C 225.03 332.93 226.53 332.19 228.03 331.46 C 231.42 336.21 236.18 339.73 239.73 344.31 C 241.49 346.27 238.56 348.88 240.15 350.86 C 243.89 355.73 248.26 360.10 252.27 364.75 C 253.94 366.02 252.45 367.81 252.08 369.34 C 241.75 360.20 231.83 350.60 221.27 341.71 C 217.38 338.62 214.52 334.31 210.21 331.76 C 207.66 330.46 205.54 333.35 203.83 334.82 C 200.78 338.39 195.72 341.59 196.35 346.94 C 196.40 351.11 196.56 355.32 195.89 359.47 C 191.89 354.71 194.10 348.10 193.85 342.47 C 193.29 342.55 192.17 342.70 191.61 342.77 C 192.29 334.21 193.62 325.53 191.84 317.01 C 184.93 321.37 179.35 328.40 171.01 330.05 C 164.89 333.02 160.05 338.07 154.29 341.60 C 152.17 340.80 150.05 340.01 147.84 339.52 C 152.88 336.22 157.08 331.49 163.10 329.95 C 165.35 325.89 166.95 321.35 170.29 317.92 C 172.20 319.27 174.00 320.77 175.68 322.40 C 179.32 318.55 185.77 316.76 186.64 310.87 C 185.48 308.94 183.74 307.46 182.17 305.87 C 177.51 301.47 174.04 295.95 169.14 291.79 C 167.34 290.24 164.72 290.48 162.71 289.36 C 160.21 286.77 158.82 283.28 156.12 280.85 C 154.09 279.05 151.76 277.62 149.53 276.08 C 150.60 274.91 151.66 273.75 152.73 272.58 C 145.75 265.92 140.06 258.06 132.82 251.65 Z"/>
    <path fill="#66771c" d=" M 122.18 357.07 C 123.68 358.05 125.18 359.02 126.68 360.01 C 123.22 363.60 119.08 366.40 114.84 368.98 C 115.88 364.27 118.36 360.05 122.18 357.07 Z"/>
  </g>
</svg>
