<?xml version="1.0" encoding="UTF-8"?>
<svg xmlns="http://www.w3.org/2000/svg" width="400pt" height="400pt" viewBox="0 0 400 400" version="1.1">
  <g id="#080501ff">
    <path fill="#080501" d=" M 186.60 113.17 C 191.08 77.66 195.47 42.13 200.00 6.62 C 204.16 42.05 208.91 77.42 213.04 112.85 C 217.13 109.14 221.26 105.49 225.48 101.93 C 227.99 108.03 230.13 114.27 232.88 120.27 C 238.60 117.48 244.33 114.74 250.01 111.88 C 250.89 118.71 251.84 125.53 252.77 132.35 C 270.79 120.58 288.45 108.29 306.54 96.63 C 293.88 113.51 281.77 130.80 268.94 147.57 C 275.12 148.02 281.30 148.32 287.48 148.63 C 284.77 154.71 282.50 160.97 279.91 167.10 C 285.83 169.21 291.76 171.36 297.83 173.02 C 294.57 177.68 290.97 182.09 287.43 186.55 C 322.75 190.99 358.03 195.79 393.38 200.04 C 357.99 204.65 322.55 208.90 287.12 213.15 C 290.86 217.39 294.74 221.50 298.25 225.93 C 292.05 228.23 285.90 230.66 279.90 233.44 C 282.69 239.10 285.41 244.80 288.40 250.36 C 281.39 251.31 274.37 252.22 267.35 253.07 C 279.27 273.12 291.63 292.92 303.76 312.84 C 291.11 303.01 278.71 292.84 266.17 282.85 C 261.45 279.26 256.82 275.54 252.37 271.61 C 252.09 277.02 251.74 282.43 251.53 287.84 C 245.43 285.17 239.23 282.77 233.05 280.30 C 230.99 286.21 228.93 292.11 227.17 298.12 C 222.49 294.93 218.04 291.42 213.60 287.92 C 209.06 323.06 204.64 358.22 200.03 393.36 C 195.78 357.99 191.34 322.65 187.12 287.29 C 183.03 291.19 178.88 295.05 174.44 298.56 C 171.96 292.46 169.65 286.28 166.84 280.31 C 161.14 282.95 155.53 285.79 149.94 288.65 C 149.16 283.44 148.33 278.23 147.48 273.03 C 143.05 277.13 138.36 280.94 133.58 284.61 C 117.92 297.94 101.74 310.65 86.14 324.05 C 91.07 315.49 97.12 307.68 102.36 299.32 C 112.29 284.23 122.52 269.35 132.29 254.16 C 125.69 253.43 119.09 252.64 112.48 251.96 C 115.06 245.87 117.38 239.67 119.98 233.59 C 114.08 231.37 108.08 229.44 102.13 227.37 C 105.52 222.77 109.04 218.27 112.61 213.81 C 77.30 209.25 42.00 204.55 6.69 199.98 C 42.04 195.74 77.37 191.33 112.73 187.14 C 108.84 183.08 105.02 178.96 101.60 174.50 C 107.77 172.07 114.00 169.80 120.05 167.05 C 117.30 161.41 114.62 155.74 111.72 150.18 C 117.85 149.28 124.01 148.54 130.16 147.78 C 121.43 136.46 113.16 124.80 104.40 113.51 C 99.47 106.13 93.60 99.44 88.56 92.14 C 108.22 105.44 127.61 119.12 147.29 132.39 C 147.60 125.85 147.97 119.31 148.38 112.77 C 154.47 115.47 160.71 117.84 166.84 120.46 C 168.89 114.43 170.96 108.42 172.80 102.33 C 177.42 105.91 182.08 109.46 186.60 113.17 M 198.90 54.91 C 198.65 57.60 198.50 60.31 197.91 62.96 C 197.63 65.63 197.48 68.33 196.93 70.97 C 196.63 73.64 196.47 76.32 195.90 78.95 C 195.63 81.63 195.48 84.32 194.92 86.97 C 194.61 89.63 194.46 92.31 193.89 94.93 C 193.61 97.61 193.50 100.32 192.92 102.97 C 192.62 105.63 192.46 108.31 191.87 110.93 C 191.62 113.44 191.44 115.96 191.24 118.47 C 196.97 117.43 202.89 117.29 208.62 118.46 C 208.46 116.60 208.32 114.74 208.15 112.89 C 207.28 107.58 206.64 102.22 206.13 96.86 C 205.57 94.25 205.39 91.58 205.14 88.93 C 204.29 83.60 203.68 78.23 203.14 72.86 C 202.25 67.26 201.59 61.62 201.05 55.97 C 200.44 52.78 200.37 49.52 200.04 46.29 C 199.66 49.16 199.49 52.07 198.90 54.91 M 175.05 110.70 C 174.00 114.85 172.45 118.84 171.33 122.97 C 172.23 122.66 174.02 122.05 174.92 121.74 C 176.99 121.15 179.06 120.55 181.12 119.92 C 182.63 119.65 184.15 119.43 185.68 119.23 L 185.24 118.09 C 181.67 115.86 178.43 113.18 175.05 110.70 M 213.66 119.07 C 218.75 119.54 223.62 121.15 228.46 122.72 C 226.93 118.52 225.16 114.41 223.36 110.32 C 220.24 113.36 216.87 116.14 213.66 119.07 M 111.42 115.10 C 112.51 116.20 113.62 117.29 114.60 118.48 C 121.69 128.36 129.17 137.96 136.33 147.79 C 139.49 144.33 143.27 141.42 145.97 137.56 C 135.23 130.33 124.52 123.07 114.00 115.53 C 113.36 115.42 112.07 115.21 111.42 115.10 M 254.10 137.50 C 256.64 141.54 261.93 143.76 262.95 148.58 C 263.75 145.47 266.35 143.37 268.03 140.75 C 273.21 132.93 279.26 125.74 284.57 118.01 C 284.53 117.76 284.47 117.26 284.44 117.00 C 274.62 124.27 264.21 130.66 254.10 137.50 M 234.66 125.14 C 237.68 126.98 240.83 128.60 243.86 130.42 C 245.63 131.56 247.99 132.45 247.46 135.33 C 247.43 132.87 247.35 130.40 247.23 127.94 C 246.40 125.11 246.31 122.14 246.21 119.22 C 242.35 121.17 238.51 123.17 234.66 125.14 M 152.75 120.11 C 152.72 125.06 152.46 129.99 152.53 134.94 L 153.62 132.31 C 157.10 129.92 160.81 127.86 164.62 126.04 L 164.61 124.97 C 161.65 123.92 158.80 122.60 155.95 121.30 C 155.15 121.00 153.55 120.41 152.75 120.11 M 188.46 123.74 C 176.14 125.84 164.01 130.46 154.08 138.18 C 140.28 148.28 130.15 163.15 125.65 179.65 C 121.04 195.94 122.07 213.76 128.63 229.37 C 134.46 244.72 146.02 257.48 159.74 266.28 C 175.78 275.82 195.19 279.89 213.64 276.45 C 226.29 274.02 238.60 268.86 248.55 260.58 C 266.55 246.46 277.41 223.88 277.58 201.04 C 277.87 187.01 273.76 173.16 266.99 160.97 C 258.05 146.45 244.69 134.30 228.59 128.34 C 215.96 123.21 201.92 121.63 188.46 123.74 M 117.31 154.87 C 121.66 155.40 122.06 160.85 124.17 163.96 C 124.65 164.59 125.62 165.84 126.10 166.47 C 126.03 162.87 128.47 160.08 130.09 157.10 C 131.40 155.18 132.12 152.43 135.08 152.38 C 129.11 152.87 123.17 153.67 117.31 154.87 M 267.55 152.60 C 269.84 156.54 272.54 160.28 274.22 164.55 C 274.64 164.53 275.47 164.48 275.89 164.45 C 276.80 160.64 278.58 157.12 280.18 153.57 C 278.46 153.35 276.74 153.13 275.04 152.81 C 272.54 152.74 270.04 152.68 267.55 152.60 M 113.88 175.10 C 112.60 175.43 111.32 175.74 110.03 176.03 C 112.77 181.14 119.17 184.19 119.20 190.51 C 119.19 187.36 119.29 184.21 119.87 181.11 C 120.53 179.06 121.15 177.00 121.74 174.93 C 122.04 174.02 122.63 172.21 122.93 171.30 C 119.85 172.41 116.80 173.61 113.88 175.10 M 277.47 171.64 C 277.87 172.75 278.69 174.97 279.09 176.08 C 279.76 178.74 280.44 181.39 281.17 184.04 C 281.36 185.18 281.74 187.47 281.93 188.62 C 281.86 183.05 287.17 179.96 289.28 175.28 C 285.29 174.22 281.44 172.75 277.47 171.64 M 114.84 191.88 C 111.92 192.49 108.94 192.61 105.98 192.90 C 103.34 193.49 100.63 193.64 97.95 193.90 C 95.31 194.46 92.62 194.62 89.94 194.88 C 87.29 195.47 84.56 195.62 81.86 195.86 C 76.25 196.72 70.61 197.42 64.96 197.89 C 62.32 198.47 59.62 198.63 56.94 198.92 C 54.32 199.44 51.65 199.56 48.99 199.68 C 48.95 199.84 48.87 200.15 48.83 200.31 C 55.52 201.37 62.28 201.93 68.95 203.10 C 76.63 203.91 84.29 204.92 91.92 206.12 C 94.58 206.39 97.27 206.56 99.90 207.10 C 102.26 207.36 104.64 207.59 106.97 208.08 C 109.62 208.37 112.30 208.53 114.92 209.08 C 116.12 209.24 117.33 209.40 118.54 209.56 C 118.38 208.65 118.07 206.83 117.91 205.93 C 117.58 202.46 117.66 198.99 117.66 195.52 L 118.25 195.47 C 118.27 194.47 118.32 192.46 118.34 191.46 C 117.17 191.59 116.01 191.73 114.84 191.88 M 282.30 191.15 C 282.72 196.98 282.74 202.83 282.34 208.65 C 284.24 208.47 286.15 208.30 288.05 208.11 C 290.69 207.54 293.39 207.37 296.07 207.11 C 298.71 206.51 301.43 206.39 304.12 206.13 C 306.76 205.56 309.46 205.39 312.14 205.13 C 320.42 204.00 328.72 202.90 337.04 202.10 C 343.34 201.09 349.69 200.38 356.05 199.99 C 349.68 199.66 343.31 199.02 337.02 197.92 C 334.35 197.63 331.66 197.48 329.03 196.92 C 326.38 196.63 323.72 196.46 321.12 195.89 C 318.45 195.62 315.75 195.45 313.12 194.88 C 305.42 194.03 297.72 193.08 290.07 191.87 C 287.48 191.62 284.89 191.41 282.30 191.15 M 110.22 225.10 C 114.46 226.38 118.60 227.97 122.90 229.02 C 121.27 224.02 119.55 218.99 119.06 213.72 C 116.00 217.43 113.31 221.42 110.22 225.10 M 280.06 220.95 C 279.27 223.61 278.41 226.26 277.39 228.85 C 278.99 228.29 280.59 227.74 282.20 227.20 C 283.82 226.43 285.45 225.68 287.07 224.91 C 287.78 224.71 289.21 224.30 289.92 224.10 C 287.10 220.21 282.16 217.24 281.96 212.04 C 281.46 215.03 280.72 217.98 280.06 220.95 M 125.06 234.38 C 124.09 236.91 123.06 239.42 122.02 241.92 C 121.17 243.74 120.32 245.56 119.40 247.35 C 120.56 247.62 121.72 247.91 122.88 248.21 C 127.22 248.34 131.55 248.80 135.81 249.72 L 133.26 248.30 C 130.15 243.90 127.68 239.08 125.06 234.38 M 273.98 236.14 C 273.68 237.06 273.38 237.98 273.07 238.90 C 271.99 240.55 270.93 242.22 269.89 243.89 C 269.10 245.21 268.31 246.51 267.50 247.82 C 270.01 247.56 272.54 247.37 275.06 247.11 C 276.96 246.70 278.89 246.46 280.83 246.23 C 279.10 243.01 277.25 239.84 275.88 236.45 C 275.41 236.37 274.45 236.21 273.98 236.14 M 137.14 255.73 C 131.70 264.63 125.80 273.22 119.98 281.87 C 116.33 286.78 113.82 292.51 109.46 296.88 C 110.08 296.76 111.34 296.51 111.96 296.38 C 117.27 291.55 122.74 286.88 128.45 282.52 C 135.33 276.70 142.24 270.92 149.31 265.34 C 145.73 261.99 142.22 258.57 138.85 255.01 C 138.42 255.19 137.57 255.55 137.14 255.73 M 255.91 260.95 C 254.49 262.21 253.03 263.41 251.56 264.60 C 253.30 266.14 255.06 267.66 256.86 269.14 C 266.11 275.95 274.64 283.69 284.00 290.37 C 277.05 278.35 269.36 266.76 262.48 254.69 C 260.07 256.54 257.96 258.73 255.91 260.95 M 151.52 267.32 C 152.17 269.86 152.59 272.46 152.97 275.06 C 153.35 277.08 153.60 279.13 153.82 281.17 C 155.20 280.46 156.59 279.78 157.97 279.06 C 160.15 277.86 162.39 276.75 164.70 275.82 C 164.65 275.42 164.54 274.61 164.48 274.21 C 160.33 272.61 156.65 270.08 152.95 267.65 C 152.59 267.57 151.87 267.40 151.52 267.32 M 234.40 275.17 C 236.53 276.23 238.77 277.04 240.94 278.03 C 242.93 279.27 246.63 279.25 246.13 282.64 C 247.25 277.78 247.45 272.82 247.42 267.85 C 243.12 270.36 238.97 273.15 234.40 275.17 M 171.40 277.30 C 171.47 277.75 171.59 278.65 171.65 279.10 C 173.25 282.74 174.85 286.38 176.30 290.08 C 179.85 287.35 182.80 283.86 186.78 281.72 C 184.23 281.14 181.68 280.55 179.12 280.01 C 176.50 279.23 173.91 278.38 171.40 277.30 M 224.89 278.76 C 221.44 280.10 217.79 280.77 214.18 281.50 L 214.63 282.74 C 218.29 284.81 221.38 287.73 224.97 289.91 C 225.73 285.85 227.36 282.03 228.61 278.10 C 227.37 278.33 226.13 278.55 224.89 278.76 M 191.42 282.38 C 192.23 286.22 192.58 290.13 192.91 294.04 C 193.50 296.67 193.62 299.37 193.90 302.05 C 194.46 304.68 194.62 307.38 194.89 310.06 C 195.47 312.71 195.62 315.43 195.86 318.14 C 197.10 326.40 198.02 334.73 198.93 343.04 C 199.64 346.53 199.59 350.10 199.95 353.63 C 201.53 343.46 202.46 333.20 204.09 323.04 C 204.37 320.37 204.52 317.68 205.09 315.05 C 205.37 312.38 205.56 309.69 206.13 307.06 C 206.38 304.41 206.56 301.74 207.12 299.14 C 207.79 293.53 208.24 287.88 209.43 282.35 C 203.43 282.73 197.42 282.74 191.42 282.38 Z"/>
    <path fill="#080501" d=" M 189.46 130.80 C 197.27 130.05 205.20 129.96 212.97 131.19 C 232.79 134.97 250.81 147.63 260.78 165.23 C 268.15 177.40 271.04 191.93 269.82 206.04 C 269.07 222.76 260.97 238.58 249.38 250.41 C 238.63 260.62 224.88 268.20 210.01 269.86 C 194.53 271.94 178.22 269.38 164.78 261.20 C 147.85 251.54 135.46 234.46 131.26 215.46 C 128.39 199.65 129.69 182.63 137.47 168.35 C 147.46 148.48 167.46 134.04 189.46 130.80 M 191.50 135.77 C 182.42 136.94 173.76 140.29 165.91 144.93 C 146.18 156.87 133.86 179.93 134.94 202.98 C 135.73 219.46 142.84 235.79 154.96 247.07 C 173.77 265.93 204.90 270.98 228.58 258.62 C 245.38 250.68 258.01 234.94 262.81 217.07 C 267.32 200.87 264.97 182.95 256.53 168.41 C 252.72 160.68 246.42 154.60 240.01 149.00 C 226.36 138.55 208.61 133.40 191.50 135.77 Z"/>
  </g>
  <g>
    <path fill="#fffbcc" d=" M 198.90 54.91 C 199.49 52.07 199.66 49.16 200.04 46.29 C 200.37 49.52 200.44 52.78 201.05 55.97 C 201.59 61.62 202.25 67.26 203.14 72.86 C 203.68 78.23 204.29 83.60 205.14 88.93 C 205.39 91.58 205.57 94.25 206.13 96.86 C 206.64 102.22 207.28 107.58 208.15 112.89 C 208.32 114.74 208.46 116.60 208.62 118.46 C 202.89 117.29 196.97 117.43 191.24 118.47 C 191.44 115.96 191.62 113.44 191.87 110.93 C 192.46 108.31 192.62 105.63 192.92 102.97 C 193.50 100.32 193.61 97.61 193.89 94.93 C 194.46 92.31 194.61 89.63 194.92 86.97 C 195.48 84.32 195.63 81.63 195.90 78.95 C 196.47 76.32 196.63 73.64 196.93 70.97 C 197.48 68.33 197.63 65.63 197.91 62.96 C 198.50 60.31 198.65 57.60 198.90 54.91 Z"/>
    <path fill="#fffbcc" d=" M 175.05 110.70 C 178.43 113.18 181.67 115.86 185.24 118.09 L 185.68 119.23 C 184.15 119.43 182.63 119.65 181.12 119.92 C 179.06 120.55 176.99 121.15 174.92 121.74 C 174.02 122.05 172.23 122.66 171.33 122.97 C 172.45 118.84 174.00 114.85 175.05 110.70 Z"/>
    <path fill="#fffbcc" d=" M 213.66 119.07 C 216.87 116.14 220.24 113.36 223.36 110.32 C 225.16 114.41 226.93 118.52 228.46 122.72 C 223.62 121.15 218.75 119.54 213.66 119.07 Z"/>
    <path fill="#fffbcc" d=" M 111.42 115.10 C 112.07 115.21 113.36 115.42 114.00 115.53 C 124.52 123.07 135.23 130.33 145.97 137.56 C 143.27 141.42 139.49 144.33 136.33 147.79 C 129.17 137.96 121.69 128.36 114.60 118.48 C 113.62 117.29 112.51 116.20 111.42 115.10 Z"/>
    <path fill="#fffbcc" d=" M 254.10 137.50 C 264.21 130.66 274.62 124.27 284.44 117.00 C 284.47 117.26 284.53 117.76 284.57 118.01 C 279.26 125.74 273.21 132.93 268.03 140.75 C 266.35 143.37 263.75 145.47 262.95 148.58 C 261.93 143.76 256.64 141.54 254.10 137.50 Z"/>
    <path fill="#fffbcc" d=" M 234.66 125.14 C 238.51 123.17 242.35 121.17 246.21 119.22 C 246.31 122.14 246.40 125.11 247.23 127.94 C 247.35 130.40 247.43 132.87 247.46 135.33 C 247.99 132.45 245.63 131.56 243.86 130.42 C 240.83 128.60 237.68 126.98 234.66 125.14 Z"/>
    <path fill="#fffbcc" d=" M 152.75 120.11 C 153.55 120.41 155.15 121.00 155.95 121.30 C 158.80 122.60 161.65 123.92 164.61 124.97 L 164.62 126.04 C 160.81 127.86 157.10 129.92 153.62 132.31 L 152.53 134.94 C 152.46 129.99 152.72 125.06 152.75 120.11 Z"/>
    <path fill="#fffbcc" d=" M 117.31 154.87 C 123.17 153.67 129.11 152.87 135.08 152.38 C 132.12 152.43 131.40 155.18 130.09 157.10 C 128.47 160.08 126.03 162.87 126.10 166.47 C 125.62 165.84 124.65 164.59 124.17 163.96 C 122.06 160.85 121.66 155.40 117.31 154.87 Z"/>
    <path fill="#fffbcc" d=" M 267.55 152.60 C 270.04 152.68 272.54 152.74 275.04 152.81 C 276.74 153.13 278.46 153.35 280.18 153.57 C 278.58 157.12 276.80 160.64 275.89 164.45 C 275.47 164.48 274.64 164.53 274.22 164.55 C 272.54 160.28 269.84 156.54 267.55 152.60 Z"/>
    <path fill="#fffbcc" d=" M 113.88 175.10 C 116.80 173.61 119.85 172.41 122.93 171.30 C 122.63 172.21 122.04 174.02 121.74 174.93 C 121.15 177.00 120.53 179.06 119.87 181.11 C 119.29 184.21 119.19 187.36 119.20 190.51 C 119.17 184.19 112.77 181.14 110.03 176.03 C 111.32 175.74 112.60 175.43 113.88 175.10 Z"/>
    <path fill="#fffbcc" d=" M 277.47 171.64 C 281.44 172.75 285.29 174.22 289.28 175.28 C 287.17 179.96 281.86 183.05 281.93 188.62 C 281.74 187.47 281.36 185.18 281.17 184.04 C 280.44 181.39 279.76 178.74 279.09 176.08 C 278.69 174.97 277.87 172.75 277.47 171.64 Z"/>
    <path fill="#fffbcc" d=" M 114.84 191.88 C 116.01 191.73 117.17 191.59 118.34 191.46 C 118.32 192.46 118.27 194.47 118.25 195.47 L 117.66 195.52 C 117.66 198.99 117.58 202.46 117.91 205.93 C 118.07 206.83 118.38 208.65 118.54 209.56 C 117.33 209.40 116.12 209.24 114.92 209.08 C 112.30 208.53 109.62 208.37 106.97 208.08 C 104.64 207.59 102.26 207.36 99.90 207.10 C 97.27 206.56 94.58 206.39 91.92 206.12 C 84.29 204.92 76.63 203.91 68.95 203.10 C 62.28 201.93 55.52 201.37 48.83 200.31 C 48.87 200.15 48.95 199.84 48.99 199.68 C 51.65 199.56 54.32 199.44 56.94 198.92 C 59.62 198.63 62.32 198.47 64.96 197.89 C 70.61 197.42 76.25 196.72 81.86 195.86 C 84.56 195.62 87.29 195.47 89.94 194.88 C 92.62 194.62 95.31 194.46 97.95 193.90 C 100.63 193.64 103.34 193.49 105.98 192.90 C 108.94 192.61 111.92 192.49 114.84 191.88 Z"/>
    <path fill="#fffbcc" d=" M 282.30 191.15 C 284.89 191.41 287.48 191.62 290.07 191.87 C 297.72 193.08 305.42 194.03 313.12 194.88 C 315.75 195.45 318.45 195.62 321.12 195.89 C 323.72 196.46 326.38 196.63 329.03 196.92 C 331.66 197.48 334.35 197.63 337.02 197.92 C 343.31 199.02 349.68 199.66 356.05 199.99 C 349.69 200.38 343.34 201.09 337.04 202.10 C 328.72 202.90 320.42 204.00 312.14 205.13 C 309.46 205.39 306.76 205.56 304.12 206.13 C 301.43 206.39 298.71 206.51 296.07 207.11 C 293.39 207.37 290.69 207.54 288.05 208.11 C 286.15 208.30 284.24 208.47 282.34 208.65 C 282.74 202.83 282.72 196.98 282.30 191.15 Z"/>
    <path fill="#fffbcc" d=" M 110.22 225.10 C 113.31 221.42 116.00 217.43 119.06 213.72 C 119.55 218.99 121.27 224.02 122.90 229.02 C 118.60 227.97 114.46 226.38 110.22 225.10 Z"/>
    <path fill="#fffbcc" d=" M 280.06 220.95 C 280.72 217.98 281.46 215.03 281.96 212.04 C 282.16 217.24 287.10 220.21 289.92 224.10 C 289.21 224.30 287.78 224.71 287.07 224.91 C 285.45 225.68 283.82 226.43 282.20 227.20 C 280.59 227.74 278.99 228.29 277.39 228.85 C 278.41 226.26 279.27 223.61 280.06 220.95 Z"/>
    <path fill="#fffbcc" d=" M 125.06 234.38 C 127.68 239.08 130.15 243.90 133.26 248.30 L 135.81 249.72 C 131.55 248.80 127.22 248.34 122.88 248.21 C 121.72 247.91 120.56 247.62 119.40 247.35 C 120.32 245.56 121.17 243.74 122.02 241.92 C 123.06 239.42 124.09 236.91 125.06 234.38 Z"/>
    <path fill="#fffbcc" d=" M 273.98 236.14 C 274.45 236.21 275.41 236.37 275.88 236.45 C 277.25 239.84 279.10 243.01 280.83 246.23 C 278.89 246.46 276.96 246.70 275.06 247.11 C 272.54 247.37 270.01 247.56 267.50 247.82 C 268.31 246.51 269.10 245.21 269.89 243.89 C 270.93 242.22 271.99 240.55 273.07 238.90 C 273.38 237.98 273.68 237.06 273.98 236.14 Z"/>
    <path fill="#fffbcc" d=" M 137.14 255.73 C 137.57 255.55 138.42 255.19 138.85 255.01 C 142.22 258.57 145.73 261.99 149.31 265.34 C 142.24 270.92 135.33 276.70 128.45 282.52 C 122.74 286.88 117.27 291.55 111.96 296.38 C 111.34 296.51 110.08 296.76 109.46 296.88 C 113.82 292.51 116.33 286.78 119.98 281.87 C 125.80 273.22 131.70 264.63 137.14 255.73 Z"/>
    <path fill="#fffbcc" d=" M 255.91 260.95 C 257.96 258.73 260.07 256.54 262.48 254.69 C 269.36 266.76 277.05 278.35 284.00 290.37 C 274.64 283.69 266.11 275.95 256.86 269.14 C 255.06 267.66 253.30 266.14 251.56 264.60 C 253.03 263.41 254.49 262.21 255.91 260.95 Z"/>
    <path fill="#fffbcc" d=" M 151.52 267.32 C 151.87 267.40 152.59 267.57 152.95 267.65 C 156.65 270.08 160.33 272.61 164.48 274.21 C 164.54 274.61 164.65 275.42 164.70 275.82 C 162.39 276.75 160.15 277.86 157.97 279.06 C 156.59 279.78 155.20 280.46 153.82 281.17 C 153.60 279.13 153.35 277.08 152.97 275.06 C 152.59 272.46 152.17 269.86 151.52 267.32 Z"/>
    <path fill="#fffbcc" d=" M 234.40 275.17 C 238.97 273.15 243.12 270.36 247.42 267.85 C 247.45 272.82 247.25 277.78 246.13 282.64 C 246.63 279.25 242.93 279.27 240.94 278.03 C 238.77 277.04 236.53 276.23 234.40 275.17 Z"/>
    <path fill="#fffbcc" d=" M 171.40 277.30 C 173.91 278.38 176.50 279.23 179.12 280.01 C 181.68 280.55 184.23 281.14 186.78 281.72 C 182.80 283.86 179.85 287.35 176.30 290.08 C 174.85 286.38 173.25 282.74 171.65 279.10 C 171.59 278.65 171.47 277.75 171.40 277.30 Z"/>
    <path fill="#fffbcc" d=" M 224.89 278.76 C 226.13 278.55 227.37 278.33 228.61 278.10 C 227.36 282.03 225.73 285.85 224.97 289.91 C 221.38 287.73 218.29 284.81 214.63 282.74 L 214.18 281.50 C 217.79 280.77 221.44 280.10 224.89 278.76 Z"/>
    <path fill="#fffbcc" d=" M 191.42 282.38 C 197.42 282.74 203.43 282.73 209.43 282.35 C 208.24 287.88 207.79 293.53 207.12 299.14 C 206.56 301.74 206.38 304.41 206.13 307.06 C 205.56 309.69 205.37 312.38 205.09 315.05 C 204.52 317.68 204.37 320.37 204.09 323.04 C 202.46 333.20 201.53 343.46 199.95 353.63 C 199.59 350.10 199.64 346.53 198.93 343.04 C 198.02 334.73 197.10 326.40 195.86 318.14 C 195.62 315.43 195.47 312.71 194.89 310.06 C 194.62 307.38 194.46 304.68 193.90 302.05 C 193.62 299.37 193.50 296.67 192.91 294.04 C 192.58 290.13 192.23 286.22 191.42 282.38 Z"/>
  </g>
  <g>
    <path fill="#aa93a7" d=" M 191.50 135.77 C 208.61 133.40 226.36 138.55 240.01 149.00 C 246.42 154.60 252.72 160.68 256.53 168.41 C 264.97 182.95 267.32 200.87 262.81 217.07 C 258.01 234.94 245.38 250.68 228.58 258.62 C 204.90 270.98 173.77 265.93 154.96 247.07 C 142.84 235.79 135.73 219.46 134.94 202.98 C 133.86 179.93 146.18 156.87 165.91 144.93 C 173.76 140.29 182.42 136.94 191.50 135.77 Z"/>
  </g>
</svg>
