<?xml version="1.0" encoding="UTF-8"?>
<svg xmlns="http://www.w3.org/2000/svg" width="400pt" height="400pt" viewBox="0 0 400 400" version="1.1">
  <g id="#6b1f00ff">
    <path fill="#6b1f00" d=" M 161.13 66.84 C 173.71 71.93 184.08 81.86 189.94 94.07 C 192.09 98.66 192.32 103.93 191.59 108.87 C 190.12 114.30 185.61 118.08 182.41 122.49 C 178.26 128.09 172.89 133.05 170.74 139.88 C 169.39 144.13 168.23 148.50 167.91 152.96 C 168.30 158.78 170.75 164.16 173.08 169.41 C 179.71 168.52 186.39 167.82 193.08 167.89 C 195.82 167.79 198.72 170.18 198.45 173.06 C 198.53 183.73 198.42 194.39 198.49 205.06 C 198.63 210.78 196.76 216.31 196.83 222.03 C 196.77 241.07 199.26 260.04 198.56 279.10 C 198.28 283.77 198.98 288.67 197.12 293.10 C 195.69 296.67 193.91 300.09 191.87 303.35 C 190.41 303.30 188.96 303.25 187.51 303.21 C 188.45 300.11 189.90 296.54 187.96 293.52 C 186.57 297.04 185.24 300.73 182.27 303.27 C 180.16 297.40 178.31 291.35 174.99 286.01 C 173.36 283.46 170.46 282.29 167.85 281.05 C 166.83 283.35 165.84 285.68 164.88 288.01 C 167.22 294.26 166.08 301.49 161.55 306.47 C 160.84 303.91 160.25 301.18 158.26 299.26 C 152.18 301.52 146.87 306.16 144.19 312.11 C 142.48 315.76 142.87 320.29 145.47 323.43 C 148.42 327.48 152.87 329.92 156.95 332.64 C 142.38 334.11 126.76 329.90 115.74 320.05 C 104.63 321.87 92.66 325.76 81.87 320.47 C 93.37 315.76 103.27 307.30 109.69 296.65 C 113.86 289.60 118.72 282.83 121.55 275.09 C 122.43 272.97 121.93 270.73 121.24 268.64 C 118.10 267.60 114.88 268.04 111.80 269.04 C 108.29 259.38 105.13 248.84 97.21 241.78 C 91.52 236.99 83.68 239.36 77.02 239.87 C 68.32 240.38 61.70 246.63 54.14 250.16 C 45.44 254.52 35.18 254.20 25.91 252.05 C 19.03 249.98 12.13 247.32 6.51 242.74 C 12.16 242.53 18.03 242.77 23.27 240.28 C 33.56 236.13 39.60 226.30 45.52 217.50 C 51.33 209.49 56.29 200.42 64.67 194.74 C 68.78 191.62 73.75 189.95 77.89 186.89 C 76.56 180.93 75.37 174.93 74.61 168.87 C 73.74 159.25 74.86 149.61 75.33 140.00 C 72.79 141.96 70.73 144.43 68.94 147.08 C 63.88 148.11 59.73 151.43 57.26 155.92 C 57.14 147.36 61.11 139.48 65.21 132.21 C 73.48 118.14 88.03 109.58 101.99 102.05 C 106.10 99.95 108.51 95.84 109.99 91.62 C 110.99 97.47 109.78 103.40 107.93 108.95 C 106.17 114.14 102.75 118.67 101.62 124.09 C 98.91 134.50 102.08 145.54 107.60 154.47 C 112.26 161.90 118.00 168.73 124.85 174.23 C 128.54 173.52 132.27 173.04 136.01 172.60 C 133.86 164.09 131.40 155.66 129.59 147.07 C 127.95 139.57 130.60 131.42 136.03 126.06 C 141.87 120.12 148.78 115.41 155.31 110.29 C 162.37 105.01 167.92 96.99 168.34 87.98 C 168.01 80.37 164.28 73.58 161.13 66.84 M 172.08 78.89 C 172.52 82.25 173.13 85.62 173.08 89.02 C 172.91 95.11 170.28 100.88 166.75 105.74 C 161.52 112.89 153.67 117.33 146.97 122.91 C 142.24 126.87 136.84 130.86 134.86 136.99 C 133.02 143.10 135.00 149.41 136.59 155.34 C 138.25 162.46 140.50 169.43 141.94 176.61 C 136.24 177.38 130.60 178.56 124.88 179.18 C 122.87 179.68 121.49 177.93 120.10 176.83 C 113.48 170.77 107.49 163.93 102.89 156.20 C 97.53 147.18 94.51 136.48 96.17 125.98 C 97.04 119.18 101.03 113.42 103.29 107.08 C 87.89 114.94 71.90 125.46 65.67 142.43 C 70.68 137.83 75.63 133.15 81.10 129.10 C 79.72 146.97 77.31 165.40 82.17 182.97 C 82.81 185.39 83.30 188.29 81.24 190.20 C 77.64 193.91 72.35 195.18 68.26 198.23 C 60.92 202.92 56.44 210.59 51.49 217.51 C 46.25 224.84 41.77 232.92 34.82 238.84 C 31.45 241.84 27.31 243.72 23.46 245.98 C 31.52 249.00 40.69 250.02 48.90 247.01 C 54.82 244.99 59.73 240.97 65.31 238.24 C 71.39 235.10 78.36 234.74 85.03 233.92 C 90.80 233.20 96.96 234.71 101.25 238.77 C 108.19 245.12 111.45 254.19 114.95 262.67 C 117.77 262.99 120.90 262.87 123.27 264.70 C 126.20 266.69 127.88 270.48 126.94 273.98 C 125.64 279.66 122.60 284.73 119.68 289.71 C 115.73 296.01 112.22 302.67 107.25 308.26 C 104.09 312.00 100.17 314.97 96.55 318.24 C 103.67 317.34 110.69 315.84 117.80 314.82 C 123.80 321.92 132.96 325.19 141.77 327.14 C 139.94 323.66 137.63 320.04 138.12 315.92 C 138.62 311.38 140.86 307.17 143.74 303.68 C 148.18 298.61 154.25 293.92 161.41 294.69 C 160.71 292.71 159.98 290.75 159.17 288.82 C 160.84 284.37 162.94 280.11 164.96 275.81 C 168.58 276.60 172.42 277.25 175.48 279.52 C 179.44 282.31 181.02 287.11 183.32 291.16 C 183.97 289.69 184.62 288.23 185.27 286.76 C 187.82 288.23 190.36 289.74 192.84 291.32 C 195.96 267.25 191.01 243.11 191.98 218.99 C 192.22 213.95 193.73 209.05 193.70 203.99 C 193.68 193.63 193.68 183.28 193.68 172.92 C 185.84 172.52 178.01 173.42 170.30 174.79 C 167.69 169.47 165.14 164.06 163.67 158.30 C 162.01 151.23 164.15 144.05 166.46 137.38 C 168.87 130.23 174.49 124.93 178.90 119.01 C 182.27 114.43 187.60 110.28 187.19 104.00 C 186.65 93.74 179.20 85.57 172.08 78.89 Z"/>
    <path fill="#6b1f00" d=" M 213.11 88.98 C 219.12 79.00 228.38 71.28 239.11 66.81 C 235.95 73.56 232.25 80.36 231.90 87.97 C 232.28 95.93 236.66 103.26 242.60 108.39 C 250.19 114.75 258.77 120.00 265.42 127.42 C 268.39 130.61 270.01 134.80 270.89 139.02 C 272.07 144.77 269.66 150.36 268.59 155.93 C 267.11 161.47 265.69 167.03 264.23 172.59 C 267.95 173.02 271.67 173.54 275.35 174.25 C 285.07 166.11 293.47 155.81 297.67 143.73 C 299.51 137.67 300.38 131.14 298.80 124.91 C 297.77 119.07 294.08 114.23 292.21 108.68 C 290.40 103.16 289.23 97.26 290.32 91.46 C 291.61 95.67 293.96 99.73 297.96 101.87 C 308.11 107.41 318.35 113.18 326.58 121.44 C 333.51 128.13 338.14 136.83 341.37 145.81 C 342.57 148.91 342.69 152.25 342.93 155.52 C 340.22 151.35 336.23 148.08 331.28 147.06 C 329.51 144.42 327.42 141.99 324.88 140.06 C 325.51 149.81 326.40 159.61 325.59 169.38 C 325.06 175.32 323.11 181.07 322.66 187.00 C 326.25 190.04 331.01 191.31 334.76 194.18 C 342.75 199.20 347.63 207.48 352.98 214.98 C 359.33 224.02 364.99 234.52 375.35 239.58 C 381.14 242.68 387.78 242.63 394.15 242.76 C 382.30 250.97 367.29 255.77 352.90 252.61 C 342.08 250.37 334.29 240.53 323.00 239.84 C 316.56 239.35 309.15 237.14 303.50 241.40 C 295.32 248.38 291.94 259.09 288.58 268.93 C 285.49 268.43 281.86 266.88 279.11 269.10 C 277.48 271.06 278.26 273.88 278.98 276.07 C 282.12 283.53 286.70 290.24 290.86 297.14 C 297.26 307.54 307.01 315.77 318.28 320.46 C 307.54 325.82 295.57 321.81 284.49 320.06 C 273.44 329.88 257.85 334.14 243.27 332.64 C 249.11 328.86 256.55 324.72 257.23 316.97 C 256.35 308.67 249.44 301.98 241.84 299.29 C 239.92 301.22 239.42 303.93 238.85 306.48 C 234.06 301.64 233.11 294.22 235.40 287.97 C 234.37 285.65 233.35 283.32 232.30 281.02 C 229.95 282.27 227.25 283.27 225.60 285.49 C 221.88 290.91 220.36 297.42 217.70 303.36 C 215.13 300.56 213.62 297.08 212.28 293.58 C 210.06 296.53 211.82 300.13 212.78 303.21 C 211.29 303.25 209.80 303.30 208.32 303.36 C 205.30 297.97 201.78 292.37 201.72 285.99 C 201.50 277.33 201.45 268.66 201.72 260.00 C 202.48 247.03 203.55 234.05 203.37 221.04 C 203.40 215.61 201.53 210.37 201.63 204.94 C 201.67 194.62 201.64 184.29 201.64 173.97 C 201.16 170.89 203.88 167.87 206.95 167.90 C 213.68 167.80 220.41 168.49 227.07 169.42 C 229.57 163.93 232.29 158.20 232.31 152.06 C 231.35 145.64 229.92 139.06 226.43 133.49 C 221.53 126.80 216.04 120.56 211.05 113.95 C 205.77 106.40 208.28 96.09 213.11 88.98 M 213.30 101.97 C 212.57 106.08 213.89 110.29 216.74 113.31 C 220.82 118.24 224.78 123.27 228.76 128.30 C 233.33 133.91 235.33 141.08 236.75 148.05 C 238.65 157.59 233.91 166.56 229.90 174.87 C 222.25 173.35 214.44 172.69 206.65 172.80 C 206.54 182.86 206.66 192.92 206.57 202.98 C 206.42 208.72 208.23 214.29 208.23 220.03 C 208.27 226.69 208.26 233.37 207.98 240.03 C 207.28 257.11 204.84 274.40 207.67 291.39 C 210.02 289.67 212.44 288.05 214.97 286.60 C 215.67 288.19 216.36 289.78 217.05 291.37 C 218.60 288.20 219.92 284.86 222.05 282.02 C 225.15 278.20 230.17 276.44 234.94 276.01 C 237.84 279.67 239.08 284.58 241.15 288.81 C 240.23 290.73 239.47 292.72 238.81 294.75 C 241.58 294.77 244.52 294.56 247.00 296.03 C 254.31 299.88 260.45 306.69 262.09 314.95 C 263.00 319.39 260.55 323.44 258.42 327.10 C 267.34 325.15 276.60 321.80 282.63 314.58 C 289.64 316.12 296.74 317.16 303.82 318.32 C 300.04 315.07 296.09 311.97 292.86 308.14 C 288.04 302.74 284.65 296.31 280.82 290.21 C 277.92 285.27 274.88 280.27 273.43 274.68 C 272.50 271.32 273.40 267.46 276.20 265.25 C 278.69 262.91 282.24 262.84 285.45 262.61 C 287.14 258.08 288.82 253.52 291.15 249.27 C 294.56 242.96 299.31 236.49 306.57 234.47 C 313.22 232.77 320.08 234.56 326.71 235.45 C 336.66 236.98 343.80 245.07 353.37 247.61 C 361.05 249.87 369.30 248.64 376.74 246.02 C 372.87 243.69 368.67 241.84 365.30 238.77 C 358.34 232.83 353.89 224.71 348.61 217.38 C 343.68 210.46 339.20 202.79 331.83 198.16 C 327.76 195.09 322.39 193.93 318.89 190.12 C 315.77 186.66 318.69 182.09 319.19 178.20 C 322.04 162.86 321.45 147.11 320.01 131.64 C 325.40 134.70 330.26 138.55 334.81 142.75 C 328.36 125.67 312.43 114.97 296.85 107.02 C 299.11 113.05 302.91 118.53 303.91 125.00 C 304.80 131.28 304.68 137.83 302.77 143.91 C 298.43 158.24 288.24 169.92 277.07 179.51 C 270.74 178.60 264.41 177.65 258.12 176.51 C 260.55 166.90 263.25 157.36 265.52 147.71 C 266.86 141.98 266.01 135.49 261.97 130.99 C 255.49 123.69 247.04 118.58 239.62 112.34 C 234.01 107.56 229.64 101.18 227.77 94.01 C 226.55 89.03 227.32 83.85 228.21 78.88 C 221.54 85.13 214.66 92.59 213.30 101.97 Z"/>
    <path fill="#6b1f00" d=" M 117.55 209.12 C 130.42 210.50 143.98 210.22 155.82 216.17 C 163.56 220.21 171.01 224.80 178.13 229.86 C 177.33 232.54 176.62 235.26 175.79 237.94 C 175.02 242.01 170.17 243.16 168.92 247.00 C 167.54 251.01 163.25 253.73 159.04 253.01 C 154.15 252.28 149.33 250.57 145.27 247.72 C 140.69 244.48 138.53 239.10 135.21 234.78 C 133.11 231.87 129.97 230.01 127.10 227.97 C 127.34 225.43 128.54 222.51 126.89 220.21 C 124.16 216.20 120.49 212.96 117.55 209.12 M 132.75 225.83 C 138.26 229.20 141.26 235.04 144.75 240.22 C 148.16 245.28 154.39 247.16 160.09 248.20 C 162.98 248.45 164.09 245.32 165.25 243.28 C 166.37 240.85 168.73 239.43 170.47 237.51 C 171.47 235.76 171.94 233.76 172.62 231.88 C 166.33 227.91 160.09 223.82 153.44 220.46 C 145.97 216.67 137.48 216.04 129.34 214.77 C 131.20 218.21 133.33 221.67 132.75 225.83 Z"/>
    <path fill="#6b1f00" d=" M 258.62 211.54 C 266.66 210.44 274.76 209.76 282.84 209.02 C 279.85 212.94 276.06 216.21 273.35 220.33 C 271.52 222.67 272.89 225.54 273.52 228.04 C 271.39 229.38 269.17 230.61 267.29 232.31 C 262.58 236.72 260.65 243.43 255.45 247.39 C 251.26 250.51 246.17 252.29 241.04 253.05 C 238.27 253.58 235.49 252.26 233.38 250.57 C 231.89 248.64 231.19 246.24 229.70 244.33 C 228.38 242.95 226.76 241.92 225.45 240.53 C 224.01 237.43 223.22 234.06 222.39 230.75 C 221.90 229.19 223.95 228.68 224.82 227.82 C 235.42 221.20 245.97 213.53 258.62 211.54 M 245.98 220.86 C 239.66 224.18 233.65 228.04 227.64 231.89 C 228.30 233.76 228.80 235.70 229.73 237.47 C 231.58 239.50 234.06 241.03 235.20 243.64 C 236.12 245.75 237.50 247.58 239.65 248.53 C 245.08 246.98 251.26 245.81 254.89 241.02 C 258.70 235.66 261.69 229.40 267.49 225.83 C 267.27 221.88 268.54 218.11 270.80 214.90 C 262.36 215.95 253.61 216.81 245.98 220.86 Z"/>
  </g>
  <g id="#ab1010ff">
    <path fill="#ab1010" d=" M 172.08 78.89 C 179.20 85.57 186.65 93.74 187.19 104.00 C 187.60 110.28 182.27 114.43 178.90 119.01 C 174.49 124.93 168.87 130.23 166.46 137.38 C 164.15 144.05 162.01 151.23 163.67 158.30 C 165.14 164.06 167.69 169.47 170.30 174.79 C 178.01 173.42 185.84 172.52 193.68 172.92 C 193.68 183.28 193.68 193.63 193.70 203.99 C 193.73 209.05 192.22 213.95 191.98 218.99 C 191.01 243.11 195.96 267.25 192.84 291.32 C 190.36 289.74 187.82 288.23 185.27 286.76 C 184.62 288.23 183.97 289.69 183.32 291.16 C 181.02 287.11 179.44 282.31 175.48 279.52 C 172.42 277.25 168.58 276.60 164.96 275.81 C 162.94 280.11 160.84 284.37 159.17 288.82 C 159.98 290.75 160.71 292.71 161.41 294.69 C 154.25 293.92 148.18 298.61 143.74 303.68 C 140.86 307.17 138.62 311.38 138.12 315.92 C 137.63 320.04 139.94 323.66 141.77 327.14 C 132.96 325.19 123.80 321.92 117.80 314.82 C 110.69 315.84 103.67 317.34 96.55 318.24 C 100.17 314.97 104.09 312.00 107.25 308.26 C 112.22 302.67 115.73 296.01 119.68 289.71 C 122.60 284.73 125.64 279.66 126.94 273.98 C 127.88 270.48 126.20 266.69 123.27 264.70 C 120.90 262.87 117.77 262.99 114.95 262.67 C 111.45 254.19 108.19 245.12 101.25 238.77 C 96.96 234.71 90.80 233.20 85.03 233.92 C 78.36 234.74 71.39 235.10 65.31 238.24 C 59.73 240.97 54.82 244.99 48.90 247.01 C 40.69 250.02 31.52 249.00 23.46 245.98 C 27.31 243.72 31.45 241.84 34.82 238.84 C 41.77 232.92 46.25 224.84 51.49 217.51 C 56.44 210.59 60.92 202.92 68.26 198.23 C 72.35 195.18 77.64 193.91 81.24 190.20 C 83.30 188.29 82.81 185.39 82.17 182.97 C 77.31 165.40 79.72 146.97 81.10 129.10 C 75.63 133.15 70.68 137.83 65.67 142.43 C 71.90 125.46 87.89 114.94 103.29 107.08 C 101.03 113.42 97.04 119.18 96.17 125.98 C 94.51 136.48 97.53 147.18 102.89 156.20 C 107.49 163.93 113.48 170.77 120.10 176.83 C 121.49 177.93 122.87 179.68 124.88 179.18 C 130.60 178.56 136.24 177.38 141.94 176.61 C 140.50 169.43 138.25 162.46 136.59 155.34 C 135.00 149.41 133.02 143.10 134.86 136.99 C 136.84 130.86 142.24 126.87 146.97 122.91 C 153.67 117.33 161.52 112.89 166.75 105.74 C 170.28 100.88 172.91 95.11 173.08 89.02 C 173.13 85.62 172.52 82.25 172.08 78.89 M 117.55 209.12 C 120.49 212.96 124.16 216.20 126.89 220.21 C 128.54 222.51 127.34 225.43 127.10 227.97 C 129.97 230.01 133.11 231.87 135.21 234.78 C 138.53 239.10 140.69 244.48 145.27 247.72 C 149.33 250.57 154.15 252.28 159.04 253.01 C 163.25 253.73 167.54 251.01 168.92 247.00 C 170.17 243.16 175.02 242.01 175.79 237.94 C 176.62 235.26 177.33 232.54 178.13 229.86 C 171.01 224.80 163.56 220.21 155.82 216.17 C 143.98 210.22 130.42 210.50 117.55 209.12 Z"/>
  </g>
  <g id="#070400ff">
    <path fill="#070400" d=" M 213.30 101.97 C 214.66 92.59 221.54 85.13 228.21 78.88 C 227.32 83.85 226.55 89.03 227.77 94.01 C 229.64 101.18 234.01 107.56 239.62 112.34 C 247.04 118.58 255.49 123.69 261.97 130.99 C 266.01 135.49 266.86 141.98 265.52 147.71 C 263.25 157.36 260.55 166.90 258.12 176.51 C 264.41 177.65 270.74 178.60 277.07 179.51 C 288.24 169.92 298.43 158.24 302.77 143.91 C 304.68 137.83 304.80 131.28 303.91 125.00 C 302.91 118.53 299.11 113.05 296.85 107.02 C 312.43 114.97 328.36 125.67 334.81 142.75 C 330.26 138.55 325.40 134.70 320.01 131.64 C 321.45 147.11 322.04 162.86 319.19 178.20 C 318.69 182.09 315.77 186.66 318.89 190.12 C 322.39 193.93 327.76 195.09 331.83 198.16 C 339.20 202.79 343.68 210.46 348.61 217.38 C 353.89 224.71 358.34 232.83 365.30 238.77 C 368.67 241.84 372.87 243.69 376.74 246.02 C 369.30 248.64 361.05 249.87 353.37 247.61 C 343.80 245.07 336.66 236.98 326.71 235.45 C 320.08 234.56 313.22 232.77 306.57 234.47 C 299.31 236.49 294.56 242.96 291.15 249.27 C 288.82 253.52 287.14 258.08 285.45 262.61 C 282.24 262.84 278.69 262.91 276.20 265.25 C 273.40 267.46 272.50 271.32 273.43 274.68 C 274.88 280.27 277.92 285.27 280.82 290.21 C 284.65 296.31 288.04 302.74 292.86 308.14 C 296.09 311.97 300.04 315.07 303.82 318.32 C 296.74 317.16 289.64 316.12 282.63 314.58 C 276.60 321.80 267.34 325.15 258.42 327.10 C 260.55 323.44 263.00 319.39 262.09 314.95 C 260.45 306.69 254.31 299.88 247.00 296.03 C 244.52 294.56 241.58 294.77 238.81 294.75 C 239.47 292.72 240.23 290.73 241.15 288.81 C 239.08 284.58 237.84 279.67 234.94 276.01 C 230.17 276.44 225.15 278.20 222.05 282.02 C 219.92 284.86 218.60 288.20 217.05 291.37 C 216.36 289.78 215.67 288.19 214.97 286.60 C 212.44 288.05 210.02 289.67 207.67 291.39 C 204.84 274.40 207.28 257.11 207.98 240.03 C 208.26 233.37 208.27 226.69 208.23 220.03 C 208.23 214.29 206.42 208.72 206.57 202.98 C 206.66 192.92 206.54 182.86 206.65 172.80 C 214.44 172.69 222.25 173.35 229.90 174.87 C 233.91 166.56 238.65 157.59 236.75 148.05 C 235.33 141.08 233.33 133.91 228.76 128.30 C 224.78 123.27 220.82 118.24 216.74 113.31 C 213.89 110.29 212.57 106.08 213.30 101.97 M 258.62 211.54 C 245.97 213.53 235.42 221.20 224.82 227.82 C 223.95 228.68 221.90 229.19 222.39 230.75 C 223.22 234.06 224.01 237.43 225.45 240.53 C 226.76 241.92 228.38 242.95 229.70 244.33 C 231.19 246.24 231.89 248.64 233.38 250.57 C 235.49 252.26 238.27 253.58 241.04 253.05 C 246.17 252.29 251.26 250.51 255.45 247.39 C 260.65 243.43 262.58 236.72 267.29 232.31 C 269.17 230.61 271.39 229.38 273.52 228.04 C 272.89 225.54 271.52 222.67 273.35 220.33 C 276.06 216.21 279.85 212.94 282.84 209.02 C 274.76 209.76 266.66 210.44 258.62 211.54 Z"/>
  </g>
</svg>
