<?xml version="1.0" encoding="UTF-8"?>
<svg xmlns="http://www.w3.org/2000/svg" width="400pt" height="400pt" viewBox="0 0 400 400" version="1.1">
  <g id="#929461ff">
    <path fill="#929461" d=" M 199.73 7.14 C 200.83 7.27 201.01 8.68 201.64 9.39 C 209.11 22.35 216.76 35.21 224.28 48.14 C 236.65 37.59 248.52 26.43 261.05 16.08 C 264.31 31.91 267.39 47.79 270.59 63.64 C 285.59 57.24 300.65 50.97 315.67 44.62 C 313.64 60.40 311.75 76.21 309.72 91.99 C 325.92 90.87 342.07 89.12 358.28 88.04 C 351.89 102.63 345.48 117.20 339.22 131.85 C 355.00 135.35 370.75 139.02 386.52 142.61 C 375.70 154.19 364.96 165.85 354.18 177.46 C 368.02 185.73 381.83 194.06 395.67 202.33 C 380.62 211.05 365.55 219.71 350.50 228.43 C 351.65 217.65 351.35 206.81 351.38 195.99 C 351.24 168.80 342.79 141.81 327.78 119.18 C 308.71 90.35 279.67 68.27 246.87 57.43 C 218.25 47.96 186.77 47.43 157.88 56.04 C 124.73 65.78 95.34 87.21 75.29 115.27 C 57.56 139.77 49.34 170.06 48.17 200.02 C 48.04 208.43 48.68 216.85 49.74 225.20 C 49.31 225.87 48.45 227.23 48.02 227.90 C 33.45 219.38 18.89 210.85 4.33 202.32 C 18.36 194.21 32.38 186.08 46.44 178.03 C 35.57 166.34 24.87 154.50 13.99 142.83 C 29.65 139.23 45.30 135.58 60.98 132.04 C 54.43 117.33 47.73 102.70 41.13 88.01 C 57.33 89.21 73.50 90.74 89.68 92.09 C 87.94 76.26 86.15 60.44 84.35 44.62 C 99.36 50.98 114.41 57.24 129.40 63.63 C 132.57 47.60 135.74 31.58 138.89 15.54 C 151.20 26.56 163.38 37.73 175.72 48.72 C 183.71 34.85 191.70 20.98 199.73 7.14 M 182.44 46.33 C 194.19 44.94 206.10 44.96 217.85 46.32 C 211.87 36.20 205.95 26.05 200.02 15.90 C 194.19 26.06 188.33 36.20 182.44 46.33 M 141.87 24.53 C 139.55 36.30 137.19 48.07 134.90 59.85 C 145.68 54.91 156.96 51.12 168.54 48.58 C 159.65 40.57 150.81 32.50 141.87 24.53 M 231.16 48.46 C 242.84 50.87 254.20 54.68 265.07 59.58 C 262.69 47.96 260.40 36.32 258.07 24.68 C 249.08 32.58 240.04 40.43 231.16 48.46 M 89.85 52.09 C 91.22 63.81 92.50 75.54 93.83 87.26 C 102.84 79.20 112.60 71.97 123.10 65.98 C 112.00 61.41 101.00 56.56 89.85 52.09 M 277.57 65.69 C 287.30 72.14 297.12 78.55 305.75 86.49 C 307.12 75.02 308.74 63.58 309.93 52.09 C 299.14 56.62 288.37 61.19 277.57 65.69 M 48.58 93.23 C 53.44 103.93 58.27 114.65 63.11 125.37 C 69.38 115.03 76.51 105.25 84.64 96.29 C 72.62 95.30 60.60 94.22 48.58 93.23 M 315.71 96.25 C 323.83 105.08 331.03 114.75 337.01 125.16 C 341.62 114.50 346.28 103.87 350.92 93.22 C 339.18 94.22 327.44 95.19 315.71 96.25 M 22.84 145.60 C 30.93 154.10 38.63 162.95 46.78 171.39 C 49.03 159.81 52.44 148.46 57.14 137.64 C 45.72 140.34 34.26 142.86 22.84 145.60 M 343.24 137.46 C 348.07 148.22 351.55 159.55 353.74 171.14 C 361.63 162.47 369.66 153.95 377.59 145.33 C 366.14 142.70 354.68 140.12 343.24 137.46 M 355.44 183.60 C 356.19 195.71 356.13 207.86 355.78 219.98 C 365.97 214.12 376.14 208.22 386.33 202.36 C 376.20 195.83 365.67 189.95 355.44 183.60 M 13.70 202.27 C 23.84 208.55 34.27 214.35 44.51 220.48 C 43.19 208.46 43.13 196.32 44.75 184.33 C 34.42 190.33 24.06 196.30 13.70 202.27 Z"/>
    <path fill="#929461" d=" M 169.27 62.85 C 173.99 62.02 178.72 61.17 183.43 60.26 C 188.92 69.21 194.26 78.24 199.77 87.18 C 205.34 78.17 211.01 69.23 216.64 60.27 C 221.35 61.16 226.08 62.02 230.80 62.86 C 223.78 76.29 216.50 89.61 209.67 103.14 C 209.91 120.01 210.90 136.90 211.49 153.77 C 219.82 140.00 228.03 126.16 236.34 112.38 C 237.71 110.54 237.44 108.19 237.54 106.04 C 237.73 92.18 238.28 78.32 238.49 64.46 C 242.93 66.02 247.37 67.57 251.83 69.06 C 252.62 80.22 253.14 91.41 253.77 102.59 C 263.40 97.04 273.02 91.47 282.72 86.05 C 286.49 89.17 290.32 92.22 294.19 95.21 C 281.52 103.89 268.35 111.88 255.87 120.79 C 248.00 135.77 240.68 151.07 233.11 166.22 C 247.05 158.07 261.00 149.96 274.97 141.87 C 276.49 141.11 277.56 139.78 278.34 138.31 C 285.51 125.78 292.80 113.32 299.97 100.80 C 303.24 104.30 306.49 107.83 309.79 111.32 C 304.84 121.44 299.91 131.56 294.91 141.65 C 306.28 141.58 317.65 141.37 329.03 141.27 C 330.72 145.77 332.40 150.28 334.16 154.77 C 319.43 156.14 304.66 157.03 289.93 158.29 C 288.18 158.29 286.81 159.45 285.43 160.35 C 272.56 169.39 259.49 178.15 246.66 187.25 C 262.79 186.77 278.92 186.29 295.04 185.72 C 296.35 185.78 297.52 185.19 298.60 184.53 C 311.32 176.82 324.06 169.15 336.81 161.50 C 337.72 166.14 338.65 170.78 339.68 175.40 C 330.49 182.00 321.28 188.60 312.01 195.09 C 321.97 200.55 331.88 206.13 341.88 211.53 C 341.58 216.18 341.00 220.80 340.35 225.41 C 320.89 216.11 300.07 206.99 278.01 208.54 C 264.67 209.77 250.95 213.70 240.63 222.59 C 227.80 234.57 222.55 252.79 223.17 269.97 C 223.77 288.86 230.03 308.01 242.35 322.53 C 249.74 331.53 260.89 336.12 271.81 339.19 C 285.24 342.68 299.49 343.50 313.12 340.70 C 308.51 345.23 304.05 349.91 299.34 354.33 C 288.12 352.69 276.52 353.12 265.63 349.60 C 262.97 348.79 260.32 347.94 257.64 347.20 C 264.86 355.73 274.78 361.24 285.14 365.06 C 281.78 367.43 278.41 369.78 275.00 372.09 C 269.85 369.20 264.51 366.60 259.59 363.32 C 255.51 360.16 251.71 356.60 247.20 354.04 C 252.88 362.03 258.79 369.86 264.41 377.90 C 261.37 379.40 258.24 380.73 255.04 381.84 C 252.44 377.07 249.73 371.22 243.76 370.18 C 240.27 375.02 242.09 381.26 242.84 386.67 C 236.52 388.34 230.17 389.89 223.78 391.26 C 221.39 386.11 217.32 382.01 212.82 378.65 C 210.20 383.08 208.78 388.05 207.23 392.92 C 202.41 392.96 197.60 393.02 192.78 393.00 C 191.23 388.05 189.68 383.05 187.18 378.47 C 182.62 382.11 179.14 386.83 175.42 391.27 C 169.43 389.61 163.37 388.19 157.33 386.68 C 158.54 381.28 160.51 373.89 155.02 370.13 C 150.96 373.48 147.94 377.83 144.92 382.09 C 141.95 380.64 138.99 379.17 136.04 377.69 C 140.96 368.06 148.96 360.52 155.28 351.85 C 150.76 354.68 147.25 358.80 142.86 361.81 C 137.27 365.76 131.34 369.41 124.93 371.86 C 121.17 370.67 118.25 367.81 115.17 365.47 C 125.58 360.92 135.07 354.30 143.42 346.63 C 129.92 352.06 115.27 354.33 100.76 354.37 C 95.82 350.39 91.61 345.53 86.99 341.17 C 106.71 344.45 127.31 341.08 145.13 332.13 C 158.55 323.70 167.79 309.81 172.94 295.04 C 178.84 277.86 179.68 258.38 172.61 241.41 C 167.49 228.78 157.07 218.55 144.43 213.50 C 129.14 207.16 111.91 207.86 96.05 211.59 C 83.34 214.64 70.98 219.36 59.61 225.84 C 59.18 220.86 58.64 215.90 58.20 210.93 C 68.14 205.72 78.09 200.54 87.99 195.25 C 78.76 188.84 69.70 182.17 60.46 175.77 C 61.34 170.93 62.34 166.12 63.25 161.30 C 75.85 168.84 88.42 176.44 100.99 184.06 C 102.19 184.79 103.52 185.41 104.97 185.34 C 121.06 185.77 137.14 186.43 153.23 186.81 C 140.40 177.92 127.44 169.21 114.61 160.31 C 113.23 159.41 111.84 158.27 110.10 158.29 C 95.28 157.05 80.44 156.08 65.63 154.80 C 67.53 150.37 69.44 145.94 71.26 141.48 C 82.55 141.53 93.83 141.67 105.12 141.65 C 100.18 131.66 95.32 121.63 90.29 111.68 C 93.46 108.03 96.60 104.35 99.91 100.83 C 107.75 114.08 115.34 127.50 123.46 140.56 C 137.75 149.49 152.53 157.70 166.97 166.43 C 159.86 152.05 152.60 137.75 145.50 123.37 C 144.88 122.17 144.25 120.90 143.05 120.19 C 130.59 111.92 118.08 103.74 105.65 95.44 C 109.63 92.55 113.31 89.26 117.35 86.45 C 127.18 91.42 136.63 97.24 146.28 102.60 C 146.92 91.59 147.51 80.58 148.18 69.57 C 152.81 67.92 157.45 66.29 162.09 64.66 C 162.20 79.10 162.45 93.54 162.63 107.99 C 162.40 110.30 163.90 112.17 164.97 114.07 C 172.91 127.16 180.48 140.49 188.55 153.50 C 189.25 137.98 189.57 122.45 190.29 106.93 C 190.31 105.12 190.52 103.19 189.51 101.59 C 182.76 88.68 176.03 75.76 169.27 62.85 M 172.84 64.56 C 178.94 76.57 185.29 88.47 191.51 100.42 C 192.72 102.41 192.68 104.75 192.56 106.99 C 191.80 125.08 191.28 143.18 190.56 161.27 C 185.62 153.79 181.35 145.89 176.67 138.24 C 171.40 129.00 165.49 120.09 160.59 110.67 C 160.02 96.46 160.10 82.19 159.78 67.95 C 156.62 69.00 153.49 70.11 150.37 71.25 C 149.68 82.87 148.99 94.49 148.41 106.11 C 137.98 101.05 128.30 94.53 117.93 89.40 C 114.79 90.39 112.37 93.42 109.73 95.47 C 121.21 102.92 132.58 110.56 144.03 118.05 C 146.60 119.59 147.60 122.53 148.90 125.06 C 156.64 140.78 164.64 156.39 172.34 172.13 C 157.02 163.36 141.92 154.19 126.63 145.35 C 124.38 144.01 121.81 142.82 120.50 140.42 C 113.55 128.53 106.48 116.71 99.58 104.79 C 97.30 107.10 95.14 109.51 93.06 112.00 C 98.31 122.64 103.55 133.28 108.82 143.91 C 96.83 143.88 84.85 143.83 72.86 143.75 C 71.53 146.75 70.26 149.78 69.03 152.83 C 81.01 153.73 92.99 154.70 104.98 155.56 C 108.42 155.88 112.28 155.54 115.14 157.87 C 130.23 168.44 145.66 178.52 160.65 189.24 C 142.42 188.96 124.20 188.09 105.98 187.68 C 104.13 187.63 102.18 187.55 100.58 186.49 C 88.70 179.30 76.80 172.12 64.90 164.95 C 64.22 168.20 63.58 171.45 63.03 174.73 C 72.76 181.71 82.65 188.49 92.24 195.67 C 81.71 201.14 71.27 206.78 60.69 212.16 C 60.91 215.45 61.21 218.74 61.55 222.03 C 75.23 215.11 89.84 209.80 105.04 207.54 C 121.43 205.04 139.14 206.63 153.47 215.53 C 165.53 222.74 174.01 235.09 177.50 248.60 C 182.28 266.94 179.69 286.80 171.83 303.92 C 166.21 316.03 157.62 327.10 146.18 334.18 C 130.00 342.27 111.60 345.95 93.55 344.34 C 96.31 346.93 98.60 350.19 101.94 352.09 C 116.65 351.80 131.65 349.58 145.06 343.23 C 145.19 345.22 146.11 347.73 144.13 349.14 C 136.77 355.83 128.43 361.41 119.66 366.07 C 121.37 367.27 123.10 368.46 124.84 369.64 C 132.85 365.78 140.65 361.30 147.25 355.27 C 150.20 352.91 152.92 349.54 156.89 349.06 C 158.21 349.75 158.35 351.44 157.54 352.60 C 151.67 360.80 144.38 367.99 139.13 376.66 C 140.77 377.50 142.42 378.33 144.07 379.18 C 146.91 375.61 149.41 371.62 153.12 368.88 C 155.17 367.29 157.85 369.14 159.10 370.91 C 161.96 375.08 160.66 380.35 160.23 385.02 C 164.96 386.22 169.72 387.34 174.41 388.69 C 178.21 384.70 181.21 379.77 185.95 376.80 C 187.17 375.92 188.59 376.49 189.26 377.74 C 191.81 381.73 192.98 386.40 194.48 390.85 C 198.16 390.84 201.83 390.80 205.50 390.72 C 207.44 385.89 208.12 379.93 212.27 376.42 C 218.07 378.27 221.80 383.86 225.21 388.62 C 230.21 387.50 235.18 386.28 240.13 385.02 C 239.68 380.50 238.81 375.76 240.34 371.36 C 241.06 369.06 243.61 367.69 245.93 368.46 C 251.06 369.74 253.70 374.84 256.20 379.03 C 257.79 378.36 259.38 377.70 260.97 377.03 C 254.30 367.93 248.06 358.47 240.59 350.00 C 246.85 350.59 252.25 354.10 256.85 358.16 C 262.14 363.02 268.77 365.92 274.94 369.45 C 276.69 368.16 278.42 366.86 280.14 365.53 C 270.42 361.53 261.15 355.73 254.88 347.12 C 254.29 346.29 254.11 345.37 254.37 344.36 C 257.76 344.24 260.89 345.84 264.09 346.73 C 275.21 350.65 287.13 350.55 298.72 351.84 C 301.26 349.32 303.78 346.78 306.27 344.21 C 292.04 345.45 277.47 344.03 264.01 339.13 C 257.28 336.63 250.57 333.60 245.21 328.71 C 237.47 321.72 231.89 312.64 227.92 303.07 C 221.16 286.38 218.71 267.59 222.84 249.93 C 226.16 235.90 234.23 222.22 247.18 215.15 C 262.27 206.91 280.23 204.31 297.11 207.35 C 311.65 209.81 325.25 215.80 338.53 221.99 C 338.88 218.97 339.22 215.95 339.55 212.93 C 328.99 207.09 318.44 201.25 307.87 195.44 C 317.42 188.28 327.24 181.49 336.98 174.61 C 336.50 171.46 335.89 168.33 335.22 165.22 C 324.93 171.21 314.80 177.48 304.58 183.59 C 301.23 185.48 298.07 188.39 293.97 188.14 C 275.61 188.51 257.26 189.34 238.90 189.77 C 253.20 179.77 267.63 169.95 281.95 159.97 C 284.44 158.32 286.80 156.00 289.98 155.96 C 303.63 154.92 317.28 153.91 330.92 152.79 C 329.78 149.68 328.59 146.59 327.35 143.52 C 315.32 143.75 303.28 143.82 291.25 143.93 C 296.52 133.25 301.71 122.53 307.01 111.87 C 304.90 109.40 302.67 107.02 300.32 104.78 C 294.11 115.70 287.71 126.52 281.51 137.45 C 280.18 139.71 279.04 142.33 276.59 143.60 C 260.29 153.00 244.07 162.55 227.77 171.94 C 235.86 155.08 244.44 138.46 252.65 121.66 C 253.93 118.37 257.28 116.86 260.02 115.01 C 270.09 108.38 280.18 101.79 290.20 95.10 C 287.53 93.12 285.25 90.38 282.14 89.14 C 271.81 94.46 262.08 100.93 251.68 106.15 C 250.99 94.32 250.53 82.49 249.59 70.68 C 246.65 69.64 243.66 68.70 240.64 67.92 C 240.48 79.63 240.17 91.34 239.83 103.05 C 239.64 106.74 240.41 110.85 238.07 114.04 C 228.41 129.69 219.35 145.72 209.50 161.25 C 208.74 142.84 208.07 124.43 207.28 106.02 C 207.13 104.09 207.33 102.12 208.34 100.43 C 214.61 88.46 221.10 76.61 227.17 64.54 C 224.06 63.97 220.96 63.40 217.85 62.80 C 211.69 72.25 205.83 81.90 199.78 91.43 C 193.66 82.05 188.25 72.23 182.19 62.80 C 179.07 63.41 175.95 63.98 172.84 64.56 Z"/>
    <path fill="#929461" d=" M 161.06 359.71 C 164.90 353.57 170.47 346.98 178.47 347.40 C 177.95 349.62 177.91 352.51 175.56 353.68 C 171.71 355.74 167.71 357.54 164.16 360.14 C 163.15 361.28 162.07 360.21 161.06 359.71 M 166.77 355.50 C 169.96 353.83 173.68 352.85 176.09 350.00 C 172.19 350.17 169.46 353.04 166.77 355.50 Z"/>
    <path fill="#929461" d=" M 221.82 347.38 C 225.31 348.04 229.19 348.47 231.88 351.05 C 234.37 353.52 236.65 356.22 238.69 359.09 C 238.31 359.45 237.55 360.16 237.17 360.52 C 233.16 358.23 229.16 355.95 224.97 354.01 C 222.36 352.96 222.67 349.60 221.82 347.38 M 224.58 350.22 C 226.30 352.91 229.63 353.65 232.35 354.91 C 230.50 352.33 227.72 350.70 224.58 350.22 Z"/>
    <path fill="#929461" d=" M 199.60 348.56 C 202.23 351.56 203.66 355.31 205.13 358.96 C 206.09 361.40 206.76 364.18 205.68 366.70 C 204.10 370.95 202.25 375.10 200.53 379.30 C 198.22 375.25 196.18 371.05 194.22 366.83 C 193.40 365.36 193.21 363.62 193.88 362.06 C 195.50 357.44 197.72 353.07 199.60 348.56 M 195.68 364.08 C 196.80 367.53 198.71 370.65 200.26 373.91 C 201.47 370.63 203.34 367.52 203.91 364.04 C 203.80 360.10 201.45 356.72 200.09 353.14 C 198.64 356.79 196.69 360.26 195.68 364.08 Z"/>
    <path fill="#929461" d=" M 171.06 365.06 C 175.73 361.45 181.31 359.20 186.60 356.65 C 183.48 362.48 180.10 368.17 176.92 373.97 C 175.43 376.55 173.78 379.49 170.79 380.53 C 168.76 380.90 168.43 378.50 168.50 377.03 C 168.63 372.97 168.91 368.59 171.06 365.06 M 172.69 366.72 C 171.00 370.30 170.84 374.39 170.77 378.29 C 175.37 373.63 177.66 367.31 181.06 361.82 C 178.25 363.39 175.16 364.60 172.69 366.72 Z"/>
    <path fill="#929461" d=" M 220.16 368.77 C 218.33 365.06 214.26 361.69 215.62 357.16 C 219.83 359.31 224.10 361.40 227.99 364.12 C 231.65 366.39 230.62 371.38 231.13 375.04 C 230.94 376.90 231.74 380.52 228.98 380.68 C 224.55 378.11 222.97 372.78 220.16 368.77 M 218.21 361.06 C 221.73 366.70 224.80 372.65 228.76 378.01 C 228.86 374.34 228.57 370.67 228.13 367.03 C 224.97 364.80 221.65 362.81 218.21 361.06 Z"/>
  </g>
  <g id="#f9f7ccff">
    <path fill="#f9f7cc" d=" M 182.44 46.33 C 188.33 36.20 194.19 26.06 200.02 15.90 C 205.95 26.05 211.87 36.20 217.85 46.32 C 206.10 44.96 194.19 44.94 182.44 46.33 Z"/>
    <path fill="#f9f7cc" d=" M 141.87 24.53 C 150.81 32.50 159.65 40.57 168.54 48.58 C 156.96 51.12 145.68 54.91 134.90 59.85 C 137.19 48.07 139.55 36.30 141.87 24.53 Z"/>
    <path fill="#f9f7cc" d=" M 231.16 48.46 C 240.04 40.43 249.08 32.58 258.07 24.68 C 260.40 36.32 262.69 47.96 265.07 59.58 C 254.20 54.68 242.84 50.87 231.16 48.46 Z"/>
    <path fill="#f9f7cc" d=" M 89.85 52.09 C 101.00 56.56 112.00 61.41 123.10 65.98 C 112.60 71.97 102.84 79.20 93.83 87.26 C 92.50 75.54 91.22 63.81 89.85 52.09 Z"/>
    <path fill="#f9f7cc" d=" M 277.57 65.69 C 288.37 61.19 299.14 56.62 309.93 52.09 C 308.74 63.58 307.12 75.02 305.75 86.49 C 297.12 78.55 287.30 72.14 277.57 65.69 Z"/>
    <path fill="#f9f7cc" d=" M 48.58 93.23 C 60.60 94.22 72.62 95.30 84.64 96.29 C 76.51 105.25 69.38 115.03 63.11 125.37 C 58.27 114.65 53.44 103.93 48.58 93.23 Z"/>
    <path fill="#f9f7cc" d=" M 315.71 96.25 C 327.44 95.19 339.18 94.22 350.92 93.22 C 346.28 103.87 341.62 114.50 337.01 125.16 C 331.03 114.75 323.83 105.08 315.71 96.25 Z"/>
    <path fill="#f9f7cc" d=" M 22.84 145.60 C 34.26 142.86 45.72 140.34 57.14 137.64 C 52.44 148.46 49.03 159.81 46.78 171.39 C 38.63 162.95 30.93 154.10 22.84 145.60 Z"/>
    <path fill="#f9f7cc" d=" M 343.24 137.46 C 354.68 140.12 366.14 142.70 377.59 145.33 C 369.66 153.95 361.63 162.47 353.74 171.14 C 351.55 159.55 348.07 148.22 343.24 137.46 Z"/>
    <path fill="#f9f7cc" d=" M 355.44 183.60 C 365.67 189.95 376.20 195.83 386.33 202.36 C 376.14 208.22 365.97 214.12 355.78 219.98 C 356.13 207.86 356.19 195.71 355.44 183.60 Z"/>
    <path fill="#f9f7cc" d=" M 13.70 202.27 C 24.06 196.30 34.42 190.33 44.75 184.33 C 43.13 196.32 43.19 208.46 44.51 220.48 C 34.27 214.35 23.84 208.55 13.70 202.27 Z"/>
  </g>
  <g id="#2d5f20ff">
    <path fill="#2d5f20" d=" M 172.84 64.56 C 175.95 63.98 179.07 63.41 182.19 62.80 C 188.25 72.23 193.66 82.05 199.78 91.43 C 205.83 81.90 211.69 72.25 217.85 62.80 C 220.96 63.40 224.06 63.97 227.17 64.54 C 221.10 76.61 214.61 88.46 208.34 100.43 C 207.33 102.12 207.13 104.09 207.28 106.02 C 208.07 124.43 208.74 142.84 209.50 161.25 C 219.35 145.72 228.41 129.69 238.07 114.04 C 240.41 110.85 239.64 106.74 239.83 103.05 C 240.17 91.34 240.48 79.63 240.64 67.92 C 243.66 68.70 246.65 69.64 249.59 70.68 C 250.53 82.49 250.99 94.32 251.68 106.15 C 262.08 100.93 271.81 94.46 282.14 89.14 C 285.25 90.38 287.53 93.12 290.20 95.10 C 280.18 101.79 270.09 108.38 260.02 115.01 C 257.28 116.86 253.93 118.37 252.65 121.66 C 244.44 138.46 235.86 155.08 227.77 171.94 C 244.07 162.55 260.29 153.00 276.59 143.60 C 279.04 142.33 280.18 139.71 281.51 137.45 C 287.71 126.52 294.11 115.70 300.32 104.78 C 302.67 107.02 304.90 109.40 307.01 111.87 C 301.71 122.53 296.52 133.25 291.25 143.93 C 303.28 143.82 315.32 143.75 327.35 143.52 C 328.59 146.59 329.78 149.68 330.92 152.79 C 317.28 153.91 303.63 154.92 289.98 155.96 C 286.80 156.00 284.44 158.32 281.95 159.97 C 267.63 169.95 253.20 179.77 238.90 189.77 C 257.26 189.34 275.61 188.51 293.97 188.14 C 298.07 188.39 301.23 185.48 304.58 183.59 C 314.80 177.48 324.93 171.21 335.22 165.22 C 335.89 168.33 336.50 171.46 336.98 174.61 C 327.24 181.49 317.42 188.28 307.87 195.44 C 318.44 201.25 328.99 207.09 339.55 212.93 C 339.22 215.95 338.88 218.97 338.53 221.99 C 325.25 215.80 311.65 209.81 297.11 207.35 C 280.23 204.31 262.27 206.91 247.18 215.15 C 234.23 222.22 226.16 235.90 222.84 249.93 C 218.71 267.59 221.16 286.38 227.92 303.07 C 231.89 312.64 237.47 321.72 245.21 328.71 C 250.57 333.60 257.28 336.63 264.01 339.13 C 277.47 344.03 292.04 345.45 306.27 344.21 C 303.78 346.78 301.26 349.32 298.72 351.84 C 287.13 350.55 275.21 350.65 264.09 346.73 C 260.89 345.84 257.76 344.24 254.37 344.36 C 254.11 345.37 254.29 346.29 254.88 347.12 C 261.15 355.73 270.42 361.53 280.14 365.53 C 278.42 366.86 276.69 368.16 274.94 369.45 C 268.77 365.92 262.14 363.02 256.85 358.16 C 252.25 354.10 246.85 350.59 240.59 350.00 C 248.06 358.47 254.30 367.93 260.97 377.03 C 259.38 377.70 257.79 378.36 256.20 379.03 C 253.70 374.84 251.06 369.74 245.93 368.46 C 243.61 367.69 241.06 369.06 240.34 371.36 C 238.81 375.76 239.68 380.50 240.13 385.02 C 235.18 386.28 230.21 387.50 225.21 388.62 C 221.80 383.86 218.07 378.27 212.27 376.42 C 208.12 379.93 207.44 385.89 205.50 390.72 C 201.83 390.80 198.16 390.84 194.48 390.85 C 192.98 386.40 191.81 381.73 189.26 377.74 C 188.59 376.49 187.17 375.92 185.95 376.80 C 181.21 379.77 178.21 384.70 174.41 388.69 C 169.72 387.34 164.96 386.22 160.23 385.02 C 160.66 380.35 161.96 375.08 159.10 370.91 C 157.85 369.14 155.17 367.29 153.12 368.88 C 149.41 371.62 146.91 375.61 144.07 379.18 C 142.42 378.33 140.77 377.50 139.13 376.66 C 144.38 367.99 151.67 360.80 157.54 352.60 C 158.35 351.44 158.21 349.75 156.89 349.06 C 152.92 349.54 150.20 352.91 147.25 355.27 C 140.65 361.30 132.85 365.78 124.84 369.64 C 123.10 368.46 121.37 367.27 119.66 366.07 C 128.43 361.41 136.77 355.83 144.13 349.14 C 146.11 347.73 145.19 345.22 145.06 343.23 C 131.65 349.58 116.65 351.80 101.94 352.09 C 98.60 350.19 96.31 346.93 93.55 344.34 C 111.60 345.95 130.00 342.27 146.18 334.18 C 157.62 327.10 166.21 316.03 171.83 303.92 C 179.69 286.80 182.28 266.94 177.50 248.60 C 174.01 235.09 165.53 222.74 153.47 215.53 C 139.14 206.63 121.43 205.04 105.04 207.54 C 89.84 209.80 75.23 215.11 61.55 222.03 C 61.21 218.74 60.91 215.45 60.69 212.16 C 71.27 206.78 81.71 201.14 92.24 195.67 C 82.65 188.49 72.76 181.71 63.03 174.73 C 63.58 171.45 64.22 168.20 64.90 164.95 C 76.80 172.12 88.70 179.30 100.58 186.49 C 102.18 187.55 104.13 187.63 105.98 187.68 C 124.20 188.09 142.42 188.96 160.65 189.24 C 145.66 178.52 130.23 168.44 115.14 157.87 C 112.28 155.54 108.42 155.88 104.98 155.56 C 92.99 154.70 81.01 153.73 69.03 152.83 C 70.26 149.78 71.53 146.75 72.86 143.75 C 84.85 143.83 96.83 143.88 108.82 143.91 C 103.55 133.28 98.31 122.64 93.06 112.00 C 95.14 109.51 97.30 107.10 99.58 104.79 C 106.48 116.71 113.55 128.53 120.50 140.42 C 121.81 142.82 124.38 144.01 126.63 145.35 C 141.92 154.19 157.02 163.36 172.34 172.13 C 164.64 156.39 156.64 140.78 148.90 125.06 C 147.60 122.53 146.60 119.59 144.03 118.05 C 132.58 110.56 121.21 102.92 109.73 95.47 C 112.37 93.42 114.79 90.39 117.93 89.40 C 128.30 94.53 137.98 101.05 148.41 106.11 C 148.99 94.49 149.68 82.87 150.37 71.25 C 153.49 70.11 156.62 69.00 159.78 67.95 C 160.10 82.19 160.02 96.46 160.59 110.67 C 165.49 120.09 171.40 129.00 176.67 138.24 C 181.35 145.89 185.62 153.79 190.56 161.27 C 191.28 143.18 191.80 125.08 192.56 106.99 C 192.68 104.75 192.72 102.41 191.51 100.42 C 185.29 88.47 178.94 76.57 172.84 64.56 M 161.06 359.71 C 162.07 360.21 163.15 361.28 164.16 360.14 C 167.71 357.54 171.71 355.74 175.56 353.68 C 177.91 352.51 177.95 349.62 178.47 347.40 C 170.47 346.98 164.90 353.57 161.06 359.71 M 221.82 347.38 C 222.67 349.60 222.36 352.96 224.97 354.01 C 229.16 355.95 233.16 358.23 237.17 360.52 C 237.55 360.16 238.31 359.45 238.69 359.09 C 236.65 356.22 234.37 353.52 231.88 351.05 C 229.19 348.47 225.31 348.04 221.82 347.38 M 199.60 348.56 C 197.72 353.07 195.50 357.44 193.88 362.06 C 193.21 363.62 193.40 365.36 194.22 366.83 C 196.18 371.05 198.22 375.25 200.53 379.30 C 202.25 375.10 204.10 370.95 205.68 366.70 C 206.76 364.18 206.09 361.40 205.13 358.96 C 203.66 355.31 202.23 351.56 199.60 348.56 M 171.06 365.06 C 168.91 368.59 168.63 372.97 168.50 377.03 C 168.43 378.50 168.76 380.90 170.79 380.53 C 173.78 379.49 175.43 376.55 176.92 373.97 C 180.10 368.17 183.48 362.48 186.60 356.65 C 181.31 359.20 175.73 361.45 171.06 365.06 M 220.16 368.77 C 222.97 372.78 224.55 378.11 228.98 380.68 C 231.74 380.52 230.94 376.90 231.13 375.04 C 230.62 371.38 231.65 366.39 227.99 364.12 C 224.10 361.40 219.83 359.31 215.62 357.16 C 214.26 361.69 218.33 365.06 220.16 368.77 Z"/>
  </g>
</svg>
