<?xml version="1.0" encoding="UTF-8" standalone="no"?>
<svg
   viewBox="0 0 13 15.001"
   version="1.1"
   id="svg4"
   sodipodi:docname="KLR.svg"
   width="13"
   height="15.001"
   inkscape:version="1.1.1 (3bf5ae0d25, 2021-09-20)"
   xmlns:inkscape="http://www.inkscape.org/namespaces/inkscape"
   xmlns:sodipodi="http://sodipodi.sourceforge.net/DTD/sodipodi-0.dtd"
   xmlns="http://www.w3.org/2000/svg"
   xmlns:svg="http://www.w3.org/2000/svg">
  <defs
     id="defs8" />
  <sodipodi:namedview
     id="namedview6"
     pagecolor="#ffffff"
     bordercolor="#666666"
     borderopacity="1.0"
     inkscape:pageshadow="2"
     inkscape:pageopacity="0.0"
     inkscape:pagecheckerboard="0"
     showgrid="false"
     inkscape:zoom="47.933"
     inkscape:cx="6.509"
     inkscape:cy="7.4896"
     inkscape:window-width="1920"
     inkscape:window-height="986"
     inkscape:window-x="-11"
     inkscape:window-y="-11"
     inkscape:window-maximized="1"
     inkscape:current-layer="svg4" />
  <path
     d="m 6.0469,14.839 c -1.19,-0.443 -2.23,-0.987 -3.121,-1.63 -2.34901,-1.711 -3.16301,-4.4441 -2.86801,-6.4381 0.298,-1.638 0.924,-2.662 2.27001,-3.5 0.952,-0.524 1.56,-0.97 1.826,-1.34 0.343,-0.548 0.163,-1.26704 -0.329,-1.30404 -0.407,0 -0.584,0.203 -0.532,0.61004 0.049,0.311 -0,0.481 -0.156,0.51 -0.185,0.03 -0.3,-0.044 -0.345,-0.225 -0.136,-0.60204 0.03,-1.05804 0.5,-1.36604 0.63,-0.293 1.209,-0.173 1.738,0.361 0.793,0.80204 1.175,1.91404 0.75,3.10704 a 5.422,5.422 0 0 1 -1.4,2.125 c 0.119,0.403 0.365,0.598 0.738,0.585 0.506,-0.036 0.593,-0.487 0.444,-0.636 -0.105,-0.098 -0.25,-0.053 -0.434,0.135 0.052,-0.648 0.719,-0.563 0.816,-0.135 0.098,0.429 -0.27,1.164 -1.003,1.094 -0.489,-0.047 -0.822,-0.25 -0.999,-0.611 -0.221,0.165 -0.394,0.46 -0.517,0.883 -0.219,1.231 0.107,1.618 0.464,1.862 0.357,0.244 0.762,0.132 0.875,-0.161 0.076,-0.196 0.041,-0.379 -0.105,-0.549 -0.275,-0.197 -0.495,-0.126 -0.659,0.212 -0.044,-0.532 0.173,-0.82 0.651,-0.863 0.78,0 0.933,0.76 0.933,0.76 0,0 0.197,0.846 -0.386,1.348 -0.39,0.3341 -0.847,0.3881 -1.373,0.162 -0.593,-0.264 -0.972,-0.733 -1.136,-1.407 a 4.201,4.201 0 0 1 0.072,-1.636 c -0.372,-0.105 -0.587,-0.337 -0.644,-0.697 -0.04,-0.431 0.123,-0.81 0.572,-0.962 0.185,-0.038 0.331,-0.01 0.438,0.082 -0.52,0 -0.72,0.655 -0.335,0.754 a 0.716,0.716 0 0 0 0.633,-0.136 c 0.805,-0.632 1.14,-1.18 1.004,-1.642 -0.135,-0.462 -0.47,-0.645 -1.004,-0.548 a 2.23,2.23 0 0 0 -1.007,0.466 c -0.971,0.803 -1.99701,3.397 -0.178,5.726 1.1,1.2801 2.52,1.9801 4.26,2.1001 1.74,-0.12 3.16,-0.82 4.2601,-2.1001 1.82,-2.33 0.793,-4.923 -0.178,-5.726 A 2.23,2.23 0 0 0 9.5749,3.6429 c -0.534,-0.097 -0.87,0.086 -1.004,0.548 -0.135,0.462 0.2,1.01 1.004,1.642 0.199,0.148 0.41,0.193 0.6331,0.136 0.384,-0.1 0.185,-0.754 -0.3351,-0.754 0.107,-0.092 0.2531,-0.12 0.4381,-0.082 0.45,0.153 0.612,0.53 0.572,0.962 -0.06,0.36 -0.272,0.592 -0.644,0.697 0.132,0.56 0.156,1.106 0.07,1.636 -0.162,0.674 -0.5411,1.143 -1.1341,1.407 -0.526,0.2261 -0.984,0.1721 -1.373,-0.162 -0.583,-0.502 -0.386,-1.347 -0.386,-1.347 0,0 0.153,-0.76 0.933,-0.76 0.478,0.042 0.695,0.33 0.65,0.862 -0.163,-0.338 -0.383,-0.409 -0.658,-0.212 -0.146,0.17 -0.181,0.353 -0.105,0.549 0.113,0.293 0.518,0.405 0.875,0.16 0.357,-0.243 0.683,-0.63 0.464,-1.861 -0.123,-0.424 -0.296,-0.718 -0.517,-0.883 -0.177,0.36 -0.51,0.564 -0.999,0.611 -0.733,0.07 -1.1,-0.665 -1.003,-1.094 0.097,-0.428 0.764,-0.513 0.816,0.135 -0.185,-0.188 -0.33,-0.233 -0.434,-0.135 -0.15,0.149 -0.062,0.6 0.444,0.636 0.373,0.013 0.62,-0.182 0.738,-0.585 a 5.422,5.422 0 0 1 -1.4,-2.125 c -0.425,-1.193 -0.043,-2.305 0.75,-3.10704 0.53,-0.534 1.108,-0.654 1.737,-0.361 0.4701,0.308 0.6371,0.764 0.5011,1.36604 -0.04,0.181 -0.16,0.256 -0.3451,0.225 -0.153,-0.029 -0.205,-0.199 -0.156,-0.51 0.052,-0.40704 -0.125,-0.61004 -0.532,-0.61004 -0.492,0.037 -0.672,0.75604 -0.33,1.30304 0.266,0.37 0.875,0.817 1.8271,1.341 1.346,0.838 1.972,1.862 2.27,3.5 0.295,1.994 -0.52,4.7271 -2.868,6.4361 -1.0021,0.726 -2.1941,1.324 -3.5741,1.794 z"
     fill="#000000"
     fill-rule="evenodd"
     id="path2" />
</svg>
