<?xml version="1.0" encoding="UTF-8" standalone="no"?>
<svg
   width="862.83pt"
   height="925.86pt"
   viewBox="0 0 862.83 925.86"
   version="1.1"
   id="svg5"
   sodipodi:docname="old_simic.svg"
   inkscape:version="1.1.1 (3bf5ae0d25, 2021-09-20)"
   xmlns:inkscape="http://www.inkscape.org/namespaces/inkscape"
   xmlns:sodipodi="http://sodipodi.sourceforge.net/DTD/sodipodi-0.dtd"
   xmlns="http://www.w3.org/2000/svg"
   xmlns:svg="http://www.w3.org/2000/svg">
  <defs
     id="defs9" />
  <sodipodi:namedview
     id="namedview7"
     pagecolor="#ffffff"
     bordercolor="#666666"
     borderopacity="1.0"
     inkscape:pageshadow="2"
     inkscape:pageopacity="0.0"
     inkscape:pagecheckerboard="0"
     inkscape:document-units="pt"
     showgrid="false"
     inkscape:zoom="0.58234"
     inkscape:cx="575.26"
     inkscape:cy="616.47"
     inkscape:window-width="1920"
     inkscape:window-height="986"
     inkscape:window-x="-11"
     inkscape:window-y="-11"
     inkscape:window-maximized="1"
     inkscape:current-layer="svg5" />
  <g
     id="#000000fd"
     transform="translate(-0.17294)">
    <path
       fill="#000000"
       opacity="1"
       d="m 325.42,0 h 8.07 c 16.69,0.79 33.26,6.08 46.94,15.76 14.26,9.96 25.1,23.86 34.93,38.03 C 420.7,48.67 425.53,43 431.24,38.27 443.82,27.19 458.29,18.03 474.21,12.61 487.31,8.2 501.18,6.08 515,6.44 c 17.41,0.13 35.49,3.61 50.03,13.67 15.13,10.46 24.36,28.56 24.49,46.88 0.28,14.13 -3.25,28.56 -11.36,40.26 -10.46,15.55 -28.43,25.73 -47.12,26.87 -14.65,0.1 -30.19,-5.95 -38.45,-18.54 -7.33,-10.48 -5.07,-25.62 3.31,-34.82 6.19,-7.18 14.79,-11.53 23.16,-15.64 -11.04,7.06 -18.97,19.59 -18.69,32.91 -0.12,4.06 2.07,7.81 4.89,10.58 4.13,4.28 9.87,6.67 15.68,7.56 11.91,1.21 24.54,-3.68 31.82,-13.34 5.2,-6.9 8.87,-15.69 7.19,-24.45 -1.04,-9.33 -6.01,-18.24 -13.82,-23.57 -11.38,-7.71 -25.85,-9.82 -39.26,-7.76 -14.61,2.37 -28.1,9.92 -38.54,20.28 -7.8,7.44 -14.25,16.19 -19.66,25.49 -13.09,22.57 -20.79,48.16 -22.95,74.14 -0.5,9.05 -0.31,18.24 2.06,27.05 5.21,-1.46 10.09,-3.87 15.17,-5.72 23.11,-9.29 46.49,-17.91 70.02,-26.09 8.89,-2.95 17.74,-6.09 26.88,-8.18 9.12,-1.59 18.41,-1.42 27.61,-2.32 20.17,-0.52 40.36,-0.32 60.54,-0.47 10.96,-1.07 22.04,0 32.98,-1.51 5.56,-0.16 11.07,-0.96 16.59,-1.61 9.68,-1.56 19.59,-3.25 28.3,-8 4.48,-2.5 8.69,-6.2 10.3,-11.23 1.57,-6.24 0,-12.96 -3.79,-18.11 -3.91,-5.19 -8.98,-9.45 -14.57,-12.72 -10.37,-6.12 -21.86,-10.33 -33.74,-12.26 -5.99,-0.76 -12.18,-0.64 -18.01,1.03 -4.72,1.27 -9.57,3.51 -12.35,7.71 -1,2.47 -0.64,5.54 1.2,7.54 5.82,7.12 14.52,11.06 22.98,14.13 -9.39,3.57 -20.67,3.97 -29.42,-1.49 -7.71,-4.85 -12.92,-13.03 -15.1,-21.77 -2.2,-7.76 0,-16.9 6.31,-22.12 5.96,-4.88 13.74,-6.92 21.29,-7.54 6.64,-0.86 13.37,-0.86 20.02,-0.12 18.05,0.87 36.13,5.8 51.48,15.5 15.93,10.09 28.41,25.94 33.44,44.21 2.76,10.22 -0.53,21.58 -7.95,29.06 -7.09,7.02 -16.41,11.31 -25.85,14.19 -16.25,4.91 -33.32,6.05 -50.19,6.49 8,8.86 14.26,19.21 18.77,30.24 13.64,-4.73 27.89,-7.8 42.29,-8.85 7.69,-0.92 15.39,0.17 23.07,0.64 8.22,0.96 16.38,2.61 24.19,5.41 14.52,5.17 27.82,14.86 35.49,28.43 8.75,15.21 11.01,33.32 9.64,50.59 -1.8,15.75 -7.23,31.42 -17.39,43.76 -4.36,5.02 -9.25,9.67 -15.01,13.05 1.08,1.55 2.57,2.72 4.03,3.9 8.95,-0.77 17.46,-4.19 25.48,-8.08 11.21,-5.64 20.84,-13.83 30.15,-22.13 2.51,-1.99 5.06,-4.99 8.65,-4.11 0.39,1.81 0.85,3.61 1.05,5.46 1.05,9.5 2.4,19.1 5.86,28.08 1.38,3.69 3.28,7.15 4.81,10.79 v 2.67 c -1.16,0.48 -2.36,1.13 -3.63,0.7 -6.8,-1.55 -12.77,-5.41 -19.41,-7.43 -2.65,-0.85 -5.52,-0.24 -7.82,1.22 -7.27,4.23 -12.81,10.71 -18.57,16.7 -1.1,1.36 -3.23,2.93 -1.92,4.87 9.42,16.72 15.77,35.29 17.65,54.44 1,20.96 -6.83,42.01 -20.76,57.64 -9.03,10.46 -20.42,19.05 -33.38,23.99 -6.36,2.33 -13.38,3.77 -20.06,2.02 -11.72,-2.65 -21.55,-10.54 -28.81,-19.86 -4.58,-6.19 -8.4,-13.25 -9.38,-20.99 -0.68,-4.55 0.12,-9.13 0.74,-13.63 1.27,-6.76 4.11,-13.51 9.3,-18.19 5.29,-5.24 12.75,-7.58 20.01,-8.36 7.36,-0.37 15.03,-0.41 22,2.35 -8.05,1.34 -15.48,5.27 -21.91,10.17 -4.57,3.87 -9.23,8.19 -11.27,13.97 -0.73,4.18 0.11,8.5 1.55,12.44 4.08,10.65 16.56,16.77 27.56,14.61 8.33,-1.72 15.86,-6.4 21.67,-12.54 12.12,-12.14 17.54,-30.32 14.59,-47.16 -1.86,-7.63 -6.05,-14.59 -11.56,-20.16 -10.44,-11.15 -24.33,-18.28 -38.39,-23.79 -13.25,-4.93 -27.05,-8.79 -41.2,-9.85 -6.27,-0.43 -12.57,2.01 -17.17,6.23 -8.01,7.02 -12.53,16.99 -16.43,26.68 -6.35,15.86 -9.46,32.79 -15.8,48.65 -10.78,29.64 -31.73,55.58 -58.85,71.79 -14.92,8.83 -31.5,15.09 -48.74,17.34 -6.94,0.62 -13.96,1.58 -20.92,0.56 -17.84,-1.35 -34.72,-10.07 -46.97,-22.97 -17.46,-18.91 -26.63,-45.62 -23.11,-71.25 1.81,-12.5 8.16,-24.57 18.37,-32.2 11.04,-8.42 24.97,-12.14 38.62,-13.26 6.63,-0.78 13.34,-0.66 19.96,0.17 4.2,0.27 8.37,1.11 12.29,2.69 -6.25,0.95 -12.37,2.6 -18.45,4.32 -11.2,3.36 -22.39,8.25 -30.71,16.71 -7.19,7.37 -10.66,17.75 -10.63,27.94 -0.44,13.49 2.62,27.65 11.23,38.35 11.06,13.57 30.32,19.62 47.23,15.35 19.56,-4.87 36.58,-17.05 50.13,-31.68 18.38,-19.72 30.15,-46.86 27.3,-74.12 -2.67,-19.56 -10.79,-38.42 -23.35,-53.66 -7.15,-8.37 -15.39,-15.87 -24.83,-21.58 -16.85,-10.47 -36.57,-15.46 -56.19,-17.07 -8.32,-0.47 -16.67,-0.46 -24.99,-0.1 -17.56,1.24 -34.89,5.21 -51.4,11.27 -30.53,11.43 -58.14,29.78 -82.11,51.73 -6.66,6.32 -13.17,12.81 -19.48,19.49 -21.57,23.7 -39.93,50.35 -54.15,79.09 -17.46,35.09 -29.08,73.57 -30.27,112.91 -0.54,12.03 1.44,24.03 4.58,35.61 4.16,15.73 10.46,30.84 18.04,45.22 15.46,29.74 36.2,56.48 59.32,80.65 26.23,27.16 55.79,50.96 87.08,72.04 39.91,26.79 82.66,49.17 126.7,68.33 3.61,1.67 7.41,2.96 10.85,4.99 -16.1,8.71 -32.77,16.44 -50.11,22.35 -3.68,1.17 -7.27,2.71 -11.08,3.37 -3.65,-0.92 -6.89,-3.01 -10.38,-4.39 -38.86,-18.62 -76.89,-38.89 -115.31,-58.38 -1.61,-0.85 -3.35,-1.39 -5.09,-1.84 0.55,4.26 3.55,7.52 6.16,10.71 3.75,4.57 8.02,8.68 12.24,12.82 19.94,18.79 41.34,36.02 63.74,51.79 -20.57,3.21 -41.48,4.16 -62.28,3.28 -5.54,-0.14 -11.01,-1.21 -16.55,-1.25 -2.88,-2.67 -5.44,-5.64 -8.06,-8.53 -14.87,-15.87 -29.66,-31.81 -44.41,-47.79 -22.17,-24.24 -44.26,-48.59 -64.94,-74.12 -5.63,-7.04 -11.17,-14.15 -16.22,-21.61 -2.49,-3.6 -4.48,-7.51 -6.95,-11.12 -0.82,8.5 1.13,16.97 3.81,24.98 3.99,11.81 9.51,23.03 15.37,34.02 15.17,28.07 32.97,54.6 50.56,81.18 1.84,2.78 3.78,5.5 5.31,8.48 -2.72,-0.67 -5.36,-1.58 -8,-2.49 -29.17,-10.01 -57.29,-22.94 -84.15,-38.07 -2.25,-1.45 -5.03,-2.31 -6.78,-4.39 -8.53,-15.28 -16.26,-31 -24,-46.69 -9.62,-19.46 -18.4,-39.33 -26.72,-59.37 -5.14,-12.35 -9.83,-24.88 -14.17,-37.53 -6.03,-18.07 -11.63,-36.37 -14.64,-55.21 -0.35,-1.98 -0.81,-3.92 -1.39,-5.82 -3.45,18.71 -2.88,37.82 -2.56,56.76 1.97,37.06 7.9,74.58 23.42,108.59 C 136.03,812.54 119.07,798.2 102.65,783.32 74.42,757.1 47.89,728.72 26.43,696.61 16.6,681.98 7.9,666.48 1.82,649.9 6.07,619.35 15.92,589.81 28.71,561.82 49.99,515.17 78.67,472 112.57,433.59 c 7.25,-7.71 14.3,-15.63 22.15,-22.73 13.38,-12.68 27.43,-24.61 41.16,-36.89 11.5,-10.87 23.14,-21.8 32.23,-34.84 9.79,-13.58 16.36,-29.71 17.43,-46.5 0.26,-6.96 0.46,-14.07 -1.46,-20.84 -4.43,-17.71 -15.64,-32.79 -28.19,-45.67 -12.09,-11.63 -25.76,-21.8 -41.05,-28.81 -10,-4.65 -20.73,-7.93 -31.79,-8.5 -25.61,-0.16 -49.97,12.53 -67.37,30.81 -8.54,9.26 -16.02,20 -19.16,32.35 -1.46,5.22 -1.13,10.69 -1.03,16.05 0.84,15.78 5.26,31.8 15.03,44.47 14.78,19.86 41.1,29.93 65.42,26.08 12.81,-1.52 25.57,-6.68 34.66,-16.04 9.17,-8.99 14.73,-21.69 14.81,-34.55 -0.11,-9.34 -2.21,-18.99 -7.83,-26.61 -6.78,-9.56 -18.25,-14.87 -29.67,-16.23 -11.95,-1.95 -25.28,0.94 -33.96,9.78 -6.28,5.95 -9.99,14.44 -10.31,23.06 0,6.7 2.19,13.55 6.74,18.56 5.04,5.68 12.18,9.62 19.77,10.42 0.1,0.29 0.21,0.86 0.28,1.14 -5.37,1.44 -10.82,2.87 -16.43,2.57 -8.04,0.3 -15.97,-3.64 -20.78,-10.06 -6.24,-8.15 -8.61,-18.54 -9.29,-28.6 -0.79,-12.97 1.98,-26.66 10.01,-37.16 5.87,-7.96 14.43,-13.62 23.63,-17.04 7.5,-2.7 15.41,-4.57 23.42,-4.45 14.92,-0.25 30.28,3.26 42.6,11.95 15.53,11.18 24.04,29.95 25.89,48.64 0.44,8.35 0.16,16.76 -1.06,25.03 -2.19,15.67 -7.55,31.34 -17.75,43.66 -9.72,12.06 -23.97,19.87 -38.91,23.46 -17.58,4.25 -36.03,4.18 -53.8,1.11 -15.11,-2.75 -29.95,-8.48 -42,-18.17 C 23.02,338.85 13.52,324.67 7.94,309.24 2.1,293.25 -0.59,276.06 0.36,259.05 1.4,239.66 5.65,220.1 15.2,203.04 c 8.13,-14.52 20.03,-26.88 34.19,-35.63 17.37,-10.98 37.52,-17.1 57.86,-19.33 7.2,-1 14.49,-0.7 21.74,-0.64 12.27,0.1 24.42,1.89 36.58,3.34 0.23,-18.3 5.99,-37.05 18.43,-50.77 11.79,-13.36 28.35,-21.63 45.53,-25.62 1.06,-6.45 3.11,-12.73 6.12,-18.54 C 241.84,43.97 250.5,33.37 260.91,24.93 278.84,9.71 302,1.1 325.42,0 m -33.45,34.99 c -6.18,5.24 -9.61,13.15 -10.57,21.07 -0.98,6.66 -0.48,13.55 1.47,19.99 0.25,1.48 1.95,1.61 3.03,2.18 9.57,3.92 18.25,9.87 25.69,17.01 2.95,2.59 5.3,5.78 8.27,8.35 4.42,-2.71 8.97,-5.58 11.72,-10.13 2.49,-3.23 2.65,-7.69 1.45,-11.44 -3.93,-10.15 -14.47,-15.93 -24.56,-18.35 6.45,-1.41 13.17,-1.33 19.65,-0.16 6.31,1.06 12.6,4.62 15.39,10.61 2.03,3.65 2.06,7.85 2.55,11.88 -0.46,3.69 -0.42,7.47 -1.69,11.01 -2.48,8.05 -7.13,16.36 -15.24,19.78 6.76,10.86 11.85,22.75 14.93,35.16 2.28,8.43 3.04,17.31 1.78,25.97 -1.53,15.42 -8.01,30.66 -19.43,41.35 -10.3,9.48 -24.07,15.9 -38.26,15.34 0.21,2.32 0.34,4.65 0.66,6.96 1.03,5.82 0.14,11.75 0.47,17.62 7.39,-6.3 16.26,-10.52 24.81,-15 0.49,-0.26 1.48,-0.77 1.97,-1.03 15.03,-7.26 30.07,-14.57 45.48,-20.99 0,-3.79 -0.1,-7.58 -0.25,-11.37 -1.26,-9.21 -0.25,-18.58 -1.53,-27.79 -0.12,-13.33 -0.85,-26.68 -0.38,-40 7.52,-13.71 15.07,-27.42 22.69,-41.08 0.82,-3.22 0.53,-6.62 0.66,-9.93 0.46,-16.21 -7.25,-31.87 -18.72,-43.02 -6.25,-6.4 -13.84,-11.35 -21.87,-15.23 -7.63,-3.38 -15.79,-5.82 -24.15,-6.26 -9.11,-0.38 -18.97,1.31 -26.02,7.5 m -65.07,80.9 c -13.71,13.19 -16.97,36.07 -7.17,52.43 4.41,2.84 9.22,5.16 13.79,7.81 1.37,-8.86 5.88,-17.09 12.39,-23.21 7.41,-7.6 18.32,-12.21 28.98,-10.7 7.69,0.43 16.06,2.51 21.16,8.73 4.68,5.53 4.94,13.39 2.88,20.05 -0.87,-2.09 -1.57,-4.28 -2.81,-6.19 -2.18,-3.36 -6.13,-5.5 -10.14,-5.44 -6.83,-0.31 -13.26,2.84 -18.63,6.79 -5.31,4.04 -9.94,9.34 -12,15.78 -1.66,4.95 -1.14,10.7 1.84,15.05 3.45,4.95 8.59,8.34 13.65,11.45 6.71,3.95 14.48,7.09 22.41,5.81 7.62,-1.47 13.5,-7.43 16.97,-14.1 5.73,-11.06 7.57,-23.93 6.01,-36.24 -3.17,-17.2 -12.47,-33.03 -25.2,-44.91 -6.55,-6.16 -14.41,-11.07 -23.06,-13.63 -14.21,-3.93 -30.7,-0.23 -41.07,10.52 m 375.97,71.83 c -6.96,2.16 -12.31,8.91 -12.44,16.26 -0.56,7.06 2.65,14.12 8.01,18.68 -9.61,-0.38 -19.69,-5.48 -23.67,-14.62 -2.17,-6.21 -0.81,-12.97 0.72,-19.15 -2.73,0.23 -5.16,1.49 -7.61,2.59 -11.29,4.79 -22.52,9.71 -33.72,14.71 -24.56,11.12 -49.3,21.97 -72.96,34.96 -3.86,2.47 -8.55,4.28 -11.08,8.29 7.78,1.21 15.32,-1.56 23,-2.23 l 0.61,-0.48 c 3.83,-0.21 7.54,-1.27 11.38,-1.48 4.9,-1.07 9.96,-0.59 14.88,-1.47 5.27,-0.1 10.59,-0.35 15.82,0.5 11.25,0.46 22.35,2.7 33.31,5.24 11.69,2.73 23.12,6.51 34.9,8.84 13.22,1.81 26.34,-3.68 36.53,-11.81 7.55,-5.82 13.81,-13.22 18.7,-21.39 2.94,-5.25 5.9,-11.1 4.99,-17.32 -0.89,-3.2 -1.89,-6.46 -3.92,-9.15 -3.95,-5.27 -10.04,-8.47 -16.22,-10.33 -6.81,-2.13 -14.37,-2.95 -21.23,-0.64 M 730,222.99 c -18.29,1.84 -35.46,9.96 -50.31,20.49 -11.53,18.78 -28.68,33.15 -46.06,46.29 -0.19,1.75 -0.51,3.52 -0.28,5.29 1.16,2.23 2.87,4.12 4.29,6.19 8.69,11.87 16.26,24.58 22.16,38.07 5.45,-0.16 10.97,0.48 16.37,-0.55 2.55,-0.38 5.14,-0.46 7.72,-0.48 -0.65,-0.2 -1.29,-0.39 -1.92,-0.58 5.21,0 10.04,-2.22 14.97,-3.63 -2.39,-2.31 -5,-4.38 -7.14,-6.92 -6,-6.69 -9.56,-15.27 -11.09,-24.06 -0.51,-4.95 -1.53,-9.98 -0.57,-14.95 1.33,-9.48 6.66,-17.99 13.45,-24.56 5.64,-5.14 12.08,-9.68 19.45,-11.91 3.87,-0.85 7.94,-0.55 11.82,0.13 7.8,1.78 15.38,4.79 22.04,9.27 3.32,2.28 6.5,4.91 8.75,8.3 -0.24,0 -0.71,0.11 -0.95,0.15 l -0.17,-1.11 c -1.44,0.37 -2.54,-0.66 -3.75,-1.14 -2.42,-1.22 -5.11,-1.66 -7.65,-2.49 -7.87,-1.19 -16.18,-0.1 -22.96,4.26 -10,6.02 -16.63,18.23 -14.25,29.95 2.26,9.7 7.76,18.32 14.34,25.67 12.14,-3.06 24.9,-2.69 37.08,-0.1 11.37,-8.02 21.65,-18.35 26.92,-31.44 3.57,-9.19 4.96,-19.33 3.53,-29.11 -0.66,-8.68 -3.42,-17.34 -8.54,-24.44 -7.75,-10.3 -20.61,-15.73 -33.25,-16.4 -4.62,-0.74 -9.37,-0.85 -14,-0.22 z"
       id="path2" />
  </g>
</svg>
