<?xml version="1.0" encoding="UTF-8" standalone="no"?>
<svg
   width="781.73pt"
   height="1021pt"
   viewBox="0 0 781.73 1021"
   version="1.1"
   id="svg11"
   sodipodi:docname="old_gruul.svg"
   inkscape:version="1.1.1 (3bf5ae0d25, 2021-09-20)"
   xmlns:inkscape="http://www.inkscape.org/namespaces/inkscape"
   xmlns:sodipodi="http://sodipodi.sourceforge.net/DTD/sodipodi-0.dtd"
   xmlns="http://www.w3.org/2000/svg"
   xmlns:svg="http://www.w3.org/2000/svg">
  <defs
     id="defs15" />
  <sodipodi:namedview
     id="namedview13"
     pagecolor="#ffffff"
     bordercolor="#666666"
     borderopacity="1.0"
     inkscape:pageshadow="2"
     inkscape:pageopacity="0.0"
     inkscape:pagecheckerboard="0"
     inkscape:document-units="pt"
     showgrid="false"
     inkscape:zoom="0.52816"
     inkscape:cx="520.68"
     inkscape:cy="679.72"
     inkscape:window-width="1920"
     inkscape:window-height="986"
     inkscape:window-x="-11"
     inkscape:window-y="-11"
     inkscape:window-maximized="1"
     inkscape:current-layer="svg11" />
  <g
     id="#000000fd"
     transform="translate(-0.03776)">
    <path
       fill="#000000"
       opacity="1"
       d="m 521.25,0 h 6.94 c -10.12,8.62 -20.23,17.33 -28.9,27.45 -22.76,25.15 -40.04,56.48 -43.69,90.6 -1.6,24.36 0.8,49.02 7.59,72.5 4.5,14.89 10.44,29.66 20.03,42.05 3.03,3.68 6.32,7.62 11,9.16 0.6,-10.53 3.53,-20.73 6.58,-30.77 8.65,-26.22 22.5,-50.25 35.45,-74.51 6.49,-12.46 13.22,-24.97 17.15,-38.53 -1.41,17.27 -4.04,34.64 -2.16,51.99 0.79,11.54 3.62,23.05 9.38,33.14 6.63,11.58 15.95,21.32 22.77,32.78 10,16.19 15.6,34.67 19.15,53.25 4.71,23.63 5.8,47.76 6.76,71.76 11.49,-3.94 22.22,-10.17 31.08,-18.51 13.74,-13 21.99,-30.79 26.32,-48.99 3.26,-12.81 4.64,-25.99 6.21,-39.09 0.91,-6.7 1.36,-13.6 3.82,-19.96 0.18,0 0.55,-0.1 0.73,-0.1 6.24,14.62 13.19,29 17.89,44.23 2.78,8.61 4.64,17.58 4.88,26.64 -0.99,18.85 -5.11,37.32 -8.17,55.9 -3.01,18.21 -6.98,36.37 -7.74,54.86 5.58,-0.13 11.22,-0.1 16.72,-1.25 14.2,-2.45 27.71,-9.39 37.46,-20.08 12.95,-13.93 19.6,-32.31 24.31,-50.41 3.19,-12.29 5.13,-24.88 8.83,-37.04 0.44,-1.45 1.19,-2.78 1.97,-4.08 1.54,8.22 3.79,16.4 4.11,24.79 0.18,-0.53 0.37,-1.06 0.57,-1.58 0.1,5 1.1,9.9 1.53,14.86 5.14,44.78 0.34,91.13 -16.95,132.96 -12.78,31.06 -32.07,59.32 -55.81,83.03 -24.9,25.39 -54.47,45.87 -85.9,62.32 -33.95,17.48 -70.25,30.69 -107.84,37.66 -12,1.96 -24.34,3.76 -36.46,1.79 3.32,-2.84 7.53,-4.26 11.29,-6.39 26.4,-14.12 51.12,-31.73 71.91,-53.36 22.46,-23 40.03,-51.18 48.83,-82.22 6.45,-21.96 7.95,-45.13 6.24,-67.88 -1.39,-13.05 -2.98,-26.37 -8.44,-38.44 -1.53,-3.49 -3.71,-6.65 -6.38,-9.35 0.8,5.59 1.84,11.19 1.78,16.86 -0.35,4.81 -0.74,9.65 -2.01,14.32 -3.89,15.13 -13.38,28.37 -25.2,38.37 -8.05,6.66 -17.18,12.38 -27.38,14.98 0.81,-5.29 2.03,-10.51 3.54,-15.64 3.81,-13.01 6.68,-26.45 6.64,-40.07 0.41,-13.64 -1.58,-27.55 -7.06,-40.11 -2.8,-5.83 -6.2,-12.58 -12.93,-14.48 0,8.18 0.22,16.42 -1.13,24.52 -1.15,7.26 -2.65,14.74 -6.62,21.05 -2.26,3.3 -5.64,6.59 -9.91,6.57 -3.96,0.37 -7.61,-1.52 -10.86,-3.52 -4.22,-2.67 -8.42,-5.6 -11.5,-9.58 -2.7,-3.5 -2.98,-8.1 -4.96,-11.95 -2.31,-4.52 -5.71,-8.38 -9.25,-11.97 -10.17,-9.99 -17.6,-22.57 -22.28,-35.99 -3.62,-10.88 -5.92,-22.2 -6.91,-33.62 -0.8,-5.62 -0.71,-11.31 -1.49,-16.93 -0.33,-3.43 -0.58,-7.05 -2.5,-10.03 -5.21,24.52 -19.06,46.02 -25.65,70.1 -1.97,6.82 -2.98,13.93 -2.95,21.04 -5.66,-1.11 -11.01,-3.66 -15.39,-7.39 -6.9,-5.79 -11.76,-13.6 -15.66,-21.62 -7.27,-15.47 -11,-32.29 -13.87,-49.05 -0.42,-2.25 -0.49,-4.53 -0.44,-6.8 -0.2,0.53 -0.39,1.05 -0.58,1.59 -0.69,-9.62 -2.26,-19.17 -2.34,-28.83 -0.34,-15.68 -0.52,-31.57 2.98,-46.96 1.07,-5.05 2.84,-9.9 4.43,-14.8 -21.36,5.99 -41.25,16.98 -57.83,31.7 -22,19.28 -38.62,44.08 -50.74,70.57 -6.42,14.01 -11.54,28.61 -15.28,43.56 -1.17,5.19 -2.48,10.38 -2.71,15.72 -0.2,-0.53 -0.38,-1.06 -0.57,-1.58 0,3.95 -0.25,7.9 -0.46,11.85 -8.36,-7.14 -14.23,-16.73 -22.59,-23.88 -8.59,-7.94 -19.74,-13.7 -31.62,-13.86 -8.25,-0.37 -16.48,1.37 -24.11,4.43 6.16,5.97 12.24,12.06 17.53,18.85 8.92,11.31 16.56,24.17 19.21,38.51 1.79,8.88 0.95,18.62 -3.92,26.43 -2.08,3.39 -5.17,6 -8.44,8.19 -5.78,-0.13 -10.91,-3.18 -15.31,-6.67 -5.02,-3.81 -9.19,-8.74 -14.83,-11.69 0.38,2.99 1.2,5.88 2.04,8.76 2.68,10.4 4.6,21.1 4.36,31.87 0.1,9.43 -1.73,19.26 -7.14,27.16 -4.33,6.31 -11.8,10.16 -19.42,10.27 -8.94,0.28 -18.66,-1.73 -25.1,-8.38 -4.77,-4.4 -7.04,-10.62 -10.48,-15.97 -0.23,6.65 -0.91,13.27 -0.79,19.93 -0.34,27.86 6.2,55.54 17.61,80.89 18.82,41.98 48.65,77.87 81.03,110.09 -6.3,-1.47 -12.24,-4.11 -18.21,-6.53 C 155.47,646.02 121.32,622.29 93.85,592.37 59.59,555.32 35.44,509.76 20.05,461.91 10.84,433.03 4.51,403.2 1.62,373.02 c -1.55,-17.7 -2.7,-35.68 0.23,-53.31 1.66,0.5 1.84,2.34 2.48,3.67 5.82,16.05 14.83,31.33 27.91,42.53 7.09,5.97 15.47,10.78 24.72,12.27 8.94,1.15 18.19,-1.43 25.6,-6.46 7.79,-5.57 13.8,-13.34 18.08,-21.86 6.08,-12.07 9.9,-25.35 10.69,-38.86 -0.25,-16.76 -5.77,-32.76 -9.67,-48.9 -0.77,-2.91 -1.19,-5.88 -1.41,-8.87 14.72,13.83 26.76,30.25 41.79,43.78 2.26,1.86 4.82,4.24 8.01,3.58 2.56,-1.57 4.41,-4.03 6,-6.53 4.19,-6.71 7.07,-14.13 9.67,-21.57 3.01,-8.87 5.24,-18.09 5.59,-27.48 -0.37,-12.93 -2.2,-25.92 -6.67,-38.11 -7.96,-22.88 -23.05,-42.54 -40.44,-59.1 -4.83,-4.74 -10.01,-9.15 -14.4,-14.32 4.74,0 9.48,0.1 14.2,0.58 20.26,1.59 40.91,4.55 59.42,13.42 10.01,4.67 18.92,11.56 26.18,19.88 6.41,6.95 11.47,15.07 18.3,21.65 2.86,2.79 5.83,5.65 9.62,7.14 1.3,-15.18 3.95,-30.34 9.13,-44.7 8.78,-25.51 24.34,-48.42 43.84,-66.95 23.37,-22.35 51.76,-38.82 81.42,-51.32 20.06,-8.46 40.89,-14.97 62,-20.21 C 462.53,5.93 491.81,1.49 521.25,0 Z"
       id="path2" />
    <path
       fill="#000000"
       opacity="1"
       d="m 340.91,398.8 c 12.85,-2.25 26.02,-3.19 39.01,-1.66 25.32,2.65 49.73,13.12 69.16,29.56 26.1,21.79 42.94,54.34 45.4,88.27 0.32,8.43 0.48,16.92 -0.45,25.32 -2.87,24.21 -12.82,47.55 -28.34,66.37 -20.87,25.62 -51.92,42.57 -84.76,46.3 -11.3,1.09 -22.77,1.03 -34.01,-0.63 -30.99,-4.61 -60.09,-21.03 -79.93,-45.29 -22.26,-26.6 -32.92,-62.57 -28.59,-96.99 2.92,-26.38 14.52,-51.66 32.36,-71.28 14.38,-16.03 32.97,-28.16 53.27,-35.31 5.46,-2.1 11.27,-3.07 16.88,-4.66 M 303,432.94 c -26.04,17.64 -44.01,46.83 -47.64,78.1 -3.98,29.66 4.76,60.77 23.67,83.98 17.6,22.14 43.99,37.11 72.05,40.73 9.81,1.67 19.78,0.7 29.65,0.61 -0.5,-0.23 -0.99,-0.46 -1.48,-0.67 2.29,0 4.58,-0.18 6.82,-0.69 22.45,-3.94 43.61,-15.08 59.53,-31.4 18.74,-18.63 30.32,-44.26 32.04,-70.63 0.21,-4.98 0.22,-9.97 0,-14.95 -1.51,-26.46 -12.96,-52.23 -31.64,-71.05 -17.89,-18.43 -42.36,-30.44 -67.96,-32.91 -26.21,-2.97 -53.4,3.81 -75.07,18.88 z"
       id="path4" />
    <path
       fill="#000000"
       opacity="1"
       d="m 359.77,473.05 c 9.94,-0.6 20.15,1.5 29.08,5.98 18.97,9.27 32.1,29.75 31.83,50.96 0.56,15.68 -6.23,31.34 -17.57,42.1 -10.53,10.43 -25.33,16.25 -40.11,16.26 -15.01,-0.1 -29.94,-6.15 -40.52,-16.82 -10.76,-10.54 -17.01,-25.48 -17.01,-40.54 -0.24,-14.4 5.42,-28.71 15.11,-39.32 10.02,-10.92 24.35,-17.86 39.19,-18.62 z"
       id="path6" />
    <path
       fill="#000000"
       opacity="1"
       d="m 154.59,663.28 c 10.88,3.49 21.58,7.51 32.45,11.02 1.85,0.58 3.62,1.36 5.38,2.17 -1.57,8.77 -3.11,17.57 -4,26.44 23.67,11.31 47.02,23.3 71,33.98 2.07,0.83 4.26,2.06 6.58,1.45 2.87,-0.99 5.13,-3.24 6.73,-5.77 2.96,-4.73 4.66,-10.11 6.08,-15.47 3.07,-11.83 4.16,-24.04 5.57,-36.15 0.49,-4.28 0.68,-8.66 2.14,-12.76 10.48,4.04 20.68,8.89 31.5,12.03 10.37,3.09 21.09,5.58 31.98,5.34 14.14,0.17 28.23,-1.91 41.95,-5.28 10.06,-2.32 19.72,-6 29.54,-9.13 1.81,-0.58 3.71,-0.77 5.6,-0.99 -13.22,8.24 -21.89,22.37 -25.77,37.22 10.25,0 20.45,1.04 30.7,1.06 9.21,-10.18 18.5,-20.32 27.65,-30.55 -0.1,-2.61 -2.88,-4.41 -4.22,-6.56 0,-2.65 0,-5.3 0,-7.95 18.79,-0.26 37.59,0 56.38,-0.12 -0.33,3.88 0.4,8.09 -0.74,11.78 -5.73,0.57 -11.45,1.22 -17.19,1.65 -12.05,19.39 -23.95,38.87 -35.89,58.33 -0.65,0.88 -1.29,2.07 -2.53,2.1 -6.7,0.47 -13.44,0.24 -20.13,0.86 -7.42,0.69 -14.89,0.27 -22.31,1.06 -7.99,0.6 -16.03,0.27 -24.01,1.02 -3.04,0.26 -6.17,0.21 -9.09,1.24 -17.12,5.52 -34.24,12.7 -47.85,24.76 -8.24,7.3 -14.6,17.64 -14.4,28.94 0.57,9.47 5.35,18.02 10.41,25.8 12.86,19.1 29.83,34.83 45.45,51.59 3.52,3.87 7.64,7.56 9.68,12.49 0.4,11.86 1.7,23.68 2.69,35.52 3.83,-2.57 6.37,-6.53 9.68,-9.67 8.03,-8.01 16.3,-15.93 25.84,-22.14 4.37,-2.76 9.23,-5.43 14.57,-5.18 23.47,-0.17 46.27,6.77 68.06,14.89 13.28,4.97 26.32,10.56 39.47,15.89 24.74,10.1 50.08,19.79 76.82,22.83 9.04,1.12 18.17,0.69 27.26,0.52 -1.73,3.74 -3.72,7.44 -6.6,10.44 -7.03,7.56 -16.76,11.89 -26.47,14.86 -4.52,1.21 -9.05,2.59 -13.74,2.87 l -1.54,-0.91 c 0.21,0.77 0.72,1.37 1.28,1.95 -7.89,-1.09 -16.32,1.7 -23.89,-1.7 1.92,-2.55 4.36,-4.65 6.31,-7.18 0.8,-1.04 0.89,-2.46 0.73,-3.69 -2.23,-1.55 -5.1,-1.86 -7.58,-2.9 -28.22,-10.59 -56.19,-21.87 -84.54,-32.11 -7.3,-2.45 -14.5,-5.22 -21.96,-7.11 -4.18,-1.12 -8.55,-0.26 -12.62,0.93 -7.31,2.15 -13.9,6.08 -20.3,10.12 -0.4,4.01 -0.5,8.04 -0.43,12.08 13.27,-0.1 26.64,0.46 39.64,3.31 9.38,2.16 18.75,6 25.51,13.09 5.67,6.04 10.09,13.36 17.01,18.15 7.01,4.76 15.27,7.44 23.62,8.67 1.55,0.18 3.08,0.63 4.53,1.25 -2.71,6.83 -9.93,9.9 -16.44,12 -12.48,3.89 -25.57,5.87 -38.63,6.13 -0.92,-4.13 -2.05,-8.26 -4.18,-11.94 -6.14,-11.18 -19.86,-17.63 -32.38,-14.98 -0.2,0.28 -0.61,0.84 -0.81,1.12 5.61,6.36 12.56,11.35 18.47,17.41 3.74,3.9 8.6,7.65 9.34,13.4 -4.49,3 -9.01,6.1 -14.02,8.3 -12.9,5.6 -27.02,7.7 -40.96,8.7 -6.36,0.9 -12.77,0.9 -19.15,1.2 h -17.54 c -7.08,-0.4 -14.18,-0.3 -21.23,-1.1 -34.51,-2 -68.78,-8 -102.02,-17.4 -19.85,-5.89 -39.43,-12.84 -58.01,-21.97 2.14,-3.59 4.97,-6.69 7.48,-10.01 9.45,-12.01 18.79,-24.11 28.32,-36.06 -4.58,-0.68 -9.21,-0.94 -13.84,-1.08 -11,-0.84 -22,-1.59 -33.01,-2.21 -3.03,-0.18 -6.36,-1.33 -9.11,0.5 -8.27,4.55 -16.79,8.63 -25.04,13.22 -1.07,3.19 -1.81,6.51 -3.12,9.63 -1.72,1 -3.81,0.58 -5.7,0.71 -8.35,-0.17 -16.72,0.17 -25.07,-0.15 -1.14,-1.36 -1,-3.37 -1.21,-5.03 -0.15,-4.59 -0.76,-9.14 -1.22,-13.71 6.66,-1.1 13.43,-1.48 20.12,-2.35 3.34,-0.94 6.4,-2.96 8.73,-5.52 1.3,-2.41 -0.22,-5.26 -2.1,-6.9 -2.82,-2.52 -6.25,-5.09 -10.24,-4.86 -12.69,0.18 -25.4,-0.25 -38.07,0.21 -4.99,2.25 -9.57,5.41 -14.78,7.18 -4.2,1.19 -8.65,-0.69 -11.78,-3.47 -4.1,-3.52 -6.61,-8.64 -7.51,-13.91 -0.43,-3.41 0.64,-7.71 4.05,-9.21 6.17,-1.05 11.03,4.21 17.11,3.97 16.51,0.15 31.69,-7.27 46.53,-13.61 4.29,-1.64 8.75,-4.02 13.49,-3.19 3.88,1.5 6.77,4.68 9.51,7.69 3.87,4.26 6.81,9.24 10,14.01 26.93,-0.15 53.87,-0.1 80.8,0 7.35,-11.77 13.97,-23.98 21.39,-35.71 -7.28,-8.48 -15.46,-16.13 -23.13,-24.24 -12.34,-13.14 -25.08,-25.89 -37.46,-38.98 -4.03,-0.5 -8.06,-0.93 -12.11,-1.09 0.4,-1.54 0.78,-3.11 1.74,-4.41 5.34,-8.19 12.97,-14.51 20.71,-20.31 3.31,-2.54 7.01,-4.53 10.1,-7.34 -3.7,-9.18 -11.29,-15.89 -18.11,-22.74 -8.95,-8.48 -18.34,-16.48 -27.92,-24.23 -2.33,-1.88 -4.57,-4.06 -7.51,-4.92 -7.93,-2.73 -15.87,-5.76 -22.84,-10.49 -2.19,-1.7 -4.93,-3.74 -4.81,-6.82 -0.33,-13.95 0.7,-27.86 1.19,-41.78 z"
       id="path8" />
  </g>
</svg>
