<?xml version="1.0" encoding="UTF-8" standalone="no"?>
<svg
   viewBox="0 0 876.06 928.48"
   version="1.1"
   id="svg4"
   sodipodi:docname="Tinkerer2.svg"
   width="876.06"
   height="928.48"
   inkscape:version="1.1.1 (3bf5ae0d25, 2021-09-20)"
   xmlns:inkscape="http://www.inkscape.org/namespaces/inkscape"
   xmlns:sodipodi="http://sodipodi.sourceforge.net/DTD/sodipodi-0.dtd"
   xmlns="http://www.w3.org/2000/svg"
   xmlns:svg="http://www.w3.org/2000/svg">
  <defs
     id="defs8" />
  <sodipodi:namedview
     id="namedview6"
     pagecolor="#ffffff"
     bordercolor="#666666"
     borderopacity="1.0"
     inkscape:pageshadow="2"
     inkscape:pageopacity="0.0"
     inkscape:pagecheckerboard="0"
     showgrid="false"
     inkscape:zoom="0.70215"
     inkscape:cx="297.66"
     inkscape:cy="411.59"
     inkscape:window-width="1920"
     inkscape:window-height="986"
     inkscape:window-x="-11"
     inkscape:window-y="-11"
     inkscape:window-maximized="1"
     inkscape:current-layer="svg4" />
  <path
     d="M 99.029,194.45 438.03,0 l 339,194.45 C 643.59,229.24 532.98,301.33 438.03,401.75 331.73,301.2 241.2,234.1 99.029,194.45 Z M 0,332.63 V 721.12 C 145.37,749.48 268.39,835.23 358.19,928.44 356.94,797.47 359.5,666.43 358.09,535.47 213.52,512.05 93.483,427.89 0,332.63 Z m 517.91,202.84 c 1.17,131.02 -1.16,261.95 0,392.97 C 616.72,824.69 751.36,740.57 876.1,721.12 V 332.63 C 773.3,436.29 653.07,514.15 517.91,535.47 Z"
     id="path2"
     sodipodi:nodetypes="ccccccccccccccc"
     style="display:inline" />
  <path
     d="M 777.03,194.45 438.03,0 99.029,194.45 C 232.46,229.24 343.08,301.33 438.03,401.75 544.33,301.2 634.86,234.1 777.03,194.45 Z m 99.03,138.18 v 388.49 c -145.36,28.37 -268.4,114.1 -358.19,207.32 1.25,-130.97 -1.31,-262.01 0,-392.97 144.6,-23.4 264.65,-107.57 358.15,-202.84 z M 358.14,535.47 c -1.17,131.02 1.17,261.95 0.1,392.97 C 259.37,824.74 124.75,740.57 0,721.12 V 332.63 c 102.77,103.68 223,181.52 358.14,202.84 z"
     id="path878"
     sodipodi:nodetypes="cccccccccccccccc"
     style="display:inline" />
</svg>
