<?xml version="1.0" encoding="UTF-8" standalone="no"?>
<svg
   viewBox="0 0 15.564 15.991"
   version="1.1"
   id="svg4"
   sodipodi:docname="TSR.svg"
   width="15.564"
   height="15.991"
   inkscape:version="1.1.1 (3bf5ae0d25, 2021-09-20)"
   xmlns:inkscape="http://www.inkscape.org/namespaces/inkscape"
   xmlns:sodipodi="http://sodipodi.sourceforge.net/DTD/sodipodi-0.dtd"
   xmlns="http://www.w3.org/2000/svg"
   xmlns:svg="http://www.w3.org/2000/svg">
  <defs
     id="defs8" />
  <sodipodi:namedview
     id="namedview6"
     pagecolor="#ffffff"
     bordercolor="#666666"
     borderopacity="1.0"
     inkscape:pageshadow="2"
     inkscape:pageopacity="0.0"
     inkscape:pagecheckerboard="0"
     showgrid="false"
     inkscape:zoom="42.294"
     inkscape:cx="7.9917"
     inkscape:cy="7.9917"
     inkscape:window-width="1920"
     inkscape:window-height="986"
     inkscape:window-x="-11"
     inkscape:window-y="-11"
     inkscape:window-maximized="1"
     inkscape:current-layer="svg4" />
  <path
     d="m 9.4187,8.236 c -0.069,0.124 -0.218,0.479 -0.448,1.065 -0.23,0.586 -0.01,1.138 0.661,1.654 0.8883,0.835 1.1363,1.946 0.7463,3.333 l -0.01,0.04 h 0.636 c 0.183,0 0.287,0.07 0.312,0.214 0.03,0.145 0.09,0.499 0.181,1.062 0.04,0.232 -0.08,0.35 -0.331,0.354 -0.383,0 -6.2463,0.617 -11.05732,-3.884 -0.128,-0.13 -0.141,-0.249 -0.038,-0.358 0.103,-0.108 0.383,-0.381 0.84,-0.818 0.18402,-0.18 0.35102,-0.193 0.50202,-0.04 0.15,0.157 0.29,0.292 0.42,0.404 0.35,-1.197 1.314,-1.929 2.891,-2.191 l 0.048,-0.01 -3.202,-0.827 z m -1.662,1.352 c -0.566,1.111 -0.722,2.18 -0.468,3.208 0.382,1.541 1.778,1.539 1.778,1.539 0.482,-0.907 0.318,-1.802 -0.49,-2.685 -0.603,-0.662 -0.877,-1.35 -0.82,-2.062 z M 6.8027,9.179 c -0.394,0.597 -1.033,0.97 -1.916,1.12 -1.18,0.198 -1.86,0.803 -2.04,1.814 0,0 1.1,0.862 2.349,-0.118 0.832,-0.653 1.368,-1.592 1.607,-2.816 z M 15.457,3.915 c 0.129,0.13 0.142,0.249 0.04,0.358 -0.104,0.108 -0.384,0.381 -0.84,0.818 -0.184,0.18 -0.351,0.193 -0.502,0.036 A 6.844,6.844 0 0 0 13.734,4.724 C 13.382,5.926 12.418,6.658 10.841,6.92 l -0.05,0.01 3.201,0.827 H 6.1457 C 6.2137,7.631 6.3637,7.276 6.5927,6.69 6.8227,6.104 6.6027,5.552 5.9327,5.036 5.0447,4.201 4.7957,3.09 5.1857,1.703 l 0.012,-0.042 h -0.636 c -0.182,0 -0.286,-0.07 -0.312,-0.214 a 272.56,272.56 0 0 1 -0.18,-1.06205 c -0.035,-0.232 0.075,-0.35 0.33,-0.354 0.383,-0.006 6.2473,-0.617 11.0573,3.88405 z M 6.7637,1.761 c -0.398,0.71 -0.358,1.33 0.119,1.861 0.477,0.531 1.814,1.04 4.0103,1.525 0.88,0.094 1.41,-0.36 1.591,-1.364 C 10.825,2.635 8.9177,1.962 6.7637,1.761 Z"
     fill="#000000"
     fill-rule="nonzero"
     id="path2" />
</svg>
