<?xml version="1.0" encoding="UTF-8" standalone="no"?>
<svg xmlns="http://www.w3.org/2000/svg" width="300pt" height="300pt" viewBox="0 0 300 300" version="1.1">
  <path style="fill:#e5e0db" d="m 136.36,136.37 c 2.52,-1.78 5.66,0.41 5.91,3.19 1.82,11.07 2.51,22.31 2.55,33.52 0.18,6.25 -0.1,13.32 -4.5,18.23 -6.05,6.07 -17.78,2.99 -20.92,-4.74 -1.87,-4.3 -1.29,-9.16 -0.52,-13.63 1.97,-10.96 6.52,-21.33 12.41,-30.73 1.42,-2.14 2.79,-4.5 5.07,-5.84 z m 17.02,-0.89 c 3.02,-1.09 6.12,0.96 7.63,3.51 7.95,11.8 13.6,25.6 14.02,39.97 0.09,4.91 -0.86,10.84 -5.52,13.53 -5.17,2.67 -12.35,2.92 -16.76,-1.34 -4.1,-4.29 -4.63,-10.59 -4.77,-16.23 0.16,-11.65 0.74,-23.32 2.5,-34.85 0.3,-1.82 1.01,-3.9 2.9,-4.59 z m 53.04,-53.85 c 9.41,-2.27 20.44,-1.9 28.12,4.68 8.46,7.34 11.5,18.83 12.97,29.51 0.43,5.56 1.83,11.39 0,16.83 -1.38,3.65 -5.5,4.82 -9.05,4.79 -17.95,0.01 -35.98,2.02 -53.87,-0.25 -5.09,-0.72 -8.96,-5.19 -9.63,-10.17 -1.02,-8.11 1.46,-16.23 4.74,-23.57 4.99,-10.85 15,-19.25 26.72,-21.82 z m -130.95,0 c 8.61,-2.83 18.13,-0.29 25.53,4.53 13.95,9.36 21.04,26.47 21.27,42.89 -0.06,3.16 0.48,6.83 -1.82,9.39 -2.18,2.24 -5.5,2.02 -8.36,2.2 -13.04,0.37 -26.07,0.9 -39.1,0.13 -6,-0.36 -12.5,-0.4 -17.57,-4.11 -7.11,-4.92 -8.97,-14.56 -7.47,-22.62 1.98,-14.89 13.5,-27.6 27.52,-32.41 z M 141.71,0 h 16.39 c 31.38,1.79 62.16,13.48 86.51,33.44 32.65,26.14 53.24,66.51 55.39,108.28 v 16.38 c -1.73,29.68 -12.22,58.84 -30.31,82.49 -20.55,27.29 -50.71,47.21 -83.94,55.23 -9.03,2.31 -18.32,3.44 -27.6,4.18 H 141.62 C 110.07,298.23 79.2,286.29 54.83,266.15 29.86,245.73 11.73,217.06 4.17,185.69 1.86,176.67 0.74,167.41 0,158.14 V 141.61 C 2.15,101.02 21.61,61.74 52.73,35.59 77.43,14.37 109.23,1.8 141.71,0 M 84.69,30.95 c 2.71,8.14 5.44,16.28 8.14,24.43 5.75,3.88 11.64,7.55 17.45,11.34 C 100.55,65.54 90.86,64.14 81.14,62.9 78.2,54.36 75.41,45.77 72.54,37.21 58.4,46.33 46.71,59.33 39.59,74.61 c -8.95,19.08 -11.37,40.64 -10.24,61.5 0.58,10.77 6.94,20.83 16.27,26.18 13.59,7.96 29.88,8.48 45.21,8.23 -5.11,31.77 -6.58,64 -7.09,96.13 6.77,0.78 13.52,1.71 20.29,2.48 -0.8,-17.64 -1.61,-35.3 -1.43,-52.96 4.6,-1.89 9.72,-1.34 14.36,0.08 0.37,18.34 -0.56,36.66 -0.96,54.99 4.48,-0.05 9.28,0.57 13.38,-1.66 3,-1.36 4.7,-4.53 5.07,-7.69 2.2,-14.87 3.23,-29.88 3.89,-44.89 3.16,-4.35 9.43,-1.56 13.45,0.08 -0.27,10.62 -0.88,21.36 0.96,31.88 0.81,4.2 1.99,8.89 5.77,11.43 3.91,-3.18 7.19,-7.19 9.02,-11.92 4.28,-10.5 3.78,-22.07 4.85,-33.16 5.7,0.8 11.56,3.33 15.04,8.01 0.57,14.22 1.33,28.45 1.91,42.67 1.87,3.51 5.31,5.92 8.97,7.32 2.23,-2.23 4.45,-4.46 6.69,-6.67 0.07,-17.96 -0.89,-35.91 -2.65,-53.78 -0.74,-7.05 -0.38,-14.26 1.48,-21.12 2.41,-8.97 8.01,-16.87 15.27,-22.59 11.57,-9.17 25.75,-14.03 39.63,-18.5 0.32,-20.84 -2.53,-41.88 -9.62,-61.54 -7.77,-21.5 -21.63,-41.17 -40.7,-54.06 -7.54,7.01 -15.87,13.09 -24.16,19.19 -1.92,1.37 -3.73,3.11 -6.14,3.56 -7.2,1.74 -14.6,3 -22.03,2.91 6.59,-3.79 13.4,-7.46 19.12,-12.53 5.06,-7.56 10.67,-14.75 16.69,-21.58 -13.09,-7.49 -27.83,-12.28 -42.95,-13.04 -22.61,-1.24 -44.85,6.2 -64.25,17.39 z"/>
  <path d="m 84.69,30.95 c 19.4,-11.19 41.64,-18.63 64.25,-17.39 15.12,0.76 29.86,5.55 42.95,13.04 -6.02,6.83 -11.63,14.02 -16.69,21.58 -5.72,5.07 -12.53,8.74 -19.12,12.53 7.43,0.09 14.83,-1.17 22.03,-2.91 2.41,-0.45 4.22,-2.19 6.14,-3.56 8.29,-6.1 16.62,-12.18 24.16,-19.19 19.07,12.89 32.93,32.56 40.7,54.06 7.09,19.66 9.94,40.7 9.62,61.54 -13.88,4.47 -28.06,9.33 -39.63,18.5 -7.26,5.72 -12.86,13.62 -15.27,22.59 -1.86,6.86 -2.22,14.07 -1.48,21.12 1.76,17.87 2.72,35.82 2.65,53.78 -2.24,2.21 -4.46,4.44 -6.69,6.67 -3.66,-1.4 -7.1,-3.81 -8.97,-7.32 -0.58,-14.22 -1.34,-28.45 -1.91,-42.67 -3.48,-4.68 -9.34,-7.21 -15.04,-8.01 -1.07,11.09 -0.57,22.66 -4.85,33.16 -1.83,4.73 -5.11,8.74 -9.02,11.92 -3.78,-2.54 -4.96,-7.23 -5.77,-11.43 -1.84,-10.52 -1.23,-21.26 -0.96,-31.88 -4.02,-1.64 -10.29,-4.43 -13.45,-0.08 -0.66,15.01 -1.69,30.02 -3.89,44.89 -0.37,3.16 -2.07,6.33 -5.07,7.69 -4.1,2.23 -8.9,1.61 -13.38,1.66 0.4,-18.33 1.33,-36.65 0.96,-54.99 -4.64,-1.42 -9.76,-1.97 -14.36,-0.08 -0.18,17.66 0.63,35.32 1.43,52.96 -6.77,-0.77 -13.52,-1.7 -20.29,-2.48 0.51,-32.13 1.98,-64.36 7.09,-96.13 -15.33,0.25 -31.62,-0.27 -45.21,-8.23 -9.33,-5.35 -15.69,-15.41 -16.27,-26.18 -1.13,-20.86 1.29,-42.42 10.24,-61.5 7.12,-15.28 18.81,-28.28 32.95,-37.4 2.87,8.56 5.66,17.15 8.6,25.69 9.72,1.24 19.41,2.64 29.14,3.82 C 104.47,62.93 98.58,59.26 92.83,55.38 90.13,47.23 87.4,39.09 84.69,30.95 m -9.22,50.68 c -14.02,4.81 -25.54,17.52 -27.52,32.41 -1.5,8.06 0.36,17.7 7.47,22.62 5.07,3.71 11.57,3.75 17.57,4.11 13.03,0.77 26.06,0.24 39.1,-0.13 2.86,-0.18 6.18,0.04 8.36,-2.2 2.3,-2.56 1.76,-6.23 1.82,-9.39 C 122.04,112.63 114.95,95.52 101,86.16 93.6,81.34 84.08,78.8 75.47,81.63 m 130.95,0 c -11.72,2.57 -21.73,10.97 -26.72,21.82 -3.28,7.34 -5.76,15.46 -4.74,23.57 0.67,4.98 4.54,9.45 9.63,10.17 17.89,2.27 35.92,0.26 53.87,0.25 3.55,0.03 7.67,-1.14 9.05,-4.79 1.83,-5.44 0.43,-11.27 0,-16.83 -1.47,-10.68 -4.51,-22.17 -12.97,-29.51 -7.68,-6.58 -18.71,-6.95 -28.12,-4.68 m -53.04,53.85 c -1.89,0.69 -2.6,2.77 -2.9,4.59 -1.76,11.53 -2.34,23.2 -2.5,34.85 0.14,5.64 0.67,11.94 4.77,16.23 4.41,4.26 11.59,4.01 16.76,1.34 4.66,-2.69 5.61,-8.62 5.52,-13.53 -0.42,-14.37 -6.07,-28.17 -14.02,-39.97 -1.51,-2.55 -4.61,-4.6 -7.63,-3.51 m -17.02,0.89 c -2.28,1.34 -3.65,3.7 -5.07,5.84 -5.89,9.4 -10.44,19.77 -12.41,30.73 -0.77,4.47 -1.35,9.33 0.52,13.63 3.14,7.73 14.87,10.81 20.92,4.74 4.4,-4.91 4.68,-11.98 4.5,-18.23 -0.04,-11.21 -0.73,-22.45 -2.55,-33.52 -0.25,-2.78 -3.39,-4.97 -5.91,-3.19 z"/>
</svg>
