<?xml version="1.0" encoding="UTF-8" standalone="no"?>
<svg xmlns="http://www.w3.org/2000/svg" width="300pt" height="300pt" viewBox="0 0 300 300" version="1.1">
  <path style="fill:#e6fcff" d="m 162.56,134.41 c 9.49,5.53 17.89,13.54 22.13,23.83 4.43,10.33 4.52,21.94 3.08,32.92 -0.3,3.41 -1.89,6.84 -4.79,8.79 -2.35,1.51 -5.91,0.93 -7.38,-1.52 -1.65,-2.48 -1.5,-5.64 -1.16,-8.47 1.16,-9.33 1.25,-18.87 -0.63,-28.11 -1.88,-9.79 -6.13,-18.95 -11.25,-27.44 z M 141.71,0 h 16.4 c 31.57,1.82 62.55,13.63 86.95,33.81 32.4,26.14 52.8,66.34 54.94,107.91 v 16.39 c -1.75,30.19 -12.59,59.83 -31.23,83.69 -16.3,21.15 -38.37,37.81 -63.18,47.67 -15.1,6.12 -31.22,9.43 -47.44,10.53 H 141.59 C 110.07,298.22 79.23,286.31 54.88,266.19 29.69,245.62 11.47,216.64 3.99,184.97 1.78,176.18 0.73,167.16 0,158.14 V 141.59 C 2.16,101.03 21.59,61.78 52.68,35.63 77.38,14.38 109.2,1.8 141.71,0 m -8.57,30.22 c -10.23,19.7 -13.97,41.91 -22.67,62.24 -8.28,19.2 -19.92,37.09 -24.86,57.62 -5.62,23.68 -5.28,49.38 4.33,72 7.34,17.43 19.96,33.24 37.08,41.81 11.24,5.74 24.58,7.26 36.76,3.86 17.84,-4.72 32.46,-18.42 40.09,-35 8.04,-16.83 8.85,-36.17 5.87,-54.32 -3.06,-17.52 -11.08,-33.74 -20.7,-48.54 -9.76,-15.41 -21.84,-29.29 -30.7,-45.28 -10.89,-22.04 -14.77,-47.08 -13.08,-71.5 -4.89,5.03 -8.82,10.93 -12.12,17.11 z"/>
  <path d="m 133.14,30.22 c 3.3,-6.18 7.23,-12.08 12.12,-17.11 -1.69,24.42 2.19,49.46 13.08,71.5 8.86,15.99 20.94,29.87 30.7,45.28 9.62,14.8 17.64,31.02 20.7,48.54 2.98,18.15 2.17,37.49 -5.87,54.32 -7.63,16.58 -22.25,30.28 -40.09,35 -12.18,3.4 -25.52,1.88 -36.76,-3.86 -17.12,-8.57 -29.74,-24.38 -37.08,-41.81 -9.61,-22.62 -9.95,-48.32 -4.33,-72 4.94,-20.53 16.58,-38.42 24.86,-57.62 8.7,-20.33 12.44,-42.54 22.67,-62.24 m 29.42,104.19 c 5.12,8.49 9.37,17.65 11.25,27.44 1.88,9.24 1.79,18.78 0.63,28.11 -0.34,2.83 -0.49,5.99 1.16,8.47 1.47,2.45 5.03,3.03 7.38,1.52 2.9,-1.95 4.49,-5.38 4.79,-8.79 1.44,-10.98 1.35,-22.59 -3.08,-32.92 -4.24,-10.29 -12.64,-18.3 -22.13,-23.83 z"/>
</svg>
