<?xml version="1.0" encoding="UTF-8" standalone="no"?>
<svg xmlns="http://www.w3.org/2000/svg" xmlns:xlink="http://www.w3.org/1999/xlink" version="1.1" width="599.99268" height="603.39056">
  <linearGradient x1="305.88278" y1="-1213.201" x2="305.88278" y2="-1023.8497" id="linearGradient7338" xlink:href="#linearGradient7292" gradientUnits="userSpaceOnUse"/>
  <linearGradient id="linearGradient7292">
    <stop id="stop7294" style="stop-color:#00090a" offset="0"/>
    <stop id="stop7296" style="stop-color:#00090a;stop-opacity:0" offset="1"/>
  </linearGradient>
  <filter color-interpolation-filters="sRGB" id="filter7328">
    <feGaussianBlur stdDeviation="3.2986529" id="feGaussianBlur7330"/>
  </filter>
  <g transform="translate(-221.15469,88.408151)">
    <path d="m 415.77879,-1011.0054 a 109.60155,110.30865 0 1 1 -219.20309,0 109.60155,110.30865 0 1 1 219.20309,0 z" transform="matrix(2.0773788,0,0,2.0773788,-116.00847,2306.4223)" style="fill:#006c47"/>
    <path d="m 415.77879,-1011.0054 a 109.60155,110.30865 0 1 1 -219.20309,0 109.60155,110.30865 0 1 1 219.20309,0 z" transform="matrix(2.3637251,0,0,2.3637251,-202.59204,2603.0132)" style="fill:none;stroke:url(#linearGradient7338);stroke-width:18.79999924;filter:url(#filter7328)"/>
    <path d="m 415.77879,-1011.0054 a 109.60155,110.30865 0 1 1 -219.20309,0 109.60155,110.30865 0 1 1 219.20309,0 z" transform="matrix(2.0773788,0,0,2.0773788,-116.00847,2306.4223)" style="fill:none;stroke:#00090a;stroke-width:18.79999924"/>
  </g>
</svg>
