<?xml version="1.0" encoding="UTF-8" standalone="no"?>
<svg xmlns="http://www.w3.org/2000/svg" version="1.1" id="svg2" width="428.87537" height="435.25012">
  <path d="m 122.63008,432.64506 c -7.05485,-1.33235 -24.067514,-5.16893 -37.805914,-8.52575 -32.699124,-7.98961 -38.060829,-9.05207 -45.636076,-9.04307 -6.711715,0.008 -15.135988,1.81672 -20.184671,4.33382 -4.275945,2.13185 -4.773922,0.91561 -2.107262,-5.14671 3.518932,-7.99985 3.186911,-29.01999 -0.701737,-44.42672 C 1.4483092,311.41288 1.0044362,309.04076 0.15095619,284.09823 -0.66352781,260.29542 1.7366002,244.17274 9.3372822,222.38977 14.210237,208.42427 28.158294,179.1336 36.260066,165.85243 57.043202,131.78278 90.748456,95.158674 104.40223,91.809194 c 15.13188,-3.71208 18.90163,-3.91311 29.43496,-1.56967 11.17998,2.48731 33.48746,13.054456 44.57839,21.116966 24.2854,17.6542 39.84504,31.28959 77.7108,68.10039 17.67224,17.17988 43.72411,45.32739 57.55855,62.18863 14.34033,17.4778 27.32411,40.6003 31.73501,56.51613 5.64395,20.365 0.5483,37.55043 -16.20758,54.66117 -8.03967,8.20992 -31.66565,28.13804 -41.008,34.58953 -17.2673,11.9242 -37.78818,23.33705 -58.90761,32.76191 -7.56193,3.37463 -29.8918,10.16011 -42.7982,13.0053 -13.49849,2.97572 -46.75559,2.6974 -63.86847,-0.53449 z M 37.446611,323.92946 c 2.555809,-16.88524 6.969161,-33.90808 12.214235,-47.11179 2.259659,-5.68836 4.108471,-11.10311 4.108471,-12.03277 0,-2.8766 16.681721,-34.79819 23.988104,-45.90287 19.022245,-28.91111 36.845299,-44.63164 67.826249,-59.82504 7.05485,-3.45977 13.89029,-7.21477 15.18987,-8.34444 4.31164,-3.74794 2.9423,-8.82515 -4.17593,-15.48342 -9.87454,-9.23649 -14.0123,-10.95865 -26.55201,-11.05116 -9.58821,-0.0707 -11.83885,0.42463 -19.87952,4.37528 -22.770164,11.18777 -52.853198,51.1479 -69.114092,91.80617 -14.059407,35.15373 -17.823297,70.21031 -10.768432,100.29632 1.935153,8.25261 4.016606,14.49184 4.625452,13.86496 0.608847,-0.62687 1.750769,-5.39293 2.537603,-10.59124 z m 318.266659,15.18987 c 0.55345,-0.92827 2.6739,-3.81434 4.71213,-6.4135 4.31946,-5.50824 7.94307,-18.37591 7.94307,-28.20639 0,-17.16543 -16.79046,-50.78116 -42.62568,-85.33973 -13.04041,-17.44353 -22.03546,-27.82566 -41.89269,-48.35267 -26.62561,-27.5237 -55.90898,-52.98031 -78.18205,-67.96515 -2.97046,-1.99847 -8.43882,-5.785066 -12.1519,-8.414666 -9.27177,-6.56627 -29.37277,-17.360049 -40.6247,-21.814543 -7.90964,-3.131332 -11.3924,-3.704894 -22.83521,-3.760642 -14.29146,-0.06963 -19.67507,1.284469 -27.25168,6.854394 -6.697684,4.923777 -7.660674,4.272534 -6.807884,-4.60398 0.95636,-9.954467 6.326864,-25.600058 11.594354,-33.777178 11.78739,-18.298435 27.00305,-26.322005 56.97965,-30.0466762 11.05214,-1.373257 14.83412,-1.276656 26.26734,0.670934 20.44061,3.4819502 28.75377,6.7993442 48.1759,19.2247492 4.97313,3.181591 9.42713,5.78471 9.89777,5.78471 0.8165,0 12.09422,7.014302 19.79008,12.308668 6.98521,4.805466 22.07408,11.081665 26.75531,11.128849 2.59916,0.0262 8.37131,-1.089255 12.82701,-2.478787 11.55336,-3.602977 17.18738,-3.12709 30.59046,2.583877 2.94189,1.253524 18.87677,-13.672589 26.57936,-24.896739 3.08824,-4.500167 5.61499,-8.499279 5.61499,-8.886916 0,-0.387637 3.25982,-4.773626 7.24407,-9.746641 13.33554,-16.6450672 15.59568,-17.1998362 19.2198,-4.7176502 3.51587,12.1093082 10.24893,25.8865722 18.63576,38.1327232 5.14223,7.508472 7.38852,11.985597 6.85574,13.664238 -0.43582,1.373177 -7.3292,7.322563 -15.31862,13.220857 -15.166,11.196513 -29.64411,24.803213 -27.24322,25.603513 0.76838,0.25613 2.31562,3.625396 3.43829,7.487276 1.90365,6.54829 1.85238,7.74263 -0.76043,17.71804 -1.54091,5.88304 -3.0518,11.10118 -3.35754,11.59587 -1.17393,1.89946 3.77704,17.15111 8.15718,25.12853 2.52222,4.59362 8.69892,14.6098 13.72601,22.25818 10.74794,16.35228 20.02419,34.74616 23.71619,47.02691 1.73262,5.76318 2.8727,14.57098 3.32068,25.65401 0.84985,21.02558 -1.31296,32.25892 -9.323,48.4224 -4.76954,9.62447 -7.17698,12.7777 -13.77924,18.04786 -9.84197,7.85619 -24.42671,14.07831 -39.01975,16.64653 -6.07164,1.06854 -11.22711,1.94364 -11.45659,1.94466 -0.22948,10e-4 0.0356,-0.75765 0.58904,-1.68592 z"/>
</svg>