<?xml version="1.0" encoding="UTF-8"?>
<svg width="600px" height="600px" viewBox="0 0 600 600" version="1.1" xmlns="http://www.w3.org/2000/svg" xmlns:xlink="http://www.w3.org/1999/xlink">
    <title>Untitled 2</title>
    <g id="Page-1" stroke="none" stroke-width="1" fill="none" fill-rule="evenodd">
        <g id="circle" fill="#CAC5C0" fill-rule="nonzero">
            <circle id="Oval" cx="300" cy="300" r="300"></circle>
        </g>
        <g id="Acorn" transform="translate(86.000000, 78.000000)" fill="#000000" fill-rule="nonzero">
            <path d="M122.63008,433.64506 C115.57523,432.31271 98.562566,428.47613 84.824166,425.11931 C52.125042,417.1297 46.763337,416.06724 39.18809,416.07624 C32.476375,416.08424 24.052102,417.89296 19.003419,420.41006 C14.727474,422.54191 14.229497,421.32567 16.896157,415.26335 C20.415089,407.2635 20.083068,386.24336 16.19442,370.83663 C1.4483092,312.41288 1.0044362,310.04076 0.15095619,285.09823 C-0.66352781,261.29542 1.7366002,245.17274 9.3372822,223.38977 C14.210237,209.42427 28.158294,180.1336 36.260066,166.85243 C57.043202,132.78278 90.748456,96.158674 104.40223,92.809194 C119.53411,89.097114 123.30386,88.896084 133.83719,91.239524 C145.01717,93.726834 167.32465,104.29398 178.41558,112.35649 C202.70098,130.01069 218.26062,143.64608 256.12638,180.45688 C273.79862,197.63676 299.85049,225.78427 313.68493,242.64551 C328.02526,260.12331 341.00904,283.24581 345.41994,299.16164 C351.06389,319.52664 345.96824,336.71207 329.21236,353.82281 C321.17269,362.03273 297.54671,381.96085 288.20436,388.41234 C270.93706,400.33654 250.41618,411.74939 229.29675,421.17425 C221.73482,424.54888 199.40495,431.33436 186.49855,434.17955 C173.00006,437.15527 139.74296,436.87695 122.63008,433.64506 Z M37.446611,324.92946 C40.00242,308.04422 44.415772,291.02138 49.660846,277.81767 C51.920505,272.12931 53.769317,266.71456 53.769317,265.7849 C53.769317,262.9083 70.451038,230.98671 77.757421,219.88203 C96.779666,190.97092 114.60272,175.25039 145.58367,160.05699 C152.63852,156.59722 159.47396,152.84222 160.77354,151.71255 C165.08518,147.96461 163.71584,142.8874 156.59761,136.22913 C146.72307,126.99264 142.58531,125.27048 130.0456,125.17797 C120.45739,125.10727 118.20675,125.6026 110.16608,129.55325 C87.395916,140.74102 57.312882,180.70115 41.051988,221.35942 C26.992581,256.51315 23.228691,291.56973 30.283556,321.65574 C32.218709,329.90835 34.300162,336.14758 34.909008,335.5207 C35.517855,334.89383 36.659777,330.12777 37.446611,324.92946 L37.446611,324.92946 Z M355.71327,340.11933 C356.26672,339.19106 358.38717,336.30499 360.4254,333.70583 C364.74486,328.19759 368.36847,315.32992 368.36847,305.49944 C368.36847,288.33401 351.57801,254.71828 325.74279,220.15971 C312.70238,202.71618 303.70733,192.33405 283.8501,171.80704 C257.22449,144.28334 227.94112,118.82673 205.66805,103.84189 C202.69759,101.84342 197.22923,98.056824 193.51615,95.427224 C184.24438,88.860954 164.14338,78.067175 152.89145,73.612681 C144.98181,70.481349 141.49905,69.907787 130.05624,69.852039 C115.76478,69.782409 110.38117,71.136508 102.80456,76.706433 C96.106876,81.63021 95.143886,80.978967 95.996676,72.102453 C96.953036,62.147986 102.32354,46.502395 107.59103,38.325275 C119.37842,20.02684 134.59408,12.00327 164.57068,8.2785988 C175.62282,6.9053418 179.4048,7.0019428 190.83802,8.9495328 C211.27863,12.431483 219.59179,15.748877 239.01392,28.174282 C243.98705,31.355873 248.44105,33.958992 248.91169,33.958992 C249.72819,33.958992 261.00591,40.973294 268.70177,46.26766 C275.68698,51.073126 290.77585,57.349325 295.45708,57.396509 C298.05624,57.422709 303.82839,56.307254 308.28409,54.917722 C319.83745,51.314745 325.47147,51.790632 338.87455,57.501599 C341.81644,58.755123 357.75132,43.82901 365.45391,32.60486 C368.54215,28.104693 371.0689,24.105581 371.0689,23.717944 C371.0689,23.330307 374.32872,18.944318 378.31297,13.971303 C391.64851,-2.6737642 393.90865,-3.2285332 397.53277,9.2536528 C401.04864,21.362961 407.7817,35.140225 416.16853,47.386376 C421.31076,54.894848 423.55705,59.371973 423.02427,61.050614 C422.58845,62.423791 415.69507,68.373177 407.70565,74.271471 C392.53965,85.467984 378.06154,99.074684 380.46243,99.874984 C381.23081,100.131114 382.77805,103.50038 383.90072,107.36226 C385.80437,113.91055 385.7531,115.10489 383.14029,125.0803 C381.59938,130.96334 380.08849,136.18148 379.78275,136.67617 C378.60882,138.57563 383.55979,153.82728 387.93993,161.8047 C390.46215,166.39832 396.63885,176.4145 401.66594,184.06288 C412.41388,200.41516 421.69013,218.80904 425.38213,231.08979 C427.11475,236.85297 428.25483,245.66077 428.70281,256.7438 C429.55266,277.76938 427.38985,289.00272 419.37981,305.1662 C414.61027,314.79067 412.20283,317.9439 405.60057,323.21406 C395.7586,331.07025 381.17386,337.29237 366.58082,339.86059 C360.50918,340.92913 355.35371,341.805251 355.12423,341.805251 C354.89475,341.805251 355.15983,341.0476 355.71327,340.11933 Z" id="Shape"></path>
        </g>
    </g>
</svg>