<?xml version="1.0" encoding="UTF-8" standalone="no"?>
<svg
   xmlns:dc="http://purl.org/dc/elements/1.1/"
   xmlns:cc="http://creativecommons.org/ns#"
   xmlns:rdf="http://www.w3.org/1999/02/22-rdf-syntax-ns#"
   xmlns:svg="http://www.w3.org/2000/svg"
   xmlns="http://www.w3.org/2000/svg"
   xmlns:xlink="http://www.w3.org/1999/xlink"
   height="600"
   width="600"
   version="1.1">
  <path style="fill:#c1d7e9"
     d="M 512.1,87.821998 C 566.41798,142.128 600,217.128 600,299.98202 600,465.67801 465.67801,600 300,600 217.15799,600 142.17,566.42402 87.87601,512.12402" />
  <path style="fill:#a3c095"
     d="M 87.87601,512.12402 C 33.57601,457.84201 0,382.83003 0,299.98202 0,134.30401 134.32199,0 300,0 382.81799,0 457.80601,33.558029 512.1,87.821998" />
  <path style="fill:#111212" id="phy"
     d="m 488.75206,405.84703 c 0.1741,-16.03201 -4.91995,-32.21701 -14.901,-44.78401 -4.82395,-5.31299 -8.78995,-11.361 -13.899,-16.38299 -11.262,-11.17801 -28.125,-11.92201 -41.691,-18.963 -0.789,-7.07101 -3.375,-14.14501 -1.809,-21.27901 0.477,-2.373 1.176,-4.77899 -0.0869,-7.047 -3.558,-8.196 -0.501,-17.094 -1.134,-25.64099 -0.474,-4.464 -0.17085,-9.927 -4.422,-12.68401 -0.99,9.29101 -4.407,17.937 -7.176,26.75401 -1.278,6.86999 -1.278,14.02799 -4.23895,20.50799 1.87795,6.56401 -1.84205,12.09 -5.86805,16.938 -8.898,4.56 -19.488,5.64301 -27.231,12.33001 -5.523,4.68599 -11.484,8.793 -17.664,12.60599 -4.635,5.802 -9.76797,11.39099 -11.83197,18.72001 -8.28602,10.00501 -9.26402,23.43299 -13.96202,35.15101 -0.0869,17.39699 3.43799,36.12896 14.55001,50.07297 7.94998,6.564 13.50598,15.393 21.44398,21.95999 7.62,4.54803 15.75305,8.28601 23.622,12.38102 5.13,1.19401 10.425,1.782 15.528,3.17699 4.14,21.327 6.966,43.173 15.276,63.39901 2.757,-8.30402 2.424,-17.20201 4.803,-25.59301 3.354,-12.40802 -3.528,-25.323 0.351,-37.503 5.814,-5.19901 15.51,-1.824 21.96005,-6.28501 12.276,-7.569 25.26595,-14.93998 34.16995,-26.52001 3.315,-6.65699 10.278,-11.63099 10.278,-19.617 0.0571,-10.75498 6.32705,-20.82596 3.933,-31.69796 z m -91.122,65.78998 c -8.895,-2.163 -17.181,-6.417 -24.642,-11.61301 -8.028,-5.34899 -11.022,-15.33 -18.942,-20.80199 -7.416,-8.85301 -5.811,-20.946 -8.85,-31.42798 1.218,-7.31401 2.655,-14.56801 3.414,-21.97503 3.618,-5.86798 9.201,-10.54798 10.749,-17.60997 5.301,-7.59601 13.374,-12.852 19.857,-19.437 4.716,-5.439 12.222,-3.14701 18.417,-3.35701 -0.615,6 -1.104,12.20401 0.39905,18.123 0.73195,3.63601 2.37295,7.21801 1.80895,11.02799 -1.242,8.09701 1.797,16.21801 -0.351,24.22202 -4.329,16.73399 0.393,33.62697 0.804,50.49598 -0.615,7.47301 -0.963,15 -2.664,22.353 z m 67.43105,-31.71002 c -5.89205,4.188 -10.91105,9.333 -16.05305,14.355 -8.937,6.18001 -17.769,12.72001 -28.407,15.81002 0.96,-7.58699 1.896,-15.393 -0.522,-22.821 -5.934,-16.782 1.338,-34.335 2.565,-51.306 -1.083,-10.08899 -0.048,-20.85299 -4.674,-30.14699 -0.606,-6.981 2.412,-13.722 4.458,-20.292 7.02605,2.805 13.641,6.591 19.488,11.46 7.062,5.29201 17.88,8.72401 19.461,18.594 0.807,6.48301 7.902,10.40401 7.695,17.037 -0.444,15.768 1.731,32.25899 -4.01095,47.30997 z" />
  <use transform="translate(-212.132,-212.132)" xlink:href="#phy" />
</svg>
