<?xml version="1.0" encoding="UTF-8" standalone="no"?>
<svg
   xmlns:dc="http://purl.org/dc/elements/1.1/"
   xmlns:cc="http://creativecommons.org/ns#"
   xmlns:rdf="http://www.w3.org/1999/02/22-rdf-syntax-ns#"
   xmlns:svg="http://www.w3.org/2000/svg"
   xmlns="http://www.w3.org/2000/svg"
   height="202.85742"
   width="268.85547"
   version="1.1">
  <path
     d="m 134.42773,0 -8.57812,28.04688 c -12.6783,10.48167 -5.52722,18.86339 -9.51954,28.08007 -3.62827,8.37624 -8.27568,14.16163 -17.539056,14.08985 -16.96347,-0.13144 -18.88665,-18.42237 -29.24609,-18.88477 -4.66485,-0.20822 -8.44838,6.64264 -16.76367,11.95118 C 44.789814,68.38497 34.674178,74.05494 0,84.65039 c 10.036421,8.3316 32.33655,19.15915 54.730464,25.23242 0.6872,0.18637 1.40048,0.38727 2.09961,0.58008 l 18.45313,-13.31836 -6.20117,16.92383 c 7.13711,2.27072 14.38632,4.92988 21.06054,8.09961 l 10.939456,-15.68945 -2.425776,20.24609 c 4.717406,2.86336 8.883566,6.07991 12.175776,9.70899 l 9.38672,-19.5586 c 4.63572,16.34569 -2.96566,33.21976 -27.951176,38.28125 6.91224,5.68463 14.175576,12.30671 21.794926,19.87696 l 11.45507,-12.32227 -4.18945,19.85156 c 7.77901,6.92716 10.06868,13.59386 13.09961,20.29492 3.03093,-6.70106 5.3206,-13.36776 13.09961,-20.29492 l -4.18945,-19.85156 11.45507,12.32227 c 7.61935,-7.57025 14.88269,-14.19233 21.79493,-19.87696 -24.98552,-5.06149 -32.5869,-21.93556 -27.95118,-38.28125 l 9.38672,19.5586 c 3.29221,-3.62908 7.45837,-6.84563 12.17578,-9.70899 l -2.42578,-20.24609 10.93946,15.68945 c 6.67422,-3.16973 13.92343,-5.82889 21.06054,-8.09961 l -6.20117,-16.92383 18.45313,13.31836 c 0.69913,-0.19281 1.41241,-0.39371 2.09961,-0.58008 22.39392,-6.07327 44.69404,-16.90082 54.73046,-25.23242 -34.67418,-10.59545 -44.78981,-16.26543 -52.78125,-21.36718 -8.31529,-5.30854 -12.09882,-12.1594 -16.76367,-11.95118 -10.35944,0.4624 -12.28262,18.75333 -29.24609,18.88477 -9.26338,0.0718 -13.91079,-5.71361 -17.53906,-14.08985 -3.99232,-9.21668 3.15876,-17.5984 -9.51954,-28.08007 z m 0,60.72071 c 2.97229,8.94359 4.89305,16.29057 15.1543,26.70312 -10.26125,10.41255 -12.18201,17.75955 -15.1543,26.70312 -2.97229,-8.94358 -4.89305,-16.29057 -15.1543,-26.70312 10.26125,-10.41255 12.18201,-17.75953 15.1543,-26.70312 z"
     style="fill:#000000" />
</svg>
