<?xml version="1.0" encoding="UTF-8" ?>
<svg width="500pt" height="495pt" viewBox="0 0 500 495" version="1.1" xmlns="http://www.w3.org/2000/svg">
<path d=" M 81.37 36.33 C 94.92 28.91 109.68 23.58 124.95 21.13 C 134.12 19.62 143.41 21.11 152.46 22.71 C 161.28 24.20 170.09 25.76 178.85 27.63 C 185.19 29.01 191.59 30.56 197.42 33.51 C 203.49 36.58 208.94 40.72 214.40 44.73 C 227.01 54.20 238.97 64.73 248.77 77.14 C 255.66 85.99 261.67 95.96 263.77 107.11 C 265.88 117.71 267.57 128.38 269.04 139.08 C 272.10 161.75 272.58 185.06 267.68 207.52 C 265.65 217.07 261.97 226.21 260.37 235.85 C 259.95 238.12 259.97 240.59 258.63 242.57 C 255.55 247.40 250.82 250.80 246.42 254.34 C 243.68 256.57 240.77 258.91 239.39 262.27 C 239.75 262.61 240.47 263.29 240.83 263.64 C 245.00 262.49 247.78 258.97 250.70 256.03 C 252.62 254.18 254.28 251.73 257.00 251.04 C 259.86 251.68 260.68 254.95 261.80 257.26 C 265.73 267.61 268.76 278.28 272.16 288.81 C 280.99 316.13 289.05 343.80 300.88 370.03 C 307.54 384.58 314.47 399.01 321.73 413.28 C 323.53 417.08 325.73 420.83 326.15 425.10 C 324.54 423.60 323.03 421.98 321.75 420.19 C 316.07 412.42 311.08 404.18 305.86 396.11 C 289.43 369.65 273.66 342.79 258.69 315.49 C 249.27 298.65 241.22 281.08 231.75 264.27 C 227.97 257.44 223.35 251.08 220.15 243.94 C 218.18 239.58 218.37 234.55 219.84 230.07 C 222.65 221.45 226.79 213.33 229.75 204.76 C 232.51 196.60 234.78 188.27 236.53 179.83 C 238.32 170.86 238.82 161.59 241.65 152.85 C 240.85 151.18 239.94 149.57 238.89 148.05 C 235.63 143.32 233.61 137.90 231.45 132.62 C 227.92 124.40 221.87 117.63 215.78 111.23 C 203.27 98.71 188.85 88.16 173.33 79.69 C 167.35 76.41 161.29 72.97 154.54 71.58 C 150.41 70.77 146.19 70.75 142.00 70.73 C 131.30 70.80 120.52 71.16 110.04 73.49 C 102.31 75.21 94.77 78.47 88.80 83.75 C 83.53 88.32 79.58 94.17 76.21 100.23 C 70.24 110.96 66.83 122.94 64.88 135.01 C 62.61 149.59 62.32 164.52 64.53 179.13 C 65.43 184.49 67.24 189.66 69.53 194.58 C 74.97 206.36 82.73 216.97 91.71 226.29 C 96.48 231.27 102.07 235.39 106.72 240.48 C 108.00 241.87 108.89 243.55 109.76 245.21 C 106.34 249.47 99.55 245.56 96.04 249.86 C 100.27 251.47 104.64 249.57 108.87 248.90 C 118.73 246.94 128.46 250.35 138.05 252.20 C 152.04 255.19 166.29 256.55 180.50 258.00 C 185.13 270.33 189.92 282.61 194.18 295.09 C 195.48 299.60 197.27 304.21 196.77 308.99 C 195.69 311.05 191.74 312.76 193.72 315.42 C 195.05 315.55 196.39 315.46 197.73 315.56 C 200.60 317.40 202.02 320.67 203.56 323.57 C 210.35 337.68 214.58 352.81 219.53 367.61 C 224.63 382.28 229.92 396.96 237.39 410.62 C 243.73 422.31 250.32 433.94 258.27 444.64 C 260.16 447.47 263.44 448.79 265.72 451.24 C 270.43 455.95 275.04 460.80 279.20 466.01 C 281.41 468.90 283.85 471.83 284.49 475.53 C 281.38 475.39 278.89 473.40 276.53 471.60 C 269.54 465.96 263.13 459.58 257.58 452.52 C 235.31 424.63 216.76 394.07 196.54 364.73 C 197.23 362.12 195.52 359.84 194.50 357.60 C 187.35 343.84 179.95 330.20 172.51 316.60 C 169.65 311.60 166.86 306.50 163.22 302.02 C 161.19 299.53 158.50 297.08 155.08 297.08 C 148.45 296.80 141.97 295.21 135.57 293.58 C 126.47 291.12 117.44 288.23 108.88 284.22 C 104.61 282.36 101.42 278.84 97.56 276.34 C 94.00 273.82 90.00 272.00 86.44 269.48 C 81.07 265.60 76.05 261.26 71.13 256.83 C 62.29 248.69 53.68 240.25 45.96 231.03 C 41.86 226.28 38.49 220.87 36.14 215.06 C 34.78 211.50 38.10 208.46 41.03 207.12 C 43.09 206.05 45.31 206.90 47.36 207.49 C 43.44 203.54 37.84 202.40 32.97 200.10 C 29.16 198.34 27.64 194.13 26.46 190.40 C 23.27 179.77 20.88 168.83 20.40 157.71 C 19.95 148.13 20.76 138.55 21.95 129.05 C 24.44 110.43 27.27 90.95 38.11 75.08 C 49.12 58.91 64.14 45.57 81.37 36.33 M 51.76 95.10 C 53.06 95.92 54.39 96.95 56.00 96.16 C 56.56 93.82 54.22 92.52 52.79 91.18 C 52.43 92.48 52.09 93.79 51.76 95.10 M 242.93 181.16 C 244.85 183.42 247.94 185.26 250.93 183.87 C 252.88 181.46 249.46 178.46 246.97 178.96 C 245.29 178.84 244.18 180.32 242.93 181.16 M 50.80 212.62 C 53.15 212.47 55.73 212.20 57.44 210.38 C 58.80 209.23 59.96 206.60 57.79 205.59 C 53.86 204.80 49.76 208.58 50.80 212.62 M 66.76 224.11 C 68.94 225.30 71.45 225.02 73.79 224.57 C 71.79 222.91 68.93 222.54 66.76 224.11 M 178.65 290.80 C 177.97 291.66 178.05 293.53 179.35 293.73 C 181.27 293.37 182.65 291.79 183.39 290.07 C 181.90 289.80 179.55 289.00 178.65 290.80 M 170.61 299.06 C 171.23 299.14 172.48 299.30 173.10 299.38 C 175.31 299.83 176.90 296.12 174.59 295.29 C 172.70 295.72 171.22 297.24 170.61 299.06 Z" />
<path d=" M 460.24 42.16 C 464.15 40.37 468.07 38.27 472.44 37.86 C 470.74 40.08 468.38 41.60 465.98 42.94 C 452.36 50.41 439.32 58.87 426.23 67.23 C 397.99 85.53 369.74 103.87 340.33 120.27 C 339.22 139.58 338.91 158.99 335.96 178.13 C 335.35 183.19 332.30 187.89 333.15 193.11 C 333.57 196.76 335.88 200.03 339.10 201.77 C 343.40 204.14 346.34 208.20 349.32 211.98 C 354.18 218.52 358.71 225.37 362.20 232.75 C 364.13 236.60 364.18 241.01 365.58 245.03 C 370.01 259.46 376.00 273.76 376.32 289.06 C 376.40 292.67 377.70 296.18 379.85 299.07 C 384.52 305.42 390.90 310.25 395.68 316.51 C 397.54 318.90 398.45 321.93 398.22 324.97 C 397.90 335.50 392.78 345.20 386.73 353.56 C 382.92 358.73 378.46 363.49 373.27 367.28 C 369.98 369.47 366.10 371.79 361.98 370.95 C 357.72 369.79 354.00 367.24 350.52 364.59 C 343.54 359.22 337.54 352.26 334.44 343.93 C 330.51 333.49 331.61 321.52 336.51 311.59 C 339.23 306.30 343.15 301.21 348.74 298.78 C 351.76 297.49 355.68 297.54 357.81 294.70 C 359.73 291.26 360.06 287.21 360.57 283.37 C 361.59 270.26 358.57 256.98 352.86 245.20 C 349.58 238.19 344.08 232.39 341.52 225.02 C 340.60 222.16 338.18 220.22 336.04 218.27 C 330.09 213.19 323.43 208.95 316.36 205.60 C 311.51 203.26 305.98 202.60 301.39 199.69 C 298.97 198.23 296.86 195.95 296.31 193.10 C 295.78 190.49 296.46 187.82 297.50 185.43 C 300.59 178.51 301.33 170.88 302.22 163.44 C 303.41 151.68 303.91 139.83 303.22 128.03 C 302.91 120.93 300.81 114.06 300.56 106.95 C 304.89 104.65 309.48 102.91 314.00 101.01 C 329.52 94.75 345.02 88.43 360.76 82.75 C 369.65 80.24 377.85 75.92 386.29 72.25 C 399.74 66.11 413.40 60.40 427.35 55.49 C 438.52 51.59 449.61 47.39 460.24 42.16 M 356.43 312.59 C 353.63 313.30 351.05 315.22 350.14 318.04 C 347.59 325.02 346.53 332.57 346.88 339.98 C 347.03 344.37 350.38 347.64 353.54 350.26 C 355.65 351.94 358.07 353.96 360.96 353.50 C 363.27 352.97 365.11 351.36 366.81 349.80 C 373.04 344.05 375.98 335.35 375.81 326.99 C 375.70 322.67 374.47 317.90 370.81 315.23 C 366.74 312.28 361.28 311.23 356.43 312.59 Z" />
<path d=" M 467.10 96.19 C 471.07 93.70 475.09 90.61 479.91 90.16 C 480.77 92.97 477.68 95.06 475.91 96.80 C 459.65 109.17 442.23 119.90 425.27 131.25 C 420.07 134.70 414.78 138.91 412.80 145.08 C 410.11 153.08 411.24 161.66 411.73 169.90 C 412.64 179.30 413.40 188.74 415.18 198.03 C 416.18 203.43 418.42 208.71 422.26 212.71 C 428.17 218.98 435.80 223.22 442.49 228.56 C 445.66 231.01 445.34 235.38 445.08 238.95 C 444.23 248.36 443.23 257.79 441.08 267.00 C 440.65 269.13 439.68 271.10 438.46 272.88 C 435.63 270.37 435.63 266.34 434.87 262.93 C 433.68 255.05 430.22 247.71 425.93 241.07 C 423.27 237.13 420.34 233.31 416.67 230.26 C 414.21 228.19 411.11 227.17 408.11 226.16 C 403.03 224.40 397.88 222.88 392.78 221.19 C 390.28 220.37 387.70 219.22 386.16 216.99 C 384.22 214.21 383.75 210.76 383.27 207.50 C 382.61 201.47 382.62 195.39 382.50 189.34 C 382.35 171.44 382.42 153.55 382.42 135.66 C 397.67 129.35 412.88 122.92 428.07 116.44 C 441.48 110.53 454.97 104.53 467.10 96.19 Z" />
<path d=" M 134.51 138.69 C 140.03 137.13 145.94 138.28 151.09 140.58 C 158.79 144.08 165.33 149.95 169.96 157.01 C 173.94 163.15 176.48 170.57 175.47 177.95 C 173.67 189.33 164.98 199.17 153.92 202.38 C 151.43 202.75 149.30 200.99 147.33 199.74 C 141.61 195.50 135.39 191.67 130.94 186.01 C 126.46 179.93 125.65 172.15 124.68 164.90 C 124.04 158.81 123.23 152.38 125.30 146.47 C 126.72 142.43 130.50 139.78 134.51 138.69 Z" />
</svg>
