<?xml version="1.0" encoding="UTF-8" standalone="no"?>
<svg
   xmlns:dc="http://purl.org/dc/elements/1.1/"
   xmlns:cc="http://creativecommons.org/ns#"
   xmlns:rdf="http://www.w3.org/1999/02/22-rdf-syntax-ns#"
   xmlns:svg="http://www.w3.org/2000/svg"
   xmlns="http://www.w3.org/2000/svg"
   height="381.06055"
   width="392.46094"
   version="1.1">
  <path
     d="M 196.23047,0 121.70703,55.056641 C 91.98023,49.337462 65.8944,44.115265 33.98828,40.382813 L 28.35156,52.81836 12.2207,88.414066 C 18.10754,101.55349 22.78821,113.76378 26.60742,125.3125 L 0,144.97071 39.26758,175.32618 c 3.29704,17.91324 5.37617,34.8902 7.95898,52.2539 L 14.54297,334.91602 51.82813,304.60157 c 49.07396,2.06654 78.19192,19.6479 107.25976,34.60742 l -3.05078,11.17773 c 12.65861,6.97248 25.69258,15.59581 40.19336,30.67383 14.50078,-15.07802 27.53475,-23.70135 40.19336,-30.67383 l -3.05078,-11.17773 c 29.06784,-14.95952 58.1858,-32.54088 107.25976,-34.60742 l 37.28516,30.31445 -32.68359,-107.33594 c 2.58281,-17.3637 4.66194,-34.34066 7.95898,-52.2539 l 39.26758,-30.35547 -26.60742,-19.65821 c 3.81921,-11.54872 8.49988,-23.75901 14.38672,-36.898434 L 364.10938,52.81836 358.47266,40.382813 c -31.90612,3.732453 -57.99195,8.954654 -87.71875,14.673828 z m 0,17.404297 173.01367,127.818363 -51.58203,39.875 33.50195,110.02344 -87.36914,-71.03516 -33.31054,23.39453 L 196.23047,349.05469 161.97656,247.48047 128.66602,224.08594 41.29688,295.1211 74.79883,185.09766 23.2168,145.22266 Z M 42,54.482422 c 23.07978,3.02348 43.52587,6.867624 65.4707,11.091794 L 52.78125,105.97657 C 49.12195,86.163016 46.00001,71.769306 42,54.482422 Z m 308.46094,0 c -4.00001,17.286894 -7.12195,31.680594 -10.78125,51.494148 L 284.99024,65.574216 c 21.94483,-4.22417 42.39092,-8.068307 65.4707,-11.091794 z M 145.42188,78.751956 88.20313,121.0254 c 2.51692,39.25637 20.78779,64.77706 49.27734,81.39062 -12.73532,-16.36858 -26.42332,-30.45069 -29.5,-70 l 15.5,-9 c 0,0 10.12974,56.37109 72.75,56.37109 62.62026,0 72.75,-56.37109 72.75,-56.37109 l 15.5,9 c -3.07668,39.54931 -16.76468,53.63142 -29.5,70 28.48955,-16.61356 46.76042,-42.13426 49.27734,-81.39062 L 247.03906,78.751956 c -1,40.817254 -8.57717,50.645404 -18.84179,58.894534 -10.26463,8.24913 -22.2168,12.41992 -31.9668,12.41992 -9.75,0 -21.70217,-4.17079 -31.9668,-12.41992 -10.26462,-8.24913 -17.84179,-18.07728 -18.84179,-58.894534 z m -16.13868,162.875004 20.89258,14.67383 14.08789,41.77148 c -12.42379,-6.72368 -26.9601,-12.29605 -42.32031,-17.41797 3.46342,7.48676 5.67739,16.84892 7.92969,26.15234 -16.89141,-7.40373 -36.3268,-13.85744 -60.14063,-16.76171 z m 133.89454,0 59.55078,48.41797 c -23.81383,2.90427 -43.24922,9.35799 -60.14063,16.76171 2.2523,-9.30342 4.46627,-18.66558 7.92969,-26.15234 -15.36021,5.12192 -29.89652,10.69429 -42.32031,17.41797 l 14.08789,-41.77148 z"
     style="fill:#000000" />
</svg>
