<?xml version="1.0" encoding="UTF-8" ?>
<svg width="635pt" height="1258pt" viewBox="0 0 635 1258" version="1.1" xmlns="http://www.w3.org/2000/svg">
<path d=" M 332.52 0.00 L 333.24 0.00 C 334.77 3.35 335.94 6.89 338.02 9.96 C 341.76 15.60 346.94 20.25 349.84 26.44 C 352.69 32.18 352.85 38.71 353.48 44.96 C 353.94 53.82 354.31 62.84 352.31 71.56 C 349.17 84.74 342.76 97.00 340.69 110.47 C 339.58 118.89 339.88 127.41 339.93 135.89 C 344.86 141.44 346.77 148.74 349.50 155.47 C 353.19 155.87 357.52 156.11 360.08 159.21 C 362.12 161.72 361.31 165.16 360.41 167.96 C 354.28 186.39 350.67 205.55 348.29 224.79 C 347.96 228.13 346.86 231.32 345.56 234.40 C 343.45 239.41 345.03 244.87 346.55 249.81 C 348.22 256.13 351.15 262.89 348.67 269.41 C 350.24 271.07 352.47 272.58 352.46 275.13 C 353.92 287.48 355.21 299.87 357.36 312.13 C 357.65 314.25 358.30 316.58 360.44 317.55 C 370.81 323.87 384.30 320.78 394.42 327.75 C 402.29 333.05 408.77 340.33 417.38 344.53 C 419.47 345.60 421.80 346.05 424.11 346.43 C 436.11 348.33 448.09 350.41 460.10 352.31 C 462.11 352.60 464.10 353.13 465.92 354.08 C 484.19 363.45 498.98 378.19 517.01 387.96 C 524.61 392.16 532.52 396.10 538.93 402.08 C 541.38 404.44 543.94 407.07 544.60 410.55 C 545.82 415.97 546.37 421.51 546.87 427.03 C 551.57 429.55 554.86 433.86 558.00 438.03 C 561.86 443.21 565.27 448.70 568.73 454.16 C 574.31 455.75 577.66 460.83 580.67 465.41 C 585.99 473.49 589.26 482.64 593.88 491.09 C 598.78 500.57 603.55 510.12 608.49 519.58 C 611.89 525.44 611.67 532.47 612.92 538.95 C 614.74 540.84 616.65 542.65 618.41 544.60 C 620.70 547.17 621.67 550.57 622.69 553.79 C 624.33 559.12 624.99 564.68 625.44 570.22 C 626.71 570.41 627.99 570.60 629.27 570.81 C 630.00 580.86 630.09 590.96 630.33 601.04 C 630.38 606.00 634.31 609.97 634.24 614.98 C 634.63 619.23 632.84 623.34 629.84 626.30 C 629.75 630.72 629.83 635.15 629.73 639.57 C 631.27 639.40 633.41 637.62 634.35 639.74 C 634.94 648.64 632.99 657.50 630.65 666.04 C 627.15 678.31 622.57 690.31 620.47 702.94 C 618.36 715.81 618.46 728.93 616.35 741.80 C 615.78 745.78 613.52 749.18 611.82 752.73 C 609.78 756.63 608.26 760.90 605.25 764.20 C 598.80 771.44 592.34 778.68 585.99 786.00 C 584.56 787.54 583.20 789.38 581.03 789.86 C 574.62 791.86 568.48 794.57 562.50 797.60 C 563.00 806.49 560.75 815.88 554.58 822.54 C 552.26 825.31 549.11 827.14 546.44 829.50 C 544.73 832.02 543.76 834.93 542.48 837.67 C 538.16 838.60 533.64 839.29 529.82 841.66 C 522.58 846.02 523.18 856.76 515.43 860.60 C 505.66 864.69 496.07 869.17 486.50 873.69 C 480.56 876.04 477.04 881.68 472.37 885.73 C 478.32 884.73 484.30 883.72 490.12 882.06 C 501.27 878.30 509.29 869.11 519.53 863.68 C 523.24 861.69 527.39 860.82 531.36 859.53 C 530.06 860.62 528.76 861.72 527.48 862.84 C 526.93 866.64 526.34 870.43 525.71 874.23 C 516.97 874.79 508.29 877.34 500.78 881.90 C 496.93 884.19 493.69 887.46 491.61 891.45 C 475.99 896.35 463.39 907.26 449.29 915.15 C 442.07 919.23 434.24 923.02 425.78 923.16 C 424.06 922.70 424.47 920.74 424.14 919.42 C 427.54 917.78 430.91 916.09 434.22 914.30 C 428.48 914.28 422.75 914.62 417.01 914.81 C 414.79 920.35 410.73 925.17 405.19 927.58 C 393.06 933.43 378.85 932.27 366.64 937.83 C 362.64 941.59 359.30 946.03 355.44 949.96 C 355.80 950.73 356.52 952.27 356.88 953.04 C 354.54 955.93 351.67 959.08 351.80 963.06 C 352.34 966.77 354.74 969.82 356.06 973.26 C 357.88 977.61 357.33 982.42 357.40 987.02 C 357.42 1007.42 357.31 1027.82 357.42 1048.22 C 360.61 1052.24 362.47 1057.07 364.39 1061.78 C 365.28 1064.08 366.28 1066.44 366.26 1068.97 C 366.28 1085.73 366.10 1102.49 366.22 1119.25 C 361.73 1119.54 357.12 1119.31 352.80 1120.79 C 352.80 1136.43 352.76 1152.07 352.82 1167.71 C 354.40 1169.37 356.33 1170.92 357.02 1173.22 C 357.91 1176.01 357.04 1178.95 356.28 1181.68 C 352.36 1183.64 348.65 1187.22 348.52 1191.88 C 348.17 1203.90 347.97 1215.94 347.47 1227.95 C 345.75 1231.35 342.36 1233.64 340.55 1237.00 C 339.40 1243.94 339.06 1251.01 338.25 1258.00 L 336.56 1258.00 C 334.72 1254.72 332.05 1252.11 329.52 1249.40 C 325.98 1245.47 326.83 1239.84 326.71 1234.99 C 326.39 1207.99 326.42 1180.98 325.82 1153.98 C 325.76 1150.72 326.10 1147.34 324.87 1144.26 C 323.28 1139.87 321.66 1135.50 320.04 1131.14 C 316.72 1123.36 317.70 1114.68 316.12 1106.53 C 309.35 1101.20 302.61 1094.72 300.49 1086.06 C 299.63 1072.40 299.58 1058.68 298.88 1045.01 C 299.02 1039.39 295.06 1035.08 292.50 1030.45 C 289.91 1026.10 290.62 1020.84 290.42 1016.02 C 290.19 999.28 292.06 981.97 286.56 965.82 C 285.38 961.77 282.45 958.34 282.16 954.04 C 281.49 949.97 281.94 945.60 280.08 941.82 C 279.03 940.84 277.45 940.88 276.15 940.50 C 271.05 939.52 265.95 938.56 260.87 937.51 C 250.84 934.84 240.98 939.94 230.94 939.79 C 228.62 939.89 226.67 938.44 225.02 937.00 C 220.54 933.02 217.86 927.52 213.96 923.04 C 212.41 921.35 210.53 919.52 208.09 919.49 C 197.38 918.91 186.67 918.46 175.95 918.04 C 172.13 914.10 167.58 911.02 163.07 907.95 C 154.23 902.01 145.14 896.43 136.03 890.91 C 131.84 888.15 126.64 888.18 121.89 887.17 C 118.82 883.29 114.38 881.06 110.16 878.70 C 106.91 876.99 104.90 873.83 103.32 870.65 C 107.89 869.10 111.92 872.80 116.31 873.56 C 116.33 871.65 116.33 869.76 116.34 867.88 C 109.58 861.13 101.50 854.62 98.89 845.01 C 98.63 843.77 97.38 843.20 96.56 842.39 C 92.83 839.48 90.00 835.63 86.55 832.43 C 82.41 828.63 76.70 827.20 72.45 823.58 C 68.93 819.74 65.77 815.53 61.74 812.19 C 59.53 810.21 56.96 808.67 54.83 806.61 C 53.71 803.91 53.35 800.89 51.71 798.42 C 50.27 796.17 47.66 795.18 45.71 793.50 C 45.40 792.39 45.14 791.29 44.93 790.19 C 49.71 795.44 56.62 798.47 60.58 804.49 C 62.38 806.94 62.52 810.02 63.25 812.87 C 65.25 814.20 67.80 814.51 70.06 815.31 C 71.03 815.00 72.00 814.71 72.97 814.43 C 71.46 812.82 69.64 811.35 68.83 809.24 C 68.00 806.40 68.17 803.34 67.19 800.55 C 66.16 798.76 64.51 797.44 63.00 796.08 C 58.11 791.99 53.03 787.95 49.25 782.76 C 47.36 780.24 46.47 777.16 46.07 774.08 C 44.50 774.62 42.93 775.18 41.35 775.73 C 41.02 776.90 40.70 778.08 40.39 779.28 C 39.90 774.79 35.00 773.71 32.57 770.65 C 30.91 766.57 30.51 762.14 29.62 757.87 C 28.67 752.37 26.49 747.20 24.72 741.94 C 18.48 723.69 12.10 705.49 5.88 687.24 C 4.98 681.54 5.20 675.72 4.65 669.98 C 4.67 664.67 0.94 660.21 0.86 654.94 C 1.16 651.79 2.70 648.86 4.96 646.68 C 4.97 656.41 9.59 665.37 9.69 675.08 C 11.68 677.14 13.70 679.17 15.80 681.13 C 15.89 667.78 8.93 655.43 9.68 642.02 C 10.06 634.62 10.85 627.03 8.50 619.86 C 6.22 618.40 3.57 617.14 2.18 614.70 C 0.09 611.17 0.68 606.89 0.39 602.97 C 0.07 597.93 0.16 592.75 2.24 588.05 C 3.31 589.57 4.89 590.94 5.14 592.88 C 5.58 598.62 4.87 604.51 6.40 610.14 C 8.76 610.28 11.12 610.45 13.48 610.63 C 15.01 605.58 12.99 600.38 11.80 595.48 C 9.51 588.20 9.38 580.52 8.79 572.98 C 8.07 556.53 8.69 539.81 13.09 523.85 C 15.29 515.63 17.24 507.34 19.47 499.13 C 20.29 498.87 21.92 498.34 22.74 498.08 C 21.10 505.61 20.97 513.36 21.29 521.03 C 21.48 524.00 21.68 527.16 23.30 529.76 C 25.66 530.34 28.26 529.47 29.99 527.81 C 31.51 525.89 31.39 523.30 31.48 520.99 C 31.48 512.99 31.43 504.99 31.52 497.00 C 32.75 495.96 34.02 494.97 35.11 493.79 C 35.14 492.61 35.01 491.44 34.71 490.29 C 35.38 489.04 36.07 487.81 36.75 486.58 C 39.30 486.31 41.95 486.28 44.34 485.25 C 46.02 481.41 45.11 476.94 45.61 472.85 C 47.79 471.47 49.93 470.03 52.00 468.49 C 50.47 466.78 48.93 465.08 47.38 463.39 C 43.12 464.20 38.64 465.76 36.55 469.88 C 36.61 467.83 36.61 465.77 36.62 463.72 C 39.91 462.64 43.19 461.15 45.44 458.43 C 51.96 450.96 54.74 441.18 59.84 432.82 C 61.30 430.32 63.86 428.84 65.85 426.83 C 67.22 425.34 68.20 423.53 69.36 421.88 C 71.20 425.52 71.62 429.63 72.66 433.53 C 76.78 430.20 79.41 425.24 84.25 422.80 C 85.84 416.90 86.55 410.75 88.70 405.01 C 89.33 403.46 90.17 401.51 92.10 401.40 C 99.33 399.96 106.75 398.19 112.87 393.89 C 114.94 392.55 115.68 390.11 116.94 388.14 C 118.91 386.56 121.27 385.56 123.43 384.26 C 131.64 379.45 139.44 373.90 146.48 367.48 C 148.41 365.73 150.13 363.73 152.23 362.17 C 155.08 360.52 158.50 360.14 161.33 358.44 C 163.04 357.10 164.47 355.43 165.99 353.87 C 168.12 358.38 173.41 360.20 178.12 359.62 C 181.17 356.01 184.42 352.33 186.27 347.92 C 183.20 349.44 180.35 351.68 176.78 351.81 C 176.39 349.71 175.99 347.61 175.59 345.51 C 179.73 342.50 184.15 339.93 188.83 337.85 C 193.53 335.82 196.66 330.94 201.92 330.13 C 211.59 327.95 221.30 325.99 230.99 323.94 C 235.05 323.64 232.12 317.71 235.42 316.70 C 241.32 315.81 247.35 316.06 253.25 315.19 C 260.13 312.63 265.57 306.92 272.91 305.43 C 275.71 304.75 278.47 305.70 281.00 306.84 C 281.46 301.70 281.78 296.43 280.41 291.40 C 278.93 285.22 274.88 280.02 273.50 273.82 C 272.87 270.77 272.53 267.47 273.77 264.53 C 275.53 261.54 278.92 259.73 280.20 256.43 C 281.08 252.60 281.39 248.67 282.33 244.85 C 284.94 244.77 287.66 245.06 290.16 244.13 C 290.96 240.46 290.84 236.66 291.38 232.94 C 291.46 230.67 292.46 228.12 291.03 226.08 C 288.24 221.42 285.71 216.47 284.84 211.05 C 284.37 207.83 284.58 204.25 286.58 201.55 C 290.10 197.18 294.91 194.04 298.45 189.71 C 299.06 180.15 299.38 170.56 299.65 160.99 C 299.51 155.02 303.44 149.93 303.72 144.04 C 304.14 139.34 304.41 134.64 304.63 129.93 C 304.46 120.91 311.82 113.95 312.47 105.08 C 312.71 100.39 312.73 95.68 313.12 91.00 C 313.57 85.46 312.92 79.75 314.67 74.38 C 317.51 64.69 321.72 55.41 326.92 46.77 C 328.74 43.63 331.87 41.62 334.06 38.80 C 335.39 35.75 335.79 32.39 336.55 29.16 C 334.95 26.34 333.64 23.33 333.04 20.13 C 331.74 13.52 331.01 6.64 332.52 0.00 M 223.90 394.89 C 217.06 401.37 210.95 408.64 203.72 414.71 C 201.80 416.38 199.64 417.75 197.32 418.77 C 197.29 424.43 196.63 430.08 196.69 435.75 C 194.76 436.02 192.82 436.26 190.88 436.47 C 187.84 434.09 185.09 431.34 182.69 428.32 C 181.97 430.24 181.41 432.43 179.65 433.70 C 177.04 435.65 173.74 436.23 170.65 437.00 C 171.92 441.38 170.60 445.89 169.44 450.14 C 164.00 450.67 158.29 449.83 153.06 451.71 C 155.82 454.76 156.91 458.77 156.76 462.82 C 151.08 463.61 146.05 466.46 141.52 469.85 C 144.21 474.82 143.55 480.70 142.19 485.96 C 137.31 483.14 134.27 478.19 132.15 473.12 C 130.84 476.26 129.75 479.55 129.75 483.00 C 129.57 490.75 131.97 498.78 129.27 506.34 C 128.85 508.04 126.33 507.91 125.78 509.51 C 125.57 511.20 124.39 512.05 122.84 512.51 C 122.15 509.59 121.52 506.65 120.59 503.80 C 118.06 503.68 115.53 503.55 113.00 503.44 C 112.81 506.41 112.66 509.39 112.52 512.37 C 115.12 512.35 117.72 512.36 120.32 512.40 C 120.26 514.70 121.58 517.60 119.52 519.35 C 115.25 523.96 110.49 528.48 104.48 530.66 C 99.98 537.45 95.20 544.08 90.90 551.00 C 88.08 559.70 91.39 568.79 94.28 577.03 C 97.23 584.86 99.52 593.17 98.47 601.61 C 97.20 601.59 95.93 601.57 94.66 601.55 C 94.43 602.15 93.98 603.35 93.75 603.95 C 93.20 610.56 94.33 617.15 94.45 623.75 C 93.59 623.64 91.89 623.43 91.04 623.32 C 89.17 621.39 89.97 618.38 89.65 615.96 C 89.70 609.30 86.67 603.26 84.14 597.28 C 83.20 597.39 82.27 597.51 81.33 597.64 C 81.20 599.60 81.46 601.72 80.36 603.48 C 78.87 606.17 76.62 608.70 76.80 611.99 C 76.70 620.34 76.58 628.70 76.52 637.06 C 79.35 637.67 82.22 638.14 85.01 638.93 C 86.77 640.33 87.57 642.57 88.71 644.47 C 93.91 654.51 98.36 665.36 98.94 676.79 C 94.66 677.26 90.35 677.38 86.05 677.49 C 85.75 678.93 85.30 680.48 86.06 681.90 C 89.63 691.21 95.86 699.32 98.80 708.90 C 102.34 719.59 102.98 731.11 107.34 741.53 C 110.13 743.00 113.41 743.32 116.34 744.50 C 116.58 752.66 122.81 758.77 129.15 763.04 C 131.55 773.06 136.96 782.30 144.24 789.56 C 148.61 794.00 154.18 797.59 160.47 798.37 C 161.69 801.94 162.89 805.68 165.49 808.52 C 169.09 812.62 174.31 814.63 179.11 816.92 C 183.81 826.45 192.49 833.08 200.99 839.06 C 216.14 849.28 232.72 857.32 249.94 863.42 C 259.51 866.68 269.38 869.67 279.58 869.73 C 282.69 860.84 285.63 851.89 288.75 843.00 C 290.05 839.82 289.56 836.32 289.85 833.00 C 290.61 823.04 290.35 813.04 291.29 803.10 C 295.09 799.46 296.52 794.22 298.12 789.38 C 299.90 784.06 298.73 778.47 298.83 773.01 C 298.82 768.33 298.83 763.66 298.80 758.99 C 299.08 754.98 296.23 751.74 295.50 747.96 C 294.99 733.89 295.64 719.77 294.83 705.72 C 292.08 705.38 289.35 704.96 286.62 704.49 C 286.68 678.07 286.41 651.64 286.64 625.23 C 287.85 624.44 289.07 623.66 290.27 622.87 C 293.81 610.98 296.91 598.52 295.09 586.05 C 293.65 578.14 289.05 570.94 282.73 566.03 C 282.44 559.68 281.96 553.35 281.50 547.02 C 280.87 544.13 277.66 542.20 277.85 539.04 C 277.86 532.07 277.62 525.09 277.83 518.13 C 279.13 516.06 281.37 514.82 282.91 512.94 C 286.69 508.52 289.81 503.59 293.14 498.84 C 293.57 498.67 294.43 498.34 294.86 498.18 C 294.65 494.42 294.82 490.54 293.49 486.95 C 292.42 483.00 290.41 479.19 290.63 475.01 C 290.54 464.67 290.31 454.34 290.22 444.01 C 290.32 438.93 287.79 434.38 286.64 429.56 C 286.01 425.68 286.00 421.66 284.44 418.00 C 282.92 414.12 281.56 409.94 282.62 405.75 C 283.26 405.59 284.54 405.27 285.17 405.11 C 285.93 402.43 286.15 399.65 286.39 396.89 C 286.38 394.83 288.21 393.58 289.47 392.23 C 276.69 391.79 263.82 389.52 251.09 391.71 C 245.75 392.58 240.58 394.94 236.97 399.05 C 234.56 399.51 232.28 400.44 230.17 401.67 C 232.13 398.08 233.18 394.11 234.58 390.29 C 231.03 391.80 227.04 392.57 223.90 394.89 M 370.80 393.95 C 370.50 401.62 370.22 409.31 369.53 416.97 C 368.55 419.63 365.90 421.06 363.94 422.93 C 362.40 424.11 362.28 426.42 360.57 427.41 C 358.08 428.93 355.56 430.46 353.66 432.72 C 353.65 435.15 353.58 437.59 353.54 440.03 C 357.12 442.25 359.79 445.64 361.67 449.37 C 358.54 450.21 353.97 448.63 352.17 452.11 C 351.08 453.79 349.46 455.13 348.65 456.99 C 348.30 460.02 349.01 463.03 349.56 466.00 C 350.56 470.97 351.61 475.94 352.90 480.85 C 357.22 481.86 359.78 485.64 362.03 489.13 C 364.76 490.39 367.91 490.58 370.71 491.73 C 370.73 505.32 375.56 518.39 375.38 532.00 C 375.36 536.74 375.37 541.47 375.38 546.21 C 377.95 544.55 380.85 543.23 383.97 543.21 C 386.60 543.12 389.78 543.07 391.62 545.30 C 393.17 546.79 392.84 549.20 392.07 551.01 C 389.24 557.52 385.97 563.97 384.77 571.04 C 384.20 577.51 384.12 584.04 383.35 590.49 C 378.52 603.58 372.27 616.12 366.98 629.02 C 362.56 648.71 363.28 669.04 361.64 689.05 C 361.40 696.49 356.40 702.66 355.33 709.92 C 354.83 712.92 355.14 715.98 355.22 719.01 C 355.59 731.87 355.37 744.84 357.68 757.55 C 359.74 765.19 363.36 772.33 365.60 779.91 C 366.12 786.26 366.34 792.64 366.51 799.03 C 366.42 805.62 370.69 811.40 370.57 817.99 C 370.59 828.35 370.76 838.71 370.76 849.07 C 371.36 851.95 366.89 851.40 366.62 853.97 C 366.13 858.49 367.47 862.97 369.21 867.10 C 376.74 863.83 385.04 862.88 392.57 859.71 C 399.51 854.38 407.23 850.17 415.07 846.34 C 418.84 844.57 422.66 842.57 426.91 842.39 C 430.24 838.49 433.84 834.72 438.23 832.00 C 443.71 828.57 449.68 826.03 455.61 823.50 C 456.31 820.90 456.97 818.28 457.64 815.68 C 464.31 813.62 471.18 812.12 477.73 809.70 C 481.57 806.66 484.51 802.60 488.43 799.66 C 493.55 797.74 499.28 798.36 504.34 796.20 C 506.48 795.25 508.25 793.39 508.59 791.01 C 510.33 783.42 513.36 776.19 517.28 769.47 C 518.07 767.76 520.08 767.33 521.59 766.47 C 527.70 763.57 533.77 759.39 536.54 752.98 C 537.94 750.20 538.02 747.03 538.87 744.11 C 542.96 741.06 547.71 739.05 552.30 736.88 C 550.08 728.94 546.34 721.31 545.80 712.98 C 545.48 710.46 548.49 709.51 549.14 707.46 C 549.59 699.26 549.53 691.03 550.28 682.86 C 554.98 680.62 553.99 674.73 554.14 670.47 C 556.95 670.48 559.75 670.41 562.56 670.20 C 557.97 667.79 552.62 666.10 549.49 661.67 C 549.54 655.22 549.53 648.77 549.50 642.32 C 550.71 642.31 551.92 642.23 553.13 642.06 C 553.83 640.45 553.64 638.64 553.60 636.94 C 553.44 632.55 550.39 628.99 549.65 624.72 C 552.63 624.54 555.69 624.50 558.43 623.13 C 558.18 620.41 557.70 617.59 556.03 615.36 C 554.52 613.58 552.43 612.42 550.90 610.69 C 549.52 606.96 548.48 602.30 550.67 598.71 C 552.65 596.96 555.43 596.46 557.78 595.34 C 558.00 593.13 558.17 590.93 558.28 588.73 C 555.43 587.89 552.13 588.01 549.68 586.21 C 549.57 585.88 549.36 585.23 549.26 584.90 C 551.55 578.36 552.81 571.06 557.84 565.93 C 556.65 565.64 555.47 565.39 554.28 565.15 C 552.33 553.32 541.74 546.05 536.41 535.94 C 531.85 527.37 534.27 517.08 530.37 508.30 C 529.74 507.45 528.75 506.99 527.92 506.40 C 522.99 503.38 518.48 499.69 514.39 495.61 C 506.32 487.75 499.06 478.68 494.94 468.10 C 486.16 462.01 478.10 454.96 470.08 447.91 C 467.19 445.53 465.13 442.04 461.46 440.74 C 452.73 436.58 442.98 432.43 437.81 423.75 C 430.15 422.10 422.40 420.21 415.52 416.33 C 412.15 414.37 408.93 411.76 407.45 408.03 C 407.75 407.45 408.34 406.30 408.63 405.72 C 412.73 405.71 416.13 402.56 420.32 403.44 C 416.52 402.02 413.30 399.44 410.44 396.62 C 400.29 396.63 390.04 397.43 379.97 395.92 C 377.26 395.69 375.04 394.08 373.13 392.28 C 372.55 392.70 371.39 393.53 370.80 393.95 Z" />
</svg>
