<?xml version="1.0" encoding="UTF-8" standalone="no"?>
<svg
   xmlns:dc="http://purl.org/dc/elements/1.1/"
   xmlns:cc="http://creativecommons.org/ns#"
   xmlns:rdf="http://www.w3.org/1999/02/22-rdf-syntax-ns#"
   xmlns:svg="http://www.w3.org/2000/svg"
   xmlns="http://www.w3.org/2000/svg"
   height="385.125"
   width="375.78125"
   version="1.1">
  <path
     d="m 244.24609,0 c 19.30437,45.913076 -0.0153,90.261126 -58.91016,101.34766 -56.55407,10.6459 -92.63155,25.11975 -116.67578,59.79687 -25.4899,36.76213 -7.65194,86.6984 19.54297,95.42579 39.87186,12.79567 86.13211,-35.16986 33.15821,-63.50196 41.75712,-24.09602 68.83514,4.0227 77.53125,25.84375 -12.79314,4.18035 -48.3351,58.55774 -93.99805,75.00586 C 81.3186,302.41019 28.47756,291.01335 0,252.36524 11.6493,328.47089 72.08106,371.85321 125.03515,385.125 c 40.03469,-63.72362 109.66835,-65.54968 151.39844,-14.44726 20.81104,-36.98533 50.89468,-65.05447 89.03711,-85.375 -4.65817,-6.57725 -21.1944,-18.58046 -44.89258,-27.875 22.09888,-50.58326 38.15665,-52.16693 55.20313,-61.76953 -14.68685,-8.94926 -38.021,-12.50432 -65.99805,-13.49414 8.56694,-15.12969 8.91611,-25.83242 8.97461,-37.03516 -39.1054,20.96852 -69.4914,21.44773 -97.87695,17.22461 51.16877,-11.72353 71.01623,-27.53019 88.35547,-43.77539 C 313.48133,65.194366 297.96979,22.377245 244.24609,0 Z m 79.29492,196.79297 c 4.83433,-0.026 9.82591,0.0877 14.98047,0.35352 -13.65893,13.31482 -23.59745,30.21146 -31.43945,55.54883 -33.87283,-10.4226 -78.40399,-13.7924 -123.48047,7.60742 17.35886,-17.94059 53.46786,-63.04501 139.93945,-63.50977 z m -73.0957,64.09571 c 24.03454,0.15049 52.57046,5.46827 87.98633,19.21093 -24.45796,16.80848 -49.89638,32.41947 -62.82422,63.32032 -75.23932,-69.03146 -119.43979,15.89249 -218.76563,-34.76368 79.34428,17.07164 107.76588,-48.30504 193.60352,-47.76757 z M 43.32812,317.34766 c 32.27191,13.77449 63.61548,29.13955 109.36328,19.8125 -12.08464,7.06693 -24.16926,14.90757 -36.2539,31.0918 -25.95125,-8.74442 -50.46765,-24.95039 -73.10938,-50.9043 z"
     style="fill:#000000" />
</svg>
