<?xml version="1.0" encoding="UTF-8" standalone="no"?>
<svg
   xmlns:dc="http://purl.org/dc/elements/1.1/"
   xmlns:cc="http://creativecommons.org/ns#"
   xmlns:rdf="http://www.w3.org/1999/02/22-rdf-syntax-ns#"
   xmlns:svg="http://www.w3.org/2000/svg"
   xmlns="http://www.w3.org/2000/svg"
   height="387"
   width="333.03906"
   version="1.1">
  <path
     d="M 45.0625,0 77.67773,51.695312 C 31.02291,81.22195 0,133.27859 0,192.5 0,246.34293 25.6472,294.2612 65.36719,324.71289 v 0.0156 l 48.55273,-84.09375 h 0.008 C 102.33452,227.96951 95.26953,211.0846 95.26953,192.5 c 0,-25.43905 13.24218,-47.67833 33.21875,-60.27734 L 166.51953,192.5 287.97656,0 Z m 121.45703,41.980469 c 19.24125,0 37.62538,3.607909 54.52734,10.169922 -15.71764,1.125981 -31.06331,5.330683 -45.03515,12.703129 -3.29035,1.73619 -6.45524,3.62594 -9.49219,5.65429 -3.03695,-2.02835 -6.20184,-3.9181 -9.49219,-5.65429 -13.97765,-7.375509 -29.3302,-11.581202 -45.05469,-12.705082 16.9079,-6.563225 35.29966,-10.167969 54.54688,-10.167969 z M 103.31641,61.67773 c 17.20548,-0.054 34.10758,3.8551 49.1621,11.79883 1.94313,1.02532 3.83441,2.1102 5.67969,3.2461 -9.63184,7.91947 -17.64065,17.38743 -23.74414,27.95898 -1.61351,2.79469 -3.08305,5.67149 -4.41992,8.61328 -4.83901,2.24165 -9.43892,4.91144 -13.75195,7.96485 -3.2344,-0.31162 -6.47811,-0.47266 -9.72266,-0.47266 -12.20679,0 -24.41169,2.20083 -36.08594,6.58203 -0.061,-2.16531 -0.0543,-4.34628 0.0293,-6.54102 C 71.26017,99.89339 78.74861,79.5915 91.375,62.34766 95.35877,61.914 99.34588,61.6902 103.31641,61.67773 Z m 125.25585,0.0176 c 0.31998,-0.002 0.64075,0.009 0.96094,0.01 l -29.14258,46.1875 c -0.5707,-1.07997 -1.15495,-2.15323 -1.76562,-3.21094 -6.10349,-10.57155 -14.1123,-20.03951 -23.74414,-27.95898 1.84528,-1.1359 3.73656,-2.22078 5.67969,-3.2461 14.71876,-7.76656 31.20397,-11.66539 48.01171,-11.78125 z m 39.09961,0.57617 -48.55273,84.09375 h -0.008 c 11.5934,12.66524 18.65839,29.55015 18.65839,48.13475 0,25.43905 -13.24218,47.67833 -33.21875,60.27734 L 166.51953,194.5 45.0625,387 h 242.91406 l -32.61523,-51.69531 c 46.65482,-29.52664 77.67773,-81.58328 77.67773,-140.80469 0,-53.84293 -25.6472,-101.7612 -65.36719,-132.21289 z M 72.22851,75.11916 c -6.87843,14.17053 -10.90682,29.55788 -11.50781,45.33789 -0.14157,3.71741 -0.0877,7.40289 0.15039,11.04688 -3.27489,1.61575 -6.49399,3.41127 -9.64258,5.39257 -13.35335,8.4029 -24.65705,19.5741 -33.48632,32.60157 C 23.55724,131.461 43.57914,98.15095 72.22851,75.11916 Z m 94.29102,7.37498 c 9.73557,7.51169 17.73698,16.68795 23.71094,27.03516 1.4969,2.5927 2.85824,5.26163 4.08398,7.99609 l -27.79492,44.05078 -24.26562,-38.45898 -1.98438,-3.14453 -1.52344,-2.41602 c 1.22011,-2.74398 2.56223,-5.4288 4.0625,-8.02734 5.97396,-10.34721 13.97537,-19.52347 23.71094,-27.03516 z m 105.37109,4.4668 c 22.69144,22.23565 38.35371,51.60627 43.39063,84.51562 -8.8271,-13.01804 -20.12486,-24.18191 -33.4707,-32.58008 -3.14917,-1.98167 -6.36898,-3.77561 -9.64454,-5.39062 0.23822,-3.64465 0.29395,-7.33073 0.15235,-11.04883 -0.36371,-9.54969 -1.98889,-18.95388 -4.73633,-28.0332 z m -11.30664,19.58203 c 1.10142,5.35656 1.78322,10.79792 1.99219,16.28515 0.0836,2.19606 0.0904,4.37834 0.0293,6.54493 -4.2527,-1.59428 -8.57508,-2.89873 -12.94336,-3.91211 z M 105.21875,130.49609 C 94.26709,141.32337 86.16566,155.01955 82.13476,170.34766 76.541,160.31278 72.82641,149.21617 71.25195,137.49805 c 10.96022,-4.50588 22.45317,-6.83815 33.9668,-7.00196 z m 139.35156,3.78516 c 5.83316,1.16804 11.59308,2.91303 17.21484,5.22266 -1.5753,11.71885 -5.2952,22.81263 -10.89062,32.84765 -2.6027,-9.87939 -6.90021,-19.07487 -12.56055,-27.26758 z m -182.49609,7.57227 c 2.04268,12.30008 6.23669,23.97003 12.33984,34.54101 1.61021,2.78895 3.35873,5.4966 5.23242,8.12109 -0.24023,2.6314 -0.37695,5.29163 -0.37695,7.98438 0,2.69179 0.12277,5.35623 0.36328,7.98633 -1.86857,2.62442 -3.61016,5.33299 -5.21875,8.11914 -6.10252,10.56989 -10.29693,22.23843 -12.33984,34.53711 -1.90627,-1.0298 -3.79294,-2.12094 -5.65235,-3.29102 C 38.6905,228.69373 24.85283,212.05669 16.23242,192.5 c 8.62041,-19.55669 22.45808,-36.19373 40.18945,-47.35156 1.85944,-1.17009 3.74609,-2.26485 5.65235,-3.29492 z m 208.89062,2.0039 c 1.90627,1.0298 3.79294,2.12094 5.65235,3.29102 17.73137,11.15783 31.56904,27.79487 40.18945,47.35156 -8.62041,19.55669 -22.45808,36.19373 -40.18945,47.35156 -1.85944,1.17009 -3.74609,2.26485 -5.65235,3.29492 -2.04268,-12.30008 -6.23669,-23.97003 -12.33984,-34.54101 -1.61021,-2.78895 -3.35873,-5.49661 -5.23242,-8.12109 0.24023,-2.6314 0.37695,-5.29163 0.37695,-7.98438 0,-2.69179 -0.12277,-5.35623 -0.36328,-7.98633 1.86857,-2.62442 3.61016,-5.33299 5.21875,-8.11914 6.10252,-10.56989 10.29693,-22.23843 12.33984,-34.53711 z M 82.14453,214.64844 c 2.6027,9.87939 6.90021,19.07487 12.56055,27.26758 l -6.23633,10.80273 c -5.83316,-1.16804 -11.59309,-2.91303 -17.21484,-5.22266 1.57531,-11.71885 5.2952,-22.81263 10.89062,-32.84765 z m -64.38672,0.875 c 8.8271,13.01804 20.12486,24.18191 33.4707,32.58008 3.14917,1.98167 6.36898,3.77561 9.64454,5.39062 -0.23822,3.64465 -0.29395,7.33073 -0.15235,11.04883 0.36371,9.54969 1.98889,18.95388 4.73633,28.0332 l -4.30859,7.46289 C 38.457,277.80341 22.79473,248.43279 17.75781,215.52344 Z m 233.14649,1.1289 c 5.59376,10.03488 9.30835,21.13149 10.88281,32.84961 -10.96022,4.50588 -22.45317,6.83815 -33.9668,7.00196 10.95166,-10.82728 19.05309,-24.52346 23.08399,-39.85157 z m 64.39257,0.84961 c -5.81505,38.03707 -25.83695,71.34712 -54.48632,94.37891 6.87843,-14.17053 10.90682,-29.55788 11.50781,-45.33789 0.14157,-3.71741 0.0877,-7.40289 -0.15039,-11.04688 3.27489,-1.61575 6.49399,-3.41127 9.64258,-5.39257 13.35335,-8.4029 24.65705,-19.5741 33.48632,-32.60157 z m -148.77734,7.92188 24.26562,38.45898 1.98438,3.14453 1.52344,2.41602 c -1.22011,2.74398 -2.56223,5.4288 -4.0625,8.02734 -5.97396,10.34721 -13.97537,19.52347 -23.71094,27.03516 -9.73557,-7.51169 -17.73698,-16.68795 -23.71094,-27.03516 -1.4969,-2.5927 -2.85824,-5.26163 -4.08398,-7.99609 z m -96.08594,32.20312 c 4.2527,1.59428 8.57508,2.89873 12.94336,3.91211 l -10.92187,18.91797 c -1.10142,-5.35656 -1.78322,-10.79791 -1.99219,-16.28515 -0.0836,-2.19606 -0.0904,-4.37834 -0.0293,-6.54493 z m 192.17188,2.00391 c 0.061,2.16531 0.0543,4.34628 -0.0293,6.54102 -0.79728,20.93473 -8.28572,41.23662 -20.91211,58.48046 -3.98377,0.43366 -7.97089,0.65746 -11.94141,0.66993 -17.20548,0.054 -34.10758,-3.8551 -49.1621,-11.79883 -1.94313,-1.02532 -3.83441,-2.1102 -5.67969,-3.2461 9.63184,-7.91947 17.64065,-17.38743 23.74414,-27.95898 1.61351,-2.79469 3.08305,-5.67149 4.41992,-8.61328 4.83901,-2.24165 9.43892,-4.91144 13.75195,-7.96485 3.2344,0.31162 6.47811,0.47266 9.72266,0.47266 12.20679,0 24.41169,-2.20083 36.08594,-6.58203 z m -129.95703,19.47656 c 0.5707,1.07997 1.15495,2.15323 1.76562,3.21094 6.10349,10.57155 14.1123,20.03951 23.74414,27.95898 -1.84528,1.1359 -3.73656,2.22078 -5.67969,3.2461 -14.71876,7.76656 -31.20397,11.66539 -48.01171,11.78125 -0.31998,0.002 -0.64075,-0.009 -0.96094,-0.01 z m 33.87109,37.38477 c 3.03695,2.02835 6.20184,3.9181 9.49219,5.65429 13.97765,7.3755 29.3302,11.5812 45.05469,12.70508 -16.9079,6.56323 -35.29966,10.16797 -54.54688,10.16797 -19.24125,0 -37.62538,-3.60791 -54.52734,-10.16992 15.71764,-1.12598 31.06331,-5.33069 45.03515,-12.70313 3.29035,-1.73619 6.45524,-3.62594 9.49219,-5.65429 z"
     style="fill:#000000" />
</svg>
