<?xml version="1.0" encoding="UTF-8" standalone="no"?>
<svg
   xmlns:dc="http://purl.org/dc/elements/1.1/"
   xmlns:cc="http://creativecommons.org/ns#"
   xmlns:rdf="http://www.w3.org/1999/02/22-rdf-syntax-ns#"
   xmlns:svg="http://www.w3.org/2000/svg"
   xmlns="http://www.w3.org/2000/svg"
   height="512.52344"
   width="476"
   version="1.1">
  <path
     d="m 226.5,0 -113.23633,175.1914 -15.4375,15.28711 c 28.0368,39.31863 38.9751,67.23878 54.33399,98.10547 A 175.84831,189.34831 0 0 1 62.15234,123.42773 175.84831,189.34831 0 0 1 87.61133,25.740234 238,238 0 0 0 0,210.02343 238,238 0 0 0 201.29688,445.01562 l 17.13867,67.50781 h 39.1289 l 17.17578,-67.65039 A 238,238 0 0 0 476,210.02343 238,238 0 0 0 388.47656,25.824219 a 175.84831,189.34831 0 0 1 25.3711,97.603511 175.84831,189.34831 0 0 1 -89.89258,164.92383 c 15.29816,-30.77435 26.25244,-58.65328 54.21875,-97.87305 L 362.73633,175.1914 249.5,0 V 167.21289 L 265.77539,189.23633 238,248.06836 210.22461,189.23633 226.5,167.21289 Z m -18,59.824223 V 162.07226 L 189.66211,186.97461 238,289.1914 286.33789,186.97461 267.5,162.07226 V 59.824223 l 81.74023,126.498037 6.32227,6.34766 C 296.02686,272.78544 254.12932,448.02347 243.42383,494.52343 H 232.57617 C 221.87068,448.02347 179.97314,272.78544 120.4375,192.66992 l 6.32227,-6.34766 z"
     style="fill:#000000" />
</svg>
