<?xml version="1.0" encoding="UTF-8" standalone="no"?>
<svg
   xmlns:dc="http://purl.org/dc/elements/1.1/"
   xmlns:cc="http://creativecommons.org/ns#"
   xmlns:rdf="http://www.w3.org/1999/02/22-rdf-syntax-ns#"
   xmlns:svg="http://www.w3.org/2000/svg"
   xmlns="http://www.w3.org/2000/svg"
   height="512.1543"
   width="512.30859"
   version="1.1">
  <path
     d="m 256.1543,0 c -35.88181,0 -71.35257,7.64029 -104.12891,22.24219 -3.8559,25.686 6.52151,66.64161 62.21289,74.76172 C 203.63569,89.71301 197.39443,83.05687 192.6543,55.75 c 0.53389,-33.25 32.60199,-33.25 63.5,-33.25 30.89801,0 62.96611,0 63.5,33.25 -4.74013,27.30687 -10.98139,33.96301 -21.58398,41.25391 C 353.7617,88.8838 364.13911,47.92819 360.28321,22.24219 327.50687,7.64029 292.03611,0 256.1543,0 Z m 0,38.5 c -17.5,0 -38.00614,2.37724 -44.95898,9.33008 -2.54791,2.54791 -0.1734,25.77772 3.86718,28.57812 5.54574,3.84357 17.43681,13.39853 17.32618,19.1875 -0.79485,41.58427 -2.60938,136.53321 -2.60938,136.53321 11.51838,-12.4839 22.08556,-32.53138 26.375,-103.50391 4.28944,70.97253 14.85662,91.02001 26.375,103.50391 0,0 -1.81452,-94.94894 -2.60938,-136.53321 -0.11065,-5.78897 11.78044,-15.34393 17.32618,-19.1875 4.04058,-2.8004 6.41509,-26.03021 3.86718,-28.57812 C 294.16044,40.87724 273.6543,38.5 256.1543,38.5 Z m -134.75,0.0352 c -14.02181,8.64994 -27.179373,18.62815 -39.291023,29.79687 24.610163,42.19411 71.984693,74.80215 132.916023,60.57031 l 0.22852,-14.48437 C 145.39311,114.9405 124.53507,61.32301 121.4043,38.5352 Z m 269.5,0 c -3.13077,22.78781 -23.98881,76.4053 -93.85352,75.88281 l 0.22852,14.48437 C 358.21063,143.13422 405.58516,110.52618 430.19532,68.33207 418.08367,57.16327 404.92611,47.1851 390.9043,38.53516 Z M 56.732417,95.0918 C 44.405696,110.3059 33.85809,126.87893 25.294922,144.48828 81.818437,189.09153 145.2433,200.03766 214.41211,167.80469 l 0.2461,-15.58008 C 123.91703,173.51061 81.807267,132.62039 56.732417,95.0918 Z m 398.843763,0 c -25.07487,37.52859 -67.18461,78.41881 -157.92579,57.13281 l 0.2461,15.58008 c 69.16881,32.23297 132.59366,21.2868 189.11719,-23.31641 C 478.4505,126.87893 467.9029,110.3059 455.57618,95.0918 Z M 10.498047,182.29688 C 5.015499,200.15017 1.495361,218.54788 0,237.16406 c 74.724737,24.1562 138.92781,26.05268 213.73633,-26.70117 l 0.29688,-18.74414 C 134.41919,239.67724 48.809567,210.42899 10.498047,182.29688 Z m 491.312503,0 c -38.31152,28.13211 -123.92114,57.38036 -203.53516,9.42187 l 0.29688,18.74414 c 74.80852,52.75385 139.01159,50.85737 213.73633,26.70117 -1.49536,-18.61618 -5.0155,-37.0139 -10.49805,-54.86718 z m -288.57031,59.52148 c -70.46931,48.83637 -155.340273,59.27085 -213.056646,35.76758 1.425818,18.25506 4.798485,36.30548 10.060547,53.84375 48.981216,11.69832 86.802036,-4.86804 120.636719,-20.4961 33.88431,-15.65098 64.21304,-34.04572 82.05078,-49.69531 z m 85.82812,0 0.3086,19.41992 c 17.83774,15.64959 48.16647,34.04433 82.05078,49.69531 33.83468,15.62806 71.6555,32.19442 120.63672,20.4961 5.26206,-17.53827 8.63472,-35.58869 10.06054,-53.84375 -57.71638,23.50327 -142.58733,13.06879 -213.05664,-35.76758 z M 256.1543,245.25 c -10.76955,0 -19.5,8.73045 -19.5,19.5 0.001,3.05122 0.71828,6.0596 2.09375,8.7832 l 8.06641,15.70313 -11.65235,-5.13281 c 0,0 -57.36714,51.65888 -84.33984,98.37695 -20.85148,36.11582 -9.09906,57.06561 8.70117,75.54492 17.80023,18.47931 44.50421,29.53809 68.13086,33.0293 0,0 -39.5209,-31.1038 -40.49414,-75.36914 -1.28652,-58.51373 53.93111,-83.28787 78.33398,-126.44922 2.89621,-5.12253 8.06641,-15.70313 8.06641,-15.70313 1.37547,-2.7236 2.09275,-5.73198 2.09375,-8.7832 0,-10.76955 -8.73045,-19.5 -19.5,-19.5 z m 28.19922,45.59766 C 269.1248,324.2357 220.6543,352.91297 220.6543,406 c 0,29.90883 22.08062,42.75 35.5,42.75 13.41938,0 35.5,-12.84117 35.5,-42.75 0,-13.90964 -3.34297,-26.13198 -8.53125,-37.21094 32.40513,29.39621 38.55566,49.23009 40.94531,59.42969 -6.42217,37.49796 -39.41406,62.83594 -39.41406,62.83594 23.62665,-3.49121 50.33063,-14.54999 68.13086,-33.0293 17.80023,-18.47931 29.55265,-39.4291 8.70117,-75.54492 -21.29835,-36.88981 -61.1405,-76.44797 -77.13281,-91.63281 z M 181.55664,315.08203 C 128.35745,346.43502 75.599817,374.59258 26.986328,372.69922 66.163477,450.16238 141.79738,502.61371 228.07813,512.1543 171.9283,501.70196 118.1211,461.94475 118.1211,416.83398 c 0,-35.56822 40.24188,-79.41217 63.43554,-101.75195 z m 149.19532,0 c 23.19366,22.33978 63.43554,66.18373 63.43554,101.75195 0,45.11077 -53.8072,84.86798 -109.95703,95.32032 86.28075,-9.54059 161.91465,-61.99192 201.0918,-139.45508 -48.61349,1.89336 -101.37112,-26.2642 -154.57031,-57.61719 z"
     style="fill:#000000" />
</svg>
