<?xml version="1.0" encoding="UTF-8" standalone="no"?>
<svg
   xmlns:dc="http://purl.org/dc/elements/1.1/"
   xmlns:cc="http://creativecommons.org/ns#"
   xmlns:rdf="http://www.w3.org/1999/02/22-rdf-syntax-ns#"
   xmlns:svg="http://www.w3.org/2000/svg"
   xmlns="http://www.w3.org/2000/svg"
   xmlns:xlink="http://www.w3.org/1999/xlink"
   xmlns:sodipodi="http://sodipodi.sourceforge.net/DTD/sodipodi-0.dtd"
   xmlns:inkscape="http://www.inkscape.org/namespaces/inkscape"
   sodipodi:docname="M.svg"
   inkscape:version="1.0 (4035a4fb49, 2020-05-01)"
   id="svg935"
   version="1.1"
   viewBox="0 0 129.85457 140.93323"
   height="140.93323mm"
   width="129.85457mm">
  <defs
     id="defs929">
    <linearGradient
       inkscape:collect="always"
       id="linearGradient848">
      <stop
         style="stop-color:#bf331c;stop-opacity:1"
         offset="0"
         id="stop844" />
      <stop
         id="stop4555"
         offset="0.30000001"
         style="stop-color:#d3641c;stop-opacity:1" />
      <stop
         style="stop-color:#f6b91d;stop-opacity:1"
         offset="0.5"
         id="stop4557" />
      <stop
         id="stop4559"
         offset="0.69999999"
         style="stop-color:#d3641c;stop-opacity:1" />
      <stop
         style="stop-color:#bf331c;stop-opacity:1"
         offset="1"
         id="stop846" />
    </linearGradient>
    <linearGradient
       gradientTransform="matrix(0.26458333,0,0,0.26458333,-181.98168,-27.828955)"
       gradientUnits="userSpaceOnUse"
       y2="370.22061"
       x2="1147.373"
       y1="370.22061"
       x1="725.29297"
       id="linearGradient2916"
       xlink:href="#linearGradient848"
       inkscape:collect="always" />
  </defs>
  <sodipodi:namedview
     inkscape:window-maximized="1"
     inkscape:window-y="-6"
     inkscape:window-x="-6"
     inkscape:window-height="1018"
     inkscape:window-width="1920"
     inkscape:pagecheckerboard="true"
     inkscape:lockguides="false"
     showgrid="false"
     inkscape:document-rotation="0"
     inkscape:current-layer="svg935"
     inkscape:document-units="mm"
     inkscape:cy="190.12529"
     inkscape:cx="163.39496"
     inkscape:zoom="0.98994949"
     inkscape:pageshadow="2"
     inkscape:pageopacity="0.0"
     borderopacity="1.0"
     bordercolor="#666666"
     pagecolor="#ffffff"
     id="base" />
  <metadata
     id="metadata932">
    <rdf:RDF>
      <cc:Work
         rdf:about="">
        <dc:format>image/svg+xml</dc:format>
        <dc:type
           rdf:resource="http://purl.org/dc/dcmitype/StillImage" />
        <dc:title></dc:title>
      </cc:Work>
    </rdf:RDF>
  </metadata>
  <path
     sodipodi:insensitive="true"
     inkscape:label="bottom"
     sodipodi:nodetypes="cccscsascsccccc"
     d="M 6.9841532,99.451552 C 12.025376,89.411192 14.686402,79.535942 14.524156,65.967902 14.224053,49.726957 8.7769381,28.649657 0,11.45641 11.409193,5.9909862 24.696055,0.30103437 39.952731,0.00452906 c 4.018598,-0.07809971 8.678251,0.8574934 12.736536,2.52604844 -3.890878,3.8381755 -6.887704,7.0950719 -6.282819,12.2962615 1.054557,9.067789 11.517145,9.921875 18.520835,9.921875 7.003693,0 17.466281,-0.854086 18.520852,-9.921875 0.604864,-5.2011896 -2.391952,-8.458086 -6.28283,-12.2962615 4.05828,-1.66855504 8.717949,-2.60414815 12.73652,-2.52604844 15.256695,0.29650531 28.543545,5.98645714 39.952745,11.45188094 -8.77694,17.193247 -14.22405,38.270547 -14.52414,54.511495 -0.16227,13.568039 2.49877,23.443289 7.53999,33.48365 C 106.71715,117.11175 85.90196,133.02863 64.927283,140.93323 43.952604,133.02864 23.137418,117.11176 6.9841532,99.451552 Z"
     style="display:inline;opacity:1;fill:#000000;fill-opacity:1;stroke-width:4.63854;stroke-linecap:square;stroke-miterlimit:4;stroke-dasharray:none"
     id="rect1005" />
  <path
     sodipodi:nodetypes="scssccccaccccccscccascccccscc"
     d="m 89.524741,5.9043854 c -0.66167,0.00349 -1.311169,0.023389 -1.946143,0.059947 2.524813,5.2463776 2.514256,10.7668006 0.297657,14.9592926 -4.419759,8.35959 -13.899163,9.756507 -22.948974,9.75651 -4.03243,0 -8.149077,-0.279429 -11.866459,-1.326533 l 56.527298,75.669278 c 2.03838,-2.07776 4.11409,-4.29554 6.02695,-6.569325 L 80.428144,52.042138 c -0.197321,-0.257852 -0.324776,-0.779145 -0.0708,-0.99241 0.32322,-0.271407 0.787368,-0.06909 1.228349,0.307182 8.588041,8.83843 9.640369,10.085437 23.809917,22.610505 1.33432,0.996318 2.12633,1.475695 3.36209,0.775277 0.31491,-0.267203 0.6065,-0.721461 0.61322,-1.270648 0.0217,-1.767573 -0.0857,-3.491386 -0.0639,-5.469639 0.26421,-15.547927 4.55906,-37.195534 12.28709,-53.655123 C 112.17622,9.4420894 99.44987,5.8521038 89.524741,5.9043854 Z M 9.9187528,18.089173 c 4.2487052,10.107228 7.2924512,21.719042 9.0082342,32.539614 l 42.746821,56.603633 c 0.308023,0.36356 0.410485,0.95788 0.08644,1.18642 -0.265769,0.18743 -0.724472,-0.20993 -0.892821,-0.39341 L 30.965529,75.437094 C 28.796316,73.164056 25.75856,69.72651 22.57997,70.258777 c -1.344922,0.164447 -2.028907,1.291955 -2.075302,2.337663 -0.327302,10.372129 -2.280454,17.480226 -6.170681,25.904361 14.222838,16.906609 32.125213,28.278579 50.593294,35.845879 2.92568,-1.1988 5.983412,-2.46152 8.721947,-4.12696 5.930471,-3.60661 8.916146,-14.33462 4.26589,-20.81106 z"
     inkscape:label="innershield"
     style="display:inline;opacity:1;fill:url(#linearGradient2916);fill-opacity:1;stroke-width:4.25868;stroke-linecap:square;stroke-miterlimit:4;stroke-dasharray:none"
     id="path1062-9" />
  <path
     sodipodi:insensitive="true"
     inkscape:label="sash"
     sodipodi:nodetypes="ccaaccccc"
     id="path1136"
     d="m 82.080614,106.87489 c 4.75615,6.29145 3.88889,12.55091 1.40316,18.4416 0,0 5.476,-3.68287 8.15173,-5.61266 3.4178,-2.46499 6.82329,-4.95448 10.089406,-7.61718 1.33326,-1.08694 3.87541,-3.4077 3.87541,-3.4077 L 44.930154,26.827664 c -6.58308,-7.963755 -7.21866,-15.305223 -3.20723,-21.1811116 -11.83364,0.313071 -19.84361,3.011507 -29.66692,6.6817376 0,0 46.65883,63.115855 70.02461,94.5466 z"
     style="display:inline;opacity:1;fill:#ffffff;fill-opacity:1;stroke:none;stroke-width:0.264583;stroke-linecap:butt;stroke-linejoin:miter;stroke-miterlimit:4;stroke-dasharray:none;stroke-opacity:1" />
</svg>
