<?xml version="1.0" encoding="UTF-8" standalone="no"?>
<svg
   viewBox="0 0 32.3 37.7"
   version="1.1"
   id="svg8"
   sodipodi:docname="set-552.svg"
   width="32.3"
   height="37.7"
   inkscape:version="1.1.1 (3bf5ae0d25, 2021-09-20)"
   xmlns:inkscape="http://www.inkscape.org/namespaces/inkscape"
   xmlns:sodipodi="http://sodipodi.sourceforge.net/DTD/sodipodi-0.dtd"
   xmlns="http://www.w3.org/2000/svg"
   xmlns:svg="http://www.w3.org/2000/svg">
  <defs
     id="defs12" />
  <sodipodi:namedview
     id="namedview10"
     pagecolor="#ffffff"
     bordercolor="#666666"
     borderopacity="1.0"
     inkscape:pageshadow="2"
     inkscape:pageopacity="0.0"
     inkscape:pagecheckerboard="0"
     showgrid="false"
     inkscape:zoom="19.072"
     inkscape:cx="16.15"
     inkscape:cy="18.824"
     inkscape:window-width="1920"
     inkscape:window-height="986"
     inkscape:window-x="-11"
     inkscape:window-y="-11"
     inkscape:window-maximized="1"
     inkscape:current-layer="svg8" />
  <path
     d="m 0.2,4.5 19.5,26 c 0,0 2.6,2.7 -0.3,5.4 0,0 -1.4,1.3 -3.7,1.8 0,0 -10.1,-3.7 -14.9,-10.6 0,0 2,-4.1 2.2,-9.2 L 13.8,28.7 3,15.3 C 3,15.3 3.3,9.2 0.2,4.5 Z"
     id="path2" />
  <path
     d="M 7.3,1.1 C 6.5,3.4 7.6,5.7 8.4,6.7 L 26,30.4 c -0.9,0.9 -2.2,1.9 -3.3,2.6 -0.1,-2 -1.3,-3.6 -1.5,-3.8 L 1.4,2.7 C 3.3,1.6 5.7,1.2 7.3,1.1 M 8.9,0 C 8,0 3,0.1 0,2.5 l 20.5,27.4 c 0,0 2.4,2.8 0.7,5.4 0,0 4.5,-2.6 6.2,-4.8 L 9.2,6.1 C 9.2,6.1 6.7,3 9,0 Z"
     id="path4" />
  <path
     d="m 11.2,7.2 16.9,22.5 c 0,0 1.8,-1.8 2.4,-3.5 l -10,-12.4 8.5,7.8 c 0,0 -1.5,-11.9 3.3,-18.5 0,0 -3,-3.1 -9.9,-3 0,-0.1 4.1,9.2 -11.2,7.1 z"
     id="path6" />
</svg>
