<?xml version="1.0" encoding="UTF-8" standalone="no"?>
<svg xmlns="http://www.w3.org/2000/svg" width="300pt" height="300pt" viewBox="0 0 300 300" version="1.1">
  <path style="fill:#c8e4be" d="m 94.44,151.17 c 9.6,0.8 19.3,1.74 28.87,0.1 2.81,2.8 4.86,9.96 0.21,12.25 -3.86,1.54 -7.93,-0.32 -11.66,-1.39 -6.66,-2.08 -12.22,-6.46 -17.42,-10.96 z m 77.59,19.93 c 10.37,-10.23 20.61,-20.64 29.59,-32.14 2.63,4.94 6.33,9.22 10.56,12.86 -12.52,8.09 -26.28,13.95 -40.15,19.28 z M 89.45,128.56 c 4.71,-6.61 12.73,-10.08 20.64,-10.79 1.31,-0.34 2.27,0.07 2.85,1.24 2.01,3.2 2.69,6.99 3.53,10.62 -8.98,1.25 -18.13,0.53 -27.02,-1.07 z m 83.6,-10.26 c 1.67,-2.9 4.15,-6.99 8.01,-6.49 3.67,1.9 4.79,6.42 6.15,10.02 -3.5,6.18 -8.26,11.64 -13.98,15.87 0.06,-6.47 0.05,-12.94 -0.18,-19.4 z M 137.13,96.06 c 2.46,-1.44 3.88,1.45 4.15,3.46 1.87,10.08 0.96,20.45 -0.76,30.49 -6.31,-5 -11.09,-11.71 -14.51,-18.95 3.21,-5.3 6.03,-11.22 11.12,-15 z m -65.74,0.39 c 4.16,-2.72 9.55,-1.41 13.65,0.78 -6.46,4.03 -11.82,9.51 -17.99,13.93 -3.29,2.39 -7.72,1.25 -10.65,-1.17 4.84,-4.67 9.23,-9.96 14.99,-13.54 z m 63.87,-37.78 c -2.02,-3.25 -0.99,-7.4 1.46,-10.12 7.74,3 13.37,11.33 11.32,19.72 -4.56,-2.69 -9.79,-5 -12.78,-9.6 z M 141.65,0 h 16.55 c 31.79,1.85 62.95,13.84 87.42,34.27 32.07,26.14 52.22,66.08 54.38,107.38 v 16.55 c -1.78,30.16 -12.61,59.78 -31.24,83.61 -20.68,26.88 -50.74,46.41 -83.76,54.19 -8.76,2.19 -17.73,3.27 -26.71,4 h -16.7 C 107.92,298.12 75.02,284.61 49.98,261.98 20.42,235.84 2.18,197.64 0,158.27 V 141.59 C 2.16,101.02 21.6,61.75 52.71,35.61 77.39,14.39 109.17,1.82 141.65,0 m -0.21,12.58 c -7.18,1.44 -13.4,5.56 -19.48,9.44 -9.21,5.96 -16.36,14.49 -22.73,23.3 -2.18,3.74 -9.11,2.83 -10.04,-1.59 -1.39,-4.61 -7.42,-4.46 -11.17,-3.28 -8.66,3.01 -15.07,9.96 -21.38,16.29 -3.6,3.76 -8.09,7.19 -9.47,12.46 -1.22,5.31 0,10.83 2.04,15.77 2.07,4.48 0.65,10.06 -2.61,13.59 -4.96,2.79 -10.68,4.23 -15.22,7.8 -8.34,6.01 -9.68,18.97 -3.9,27.17 2.38,3.59 3.45,8.24 2.16,12.42 -0.73,3.2 -4.59,4.35 -5.3,7.59 -1.75,6.31 0.78,12.87 3.79,18.38 4.48,7.78 7.85,16.11 11.99,24.05 1.37,2.57 3.66,5.07 6.74,5.3 4.07,0.38 7.57,-2.32 10.18,-5.15 6.05,-6.64 11.81,-13.58 18.31,-19.8 3.18,-2.9 6.32,-6.25 10.64,-7.37 4.31,-1.32 8.9,0.27 12.46,2.76 10.41,6.98 19.39,16.06 26.58,26.3 2.73,14.07 -1.41,28.64 -7.65,41.25 -2.65,0.03 -5.31,0.1 -7.92,-0.42 -1.79,-2.98 -3.97,-6.13 -7.38,-7.36 -3.65,-0.35 -6.15,2.74 -8.37,5.13 -4.49,4.99 -11.3,6.56 -17.3,8.93 -3.46,1.44 -4.57,6.43 -2.44,9.36 2.91,2.79 7.3,2.77 11.06,2.81 6.99,-0.54 14.02,0.03 20.96,0.94 4.63,6.65 12.24,10.38 19.95,12.16 20.57,4.99 42.05,5.64 63.03,3.27 10.85,-0.89 19.45,-8.25 28.03,-14.17 4.74,-3.07 9.4,-7.22 10.8,-12.9 0.81,-2 -1.1,-3.35 -2.6,-4.16 -3.44,-1.8 -7.22,-3.52 -11.19,-3.31 -4.27,1.52 -7.42,5.02 -11.29,7.27 -5.54,3.77 -12.75,1.98 -18.64,0.07 -6.36,-1.85 -8.04,-9.13 -9.2,-14.81 -2.33,-14.57 -0.83,-29.9 4.55,-43.65 5.32,-6.56 13.87,-9.22 21.78,-11.16 13.69,-3.02 27.85,-3.38 41.81,-2.67 7.81,2.19 15.79,5.18 24.06,3.88 3.87,-0.72 8.46,-0.92 11.23,-4.13 3.16,-3.46 3.18,-8.64 2.11,-12.94 -1.65,-4.92 -5.99,-8.25 -10.12,-11.05 2.89,-3.92 4.16,-8.73 4.93,-13.47 1.19,-9.92 0.26,-20.32 -3.5,-29.63 -4.02,-9.87 -13.1,-16.5 -22.72,-20.38 0.09,-7.81 -0.58,-16.19 -5.11,-22.84 -2.49,-3.79 -6.4,-6.21 -9.63,-9.28 -6.15,-5.63 -10.78,-12.62 -15.46,-19.45 -4.77,-6.31 -13.84,-6.63 -20.93,-5.05 -12.58,2.87 -22.09,12.59 -29.13,22.9 -3.1,-1.67 -5.5,-4.63 -5.86,-8.21 -1.5,-8.9 6.49,-16.27 4.88,-25.16 -0.74,-3.26 -4.38,-4.32 -7.17,-5.18 -6.26,-1.38 -12.71,-3.19 -19.16,-2.02 z"/>
  <path d="m 141.44,12.58 c 6.45,-1.17 12.9,0.64 19.16,2.02 2.79,0.86 6.43,1.92 7.17,5.18 1.61,8.89 -6.38,16.26 -4.88,25.16 0.36,3.58 2.76,6.54 5.86,8.21 7.04,-10.31 16.55,-20.03 29.13,-22.9 7.09,-1.58 16.16,-1.26 20.93,5.05 4.68,6.83 9.31,13.82 15.46,19.45 3.23,3.07 7.14,5.49 9.63,9.28 4.53,6.65 5.2,15.03 5.11,22.84 9.62,3.88 18.7,10.51 22.72,20.38 3.76,9.31 4.69,19.71 3.5,29.63 -0.77,4.74 -2.04,9.55 -4.93,13.47 4.13,2.8 8.47,6.13 10.12,11.05 1.07,4.3 1.05,9.48 -2.11,12.94 -2.77,3.21 -7.36,3.41 -11.23,4.13 -8.27,1.3 -16.25,-1.69 -24.06,-3.88 -13.96,-0.71 -28.12,-0.35 -41.81,2.67 -7.91,1.94 -16.46,4.6 -21.78,11.16 -5.38,13.75 -6.88,29.08 -4.55,43.65 1.16,5.68 2.84,12.96 9.2,14.81 5.89,1.91 13.1,3.7 18.64,-0.07 3.87,-2.25 7.02,-5.75 11.29,-7.27 3.97,-0.21 7.75,1.51 11.19,3.31 1.5,0.81 3.41,2.16 2.6,4.16 -1.4,5.68 -6.06,9.83 -10.8,12.9 -8.58,5.92 -17.18,13.28 -28.03,14.17 -20.98,2.37 -42.46,1.72 -63.03,-3.27 -7.71,-1.78 -15.32,-5.51 -19.95,-12.16 -6.94,-0.91 -13.97,-1.48 -20.96,-0.94 -3.76,-0.04 -8.15,-0.02 -11.06,-2.81 -2.13,-2.93 -1.02,-7.92 2.44,-9.36 6,-2.37 12.81,-3.94 17.3,-8.93 2.22,-2.39 4.72,-5.48 8.37,-5.13 3.41,1.23 5.59,4.38 7.38,7.36 2.61,0.52 5.27,0.45 7.92,0.42 6.24,-12.61 10.38,-27.18 7.65,-41.25 -7.19,-10.24 -16.17,-19.32 -26.58,-26.3 -3.56,-2.49 -8.15,-4.08 -12.46,-2.76 -4.32,1.12 -7.46,4.47 -10.64,7.37 -6.5,6.22 -12.26,13.16 -18.31,19.8 -2.61,2.83 -6.11,5.53 -10.18,5.15 -3.08,-0.23 -5.37,-2.73 -6.74,-5.3 -4.14,-7.94 -7.51,-16.27 -11.99,-24.05 -3.01,-5.51 -5.54,-12.07 -3.79,-18.38 0.71,-3.24 4.57,-4.39 5.3,-7.59 1.29,-4.18 0.22,-8.83 -2.16,-12.42 -5.78,-8.2 -4.44,-21.16 3.9,-27.17 4.54,-3.57 10.26,-5.01 15.22,-7.8 3.26,-3.53 4.68,-9.11 2.61,-13.59 -2.04,-4.94 -3.26,-10.46 -2.04,-15.77 1.38,-5.27 5.87,-8.7 9.47,-12.46 6.31,-6.33 12.72,-13.28 21.38,-16.29 3.75,-1.18 9.78,-1.33 11.17,3.28 0.93,4.42 7.86,5.33 10.04,1.59 6.37,-8.81 13.52,-17.34 22.73,-23.3 6.08,-3.88 12.3,-8 19.48,-9.44 m -6.18,46.09 c 2.99,4.6 8.22,6.91 12.78,9.6 2.05,-8.39 -3.58,-16.72 -11.32,-19.72 -2.45,2.72 -3.48,6.87 -1.46,10.12 M 71.39,96.45 c -5.76,3.58 -10.15,8.87 -14.99,13.54 2.93,2.42 7.36,3.56 10.65,1.17 6.17,-4.42 11.53,-9.9 17.99,-13.93 -4.1,-2.19 -9.49,-3.5 -13.65,-0.78 m 65.74,-0.39 c -5.09,3.78 -7.91,9.7 -11.12,15 3.42,7.24 8.2,13.95 14.51,18.95 1.72,-10.04 2.63,-20.41 0.76,-30.49 -0.27,-2.01 -1.69,-4.9 -4.15,-3.46 m 35.92,22.24 c 0.23,6.46 0.24,12.93 0.18,19.4 5.72,-4.23 10.48,-9.69 13.98,-15.87 -1.36,-3.6 -2.48,-8.12 -6.15,-10.02 -3.86,-0.5 -6.34,3.59 -8.01,6.49 m -83.6,10.26 c 8.89,1.6 18.04,2.32 27.02,1.07 -0.84,-3.63 -1.52,-7.42 -3.53,-10.62 -0.58,-1.17 -1.54,-1.58 -2.85,-1.24 -7.91,0.71 -15.93,4.18 -20.64,10.79 m 82.58,42.54 c 13.87,-5.33 27.63,-11.19 40.15,-19.28 -4.23,-3.64 -7.93,-7.92 -10.56,-12.86 -8.98,11.5 -19.22,21.91 -29.59,32.14 M 94.44,151.17 c 5.2,4.5 10.76,8.88 17.42,10.96 3.73,1.07 7.8,2.93 11.66,1.39 4.65,-2.29 2.6,-9.45 -0.21,-12.25 -9.57,1.64 -19.27,0.7 -28.87,-0.1 z"/>
</svg>
