<?xml version="1.0" encoding="UTF-8" standalone="no"?>
<svg xmlns="http://www.w3.org/2000/svg" width="300pt" height="300pt" viewBox="0 0 300 300" version="1.1">
  <path style="fill:#fac8c0" d="m 141.77,0 h 15.77 c 32.02,1.65 63.43,13.72 88.08,34.27 32.09,26.16 52.25,66.15 54.38,107.49 v 16.31 c -1.73,29.97 -12.41,59.41 -30.81,83.17 -20.4,26.79 -50.08,46.38 -82.79,54.42 -9.27,2.4 -18.79,3.62 -28.32,4.34 H 141.63 C 107.48,298.11 74.15,284.22 48.96,261.06 19.94,234.92 2.1,197.06 0,158.09 V 141.63 C 2.11,102.04 20.64,63.66 50.49,37.54 75.52,15.17 108.27,1.82 141.77,0 M 93.45,28.75 c 3.53,4.43 9.01,6.45 14.26,8.01 -10,1.5 -20,3.28 -29.62,6.44 -4.86,1.68 -9.85,3.6 -13.61,7.23 -8.43,7.94 -13.83,18.44 -18.11,29.06 -4.18,10.71 -7.57,21.73 -10.58,32.82 3.96,-6.87 7.46,-14.22 13.28,-19.76 1.45,3.89 1.16,8.11 1.19,12.19 4.74,-10.93 9.52,-22.02 11.16,-33.92 0.62,-2.89 1.22,-6.98 4.59,-7.82 3.27,-0.35 4.38,3.53 4.38,6.11 -0.2,13.06 -6,25.07 -10.95,36.89 5.02,-6.67 10.7,-12.96 14.34,-20.54 2.69,-5.33 5.14,-10.97 9.29,-15.36 7.48,-6.68 17.5,-9.76 27.35,-10.53 0.44,3.39 -1.05,6.52 -2.64,9.4 4.59,-0.88 8.32,-4.44 9.2,-9.07 1.35,-6.36 3.23,-13.23 8.49,-17.51 3.11,-2.63 7.96,-2.49 10.97,0.23 3.97,3.6 5.45,9.05 6.41,14.14 5.22,3.78 6.61,10.61 6.43,16.69 -4.96,-0.06 -9.86,-1.62 -13.67,-4.84 -0.25,3.38 0.79,6.69 2.79,9.39 -4.09,0.61 -8.26,-0.07 -11.99,-1.85 -0.09,3.3 0.94,6.45 2.47,9.33 -2.68,-0.48 -5.28,-1.28 -7.78,-2.36 3.15,6.7 8.44,12.66 15.56,15.17 10.65,3.84 22.25,3.71 33.4,3.04 6.31,2.34 8.82,9.61 8.88,15.84 3.56,-9.05 -0.42,-19.43 -7.34,-25.72 -3.76,-3.61 -7.34,-9.19 -4.87,-14.48 3.9,-6.02 11.14,-9.23 18.1,-9.93 4.93,-0.29 10.52,0.22 14.31,3.73 5.32,5.78 8.87,13.32 9.33,21.22 -0.02,2.57 -0.46,5.35 -2.21,7.36 -2.95,2.37 -7.64,2.66 -10.51,0 -4.89,-4.1 -6.92,-10.34 -9.54,-15.93 -0.11,12.98 3.86,27.55 15.73,34.55 -0.4,2.58 -1.31,5.05 -3.03,7.06 4.88,-1.55 10.22,-1.84 15.19,-0.52 6.23,1.66 11.32,7.15 12.23,13.58 0.7,7.12 -0.17,14.54 -3.27,21.04 -1.66,3.15 -4.24,6.51 -8.05,6.87 -3.01,0.01 -4.75,-2.86 -5.57,-5.38 -2.48,-8.13 -2.1,-16.76 -3.68,-25.06 -7.09,14.75 -6.2,31.72 -3.68,47.45 -3.77,13.14 -10.11,26.32 -21.07,34.93 -4.78,3.3 -11.08,6.76 -16.87,3.99 -6.78,-2.96 -13.54,-7.41 -16.9,-14.22 -1.99,-3.77 -0.66,-8.36 2.2,-11.28 6.99,-7.98 18.63,-9.45 25.51,-17.54 7.2,-7.9 11.23,-19.68 7.43,-30.06 -2.08,-5.06 -2.76,-11.41 0.55,-16.11 -12.7,10.33 -28.71,15.97 -44.89,17.55 -8.23,-0.12 -15.78,-4 -23.88,-5.05 -10.08,-1.46 -19.87,2.62 -28.56,7.33 -11.91,6.86 -22.9,16.13 -29.72,28.23 -7.53,14.45 -6.97,31.73 -2.94,47.14 4.66,18.51 17.37,34.8 34.03,44.06 18.16,9.99 39.93,9.71 59.78,5.96 -0.19,3.02 -1.18,5.89 -2.2,8.71 12.33,-2.22 24.5,-5.8 35.73,-11.42 10.52,-5.21 20.03,-12.29 28.48,-20.4 -6.43,2.4 -12.87,5.21 -19.83,5.6 -3.44,0.11 -7.87,1.25 -10.42,-1.8 -2.33,-2.54 -0.7,-7.07 2.64,-7.7 16.66,-4.27 33.94,-7.43 49.04,-16.1 -2.23,6.81 -6.04,13.04 -11.38,17.85 7.9,-2.9 15.07,-7.97 19.99,-14.84 10.4,-14.13 13.18,-32.06 14.87,-49.09 -2.98,5.72 -5.67,11.97 -10.87,16.06 -2.7,1.95 -7.22,2.7 -9.56,-0.18 -1.99,-3.24 -0.57,-7.26 0.97,-10.37 2.8,-5.68 8.62,-8.71 12.99,-12.98 9.87,-9.11 19.59,-19.87 22.17,-33.49 1.55,-12.15 0.42,-24.61 -2.89,-36.4 -5.53,-19.27 -16.34,-36.5 -27.83,-52.74 5.17,11.11 8.85,23.87 5.49,36.06 2.91,-0.65 6.13,0.98 7.23,3.77 1.29,3.34 0.74,7.04 -0.28,10.38 -8.65,-4.71 -15.61,-12.96 -18.32,-22.48 2.02,-0.08 4.01,-0.44 5.9,-1.17 -6.59,-7.4 -11.52,-16.08 -15.89,-24.92 -1.91,-3.95 -3.53,-8.15 -6.56,-11.4 C 209.75,41.45 200.29,37.57 191.01,34.98 175.74,30.9 159.87,29.94 144.15,29.32 134.43,29.21 124.71,28.66 115,29.23 107.82,29.18 100.61,29.57 93.45,28.75 Z"/>
  <path d="m 93.45,28.75 c 7.16,0.82 14.37,0.43 21.55,0.48 9.71,-0.57 19.43,-0.02 29.15,0.09 15.72,0.62 31.59,1.58 46.86,5.66 9.28,2.59 18.74,6.47 25.21,13.91 3.03,3.25 4.65,7.45 6.56,11.4 4.37,8.84 9.3,17.52 15.89,24.92 -1.89,0.73 -3.88,1.09 -5.9,1.17 2.71,9.52 9.67,17.77 18.32,22.48 1.02,-3.34 1.57,-7.04 0.28,-10.38 -1.1,-2.79 -4.32,-4.42 -7.23,-3.77 3.36,-12.19 -0.32,-24.95 -5.49,-36.06 11.49,16.24 22.3,33.47 27.83,52.74 3.31,11.79 4.44,24.25 2.89,36.4 -2.58,13.62 -12.3,24.38 -22.17,33.49 -4.37,4.27 -10.19,7.3 -12.99,12.98 -1.54,3.11 -2.96,7.13 -0.97,10.37 2.34,2.88 6.86,2.13 9.56,0.18 5.2,-4.09 7.89,-10.34 10.87,-16.06 -1.69,17.03 -4.47,34.96 -14.87,49.09 -4.92,6.87 -12.09,11.94 -19.99,14.84 5.34,-4.81 9.15,-11.04 11.38,-17.85 -15.1,8.67 -32.38,11.83 -49.04,16.1 -3.34,0.63 -4.97,5.16 -2.64,7.7 2.55,3.05 6.98,1.91 10.42,1.8 6.96,-0.39 13.4,-3.2 19.83,-5.6 -8.45,8.11 -17.96,15.19 -28.48,20.4 -11.23,5.62 -23.4,9.2 -35.73,11.42 1.02,-2.82 2.01,-5.69 2.2,-8.71 -19.85,3.75 -41.62,4.03 -59.78,-5.96 -16.66,-9.26 -29.37,-25.55 -34.03,-44.06 -4.03,-15.41 -4.59,-32.69 2.94,-47.14 6.82,-12.1 17.81,-21.37 29.72,-28.23 8.69,-4.71 18.48,-8.79 28.56,-7.33 8.1,1.05 15.65,4.93 23.88,5.05 16.18,-1.58 32.19,-7.22 44.89,-17.55 -3.31,4.7 -2.63,11.05 -0.55,16.11 3.8,10.38 -0.23,22.16 -7.43,30.06 -6.88,8.09 -18.52,9.56 -25.51,17.54 -2.86,2.92 -4.19,7.51 -2.2,11.28 3.36,6.81 10.12,11.26 16.9,14.22 5.79,2.77 12.09,-0.69 16.87,-3.99 10.96,-8.61 17.3,-21.79 21.07,-34.93 -2.52,-15.73 -3.41,-32.7 3.68,-47.45 1.58,8.3 1.2,16.93 3.68,25.06 0.82,2.52 2.56,5.39 5.57,5.38 3.81,-0.36 6.39,-3.72 8.05,-6.87 3.1,-6.5 3.97,-13.92 3.27,-21.04 -0.91,-6.43 -6,-11.92 -12.23,-13.58 -4.97,-1.32 -10.31,-1.03 -15.19,0.52 1.72,-2.01 2.63,-4.48 3.03,-7.06 -11.87,-7 -15.84,-21.57 -15.73,-34.55 2.62,5.59 4.65,11.83 9.54,15.93 2.87,2.66 7.56,2.37 10.51,0 1.75,-2.01 2.19,-4.79 2.21,-7.36 -0.46,-7.9 -4.01,-15.44 -9.33,-21.22 -3.79,-3.51 -9.38,-4.02 -14.31,-3.73 -6.96,0.7 -14.2,3.91 -18.1,9.93 -2.47,5.29 1.11,10.87 4.87,14.48 6.92,6.29 10.9,16.67 7.34,25.72 -0.06,-6.23 -2.57,-13.5 -8.88,-15.84 -11.15,0.67 -22.75,0.8 -33.4,-3.04 -7.12,-2.51 -12.41,-8.47 -15.56,-15.17 2.5,1.08 5.1,1.88 7.78,2.36 -1.53,-2.88 -2.56,-6.03 -2.47,-9.33 3.73,1.78 7.9,2.46 11.99,1.85 -2,-2.7 -3.04,-6.01 -2.79,-9.39 3.81,3.22 8.71,4.78 13.67,4.84 0.18,-6.08 -1.21,-12.91 -6.43,-16.69 -0.96,-5.09 -2.44,-10.54 -6.41,-14.14 -3.01,-2.72 -7.86,-2.86 -10.97,-0.23 -5.26,4.28 -7.14,11.15 -8.49,17.51 -0.88,4.63 -4.61,8.19 -9.2,9.07 1.59,-2.88 3.08,-6.01 2.64,-9.4 -9.85,0.77 -19.87,3.85 -27.35,10.53 -4.15,4.39 -6.6,10.03 -9.29,15.36 -3.64,7.58 -9.32,13.87 -14.34,20.54 4.95,-11.82 10.75,-23.83 10.95,-36.89 0,-2.58 -1.11,-6.46 -4.38,-6.11 -3.37,0.84 -3.97,4.93 -4.59,7.82 -1.64,11.9 -6.42,22.99 -11.16,33.92 -0.03,-4.08 0.26,-8.3 -1.19,-12.19 -5.82,5.54 -9.32,12.89 -13.28,19.76 3.01,-11.09 6.4,-22.11 10.58,-32.82 4.28,-10.62 9.68,-21.12 18.11,-29.06 3.76,-3.63 8.75,-5.55 13.61,-7.23 9.62,-3.16 19.62,-4.94 29.62,-6.44 -5.25,-1.56 -10.73,-3.58 -14.26,-8.01 z"/>
</svg>
