<?xml version="1.0" encoding="UTF-8" standalone="no"?>
<svg xmlns="http://www.w3.org/2000/svg" width="300pt" height="300pt" viewBox="0 0 300 300" version="1.1">
  <path style="fill:#e6fcff" d="m 145.72,144.39 c 9.99,5.99 18.97,14.41 23.34,25.42 4.54,11.12 4.67,23.5 2.96,35.24 -0.65,4.32 -4.07,9.32 -9.02,8.43 -4.09,-0.94 -4.92,-5.81 -4.66,-9.35 1.29,-10.98 1.45,-22.23 -1.15,-33.04 -2.21,-9.5 -6.43,-18.4 -11.47,-26.7 z M 141.71,0 h 16.4 c 31.58,1.82 62.54,13.63 86.94,33.81 32.41,26.14 52.8,66.34 54.95,107.91 v 16.4 c -1.75,30.19 -12.59,59.83 -31.24,83.69 -16.65,21.6 -39.32,38.52 -64.79,48.3 -14.63,5.71 -30.18,8.85 -45.84,9.89 H 141.59 C 110.08,298.22 79.23,286.31 54.89,266.19 29.69,245.63 11.47,216.65 3.99,184.98 1.79,176.19 0.72,167.16 0,158.14 V 141.59 C 2.13,101.77 20.87,63.19 51.02,37.07 75.96,14.98 108.47,1.83 141.71,0 m -15.22,44.57 c -8.79,16.34 -12.03,34.82 -17.51,52.37 -5.05,15.66 -13.4,29.92 -19.9,44.97 -7.52,16.88 -11.34,35.41 -10.7,53.9 0.5,22.58 8.46,45.29 23.59,62.25 8.95,9.93 20.6,17.93 33.87,20.56 14.97,3.04 30.87,-1.76 42.59,-11.3 14.92,-11.84 23.47,-30.4 25.29,-49.13 1.69,-18.05 -1.39,-36.55 -8.88,-53.07 -7.17,-16.24 -17.62,-30.72 -28.06,-44.97 -5.44,-7.56 -10.99,-15.1 -15.37,-23.34 C 140.97,75.27 136.15,50.58 140.53,26.84 134.98,32 130.06,37.86 126.49,44.57 Z"/>
  <path d="m 126.49,44.57 c 3.57,-6.71 8.49,-12.57 14.04,-17.73 -4.38,23.74 0.44,48.43 10.88,69.97 4.38,8.24 9.93,15.78 15.37,23.34 10.44,14.25 20.89,28.73 28.06,44.97 7.49,16.52 10.57,35.02 8.88,53.07 -1.82,18.73 -10.37,37.29 -25.29,49.13 -11.72,9.54 -27.62,14.34 -42.59,11.3 -13.27,-2.63 -24.92,-10.63 -33.87,-20.56 -15.13,-16.96 -23.09,-39.67 -23.59,-62.25 -0.64,-18.49 3.18,-37.02 10.7,-53.9 6.5,-15.05 14.85,-29.31 19.9,-44.97 5.48,-17.55 8.72,-36.03 17.51,-52.37 m 19.23,99.82 c 5.04,8.3 9.26,17.2 11.47,26.7 2.6,10.81 2.44,22.06 1.15,33.04 -0.26,3.54 0.57,8.41 4.66,9.35 4.95,0.89 8.37,-4.11 9.02,-8.43 1.71,-11.74 1.58,-24.12 -2.96,-35.24 -4.37,-11.01 -13.35,-19.43 -23.34,-25.42 z"/>
</svg>
