<?xml version="1.0" encoding="UTF-8" standalone="no"?>
<svg xmlns="http://www.w3.org/2000/svg" width="300pt" height="300pt" viewBox="0 0 300 300" version="1.1">
  <path style="fill:#fffde6" d="m 140.52,84.87 c 12.23,-1.85 25.04,-0.05 36.11,5.55 15.62,7.58 27.61,22.03 32.54,38.64 4.66,15.65 3.22,33.12 -4.35,47.64 -7.1,14.07 -19.68,25.3 -34.54,30.59 -12.54,4.58 -26.61,4.71 -39.29,0.57 -16.2,-5.25 -29.86,-17.59 -37.05,-32.98 -6.78,-14.17 -8.01,-30.87 -3.43,-45.89 6.58,-22.55 26.63,-40.73 50.01,-44.12 m 0.04,7.8 c -14.88,2.51 -28.32,11.81 -36.33,24.54 -7.1,11.11 -9.99,24.78 -8.2,37.82 1.84,15.16 10.32,29.34 22.77,38.17 9.29,6.67 20.77,10.25 32.22,9.87 16.71,-0.1 32.91,-8.92 42.53,-22.5 9.31,-12.65 12.49,-29.27 9.42,-44.58 -3.16,-16.17 -13.95,-30.7 -28.65,-38.2 -10.28,-5.42 -22.35,-6.99 -33.76,-5.12 z M 141.66,0 h 16.5 c 34.2,1.93 67.61,15.77 92.87,38.95 28.98,26.05 46.9,63.8 48.97,102.7 v 16.52 c -1.78,30.66 -12.98,60.73 -32.13,84.78 -16.55,21.04 -38.85,37.53 -63.84,47.14 -14.62,5.72 -30.16,8.85 -45.8,9.91 H 141.57 C 111.22,298.26 81.46,287.2 57.58,268.35 31.01,247.67 11.74,217.8 4,185.02 1.8,176.24 0.74,167.23 0,158.22 V 141.57 C 2.17,101.02 21.59,61.78 52.67,35.64 77.36,14.4 109.16,1.82 141.66,0 m 8.75,14.51 c -2.93,0.71 -4.57,3.4 -5.67,5.97 -5.63,12.39 -9.67,25.44 -12.93,38.63 -1.22,5.02 -4.59,10.06 -9.85,11.35 -3.27,0.24 -6.17,-2.09 -7.62,-4.87 -3.51,-6.71 -6.81,-13.55 -9.45,-20.66 -0.52,-1.14 -0.75,-2.6 -1.92,-3.3 -1.47,-0.35 -2.54,1.04 -3.27,2.07 -6.04,9.08 -12.29,18.09 -17.13,27.88 -1.23,2.31 -1.85,5.57 0.2,7.62 2.06,2.32 4.49,4.56 5.17,7.73 0.84,2.68 0.43,7.01 -3.01,7.5 -7.19,0.74 -14.03,-2.09 -21.05,-3.03 -6.36,-0.74 -13.24,-0.91 -19.05,2.19 -2.76,1.4 -5.45,4.18 -4.8,7.54 0.96,5.91 3.89,11.5 8.25,15.63 3.38,5.02 4.2,11.58 2.99,17.44 -0.77,2.45 -1.51,6.09 -4.68,6.26 -6.91,0.01 -13.86,0.17 -20.67,1.41 -4.2,0.82 -8.66,2.08 -11.59,5.4 -3.18,3.34 -3.86,8.19 -4.02,12.62 -0.08,3.97 1.7,8.49 5.7,9.93 6.28,2.57 12.62,-1.49 19.03,-0.84 6.76,0.54 13.69,2.61 19.11,6.79 2.46,1.74 2.19,5.62 -0.46,7.04 -5.94,3.47 -13.16,3.57 -19.35,6.45 -1.13,0.79 -1.75,2.12 -1.19,3.47 1.27,1.93 3.81,1.9 5.78,2.62 11.28,3.45 22.47,7.37 33.04,12.63 3.5,1.93 7.42,3.81 9.53,7.37 2.04,3.54 0.49,7.64 -1.01,11.05 -3.03,6.4 -4.8,13.52 -4.43,20.62 0.16,2.39 0.84,6.01 4,5.82 4.03,-1.19 6.06,-5.21 8.64,-8.17 4.8,-5.55 10.46,-10.25 15.67,-15.39 2.21,-2.19 5.43,-3.78 8.58,-2.86 3.34,0.98 4.87,4.56 5.54,7.67 2.23,15.05 4.48,30.13 7.98,44.94 1.26,3.68 2.91,8.84 7.44,9.27 5.68,-1.13 10.07,-5.37 14.15,-9.21 5.3,-5.7 10.73,-12.06 12.11,-19.96 1.57,-6.48 2.45,-13.32 5.78,-19.19 2.21,-3.42 8.38,-6.24 11.18,-2.02 6.53,10.71 12.48,21.86 20.38,31.66 0.94,1.31 2.74,2.31 4.29,1.33 1.21,-1.41 1.27,-3.35 1.57,-5.08 2.08,-15.17 4.46,-30.44 9.65,-44.9 1.93,-5.97 9.66,-7.23 15.03,-6.04 5.87,2.47 10.46,7.83 16.96,8.81 5.13,0.86 9.65,-2.28 13.44,-5.31 3.53,-2.89 3.63,-8.41 1.31,-12.08 -5.67,-9.41 -16.43,-14.54 -21.53,-24.37 -1.59,-2.66 -0.6,-6.24 2.16,-7.65 10.49,-6.38 21.5,-12.09 31.03,-19.92 4.25,-3.89 5.46,-9.93 6,-15.43 0.29,-3.79 1.21,-7.74 -0.03,-11.45 -1.38,-2.87 -4.98,-2.53 -7.5,-1.59 -8.88,3.15 -17.65,6.91 -27,8.48 -2.67,0.56 -6.61,-0.18 -6.61,-3.6 0.53,-6.29 6,-10.23 10.02,-14.45 6.31,-6.69 13.23,-13.1 17.58,-21.32 1.57,-2.86 2.4,-7.12 -0.33,-9.56 -2.97,-2.36 -7.15,-1.89 -10.56,-0.86 -9.82,3.85 -20.35,5.76 -30.86,6.31 -2.51,-0.1 -6.08,-0.03 -7.03,-2.96 -2.47,-6.49 0.86,-13.23 4.08,-18.8 2.46,-4.42 6.62,-7.39 10.01,-11.01 1.93,-2.24 3.49,-6.68 0.33,-8.52 -5.55,-1.97 -11.72,-2.22 -17.5,-1.15 -7.18,1.68 -12.44,7.13 -17.87,11.72 -5.09,4.66 -12.32,6.69 -19.11,5.93 -4.15,-1.17 -6.54,-5.26 -7.99,-9.03 -3.83,-11.31 -6.31,-23.14 -6.61,-35.1 0.02,-4.92 -5.37,-8.8 -10.03,-7.47 z"/>
  <path d="m 140.56,92.67 c 11.41,-1.87 23.48,-0.3 33.76,5.12 14.7,7.5 25.49,22.03 28.65,38.2 3.07,15.31 -0.11,31.93 -9.42,44.58 -9.62,13.58 -25.82,22.4 -42.53,22.5 -11.45,0.38 -22.93,-3.2 -32.22,-9.87 -12.45,-8.83 -20.93,-23.01 -22.77,-38.17 -1.79,-13.04 1.1,-26.71 8.2,-37.82 8.01,-12.73 21.45,-22.03 36.33,-24.54 z m 9.85,-78.16 c 4.66,-1.33 10.05,2.55 10.03,7.47 0.3,11.96 2.78,23.79 6.61,35.1 1.45,3.77 3.84,7.86 7.99,9.03 6.79,0.76 14.02,-1.27 19.11,-5.93 5.43,-4.59 10.69,-10.04 17.87,-11.72 5.78,-1.07 11.95,-0.82 17.5,1.15 3.16,1.84 1.6,6.28 -0.33,8.52 -3.39,3.62 -7.55,6.59 -10.01,11.01 -3.22,5.57 -6.55,12.31 -4.08,18.8 0.95,2.93 4.52,2.86 7.03,2.96 10.51,-0.55 21.04,-2.46 30.86,-6.31 3.41,-1.03 7.59,-1.5 10.56,0.86 2.73,2.44 1.9,6.7 0.33,9.56 -4.35,8.22 -11.27,14.63 -17.58,21.32 -4.02,4.22 -9.49,8.16 -10.02,14.45 0,3.42 3.94,4.16 6.61,3.6 9.35,-1.57 18.12,-5.33 27,-8.48 2.52,-0.94 6.12,-1.28 7.5,1.59 1.24,3.71 0.32,7.66 0.03,11.45 -0.54,5.5 -1.75,11.54 -6,15.43 -9.53,7.83 -20.54,13.54 -31.03,19.92 -2.76,1.41 -3.75,4.99 -2.16,7.65 5.1,9.83 15.86,14.96 21.53,24.37 2.32,3.67 2.22,9.19 -1.31,12.08 -3.79,3.03 -8.31,6.17 -13.44,5.31 -6.5,-0.98 -11.09,-6.34 -16.96,-8.81 -5.37,-1.19 -13.1,0.07 -15.03,6.04 -5.19,14.46 -7.57,29.73 -9.65,44.9 -0.3,1.73 -0.36,3.67 -1.57,5.08 -1.55,0.98 -3.35,-0.02 -4.29,-1.33 -7.9,-9.8 -13.85,-20.95 -20.38,-31.66 -2.8,-4.22 -8.97,-1.4 -11.18,2.02 -3.33,5.87 -4.21,12.71 -5.78,19.19 -1.38,7.9 -6.81,14.26 -12.11,19.96 -4.08,3.84 -8.47,8.08 -14.15,9.21 -4.53,-0.43 -6.18,-5.59 -7.44,-9.27 -3.5,-14.81 -5.75,-29.89 -7.98,-44.94 -0.67,-3.11 -2.2,-6.69 -5.54,-7.67 -3.15,-0.92 -6.37,0.67 -8.58,2.86 -5.21,5.14 -10.87,9.84 -15.67,15.39 -2.58,2.96 -4.61,6.98 -8.64,8.17 -3.16,0.19 -3.84,-3.43 -4,-5.82 -0.37,-7.1 1.4,-14.22 4.43,-20.62 1.5,-3.41 3.05,-7.51 1.01,-11.05 -2.11,-3.56 -6.03,-5.44 -9.53,-7.37 -10.57,-5.26 -21.76,-9.18 -33.04,-12.63 -1.97,-0.72 -4.51,-0.69 -5.78,-2.62 -0.56,-1.35 0.06,-2.68 1.19,-3.47 6.19,-2.88 13.41,-2.98 19.35,-6.45 2.65,-1.42 2.92,-5.3 0.46,-7.04 -5.42,-4.18 -12.35,-6.25 -19.11,-6.79 -6.41,-0.65 -12.75,3.41 -19.03,0.84 -4,-1.44 -5.78,-5.96 -5.7,-9.93 0.16,-4.43 0.84,-9.28 4.02,-12.62 2.93,-3.32 7.39,-4.58 11.59,-5.4 6.81,-1.24 13.76,-1.4 20.67,-1.41 3.17,-0.17 3.91,-3.81 4.68,-6.26 1.21,-5.86 0.39,-12.42 -2.99,-17.44 -4.36,-4.13 -7.29,-9.72 -8.25,-15.63 -0.65,-3.36 2.04,-6.14 4.8,-7.54 5.81,-3.1 12.69,-2.93 19.05,-2.19 7.02,0.94 13.86,3.77 21.05,3.03 3.44,-0.49 3.85,-4.82 3.01,-7.5 -0.68,-3.17 -3.11,-5.41 -5.17,-7.73 -2.05,-2.05 -1.43,-5.31 -0.2,-7.62 4.84,-9.79 11.09,-18.8 17.13,-27.88 0.73,-1.03 1.8,-2.42 3.27,-2.07 1.17,0.7 1.4,2.16 1.92,3.3 2.64,7.11 5.94,13.95 9.45,20.66 1.45,2.78 4.35,5.11 7.62,4.87 5.26,-1.29 8.63,-6.33 9.85,-11.35 3.26,-13.19 7.3,-26.24 12.93,-38.63 1.1,-2.57 2.74,-5.26 5.67,-5.97 m -9.89,70.36 c -23.38,3.39 -43.43,21.57 -50.01,44.12 -4.58,15.02 -3.35,31.72 3.43,45.89 7.19,15.39 20.85,27.73 37.05,32.98 12.68,4.14 26.75,4.01 39.29,-0.57 14.86,-5.29 27.44,-16.52 34.54,-30.59 7.57,-14.52 9.01,-31.99 4.35,-47.64 -4.93,-16.61 -16.92,-31.06 -32.54,-38.64 -11.07,-5.6 -23.88,-7.4 -36.11,-5.55 z"/>
</svg>
