<svg width="833pt" height="959pt" viewBox="0 0 833 959" version="1.1" xmlns="http://www.w3.org/2000/svg">
<path d=" M 349.10 0.00 L 349.27 0.00 C 367.48 12.04 385.62 24.36 402.00 38.85 C 414.57 49.73 426.16 61.98 434.93 76.17 C 440.85 85.65 444.93 96.20 447.44 107.06 C 450.95 121.81 451.76 137.22 457.34 151.44 C 459.82 158.15 463.56 164.27 467.19 170.41 C 447.21 174.40 428.33 184.45 414.77 199.78 C 396.29 220.18 386.48 246.84 380.93 273.42 C 376.77 294.52 375.05 316.10 375.66 337.59 C 335.91 337.63 296.16 337.53 256.41 337.65 C 253.90 327.28 252.75 316.65 251.69 306.06 C 250.69 290.46 249.06 274.50 252.77 259.11 C 256.88 241.16 267.96 225.65 280.99 213.00 C 302.81 191.84 329.51 176.53 351.49 155.56 C 361.56 145.97 370.48 134.87 375.96 121.99 C 382.69 106.33 383.38 88.47 379.28 72.04 C 375.83 57.62 369.96 43.92 363.80 30.48 C 359.03 20.26 353.55 10.37 349.10 0.00 Z" />
<path d=" M 602.10 83.29 C 635.86 92.79 665.05 113.86 689.91 138.04 C 714.97 163.07 736.78 191.64 752.93 223.22 C 756.40 230.55 760.01 237.95 761.63 245.96 C 751.42 245.11 740.89 244.36 730.92 247.28 C 719.23 250.55 708.91 258.18 702.14 268.23 C 690.95 284.45 686.83 304.31 685.02 323.61 C 684.11 333.29 684.31 343.05 684.65 352.76 C 665.47 349.40 646.48 344.85 627.19 342.19 C 627.75 342.03 628.33 341.86 628.91 341.70 C 620.19 341.02 611.68 338.80 603.05 337.44 C 610.30 322.67 618.38 308.28 625.01 293.19 C 635.99 268.24 645.04 241.56 644.40 213.97 C 643.20 194.73 637.92 176.04 631.86 157.84 C 624.00 134.34 614.42 111.45 604.22 88.88 C 603.40 87.06 602.70 85.19 602.10 83.29 Z" />
<path d=" M 130.93 147.00 C 138.87 142.40 147.03 137.99 155.82 135.25 C 144.74 167.87 139.93 202.57 141.37 236.97 C 143.26 267.35 156.17 296.35 175.22 319.85 C 181.21 327.45 187.96 334.41 194.79 341.25 C 196.19 342.81 198.26 343.98 198.95 346.03 C 196.69 349.14 192.91 350.71 189.47 352.17 C 176.72 356.58 162.75 355.53 150.11 360.39 C 141.54 363.59 133.76 370.04 130.59 378.81 C 130.32 369.71 129.32 360.48 125.86 351.99 C 116.61 328.60 96.87 310.13 73.85 300.49 C 62.03 295.63 48.84 292.93 36.14 295.55 C 24.00 297.83 12.55 302.78 1.75 308.67 C -0.23 302.32 0.03 295.57 0.26 289.01 C 1.43 278.14 5.89 267.91 11.25 258.50 C 24.92 235.30 43.85 215.76 63.50 197.58 C 84.44 178.80 106.75 161.43 130.93 147.00 Z" />
<path d=" M 511.19 208.36 C 528.87 199.26 548.00 193.18 567.49 189.39 C 559.42 207.30 546.45 222.32 534.93 238.05 C 526.20 250.03 516.89 262.25 513.04 276.82 C 509.47 290.41 516.23 303.77 522.67 315.36 C 514.51 316.93 506.36 318.65 498.14 319.81 C 498.72 320.00 499.31 320.18 499.90 320.37 C 497.93 320.29 495.94 320.32 494.02 320.75 C 479.19 323.72 464.28 326.31 449.51 329.53 C 449.31 328.65 449.14 327.77 448.99 326.89 C 446.89 302.11 449.97 276.08 462.34 254.13 C 473.24 234.16 491.19 218.79 511.19 208.36 Z" />
<path d=" M 781.48 280.54 C 796.27 268.35 814.16 260.01 833.00 256.48 L 833.00 256.58 C 818.56 269.02 807.29 285.50 802.46 304.05 C 796.38 326.92 797.57 350.80 797.34 374.23 C 775.30 365.45 751.71 358.74 727.76 360.31 C 739.71 330.42 756.19 301.15 781.48 280.54 Z" />
<path d=" M 409.03 355.53 C 437.61 352.99 466.35 353.03 495.02 353.76 C 503.00 354.72 511.07 354.17 519.05 355.21 C 538.71 356.27 558.26 358.72 577.83 360.86 C 577.42 360.98 576.60 361.22 576.19 361.34 C 577.76 361.30 579.33 361.28 580.90 361.44 C 627.76 367.81 674.29 376.93 719.82 389.77 C 740.08 395.52 760.30 401.77 779.53 410.44 C 784.91 413.23 791.74 415.63 793.54 422.11 C 801.39 443.64 805.32 466.38 808.74 488.97 C 811.37 505.16 810.87 521.60 810.47 537.94 C 808.75 573.32 803.65 608.62 794.19 642.79 C 791.60 652.61 788.21 662.22 785.56 672.01 C 785.42 678.98 790.71 685.06 789.53 692.19 C 775.29 699.31 759.46 702.31 743.91 705.07 C 735.27 706.38 726.59 708.07 717.80 707.66 C 717.51 698.29 716.51 688.07 710.50 680.45 C 705.91 674.47 697.20 672.55 690.38 675.50 C 682.39 679.14 676.53 686.35 673.07 694.28 C 669.96 700.67 670.15 707.83 670.61 714.73 C 652.80 723.69 634.66 732.02 616.63 740.53 C 616.50 742.70 617.20 744.81 617.58 746.93 C 619.63 756.74 621.26 766.63 623.51 776.40 C 650.06 795.58 682.66 804.66 714.95 807.57 C 711.86 819.07 704.43 828.92 696.54 837.63 C 674.72 860.93 646.44 876.61 618.73 891.78 C 617.59 884.19 614.94 876.16 608.69 871.24 C 604.64 867.88 598.80 867.64 594.04 869.47 C 588.99 871.31 583.83 874.42 581.77 879.65 C 580.12 886.30 581.89 893.21 584.59 899.34 C 585.34 901.46 586.81 903.45 586.71 905.80 C 561.26 912.50 535.59 918.38 510.04 924.69 C 500.05 926.91 490.18 929.66 480.14 931.64 C 503.03 904.21 525.67 876.56 548.55 849.12 C 539.67 822.90 531.03 796.60 522.25 770.35 C 507.24 773.49 492.29 776.92 477.22 779.78 C 477.32 780.13 477.52 780.83 477.62 781.18 C 489.98 793.23 502.02 805.62 514.34 817.70 C 515.37 818.75 516.28 819.92 517.19 821.10 C 486.40 821.43 455.59 821.13 424.79 821.25 C 414.38 797.49 404.68 773.44 394.22 749.70 C 385.13 749.79 376.04 749.67 366.96 749.77 C 362.98 754.17 358.80 760.09 360.74 766.33 C 364.02 773.81 369.50 780.20 372.07 788.04 C 374.24 793.45 373.85 799.40 373.55 805.10 C 373.08 810.57 371.48 816.42 367.20 820.18 C 363.06 823.94 356.83 824.61 351.61 823.19 C 344.02 819.27 339.49 811.51 335.68 804.19 C 321.94 819.56 308.57 835.27 295.12 850.90 C 304.19 869.60 313.08 888.45 323.78 906.29 C 325.16 908.96 327.67 911.00 328.69 913.82 C 321.43 922.50 309.14 928.05 297.92 924.44 C 284.81 920.73 272.02 916.00 259.35 911.02 C 240.15 903.13 220.96 894.86 203.37 883.73 C 186.98 873.54 175.47 857.18 167.55 839.88 C 164.22 831.93 160.62 823.96 159.01 815.45 C 171.98 817.05 185.21 816.71 198.01 814.00 C 215.79 810.31 232.37 801.06 244.83 787.84 C 255.47 776.32 263.66 762.42 268.08 747.34 C 268.47 745.41 269.39 742.91 267.62 741.40 C 264.08 737.56 259.67 734.66 255.43 731.66 C 242.70 723.08 229.42 715.35 216.14 707.67 C 213.90 706.21 211.13 706.69 208.61 706.53 C 202.36 706.57 196.14 705.85 189.93 705.25 C 185.79 704.26 183.27 700.37 180.77 697.23 C 175.77 689.74 170.78 681.77 169.28 672.74 C 177.42 669.53 186.29 667.80 193.54 662.65 C 197.91 659.73 201.47 655.24 202.39 649.97 C 203.55 643.35 199.32 636.63 193.45 633.78 C 189.51 631.86 185.01 632.80 180.91 633.64 C 173.53 635.27 167.26 639.70 160.98 643.67 C 156.59 630.73 148.41 618.71 136.53 611.61 C 122.50 602.90 104.92 601.65 89.00 604.69 C 77.54 606.78 68.89 615.02 59.04 620.52 C 53.42 616.37 47.48 612.31 43.37 606.55 C 41.49 604.11 41.34 600.94 40.83 598.03 C 37.53 576.16 38.10 553.96 38.59 531.92 C 39.31 514.12 41.11 496.39 43.64 478.76 C 43.79 478.61 44.08 478.30 44.23 478.15 C 44.88 471.60 46.53 465.10 49.12 459.05 C 50.47 455.56 53.98 453.89 56.99 452.09 C 70.49 444.45 84.87 438.52 99.14 432.50 C 154.35 410.26 211.34 392.52 269.22 378.70 C 315.21 367.76 361.92 359.58 409.03 355.53 M 195.63 507.08 C 192.56 507.53 189.25 508.78 187.76 511.71 C 186.25 514.91 186.20 518.63 186.70 522.08 C 188.68 525.82 192.75 527.68 196.38 529.45 C 211.74 536.27 227.86 541.79 241.85 551.32 C 252.42 558.15 261.05 567.51 268.63 577.47 C 281.27 593.61 291.79 611.33 305.06 626.99 C 308.64 630.60 312.37 635.62 318.06 635.22 C 331.05 635.15 344.05 635.23 357.04 635.18 C 359.15 635.52 360.27 633.53 361.36 632.14 C 371.50 618.46 381.46 604.50 388.95 589.15 C 391.36 583.73 394.01 578.07 393.70 571.99 C 393.61 567.63 389.99 564.55 387.03 561.83 C 378.89 555.15 369.08 550.98 359.51 546.80 C 330.56 535.01 300.25 527.00 269.94 519.58 C 247.80 514.66 225.64 509.52 203.09 506.89 C 200.61 506.56 198.09 506.60 195.63 507.08 M 619.50 516.61 C 599.70 526.10 581.84 539.12 564.68 552.69 C 557.61 558.56 550.16 564.11 543.84 570.78 C 559.59 585.45 575.02 600.47 590.90 615.01 C 594.26 618.05 597.35 621.44 601.12 623.99 C 601.45 623.88 602.12 623.66 602.46 623.55 C 616.40 603.88 628.88 583.11 639.22 561.31 C 645.81 546.65 652.42 531.70 655.00 515.71 C 655.44 513.62 655.31 511.50 654.64 509.49 C 642.51 506.78 630.40 511.74 619.50 516.61 M 437.59 672.54 C 436.49 673.67 435.64 675.01 434.88 676.39 C 453.24 676.42 471.60 676.40 489.96 676.40 C 488.43 672.35 486.04 668.73 484.05 664.91 C 479.08 655.60 474.10 646.30 469.07 637.02 C 458.22 648.52 448.24 660.84 437.59 672.54 Z" />
<path d=" M 360.22 850.76 C 376.87 849.99 393.75 851.26 409.83 855.83 C 418.33 858.47 427.23 861.92 433.09 868.95 C 437.62 874.13 437.00 882.49 432.48 887.46 C 429.65 890.32 425.70 891.76 421.81 892.42 C 417.79 893.01 413.67 893.76 409.64 892.92 C 400.63 891.15 393.04 885.54 386.00 879.96 C 375.97 871.68 366.55 862.22 360.22 850.76 Z" />
<path d=" M 385.62 937.05 C 387.35 927.98 394.74 919.91 404.02 918.47 C 412.12 917.57 419.42 922.15 426.25 925.86 C 431.78 929.50 438.47 933.34 440.31 940.17 C 440.02 946.17 438.34 952.62 434.06 957.04 C 432.22 959.23 428.50 959.55 426.45 957.53 C 423.23 954.75 420.48 950.89 415.97 950.24 C 407.12 948.74 397.72 948.00 389.86 943.28 C 387.45 942.02 386.35 939.50 385.62 937.05 Z" />
</svg>
