<?xml version="1.0" encoding="UTF-8" ?>
<svg width="900pt" height="864pt" viewBox="0 0 900 864" version="1.1" xmlns="http://www.w3.org/2000/svg">
<path d=" M 385.53 2.77 C 386.03 10.86 385.52 18.98 386.05 27.07 C 387.10 61.68 391.72 96.42 402.34 129.47 C 411.19 156.84 424.62 183.32 444.98 203.95 C 462.76 222.15 486.11 234.66 511.01 239.77 C 530.74 243.78 551.24 244.45 571.09 240.87 C 590.70 237.39 609.44 229.82 626.53 219.68 C 658.25 200.78 684.38 173.80 706.38 144.40 C 713.22 135.57 718.99 125.96 725.76 117.09 C 719.40 136.57 712.77 156.00 708.00 175.96 C 702.21 199.86 697.78 224.33 698.27 249.01 C 698.48 267.78 701.29 286.65 707.83 304.29 C 714.31 321.77 724.81 337.87 738.87 350.19 C 765.44 373.68 801.96 383.63 836.93 382.35 C 853.62 381.54 870.47 379.20 886.16 373.28 C 891.09 372.94 894.96 369.08 900.00 369.15 L 900.00 369.48 C 898.35 370.21 897.22 371.69 896.01 372.96 C 880.01 391.23 865.08 410.43 851.14 430.32 C 833.97 455.06 818.00 480.88 806.59 508.84 C 799.52 526.60 794.02 545.65 795.63 564.96 C 796.78 579.63 802.19 593.99 811.37 605.53 C 821.63 618.69 835.92 628.15 851.00 634.97 C 865.03 641.21 879.95 645.49 895.16 647.62 C 848.63 648.06 802.10 647.65 755.57 647.83 C 760.70 598.49 757.16 547.94 742.37 500.45 C 731.52 465.29 714.66 431.93 692.35 402.64 C 671.02 374.50 644.69 350.17 614.98 331.09 C 583.86 311.06 549.07 296.84 512.94 288.90 C 465.08 278.53 414.76 278.03 367.10 289.80 C 308.25 304.16 253.84 336.22 212.81 380.79 C 178.39 417.80 153.52 463.39 140.02 512.04 C 128.85 551.85 125.25 593.58 127.86 634.78 C 86.48 634.66 45.10 635.07 3.73 634.57 C 25.20 631.54 47.02 626.96 66.05 616.12 C 76.76 609.93 86.83 600.56 89.46 588.01 C 91.94 577.74 88.44 567.02 82.71 558.47 C 74.75 546.58 63.65 537.18 52.14 528.85 C 36.11 517.41 18.68 508.08 0.81 499.87 C 22.80 497.84 44.60 492.33 64.44 482.50 C 85.95 472.05 104.94 455.70 116.59 434.64 C 130.57 409.35 134.41 379.15 130.11 350.79 C 124.27 316.87 110.82 284.85 96.05 253.95 C 110.81 274.53 127.57 294.14 148.51 308.66 C 158.50 315.54 169.55 321.16 181.45 323.80 C 199.16 327.50 217.78 323.66 233.90 315.90 C 256.93 304.56 275.14 285.58 290.22 265.17 C 310.64 237.17 325.98 205.83 338.97 173.81 C 355.16 133.46 367.57 91.65 377.12 49.27 C 380.46 33.87 383.72 18.43 385.53 2.77 Z" />
<path d=" M 412.48 329.12 C 456.53 324.06 501.80 329.79 543.12 345.91 C 607.74 370.83 661.98 421.27 691.56 483.89 C 710.44 523.31 719.52 567.36 717.99 611.02 C 716.79 649.77 707.21 688.26 690.03 723.02 C 664.81 774.46 623.04 817.58 572.41 844.38 C 564.65 848.59 556.58 852.19 548.52 855.78 C 541.83 823.89 535.90 791.82 529.50 759.87 C 533.90 752.35 539.24 745.34 543.99 738.01 C 561.02 712.65 578.38 687.50 595.20 662.02 C 595.32 655.97 595.28 649.91 595.20 643.86 C 515.24 643.66 435.27 643.86 355.31 643.76 C 355.29 635.08 355.42 626.40 355.24 617.72 C 367.59 617.19 379.99 617.80 392.35 617.42 C 398.37 602.85 405.35 588.64 410.98 573.93 C 377.05 573.95 343.11 573.77 309.21 574.07 C 309.17 604.37 309.20 634.68 309.19 664.99 C 309.40 669.18 308.76 673.51 309.50 677.63 C 337.27 697.52 365.13 717.31 392.90 737.22 C 382.57 779.48 371.80 821.63 361.37 863.87 C 293.53 842.78 234.94 794.07 201.61 731.36 C 181.30 693.58 170.11 650.93 169.30 608.04 C 168.36 569.86 175.52 531.50 190.25 496.27 C 208.79 451.65 239.43 412.18 277.93 383.03 C 316.86 353.41 363.85 334.46 412.48 329.12 M 405.66 444.81 C 405.51 482.62 405.58 520.44 405.63 558.26 C 414.61 558.45 423.66 557.85 432.61 558.55 C 426.20 575.07 420.56 591.89 414.35 608.49 C 429.05 608.53 443.76 608.67 458.46 608.42 C 458.31 553.89 458.51 499.35 458.36 444.82 C 440.79 444.81 423.23 444.83 405.66 444.81 M 336.57 458.74 C 336.55 490.54 336.47 522.35 336.61 554.15 C 354.85 554.16 373.08 554.16 391.32 554.15 C 391.42 522.35 391.38 490.55 391.34 458.74 C 373.08 458.74 354.83 458.74 336.57 458.74 M 474.28 472.26 C 474.29 517.69 474.26 563.12 474.30 608.55 C 490.46 608.55 506.62 608.51 522.78 608.57 C 522.89 563.13 522.83 517.69 522.81 472.25 C 506.63 472.28 490.46 472.25 474.28 472.26 M 539.14 504.24 C 538.67 506.80 538.86 509.41 538.85 512.00 C 538.85 542.00 538.86 572.00 538.85 602.00 C 538.85 604.19 538.66 606.44 539.22 608.60 C 553.37 608.47 567.53 608.56 581.69 608.55 C 581.75 573.79 581.71 539.03 581.71 504.27 C 567.52 504.25 553.33 504.32 539.14 504.24 Z" />
</svg>
