<?xml version="1.0" encoding="UTF-8" ?>
<svg width="900pt" height="834pt" viewBox="0 0 900 834" version="1.1" xmlns="http://www.w3.org/2000/svg">
<path d=" M 286.76 0.00 L 287.01 0.00 C 285.37 5.70 281.57 10.43 278.00 15.05 C 264.01 31.98 246.83 45.89 232.09 62.13 C 228.72 66.28 224.80 70.52 223.88 75.98 C 223.34 81.01 227.64 84.92 232.21 85.95 C 243.10 88.79 254.83 88.20 265.17 93.15 C 264.41 94.66 262.58 94.80 261.22 95.42 C 225.60 108.63 191.72 127.06 162.43 151.36 C 133.55 175.13 109.38 204.56 91.52 237.42 C 72.05 273.03 59.84 312.36 53.75 352.41 C 46.96 396.65 48.14 441.71 52.54 486.12 C 57.01 527.93 65.89 569.38 80.55 608.84 C 93.64 644.19 111.40 677.87 133.80 708.22 C 154.82 736.79 179.87 762.34 207.77 784.23 C 216.95 791.53 226.60 798.20 236.22 804.89 C 203.21 791.35 172.04 773.18 144.37 750.61 C 116.78 728.17 92.87 701.31 73.34 671.61 C 52.56 640.07 36.76 605.39 25.28 569.45 C 8.64 517.22 0.94 462.39 0.00 407.67 L 0.00 394.33 C 0.84 348.31 8.68 302.26 24.89 259.11 C 41.11 215.49 65.57 175.11 95.81 139.80 C 144.69 82.60 207.53 38.58 275.06 6.08 C 278.99 4.10 283.06 2.39 286.76 0.00 Z" />
<path d=" M 663.04 29.05 C 706.40 46.45 746.46 72.36 779.70 105.23 C 803.87 129.04 824.35 156.48 840.86 186.10 C 874.96 247.42 892.41 316.92 897.97 386.55 C 901.08 424.00 900.71 461.87 894.84 499.04 C 889.50 533.31 879.64 566.90 865.33 598.50 C 844.59 644.58 814.53 686.20 778.64 721.67 C 739.54 760.57 693.77 792.39 644.97 817.93 C 634.68 823.57 623.76 828.06 613.65 834.00 L 613.22 834.00 C 614.76 829.13 617.77 824.92 620.79 820.86 C 628.90 810.37 638.65 801.32 648.08 792.04 C 656.31 783.94 665.01 776.19 672.03 766.98 C 674.63 763.31 677.68 758.75 675.81 754.09 C 674.65 750.40 670.76 748.65 667.31 747.74 C 656.43 745.00 644.47 745.84 634.44 740.19 C 669.44 727.63 702.85 710.15 732.07 687.06 C 754.95 669.05 775.17 647.66 791.72 623.70 C 829.39 569.49 847.45 503.53 850.47 438.07 C 852.01 392.03 848.99 345.75 840.21 300.50 C 832.47 260.61 820.00 221.53 801.99 185.07 C 787.03 154.79 768.25 126.38 746.01 100.96 C 721.83 73.33 693.74 49.17 663.04 29.05 Z" />
<path d=" M 396.07 93.69 C 413.35 92.89 430.64 92.35 447.93 91.78 C 475.63 92.72 503.36 93.47 530.99 95.79 C 535.99 96.51 541.17 96.56 546.00 98.19 C 551.18 101.63 554.47 107.18 557.59 112.42 C 565.29 126.25 570.82 141.15 576.02 156.06 C 583.25 177.31 589.52 198.89 594.88 220.68 C 590.09 220.71 585.30 220.74 580.51 220.75 C 579.05 213.74 577.86 206.68 576.40 199.67 C 559.09 199.76 542.09 204.45 526.28 211.27 C 526.16 247.16 526.17 283.06 526.27 318.94 C 529.20 323.40 534.93 325.12 538.61 328.91 C 536.28 333.09 531.18 334.02 526.99 335.30 C 512.61 338.80 497.79 339.89 483.09 341.14 C 467.42 342.06 451.73 343.12 436.02 342.40 C 418.27 341.60 400.50 340.58 382.89 338.08 C 375.86 336.92 368.69 335.90 362.06 333.16 C 359.99 332.18 357.28 330.95 357.26 328.30 C 361.37 325.36 365.86 322.90 369.42 319.25 C 369.40 283.36 369.32 247.47 369.46 211.58 C 353.70 204.30 336.38 199.75 318.96 199.73 C 317.96 206.70 316.20 213.55 315.24 220.53 C 310.35 220.95 305.42 220.73 300.53 220.56 C 306.30 198.55 312.41 176.60 319.85 155.08 C 325.71 138.63 331.69 121.98 341.15 107.21 C 344.17 103.10 347.31 97.79 352.93 97.31 C 367.19 94.99 381.67 94.66 396.07 93.69 Z" />
<path d=" M 331.70 228.68 C 336.18 224.95 340.43 220.60 346.02 218.57 C 349.20 220.17 350.01 223.98 350.64 227.17 C 352.27 236.39 351.73 245.81 351.56 255.12 C 350.71 272.58 349.06 290.02 346.51 307.31 C 328.37 320.90 310.32 334.62 292.21 348.25 C 289.84 349.68 291.11 352.76 290.83 355.01 C 291.30 376.00 290.95 397.04 292.85 417.98 C 289.85 416.90 287.35 414.87 284.96 412.83 C 274.86 403.75 266.08 393.35 257.17 383.14 C 253.67 384.77 252.37 388.69 251.27 392.09 C 247.54 405.40 247.49 419.33 246.80 433.04 C 246.09 470.01 251.48 506.83 259.37 542.87 C 269.67 590.10 284.54 636.16 299.84 681.95 C 303.96 694.98 308.86 707.83 311.74 721.20 C 305.27 714.59 300.50 706.49 295.22 698.93 C 273.26 665.46 254.08 630.20 237.06 593.98 C 218.62 554.26 202.99 513.07 192.88 470.41 C 186.70 443.95 182.76 416.89 182.60 389.70 C 222.44 345.83 261.13 300.91 302.03 258.02 C 311.74 248.06 321.39 238.03 331.70 228.68 Z" />
<path d=" M 544.90 226.95 C 545.61 223.79 546.41 219.87 549.82 218.57 C 554.43 220.52 558.21 223.88 562.00 227.07 C 575.95 239.39 588.69 252.98 601.49 266.47 C 639.33 306.71 675.53 348.44 712.60 389.39 C 713.12 399.62 712.17 409.90 711.28 420.11 C 706.57 464.45 693.89 507.57 677.75 549.02 C 661.37 590.74 641.36 630.99 618.60 669.59 C 609.84 684.30 600.78 698.86 590.76 712.76 C 588.56 715.65 586.54 718.73 583.84 721.20 C 585.61 711.88 588.93 702.94 591.73 693.90 C 605.98 651.09 620.32 608.24 631.14 564.40 C 641.64 521.45 649.68 477.43 648.61 433.05 C 648.26 418.99 647.86 404.69 643.94 391.09 C 642.74 388.14 641.65 383.93 637.99 383.34 C 630.68 392.20 623.03 400.80 614.87 408.90 C 611.02 412.24 607.46 416.40 602.43 417.92 C 603.86 409.68 603.48 401.29 604.16 392.99 C 604.46 378.43 604.58 363.86 604.61 349.30 C 586.08 335.13 567.36 321.22 548.82 307.07 C 546.37 287.78 544.29 268.41 543.71 248.97 C 543.57 241.61 543.64 234.21 544.90 226.95 Z" />
<path d=" M 370.97 369.20 C 384.27 369.13 397.57 369.18 410.88 369.17 C 406.32 392.47 401.45 415.70 396.75 438.97 C 396.19 438.38 395.80 437.70 395.56 436.94 C 387.47 414.32 378.98 391.85 370.97 369.20 Z" />
<path d=" M 484.47 369.41 C 494.30 368.84 504.19 369.33 514.04 369.17 C 517.59 369.32 521.18 368.82 524.70 369.46 C 516.55 390.91 508.91 412.56 500.97 434.09 C 500.23 435.70 500.09 437.72 498.75 438.99 C 494.00 415.80 489.49 392.54 484.47 369.41 Z" />
</svg>
