<svg width="900pt" height="779pt" viewBox="0 0 900 779" version="1.1" xmlns="http://www.w3.org/2000/svg">
<path d=" M 272.94 307.75 C 332.10 205.09 391.52 102.58 450.86 0.02 C 509.46 102.11 568.49 203.98 627.11 306.06 C 619.66 300.81 612.67 294.88 604.98 289.95 C 571.20 267.23 532.31 252.18 492.04 246.21 C 436.67 237.92 378.81 246.62 328.58 271.47 C 308.68 281.28 289.93 293.47 272.94 307.75 Z" />
<path d=" M 367.09 322.88 C 415.06 301.38 470.85 298.19 520.97 314.03 C 517.47 324.76 513.88 335.47 509.94 346.04 C 508.85 349.44 507.79 352.85 507.07 356.36 C 539.91 366.38 569.14 386.95 590.57 413.68 C 601.78 403.98 613.00 394.27 624.58 385.00 C 648.73 415.05 664.62 451.69 669.77 489.92 C 671.69 503.33 672.06 516.92 671.50 530.44 C 646.43 528.55 621.37 526.73 596.30 524.98 C 596.15 524.34 595.86 523.05 595.71 522.40 C 591.40 522.51 587.09 522.34 582.79 522.59 C 582.75 527.92 582.39 533.26 581.44 538.51 C 585.65 540.07 589.90 541.50 594.19 542.84 C 594.54 540.01 594.95 537.19 595.44 534.38 C 605.74 535.20 616.04 535.94 626.35 536.65 C 622.89 570.23 609.27 602.69 587.53 628.53 C 565.48 655.03 535.25 674.60 502.03 683.81 C 477.30 690.71 451.06 691.94 425.78 687.53 C 424.72 691.84 423.66 696.16 422.45 700.44 C 423.06 700.66 424.26 701.11 424.86 701.33 C 422.90 715.90 420.69 730.45 418.60 745.00 C 404.91 743.29 391.59 739.38 378.55 735.00 C 383.84 721.09 389.09 707.16 394.55 693.32 C 397.39 694.39 400.28 695.34 403.25 695.97 C 404.28 691.60 405.46 687.28 406.46 682.91 C 404.32 682.27 402.19 681.61 400.06 680.94 C 403.44 671.25 407.37 661.76 410.80 652.09 C 428.62 657.44 447.36 660.45 465.99 658.77 C 499.07 656.59 531.15 641.99 554.59 618.55 C 568.03 605.42 578.64 589.45 585.78 572.08 C 587.45 567.82 589.24 563.56 590.09 559.04 C 575.14 554.14 560.23 549.13 545.29 544.23 C 548.62 532.18 549.18 519.58 548.08 507.18 C 559.15 505.24 570.14 502.93 581.22 501.09 C 581.45 501.44 581.90 502.14 582.12 502.49 C 586.37 502.86 590.66 502.54 594.92 502.66 C 594.81 501.29 594.71 499.92 594.61 498.57 C 604.79 496.70 614.93 494.59 625.15 493.00 C 625.61 496.47 626.12 499.95 626.48 503.44 C 630.98 503.64 635.48 504.08 639.98 504.39 C 638.45 478.74 630.40 453.71 618.37 431.09 C 605.66 437.29 593.30 444.26 580.55 450.39 C 579.97 450.57 578.82 450.93 578.24 451.11 C 556.77 412.07 515.52 384.82 471.20 380.30 C 471.75 369.98 472.63 359.69 473.45 349.39 C 477.82 349.84 482.14 350.68 486.54 350.97 C 487.69 346.64 489.34 342.44 490.02 338.00 C 463.19 333.36 435.31 334.00 408.91 340.89 C 409.69 345.31 410.97 349.62 412.00 353.98 C 414.02 353.58 416.05 353.16 418.07 352.68 C 419.83 362.86 422.33 372.91 423.85 383.13 C 403.45 387.64 384.38 397.24 367.95 410.06 C 361.25 402.33 354.66 394.52 347.90 386.85 C 350.87 383.84 354.47 381.57 357.86 379.07 C 355.20 375.47 352.96 371.55 350.08 368.14 C 346.07 370.38 342.68 373.55 338.96 376.22 C 329.17 365.05 319.30 353.90 309.95 342.36 C 322.42 332.38 335.71 323.34 350.00 316.16 C 358.07 332.67 366.43 349.05 374.39 365.62 C 374.92 366.47 375.42 368.62 376.84 367.59 C 383.57 364.18 390.52 361.27 397.53 358.49 C 396.31 354.15 395.24 349.78 394.18 345.41 C 389.55 347.04 384.96 348.80 380.52 350.89 C 375.77 341.69 371.32 332.33 367.09 322.88 Z" />
<path d=" M 520.09 346.34 C 523.38 336.65 526.78 326.99 529.95 317.26 C 545.04 322.31 559.16 329.89 572.71 338.18 C 567.35 346.98 561.20 355.28 555.57 363.91 C 544.30 357.00 532.48 350.97 520.09 346.34 Z" />
<path d=" M 563.35 369.24 C 569.31 360.86 574.76 352.13 580.80 343.80 C 594.56 353.58 607.34 364.87 618.26 377.76 C 610.38 384.30 602.51 390.87 594.67 397.47 C 585.30 386.94 574.74 377.52 563.35 369.24 Z" />
<path d=" M 273.11 380.26 C 282.13 369.05 291.73 358.22 302.64 348.81 C 312.31 360.00 321.91 371.25 331.62 382.39 C 329.11 384.95 326.46 387.37 323.97 389.95 C 327.30 392.99 330.77 395.87 334.08 398.94 C 336.19 396.83 338.31 394.70 340.72 392.93 C 347.32 400.75 354.00 408.51 360.77 416.19 C 359.24 417.72 357.72 419.25 356.20 420.79 C 359.55 423.60 362.71 426.61 366.00 429.48 C 392.39 403.04 430.84 389.27 468.01 393.17 C 501.04 396.12 532.51 412.85 553.63 438.39 C 558.63 444.27 562.88 450.74 566.84 457.36 C 556.65 462.74 546.41 468.05 536.04 473.05 C 535.55 472.04 535.06 471.03 534.59 470.03 C 530.47 471.72 527.20 474.87 523.40 477.12 C 530.98 489.58 535.39 503.98 535.48 518.60 C 528.24 518.46 521.02 517.78 513.79 517.55 C 513.42 501.18 505.53 485.30 492.94 474.88 C 496.82 468.82 501.12 463.04 505.17 457.10 C 510.34 460.98 514.80 465.71 518.84 470.74 C 522.43 468.19 526.11 465.76 529.70 463.21 C 517.40 447.48 500.19 435.45 480.83 430.27 C 480.10 434.59 479.18 438.87 478.45 443.18 C 485.00 445.07 491.19 447.99 497.12 451.32 C 493.72 457.68 489.07 463.29 485.04 469.25 C 467.71 459.20 445.24 458.78 427.73 468.63 C 423.84 462.53 419.26 456.82 415.94 450.38 C 430.02 442.68 446.42 438.49 462.46 440.38 C 464.03 436.22 464.18 431.72 465.39 427.46 C 437.88 423.95 409.30 434.56 389.80 454.11 C 392.92 457.24 396.11 460.35 399.66 463.01 C 402.21 460.47 404.84 457.98 407.84 455.98 C 411.74 462.00 415.83 467.88 419.72 473.91 C 407.11 483.71 399.17 498.89 397.71 514.74 C 386.09 514.80 374.47 514.63 362.86 514.71 C 362.77 517.74 362.78 520.78 362.91 523.82 C 374.54 524.07 386.20 523.38 397.81 524.37 C 398.95 537.24 404.67 549.33 413.18 558.96 C 408.43 564.27 403.49 569.41 398.75 574.74 C 391.71 567.84 386.31 559.37 382.33 550.38 C 377.62 550.34 372.90 550.34 368.20 550.39 C 368.70 551.66 369.19 552.92 369.71 554.20 C 359.38 559.11 348.93 563.76 338.62 568.70 C 326.52 540.93 325.45 508.80 334.67 480.02 C 345.55 483.49 356.10 487.92 366.89 491.65 C 366.41 493.82 365.89 495.98 365.38 498.14 C 369.70 498.05 374.04 498.32 378.35 498.06 C 379.36 497.41 379.41 496.01 379.88 495.02 C 382.82 485.49 387.88 476.74 394.02 468.93 C 390.19 465.83 387.16 461.31 382.23 459.90 C 378.39 457.36 374.88 454.34 370.80 452.18 C 366.26 448.25 361.42 444.70 356.46 441.33 C 356.42 440.81 356.33 439.78 356.29 439.26 C 353.12 436.60 350.00 433.87 346.96 431.07 C 346.50 431.55 345.58 432.49 345.12 432.97 C 336.83 426.96 328.61 420.88 320.28 414.94 C 321.35 413.46 322.37 411.94 323.18 410.30 C 319.67 407.62 316.69 404.34 313.10 401.78 C 311.78 403.45 310.45 405.13 309.13 406.80 C 297.20 397.85 284.82 389.48 273.11 380.26 Z" />
<path d=" M 427.37 350.81 C 439.41 348.89 451.63 348.14 463.81 348.66 C 463.27 358.97 462.37 369.25 461.57 379.54 C 452.12 379.07 442.71 380.00 433.34 380.98 C 431.32 370.92 429.32 360.87 427.37 350.81 Z" />
<path d=" M 253.91 409.95 C 258.13 402.49 262.36 394.94 267.69 388.21 C 279.39 397.05 291.32 405.59 303.23 414.16 C 301.78 417.53 299.43 420.40 297.59 423.55 C 290.52 435.06 284.83 447.38 280.41 460.13 C 294.50 465.12 308.71 469.83 322.53 475.54 C 310.09 511.74 313.99 553.19 332.70 586.58 C 336.35 584.34 340.09 582.25 343.81 580.12 C 343.60 579.35 343.19 577.81 342.98 577.04 C 353.34 572.51 363.43 567.34 373.87 562.98 C 389.64 593.04 423.06 612.78 457.03 611.77 C 480.34 611.70 503.40 602.15 520.14 585.96 C 516.94 582.93 513.63 580.01 510.23 577.22 C 505.66 581.38 500.83 585.43 495.20 588.06 C 492.34 581.61 488.59 575.53 486.08 568.95 C 491.35 565.02 496.76 561.09 500.82 555.81 C 507.59 547.64 511.73 537.55 513.41 527.12 C 520.58 527.57 527.79 527.46 534.93 528.26 C 533.18 544.08 526.53 559.37 515.94 571.27 C 519.04 574.43 522.36 577.38 525.84 580.14 C 526.67 579.06 527.51 577.99 528.35 576.92 C 538.00 583.13 547.18 590.07 556.57 596.69 C 534.52 625.11 500.15 643.77 464.14 645.72 C 432.44 648.07 400.06 637.73 375.47 617.62 C 367.35 611.02 360.03 603.43 353.73 595.07 C 349.82 597.13 346.02 599.39 342.23 601.66 C 343.16 602.91 344.08 604.19 344.98 605.48 C 336.96 611.95 329.21 618.76 321.10 625.12 C 298.67 596.76 285.44 561.20 284.43 525.02 C 284.10 514.23 284.64 503.40 286.40 492.74 C 267.05 490.58 247.71 488.29 228.43 485.54 C 232.51 459.13 241.02 433.38 253.91 409.95 Z" />
<path d=" M 314.20 422.78 C 315.55 423.41 316.88 424.09 318.08 425.01 C 325.21 430.33 332.49 435.45 339.62 440.78 C 334.15 448.69 329.52 457.19 325.92 466.11 C 316.07 463.21 306.62 459.07 296.91 455.73 C 300.90 443.94 307.50 433.21 314.20 422.78 Z" />
<path d=" M 582.98 459.95 C 592.24 455.36 601.24 450.20 610.70 446.02 C 616.27 457.99 620.55 470.54 623.44 483.42 C 613.25 485.38 603.07 487.46 592.82 489.02 C 590.63 478.99 587.14 469.31 582.98 459.95 Z" />
<path d=" M 338.27 471.08 C 341.10 463.08 345.54 455.77 350.06 448.63 C 358.96 454.41 367.26 461.09 375.98 467.16 C 376.54 467.77 378.32 468.39 377.47 469.46 C 374.80 473.77 372.36 478.21 370.29 482.83 C 359.62 478.90 349.00 474.84 338.27 471.08 Z" />
<path d=" M 540.56 481.69 C 550.76 476.42 560.89 470.96 571.30 466.08 C 574.92 474.29 577.94 482.78 579.89 491.54 C 568.65 493.73 557.39 495.86 546.11 497.81 C 544.71 492.29 542.98 486.85 540.56 481.69 Z" />
<path d=" M 0.26 779.00 C 59.71 676.40 118.90 573.65 178.45 471.12 C 167.58 532.33 178.25 597.17 208.55 651.49 C 226.07 683.14 249.89 711.29 278.20 733.82 C 302.55 753.40 330.38 768.38 359.72 779.00 L 0.26 779.00 Z" />
<path d=" M 711.71 609.95 C 727.11 566.47 731.07 519.12 723.65 473.63 C 779.03 569.22 834.02 665.04 889.25 760.71 C 892.89 766.61 895.79 772.99 900.00 778.53 L 900.00 779.00 L 541.99 779.00 C 556.58 773.39 571.07 767.38 584.71 759.68 C 643.40 727.45 689.60 673.18 711.71 609.95 Z" />
<path d=" M 227.38 495.12 C 242.12 496.95 256.85 498.90 271.59 500.73 C 268.42 532.57 273.51 565.28 286.75 594.45 C 273.48 601.09 259.88 607.07 246.62 613.74 C 229.34 577.03 223.11 535.38 227.38 495.12 Z" />
<path d=" M 631.99 576.08 C 635.69 563.53 638.73 550.72 639.83 537.64 C 650.13 538.35 660.41 539.24 670.72 539.81 C 669.67 553.07 667.02 566.18 663.37 578.96 C 662.58 581.30 662.24 583.87 660.95 586.00 C 651.18 583.07 641.67 579.30 631.99 576.08 Z" />
<path d=" M 534.12 569.08 C 537.16 564.05 540.02 558.88 542.05 553.35 C 553.05 556.51 563.79 560.56 574.73 563.95 C 571.62 572.76 567.16 581.04 562.10 588.87 C 552.76 582.30 543.46 575.66 534.12 569.08 Z" />
<path d=" M 405.83 581.11 C 410.53 575.76 415.51 570.68 420.18 565.32 C 431.87 573.73 446.44 578.44 460.89 576.95 C 466.48 576.46 471.96 575.12 477.22 573.15 C 480.45 579.55 483.55 586.02 486.84 592.41 C 460.51 603.87 427.95 599.50 405.83 581.11 Z" />
<path d=" M 628.69 585.06 C 638.46 588.28 648.10 591.88 657.86 595.14 C 652.67 609.81 645.20 623.59 636.91 636.74 C 628.21 631.13 619.73 625.17 611.18 619.33 C 618.25 608.59 624.03 597.03 628.69 585.06 Z" />
<path d=" M 250.50 622.42 C 263.84 615.79 277.40 609.61 290.82 603.15 C 297.04 614.85 304.17 626.12 312.74 636.24 C 303.21 644.54 293.57 652.72 284.01 660.99 C 282.21 662.16 280.72 664.91 278.45 664.72 C 267.45 651.83 258.39 637.38 250.50 622.42 Z" />
<path d=" M 327.36 632.53 C 335.16 625.83 343.15 619.35 351.06 612.78 C 357.38 619.31 363.98 625.59 371.26 631.05 C 365.75 639.65 359.48 647.74 353.81 656.23 C 343.82 649.82 335.43 641.17 327.36 632.53 Z" />
<path d=" M 578.82 657.01 C 588.79 648.01 597.93 638.08 605.84 627.22 C 614.25 632.95 622.61 638.76 631.12 644.36 C 629.69 647.60 627.20 650.18 625.08 652.97 C 617.16 663.00 608.25 672.20 598.76 680.75 C 592.10 672.85 585.22 665.12 578.82 657.01 Z" />
<path d=" M 361.37 661.96 C 367.22 653.53 373.20 645.19 379.07 636.77 C 386.52 640.94 393.85 645.43 401.88 648.45 C 398.61 658.26 394.60 667.82 391.07 677.54 C 380.69 673.32 370.76 668.05 361.37 661.96 Z" />
<path d=" M 285.15 672.73 C 296.21 662.75 307.74 653.30 318.94 643.47 C 337.34 663.62 360.27 679.62 385.54 689.95 C 380.19 703.84 375.08 717.84 369.44 731.62 C 337.47 718.47 308.44 698.29 285.15 672.73 Z" />
<path d=" M 537.51 684.81 C 549.45 678.77 560.94 671.73 571.30 663.23 C 578.06 671.03 584.80 678.87 591.28 686.90 C 578.78 697.08 565.01 705.64 550.59 712.82 C 546.09 703.54 541.98 694.09 537.51 684.81 Z" />
<path d=" M 491.66 700.25 C 504.48 697.78 516.86 693.62 529.00 688.89 C 533.13 698.29 537.87 707.44 541.70 716.97 C 527.21 722.92 512.25 727.85 496.81 730.64 C 495.16 720.49 493.37 710.38 491.66 700.25 Z" />
<path d=" M 438.73 703.18 C 453.24 703.94 467.80 703.87 482.23 701.94 C 484.13 712.03 485.68 722.18 487.49 732.29 C 470.21 734.71 452.63 735.33 435.26 733.57 C 436.30 723.43 437.79 713.33 438.73 703.18 Z" />
</svg>
