<svg width="900pt" height="884pt" viewBox="0 0 900 884" version="1.1" xmlns="http://www.w3.org/2000/svg">
<path d=" M 294.57 0.00 L 295.79 0.00 C 286.05 7.80 277.87 17.35 270.11 27.07 C 249.91 52.95 233.14 81.53 220.51 111.84 C 207.89 142.49 199.47 175.64 201.69 208.99 C 204.28 240.64 215.42 270.98 230.00 298.97 C 252.70 342.00 284.20 380.01 320.45 412.29 C 325.44 384.49 333.77 356.89 348.80 332.78 C 362.68 310.00 382.42 291.13 405.02 277.10 C 420.93 266.85 438.33 259.28 454.79 250.00 C 462.59 245.33 471.07 240.04 474.59 231.20 C 478.00 222.23 474.15 211.90 467.24 205.70 C 460.45 199.55 450.92 197.56 442.00 197.65 C 429.16 198.00 416.95 202.80 405.64 208.54 C 394.67 214.04 384.40 220.80 373.66 226.70 C 369.52 228.76 365.07 231.47 360.27 230.62 C 357.17 229.83 357.85 225.84 358.46 223.51 C 361.64 212.16 367.70 201.90 371.86 190.93 C 372.42 189.11 373.19 187.14 372.61 185.24 C 371.35 184.24 369.61 184.33 368.10 184.17 C 359.62 183.89 351.23 185.54 342.97 187.28 C 335.60 188.91 328.26 190.82 321.32 193.83 C 320.32 183.29 319.51 172.10 323.87 162.15 C 328.26 152.09 337.09 144.87 346.24 139.25 C 372.22 123.94 401.75 116.43 430.49 108.19 C 430.16 105.01 429.65 101.86 429.26 98.70 C 434.48 97.79 439.78 97.48 445.06 97.12 C 474.24 94.87 503.76 93.57 532.24 86.31 C 531.78 89.19 531.24 92.14 529.69 94.67 C 524.83 102.92 517.62 109.47 512.54 117.56 C 511.31 119.78 509.78 122.40 510.75 124.99 C 512.92 127.48 516.45 127.73 519.49 128.25 C 525.73 128.90 531.98 129.53 538.09 131.05 C 536.14 138.13 530.12 143.49 529.16 150.90 C 528.28 156.12 532.31 160.11 534.84 164.18 C 548.90 184.09 552.38 209.45 550.98 233.27 C 549.41 253.92 542.50 273.70 534.20 292.53 C 526.77 309.51 517.82 325.79 510.54 342.84 C 507.30 350.87 503.96 359.22 504.14 368.03 C 504.30 374.99 506.12 381.77 507.88 388.47 C 510.30 396.65 513.01 404.97 517.93 412.04 C 520.03 414.88 523.08 418.09 526.99 417.35 C 532.68 416.55 538.08 414.41 543.44 412.44 C 569.68 401.97 593.92 386.80 615.60 368.75 C 642.75 346.01 665.46 317.61 679.93 285.17 C 688.65 265.79 694.33 245.08 696.98 224.01 C 699.56 203.12 699.62 181.77 695.43 161.07 C 688.89 127.72 675.24 95.91 656.66 67.52 C 639.37 41.30 617.33 17.81 590.59 1.09 C 630.44 4.09 669.44 16.41 704.39 35.69 C 759.91 66.27 804.58 114.12 836.58 168.42 C 876.53 236.33 898.08 314.69 900.00 393.37 L 900.00 408.55 C 898.59 438.70 893.01 468.48 886.25 497.83 C 878.78 529.68 869.62 561.13 859.01 592.07 C 850.62 616.32 841.57 640.40 830.24 663.45 C 825.19 672.99 820.48 683.25 812.09 690.37 C 815.89 677.10 819.62 663.78 821.71 650.11 C 825.19 629.60 826.12 608.77 825.87 588.00 C 825.59 567.34 826.37 546.67 825.25 526.03 C 824.36 516.01 823.76 505.65 819.65 496.32 C 818.10 492.64 814.41 488.91 810.06 490.47 C 804.90 492.61 802.26 498.02 799.64 502.62 C 788.56 524.42 782.55 548.65 769.29 569.38 C 764.07 577.48 756.04 585.69 745.51 584.58 C 745.59 567.47 743.37 549.19 732.97 535.01 C 725.60 524.79 713.42 518.85 701.00 517.85 C 707.21 532.10 709.55 547.63 711.05 562.98 C 712.47 580.28 712.96 597.75 710.70 615.01 C 707.01 645.28 694.66 673.87 678.41 699.45 C 662.33 724.86 642.95 747.99 622.77 770.22 C 620.73 754.15 620.40 737.91 618.03 721.87 C 615.85 707.24 613.23 692.21 605.95 679.13 C 601.94 671.83 594.82 665.22 586.01 665.35 C 583.85 665.59 579.91 664.70 579.76 667.89 C 578.19 677.21 577.27 686.63 575.99 696.00 C 571.10 734.21 564.61 772.94 548.03 808.04 C 536.57 832.45 519.07 854.81 495.30 868.20 C 475.71 879.35 452.92 884.03 430.52 883.92 C 432.02 867.62 434.13 851.36 434.41 834.98 C 434.69 815.93 432.91 796.50 426.07 778.60 C 424.20 791.73 421.64 804.80 417.63 817.46 C 413.71 829.77 408.14 841.77 399.69 851.65 C 392.96 859.71 384.39 865.93 377.10 873.45 C 368.93 868.57 359.42 866.79 350.23 864.81 C 363.25 843.77 374.91 820.94 377.82 796.05 C 379.49 784.88 375.96 773.87 372.53 763.38 C 366.01 744.52 357.61 726.34 348.00 708.87 C 341.14 696.99 334.33 684.65 324.08 675.30 C 320.59 687.72 318.97 700.63 314.53 712.80 C 308.26 731.26 298.33 748.27 286.78 763.91 C 279.91 757.44 276.56 748.36 273.11 739.81 C 265.58 719.80 260.29 699.05 253.36 678.83 C 251.46 673.53 249.58 668.15 246.69 663.29 C 244.62 659.60 240.49 658.02 237.10 655.86 C 222.92 647.19 209.64 636.89 198.42 624.59 C 185.36 610.56 175.58 593.57 169.74 575.34 C 167.65 569.29 166.33 563.00 164.08 557.01 C 163.15 554.89 161.90 551.72 159.01 552.34 C 150.42 552.83 143.69 559.18 138.62 565.58 C 129.96 577.14 124.85 591.49 124.66 605.96 C 125.41 617.08 129.49 627.65 133.22 638.07 C 145.01 668.58 161.00 697.67 181.93 722.89 C 172.50 718.86 163.80 713.34 155.39 707.51 C 130.20 689.87 107.78 668.41 88.29 644.66 C 65.11 616.44 46.16 584.77 32.08 551.08 C 14.26 508.55 4.23 462.92 1.24 416.95 C -0.94 389.27 0.02 361.39 3.60 333.86 C 9.48 287.81 21.70 242.43 41.17 200.23 C 64.48 149.48 99.18 103.60 143.53 69.41 C 184.40 37.47 232.71 15.85 282.89 3.32 C 286.84 2.44 290.79 1.48 294.57 0.00 M 424.44 135.64 C 421.76 136.58 418.76 138.82 419.18 142.01 C 419.28 144.25 421.21 145.86 423.06 146.84 C 427.79 149.19 434.15 148.83 438.12 145.14 C 440.27 143.33 440.26 139.69 438.10 137.90 C 434.49 134.60 428.94 134.01 424.44 135.64 M 112.28 197.28 C 100.67 211.09 90.84 226.31 81.68 241.82 C 77.77 248.73 73.68 255.62 71.11 263.17 C 75.73 261.41 79.81 258.56 83.96 255.93 C 96.27 247.88 108.33 239.42 121.05 232.03 C 130.60 226.53 140.50 221.28 151.31 218.77 C 148.41 216.01 145.19 213.54 142.70 210.37 C 136.37 202.63 132.62 193.25 127.13 184.96 C 120.91 187.25 116.50 192.43 112.28 197.28 M 636.63 415.61 C 636.46 423.74 637.64 431.85 636.88 439.97 C 636.51 452.42 633.71 464.87 628.05 476.01 C 620.41 491.25 608.97 504.18 596.88 516.05 C 605.32 529.61 611.09 544.66 614.89 560.14 C 620.13 581.31 623.54 602.87 628.17 624.18 C 636.19 615.44 640.30 603.98 644.43 593.06 C 652.00 571.28 656.96 548.66 660.41 525.88 C 661.79 515.37 663.49 504.68 661.86 494.09 C 659.29 475.01 655.35 456.03 649.09 437.80 C 646.11 429.86 642.99 421.52 636.63 415.61 M 305.27 494.28 C 298.70 498.15 293.31 503.63 287.72 508.73 C 274.29 521.45 262.05 535.34 248.94 548.37 C 254.72 560.02 260.67 571.58 266.87 583.00 C 274.99 597.42 283.08 612.18 294.62 624.21 C 290.51 602.75 291.39 580.79 291.53 559.05 C 292.83 536.12 299.90 513.81 309.81 493.20 C 308.26 493.38 306.61 493.36 305.27 494.28 Z" />
<path d=" M 423.52 5.27 C 423.74 5.27 424.18 5.26 424.41 5.26 C 429.63 13.14 434.27 21.39 439.61 29.20 C 442.52 29.16 445.43 29.15 448.35 29.18 C 453.93 21.17 458.61 12.56 464.38 4.68 C 468.48 11.91 472.54 19.17 476.59 26.42 C 477.37 27.62 478.07 29.53 479.91 29.14 C 492.10 29.22 504.29 29.09 516.48 29.19 C 508.00 41.29 499.51 53.38 491.15 65.56 C 458.18 65.71 425.21 65.61 392.24 65.61 C 385.12 53.47 377.96 41.35 370.85 29.20 C 382.94 29.08 395.03 29.23 407.12 29.14 C 408.51 29.37 409.66 28.60 410.22 27.36 C 414.68 20.02 418.94 12.54 423.52 5.27 Z" />
<path d=" M 736.92 640.95 C 747.04 634.76 756.97 628.20 767.52 622.75 C 768.77 630.17 767.86 637.69 767.15 645.11 C 764.69 664.18 759.65 683.23 750.06 700.02 C 742.99 712.39 732.01 723.65 717.62 726.69 C 721.84 699.70 728.15 673.10 734.18 646.48 C 734.75 644.50 734.76 641.93 736.92 640.95 Z" />
<path d=" M 238.63 730.66 C 244.03 729.60 249.54 731.68 253.19 735.73 C 261.20 744.24 264.64 755.92 266.89 767.13 C 270.34 786.04 269.37 805.56 265.67 824.36 C 258.02 818.33 253.29 809.56 246.71 802.50 C 240.56 795.22 232.38 789.65 223.06 787.39 C 227.94 783.42 230.99 777.74 233.08 771.91 C 237.87 758.75 239.06 744.57 238.63 730.66 Z" />
</svg>
