<?xml version="1.0" encoding="UTF-8" standalone="no"?>
<svg xmlns="http://www.w3.org/2000/svg" width="186.39734pt" height="187.16968pt" viewBox="0 0 248.52978 249.55958" version="1.1" id="svg22">
   <path d="m 85.500001,0 c 0.609998,6.5 1.930373,12.899434 2.380373,19.419434 0.309997,4.36 0.549412,8.740098 0.899415,13.100098 3.129997,-2.18 6.079785,-4.589687 9.27978,-6.679688 3.990001,-2.61 8.550691,-4.119629 12.950681,-5.869629 -3.75999,-6.66 -9.66966,-11.7507422 -15.909664,-16.0107423 C 92.230584,1.9394727 88.869999,0.84000001 85.500001,0 Z m 77.359859,0 c -3.34999,0.87000001 -6.71008,1.9606836 -9.58007,3.9506836 -6.23,4.2200002 -11.99018,9.3798644 -15.93018,15.8598634 4.37,1.77 8.91025,3.30961 12.76025,6.09961 3.27,2.37 6.45074,4.869805 10.01075,6.799804 0.18,-6 0.0496,-12.019746 0.78955,-17.989746 C 161.52016,9.8102153 162.41987,4.93 162.85986,0 Z m 45.55079,9.8994143 c -3.78,4.9500007 -6.72039,10.5602537 -11.15039,15.0102547 -4.86,5.16 -10.91991,9.18043 -17.64991,11.440429 -4.80999,1.800001 -9.98101,2.109278 -15.04101,2.509278 4.14999,6.31 8.52054,12.619903 10.81054,19.899902 1.17,2.85 1.48961,6.281192 3.84962,8.471192 2.11999,-3.04 3.74095,-6.400352 5.98095,-9.360352 4.03,-5.41 9.66965,-9.730723 16.13965,-11.740723 6.5,-1.99 13.61043,-0.879082 19.69043,1.940918 6.69,3.21 12.17951,8.399454 16.99951,13.939454 3.81,4.319999 6.34975,9.619922 10.48975,13.669922 -1.38,-12.710001 -7.50912,-24.299063 -14.09912,-35.039063 -4.9,-8.22 -11.39114,-15.290176 -17.41113,-22.680176 -2.51,-3.05 -5.55889,-5.581036 -8.60889,-8.0610357 z M 40.309571,9.9301718 C 33.829571,13.670172 29.659922,20.02986 24.919922,25.60986 15.069922,37.45986 6.7994532,50.820485 1.9394532,65.500485 0.95945311,68.470489 0.41,71.559903 0,74.649904 4.5000001,70.719903 7.2695509,65.320685 11.289551,60.950685 c 5.07,-5.66 10.901016,-10.960547 18.041016,-13.810547 6.69,-2.7 14.508848,-2.809454 21.068848,0.310546 8.26,3.84 14.340644,11.208731 17.910644,19.448731 0.46,0.04 1.400606,0.110625 1.870606,0.140625 1.37,-4.31 2.689433,-8.640312 4.419434,-12.820312 2.190002,-5.470001 6.049645,-10.009532 8.63965,-15.269532 -6.45,-0.55 -13.059924,-1.229961 -18.919924,-4.209961 -10.73,-5.05 -17.960254,-14.980059 -24.010254,-24.8100594 z M 124.04883,36.643067 c -0.65846,-0.0147 -1.31838,-0.0087 -1.979,0.01758 -9.79001,0.470001 -19.0691,5.288809 -25.579104,12.52881 -11.34,12.319999 -15.870217,29.920837 -13.97022,46.360837 0.950003,10.599996 5.40969,20.680026 11.929688,29.020026 4.690005,6.15999 11.339126,10.69027 18.599126,13.28027 9.9,3.37 21.19047,1.52885 29.73047,-4.43115 13.54999,-9.39 21.45056,-25.74936 21.83056,-42.089359 1.09,-15.310005 -3.88998,-31.210214 -14.47998,-42.470215 -6.65625,-7.2375 -16.20465,-11.996264 -26.08154,-12.216797 z m 55.13086,34.967286 c 1.36,8.660003 2.0005,17.409691 1.5205,26.179689 4.34001,0.42 8.81981,0.79926 12.79981,2.739258 5.83,2.82 10.4895,7.60127 14.2295,12.80127 6.19999,8.89 8.76121,19.73939 9.74121,30.3794 0.6,6.05 -0.46035,12.08941 -0.36035,18.14941 3.78999,-3.76 4.51005,-9.22008 6.06006,-14.08008 3.81,-12.55999 6.03968,-25.54959 7.42968,-38.57959 0.3,-3.34 1.07061,-6.73933 0.37061,-10.069336 C 229.1907,97.920369 227.05,97.449924 225,96.919922 214.46001,94.559927 203.93059,91.230721 194.85059,85.240726 c -5.89,-3.760005 -9.9109,-9.700372 -15.6709,-13.630373 z M 68.639649,72.020509 c -4.549999,3.509997 -8.239102,7.978962 -12.829102,11.438967 -5.74,4.41 -12.38996,7.480568 -19.209961,9.830565 -6.439999,2.229998 -13.181133,3.379726 -19.661132,5.469728 0.889999,19.310001 4.63121,38.430081 10.491211,56.830081 0.729999,2.42 2.228906,4.49086 3.878906,6.38086 0.28,-6.71 -0.919219,-13.41084 -0.199219,-20.11084 0.61,-5.84 1.709883,-11.66975 3.629882,-17.23975 2.820001,-8.3 8.369611,-15.5098 15.09961,-21.0498 5.120001,-4.220008 11.860548,-5.440161 18.310548,-5.660158 -1.210001,-8.630003 0.08926,-17.269651 0.489257,-25.889653 z m 54.490721,6.981447 c 8.86828,-0.111562 17.79698,2.80605 24.95947,8.01855 2.83001,2.180003 5.85059,4.779473 6.60059,8.459476 0.41,2.91 -1.79096,5.290158 -3.73095,7.160158 -10.45001,9.38 -25.83903,12.48984 -39.24903,8.58984 -5.17,-1.59999 -9.95115,-4.32992 -14.181154,-7.66992 -2.169997,-1.84 -4.448902,-3.870133 -5.378902,-6.640138 -0.550005,-1.689998 0.639097,-3.240255 1.579102,-4.510253 5.149995,-6.39 12.800604,-10.219275 20.620604,-12.259275 2.875,-0.737505 5.82418,-1.111253 8.78027,-1.148438 z m 0.78369,7.26855 c -1.27939,-0.03968 -2.56494,0.118718 -3.78369,0.45996 -2.57,0.830003 -4.88,2.68944 -6,5.169435 -1.2,3.280006 -0.25021,7.330021 2.52979,9.520019 4.76,4.07001 13.44933,2.80938 16.06934,-3.140623 1.74,-3.469995 0.26017,-7.909846 -2.81983,-10.089841 -1.75,-1.2375 -3.86328,-1.852837 -5.99561,-1.91895 z M 71.629395,117.14063 c -0.919999,2.78 -1.659687,5.6398 -2.929687,8.29981 -1.56,3.22999 -4.340352,5.62908 -7.110351,7.80908 -3.81,2.93 -7.789708,5.62992 -11.699708,8.41992 2.78,9.4 6.730352,18.39008 10.110352,27.58008 4.37,9.98 8.510683,20.0705 12.950683,30.02051 6.930002,13.77 13.719632,27.67949 22.36963,40.47949 2.289997,3.63 4.949296,7.06006 8.279296,9.81005 -1.47,-6.10999 -4.379064,-11.70958 -6.539064,-17.57958 -3.319995,-8.86 -6.720622,-17.71963 -9.140625,-26.86963 -3.679995,-14.34 -5.799802,-29.03069 -7.5498,-43.70069 -0.520005,-5.03 -1.28004,-10.06011 -1.04004,-15.12012 0.06997,-3.45 2.540138,-6.09001 4.390133,-8.77001 -2.599995,-3.52 -5.23035,-7.05881 -7.110353,-11.02881 -1.509997,-3.2 -3.030466,-6.4001 -4.980466,-9.3501 z m 104.641115,0 c -2.19,3.87 -3.83014,8.01898 -5.89014,11.95898 -1.6,3.15 -4.2799,5.51102 -6.3999,8.29102 1.43,2.18 3.40955,3.98914 4.53955,6.36914 0.84,2.43 0.58951,5.06082 0.49952,7.59082 -1.44,16.95 -3.89999,33.82967 -7.72999,50.40967 -2.33,9.85 -5.8899,19.34934 -9.3999,28.81933 -2.1,5.69001 -4.92986,11.1311 -6.10986,17.1211 2.04,-1.66 4.02055,-3.45061 5.56054,-5.6206 15.96,-23.23001 27.37953,-49.16049 37.76953,-75.2505 3.29001,-8.34 6.82007,-16.62007 9.06006,-25.33007 -5.65999,-4.17 -12,-7.64016 -16.5,-13.16016 -2.71,-3.23 -3.92941,-7.32873 -5.39941,-11.19873 z"/>
</svg>
