<?xml version="1.0" encoding="UTF-8" standalone="no"?>
<svg xmlns="http://www.w3.org/2000/svg" width="289.35294pt" height="289.89999pt" viewBox="0 0 289.35294 289.89999" version="1.1">
  <path d="m 105.52,0 c 4.47,2.26 9.58,4.3 12.22,8.84 1.58,2.72 3.7,5.02 6.13,6.98 3.29,-2.16 7.3,-3.3 9.95,-6.35 1.78,-1.91 3.92,-3.42 5.99,-5 1.74,1.86 4.44,1.21 6.68,1.78 0.37,0.55 1.1,1.64 1.47,2.19 0.94,-1.13 1.88,-2.27 2.82,-3.4 1.93,0.37 3.99,0.34 5.79,1.23 1.94,0.77 3.58,2.74 5.86,1.97 0.69,0.97 1.36,1.96 2.03,2.96 0.44,-0.23 1.33,-0.7 1.78,-0.93 0.18,2.62 0.23,5.24 0.39,7.86 5.79,0.31 11.81,-1.63 17.39,0.73 2.73,1.21 5.7,1.62 8.62,2.11 4.31,0.69 7.86,3.46 11.9,4.91 2.46,0.87 4.92,1.73 7.3,2.81 4.08,2 9.1,1.33 12.79,4.24 4.4,3.29 9.99,4 14.85,6.35 2.39,1.14 5.18,1.21 7.47,2.61 3.65,2.24 6.97,5 10.76,7.02 4.62,2.54 8.73,5.84 12.75,9.21 5.14,3.75 10.02,8 13.64,13.28 1.22,2.57 2.46,5.14 3.48,7.8 1.52,3.89 0.52,8.14 1.19,12.17 0.41,2.55 0.61,5.13 0.58,7.71 -0.28,-0.39 -0.83,-1.19 -1.11,-1.59 -1.01,1.67 -2.13,3.29 -3.58,4.61 -0.28,3.25 -0.25,6.52 0.19,9.75 -2.29,-1.81 -4.68,-3.65 -7.65,-4.12 -0.06,0.85 -0.19,2.55 -0.25,3.4 -1.2,-0.44 -2.39,-0.88 -3.59,-1.31 0.79,1.4 1.35,2.91 1.91,4.42 -2.65,-0.12 -5.96,-2.1 -8.16,0.13 -1.65,-0.1 -3.29,-0.22 -4.93,-0.32 0.41,0.44 1.21,1.33 1.61,1.77 -1.33,0.91 -2.67,1.81 -3.92,2.83 -4.45,0.71 -8.12,-2.06 -11.82,-4.03 -4.84,-2.7 -8.69,-6.98 -13.95,-8.97 -6.05,-1.97 -11.34,-5.73 -15.95,-10.04 -3.02,-3.38 -6.44,-6.61 -10.74,-8.25 -3.33,-1.26 -6.62,-3.22 -10.31,-2.75 -1.42,-0.67 -2.83,-1.36 -4.25,-2.04 -7.13,0.85 -12.53,-4.83 -18.56,-7.59 0.17,3.74 1.43,7.27 2.06,10.93 1.04,4.04 1.44,8.28 3.28,12.08 1.45,3.25 1.5,6.86 2.31,10.28 0.58,2.96 1.84,5.78 2.03,8.81 0.3,3.88 0.89,7.74 1.95,11.49 1.11,3.7 3.32,6.95 4.56,10.59 2.53,9.47 2.53,19.35 4,29 0.45,5.37 2.93,10.47 2.53,15.95 -0.06,7.5 -3.23,14.41 -5.57,21.39 l 2.1,-0.16 c -2.09,3.4 -4.47,6.67 -7.58,9.22 2.68,2.52 6.1,3.93 9.52,5.14 -0.53,0.24 -1.58,0.72 -2.11,0.96 2.68,0.55 5.33,1.46 8.1,1.45 5.22,0.1 10.52,1.23 15.7,0.14 2.49,-0.93 5.06,-1.61 7.7,-1.92 3.75,-0.52 7.03,-2.47 10.16,-4.47 2.36,-1.57 5.2,-2.14 7.67,-3.49 2.35,-1.68 4.15,-4 6.43,-5.77 -1.07,2.22 -2.48,4.28 -4.1,6.14 -2.78,3.19 -5.33,6.73 -9.07,8.89 -4.5,3.16 -10.03,4.29 -14.61,7.31 -1.81,1.18 -3.38,2.67 -5.02,4.08 -0.24,-0.47 -0.72,-1.41 -0.96,-1.88 -3.25,2.45 -7.22,4.8 -7.94,9.2 -2.03,1.85 -4.06,3.9 -6.81,4.6 -2.92,0.86 -5.29,2.85 -8.07,4.01 -4.4,1.87 -8.64,4.12 -12.99,6.11 0.42,0.04 1.26,0.12 1.68,0.15 -3.97,2.99 -6.72,7.17 -9.97,10.85 -3.23,-1.1 -7.18,-1.14 -9.53,-3.93 -2.68,-2.66 -5.14,-5.52 -7.41,-8.52 0.59,5.82 1.49,11.96 4.85,16.9 2.19,3.49 3.75,7.34 6.1,10.74 1.9,2.52 2.02,5.78 3.11,8.65 -6.16,-1.92 -9.68,-7.61 -13.18,-12.6 -3.43,-4.45 -6.67,-9.26 -11.45,-12.39 -3.96,-2.71 -6.7,-6.72 -10.07,-10.06 -2.77,1.6 -5.84,2.63 -9.08,2.31 -0.07,-1.43 -0.11,-2.85 -0.11,-4.27 -0.94,0.68 -1.94,1.25 -2.99,1.73 -2.68,-0.48 -5.27,-1.5 -8.03,-1.47 -3.86,0.05 -7.57,-1.18 -10.94,-2.98 -3.56,-1.82 -7.53,-2.53 -11.45,-3.09 -0.08,-3.31 -3.34,-5.03 -5.15,-7.4 -2.52,-3.22 -5.78,-5.69 -8.91,-8.26 -7.35,-6.65 -16.4,-11.06 -23.56,-17.95 0.48,-0.11 1.43,-0.34 1.9,-0.45 -2.86,-3.94 -5.99,-7.74 -8.05,-12.19 3.29,2.18 6.11,4.95 9.19,7.4 5,3.77 10.47,6.85 15.85,10.03 3.7,1.91 7.35,4.07 11.46,4.98 0.13,-0.82 0.37,-2.45 0.49,-3.26 5.07,1.75 10.63,3.07 15.92,1.5 2.73,0.93 5.64,1.63 8.51,0.79 0.02,-0.53 0.06,-1.59 0.09,-2.12 -2.36,-5.15 -7.49,-8.29 -9.85,-13.41 -2.2,-4.25 -5.29,-7.94 -7.66,-12.09 0.98,-0.04 2.94,-0.11 3.92,-0.15 -0.69,-4.49 -0.7,-9.08 -1.87,-13.5 -2.68,-15.78 -4.04,-31.97 -1.88,-47.89 0.64,-6.26 1.07,-12.54 1.28,-18.83 -0.58,0.26 -1.74,0.78 -2.32,1.04 3.49,-9.6 2.89,-19.98 5.61,-29.75 1.07,-3.16 2.18,-6.31 2.87,-9.58 -5.26,1.43 -10.89,1.04 -16.01,2.95 -0.34,-0.24 -1.01,-0.73 -1.35,-0.97 -2.07,0.59 -4.39,0.79 -6.1,2.26 -3.17,2.67 -6.42,5.25 -9.56,7.97 0.23,-1.02 0.69,-3.04 0.91,-4.05 l -1.94,0.02 c 0.02,-0.45 0.07,-1.36 0.09,-1.82 -4.03,1.13 -8.34,1.38 -12.13,3.27 -3.16,1.54 -5.73,3.98 -8.58,5.99 0.01,-0.69 0.04,-2.05 0.05,-2.74 -3.29,1.99 -6.23,4.47 -9.13,6.97 -1.65,0.92 -3.52,1.44 -4.98,2.71 l 1.04,-2.91 c -3.68,2.14 -6.9,5.03 -10.86,6.66 -1.83,1.23 -2.49,-1.51 -3.31,-2.5 -0.65,0.03 -1.95,0.11 -2.6,0.15 l 0.78,-2.29 c -3.08,1.88 -5.66,4.41 -8.42,6.7 2.49,-3.29 5.36,-6.26 7.98,-9.45 -3.32,1.95 -6.53,4.16 -10.12,5.59 -1.48,1.49 -2.95,2.98 -4.47,4.43 1.27,-3.22 2.81,-6.36 5.01,-9.05 0.67,-1.04 1.91,-1.37 3,-1.77 1.46,-1.82 2.87,-3.69 4.23,-5.59 C 10.58,89.66 8.79,91.05 6.6,91.53 4,91.98 2.1,93.87 0,95.3 3.9,88.82 9.29,83.43 14.98,78.52 c 5.49,-3.06 9.72,-7.76 14.58,-11.65 0.62,0.07 1.85,0.2 2.47,0.26 1.73,-2.42 3.47,-4.83 5.27,-7.2 -4.33,1.57 -8.8,2.85 -12.83,5.11 -2.86,1.75 -5.14,4.26 -7.79,6.28 2.5,-5.17 6.91,-9.05 11.35,-12.54 3.8,-2.88 7.03,-6.43 10.9,-9.22 4.69,-3.34 8.99,-7.46 14.66,-9.07 3.56,-2.71 7.63,-4.74 11.93,-5.98 4.19,-1.06 7.28,-4.25 10.44,-6.99 1.42,-1.13 2.38,-2.66 3.2,-4.25 6.17,-0.88 12.49,-1.25 18.42,-3.27 2.5,-0.83 5.12,-1.13 7.69,-1.68 3.01,-2.95 7.54,-1.98 11.36,-2.3 -1.14,-3.3 -2.4,-6.65 -4.66,-9.37 C 109.95,4.31 107.7,2.19 105.52,0 m 37.56,98.23 c -1.18,4.49 -0.96,9.18 -1.95,13.7 -1.02,3.77 -2.58,7.38 -3.53,11.17 -1.17,4.6 -1.56,9.35 -1.66,14.08 -0.29,4.04 -1.31,7.97 -2.16,11.92 0.61,-0.21 1.84,-0.62 2.45,-0.83 -0.66,6.93 -1.41,13.88 -1.23,20.86 0.12,5.37 -0.4,10.81 0.72,16.11 1.15,5.92 2.44,11.83 4.27,17.58 l 0.76,-0.29 c 0.89,3.5 2.68,6.68 3.57,10.18 3.5,-6.31 6.76,-12.83 8.98,-19.72 2.16,-9.86 5.39,-19.66 5.19,-29.87 -0.13,-4.48 0.42,-9.05 -0.67,-13.45 -1.5,-10.09 -0.44,-20.32 -0.91,-30.47 -0.87,-5.98 -1.45,-12.02 -1.44,-18.08 0.09,-3.1 -1.28,-5.94 -1.94,-8.91 -0.67,-2.8 -1.62,-5.53 -2.82,-8.14 -2.17,4.94 -6.81,8.64 -7.63,14.16 z"/>
</svg>
