<?xml version="1.0" encoding="UTF-8" standalone="no"?>
<svg xmlns="http://www.w3.org/2000/svg" width="957.62994pt" height="797.82129pt" viewBox="0 0 957.62994 797.82129" version="1.1">
  <path d="m 341.98975,0 c -3.06,2.9000025 -7.40969,2.8909725 -11.17969,4.2509776 -4.1,1.32 -8.58025,2.4695475 -12.76025,0.7895475 -3.66,4.540005 -10.57932,2.140335 -14.79932,5.8403329 1.65,0.940005 3.32926,1.840275 4.98926,2.780272 -3.7,2.470005 -8.0001,3.800003 -12.3501,4.5 0.3,0.9 0.57032,1.81926 0.82031,2.739263 -2.55999,1.969995 -5.84943,2.049802 -8.91943,2.2998 -0.4,-0.529995 -1.18031,-1.56912 -1.57031,-2.099123 -2.33,-0.889995 -3.53953,1.760183 -4.76953,3.18018 -1.24001,2.04 -3.91994,1.76994 -5.93994,2.18994 -2.09,2.150003 -3.25102,4.929105 -4.54102,7.579103 -2.01,2.619997 -5.03881,4.200585 -7.27881,6.600585 -2.3,2.450003 -5.17099,4.210298 -7.771,6.300293 -0.46999,1.47 -0.55916,3.029295 -0.88916,4.529295 -1.21,0.460005 -2.44114,0.870727 -3.68115,1.240725 0.04,-0.759998 0.13018,-2.281268 0.18018,-3.05127 -4.08,3.580005 -6.64973,8.490315 -10.71973,12.070312 -2.55,2.19 -2.89923,5.790083 -3.71924,8.83008 1.84001,-0.96 3.63953,-1.95912 5.51954,-2.849122 -0.65001,2.349997 -2.20012,4.190137 -3.87012,5.89014 -1.8,1.789995 -1.22987,4.959878 -3.10986,6.62988 -3.45,0.579998 -6.92994,1.238753 -10.43994,1.21875 -0.59001,0.549998 -1.1705,1.111133 -1.7505,1.66113 0.53001,3.18 1.14971,6.639945 -0.30029,9.689948 -1.15,0.51 -2.32881,0.949567 -3.52881,1.309567 0.15,-0.909997 0.43008,-2.740642 0.58008,-3.660645 -8.54,5.25 -11.53074,15.240099 -16.01074,23.600099 -2.75,4.54 -4.47939,9.581 -6.3794,14.521 1.22,-1.06001 2.40887,-2.15075 3.58887,-3.26075 0.36,0.32001 1.07994,0.95002 1.43994,1.27002 5.64,-5.07999 11.34012,-10.10925 17.37012,-14.73926 2.23,-1.72 3.99059,-4.0598 6.60059,-5.2998 2.55999,-1.62 5.68023,-1.67035 8.49023,-2.61035 1.31,-0.85 2.29957,-2.12006 3.55957,-3.06006 2.94,-0.900001 6.05019,-1.160956 8.9502,-2.230959 3.06,-0.979995 5.30045,-3.449977 8.21045,-4.72998 2.31,-1.069995 4.48999,-2.389057 6.75,-3.539062 0.67,1.580002 1.3195,3.150232 1.99951,4.740232 1.38,-2.709997 2.39019,-5.799877 5.2002,-7.37988 2.41999,-2.259997 5.95032,-1.17084 8.84032,-2.110837 2.69,-0.96 5.2196,-2.310473 7.8296,-3.480473 -1.35,1.690005 -2.89985,3.22002 -4.08985,5.02002 -0.96,2.34 -1.34021,4.920098 -2.72021,7.1001 -1.47,-0.440002 -2.86,-1.86912 -4.5,-1.349122 -1.23,1.629997 -2.19039,3.450157 -3.6504,4.91016 0.12,-2.04 0.24036,-4.079865 0.36036,-6.109868 -2.61,1.359998 -3.16977,4.07949 -3.50977,6.729495 -0.27,2.779994 -3.28975,3.750134 -5.23975,5.140134 0.52001,-1.4 1.0293,-2.79971 1.5293,-4.199709 -3.65,2.669999 -5.17017,7.009809 -7.68018,10.549809 -5.28999,3.69 -10.17963,8.24918 -16.36962,10.40918 -2.21001,1.33 -1.93008,4.82063 -4.33008,6.14063 -4.6,3.33999 -9.3702,6.47046 -14.2002,9.48046 -6.14,3.41 -11.46921,8.00989 -16.69922,12.62988 -0.06,-1.12 -0.16119,-3.36095 -0.22119,-4.48095 -0.84,1.41 -2.43976,2.67 -2.00976,4.5 -0.13,1.43 0.71092,3.59033 -1.05908,4.34033 -2.04,1.9 -4.80977,1.01986 -7.25977,0.85986 1.23,1.32 2.54955,2.57063 3.78955,3.89063 -0.99,0.87 -1.73051,2.12984 -3.02051,2.58984 -5.87,1.87 -9.52932,7.18971 -13.29931,11.69971 -0.10001,-1.22 -0.29991,-3.65061 -0.39991,-4.87061 -1.72,1.71 -2.81063,3.87026 -3.89063,6.01026 -2.16,3.20999 -6.33984,4.17053 -8.58984,7.29053 -2.25999,3.06 -5.19963,5.5404 -7.36962,8.6704 -2.54001,3.56001 -4.6002,7.43001 -6.7002,11.25 -1.81,3.37001 -4.96074,6.05979 -5.51074,10.02979 -3.49001,3.67001 -7.05002,7.2902 -11.02002,10.4502 -7.62,6.28 -13.62918,14.49021 -17.15918,23.72021 -1.54,3.91 -3.16033,7.89994 -5.84034,11.18994 -3.51,4.37001 -8.08035,7.95891 -10.86035,12.87891 0.02,0.82 0.0503,2.46099 0.0703,3.27099 -1.44,2.31 -2.70916,5.02942 -5.389159,6.14942 -0.93,-0.14 -2.801212,-0.44033 -3.74121,-0.59033 -1.92,1.26 -1.539457,3.58004 -1.939455,5.54004 -2.090002,2.53 -4.77,4.50965 -6.75,7.13964 -1.540005,2.18001 -3.83961,3.56112 -6.099607,4.89112 -5.290005,2.94 -8.410688,8.33966 -12.950686,12.15967 -6.020002,4.96 -9.269302,12.58976 -15.779302,17.00977 -2.589998,2.97 -7.150545,4.93944 -7.060545,9.43944 -2.25,2.33001 -4.419863,4.73026 -6.10986,7.51026 -2.800006,4.46 -7.390351,7.4407 -10.110353,11.9707 -1.05,1.7 -1.599593,3.64916 -2.579588,5.38916 -1.17,1.15 -2.97057,1.64012 -3.830572,3.12012 -1.68,3.65 0.110137,7.91055 -1.60986,11.56055 -3.729998,7.88 -7.759238,15.85937 -8.969235,24.60938 -0.880005,3.43999 -3.3699829,6.16994 -5.4799879,8.93994 1.29,-0.51 2.5996725,-1.0095 3.9096749,-1.4795 -1.2599999,3.37001 -2.1201224,6.87071 -2.3701199,10.47071 -0.2000025,2.76999 -2.070645,4.94958 -3.660645,7.07958 0.3699975,0.42 1.1199975,1.27948 1.5,1.70948 -1.1000025,2.07 -2.2494525,4.11062 -3.4394551,6.14062 -1.5999975,2.67 -1.78021499,5.86932 -2.720212500001,8.79932 C 0.73996501,440.5102 1.6109175,441.48063 2.23092,442.64063 c -0.069975,2.29 -1.10133,4.43065 -1.61132999,6.66065 0.62000249,-0.05 1.87023749,-0.15069 2.49023249,-0.20069 -0.00997,1.93 0.8498476,2.60027 2.5898476,2.03027 l 1.000485,1.4795 c 1.8500025,-0.96 3.6907429,-1.96975 5.5107449,-2.98975 0.890003,1.01 1.778948,2.03006 2.668943,3.06006 2.600002,-3.72 4.60086,-7.88008 7.880865,-11.08008 7.23,-7.08 12.699937,-15.89947 20.93994,-21.95947 3.21,-2.2 6.240075,-4.65039 9.580073,-6.65039 4.44,-2.72 7.909027,-6.68014 11.49903,-10.39014 2.569995,-2.72 5.930895,-4.61992 8.170897,-7.66992 2.439998,-3.21 5.129663,-6.27041 8.409668,-8.67041 9.66,-7.74 18.949654,-15.94961 28.889644,-23.34961 6.4,-5.3 13.73985,-9.35051 19.83984,-15.02051 6.37001,-5.92 13.37004,-11.09953 20.54004,-16.01953 4.83,0.52 8.36092,-4.19045 13.19092,-3.71045 1.44,-0.05 2.38887,-1.45963 3.58887,-2.11963 -0.05,0.5 -0.14922,1.49977 -0.19921,2.00977 2.16999,-1.61001 5.12054,-0.02 7.06054,-2.02002 4.57,-3.96 10.43867,-5.97984 14.88867,-10.08984 3.33,-2.91 7.14127,-5.29007 11.30127,-6.81006 0.23001,0.6 0.69871,1.79037 0.92871,2.38037 2.17,-1.89 4.22002,-3.92061 5.77002,-6.37061 1.12,-1.93 3.49032,-2.28024 5.32032,-3.24024 3.75999,-1.84999 6.24974,-5.3589 8.98974,-8.3789 2.45,-1.8 5.83018,-0.90063 8.43018,-2.39062 2.07,-0.97001 2.96101,-3.21999 4.54101,-4.72998 5.03001,-4.17 10.03899,-8.75037 16.45899,-10.63038 -2.44,3.01 -5.5893,5.30129 -8.2793,8.07129 2.98,-1.42 5.82004,-3.13072 8.54004,-4.99072 2.63,-1.79 4.71955,-4.26932 7.53955,-5.79932 -0.37,2.2 -0.84939,4.36887 -1.1294,6.58887 2.75001,-2.16 3.33897,-5.96976 6.18897,-8.00976 2.15,-1.74 4.03119,-4.1793 6.97119,-4.52931 4.09,-0.86999 7.66959,-3.11044 11.57959,-4.46044 -0.70999,1.65 -1.43968,3.30996 -2.17969,4.95996 0.85001,0.32 1.72011,0.60986 2.6001,0.85986 2.93001,-1.07 2.45874,-4.69049 3.69873,-7.00049 2.15001,-1.92 5.10037,-2.47898 7.63038,-3.70898 4.03999,-1.66 7.4905,-4.37047 11.2705,-6.48047 1.24,-0.93 2.5598,-0.0596 3.79981,0.36035 3.28,-1.35 6.30973,-3.5607 9.96973,-3.7207 -0.28001,1.47 -0.55962,2.95115 -0.84962,4.43115 1.21001,2.62 2.29987,5.38885 2.35987,8.31885 -0.2,2.03 -0.92948,3.94983 -1.70948,5.81982 -1.17999,3.08001 -4.57103,4.57038 -5.81103,7.63038 -1.41,3.33 -3.49984,6.28998 -5.58984,9.22998 -2.83,3.84999 -3.70035,8.66091 -4.86036,13.19091 -1.5,2.13 -3.73908,3.73897 -4.80908,6.18897 -1.02,2.25 -2.22988,4.44082 -2.87988,6.84082 0.4,1.7 1.8893,3.22027 1.5293,5.03027 -0.89001,1.48 -2.16916,2.68914 -3.13917,4.11914 0.45,1.8 1.26901,3.4802 1.97901,5.2002 -1.71,2.76 -3.7099,5.31016 -5.6499,7.91015 3.69,1.8 7.50012,4.54961 7.62012,9.09962 -1.68,1.59999 -3.74959,2.98989 -3.32959,5.6499 0.79999,0.15999 2.41998,0.48039 3.22998,0.65039 3.16999,1.99 2.97023,6.1099 3.24023,9.3999 -1.15,1.42 -2.53014,2.61959 -3.64014,4.07959 2.03,3.45 6.02975,0.27975 8.98975,0.73974 3.25,1.76001 2.60978,6.22119 0.27979,8.47119 -1.88001,1.69001 -4.1095,2.92891 -5.9795,4.62891 1.89,1.46 3.98987,2.58994 6.10987,3.68995 2.44,1.17 3.70957,3.68134 5.05957,5.88135 -2.41,-0.03 -4.82022,-0.19012 -7.22022,-0.12012 2.63,2.18 6.02082,2.96982 9.09082,4.31982 -0.6,1.49 -1.2008,2.97924 -1.8208,4.46924 0.91,2.85 2.50066,5.44072 4.93066,7.24072 1.51001,-0.46 2.97936,-1.17072 4.58936,-1.24072 2.26,0.81 4.35021,2.00037 6.47022,3.13037 2.14999,1.15 3.42025,3.33939 5.26025,4.8794 1.61,1.14999 3.57947,1.62064 5.45947,2.16064 -0.04,0.65 -0.11967,1.94984 -0.15966,2.58984 1.84999,2.36 4.56069,3.72983 7.47069,4.31983 -1.81999,-1.71 -3.90107,-3.12907 -6.10107,-4.28906 0.57,-0.46001 1.15049,-0.91008 1.75049,-1.33008 3.21,2.4 6.83049,4.30949 10.75049,5.22949 1.73,0.5 3.78945,0.64 4.93945,2.25 3.66,4.24 5.67967,9.55941 8.40967,14.39942 3.31,6.15 8.00061,11.43085 13.12061,16.13085 4.44,4.02 9.60992,7.08012 14.41992,10.62012 2.22,1.88 5.28971,1.51879 7.94971,2.25879 0.09,1.45 -0.18986,2.90109 -0.10987,4.37109 2.03,0.1 4.11012,-0.30058 6.12012,0.14942 1.81,2.16 2.88977,5.04056 5.75977,6.08056 1.69999,4.23 1.39066,9.27975 -0.31934,13.48975 -1.21,-0.82 -2.42109,-1.64043 -3.62109,-2.44043 0.15,3.76 1.46084,7.26973 2.86083,10.71973 -0.31999,1.35999 -0.81958,2.7013 -1.07958,4.09131 0.93,2.50999 3.12915,4.38902 3.88916,6.99902 0.37,1.99 0.40087,4.05031 0.15088,6.07031 -0.82,1.88 -2.35035,3.32033 -3.36036,5.09033 -0.21,2.1 0.72934,4.36908 -0.43066,6.30909 -1.31,2.70999 -2.1602,5.60049 -2.95019,8.50048 -0.79001,3.04001 -3.09885,5.29952 -4.56885,7.99952 0.51999,1.12999 1.08972,2.25035 1.71972,3.36035 -1.28,2.68 -3.29988,4.97048 -4.37988,7.75048 -0.11,1.81 0.52998,3.61992 0.22998,5.41992 -1.24,2.39001 -3.38984,4.1294 -4.83984,6.3794 -1.68,2.6 -3.04096,5.40014 -4.48096,8.14014 0.79,1.22 1.58012,2.4502 2.37012,3.70019 -3.78,2.4 -8.70957,2.89934 -11.80957,6.31934 0.79,1.42 1.84027,2.65024 2.78027,3.99024 -1.63,1.87 -3.49021,3.5608 -4.97022,5.5708 -1.45999,2.07 -1.50978,4.91904 -3.27978,6.76904 -2.75,1.88 -6.07115,2.66084 -8.93116,4.36084 4.17,0.17 8.27017,-0.65992 12.41017,-0.91992 -0.24,1.35999 -0.47949,2.73035 -0.7295,4.11035 1.56,-0.41 3.13069,-0.81067 4.70069,-1.18067 -0.20001,-0.5 -0.62031,-1.49951 -0.82032,-1.9995 4.3,-1.02 8.63973,-1.90104 12.96973,-2.81104 3.93,-0.83 6.8294,-4.21942 10.8794,-4.64942 2.20999,-0.39 4.38046,0.40928 6.48046,1.00928 6.35,-1.22 8.73053,-8.02895 14.04053,-10.91894 7.16,-4.03 14.76971,-7.17993 22.19971,-10.66992 2.52,-1.12001 3.66,-3.73028 5.25,-5.78028 2.2,-1.56 4.85914,-2.31981 7.11914,-3.7998 3.26,-2.30001 3.90024,-6.69993 6.99024,-9.16993 2.31,-2.1 5.1806,-5.47072 8.6206,-3.49072 1.03,1.53 0.79976,3.56031 1.25976,5.32031 4.85,-2.55 8.72033,-6.49932 12.59033,-10.29931 3.50001,-3.50001 6.97926,-7.02049 10.23927,-10.7505 2.16999,-2.40999 4.35982,-4.9504 7.31982,-6.4204 1.68,-1.02 3.69009,-1.73016 4.8501,-3.41016 0.66,-1.89 0.46047,-3.98008 1.23046,-5.83008 1.25,-1.8 3.18016,-2.91971 4.91016,-4.19971 6.42,-4.33999 9.39055,-12.21001 16.06055,-16.27001 0.09,1.36 0.23996,2.71959 0.45996,4.07959 1.71,1.46 3.72992,2.54105 5.41992,4.08105 -1.38,1.97 -3.05058,3.71926 -4.35059,5.73926 -0.34999,1.43 -0.23025,2.96084 -0.76025,4.36084 -1.22,2.42 -3.21929,4.4592 -3.7793,7.1792 -0.53,2.59 -1.76968,4.91977 -2.92968,7.25977 3.89,-2.94 7.26925,-6.52014 10.23925,-10.39014 0.32,0.78999 0.97079,2.36062 1.30079,3.14062 5.70999,-5.05 11.44972,-10.09963 16.71972,-15.61963 3.49,-3.64 6.38942,-7.85046 8.39942,-12.48047 0.84,-1.51 1.32043,-3.58035 3.19043,-4.11035 1.03,0.51 2.0393,1.08973 3.0293,1.71973 -1.56,2.73 -3.35938,5.43041 -3.60938,8.67041 2.25,-1.36 4.80975,-2.34971 6.73974,-4.19971 1.05,-1.55 0.80997,-3.62037 1.20996,-5.38037 2.44001,-2.66 5.76018,-4.49891 7.68018,-7.6289 1.35,-2.13 0.45939,-4.72005 0.3794,-7.04004 -0.46001,-4.14 0.80998,-8.14012 1.72998,-12.12012 0.5,-1.69 -0.0689,-3.56115 0.56104,-5.18115 1.42999,-1.76001 3.36964,-2.99993 4.88964,-4.66992 0.14,-1.69001 -0.69029,-3.21909 -1.05029,-4.80909 -1.11,-3.34 -1.20008,-6.93109 -0.58008,-10.37109 2.33,3.67 2.50961,8.11113 3.84961,12.16113 1.34,-0.24 2.7308,-0.38 4.0708,-0.75 -0.75,-2.81 -2.47988,-5.29115 -2.87988,-8.18115 0.03,-1.73 1.65949,-2.63914 2.97949,-3.36914 1.11,2.02 1.85961,4.23043 3.09961,6.19043 0.87,1.59 2.29015,3.18943 1.91016,5.16943 -0.59,4.53 -2.81999,8.67055 -5.47998,12.31055 -0.04,0.24 -0.12992,0.70896 -0.16993,0.93897 2.86001,-3.81 6.00098,-7.42007 8.75098,-11.31006 1.43,-2.02001 2.27973,-4.39962 2.46973,-6.84962 0.41,-4.21999 0.87953,-8.45033 1.76952,-12.59032 0.80001,-4.23 2.04962,-8.47007 1.59962,-12.81006 1.27999,-2.66001 2.49017,-5.35975 3.18017,-8.23975 0.87,-0.02 1.75991,-0.0104 2.64991,0.0395 0.91,1.89 1.47056,3.9311 2.33056,5.8711 3.22,-4.83 2.99051,-11.18032 1.52051,-16.57031 -0.69,-2.55 0.46972,-5.06051 0.96973,-7.52051 -1,-0.47 -1.98045,-0.93014 -2.96046,-1.39014 -0.15999,-2.07 -0.20958,-4.13922 -0.32958,-6.19922 -1.3,0.76001 -2.59012,1.51955 -3.87012,2.28956 -0.08,-1.06001 -0.23055,-3.15996 -0.31055,-4.20996 -1.06999,2.28 -2.00978,4.63031 -3.27979,6.82031 -0.54999,-3.05 -0.73919,-6.14948 -1.17919,-9.20948 -0.5,-0.35 -1.48022,-1.04013 -1.97021,-1.39014 0.24999,-6.24999 1.20919,-12.45019 1.17919,-18.70019 -0.7,0.1 -2.09932,0.31015 -2.79931,0.41016 -1.42,-3.11 -2.04053,-7.52093 -5.79053,-8.69092 -0.51,4.42 1.02045,8.88982 -0.0395,13.31982 -1.71,-3.07 -3.38992,-6.1692 -4.66992,-9.42919 -1.03,-2.98001 1.55967,-5.30067 2.40966,-7.93067 -0.89,-2.07 -2.38927,-3.78913 -3.25927,-5.84912 0.06,-2.88 2.05966,-5.29014 2.40967,-8.14014 -0.35001,-3.52 -2.21989,-6.65009 -2.87989,-10.10009 -0.45,-1.97001 -0.54066,-4.0197 -1.18066,-5.92969 -1.38,-1.14 -3.07975,-1.80989 -4.48975,-2.87989 -1.99,-2.80999 -0.74055,-6.54084 -1.81054,-9.61084 -1.56,-2.67 -3.64901,-4.979 -5.72901,-7.229 0.45,2.32 1.00924,4.62947 1.46924,6.95947 -3.2,-3.17 -5.67924,-6.94037 -8.21924,-10.63037 -3.22,-4.82 -6.50041,-9.67031 -8.67041,-15.07031 -0.72,-1.55 -1.15977,-3.42982 -2.75976,-4.31983 -3.41001,-2.34 -7.16007,-4.1097 -10.56007,-6.4497 -2.4,-1.66 -3.49082,-4.47963 -5.34081,-6.61963 -2.00001,-2.1 -5.18967,-2.69033 -6.90967,-5.09033 -3.28001,-5.03001 -6.34004,-10.5694 -11.54004,-13.8794 0.70999,4.24 3.42978,7.68996 4.77978,11.70996 -5.5,-4.25 -9.00893,-10.43076 -14.14892,-15.03076 -1.56,-1.42 -3.66081,-1.91914 -5.5708,-2.61914 -4.27001,-1.43 -8.3001,-3.46063 -12.3501,-5.39062 -3.68,-1.82001 -7.50963,-3.62944 -10.36963,-6.66944 -3.35,-3.58 -5.78959,-7.91131 -7.82959,-12.34131 2.29,-1.93999 4.60996,-4.75906 7.95996,-4.28906 3.35,0.51 6.61922,1.40983 9.94922,2.06983 2.64,0.67999 5.54011,0.87987 7.62012,2.87988 1.38,-0.01 2.79091,-0.0301 4.19092,-0.0601 0.24999,0.53 0.74901,1.57938 0.99902,2.10938 0.42,0.02 1.24966,0.0708 1.65967,0.0908 1.65,-1.2 3.33103,-2.34971 5.06103,-3.44971 1.72,1.74 1.12947,4.11978 0.95947,6.27978 0.83,-1.08 1.45953,-2.33972 2.51954,-3.21972 3.28999,-0.94 3.99097,3.27933 4.25097,5.56934 0.87,-0.89 1.7499,-1.76965 2.6499,-2.63965 -0.23,-0.66 -0.68992,-1.98991 -0.91992,-2.64991 4.33,1.87001 8.35971,4.32039 12.44971,6.6504 l 2.51953,0.15966 c 3.49,1.91001 7.12054,3.55957 10.81054,5.05957 2.36001,-1.41 4.76971,0.20977 7.19971,0.50977 3.83001,0.33 7.26034,2.3497 11.09034,2.69971 2.6,0.1 4.72998,1.71129 6.97998,2.82129 2.44,1.26 5.15961,1.83891 7.59961,3.12891 5.54,2.86999 11.47967,5.01054 16.65967,8.56054 3.45,2.41 7.91047,1.66019 11.73046,2.95019 4.04001,2.12001 6.42996,6.29932 10.20999,8.79932 5.04,3.33 10.66073,5.71004 15.55073,9.29004 4.27005,3.2 8.91907,5.85064 13.2891,8.91064 2.52,1.78 5.42025,2.79038 8.26027,3.88038 1.8,2.15 3.5403,4.43957 6.07028,5.80956 3.6,2.1 6.7596,4.80983 10.07962,7.31983 -0.63,0.6 -1.28947,1.15998 -1.9395,1.72998 0.75,0.58 2.2398,1.74032 2.9898,2.32031 -0.35002,-1.32 -0.67027,-2.65093 -0.9903,-3.96093 1.28003,1.49 2.70045,2.92122 4.17045,4.26123 -0.72997,0.48 -1.44082,0.96879 -2.11087,1.50879 2.4,0.81999 4.18987,2.70052 6.10987,4.29052 5.47005,5.07 12.4206,8.20987 17.62065,13.60987 l -0.0105,-2.40967 c 3.60998,2.87 7.29083,5.68955 11.1108,8.28955 1.03005,0.79 2.31938,1.04045 3.54938,1.46045 2.97997,3.3 5.58045,7.04039 9.25042,9.65039 2.77005,2.05 4.9602,4.74894 7.3902,7.16895 -0.94005,-0.21 -2.81002,-0.62936 -3.75,-0.83936 3.84998,3.69 7.75928,7.35056 12.02925,10.58057 -0.51997,-1.89 -1.25962,-3.75022 -1.36957,-5.72022 1.53,-1.74 4.83998,-1.5509 5.54003,0.8291 -1.01003,0.76 -2.06093,1.44982 -3.15091,2.06983 0.53003,2.13 1.19993,4.23111 1.66996,6.39111 2.65995,2.73 5.58015,5.19926 8.2002,7.98926 2.62995,2.62999 5.1207,5.47025 8.28075,7.51025 4.8,2.87 8.32012,7.47948 13.39012,9.95948 1.91003,2.08 4.31903,3.72017 5.78903,6.18017 0.9,1.47 2.17995,3.0999 4.1499,2.6499 0.13005,-0.43 0.41077,-1.28972 0.5508,-1.71973 -0.33,-2.16999 -3.0399,-1.97991 -4.37985,-3.16992 -1.68,-1.81999 -3.10958,-4.17924 -5.80958,-4.46923 -6.52005,-7.77 -15.24082,-13.35081 -21.5508,-21.32081 -2.28997,-3.07999 -4.90927,-5.99014 -6.25927,-9.64013 2.18002,0.52 4.48987,1.16033 6.10987,2.84033 2.04998,2.04 4.69883,3.25016 7.0488,4.91015 1.53,2.39001 1.61138,6.06042 4.67138,7.17042 2.81002,1.41 4.87995,3.89865 7.66995,5.36865 2.03002,0.96 2.84925,3.20062 4.46925,4.64062 1.44997,1.34001 3.36967,1.90959 5.17965,2.5796 0.38002,-1.16 0.78022,-2.31997 1.22025,-3.45997 1.23,1.64 4.03042,2.90987 3.42037,5.35987 -1.71,0.28 -3.40005,0.13054 -5.08005,-0.43946 2.51003,3.15 4.98015,6.35036 7.68015,9.36036 -0.01,-1.21 -0.0308,-3.6208 -0.0412,-4.8208 2.15003,2.83 4.60065,5.43062 7.41068,7.64062 -2.01,-3.82 -2.06993,-8.42969 -4.66995,-11.92968 -1.14998,-1.44 -2.0007,-3.06999 -2.74073,-4.72999 0.99,0.13 2.97098,0.37977 3.96098,0.50976 0.21997,-1.50999 0.39915,-3.0205 0.5991,-4.5205 1.31002,-0.03 2.62072,-0.0393 3.9507,-0.0293 0.69997,1.17 1.3002,2.41926 2.2002,3.48926 3.38002,1.76 7.65037,0.58092 10.92037,2.69092 1.5,0.93 3.13965,2.34928 4.8897,1.00927 3.06,-1.47 7.93958,-1.92976 9.61958,1.74024 3.54,-0.11 7.03087,-1.03017 10.59082,-0.93018 3.14003,0.14001 5.80883,2.40969 9.00885,2.17969 6.01995,-0.7 11.8806,1.48981 17.9106,0.79981 l -0.36037,-3.55958 c 4.58002,4.97001 9.06975,10.15001 14.46975,14.25 -2.15003,-3.63999 -5.34998,-6.68939 -6.45998,-10.87939 1.86,0.12 3.66045,-0.17093 4.92045,-1.71093 1.29,0.82 2.6007,1.64017 3.9507,2.43017 -1.04002,-1.88 -2.20102,-3.68978 -3.27105,-5.52979 5.67,1.29 11.32103,3.11065 16.02105,6.66065 -1.66005,-3.59 -3.10125,-7.26998 -5.01127,-10.72998 0.69,-1.68 1.67985,-3.20075 2.58982,-4.76075 2.88,3.38 4.1712,7.86979 7.66118,10.77979 2.64,2.32001 3.56932,6.80092 7.58932,7.19092 -1.95,-3.95 -5.37915,-6.79078 -8.67915,-9.55078 0.90998,-1.98 1.61963,-4.03037 2.17965,-6.13037 l 1.6392,-1.19971 c -0.53002,-2.05 -1.08915,-4.08941 -1.57912,-6.14942 0.75997,0.22 2.26927,0.66038 3.02932,0.88038 -0.58005,-0.91 -1.72987,-2.75065 -2.29987,-3.66065 1.77,0.85 3.55965,1.7594 5.34967,2.6294 -0.11002,-0.78 -0.32977,-2.34891 -0.44977,-3.12891 0.76005,0.48 2.27055,1.43895 3.02055,1.91895 l -1.19093,-2.46973 c 0.54,0.08 1.62068,0.22029 2.16068,0.30029 -0.44003,-0.6 -1.31025,-1.78012 -1.7403,-2.37012 0.64005,-0.13999 1.9296,-0.41956 2.57962,-0.55957 0.35003,-1.2 0.4209,-2.46994 0.67088,-3.68994 0.50002,-0.27 1.52032,-0.81105 2.03032,-1.08105 0.36,-0.8 0.73965,-1.59916 1.13963,-2.38916 1.47997,-0.04 3.3399,1.3797 4.66995,0.4497 1.59,-3.25 -4.56983,-5.17035 -2.75978,-8.61034 1.47998,-1.2 2.85953,0.5505 3.78953,1.5205 1.17,1.78 1.0896,4.0702 2.11965,5.95019 1.62997,3.32001 2.13105,7.06964 3.85102,10.36963 0.38003,-4 -0.40102,-7.95917 -0.85102,-11.90917 -0.36,-2.39001 1.00012,-4.56088 1.16017,-6.90088 0.0398,-1.73 -0.24007,-3.46008 -0.81007,-5.08008 -2.38005,-1.71 -5.8101,-2.88985 -6.06008,-6.33985 3.26003,0.74 5.93108,2.80053 8.87108,4.29053 -1.05,-4.96 -5.88068,-7.25027 -8.68065,-11.03027 3.44002,0.94 5.48077,3.94967 8.0508,6.15967 0.88995,-0.21 1.69942,-0.59921 2.45947,-1.1792 -0.42,-1.85001 -0.79035,-3.70029 -1.11037,-5.5503 2.33002,0.64 4.5804,1.49988 6.94042,2.12988 -2.25,-2.70999 -4.89045,-5.15073 -6.19042,-8.51073 0.81,0.3 2.43052,0.89091 3.2505,1.19091 0.08,-0.81 0.24982,-2.41972 0.33982,-3.21972 2.66003,1.86999 4.04018,4.99865 6.7002,6.86865 -0.63,-2.88 -1.87057,-5.54859 -2.8506,-8.30859 1.40003,-0.45 2.81078,-0.89008 4.24073,-1.33008 -0.31995,-0.72 -0.94095,-2.16014 -1.25093,-2.89014 1.77,-0.94 3.52118,-1.91096 5.24115,-2.98095 -2.07,-3.50001 -5.07007,-6.30015 -7.33005,-9.64014 l 3.31935,-0.52002 c -0.19005,-0.78 -0.58927,-2.32986 -0.77932,-3.10986 2.31,1.08999 4.60957,2.25087 7.01955,3.15087 -1.14998,-2.81 -2.57055,-5.49051 -3.77055,-8.27051 1.52002,-1.72 0.4398,-3.88988 0.50977,-5.87988 0.61005,-0.37 1.84095,-1.11974 2.46098,-1.48975 -0.84,-1.35 -1.63995,-2.70958 -2.41995,-4.07958 2.16,0.66 4.3188,1.37996 6.52882,1.95996 -0.68002,-1.79001 -1.4094,-3.53051 -2.16945,-5.27051 0.54,-1.88 -0.1602,-3.66006 -0.99022,-5.31006 l 1.48095,-1.43994 c -2.80995,-3.52 -5.51063,-7.14067 -7.93065,-10.93066 -2.22,-4.11 -2.07998,-8.74926 -2.18993,-13.23927 -3.89002,-6.69 -10.3395,-12.24089 -11.7495,-20.17089 4.80998,3.93 9.46005,8.07096 14.31,11.98095 -2.52,-5.31 -7.25077,-8.98048 -11.34082,-13.00048 -1.95998,-1.79 -2.98965,-4.27946 -4.42965,-6.43946 -1.10003,-1.8 -2.62043,-3.46035 -2.9004,-5.61035 -0.48998,-2.65 -0.46995,-5.52035 -1.95998,-7.86035 -1.83997,-2.97 -4.87897,-4.88949 -7.749,-6.72949 -0.18,0.68 -0.55117,2.02996 -0.74122,2.70996 -1.77,-1.62 -3.6201,-3.18033 -5.08005,-5.09033 -1.54005,-2.01 -1.84958,-4.60956 -3.0396,-6.78956 -1.08,-1.69999 -2.51993,-3.12949 -3.97995,-4.47949 l 2.2998,-1.18066 c -0.23003,0.51 -0.69893,1.53957 -0.93893,2.05957 2.76,2.16 5.1486,4.85111 8.36865,6.39111 -1.60005,-4.27 -5.0091,-7.38135 -8.26905,-10.38135 -2.65005,-2.49999 -6.10012,-3.89883 -8.83012,-6.29883 -4.08998,-3.03 -5.50965,-8.32029 -9.38963,-11.55029 -2.58,-2.11999 -5.33077,-4.02055 -7.76077,-6.31054 -3.33,-2.61 -5.6493,-6.4193 -9.5493,-8.2793 -3.36,-1.54 -5.59103,-4.64035 -8.811,-6.36035 -5.43,-2.98 -9.84015,-7.43 -14.66018,-11.25 -7.46002,-7.13 -15.92917,-13.31948 -25.40917,-17.45948 -3.93998,-1.93999 -7.44998,-4.66101 -10.72995,-7.54101 l 0.60052,3.21093 c -3.06,-3.15 -5.98095,-6.520834 -9.73095,-8.860834 -4.62,-3 -8.80972,-6.669727 -13.71967,-9.219727 -2.85,-1.56 -5.9598,-2.709975 -8.52983,-4.72998 -2.37,-1.929998 -4.25092,-4.40922 -6.73095,-6.199216 -4.40002,-3.18 -9.46995,-5.330902 -14.70997,-6.670897 0.19005,0.969997 0.5805,2.89986 0.77055,3.85986 -1.29,-0.42 -2.56005,-0.869378 -3.81008,-1.359375 -4.83,-1.670003 -7.4991,-6.941033 -12.5991,-8.061038 -9.07005,-2.169997 -16.38135,-8.28 -24.34133,-12.75 -3.59002,-1.02 -7.55872,-0.508845 -10.90867,-2.318842 -3,-1.53 -6.21053,-2.55 -9.54053,-3 -3.86002,-0.530003 -7.34977,-2.321153 -10.94977,-3.681158 -2.26995,-0.909997 -4.75005,-0.189645 -7.10003,-0.389647 -3.08002,-0.889995 -5.73052,-3.110296 -9.02055,-3.300293 -2.06002,-0.01 -4.0596,0.54135 -6.0996,0.63135 -1.94002,-0.06 -3.63052,-1.251293 -5.56057,-1.32129 -2.11995,1.08 -3.64913,2.98053 -5.61915,4.290525 -3.10995,-1.239997 0.06,-3.579705 1.19977,-4.949708 -1.09005,-0.549997 -2.14972,-1.10037 -3.21975,-1.630372 -1.43002,1.53 -2.57002,3.670612 -4.79002,4.120613 -4.58003,1.399995 -8.93025,-1.311023 -12.99023,-3.041018 -2.44005,-1.010003 -4.19962,-3.349358 -6.84964,-3.839355 -5.65,-1.150005 -11.27098,-2.49063 -17.00098,-3.140625 0.38,0.619995 1.14051,1.861192 1.52051,2.47119 -3.97,-2.259998 -8.64975,-2.560508 -12.73974,-4.520505 -2.90001,-1.32 -6.12018,-1.549868 -9.18018,-2.359868 -1.15,0.399998 -2.29047,0.879143 -3.48047,1.119143 -2.44,-0.3 -4.49986,-1.740023 -6.10987,-3.52002 -3.54999,0.999997 -7.18947,1.571272 -10.70946,0.0513 1.06999,1.05 2.20984,2.079352 3.33984,3.089355 -2.55,-0.09 -5.16088,0.62988 -7.65088,-0.12012 -2.02,-0.409995 -3.48873,-1.900388 -5.19873,-2.900385 -6.20001,0.889995 -12.55096,1.190895 -18.73096,-0.0791 0.77,1.239998 1.53101,2.479493 2.29102,3.729488 -2.97,-1.159995 -5.75102,-2.960505 -9.04102,-3.020505 -1.08,-1.010003 -2.1803,-1.979685 -3.30029,-2.929688 -0.43,0.63 -1.28973,1.870238 -1.71973,2.490233 -1.82,-0.829995 -3.74951,-1.319318 -5.74951,-1.299315 0.61,1.239997 1.2499,2.46873 1.8999,3.69873 -0.88,1.269997 -1.87006,2.450662 -3.06006,3.430665 -0.76,-0.78 -1.52026,-1.559355 -2.26025,-2.339355 -2.19,-0.789998 -4.2992,-1.789965 -6.4292,-2.70996 0.42,1.32 0.85982,2.639467 1.31982,3.959467 -6.85,-2.34 -14.19998,-1.860742 -21.22998,-3.260737 -2.23,-0.290003 -4.63974,-1.26 -6.73974,0 -2.53,1.369995 -5.42091,1.100602 -8.1709,1.120605 -3.06,-0.110003 -5.84969,1.749765 -8.92969,1.259767 -6.37,-0.500002 -12.7201,-1.30998 -19.1001,-1.72998 -1.74,-0.190005 -3.30939,0.640463 -4.87939,1.230465 -2.47,1.029998 -5.12076,1.519455 -7.53076,2.689455 -4.32,2.419995 -9.5494,-0.64971 -13.8794,1.800293 -2.14,1.149997 -4.48968,0.319882 -6.67968,-0.12012 2.35999,-1.65 4.97943,-2.860133 7.41943,-4.390133 -4.8,0.489998 -9.26086,2.449943 -13.88086,3.68994 -4.71,1.520003 -9.76938,2.079863 -14.10938,4.60986 -2.47999,1.8 -5.59941,0.900278 -8.39941,1.280273 -1.46,0.610005 -2.72016,1.580197 -4.16016,2.2002 -2.64999,0.429997 -5.32047,-0.249413 -7.98047,-0.149415 -1.66,0.849997 -2.87975,2.318768 -4.48974,3.23877 -1.55,-0.380002 -3.10012,-1.069177 -3.12012,-2.909183 1.29,-1.62 2.92002,-2.909745 4.27002,-4.489747 0.7,-1.86 0.82982,-3.870525 1.31982,-5.790525 2.09,0.200002 4.19006,-0.0095 6.06006,-1.019528 2.34,0.199995 4.70979,-0.120217 7.02979,0.27978 1.93,1.160003 2.45098,3.509355 3.50098,5.339355 1.11,-0.39 2.30933,-0.65982 3.31933,-1.31982 0.29,-1.600005 0.38996,-3.589222 -1.04004,-4.699222 -2.09,-1.809998 -4.9899,-2.21088 -7.1499,-3.900878 -1.43,-0.84 -2.70981,-2.489317 -4.54981,-2.049315 -1.83,0.789998 -2.77984,2.68959 -4.08984,4.079588 -3.44,-1.2 -7.03039,-2.710058 -8.90039,-6.06006 2.21,-0.919995 3.92941,-2.49033 5.39941,-4.340325 -0.29,-0.48 -0.84939,-1.449203 -1.12939,-1.929203 1.42,0.02002 2.85053,0.05002 4.29053,0.06007 -2.81001,-2.8700024 -6.09092,-5.2409024 -9.44092,-7.4208975 -2.49,0.1599975 -4.82022,1.0901176 -7.22022,1.6201126 -2.47,-0.4299975 -4.31006,-2.5193701 -6.81006,-2.8593751 -3.98,-0.72 -7.88994,-1.89084 -11.93994,-2.110837500001 z m 52.12061,16.870605 c 0.06,0.549998 0.18023,1.62969 0.24023,2.179688 3.87,1.83 6.76019,5.210235 8.20019,9.240232 1.52001,-1.23 3.06913,-2.450175 4.34913,-3.930172 -4.26,-2.510003 -8.73955,-4.62975 -12.78955,-7.489748 z M 269.33057,29.89014 c -1.38,0.399998 -2.67056,1.60974 -3.08057,2.98974 1.09,1.690005 5.07057,-2.059747 3.08057,-2.98974 z m -8.64404,8.708491 c -0.17754,0.0068 -0.37068,0.0576 -0.57569,0.1626 -1.81,0.36 -0.93025,2.999685 0.73975,2.179687 1.5575,-0.315 1.07871,-2.390955 -0.16406,-2.342287 z m -7.50147,66.716309 c -0.31031,-0.015 -0.67424,0.0927 -1.09424,0.3252 -0.99,0.83 -1.02082,1.61082 -0.0908,2.34082 1.22001,0.16 1.98077,-0.36006 2.28076,-1.56006 -0.2125,-0.7125 -0.57851,-1.08096 -1.0957,-1.10596 z m -52.27441,24.36621 c -2.15,1.73 -4.01049,3.85008 -4.75049,6.58008 3.05,-0.79 4.90049,-3.47008 4.75049,-6.58008 z m 281.20898,82.5 c -0.26,3.41001 -0.39972,6.83895 0.53028,10.16895 -3.38,-0.58 -6.88023,-0.8289 -9.99024,-2.37891 -3.56,-1.77999 -7.77002,-1.89007 -11.02002,-4.33008 6.85,-1.09999 13.51998,-3.01995 20.47998,-3.45996 z m 472.10013,88.65967 c -1.95,3.88001 -0.30983,9.28024 3.41017,11.49024 -0.34005,-4.01 -1.50022,-7.95024 -3.41017,-11.49024 z m -1.79888,30.42041 c -0.66997,2.06001 -0.951,4.21883 -1.54095,6.29883 -1.38,2.35 -4.49025,2.55121 -6.2403,4.49121 1.26,0.97 2.59035,1.92979 4.11038,2.52979 4.20997,-2.87 3.49087,-8.86983 3.67087,-13.31983 z m -9.59175,19.83106 c -1.20517,0.0244 -2.50327,0.41953 -3.44827,0.8789 1.10002,1.70001 2.23935,3.36912 3.31935,5.09913 1.25002,-1.06 2.67037,-2.04033 3.36037,-3.59034 -0.28687,-1.83937 -1.68195,-2.41907 -3.23145,-2.38769 z m -637.64944,37.06787 c 0.08,1.84 0.0211,3.72074 0.56104,5.51074 l 2.27929,-0.15966 c 0.41001,-1.78 -0.48914,-3.41073 -1.11914,-4.99073 z m 1.03418,9.70606 c -1.00611,0.0846 -2.00102,1.14132 -2.85351,1.70508 1.17999,0.37999 2.37033,0.70902 3.59033,0.99902 0.16,-0.52 0.46988,-1.56008 0.62988,-2.08008 -0.45,-0.5 -0.90938,-0.66248 -1.3667,-0.62402 z m 21.69726,9.3999 c -0.13884,0.0143 -0.30472,0.0573 -0.50097,0.13476 -1.28,0.03 -1.76975,0.74944 -1.48974,2.16944 0.63999,-0.02 1.91028,-0.0696 2.55029,-0.0996 0.0875,-0.98 0.41236,-2.30412 -0.55958,-2.20459 z m 456.1187,127.49414 c -0.63,0.31 -1.88955,0.92047 -2.51955,1.23047 -5.19,-1.35 -10.59938,-0.80941 -15.8394,-0.14941 -2.82,0.27 -4.11075,3.11857 -6.03075,4.78857 -3.49995,0.95 -7.32045,-0.19959 -10.7505,1.17041 -5.77995,2.16 -10.63005,6.09963 -16.1001,8.86963 -2.98995,1.54 -6.25883,2.82087 -8.5488,5.40087 -2.58,2.76 -5.04083,5.79039 -8.57078,7.4004 -7.10002,3.59 -14.67907,6.90928 -20.0391,13.00927 -2.89995,3.48 -4.08067,8.47056 -8.22067,10.81056 -3.65003,2.10999 -7.49963,3.94905 -11.57963,5.03906 3.72,-4.68 9.29978,-7.25922 13.4898,-11.44922 -2.62005,-0.36 -4.90942,1.02013 -7.12942,2.14014 -4.01003,2.19999 -8.00085,4.52991 -11.34083,7.66992 -2.07,1.91 -3.98047,3.9992 -6.2505,5.6792 -4.81995,3.64 -10.59937,5.87998 -15.08932,9.97998 -2.68005,2.26 -4.75035,5.38025 -8.09033,6.76025 -4.68,2.14 -10.0404,2.29094 -14.61037,4.71094 -4.04,2.05999 -7.7093,4.7598 -11.2793,7.5498 -4.48,3.5 -8.12949,8.22975 -13.47949,10.48975 -6.07,2.6 -12.77991,2.1701 -19.1499,3.3501 -7.04001,1.76 -13.8603,4.31009 -20.5503,7.10009 -3.4,1.53 -7.13978,1.84012 -10.77979,2.37015 -0.72999,-1.74 -1.25118,-3.59078 -2.47119,-5.0508 -1.27999,1.62 -2.01999,3.57007 -3,5.37007 -4.41,2.34 -9.04994,4.6698 -14.18994,4.4898 1.22001,1.06995 2.4609,2.1402 3.6709,3.24023 -7.63,-0.78 -15.55066,-1.29023 -22.93066,1.25977 -3.92,0.55995 -7.90033,-0.51967 -11.84034,0.0705 1.60001,1.54005 3.82061,2.2095 5.62061,3.4995 -4.92,0.88005 -9.80041,-0.47925 -14.67041,-1.00927 -4.34,-0.54 -8.72004,-0.29085 -13.04004,0.1392 -0.64,1.26997 -1.58007,2.211 -2.83008,2.811 -1.53999,-1.05998 -2.90906,-2.30003 -4.28906,-3.51998 1.71,-1.85002 3.12905,-3.97035 3.01904,-6.59032 -1.59999,-0.0697 -3.23883,-0.31965 -4.79883,0.13035 -0.94999,1.88002 -0.77097,4.06935 -1.25097,6.08932 -0.13,1.12005 -1.44933,2.1402 -2.56934,1.91018 -2.5,-0.21998 -4.99974,-0.40958 -7.48974,-0.0398 -0.81,-0.96 -1.61088,-1.90035 -2.40088,-2.84033 -2.73,0.34995 -5.48924,0.23948 -8.21924,0.4995 -2.08,0.52995 -4.01062,1.60043 -6.14062,1.92038 -2.72001,0.25005 -5.44034,-0.1692 -8.09034,-0.71925 -2.22,-0.33998 -3.84912,-2.0313 -5.84912,-2.88135 -2.52,0.3 -3.52012,3.65107 -6.12011,3.56107 -1.95,-1.02 -3.40028,-3.21067 -5.78028,-3.2007 -1.28,0.69998 -2.39931,1.64078 -3.54932,2.51078 -3.48999,0.0398 -6.2207,-2.16998 -8.9707,-3.98003 -0.8,0.6 -1.59941,1.21988 -2.39941,1.8399 -2.81,-0.68002 -5.72986,-1.09965 -8.35987,-2.34967 -2.40999,-1.35998 -4.4412,-3.27 -6.74121,-4.79003 0.73,1.78005 1.53077,3.52883 2.28077,5.31885 -4.37,-0.56002 -8.91006,-1.07955 -12.81006,-3.26955 -2.80001,-1.53997 -5.59022,-3.20017 -8.72022,-3.93015 -0.95,0.84 -1.82965,1.74 -2.63965,2.70998 -2.49,-0.33 -4.88971,-1.0395 -7.19971,-1.9995 1.00001,-0.85005 1.66881,-1.87035 2.02881,-3.07035 -3.67999,-0.28995 -7.29874,0.7605 -10.96875,0.48045 -5.47999,-0.18 -10.56017,-2.49983 -15.93017,-3.33983 -5.78,-0.99997 -11.15973,-3.41062 -16.71973,-5.16063 1.5,1.73001 3.15871,3.35036 4.67871,5.09036 -4.3,-0.91005 -7.09912,-4.57988 -11.09912,-6.10988 -4.21,-1.82001 -8.13971,-4.23028 -12.44971,-5.78028 -6.19999,-2.3 -12.24103,-5.03973 -18.56103,-6.96972 -8.18,-2.32001 -15.78903,-6.16065 -23.49903,-9.66065 -6.08999,-3.05 -12.65107,-5.75914 -17.35107,-10.86914 -3.15,-3.14 -5.35903,-7.26008 -9.24902,-9.58008 2.35,3.87 5.01898,7.58008 6.70898,11.83008 -1.35,-0.67 -2.71863,-1.29035 -4.09863,-1.86035 -0.12,1.92 0.42914,3.88974 1.86914,5.23974 3.05,3.15 6.11988,6.36983 8.12988,10.31983 -3.44,-1.47 -6.36003,-3.82936 -9.29004,-6.08936 -2.93,-2.30999 -4.3104,-5.99037 -7.17041,-8.38037 0.37001,1.25 1.11096,3.74047 1.48096,4.98047 -2.11,-0.53 -4.29086,-0.77084 -6.38086,-1.36084 -2.06,-1.2 -3.49955,-3.17922 -5.28955,-4.69922 -0.9,-1.08 -2.69934,-1.75111 -2.56934,-3.39111 1.69001,-2.88 5.50944,-3.14926 7.41944,-5.73926 -0.08,-2.46 -2.05062,-3.96019 -3.89063,-5.2002 -2.94,3.10001 -1.91923,7.83969 -4.46923,11.17969 -1.75001,-1.47 -3.67985,-2.66037 -5.58985,-3.88037 -2.39,-2.04 -4.50094,-4.40888 -6.96094,-6.35888 -0.07,0.84999 -0.21857,2.53965 -0.28857,3.38964 -3.04,-2.94 -5.88012,-6.08931 -9.12012,-8.79931 -1.46,-1.41 -3.75032,-1.0302 -5.32031,-2.2002 -1.05,-0.81 -3.17047,-2.42998 -4.23047,-3.22998 1.12,2.01 2.39957,4.0093 3.55957,6.0293 -1.53,-0.7 -3.04885,-1.40989 -4.56885,-2.12989 -1.06,-1.72999 -2.32013,-3.30958 -3.64013,-4.82958 -3.52001,-1.10001 -5.59061,-4.68065 -9.37061,-5.16065 0.25,1.04 0.72998,3.13041 0.97998,4.17041 -2.08,-1.57 -4.08916,-3.20004 -6.13916,-4.79004 -2.13,-1.74 -4.97086,-2.23992 -7.13086,-3.91992 -2.81,-2.16 -4.98994,-5.10975 -8.18994,-6.73974 -3.57,-1.92001 -6.69961,-4.4905 -9.84961,-7.0005 -3.87,-2.14 -6.18018,-6.47955 -10.68018,-7.53955 0.45,4.07 2.18943,7.68983 4.41944,11.06982 -1.53,-0.54999 -3.03905,-1.14074 -4.51904,-1.76073 1.65,2.58999 3.31966,5.2007 5.40966,7.4707 4.72,4.85 8.88016,10.36032 11.66016,16.57031 1.4,2.92 1.36031,6.55969 3.82031,8.92969 2.36,2.25 5.04985,4.16 7.08985,6.75 1.38999,1.03 2.79978,2.19948 3.27978,3.95947 1.52,4.7 4.05969,8.9501 6.67968,13.1001 0.40001,-2.23 0.76977,-4.45918 1.25977,-6.65918 1.55,2.1 2.77997,4.42972 3.45996,6.96973 -0.51,1.46 -1.08914,2.93904 -1.11914,4.51904 6.57,5.59 13.5801,10.85055 19.1001,17.56054 0.34,1.36001 0.26895,2.79997 0.41895,4.20997 3.02,1.72997 5.73053,3.95987 8.79053,5.64992 5.1,2.68995 8.35064,7.65053 12.66064,11.33055 7.12,6.57998 16.50924,9.879 23.96924,15.999 -2.81,-1.17997 -5.58984,-2.48932 -8.58984,-3.08932 2.55,3.15997 6.1797,5.06962 9.4497,7.36965 5.8,4.05 11.90041,7.99042 16.17041,13.75042 1.92,2.28 3.32951,5.06063 5.74951,6.89063 2.79,0.14002 5.51981,-0.72038 8.29981,-0.88035 1.62,0.0697 1.73051,1.88955 2.27051,3.03952 1.73,5.51003 6.15972,9.99945 11.46972,12.14948 2,0.82995 4.41069,0.35115 6.20069,1.72117 1.75999,1.14998 2.96933,2.91893 4.06933,4.68893 -2.68,-1.09995 -5.22971,-2.48993 -7.9497,-3.4599 1.23,1.66995 2.5798,3.30097 3.7998,5.00092 1.86,3.23003 5.90039,3.67943 8.90039,5.3994 -0.4,0.94005 -0.81047,1.89038 -1.23047,2.8404 1.28,2.86995 2.75063,5.87948 5.39063,7.76948 2.44999,0.96 5.31986,0.72 7.60986,2.18992 3.46,2.12003 6.74924,4.53975 10.46924,6.21975 -1.92,-2.1 -3.84891,-4.21965 -5.37891,-6.61965 2.1,0.43005 4.74947,0.16965 6.20948,2.11965 3.79999,4.21005 8.6806,7.2804 12.3706,11.61038 2.19,3.21 6.74926,1.99965 9.48926,4.42965 2.78,2.28 5.82978,4.22063 8.52978,6.6006 1.94001,1.71 2.13983,4.40055 2.06982,6.83055 -1.86999,0.64005 -4.05909,0.8901 -5.32909,2.6001 1.72999,4.41 7.51019,1.40925 10.45019,4.2393 2.62,2.67 4.64961,6.24053 8.34961,7.58055 3.57,1.32 7.25035,2.34983 10.86035,3.56985 2.33,-1.01002 4.86963,-1.2003 7.36963,-1.51027 -1.06999,-1.67003 -2.17043,-3.3207 -3.19043,-4.99073 3.5,-0.47002 7.16983,-0.65872 10.31983,-2.42872 1.97,-1.12995 4.32053,-1.82063 6.54053,-0.89063 4.93,1.88003 9.26056,5.10923 14.33056,6.71925 -0.89,-1.85002 -1.88117,-3.6495 -2.70117,-5.51955 3.18,0.56003 6.49095,1.38038 8.98095,3.59033 3.40001,3.06 7.46989,5.23027 11.12989,7.97025 4.88,3.93 11.46994,3.8904 17.18994,5.9004 5.78,-1.65 11.81971,-0.12075 17.69971,-0.78075 4.17,-1.22003 7.88972,-3.6795 12.21973,-4.47953 l -0.53028,2.08005 c 2.56,-0.60997 5.13099,-1.24057 7.77099,-1.4106 4.28001,-0.21997 8.27921,-1.90012 12.42921,-2.83012 -0.04,0.72 -0.10917,2.15992 -0.13917,2.87992 6.95001,-1.56 13.83907,-3.33967 20.78907,-4.88962 0.06,0.90997 0.19049,2.74065 0.25049,3.6606 3.64,-1.08 5.15941,-4.66035 7.64941,-7.1103 3.03,-0.13005 6.00076,0.67972 9.03076,0.73972 2.91,-0.53002 5.37028,-2.31 8.03027,-3.52005 1.65,1.34003 3.36967,2.6604 4.65967,4.4004 -0.31,1.38 -0.92077,2.69985 -1.30078,4.08983 3.99,-0.0503 7.5301,-2.71965 11.6001,-1.9497 5.04,0.86002 10.42053,0.5694 14.79053,-2.39063 -5.19,0.39 -10.29016,-0.50932 -15.41016,-1.06935 1.83,-1.72995 4.13957,-2.78092 6.55957,-3.44092 2.45,-0.62993 4.2301,-2.55908 6.3501,-3.82905 0.25,2.26995 0.101,4.55955 -0.47901,6.78952 4.11001,-0.78 8.15929,0.5196 12.25929,0.55958 3.25,0.01 4.90072,-3.64943 7.99072,-4.18943 2.97,-0.54 6,-0.0398 9,-0.21975 2.32,-0.83002 4.27011,-2.81992 6.87012,-2.70997 3.21,-0.15998 6.46982,-0.26093 9.56982,-1.25093 2.01,-0.86002 3.53908,-2.55952 5.55908,-3.4395 3.7,-0.18 7.47988,0.14948 11.12989,-0.77047 1.08,-2.42003 1.34037,-5.61908 3.88037,-7.05908 2.20997,-1.11 4.65962,-1.67062 7.07957,-2.1006 0.52005,1.14 0.99068,2.3205 1.41068,3.54053 2.88997,-0.27 5.7405,-0.88035 8.5605,-1.57035 2.58,-0.55995 5.4099,0.12037 7.8399,-1.13963 0.06,-2.19 -2.47118,-2.56027 -3.91118,-3.53025 2.22,-2.02005 4.24013,-4.34032 6.87015,-5.84032 l 1.43115,0.33982 c 0.63,3.21 -2.31112,5.06055 -3.91117,7.3506 0.39,0.31995 1.15102,0.96 1.54102,1.26998 2.69003,-1.03995 5.3499,-2.19053 7.8999,-3.54053 0,-1.68 -0.24967,-3.33045 -0.21967,-4.98045 2.56995,-4.44997 7.84912,-5.1693 12.36907,-6.31935 2.30003,-0.51 4.82003,-0.3804 6.98003,-1.4604 3.84,-2.79 5.92005,-7.48928 10.04002,-9.94928 2.52998,-1.45995 5.20013,0.54953 7.8501,0.4995 2.7,-0.99 4.67063,-3.5601 7.64063,-3.87007 2.79997,-0.45998 5.8689,-0.22958 8.37892,-1.76955 0.66998,-1.8 0.81068,-3.76995 1.7007,-5.47995 1.14,-1.38 2.73915,-2.26005 4.17915,-3.29003 -0.3,1.05998 -0.9087,3.17925 -1.21875,4.23923 7.81005,-2.30003 13.68008,-8.5689 21.29003,-11.37893 2.44005,-0.55995 3.16905,-2.9103 3.47902,-5.09032 -2.31,0.54 -4.56945,1.43955 -6.95947,1.53952 1.82002,-2.58 4.7292,-4.02007 7.6992,-4.8501 3.63,-0.97995 6.76125,-3.2604 10.49122,-3.94042 3.55005,-0.69 7.12013,-1.61925 10.1001,-3.77925 -0.6,-0.25005 -1.8114,-0.75023 -2.42137,-0.99023 4.70002,-2.32005 9.11002,-5.18962 13.27005,-8.3496 9.79995,-9.21 19.75087,-18.28035 28.94092,-28.11037 3.64995,-4.10003 7.29038,-8.28938 9.94043,-13.12943 1.48995,-2.74995 3.39937,-5.24032 5.3994,-7.63035 3,-3.63 3.57975,-8.44037 4.48972,-12.88037 0.81,-4.81999 4.3098,-8.82958 4.31985,-13.82959 0.16995,-3.83 1.27028,-7.52951 2.84033,-10.99951 2.10997,-4.74 4.20997,-9.96119 2.76997,-15.22119 -0.99997,2.45 -1.86967,4.98086 -3.4497,7.13086 -0.75997,-4.13 0.88035,-8.07031 1.57035,-12.07032 0.72,-3.30999 -1.28137,-6.45 -0.86137,-9.75 0.06,-0.81 0.1803,-2.44048 0.2403,-3.25048 -1.95,1.99 -3.70913,4.14998 -5.55915,6.22998 0.38002,-2.61 1.20952,-5.11981 2.22952,-7.54981 0.57998,-1.72 1.57973,-3.67947 0.67973,-5.45947 -1.58003,-2.45 -4.10925,-4.10983 -5.67923,-6.56983 -1.23997,-1.95 -1.3005,-4.39984 -2.5005,-6.33984 -1.35,-1.64 -3.2094,-2.72094 -4.87942,-3.96093 -0.19995,0.6 -0.6,1.80087 -0.81,2.40087 -2.80005,-0.22 -5.46053,-1.2405 -8.04053,-2.27051 1.54995,-0.81 3.10973,-1.51999 4.71968,-2.25 -2.46,-1.12999 -5.0403,-2.86943 -7.8603,-2.16943 -3.48,0.69 -6.81923,2.14944 -10.40918,2.16943 -0.16005,-1.93999 0.12983,-3.87052 0.1098,-5.79052 -2.98995,0.51999 -5.88067,1.79121 -8.97067,1.49121 0.18,-2.57 -0.0898,-5.2609 -2.52975,-6.6709 z m -371.43901,60.22998 c -0.55999,0.07 -1.68999,0.20075 -2.25,0.26075 -0.9,0.64999 -2.33023,1.45027 -1.74023,2.78027 1.98,0.55 3.80024,-1.10102 3.99023,-3.04102 z m 218.85938,178.7197 c -2.01997,0.03 -4.19933,-0.0995 -5.56933,1.69043 1.8,0.53002 3.64956,0.9405 5.51953,1.23052 0.01,-0.73005 0.0398,-2.1909 0.0495,-2.92095 z m -97.7373,13.59668 c -0.28391,-0.0105 -0.5836,0.0578 -0.90235,0.23437 -2.64,0.51 -4.10978,3.039 -4.77979,5.439 3.31001,0.06 6.51958,-1.01992 8.80958,-3.45997 -0.95875,-0.64185 -1.8972,-2.16773 -3.12744,-2.2134 z"/>
</svg>
