<?xml version="1.0" encoding="UTF-8" standalone="no"?>
<svg xmlns="http://www.w3.org/2000/svg" width="285.00247pt" height="294.26999pt" viewBox="0 0 285.00247 294.26999" version="1.1">
  <path d="m 190.20248,0 c 6.89,3.48 10.57,10.57 14.06,17.07 2.3,5.8 2.4,12.2 2.34,18.36 -0.1,7.08 0.6,14.42 -2.06,21.17 -1.95,7.59 -8.46,12.82 -10.63,20.33 2.11,0 3.74,1.27 5.19,2.65 2.48,-0.61 4.65,-1.92 6.7,-3.4 3.89,-2.76 8.83,-2.91 13.18,-4.58 6.8,-2.53 13.73,-4.64 20.64,-6.84 5.95,-1.97 12.33,-1.34 18.49,-1.19 5.62,1.19 11.28,3.28 15.5,7.3 3.25,3.02 7.08,5.3 11.39,6.42 -7.73,1.54 -15.71,1.62 -23.38,3.51 -6.28,2.13 -12.28,4.99 -18.27,7.82 -3.2,1.42 -5.62,4.04 -8.6,5.82 6.34,-2.25 13.36,-3.52 19.94,-1.51 3.7,1.76 7.01,4.23 10.44,6.47 1.62,1.4 3.81,2.74 4.27,4.97 -0.63,2.42 -1.66,4.72 -2.59,7.05 -0.81,-1.39 -1.03,-3.27 -2.48,-4.21 -3.27,-2.58 -7.07,-4.81 -11.28,-5.25 -5.08,0.05 -9.68,2.48 -14.48,3.8 -2.7,0.7 -4.97,2.35 -7.32,3.77 -1.35,3.59 -2.84,7.12 -4.69,10.48 -4,6.69 -6.62,14.52 -5.9,22.39 0.43,4.98 0.72,10.08 -0.52,14.98 0.56,0.58 1.12,1.17 1.69,1.76 -1.14,3.71 -3.14,8.34 -0.89,11.94 -2.3,5.76 -7.35,9.48 -12.08,13.13 -3.02,2.22 -4.88,5.91 -8.53,7.23 -2.2,1.16 -3.26,3.6 -4.93,5.35 -3.55,3.9 -7.15,7.85 -11.51,10.87 4.27,-5.53 9.16,-10.55 13.29,-16.19 2.39,-3.39 5.46,-6.27 7.49,-9.92 -4.51,3.27 -8.34,7.33 -12.68,10.81 -2.75,2.18 -5.23,4.68 -7.55,7.32 -0.44,-0.02 -1.33,-0.06 -1.77,-0.08 -3.43,4.05 -7.16,7.85 -10.33,12.11 -2.19,3.14 -3.6,6.79 -6.09,9.73 -1.53,1.61 -3.81,1.47 -5.83,1.38 -0.42,0.36 -1.24,1.08 -1.66,1.44 -0.3,-0.19 -0.91,-0.58 -1.22,-0.77 -4.52,3.99 -10.4,5.76 -15.42,8.97 -5.8,3.33 -10.65,7.98 -15.55,12.46 -3.54,3.23 -6.25,7.24 -8.38,11.51 -4.69,7.6 -9.29,15.45 -11.72,24.11 -0.98,4.6 -2.3,9.11 -3.15,13.73 -1.3,-3.47 -2.3,-7.06 -3.730001,-10.48 -3.1,-7.05 -1.68,-14.91 -2.01,-22.36 -0.46,-6.4 1.28,-12.61 2.32,-18.86 0.650001,-4.37 3.140001,-8.14 5.800001,-11.55 3.57,-4.48 6.5,-9.43 9.96,-14 2.03,-2.65 3.99,-5.35 5.78,-8.16 -3.74,-0.35 -6.97,1.53 -10.01,3.4 l 0.55,-1.32 c -5.21,1.93 -10.59,3.35 -15.980001,4.69 -3.11,0.71 -5.55,2.89 -8.32,4.33 -3.43,1.81 -6.91,3.65 -9.84,6.23 -3.53,3.14 -7.49,5.78 -10.8,9.18 -5.05,4.27 -10.29,8.45 -14.21,13.85 -2.66,3.78 -5.02,7.76 -7.11,11.88 -1.87,3.66 -4.55,6.89 -5.99,10.77 -1.01,2.68 -1.94,5.39 -3.07,8.02 -0.45,-4.11 -0.56,-8.26 -1.4,-12.31 -1.71,-7.68 0.17,-15.48 0.85,-23.17 0.67,-4.61 0.14,-9.35 1.4,-13.88 0.95,-4.51 3.23,-8.55 4.86,-12.82 1.25,-3 2.39,-6.08 4.21,-8.79 4.12,-5.77 8.33,-11.52 13.28,-16.63 2.59,-2.73 5.97,-4.55 8.49,-7.35 2.04,-2.27 4.03,-4.58 5.91,-6.97 -9.83,0.76 -19.73,1.43 -29.33,3.84 -4.29,1.24 -8.72,2.51 -12.31,5.26 -3.52,2.69 -7.52,5 -10.04,8.76 -3.22,4.75 -7.13,8.98 -10.75,13.42 -2.88,3.64 -6.47,6.88 -8.07,11.36 -0.31,2.27 -0.2,4.57 -0.27,6.86 -1.21,-2.61 -2.74999998,-5.14 -3.27999998,-8 -0.7,-5.35 0.57,-10.68 0.38,-16.04 -0.01,-5.82 0.12,-11.8 2.22999998,-17.3 2.42,-7.28 4.94,-14.82 10.02,-20.74 1.25,-1.52 2.24,-3.22 3.23,-4.91 3.3,-5.84 8.41,-10.33 12.49,-15.6 1.04,-1.31 1.56,-2.94 1.94,-4.55 1.34,-7.09 4.95,-13.61 5.56,-20.87 0.45,-5.34 1.34,-10.71 3.46,-15.67 1.04,-2.54 2.58,-4.83 3.72,-7.32 0.96,-2.14 1.13,-4.57 2.24,-6.66 3,-3.28 6.66,-5.91 9.44,-9.4 1.53,-1.96 4.04,-2.7 6.09,-3.98 5.05,-2.53 9.18,-7.49 15.32,-7.17 1.42,-1.39 2.73,-2.93 4.4,-4.03 1.69,-0.87 3.59,-1.23 5.31,-2.05 1.88,-1.29 3.41,-3.11 5.52,-4.06 3.98,-1.75 8.460001,-1.54 12.560001,-2.87 2.5,-0.83 5.14,-0.88 7.74,-0.92 -0.12,-0.34 -0.36,-1.01 -0.47,-1.35 4.61,-0.35 9.02,-1.99 13.65,-2.14 5.7,-0.32 11.61,-1.17 17.14,0.71 1.26,-0.71 2.72,-1.19 3.69,-2.31 1.17,-1.37 1.1,-3.26 1.41,-4.93 0.43,-3.31 1.44,-6.82 0.07,-10.04 -0.99,-3 -3.27,-5.34 -5.74,-7.19 -3.96,-2.93 -8.83,-4.15 -13.03,-6.65 4.77,-0.91 9.55,0.45 14.23,1.28 6.05,0.95 11.09,4.65 16.1,7.91 3.69,2.24 4.82,6.62 6.78,10.18 1.22,2.13 1.52,4.59 1.98,6.95 4.07,-4.85 9.62,-8.25 13.07,-13.62 2.72,-2.63 6.11,-4.66 8.14,-7.94 2.3,-3.82 2.81,-8.39 2.73,-12.76 -0.1,-4.5 0.49,-9.18 -1.41,-13.43 m -78.37,91.16 c -2.55,1.42 -5.5,2.13 -7.76,4.04 -3.97,3.28 -7.450001,7.14 -10.480001,11.3 -1.98,0.31 -2.73,2.32 -3.72,3.78 -1.3,2.27 -3.05,4.24 -4.39,6.48 -0.63,3.26 -0.98,6.6 -2.47,9.63 3.53,0.11 6.62,-1.83 9.32,-3.87 3.16,0.83 5.88,2.88 9.130001,3.38 0.21,0.61 0.63,1.84 0.84,2.46 0.45,-0.52 1.34,-1.55 1.79,-2.07 0.47,2.03 0.55,4.32 2.16,5.86 1.71,1.64 2.32,3.93 2.95,6.13 0.44,0.29 1.33,0.87 1.77,1.16 -0.05,2.48 0.2,4.96 1.82,6.96 0.77,-0.09 2.31,-0.28 3.09,-0.37 -2.59,2.53 -5.32,4.89 -8.09,7.22 -1.83,0.34 -3.76,0.57 -5.41,1.5 -1.57,2.82 -0.54,6.3 -0.56,9.37 1.83,-1.01 3.31,-2.5 4.74,-4 0.11,0.76 0.33,2.28 0.44,3.04 2.37,-3.58 5.63,-6.53 9.2,-8.86 2.71,-0.47 5.55,-0.03 8.18,-1.1 -0.23,0.56 -0.68,1.67 -0.9,2.22 0.99,0.01 2.97,0.04 3.96,0.05 0.09,0.72 0.26,2.16 0.34,2.88 4.49,-1.82 7.69,-5.83 12.39,-7.18 -4.1,4.58 -7.96,9.59 -10.18,15.38 -1.4,3.01 0.61,6.21 3.38,7.5 -0.07,0.46 -0.21,1.37 -0.28,1.83 1.72,-0.79 3.42,-1.6 5.13,-2.38 -0.42,1.53 -0.59,3.18 -1.38,4.59 -1.72,2.08 -4.19,3.35 -5.96,5.37 -1.99,4.36 3.18,8.19 7.12,7.21 2.15,-0.52 3.4,-2.46 4.71,-4.06 0.42,0.22 1.27,0.65 1.69,0.87 2.94,-3.01 6.19,-5.81 10.07,-7.55 2.43,-1.03 4.38,-2.82 5.98,-4.89 0.86,-0.17 1.72,-0.34 2.58,-0.51 1.78,5.09 6.44,8.45 8.1,13.64 2.63,-0.63 4.82,-2.22 6.96,-3.79 3.97,-2.8 9.03,-3.28 13.16,-5.72 3.34,-2.72 4.83,-6.97 6.3,-10.88 0.34,0.09 1.04,0.26 1.38,0.35 0.14,-0.61 0.41,-1.83 0.55,-2.44 0.4,0.28 1.2,0.83 1.6,1.11 1.88,-6.1 0.76,-12.54 0.24,-18.75 -3.52,3.44 -6.05,7.62 -8.66,11.74 -0.64,-4.69 -0.55,-9.53 -2.08,-14.06 -0.74,-1.73 -2.51,-2.76 -3.24,-4.48 -0.48,-1.55 -0.7,-3.16 -0.97,-4.75 -0.42,0.2 -1.27,0.6 -1.7,0.81 -0.14,-0.54 -0.43,-1.61 -0.58,-2.14 -0.36,0.5 -1.08,1.5 -1.45,2 -3.44,-6.55 -8.56,-12.62 -9.33,-20.26 -0.59,0.56 -1.76,1.67 -2.35,2.23 1.09,-5.06 2.35,-10.21 5.24,-14.58 0.92,-1.85 2.9,-3.45 2.38,-5.73 0.86,-0.91 1.71,-1.81 2.57,-2.71 -3.38,-0.08 -6.73,-0.57 -10.11,-0.7 -3.86,-0.13 -7.2,2.11 -10.48,3.83 -3.08,-1.46 -6.49,0.14 -9.37,1.36 -3.57,1.61 -4.76,5.65 -5.86,9.06 -0.86,-2.78 -1.47,-5.82 -3.57,-7.98 -1.87,-1.95 -3.84,-3.82 -5.3,-6.12 -0.7,1.18 -1.39,2.37 -2.08,3.56 -0.76,-2.35 -1.55,-4.69 -2.43,-7 -2.68,-1.32 -3.44,-4.69 -5.23,-6.91 -4.89,2.17 -10.25,3.2 -14.89,5.94 z"/>
</svg>
