<?xml version="1.0" encoding="UTF-8" standalone="no"?>
<svg xmlns="http://www.w3.org/2000/svg" width="475.64941pt" height="238.77734pt" viewBox="0 0 475.64941 238.77734" version="1.1">
  <path d="M 175.11035,4.8943161e-4 C 171.30137,0.04478443 168.20909,3.079181 164.84033,4.627931 c -9.24,4.0999995 -17.11962,10.609297 -24.61962,17.279297 -3.48,3.19 -7.57014,5.570195 -11.89014,7.450195 l 3.75879,-0.439453 c -2.51,4.84 -7.47957,7.470391 -11.80957,10.400391 2.35,-0.8 4.71964,-1.550333 7.13965,-2.090332 -2.74,3.23 -6.13957,5.789746 -9.55957,8.239746 0.99,-0.22 2.97997,-0.650117 3.97998,-0.870117 -1.53,2.67 -3.64936,4.899746 -6.08936,6.739746 0.67,0.14 2.02971,0.419571 2.69971,0.55957 -1.3,0.95 -2.61018,1.890078 -3.93018,2.830079 -2.05,-1.910001 -4.07965,-3.86922 -6.38965,-5.449219 -5.52,-3.66 -10.92101,-7.729806 -17.291015,-9.799805 -2.269995,-0.71 -4.288628,-1.999668 -6.34863,-3.159668 2.769997,2.49 5.58996,4.919473 8.70996,6.959473 -3.620003,-1.160001 -7.041038,-2.820743 -10.311038,-4.760742 0.730005,0.929999 2.1909,2.780448 2.920898,3.710448 -4.629998,-0.83 -8.520135,-3.679804 -11.890133,-6.799804 -2.630003,-2.39 -5.451,-5.100527 -9.270997,-5.040527 2.690002,2.389999 5.761169,4.401035 7.951169,7.311035 -3.259995,0.07 -5.990271,-1.701329 -8.780271,-3.111329 -5.289999,-2.91 -11.940723,-3.049473 -16.240723,-7.709472 -3.77,-4.55 -9.829785,-5.799356 -14.529785,-9.089356 1.8,2.04 3.47002,4.199454 5.02002,6.439453 -3.040001,-1.2 -5.809121,-2.98996 -8.849122,-4.209961 -7.619999,-3.32 -15.72041,-5.509746 -22.9204104,-9.739746 3.24,2.68 7.0699804,4.619473 9.9799804,7.709473 -3.259999,-0.68 -6.020937,-2.680078 -9.2109372,-3.580078 C 4.6893361,13.717228 2.34,12.947227 0,12.157228 c 2.22,2.18 4.3704496,4.72041 7.4604496,5.67041 3.9299994,1.25 7.9799804,2.370371 11.4799804,4.630371 2.54,1.71 3.569179,4.729043 4.409179,7.519043 0.890001,3.08 2.330528,5.960898 3.540528,8.920899 -3.15,-2.1 -6.410097,-4.139883 -10.100098,-5.129883 -3.3,-0.7 -5.85,-3.081114 -8.9999996,-4.141113 C 5.4100388,28.736954 3.0000195,27.91715 0.52001926,27.32715 c 1.94000024,1.94 4.06941454,3.689981 6.14941434,5.47998 3.2000003,2.81 7.4500784,3.830645 11.0800784,5.910645 1.42,1.07 2.360157,2.630039 3.410156,4.040039 -2.219999,-0.71 -4.389375,-1.579551 -6.609375,-2.289551 2.19,1.85 4.859883,3.229278 6.629883,5.509278 1.32,3.74 3.109805,7.3308 6.049804,10.070801 -1.269999,-0.21 -2.540312,-0.410333 -3.820312,-0.590333 -0.25,1.03 -0.499805,2.060313 -0.799805,3.070313 0.81,1.72 1.729864,3.398731 2.359864,5.198731 -0.1,1.87 -1.269141,3.490958 -1.869141,5.230958 3.39,3.06 6.899473,5.999903 9.959473,9.3999 2.1,2.58 5.690528,3.019553 8.040527,5.289555 -5.149999,-0.400005 -9.2908,-4.029555 -13.8208,-6.039555 3.769999,3.560003 8.250312,6.17004 12.820312,8.54004 3.64,1.130003 7.429922,1.940355 10.669922,4.110353 -1.47,-1.569998 -2.909258,-3.151313 -4.239257,-4.84131 2.919999,0.500002 6.008593,1.121325 8.308593,3.11133 1.88,1.53 4.070626,2.5698 6.140625,3.7998 -0.959999,-0.999998 -2.879355,-3.01074 -3.839355,-4.010738 2.85,1.179998 5.679394,2.44965 8.629394,3.389648 2.469997,0.78 4.059374,2.991187 5.859374,4.72119 -2.000002,0.84 -4.289647,1.799437 -6.389647,0.669435 -3.89,-1.719998 -8.43,-1.530293 -12,-4.050293 -4.610001,-3.189997 -10.029492,-5.329822 -15.729492,-5.069827 4.669999,3 9.510371,6.129922 15.130371,6.919927 2.979999,1.209998 5.539258,3.400853 8.739258,4.130858 3.88,0.859995 7.69051,2.109356 11.270508,3.839356 3.51,3 7.119495,5.8798 10.479495,9.0498 0.169995,-2.71 0.539955,-5.40053 1.20996,-8.04053 4.449998,0.12 6.830273,4.18106 10.280273,6.33106 -0.57,0.39 -1.140683,0.7892 -1.700685,1.1792 0.21,3.92 -1.188945,7.6508 -3.418943,10.8208 -2.270002,3.13 -3.210592,6.94028 -5.100592,10.28027 0.760005,-0.57 2.270512,-1.71101 3.020512,-2.29101 -0.51,4.32 -2.55012,8.16039 -4.62012,11.90039 2.020005,-2.46 3.669315,-5.37998 6.549315,-6.97998 -0.969997,4.24 -3.639472,7.73988 -6.209467,11.12988 0.409995,2.05 0.799605,4.12031 1.599607,6.07031 -1.089997,2.69 -2.35002,5.31022 -3.52002,7.97022 1.599998,0.2 3.200295,0.41013 4.800293,0.64013 -0.579998,1.66 -1.190295,3.31875 -1.800293,4.96875 0.560003,-0.54999 1.679745,-1.63994 2.239748,-2.18994 0.429997,8.97 -4.83996,16.72104 -6.45996,25.31104 2.569995,-3.7 4.35006,-7.87111 6.81006,-11.64111 -1.480005,4.16 -3.288795,8.19996 -4.50879,12.45996 1.959997,-2.31 3.848962,-4.68881 5.438962,-7.27881 2.270003,-3.69 5.180273,-6.971 7.280273,-10.771 2.829997,-5.06 5.77072,-10.10934 9.49072,-14.56933 2.3,-2.73 3.80903,-6.02087 6.24903,-8.63087 3.69,-4.18999 6.93013,-8.7489 9.64013,-13.6289 0.47,-0.19 1.43016,-0.57025 1.91016,-0.76025 3.61,-3.87 6.26938,-8.47028 9.60938,-12.53028 1.08999,-1.85999 3.35105,-0.90011 4.83105,-0.12011 1.39,1.68999 1.39006,4.01961 1.56006,6.0996 2.43,0.28 4.71881,1.08028 6.52881,2.78028 2.58,2.36 6.26035,1.81978 9.36035,1.02978 -4.97,-1.08999 -9.77908,-2.87884 -13.80908,-6.06885 3.52,0.88001 6.83963,2.39897 10.36962,3.18897 2.84001,0.11 5.14977,-2.19906 8.00977,-2.03906 3.85,-0.25 7.08938,2.06949 10.35938,3.72949 3.21,1.62 6.03078,4.28043 7.30078,7.69043 2.07,4.77 5.84942,8.59 7.64942,13.5 2.29999,5.73 4.93013,11.35916 8.14013,16.63916 2.26,2.54 4.4608,5.17998 5.5708,8.47999 0.16,-0.81 0.48014,-2.40973 0.64014,-3.21973 0.96999,2.53 1.86873,5.09056 2.94873,7.58056 0.84,2.28 2.95002,3.70016 4.27002,5.66016 4.38999,6.58 9.58101,12.58017 14.29101,18.93018 2.7,3.61999 6.01961,6.65896 9.09961,9.93896 -1.3,-0.17 -3.91949,-0.48918 -5.22949,-0.65918 2.38,1.06 5.5389,1.29987 6.87891,3.85986 4.08999,6.06 7.17048,12.88938 8.50048,20.10938 2.29001,-6 3.01967,-12.43991 5.40967,-18.3999 1.75,-4.82 3.22071,-9.73971 4.4707,-14.69971 1.02,-4.11 3.16035,-7.81975 5.61036,-11.23975 1.01,-1.35 1.5597,-2.96082 1.9497,-4.59081 0.88,-3.82001 2.73948,-7.34905 3.20948,-11.26905 0.55,-4.38 2.34978,-8.52094 2.52978,-12.96094 0.31,-5.49 1.72036,-10.82883 3.36035,-16.04883 1.38,-4.27 1.73065,-8.7801 2.91065,-13.1001 1.54,-6.30999 4.74891,-12.19095 5.37891,-18.73095 0.64999,-5.41 1.39032,-10.84035 2.84033,-16.11036 1.69,-5.789996 7.0106,-9.929779 7.8706,-16.029776 0.61,-3.730005 2.10932,-7.239968 2.79932,-10.959968 0.74,-4.879995 4.85098,-8.229021 8.75098,-10.749021 1.53,-1.06 3.48974,-0.670058 5.23975,-0.810058 1.89,1.53 3.80976,3.009238 5.75976,4.469239 -1.85,0.99 -3.88004,1.700003 -5.54004,3 -1.69,1.760003 -3.35055,3.600233 -5.56055,4.740233 0.74,0.680002 1.48096,1.350277 2.23096,2.030272 -1.47,2.290005 -3.19119,4.629165 -6.22119,4.639163 0.2,0.519997 0.59101,1.570582 0.79101,2.100585 -0.46,-0.12 -1.3901,-0.360465 -1.8501,-0.480465 -0.45,0.459997 -1.35003,1.379842 -1.79004,1.83984 -1.43,1.86 -1.85029,4.051252 -1.05029,6.28125 0.28,0.33 0.81985,0.989827 1.08985,1.319827 1.30999,1.29 -0.8396,2.568848 -1.8296,3.068843 -0.48,3.69 -2.67087,6.800726 -3.90087,10.240726 -1.86,5.1 -4.92008,9.78973 -5.83008,15.21973 -1.09,5.43999 -0.01,11.01999 -0.67969,16.5 -1.22,5.49999 -3.37998,10.75021 -4.72998,16.22021 1.03,5.7 -1.26974,11.31965 -2.23975,16.88965 -0.43,3.42 -3.23935,5.69067 -4.58935,8.68066 -1.27,13.72 -6.37056,26.77044 -12.08057,39.19044 3.66,-3.70001 8.35948,-6.0813 12.20948,-9.57129 3.15,-2.53 5.34039,-5.97912 8.15039,-8.84913 6.10999,-5.51 6.11974,-14.4696 10.48974,-21.0996 0.16,0.96 0.4711,2.87935 0.6211,3.83935 1.92,-4.26 2.52953,-9.51065 6.26952,-12.66065 0.54,-1.17999 1.05962,-2.35881 1.59962,-3.52881 0.55999,0.07 1.67974,0.22884 2.23975,0.29883 5.78999,-9.12999 8.20029,-19.83999 11.55029,-30 1.74,-0.23 3.5,-0.43968 5.25,-0.67968 -0.05,0.38 -0.13018,1.14051 -0.18018,1.5205 3.3,-0.91 6.71086,-1.44055 10.13086,-1.06054 2.09,0.3 4.82965,-0.98932 6.38965,0.95068 1.37,0.1 2.73959,0.28969 4.07959,0.67969 1.25,-2.17 2.95022,-4.01999 4.97021,-5.47998 0.87,3.34 1.18005,7.65979 4.79004,9.27978 1.48,1.81 3.07024,3.52994 4.74024,5.18995 -1.25,-5.06001 -3.27951,-9.89052 -4.24951,-15.02052 1.84999,2.88 4.69941,5.28003 5.39941,8.77002 0.59,2.21001 1.40043,4.36137 2.44043,6.40137 -0.38,-3.12 -1.18057,-6.16125 -1.58057,-9.28125 2.77,3.01 4.40958,6.83002 6.55957,10.27002 2.08001,4.1 5.27069,7.47108 7.70069,11.35107 0.78,1.38 2.00919,2.37006 3.4292,3.06006 0.69,1.73001 1.39084,3.45969 2.11084,5.17969 0.08,-0.75 0.24959,-2.2705 0.32958,-3.0205 0.74001,1.84999 1.7395,3.58038 2.9795,5.15039 0.33,-1.25 0.64043,-2.50026 0.94043,-3.76026 0.62,1.87 1.31078,3.7308 2.05078,5.5708 0.32,-0.15 0.97957,-0.46109 1.30957,-0.62109 1.26,2.35 2.79918,4.50109 4.40918,6.6211 -0.4,-2.12001 -0.70897,-4.24086 -0.93896,-6.38086 0.72999,1.75999 1.30911,3.57005 2.09912,5.31005 1.14,2.41001 3.15045,4.26008 4.46044,6.58008 1.34001,2.32 2.59018,4.69979 3.93018,7.02979 -0.01,-1.4 -0.0308,-4.18985 -0.0308,-5.58985 0.74001,5.41001 3.48051,10.11034 6.02051,14.84033 0.75,-5.37 -0.40928,-10.62075 -1.75928,-15.78075 0.81,-1.51001 1.23014,-3.24895 0.64014,-4.91895 -1.17,-5.39 -4.30047,-10.01122 -6.48047,-14.99122 3.55001,3.64001 6.44002,7.8511 9.52002,11.8711 -1.5,-7.84 -7.55998,-13.58101 -9.97998,-21.04102 -0.91,-3.17 -3.42086,-5.43885 -4.88086,-8.31885 -3.19,-6.46999 -4.06912,-13.73043 -6.59912,-20.44042 -1.15,-3.47 -2.51026,-6.86078 -3.76025,-10.30079 1.35,0.49 2.69978,1.01057 4.02978,1.58057 4.44,-1.1 8.36057,-3.66017 12.83057,-4.68017 2.41,-0.52 4.58027,-1.71922 6.53027,-3.19923 3.81,-2.89999 8.13984,-5.08042 11.58984,-8.44042 2.74001,-2.770006 6.58946,-3.989379 9.43946,-6.609376 1.72,-1.47 3.41033,-2.97 5.09033,-4.5 0.07,-1.370003 0.49914,-2.80137 1.86914,-3.40137 2.29,-1.419998 4.66038,-2.699258 6.88038,-4.239255 -0.49001,-0.250005 -1.48047,-0.740235 -1.98048,-0.99024 l 0.61084,-1.589355 c -3.58999,1.83 -7.88021,3.390022 -11.72021,1.27002 1.44,-2.019998 3.50938,-3.410408 5.85937,-4.170405 5.84001,-2.030003 10.92096,-5.630258 16.48096,-8.26026 5.04,-2.469998 9.71955,-5.569821 14.28955,-8.819821 -3.77,0.93 -7.58057,1.709707 -11.33057,2.699707 4.51001,-5.48 11.06014,-8.669824 15.64014,-14.069824 -6.51,2.13 -10.75953,8.300312 -17.51953,9.820312 2.07,-2.19 5.30971,-3.709531 5.69971,-7.019531 1.14,-1.17 2.32002,-2.321172 3.52002,-3.451172 -1.12,0.39 -3.36975,1.180566 -4.48975,1.580567 1.63,-1.74 3.6101,-3.049825 5.6001,-4.319825 1.82,-1.149999 3.02959,-3.010664 4.82959,-4.180664 1.98,-1.32 3.97988,-2.610293 5.87988,-4.050293 -0.99,-0.68 -1.97924,-1.339258 -2.96924,-1.989258 -3.48,1.46 -6.75037,3.770176 -10.63037,3.930176 4.52,-3.82 10.35084,-5.660273 14.86084,-9.530273 -5.36,1.239999 -9.93109,5.110215 -15.62109,4.970214 0.28,-2.72 2.85105,-3.799629 4.83105,-5.119629 2.01,-1.25 2.89912,-3.760995 5.09913,-4.770996 3.27,-1.48 6.39017,-3.279082 9.18017,-5.559082 -1.52,-0.2 -3.02955,-0.411093 -4.53955,-0.621093 0.25,-0.500001 0.74903,-1.52002 0.99902,-2.02002 -0.44,-0.2 -1.31928,-0.610059 -1.75927,-0.810059 3.01999,-1.94 6.29976,-3.609785 8.75976,-6.2797852 1.6,-1.7599995 3.22945,-3.4701368 4.93945,-5.1401363 -4.11999,2.1499995 -8.33961,4.1406248 -12.0996,6.8906255 -4.31002,3.049999 -9.28977,4.869824 -14.23977,6.569823 0.26001,0.490001 0.75928,1.469961 1.00928,1.959962 -1.69,1.189999 -3.61877,1.990332 -5.48877,2.840332 -0.36,-0.4 -1.06064,-1.200821 -1.41065,-1.590821 -0.85999,0 -2.57945,2.54e-4 -3.43944,0.01025 -1.46001,1.31 -2.80095,2.750078 -3.96094,4.330078 -0.63,-0.26 -1.24914,-0.519297 -1.86914,-0.779297 -0.32001,2.4 -1.61041,4.369433 -3.42042,5.919434 -0.31999,-0.58 -0.93951,-1.740313 -1.2495,-2.320313 -1.25001,0.18 -2.48975,0.321113 -3.73975,0.391113 -0.84,2.260001 -1.68039,4.800059 -4.40039,5.310059 0.42,-2.15 1.14906,-4.22998 2.03906,-6.22998 -2.46,1.91 -5.34989,3.058926 -8.12988,4.398925 -2.42,1.08 -3.59016,3.661153 -5.66016,5.181153 -2.26,1.15 -4.78891,1.739219 -6.8789,3.199218 -2.27001,1.71 -3.8603,4.100098 -5.5503,6.350098 -0.09,-1.819999 -0.2108,-3.630683 -0.3208,-5.450684 -1.77,1.400001 -3.6399,2.670899 -5.6499,3.670899 -3.4,1.69 -6.49988,4.229473 -10.37988,4.709473 -4.45001,0.64 -8.68997,2.329785 -13.20997,2.529785 -3.34,0.56 -6.34918,2.291211 -9.65917,2.991211 -3.74001,0.77 -7.4902,1.498653 -11.2002,2.368653 -1.79,0.579999 -3.65947,0.240957 -5.45947,-0.01904 1.11,-1.22 2.26945,-2.399824 3.43945,-3.569824 -2.06,-1.55 -4.2798,-2.941055 -6.0498,-4.831055 -0.9,-0.6 -1.79067,-1.189531 -2.68067,-1.769531 -1.5,-3.35 -4.1499,-6.129805 -4.8999,-9.799805 -0.31,-2.49 -3.30912,-4.860274 -1.34912,-7.280273 -6.22,-5.530001 -14.59131,-9.319629 -18.34131,-17.119629 1.93,0.36 3.85002,0.789511 5.77002,1.249511 -2.32,-1.64 -4.50922,-3.489062 -6.19922,-5.7890627 -0.18,-1.8399998 -0.18059,-4.1813476 -2.10059,-5.1313478 -3.81,0 -7.66915,1.0700197 -11.38916,-0.22998 1.35,-0.9399998 2.73991,-1.8294533 4.14991,-2.68945356 -3.27001,-0.36999975 -6.54058,-0.68962876 -9.83057,-0.61962901 -5.96,-0.45999975 -11.3204,3.32978557 -14.90039,7.77978537 -1.89,0.6400005 -3.93928,1.0493558 -5.50928,2.3393557 -1.85,1.38 -2.11994,3.841289 -2.93994,5.821289 0.96,-0.09 2.87057,-0.291113 3.83057,-0.391113 -0.80001,3 -2.0804,5.830234 -3.6504,8.490235 -0.24999,-0.890001 -0.75048,-2.679825 -1.00048,-3.569825 -1.09001,5.21 -1.39979,10.529492 -2.52979,15.729493 -0.5,10.51 -2.85967,20.940644 -6.90967,30.660647 -0.53,1.38 -1.28007,2.65941 -2.08008,3.899415 0.46,3.6 -0.24041,7.160115 -1.17041,10.620113 -1.18,3.980002 -1.07988,8.180175 -2.12988,12.18018 -1.21,4.38 1.52063,8.659594 0.89063,13.079584 -0.62001,4.13001 0.0496,8.861 -2.84034,12.271 -0.15999,4.49 0.27987,9.03949 -0.64013,13.47949 -0.73,4.01 -1.07065,8.08063 -1.41064,12.14062 -0.14001,3 -1.47979,5.76952 -1.77979,8.74952 -0.69,7.59 -0.21023,15.40978 -2.49023,22.77979 -0.62001,2.49999 -1.37952,4.96019 -1.99952,7.45019 -0.78,7.13 0.6899,14.44047 -1.1001,21.48046 -2.29999,-3.27999 -3.1804,-7.26007 -4.1704,-11.08007 -0.75,-2.42 -0.13001,-4.94039 0,-7.40039 0.40999,-5.72 -1.44006,-11.37059 -0.81006,-17.10059 0.33,-2.88999 1.26019,-5.809 0.70019,-8.729 -0.92,-2.53 -2.43031,-4.83045 -3.07031,-7.46045 -1.01,-4.89 -1.08936,-9.93027 -2.33936,-14.78027 -1.12,-5.42001 -2.58033,-10.76997 -3.59033,-16.20996 -0.7,-3.58 -0.81006,-7.23909 -1.56006,-10.80909 -0.61,-3.36 -2.13929,-6.52119 -2.2793,-9.97119 -0.28999,-4.360002 -1.4907,-8.578902 -2.2207,-12.878907 -0.66,-4.14 -2.67883,-7.920307 -3.29882,-12.070313 -0.53001,-2.989995 -0.71091,-6.12963 -2.1709,-8.869627 -1.14,-2.27 -2.1992,-4.610605 -2.6792,-7.120605 -0.59001,-3.33 -2.59053,-6.139844 -3.54053,-9.339844 -1.87,-7.86 -3.16978,-15.859844 -5.52979,-23.589844 0.22,4.67 1.56,9.23041 1.5,13.92041 0.06,4.01 -0.79998,7.958868 -1.72998,11.838867 -1.41,-3.109999 -1.49016,-6.539863 -1.91016,-9.859863 -0.33,-2.92 -1.6598,-5.579922 -2.2998,-8.419922 -1.26,-6.39 -4.84054,-11.939746 -7.06054,-17.989746 -1.68,-4.86 -4.52048,-9.30959 -7.98047,-13.0795903 -2.96001,-1.1000002 -5.76889,-2.530371 -8.60889,-3.88037102 -0.57625,-0.12875025 -1.13604,-0.1835745 -1.68018,-0.17724524839 z M 25.369629,50.377932 c 1.31,0.559999 2.611133,1.149023 3.911133,1.749023 l 0.0791,2.121094 c 2.55,1.059999 6.150762,1.330117 6.780762,4.620117 -4.52,-1.100001 -8.870996,-4.130235 -10.770995,-8.490234 z M 173.58252,53.52881 c 2.02354,0.05596 3.43594,2.279004 3.11719,4.229004 0.51,0.21 1.55104,0.610312 2.06104,0.820312 1.95,5.970001 5.93988,10.969588 8.12988,16.829593 0.69,1.929997 1.61889,3.760035 2.60889,5.54004 1.48999,2.529997 1.52064,5.53935 2.16064,8.339355 0.92,3.849997 2.71982,7.41123 4.31982,11.011226 1.56,3.89 2.90975,7.84901 4.48975,11.72901 0.19,-0.87 0.55096,-2.58996 0.73096,-3.45996 -0.82,-3.04001 -1.19108,-6.15954 -1.60108,-9.269538 2.1,3.119998 5.0899,5.430348 7.89991,7.860348 -1.01001,1.21001 -2.05911,2.38008 -3.07911,3.58008 0.55,0.31 1.63995,0.91875 2.18994,1.21875 0.18,4 1.36038,8.00065 3.88038,11.16065 1.38,1.51 1.28904,3.60953 1.51904,5.51953 -1.48,-3.37 -4.2902,-5.63887 -7.45019,-7.33887 0.84,4.42 2.80083,8.52922 3.61083,12.94922 0.76,4.07 3.31,7.45987 4.5,11.35987 1.34001,5.71999 1.89973,11.57966 2.46973,17.40966 0.45,5.42 3.36006,10.18041 4.56006,15.42041 -0.98,-1.96999 -2.95043,-5.89914 -3.94043,-7.86914 1.13,4.06 2.02092,8.30975 4.19092,11.98975 1.65999,2.88 1.43961,6.3192 2.3496,9.4292 0.77001,2.14 2.00032,4.06006 3.07032,6.06006 2.57,4.56 3.45957,9.79021 5.05957,14.72021 -2.61,-4.60999 -4.16998,-9.70029 -6.22998,-14.55029 -1.74,-4.99 -5.96959,-8.44967 -8.57959,-12.90967 -0.51,-2.33 -0.11067,-4.74984 -0.43067,-7.08984 -0.46999,-2.38 -1.66953,-4.52026 -2.51953,-6.76026 -1.32,-3.19 -1.42982,-6.73967 -2.81982,-9.90967 -1.39,-3.46 -3.65988,-6.48967 -5.12988,-9.90967 -1.62,-3.55999 -1.92132,-7.77062 -4.84131,-10.64062 -0.04,-0.64 -0.12993,-1.92934 -0.16992,-2.56934 -2.36001,-1.92999 -3.50969,-4.82027 -5.17969,-7.28027 1.79,1.6 3.67965,3.14981 5.63965,4.54981 -1.43001,-2.61 -3.25917,-4.98029 -5.38917,-7.05029 -4.38999,-3.99 -6.74085,-9.55007 -10.13085,-14.31006 0.33,-0.38001 0.99129,-1.14026 1.32129,-1.51026 -1.79001,-7.8 -5.73094,-14.889161 -7.71094,-22.639159 -1.12,-4.65 -3.50981,-8.970547 -3.79981,-13.810545 -0.33,-2.890005 0.22008,-5.9292 -0.91992,-8.679202 -1.17,-3.03 -2.77068,-5.95998 -3.20068,-9.229981 -0.14,-2.01 1.48008,-3.63041 2.83008,-4.92041 0.14,-0.01625 0.27818,-0.02277 0.41308,-0.01904 z m 129.48487,4.013672 c 0.30356,0.0015 0.6076,0.01666 0.91259,0.04541 2.31,0.87 4.41956,2.220195 6.78956,2.950195 h -2.69971 c 0.72,1.44 1.43084,2.889375 2.11084,4.359375 -4.01,-2.02 -8.14129,-3.839473 -12.57129,-4.709473 -1.96,1.16 -3.49961,2.889961 -5.34961,4.209961 1.25,-2.019999 2.46012,-4.320996 4.62012,-5.520996 1.97749,-0.72625 4.06262,-1.345137 6.1875,-1.334473 z m 147.74267,10.545409 c -2.81,0.99 -5.60986,1.999163 -8.35986,3.139163 -3.83,1.610002 -6.53076,4.929885 -9.78076,7.37988 6.78,-2.119995 12.64063,-6.14904 18.14062,-10.519043 z m -40.4707,27.949223 c -2.43,2.709997 -5.56969,4.660506 -8.92969,6.020506 -4.03,1.62 -7.63957,4.17068 -11.80957,5.45068 -0.48,-0.33 -1.4199,-0.98078 -1.8999,-1.30078 1.98,-0.21 3.40977,-1.64041 5.00976,-2.67041 1.89,-1.29 4.10948,-1.89951 6.20948,-2.74951 3.85,-1.500001 7.38992,-3.720489 11.41992,-4.750486 z"/>
</svg>
