<?xml version="1.0" encoding="UTF-8" standalone="no"?>
<svg xmlns="http://www.w3.org/2000/svg" width="177.33141pt" height="293.25638pt" viewBox="0 0 177.33141 293.25638" version="1.1">
  <path d="m 55.063777,2.7163763 c 2.24,-0.51 4.06,-2.55999999 6.51,-1.96999999 2.92,0.37999999 5.77,-0.8 8.69,-0.49 3.74,0.29 7.5,0.1 11.23,-0.17 4,-0.41 7.92,0.77 11.9,0.82 3.59,-0.05 6.970003,1.27999999 10.380003,2.18999999 7.62,2.3 15.43,4.11 22.75,7.3099997 3.06,1.3 6.3,2.2 9.21,3.85 2.33,1.4 5.08,1.65 7.56,2.66 -0.67,0.28 -2.01,0.83 -2.68,1.11 2.43,0.81 4.33,2.53 6.13,4.26 6.45,6.06 10.76,13.88 15.99,20.91 1.89,2.22 3.07,4.9 4.49,7.41 3.02,5.11 3.91,11.08 5.59,16.69 1.37,4.45 4.49,8.45 4.26,13.31 -0.21,5.97 0.75,11.97 -0.1,17.91 -0.5,3.530004 0.2,7.250004 -1.18,10.630004 -1.49,3.51 -4.15,6.31 -6.28,9.43 -3.77,5.29 -7.98,10.69 -14.1,13.36 0.13,-6.57 -0.25,-13.4 -3.19,-19.4 -1.34,-2.8 -2.36,-5.91 -4.68,-8.09 -1.88,-1.71 -4.22,-2.8 -6.37,-4.12 0.17,-2.780004 -3.11,-2.660004 -4.96,-3.420004 -1.43,-0.21 -2.06,-1.66 -2.98,-2.56 -0.98,0.04 -2.94,0.12 -3.93,0.16 0.67,0.43 1.99,1.29 2.65,1.72 -4.9,3.61 -11.02,4.840004 -16.49,7.350004 -7.53,2.1 -11.14,9.64 -16.730003,14.41 -3.71,3.98 -8.03,7.31 -11.85,11.17 -2.54,2.5 -4.14,5.73 -6.4,8.45 -2.56,2.89 -3.56,6.7 -5.28,10.08 -1.24,2.49 -0.87,5.4 -1.89,7.95 -1.63,4.5 -3.44,8.95 -5.7,13.18 -1.76,3.05 -2.2,6.61 -2.76,10.03 -0.39,2.61 -1.45,5.11 -1.47,7.79 -0.15,3.68 0.16,7.36 -0.04,11.04 -0.05,2.45 -1.29,4.63 -1.78,6.99 -0.56,4.06 -0.14,8.19 0.87,12.15 0.51,4 1.28,7.96 2.45,11.82 0.99,6.35 3.37,12.36 5.13,18.52 1.19,4.31 2.58,8.68 5.15,12.4 1.8,2.3 4.01,4.24 5.84,6.53 3.12,3.81 7.34,6.58 10.17,10.65 3.32,4.05 6.34,8.5 10.730003,11.49 1.77,1.34 2.96,3.25 4.24,5.03 -7.110003,-1.93 -14.080003,-4.43 -20.730003,-7.58 -6.72,-4.3 -13.65,-8.3 -20.14,-12.95 -6.76,-5.93 -13.94,-11.37 -20.65,-17.35 -2.06,-2.29 -3.6,-5.01 -5.79,-7.19 -3.61,-3.54 -6.02,-8.02 -8.93,-12.1 -4.18,-6.78 -6.89,-14.31 -10.25,-21.5 -1.8,-3.92 -2.99,-8.1 -4.81,-12.02 -2.58,-5.36 -4.47,-11.06 -5.7500001,-16.87 -1.07,-4.42 -3.06,-8.58 -3.88,-13.06 -2.57,-12.84 -1.79,-26.01 -1.78,-39.01 0.49,-4.15 -0.91,-8.14 -1.23,-12.24 -0.5,-3.95 -2.09,-7.72 -2.2,-11.72 -0.1,-4.39 1.81,-8.43 2.85,-12.610004 3.2,6.010004 4.45,13.530004 10.0800001,17.900004 3.61,1.22 7.96,2.43 11.51,0.43 3.97,-2.03 8.67,-2.57 12.19,-5.47 2.84,-2.37 4.98,-5.42 7.41,-8.19 1.92,-2.260004 4.14,-4.300004 5.62,-6.900004 1.56,-2.67 3.88,-5 4.58,-8.1 1.34,-5.54 1.92,-11.64 -0.33,-17.02 -0.86,-2.34 -1.57,-4.73 -2.19,-7.15 l 1.9,-0.47 c -0.52,0.06 -1.58,0.18 -2.11,0.24 0.07,-9.06 -8.03,-17.45 -17.13,-17.36 -4.19,-0.17 -9.1,-0.98 -12.43,2.25 -6.76,6.76 -14.8800001,12.59 -19.0400001,21.46 -0.34,-4.24 0.07,-8.48 1.04,-12.6 0.64,-4.89 1.99,-9.66 3.8,-14.24 1.51,-3.6 4.2200001,-6.5 5.8800001,-10.02 1.46,-3.05 2.69,-6.31 5.08,-8.79 2.78,-2.85 5.19,-6.19 8.71,-8.2 3.93,-2.31 7.58,-5.2999997 12.07,-6.4599997 5.32,-1.5 10.29,-3.99 15.57,-5.65 z"/>
</svg>
