<?xml version="1.0" encoding="UTF-8" standalone="no"?>
<svg xmlns="http://www.w3.org/2000/svg" width="310.48001pt" height="262.32999pt" viewBox="0 0 310.48001 262.32999" version="1.1">
  <path d="m 40.27,0 c 3.7,1.1 7.58,0.63 11.38,0.7 46.34,0.01 92.68,-0.03 139.02,0 13.05,-0.41 25.95,2.15 38.97,2.75 8.66,0.28 17.34,0.82 26,0.31 12.13,0.11 24.25,0.15 36.38,0.31 -11.97,2.63 -24.1,4.39 -36.22,6.2 -4.73,0.56 -9.27,2.34 -14.06,2.42 -5.51,0.19 -11.08,1.4 -16.46,-0.69 1.34,0.6 4.02,1.81 5.36,2.41 -16.36,0.74 -32.66,2.71 -49.03,3.52 -5.37,1.06 -10.83,1.15 -16.27,1.48 2.76,4.05 6.12,7.63 9.46,11.19 5.4,5.68 9.72,12.27 14.88,18.15 1.11,1.4 3,1.54 4.51,2.3 4.27,2.08 8.94,3.1 13.54,4.15 3.68,1.8 5.71,5.4 8.31,8.38 0.35,-0.05 1.03,-0.14 1.37,-0.18 0.21,1.44 -0.42,3.26 0.89,4.33 1.61,1.91 4.9,1.89 6.71,0.27 4.69,-3.63 8.65,-8.1 12.23,-12.79 4.04,-4.28 8.68,-7.92 12.95,-11.96 1.54,0.87 3.11,1.69 4.67,2.53 3.9,-1.2 7.84,-2.45 11.36,-4.57 2.29,-1.58 5.26,-1.06 7.66,-2.36 2.66,-1.32 5.34,-2.61 8.07,-3.77 -1.47,1.5 -2.94,3.01 -4.42,4.5 0.36,1.45 0.7,3.02 2.27,3.66 -0.07,0.52 -0.22,1.57 -0.29,2.1 1.82,2.53 3.05,5.85 6.24,6.96 -1.1,2.56 -2.53,4.96 -3.98,7.34 2.5,-1.46 4.98,-2.96 7.39,-4.55 1.92,0.24 3.77,-0.22 5.61,-0.73 -0.51,0.91 -1.53,2.73 -2.05,3.65 l 1.29,-0.22 c 0.75,1.25 2.15,1.63 3.37,2.21 -0.09,0.66 -0.28,1.98 -0.38,2.65 0.34,0.73 1.01,2.19 1.34,2.92 -0.67,2.79 -1.31,5.59 -1.8,8.42 2.15,1.45 4.58,2.78 7.14,1.18 -1.65,3.83 0.72,8.27 -1.95,11.83 2.73,-0.76 5.53,-1.09 8.34,-1.45 -0.5,1.66 -0.92,3.4 -0.48,5.13 -1.19,1.95 -2.75,3.62 -4.34,5.25 1.74,-0.08 3.48,-0.14 5.23,-0.2 -3.56,2.65 -6.64,6.28 -11.13,7.34 0.28,0.48 0.85,1.43 1.13,1.91 -3.52,1.12 -6.81,2.8 -10.06,4.52 -2.96,1.58 -6.47,1.91 -9.27,3.81 -2.11,1.65 -3.79,3.76 -5.65,5.68 2.32,2.34 5.08,4.27 6.87,7.09 -0.17,0.47 -0.51,1.39 -0.68,1.86 3.17,2.46 5.07,6.08 7.53,9.18 -1.22,0.66 -2.31,1.49 -3.25,2.51 1.76,1.34 3.31,2.93 4.34,4.91 -0.87,0.05 -2.61,0.17 -3.48,0.22 -1.81,3.12 1.82,5.51 2.64,8.32 -3.98,-0.72 -8.02,-1.27 -11.95,-0.01 0.15,0.43 0.45,1.29 0.6,1.72 -6.32,-0.26 -12.97,-2.45 -18.98,0.63 -4.01,-0.82 -7.63,-3.75 -11.86,-3.03 -0.07,0.92 -0.2,2.76 -0.26,3.68 0.93,0.61 1.86,1.21 2.79,1.82 -1.22,3.78 -3.32,7.23 -5.89,10.25 -4.96,6.02 -9.16,12.91 -15.7,17.41 1.04,-2.27 1.9,-4.63 1.86,-7.16 -0.6,0.02 -1.8,0.07 -2.4,0.1 -3.59,3.96 -2.64,10.06 -6.38,13.89 -3.38,3.62 -7.7,6.2 -11.14,9.75 -1.58,1.6 -3.19,3.18 -4.81,4.76 -1.3,0.48 -2.58,1.04 -3.73,1.83 -5.93,4.09 -11.36,8.87 -17.54,12.6 -5.6,4.65 -11.75,9.77 -13.74,17.07 8.14,-0.21 16.3,-1.43 24.43,-0.41 8.29,0.37 16.59,0.44 24.88,0.71 6.5,0.28 12.93,-0.87 19.32,-1.91 -5.28,2.36 -10.17,5.61 -15.75,7.27 -7.7,2.87 -16.77,1.24 -23.6,6.46 -4.66,-0.51 -8.89,1.66 -13.21,2.96 -3.91,0.67 -7.86,1.04 -11.81,1.35 -3.42,0.35 -6.66,-1.43 -10.08,-0.99 -2.12,0.16 -4.24,0.32 -6.33,0.69 -1.94,0.31 -3.23,1.98 -4.69,3.14 0.55,0.18 1.64,0.55 2.19,0.74 -13.66,2.31 -27.64,-0.48 -41.26,2.06 -2.08,1.91 -5.16,1.65 -7.78,1.87 -4.33,-0.28 -8.91,0.13 -12.94,-1.74 -3.97,0.6 -8.08,1.12 -11.87,-0.59 2.65,-0.42 5.32,-0.71 7.99,-0.93 -2.99,-0.91 -7,-0.19 -8.88,-3.21 -1.22,-0.17 -2.43,-0.33 -3.65,-0.5 1.33,-0.79 2.67,-1.57 4.03,-2.3 -0.18,-1.92 0,-4.13 -1.36,-5.68 -1.1,-1.15 -2.46,-2 -3.73,-2.94 0.94,-0.59 1.87,-1.18 2.8,-1.78 0.31,-2.13 0.91,-4.2 1.52,-6.26 2.48,0.71 5.74,1.56 7.7,-0.72 4.98,1.41 10.2,0.84 15.29,1.52 6.96,0.71 14.03,-0.05 20.95,1.1 5.92,1.02 11.85,-0.52 17.8,-0.26 -1.21,-0.99 -2.43,-1.98 -3.65,-2.96 l 1.13,-0.84 c -2.5,-2.03 -4.75,-4.33 -7.22,-6.38 -4.46,-0.28 -7.75,-3.71 -11.86,-5.07 -1.33,-4.52 -6.05,-6.07 -9.05,-9.22 -3.47,-3.49 -6.69,-7.23 -10.36,-10.53 -3.01,-2.66 -5.8,-5.56 -8.24,-8.76 -1.25,0.54 -2.06,1.6 -2.63,2.8 -1.06,-3.02 -1.81,-6.13 -2.76,-9.18 -1.45,-0.41 -2.91,-0.81 -4.37,-1.19 -0.68,0.47 -2.04,1.39 -2.72,1.85 0.12,-1.92 0.28,-3.83 0.5,-5.74 -0.53,-1.11 -1.06,-2.23 -1.58,-3.34 -1.64,-0.05 -3.29,-0.01 -4.91,-0.29 -0.38,0.31 -1.16,0.91 -1.55,1.21 0.26,-5.64 -2.27,-12.07 -7.78,-14.37 -5.55,-2.87 -9.98,-7.36 -13.53,-12.44 0.09,0.5 0.25,1.5 0.33,2.01 -3.28,-3.23 -7.83,-4.71 -10.92,-8.18 -1.91,1.37 -3.7,2.87 -5.46,4.42 -0.17,-0.43 -0.52,-1.3 -0.7,-1.73 -2.96,1.37 -5.98,2.63 -8.88,4.13 -2.04,1.12 -3.38,3.18 -5.49,4.17 -1.69,0.83 -3.34,1.75 -4.91,2.8 0.05,-0.64 0.13,-1.93 0.18,-2.57 -2.53,1.03 -5.01,2.17 -7.44,3.4 2.69,-3.14 2.74,-7.38 3.69,-11.21 0.53,-3.08 2.19,-5.79 2.86,-8.83 0.88,-0.57 1.77,-1.14 2.66,-1.7 0.73,-2.36 1.33,-4.77 1.88,-7.18 -0.83,1.33 -2.48,3.98 -3.31,5.31 1.46,-8.09 4.13,-15.86 6.24,-23.79 -5.08,-5.49 -11.29,-9.68 -16.93,-14.54 -1.5,-0.94 -3.33,-1.04 -5,-1.47 0.06,-1.09 0.11,-2.19 0.16,-3.28 1.4,-0.52 2.72,-1.23 4,-1.99 C 3.75,91.51 2.79,89.67 1.81,87.84 l 1.81,0.62 C 2.61,86.46 1.32,84.63 0,82.82 0.95,82.72 2.83,82.51 3.77,82.41 3.73,78.06 2.21,73.93 1.9,69.62 c 1.27,2.18 2.43,4.64 5.08,5.35 1.28,-1.75 2.77,-3.39 3.74,-5.34 0.45,-2.88 -0.02,-5.82 0.13,-8.72 2.53,0.31 5.23,0.94 7.65,-0.23 1.84,-0.8 3.76,-1.39 5.78,-1.47 0.38,-0.61 1.14,-1.81 1.52,-2.41 -0.67,-1.09 -1.35,-2.17 -2.04,-3.25 2.51,1.82 6.07,2.72 8.83,0.96 -0.02,-0.67 -0.05,-2 -0.07,-2.66 0.57,0.63 1.69,1.89 2.26,2.53 3.52,-2.5 8.05,-3.42 11,-6.73 0.5,2.21 1.03,4.41 1.71,6.57 1.59,-0.24 3.19,-0.5 4.77,-0.79 3.72,2.23 8.77,3.33 12.74,1.14 0.9,1.07 2.04,1.61 3.42,1.61 -0.18,1.4 -0.34,2.8 -0.49,4.2 1.73,0.22 3.45,0.44 5.18,0.66 -0.85,0.42 -1.69,0.83 -2.54,1.24 -0.38,0.59 -1.14,1.77 -1.53,2.36 2.54,3.54 4.93,7.24 8.61,9.72 4.47,-2.59 8.41,-5.95 12.57,-8.97 2.1,-1.59 4.24,-3.18 5.96,-5.19 1.08,-1.64 1.64,-3.58 2.87,-5.13 2.86,-2.33 6.23,-3.86 9.57,-5.36 3.43,-2.52 5.99,-6.01 9.09,-8.91 5.04,-5.05 11.42,-8.53 16.29,-13.75 1.62,-1.65 3.47,-3.05 5.31,-4.44 -6.74,-2.1 -13.75,-0.61 -20.65,-0.89 -4.99,0.32 -9.88,-1.04 -14.87,-0.71 l 0.66,-0.76 c -2.61,0.39 -5.25,0.45 -7.86,0.87 -3.25,0.66 -6.25,2.15 -9.5,2.81 -11.39,1.96 -23.01,1.24 -34.45,2.68 -5.28,0.89 -10.71,-0.14 -15.94,1.06 -0.4,0.35 -1.21,1.05 -1.62,1.4 -2.09,-1.42 -3.29,-3.5 -3.47,-6.03 -0.5,-0.25 -1.51,-0.76 -2.01,-1.01 0.96,-0.51 1.91,-1.02 2.86,-1.53 -1.37,-1.73 -2.72,-3.51 -4.51,-4.83 1.32,-0.24 2.64,-0.48 3.96,-0.71 0.43,-0.35 1.3,-1.03 1.74,-1.38 -1.86,-0.81 -3.73,-1.59 -5.64,-2.27 0.01,-0.52 0.04,-1.56 0.05,-2.08 1,0.06 3,0.19 4,0.26 C 29.04,8.16 25.77,7.62 22.53,7.14 24.29,6.41 26.16,5.72 27.39,4.17 31.51,2.23 36.22,2.07 40.27,0 m 85.89,59.44 c -4.41,3.57 -7.8,8.14 -10.97,12.8 -7.04,8.35 -14.83,16.05 -21.84,24.43 4.21,8.54 7.44,17.51 11.09,26.29 1.37,2.87 3.63,5.21 5.01,8.09 2.08,4.3 3.22,9.02 5.63,13.17 4.31,6.39 7.26,13.55 10.64,20.44 2.66,5.22 4.4,11.1 8.67,15.3 3.8,3.65 6.99,7.86 10.02,12.16 2.59,3.57 5.69,6.74 8.43,10.2 0.7,-3.96 3.1,-7.25 4.58,-10.91 2.78,-7.06 6.6,-13.64 9.84,-20.48 0.37,-0.19 1.12,-0.57 1.5,-0.75 -0.24,-2.81 1.56,-5.11 2.67,-7.52 4.11,-7.7 7.76,-15.65 11.85,-23.36 3.3,-4.03 4.6,-9.16 7.18,-13.61 1.74,-3.25 4.4,-5.91 6.01,-9.23 0.7,-6.57 6.43,-11.23 8.1,-17.54 -3.65,-4.56 -7.26,-9.14 -10.86,-13.74 -0.12,-0.49 -0.36,-1.48 -0.48,-1.97 -2.56,-2.54 -3.9,-6.05 -6.64,-8.43 -6.76,-5.61 -11.22,-13.35 -17.06,-19.81 -6.54,-5.31 -12.31,-11.48 -18.76,-16.89 -8.64,6.6 -15.71,15.08 -24.61,21.36 z"/>
</svg>
