<?xml version="1.0" encoding="UTF-8" standalone="no"?>
<svg xmlns="http://www.w3.org/2000/svg" width="545.89764pt" height="968.39362pt" viewBox="0 0 545.89764 968.39362" version="1.1">
  <path d="m 113.35272,0.00587319 c -0.98047,-0.0193725 -1.96183,0.008145 -2.94433,0.09814425 -0.53,1.79000026 0.63933,3.40982406 1.06933,5.06982456 -0.34,-0.1900005 -1.01962,-0.5790435 -1.36963,-0.7690433 -2.85,-0.09 -5.58075,-0.9209962 -8.28075,-1.770996 0.60999,1.9400003 1.47085,3.8110351 1.88085,5.8110354 -1.73,3.1799999 -5.609629,0.098828 -8.119624,-0.4511723 -2.16,1.5200003 -3.73008,4.3010162 -6.58008,4.5410162 -3.440002,0.16 -6.67998,1.289179 -9.97998,2.159179 -0.99,-0.36 -1.970197,-0.709082 -2.950192,-1.059081 -2.140005,1.669999 -4.640475,2.729961 -7.230473,3.45996 -2.769998,0.88 -4.489313,3.33002 -5.799315,5.77002 -2.990003,-0.11 -6.159998,-1.160215 -9,0.279785 0.06997,0.15 0.220035,0.449121 0.29004,0.599121 4.44,2.78 10.08984,2.300215 14.58984,4.970215 -0.669997,0.17 -2.01066,0.500644 -2.680665,0.660645 -0.03997,1.05 -0.109725,2.090371 -0.21972,3.130371 -1.41,0.74 -3.750645,0.349316 -4.410645,2.049316 -0.670005,2.28 -2.738985,3.529707 -4.45899,4.949707 1.56,1.36 3.118965,2.710801 4.68897,4.070801 -1.570005,1.6 -3.14973,3.190039 -4.719728,4.790039 0.379995,0.56 1.119743,1.669493 1.489748,2.229493 0.09,1.479999 -1.25928,2.539861 -1.759283,3.859861 2.150003,2.4 5.930175,4.52949 5.43018,8.229496 -1.240005,1.219995 -2.64018,2.260665 -3.93018,3.430665 0.310005,0.919995 0.62922,1.850017 0.949223,2.77002 -0.250005,0.279997 -0.74877,0.84939 -0.98877,1.129395 -3.410003,-2.380005 -7.460685,-3.539498 -11.450685,-4.479495 1.29,4.269997 5.60949,6.720075 6.729495,11.08008 1.579995,2.94 -0.59973,5.969745 -0.219728,8.98974 0.909998,2.600002 3.25953,4.290277 4.769528,6.53028 2.590005,3.99 6.381232,7.01994 10.26123,9.689945 3.710003,1.32999 7.778775,1.27965 11.48877,2.63964 3.69,1.84 6.541178,4.98088 10.201178,6.90088 0.1,-0.77 0.289395,-2.33107 0.379387,-3.10107 2.420003,1.33 4.620375,3.13998 6.130373,5.47998 1.360005,1.93 2.249962,4.28047 4.209956,5.73047 0.59001,-0.39 1.78012,-1.18057 2.37012,-1.58057 4.55001,4.02 7.27997,9.56127 10.95996,14.30127 2.60001,3.43 6.60045,5.49916 8.96046,9.13916 1.59999,2.4 3.97976,4.1106 5.75976,6.37061 1.89,3.04 2.57902,6.92902 5.49903,9.24902 3.33,2.67 7.27054,4.88103 9.31054,8.81103 2.25,4.17 5.74949,7.39012 9.7295,9.87012 -0.27,0.46 -0.81985,1.36934 -1.08985,1.81934 1.87,0.58 3.69022,1.72949 5.72021,1.47949 0.52001,-0.55 1.54958,-1.62943 2.05958,-2.16943 2.67999,2.49999 5.20995,5.15935 7.95996,7.58935 2.65999,2.37 4.50087,5.46008 6.90087,8.08008 2.96001,3.38 7.04919,5.60105 9.65919,9.33105 2.07,3.06 5.14109,5.14022 8.12109,7.22022 -0.15,0.69 -0.46109,2.07881 -0.62109,2.77881 1.84999,1.53 3.72074,3.03088 5.51074,4.65088 -2.05,1.62 -5.18079,3.00935 -5.05078,6.08935 -0.38,2.17 1.75035,3.63057 3.36035,4.58057 2.98,-1.02 1.18033,-4.6898 0.59033,-6.79981 0.32,-0.39 0.97053,-1.18031 1.29053,-1.57031 1.37,-0.01 2.73914,0.0394 4.11914,0.14941 2.05,0.69 1.29017,3.25106 1.68017,4.83106 0.64,-0.46 1.92055,-1.37105 2.56055,-1.83106 0.09,1.47 0.15947,2.94969 0.20947,4.42969 -1.13,0.86 -2.23933,1.75016 -3.31933,2.66016 0.66,0.46 1.32906,0.94988 2.03906,1.37988 1.37,-2.47 1.54957,-6.27867 5.05957,-6.63867 0.05,0.58 0.13018,1.73885 0.18018,2.31885 0.64999,-0.02 1.93984,-0.0694 2.58984,-0.0893 4.2,2.23999 7.92049,6.18036 13.00049,6.13036 2.63,0.21 5.37041,-0.56029 7.92041,0.44971 6.32,2.34 10.20035,8.2691 16.11035,11.3291 -0.49,0.39 -1.46996,1.18031 -1.95996,1.57031 1.32,-0.69 2.63902,-1.3695 3.99902,-1.9995 3.65,3.24 7.56014,6.17946 11.89014,8.45946 3.34,-0.69 5.40088,1.98063 7.65088,3.89063 0.25,0.65 0.73998,1.93984 0.97998,2.58985 l -1.26123,0.4995 c 0.28,-0.01 0.83035,-0.009 1.11035,-0.019 0.94,2.26001 1.7903,4.54891 2.55029,6.87891 0.04,-2.24 1.14934,-3.65951 3.31934,-4.24951 -1.24,-0.46 -3.73926,-1.37984 -4.98926,-1.83984 0.56,-0.52001 1.15049,-1.00975 1.75049,-1.48975 1.45,1.07 3.00004,2.08023 4.79004,2.49023 4.9,1.17 9.80996,2.31901 14.70996,3.47901 3.56,1.13 5.73959,4.65098 9.32959,5.75097 2.58,1.12001 5.41944,1.13001 8.16943,1.5 3.93,1.84001 7.36982,4.97004 11.81983,5.54004 1.89,0.19 4.08105,0.81932 4.83105,2.79932 1.83,4.09 2.94982,8.58038 5.81983,12.13037 -0.54,-3.32 -1.67055,-6.60049 -1.06055,-10.00048 1.86,0.43999 3.70004,1.02081 5.54004,1.59081 -0.51,0.22 -1.53957,0.64866 -2.05957,0.86865 0.12,3.05001 4.92994,4.59093 5.93994,1.19092 -0.48,-0.31 -1.45971,-0.91021 -1.94971,-1.22021 3.79,-0.12 7.6293,-2.35004 11.2793,-0.29004 0.74,3.04001 2.11964,5.87022 3.38965,8.72022 0.72,-3.22 0.0206,-5.94994 -2.10938,-8.18995 2.88,1.34001 5.91955,2.3102 9.03955,2.9502 -0.05,0.78 -0.14896,2.34916 -0.18896,3.13916 0.12,-0.73 0.359,-2.19994 0.479,-2.93994 6.71001,1.82 13.58037,2.95988 20.38038,4.37989 0.75,-0.64001 1.55037,-1.23884 2.38037,-1.79883 3.84,-0.31001 7.40923,2.60865 11.21923,0.86865 -0.06,0.56 -0.16998,1.68121 -0.22998,2.24121 1.8,-0.11 3.64012,-0.22986 5.37012,-0.85986 3.21,-1.23 6.68979,-0.46016 10.02978,-0.41016 1.42001,-0.29 2.55995,0.67938 3.68995,1.35937 -1.79,0.05 -2.58988,1.53035 -3.62989,2.61035 2.87001,1.00001 4.85047,-1.16017 6.48048,-3.18017 -0.69,-0.93 -2.62079,-1.32976 -2.05079,-2.75977 l 1.29053,1.51905 c 5.46,-1.91001 9.86973,3.30074 15.2197,2.51074 2.32005,-1.45 4.27988,-3.63965 7.0899,-4.13965 5.20995,-1.49 10.72995,-0.52023 15.97995,-1.74024 2.97998,-0.6 5.82068,-1.91951 8.91068,-1.9995 4.12995,-0.19001 8.29012,0.0597 12.4101,-0.53028 3.54,-0.59 7.00005,-1.59088 10.5,-2.40088 2.48002,-0.3 4.92007,-0.89891 7.33012,-1.62891 -0.0203,-0.59 -0.0705,-1.77132 -0.0908,-2.36133 0.54,-0.33999 1.6206,-1.01962 2.1606,-1.36962 -8.82,-0.19 -17.56965,2.39066 -26.40968,1.18066 -2.82,-0.31 -5.33977,-1.72012 -8.06977,-2.37012 -2.4,-0.70999 -4.9803,-0.65966 -7.28025,-1.65967 -3.75,-1.68999 -7.80083,-2.67124 -11.34083,-4.78125 -3.37005,-1.86 -6.07897,-4.63995 -8.89897,-7.20996 -1.41,-1.29 -1.50023,-3.42908 -2.78025,-4.80908 -1.32,-0.77 -2.74965,-1.27054 -4.13963,-1.81054 -0.28005,-2.58 0.22965,-5.33973 -1.0503,-7.71973 l -0.76027,0.24023 c -0.68003,2.1 -0.57068,4.53973 -2.22068,6.21973 -2.43003,-1.71 -5.25972,-2.39004 -8.17972,-2.54004 -1.17999,-1.36 -2.12967,-2.86982 -3.15966,-4.31982 -1.67001,-0.09 -3.51042,0.19937 -4.92042,-0.89063 -2.70999,-1.97 -5.349,-4.03961 -7.979,-6.09961 -2.4,-1.84 -4.37004,-4.93056 -7.79004,-4.58057 -0.73,-0.97999 -1.81099,-1.83992 -1.771,-3.16992 -0.42,-1.25 -0.0197,-3.8191 -1.88964,-3.8291 -0.42,0.39 -1.27068,1.17032 -1.70069,1.57031 -2.76,-1.38999 -5.27943,-3.19992 -7.41943,-5.41992 -2.12,-2.27 -4.92984,-3.7209 -7.08984,-5.92089 -1.19001,-1.17 -2.31059,-2.43048 -3.60059,-3.48048 -2.51,-2.01999 -5.87885,-2.52915 -8.31885,-4.63915 -2.02,-1.56 -3.38054,-3.75983 -4.81055,-5.81983 -1.59999,-0.39 -3.46043,-0.39012 -4.69043,-1.62012 -2.26999,-2.26 -3.41956,-5.33002 -5.05957,-8.02002 -2.7,-4.41 -5.21947,-8.91968 -7.70947,-13.42969 -2.07,-4.44 -3.68127,-9.06991 -5.30127,-13.66992 -0.41,-0.07 -1.23941,-0.21124 -1.64942,-0.28125 0.22001,0.26001 0.66038,0.80055 0.88038,1.06055 0.21,3.98 2.37021,7.49043 2.72022,11.44043 -1.30001,-1.69 -2.29005,-3.68021 -4.04004,-4.97021 -1.43001,-1.21001 -3.22086,-2.12936 -4.13086,-3.83936 -1.22,-2.3 -1.85899,-4.85117 -2.95899,-7.20117 -1.84,-3.83 -4.34009,-7.30027 -6.35009,-11.03028 -0.57,-2.10999 0.0397,-4.43945 -0.99024,-6.43944 -0.98,-1.58001 -3.09987,-0.92003 -4.60986,-1.27002 -1.31001,-2.88 -1.85037,-6.1194 -3.88038,-8.6294 -1.23,-1.47 -1.20966,-3.45045 -1.65966,-5.21045 -1.16001,-1.96 -3.15004,-3.35024 -4.04004,-5.49023 -1.66,-4 -4.36979,-7.6491 -4.77979,-12.07911 -0.12,-3.38 -2.87006,-5.72129 -3.81005,-8.82129 -1.12001,-3.39 -2.3711,-6.98894 -5.1211,-9.41894 -3.58,-2.630003 -6.46986,-6.091095 -9.10986,-9.621098 -0.25001,-2.689995 -0.12947,-5.399122 -0.20948,-8.099122 -0.6,-0.309998 -1.80992,-0.93951 -2.41992,-1.249508 -0.39,0.530003 -1.15955,1.589625 -1.53955,2.119628 -2.66,-2.739998 -6.04072,-4.620525 -8.74072,-7.290525 -1.55,-2.52 -2.87051,-5.170373 -4.52051,-7.630373 -1.33,-1.730002 -1.24985,-3.958987 -1.83984,-5.958983 -1.31,-1.360005 -3.07993,-2.10102 -4.66992,-3.041017 0.10999,-2.660003 0.91072,-5.209844 1.24072,-7.839845 0.4,-2.959999 -1.49012,-6.489921 -4.62012,-6.919921 1.33,3.04 3.3903,5.900605 3.3003,9.370605 -4.32,0.49 -7.06089,-3.110918 -9.90089,-5.690918 -0.25,-1.599999 -0.83005,-3.109551 -1.56005,-4.53955 -1.37,0.819999 -2.37957,3.01084 -4.30958,2.11084 -1.69999,-2.130001 -0.62919,-4.90129 -1.17919,-7.32129 -2.03,-2.24 -3.89143,-5.449707 -7.21143,-5.699707 1.05,3.02 3.85078,6.420977 1.30078,9.500976 -3.76,-1.35 -5.35935,-6.580077 -9.83935,-6.580077 -0.10001,0.889999 -0.31041,2.688867 -0.42041,3.588867 -2.86,-1.100001 -5.79098,-1.96875 -8.75098,-2.71875 -3.33,-1.400001 -6.20875,-3.691212 -9.46875,-5.241211 -6.4,-3.010001 -12.66084,-6.338946 -18.61084,-10.168946 -3.15,-2.08 -6.97961,-2.050957 -10.59961,-2.230957 -2.95,-0.06 -4.84045,-2.749492 -7.46045,-3.729492 -4.68,-1.68 -9.82916,-1.659492 -14.38916,-3.7294924 -3.27,-1.3700003 -6.32113,-3.4608788 -9.91113,-3.9008791 1.44,1.8500003 2.94996,3.6406058 4.20996,5.6206055 -4.62,-0.3199999 -9.38899,-0.9795897 -13.45899,-3.3295895 -2.87,-1.8400005 -6.37021,-1.8600585 -9.47021,-3.0600585 -1.05,-0.6500003 -1.47969,-1.9108403 -2.17969,-2.8608398 -2.895,-0.48 -5.82422,-0.95994151 -8.76563,-1.01806651 z M 142.90742,223.33449 c -2.3256,0.0879 -4.27758,1.81662 -6.29883,2.84912 -1.38,0.96 -3.15069,0.45 -4.70069,0.75 -1.88,2.81 0.73943,5.81004 1.41944,8.54004 0.63,3.43 -2.11981,6.00111 -4.54981,7.89111 -4.84,3.51 -10.42947,5.7792 -15.95948,7.9292 -1.62,0.67 -3.35017,1.22992 -4.68017,2.41992 -0.99,1.88001 -1.20994,4.0602 -2.18994,5.9502 -1.42,2.82 -4.0298,4.85049 -5.29981,7.75049 -1.179994,2.92 -0.999604,6.13018 -1.599604,9.18017 -0.680002,1.56 -1.961325,2.73947 -3.11133,3.95948 -4.239997,4.17999 -7.8999,8.93008 -10.8999,14.08008 -1.820002,3.09 -3.919395,6.03015 -6.379395,8.66015 -2.58,2.85 -6.5493,3.92993 -9.029295,6.91992 -4.760003,5.71001 -9.630315,11.45024 -12.820313,18.24024 -3.850005,6.76 -5.469825,14.55017 -9.569827,21.18017 -0.950003,1.57 -1.950548,3.1394 -2.560545,4.8794 -1.23,3.25 -1.400115,6.84992 -3.12012,9.91992 -3.009998,5.64 -5.709255,11.45017 -7.989255,17.43018 -1.92,4.78999 -2.820428,9.92047 -4.690433,14.73046 -4.219995,11.16 -9.349725,21.94981 -13.719728,33.04981 -6.8499973,16.44 -8.5810873,34.39922 -10.3710898,51.94922 -0.5499975,4.95 -0.279825,9.94065 -0.5698275,14.91064 -0.6199951,7.42001 -2.2889026,14.68923 -3.8789026,21.94923 -0.460005,6.64999 -0.5010375,13.39052 0.1889625,20.04052 1.6899975,-1.52 3.2799975,-3.18058 5.2500001,-4.35058 -0.3999975,5.13 -0.87,10.30041 0,15.42041 0.8000025,4.60999 -0.1003125,9.43041 1.4296875,13.9204 1.4900025,4.66001 2.9305128,9.3597 3.7705048,14.17969 0.500003,5.97 -0.490035,12.03045 0.459968,17.96045 0.27,0.4 0.820095,1.1791 1.100092,1.57911 -0.03,6.81 1.120508,13.55121 2.270513,20.24121 0.669997,3.66 0.909195,7.41001 1.929195,11.02002 0.910005,3.24 3.240255,5.81917 4.510252,8.90917 -0.09,2.38001 -0.959625,4.72965 -0.619627,7.13966 0.490005,3.78999 2.34951,7.25103 2.749515,11.06103 0.589995,6.73 -0.679103,13.57 0.670897,20.25 0.200003,-0.79 0.610058,-2.36063 0.81006,-3.14063 2.029995,1.09001 2.588888,3.40063 3.358883,5.39063 3.190005,7.84 -0.16998,16.38951 1.27002,24.49951 0.610005,3 3.619845,4.82041 4.089848,7.92041 1.2,4.9 4.789882,8.92912 5.12988,14.09912 1.02,4.30999 -0.12963,8.96036 1.630372,13.11034 1.119998,0.61005 2.680155,0.80077 3.410153,1.99072 3.250005,5.19 7.40016,9.9198 9.41016,15.7998 -0.620003,1.97003 -1.890038,3.86003 -1.79004,6 1.700002,2.14005 3.86955,3.90983 5.289555,6.27983 1.129995,1.81995 1.800075,3.88905 2.830072,5.78902 1.490003,2.54003 4.10979,4.191 5.529788,6.79103 0.770002,1.2 1.270057,2.61945 2.31006,3.66945 1.339995,0.96 2.920973,1.5798 4.250978,2.58982 1.239997,1.95998 1.359427,4.50083 2.919427,6.32078 1.2,1.5 2.42016,2.99992 3.41016,4.66995 -0.879997,0.92002 -1.740097,1.89037 -2.6001,2.84032 0.260003,0.42 0.780038,1.24995 1.04004,1.66995 1.269998,-0.0697 2.540565,-0.1302 3.830565,-0.18022 1.490003,2.01 2.309633,4.3794 1.369635,6.8394 2.959995,4.10002 6.899723,7.32082 10.71972,10.59082 0.69,2.14995 0.579728,4.86945 2.469728,6.43943 2.76,1.37002 6.210351,1.13002 8.610351,3.29002 3.82,3.17003 7.5194,6.60968 10.1294,10.8897 3.06999,4.80998 6.42006,9.44026 9.81006,14.03026 1.58,2.07 3.14121,4.23007 5.24121,5.83005 1.59,1.32 3.81996,2.21002 4.20996,4.5 0.93,-0.54 1.76974,-1.80038 2.98974,-1.4004 2.73,0.75 5.6604,1.7907 7.4004,4.18072 1.68999,2.25 2.94935,4.91978 5.33935,6.56978 3.65,2.18002 3.32053,6.90937 5.04053,10.35937 1.88,0.41003 3.88945,0.48098 5.68945,1.251 2.3,1.80998 4.79936,3.32955 7.58936,4.2495 2.16999,0.64005 3.60072,2.44035 4.99072,4.11038 2.24,0.92002 4.35005,2.1594 6.06005,3.8994 3.59001,3.54 8.07026,5.93977 12.01027,9.0498 1.23,0.90997 2.44992,1.92097 3.91992,2.46097 1.65,0.15 3.27894,-0.23047 4.91894,-0.42045 -1.78,2.22998 -3.63979,4.58933 -4.02978,7.52933 -0.24,1.03995 0.74976,1.76025 1.25976,2.5503 0.65,-3.35003 3.97082,-4.79985 6.09082,-7.0899 0.81,4.85002 5.84051,7.14022 9.77051,9.18022 1.13,-0.37005 2.26894,-0.73057 3.41894,-1.06057 2.72,1.68 1.84053,4.76992 2.04053,7.43992 2.78,3.36 7.01,4.9302 10.5,7.3902 1.99,1.59 3.85935,3.35085 6.08936,4.65083 0.64999,-1.29998 1.30091,-2.59035 1.94092,-3.88035 0.99,1.59997 1.81937,3.54997 3.60937,4.43992 2.51,0.45 5.13031,0.47033 7.57031,1.34033 2.11,1.27005 3.79053,3.13035 5.79053,4.57035 3.69,2.85 8.14987,4.38982 12.10987,6.7998 2.88,1.71997 5.59021,3.79005 8.72021,5.08005 4.67,1.94002 9.01951,4.56007 13.24951,7.33012 3.06,-1.95 6.55998,-1.491 9.97998,-1.251 4.86,-0.51 8.69928,3.1197 13.00928,4.71975 -2.14001,-2.16 -4.12981,-4.4391 -6.04981,-6.76905 -3.72,-3.41002 -8.48959,-5.1999 -13.07959,-7.0899 -0.72999,-2.37 -1.35975,-4.93087 -3.73974,-6.2109 0.51,-0.39 1.52027,-1.17007 2.03027,-1.56007 -2.63,-2.99003 -5.50121,-5.78025 -8.99121,-7.74023 -2.3,0.1 -4.5989,0.0315 -6.8789,-0.17872 0.25999,-1.11998 0.51929,-2.2413 0.77929,-3.34133 -0.41,-1.60995 -0.5591,-3.2691 -0.8291,-4.86907 -2.17,-1.58003 -4.65133,-2.8104 -6.11133,-5.1504 -1.75,-2.96003 -5.58922,-2.57985 -8.44922,-3.56985 -0.44,-1.47998 -0.87027,-2.95943 -1.28027,-4.41945 1.71,0.25005 3.22973,1.00995 3.96972,2.6499 0.42,-1.44998 1.71071,-2.35973 2.22071,-3.73973 -1.56,-2.75002 -4.85061,-4.05007 -7.87061,-4.04002 -1.32,0.61995 -2.3497,1.68885 -3.44971,2.60887 -0.84,0 -2.49984,0.0105 -3.33984,0.0203 -0.49,-2.77995 -2.45986,-4.89045 -3.85986,-7.23045 1.33,0.47003 2.61927,1.04085 4.00928,1.36088 1.27,-0.0503 2.01095,-1.22063 2.98095,-1.87065 -4.82999,-1.14 -9.58979,-2.9799 -13.02978,-6.68993 l 0.67969,-3.03952 c -5.60001,-3.19005 -8.71069,-9.0807 -12.95069,-13.7007 -5.26,-5.93003 -9.68017,-12.66975 -12.18017,-20.23973 0.73999,-1.01002 2.81101,-1.4694 2.29101,-3.0894 0.11,-1.83997 -1.31069,-3.12105 -2.45069,-4.311 -1.95999,-1.96005 -3.93013,-3.8901 -5.89013,-5.83012 0.34,-0.51998 1.02989,-1.54958 1.37988,-2.05958 -1.38,0.54 -2.42953,1.54073 -3.26953,2.74073 v 3.5889 c -2.21,-4.11 -3.57006,-8.59966 -4.56006,-13.13963 -0.96999,-5.05005 -3.69027,-9.47918 -5.78027,-14.09918 -0.52,-1.92 -3.10982,-1.99005 -3.56983,-3.87007 -1.63999,-4.88003 -3.60058,-9.75075 -3.60058,-14.97075 0.01,-1.62 -1.63906,-2.08965 -2.78906,-2.6997 -0.76,-4.53 -1.13967,-9.13028 -3.15967,-13.34033 -0.53,0.50003 -1.57058,1.50975 -2.10059,2.00978 -0.21999,-2.55 -0.55047,-5.07983 -1.23046,-7.5498 -1.19001,-3.92003 0.41058,-7.90035 0.60058,-11.84033 -1.28,-0.0697 -2.55006,-0.129 -3.81006,-0.189 -0.39,-5.11995 0.0893,-10.29007 -0.95068,-15.35002 -0.73,-5.85 -2.98998,-11.3604 -3.97998,-17.1504 0.36,0.70995 0.70029,1.42942 1.05029,2.16937 1.03,1.47 1.88053,3.17108 3.54052,4.08105 0.85001,-6.21997 -0.53994,-13.1109 3.06006,-18.67087 0.59001,-1.5 2.51985,-2.81003 1.83985,-4.56005 -0.56,-1.42 -2.0299,-0.10004 -2.64991,0.45996 -4.30999,2.96999 -0.69021,9.80129 -4.97021,12.80129 -0.51,-3.07005 -0.3106,-6.18105 -0.3706,-9.27105 -0.46,-2.36993 -1.62967,-4.49996 -2.40967,-6.74996 -0.23,-1.56 0.74015,-2.84977 1.16015,-4.25977 0.88001,-2.56 0.42969,-5.39041 1.42969,-7.92041 0.87,-2.76 2.62041,-5.1492 3.42041,-7.9292 0.49,-3.54 -0.80968,-6.94035 -2.17969,-10.11035 -0.53,-3.01 -0.19011,-6.2902 1.37988,-8.95019 1.49001,-2.36001 4.73042,-3.47938 4.92042,-6.60938 -1.62,-0.06 -3.2401,-0.0808 -4.8501,-0.0908 -0.14,-2.51 -1.05117,-4.79969 -2.70117,-6.67969 1.89,-0.44 4.03092,-0.49012 5.69091,-1.62011 1.43001,-1.69001 0.42004,-4.07026 0.29004,-6.01026 -1.23,0.96 -2.43058,1.96096 -3.60058,2.98095 -2.19,-3.68999 -1.41008,-8.33056 0.16992,-12.08056 1.25,-3.6 4.0207,-6.76953 3.7207,-10.76953 -1.38999,-0.94001 -2.76035,-1.88084 -4.11035,-2.86084 -0.41,-4.65 3.3299,-7.79028 4.8999,-11.78028 0.47001,-2.8 0.12042,-5.67902 0.42042,-8.49902 0.08,-3.38 2.65039,-5.91 3.65039,-9 1.4,-4.69 -2.44074,-9.65982 0.48925,-14.06982 0.55001,0.75 1.66045,2.23949 2.21046,2.97949 2.37,-2.01 3.75,-4.86047 3.75,-7.98047 -1.77,0.4 -3.49969,0.91031 -5.17969,1.57031 -0.87,-1.71 -2.31012,-4.58988 -0.12012,-5.87988 2.73,-0.74 6.0998,1.04986 8.29981,-1.39014 -3.39,-1.41999 -7.45016,-3.9998 -6.41016,-8.2998 2.02,-0.27 4.0491,-0.48924 6.0791,-0.71924 -0.26,-1.51 -0.4998,-2.98045 -0.7998,-4.46045 1.6,-0.96 3.19978,-1.91039 4.77978,-2.90039 -1.75,-2.01 -3.96955,-3.52918 -6.03955,-5.15918 l 2.03027,-0.29004 c -1.13,-1.97 -3.73064,-3.82105 -2.91064,-6.33106 1.48,-2.08999 3.07103,-4.10888 4.31104,-6.35888 3.36999,-1.4 8.23953,-2.73061 8.51952,-7.1206 -3.96999,1.53999 -7.19996,4.9704 -11.70996,4.9204 2.45001,-2.47999 5.66012,-4.24041 7.62012,-7.1704 -0.26,-2.04 -0.67045,-4.05962 -0.71045,-6.09962 1.93,0.96 3.02008,2.80944 4.33008,4.41944 2.34,0.06 2.11025,-3.41053 3.01025,-5.04053 l 2.68067,-0.19921 c -0.01,-1.37001 -0.0103,-2.7296 -0.0103,-4.0796 2.35,-0.55999 4.33938,1.05002 6.60938,1.27002 1.39999,-1.77 0.21019,-3.60064 -1.54981,-4.41064 0.28,-1.46 0.93963,-2.92969 0.61963,-4.42969 -0.63,-1.47 -1.47899,-2.85072 -2.20898,-4.24072 2.09,-0.7 4.4699,-0.69004 6.3999,-1.79004 0.29,-2.01 0.56963,-4.02943 1.36963,-5.91943 -0.53,-0.32001 -1.57033,-0.96028 -2.09033,-1.28028 1.00999,-1.3 2.11023,-2.52949 3.24023,-3.72949 -0.47,-0.89 -0.94064,-1.76086 -1.41064,-2.63086 0.74,-0.79 1.46089,-1.59871 2.17089,-2.42871 1.49001,-1.31 0.13981,-3.40021 0.0498,-4.97022 1.59,-1.48 3.36,-2.83093 4.5,-4.71094 1.38,-2.08999 2.42949,-4.89986 5.22949,-5.35986 1.91,0.1 3.74067,1.00065 5.68067,0.66065 0.17,-1.36 -0.0896,-2.66088 -0.78955,-3.90088 -2.16,0.14 -4.32047,0.22094 -6.48047,0.21094 0.17,-0.45 0.51994,-1.34004 0.68994,-1.79004 2.81,-2.02001 5.3592,-4.38059 7.1792,-7.35059 1.39,0.12 2.79091,0.20953 4.19092,0.26953 1.04,-0.48 1.32027,-1.76984 2.03027,-2.58984 1.64,-3.09 5.49998,-3.64916 7.72998,-6.13916 -0.94,-1.45 -2.33063,-2.5708 -3.14063,-4.0708 -0.61999,-2.61 -0.28923,-5.29895 0.0307,-7.91895 0.76,0.16 2.28981,0.48013 3.0498,0.64014 1.31001,-1.84001 3.02905,-3.34088 5.26905,-3.90088 1.86,-0.33 2.90043,-1.90055 3.94043,-3.31055 1.27,-0.32 2.86971,-0.57996 3.44971,-1.95996 0.47,-2.1 0.13066,-4.2899 0.43066,-6.3999 0.57,-0.56 1.69,-1.66949 2.25,-2.2295 1,1.28001 1.98899,2.57942 2.95898,3.89942 2.60001,-2.73 0.88061,-6.72006 2.62061,-9.81006 0.88,-1.84 0.96976,-3.88937 1.25977,-5.85938 2.06,-3.72999 7.05978,-4.17997 9.27978,-7.72998 1.68,-2.59999 3.62112,-5.16943 6.39111,-6.66943 1.91001,-0.56 4.09958,-0.18039 5.80958,-1.40039 2.12999,-1.25 3.13969,-3.58029 4.42968,-5.55029 1.19,-1.8 3.22021,-2.74037 4.97022,-3.88037 -0.45,3.52 -4.34975,6.00017 -2.98975,9.93017 2.5,-3.19 6.25998,-4.81924 9.22998,-7.46923 3.98,1.15999 8.11903,1.68939 12.24902,1.12939 0.89001,-1.84 1.7103,-3.69908 2.5503,-5.55908 1.55,-0.78 3.07082,-1.63119 4.59082,-2.47119 2.82,-1.67 6.2289,-1.69018 9.1289,-3.18018 3.12,-1.58 6.22995,-3.27953 9.68994,-4.01953 -2.14999,2.88 -5.67945,4.46965 -7.18944,7.88965 1.29,0.73 2.26983,2.94007 4.08984,2.08008 2.04999,-1.68 3.35052,-4.05885 5.04052,-6.06885 1.79,-2.34 4.17028,-4.11129 6.53027,-5.82129 1.59,0.8 3.2094,0.83107 4.8794,0.10108 0.38,0.82999 0.47041,2.92986 1.92041,2.35986 0.11,-1.12 -0.72043,-2.12043 -0.94043,-3.19044 3.35,-0.76999 5.74961,-3.82989 9.09962,-4.8999 -0.01,0.9 -0.009,2.70938 -0.009,3.60938 6.04,-0.43 11.55877,-3.13863 17.48877,-4.09863 -0.18,1.48 -0.83875,2.61869 -1.96875,3.40869 0.8,-0.08 2.40947,-0.22883 3.20948,-0.29883 0.21999,0.9 0.45019,1.79971 0.70019,2.69971 0.08,-0.57 0.24959,-1.71981 0.32959,-2.29981 3.46,-1.02 5.9907,-3.70106 8.9707,-5.58105 2.37,-1.68 5.16953,0.0401 7.76953,-0.10987 4.72,-0.67999 9.18952,-2.60995 13.99951,-2.70996 0.46,0.43001 1.36962,1.29094 1.82959,1.71094 4.26998,-1.39 8.33093,-3.7707 12.96098,-3.72071 3.09,-0.37999 5.9202,1.41087 9.0102,1.13087 4.90005,-0.14 9.39937,-2.27137 14.10937,-3.40137 2.52,-0.32 3.96068,-2.54916 5.91068,-3.88916 1.05997,0.16 2.04922,0.5697 2.96925,1.1997 3.40995,-0.6 6.3603,-2.50943 9.59032,-3.66942 2.47995,-0.61001 5.06985,-0.43997 7.60988,-0.45997 -1.13003,1.32 -2.56065,2.47016 -3.14063,4.16016 4.03995,0.59 7.95015,-0.83016 11.9502,-1.16016 3.21998,-0.34 5.82023,-2.69121 9.0102,-2.99121 3.85005,0.96 8.57955,2.70039 12.0396,-0.0996 -1.58002,-0.23 -2.69955,-2.11918 -1.01955,-2.90918 2.19,-1.39 4.82963,-1.7208 7.36965,-1.8208 -1.34002,1.29 -2.91997,2.2901 -4.44,3.3501 1.19003,-0.02 3.57075,-0.0503 4.76078,-0.0703 -0.0398,0.34999 -0.1299,1.05039 -0.16995,1.40038 -1.99995,0.61001 -3.96008,1.3195 -5.83005,2.2295 2.93002,0.17 5.83995,-0.26865 8.70997,-0.86865 0.21,-0.48 0.62933,-1.45067 0.83933,-1.93067 4.86997,-0.18 8.41987,-3.85031 11.87992,-6.82031 -0.76005,-0.1 -2.27955,-0.31041 -3.0396,-0.42041 0.08,-0.38 0.24083,-1.1598 0.32085,-1.5498 2.61,-1.86 5.6997,-3.71934 6.5097,-7.06935 -1.14997,-0.01 -3.47032,-0.0398 -4.63035,-0.0498 2.45003,-2.27 6.76973,-2.76105 7.71975,-6.33105 -3.14002,-0.5 -5.69992,1.37115 -8.18992,2.93115 -1.66005,-0.72 -3.43928,-1.08086 -5.21925,-1.13086 -0.44003,-0.78 -0.86003,-1.55031 -1.27005,-2.32031 -1.2,-0.6 -2.3805,-1.19908 -3.54053,-1.80909 1.61003,-0.78999 3.3807,-1.28949 4.93065,-2.22948 1.49003,-1.01001 1.93958,-2.87077 2.2896,-4.53077 -2.97,-0.33 -5.55007,1.03057 -7.56007,3.08057 -1.5,-0.05 -3.00023,0.0388 -4.4502,-0.22119 -1.31003,-1.18 -1.0803,-3.67885 0.4497,-4.56885 2.39002,-1.53 5.19967,-2.33991 7.42972,-4.1499 -4.56,-1.2 -8.09962,2.91904 -12.61965,2.26904 0.66998,-1.02 1.34055,-2.0293 2.04053,-3.0293 -0.93998,0.01 -2.81003,0.0398 -3.75,0.0498 0.78,-1.04 1.56982,-2.05961 2.35987,-3.09961 -1.57005,-0.11 -3.12997,-0.2108 -4.66995,-0.3208 0.99,-1.85 2.16015,-3.58955 3.41018,-5.28955 -0.50003,-0.46 -0.99045,-0.91963 -1.46048,-1.36963 -1.56,1.01 -3.31012,1.74982 -5.14012,2.06983 0.36,-1.00001 1.07092,-3.00049 1.42087,-4.0005 -1.44997,-0.45 -2.93115,-1.66978 -4.49115,-1.02978 -3.87,1.37 -7.82025,2.7495 -11.9502,2.97949 -8.1,0.37001 -16.20907,-0.13012 -24.30907,-0.12011 0.9,0.91999 1.84935,1.76009 2.85937,2.60009 -0.46005,0.38 -0.91995,0.7501 -1.37992,1.1001 -5.57003,-0.78 -9.51998,4.80086 -15,4.13086 -0.3,-0.46 -0.91898,-1.37984 -1.22903,-1.83984 -0.36997,0.04 -1.11067,0.11941 -1.47067,0.14941 -2.07998,1.14 -4.47998,0.99971 -6.75,1.19971 -1.94003,0.54 -3.6702,1.59967 -5.49023,2.40967 -0.99997,-0.97001 -2.00932,-1.92008 -3.02932,-2.83008 -1.44,0.66 -2.86028,1.31021 -4.28025,1.97021 -1.26998,-0.58 -2.53958,-1.15972 -3.78953,-1.71973 -1.71,0.71001 -3.57135,1.43944 -5.07135,-0.0806 -2.95995,0.67 -5.95997,1.23136 -8.99997,1.15137 0.36,-2.53001 1.85127,-4.88071 1.55127,-7.47071 -2.09,0.67 -2.36005,3.05934 -3.06006,4.81934 -0.67,2.79 -3.60039,3.85021 -5.90039,4.97022 l -0.15967,-3.76026 c -3.76,-0.29 -7.85101,1.53043 -11.29101,-0.55957 -2.43,-0.07 -4.84926,0.0504 -7.23926,0.42041 -3.57,-1.17 -6.90053,0.6793 -10.29053,1.5293 -0.51,-1.15 -1.01,-2.28946 -1.5,-3.43946 -1.83999,0.02 -3.66023,0.0603 -5.49023,0.0703 -2.09,-1.59 -4.54996,-2.6006 -7.20996,-2.62061 0.19,-0.63 0.55974,-1.88978 0.73974,-2.52978 l -4.07959,1.64062 1.33008,-3.22998 -1.00928,-0.12011 c 1,-1.31 2.21928,-2.41086 2.50928,-4.13087 l -1.23047,0.0206 -0.35888,0.50977 -0.21973,0.67969 -0.36035,0.50976 c -0.42,-0.03 -1.27068,-0.0799 -1.70069,-0.10986 l 1.54102,0.50098 c -0.92,1.21999 -1.75024,2.48005 -2.49023,3.81006 0.45,0.46999 1.35933,1.42989 1.81933,1.8999 -2.21,0.57999 -4.29029,1.49004 -6.30029,2.54004 -0.57,-0.95001 -1.12993,-1.87983 -1.66992,-2.81983 -1.63001,-0.11 -3.2501,-0.2201 -4.8501,-0.3501 -3.09,-2.24999 -6.97955,-1.6908 -10.53956,-1.8208 0.50001,-0.68 1.51002,-2.04022 2.02002,-2.72021 -1.20999,-0.07 -2.42937,-0.13948 -3.60937,-0.20948 -1.85,-2 -4.75004,-1.21994 -7.04004,-2.18994 l -0.48047,-1.71972 c -5.76999,-0.43 -11.7897,-1.02987 -16.9497,-3.85986 1.35999,-2.38001 3.61021,-3.98112 5.72021,-5.64112 0,-0.94 -7.5e-4,-1.86906 0.019,-2.78906 l -1.28027,-1.12061 c -0.87,0.74 -1.73863,1.4807 -2.59863,2.22071 l 0.43945,2.47998 c -4.18,1.56999 -8.7401,1.62896 -13.1001,0.93896 -2.23,-0.43 -4.60933,-0.85998 -6.31933,-2.47998 -2.81001,-2.5 -4.44078,-6.24908 -8.05079,-7.80908 0.05,1.62 0.0999,3.24939 0.16993,4.87939 -3.51,-1.96 -7.41035,-3.05988 -10.86035,-5.12988 -0.16001,-1.44 -0.34952,-2.86906 -0.49952,-4.28906 -0.58,0.01 -1.74935,0.0386 -2.33935,0.0586 0.8,1.12001 1.5889,2.25112 2.37891,3.39112 -4.2,-0.83 -8.51903,-1.58057 -12.24903,-3.83057 -5.1,-2.88 -11.06047,-4.39916 -15.48047,-8.38916 -2.28,-1.86 -1.79008,-4.98031 -2.08008,-7.57031 -1.29,1.06 -2.50969,2.18914 -3.67969,3.36914 -1.00999,-0.54 -1.99095,-1.05987 -2.98095,-1.60987 -0.27,-2.94999 -0.88965,-6.10965 1.11035,-8.63964 1.65,-0.81 3.37037,-1.5807 4.63037,-2.97071 -0.05,-0.87 -0.15947,-2.60926 -0.20947,-3.48925 -1.48,-0.12 -2.94014,-0.0907 -4.39014,0.0893 -4.52,3.18 -1.65074,9.66037 -4.76074,13.63037 -0.59,0.59 -1.07918,1.77033 -2.15918,1.34034 -1.95,-3.63 -5.00076,-6.41938 -7.53076,-9.60938 -0.37,-2.48 0.74041,-4.86123 1.17041,-7.26123 0.96,-3.58 1.05023,-7.4699 -0.50977,-10.89991 -2.04,4.08 -0.45969,9.16112 -2.92968,13.14112 -1.03001,2.04 -3.43114,2.42879 -5.41114,3.00879 -1.99,0.46 -3.91949,1.30097 -5.97949,1.25097 -2.95,-1.07999 -5.72953,-2.55094 -8.51953,-3.96093 1.87,-0.79 3.62875,-1.8592 4.96875,-3.4292 -3.22,-2.29 -7.33951,-1.21096 -10.99951,-1.48096 0.76999,-1.6 1.5598,-3.17978 2.2998,-4.77979 -4.58,-0.34999 -8.99918,0.95971 -13.40918,1.94971 1.04,-1.27 2.06006,-2.56891 3.06006,-3.8789 -3.77,-0.40001 -7.40064,1.27976 -11.16064,0.50977 0.16,-0.92001 0.50064,-2.7597 0.66064,-3.6797 -2.29,-0.06 -4.59987,0.26938 -6.85987,-0.14062 -3.78,-2.66 -6.69992,-6.29957 -9.91992,-9.55957 -1.44,-0.18 -2.93103,-0.12053 -4.31103,-0.54053 -1.8,-1.26 -3.37008,-2.81041 -5.08008,-4.17041 0.08,-0.68 0.25105,-2.03875 0.33105,-2.71875 -3.9,-0.95 -7.89007,0.13004 -11.83008,-0.45996 -0.34875,-0.0613 -0.68877,-0.0829 -1.02099,-0.0703 z m 89.77001,9.88037 -0.85986,0.20948 -0.27979,0.76025 c 0.35001,0.31 1.05944,0.93951 1.41944,1.24951 l 0.87012,-0.19922 0.26074,-0.73096 c -0.35,-0.32 -1.06065,-0.96906 -1.41065,-1.28906 z m -11.57959,9.03955 -0.68994,0.41016 c -0.75,1.5 -0.64971,2.909 0.3003,4.229 0.54999,-1.37 0.67017,-2.91937 0.93017,-4.35937 z m 1.33887,2.59717 c -0.64755,0.0611 -1.36074,1.16787 -0.72949,2.19287 l 0.88037,-0.0806 0.64013,-0.8496 c -0.0375,-0.96 -0.40248,-1.29938 -0.79101,-1.2627 z m 25.64795,7.9497 c -0.41428,-0.0284 -0.83242,0.11495 -1.10742,0.50244 -1.15,1.35 1.39121,2.76065 2.24121,1.41065 0.67375,-0.95562 -0.22237,-1.85048 -1.13379,-1.91309 z m 9.23291,6.9126 c -0.45,0.04 -1.33978,0.12993 -1.77979,0.16992 -0.27999,2.54001 -0.33939,5.09967 -0.37939,7.65967 0.26,2.48 -1.8302,4.19114 -2.95019,6.16114 4.74,-2.73 7.04937,-8.84072 5.10937,-13.99073 z m 66.6709,23.63086 c -0.71,0.71 -1.40033,1.42893 -2.09033,2.14893 0.16,0.65 0.46988,1.94106 0.62988,2.58105 0.5,0.01 1.52028,0.009 2.03028,0.019 0.08,-1.62 -0.0598,-3.21902 -0.56983,-4.74902 z m -9.06006,4.95996 -0.85107,0.3501 -0.3501,0.81006 0.36035,0.78955 0.84961,0.3296 0.85108,-0.33985 0.35009,-0.79981 -0.36035,-0.7998 z m 61.36964,22.74903 c -0.59001,1 -1.21089,1.9798 -1.65089,3.0498 -0.33,1.55001 0.60125,2.99115 1.03125,4.43115 1.1,-2.31 3.7994,-4.42046 2.6294,-7.23046 -0.5,-0.06 -1.50977,-0.18049 -2.00976,-0.25049 z m 135.21384,55.14551 c -0.7137,0 -1.4346,0.20947 -1.9746,0.58447 0.16005,1.4 3.87112,1.72082 3.91117,0.0908 -0.51502,-0.465 -1.2228,-0.67529 -1.93657,-0.67529 z m -33.95655,2.62939 c -1.84485,-0.031 -3.64275,0.31068 -5.21775,1.32569 -1.97003,1.41 -4.88993,0.0704 -6.45998,2.15038 4.23,-0.51 8.35973,-1.72058 12.67973,-1.35058 -0.06,-0.52 -0.15953,-1.57033 -0.20948,-2.09033 -0.26505,-0.0188 -0.52897,-0.0308 -0.79252,-0.0352 z M 202.23798,550.48391 c -4.47,3.01 -6.32961,8.29994 -9.09961,12.68994 3.12,-0.17 5.2701,2.27104 7.8501,3.56104 -0.43,-2.17001 -1.58012,-4.07108 -2.37012,-6.10108 -0.94,-4.04 4.25963,-6.2299 3.61963,-10.1499 z m -13.49853,77.11084 c -0.27171,-0.003 -0.5509,0.0838 -0.81153,0.29004 -1.58,1.02 0.28947,3.37974 1.70948,2.23974 1.30812,-0.82875 0.27941,-2.51633 -0.89795,-2.52978 z m 4.99804,7.1001 c -0.58,0.03 -1.74031,0.0889 -2.32031,0.1289 0,0.56 0.0105,1.69026 0.0205,2.26026 0.55,0.04 1.66949,0.12088 2.22949,0.15088 0.02,-0.63 0.0503,-1.90005 0.0703,-2.54004 z m -6.67969,38.09912 c -0.69,0.6 -1.36931,1.2108 -2.04931,1.8208 0.67,1.3 1.84953,1.91957 3.26953,1.30957 0.44,-1.29 -0.54021,-2.20037 -1.22022,-3.13037 z m -159.7998,25.5 c -3.070005,2.89 -3.24012,7.74072 -6.87012,10.24072 1.02,1.55 2.03994,3.09998 2.93994,4.72998 -0.789997,2.18 -1.629937,4.86942 0.06008,6.89941 0.999998,2.13 3.76953,-0.12048 2.519535,-1.75048 -0.230002,-1.46 -0.879007,-2.96994 -0.47901,-4.43994 1.330005,-1.27001 3.238755,-1.90002 4.21875,-3.52002 0.440003,-2.14001 -0.708862,-4.05879 -1.338862,-6.00879 -0.78,-1.97 -0.790298,-4.09088 -1.050293,-6.15088 z m -8.879887,12.24023 c -1.74,0.98001 -2.48043,2.81057 -3.190425,4.58057 0.6,-0.02 1.800877,-0.0708 2.400877,-0.0908 1.56,-0.97 0.62955,-3.01975 0.789548,-4.48975 z m 156.779307,40.52928 c 0.63999,3.42 2.22009,7.05008 5.60009,8.54003 0.22001,-3.82995 -3.1101,-6.24 -5.60009,-8.54003 z m 25.64501,67.0137 c -0.29704,-0.012 -0.60252,0.0735 -0.89501,0.2871 -0.87,1.34003 1.22035,3.53985 2.61034,2.81985 0.70688,-1.17817 -0.42812,-3.05565 -1.71533,-3.10695 z m 8.03614,2.7876 -2.08008,0.15968 c -0.59,1.15995 -1.19004,2.31922 -1.79004,3.48922 -0.48,-0.38002 -1.45067,-1.1493 -1.93067,-1.52925 -1.47999,0.87998 -3.08972,1.83023 -3.21972,3.7602 1.45,-0.66 2.52009,-1.8399 3.3501,-3.16987 0.44,0.36 1.31902,1.0887 1.74902,1.4487 1.99,-0.71003 3.92139,-1.75868 3.92139,-4.15868 z m -95.75098,28.83398 c -0.60938,-0.007 -1.13282,0.32985 -1.57031,1.00485 -0.57,1.55003 1.78072,2.40008 2.74072,1.33013 0.09,-0.34005 0.28964,-1.02968 0.38965,-1.36965 l -0.36914,-0.59033 c -0.4275,-0.2475 -0.8253,-0.37222 -1.19092,-0.375 z m 4.04004,0.0555 v 0.50993 h 0.50977 v -0.50978 z"/>
</svg>
