<?xml version="1.0" encoding="UTF-8" standalone="no"?>
<svg xmlns="http://www.w3.org/2000/svg" width="1200pt" height="564.85986pt" viewBox="0 0 1200 564.85986" version="1.1">
  <path d="m 1200,0 c -2.87,1.429995 -5.1898,3.72951 -8.1298,4.9995076 -3.9101,1.98 -8.1501,3.319455 -11.8302,5.6894554 -4.3699,3.740002 -7.6002,8.671072 -12.2402,12.101077 -2.03,1.369995 -4.3494,2.209313 -6.3794,3.549315 -4.46,2.49 -6.4001,7.569923 -10.3301,10.66992 -5.49,4.490003 -11.7696,7.959961 -18.1596,10.959961 3.22,-4.479998 8.1696,-7.20957 12.0396,-11.059568 -3.57,1.070003 -7.0006,2.520525 -10.5807,3.540525 -2.4999,0.680003 -3.94,3.10959 -6.29,4.079595 1.28,-3.140002 4.0298,-5.489887 4.7798,-8.879888 -1.62,0.03997 -2.9296,-0.920542 -4.1397,-1.810545 -1.0399,0.9 -2.0204,1.84008 -2.9604,2.83008 0.17,2.539996 1.1104,6.229531 -1.5996,7.769528 -3.19,-0.02003 -4.5291,-3.539647 -6.3091,-5.639647 -2.26,1.809997 -4.681,3.510667 -7.541,4.180665 -0.05,-1.029998 -0.149,-3.109905 -0.189,-4.1499 -1.52,0.81 -2.9012,2.20023 -2.9912,3.990232 -0.1399,2.13 0.7509,4.599645 -0.829,6.389648 -2.1801,2.810002 -5.0697,4.959607 -7.4298,7.599607 -1.7,1.820003 -2.9703,4.089668 -5.1504,5.409668 0.1401,-2.599995 1.5,-4.829528 2.7701,-7.019528 -0.87,0.21 -2.6207,0.620565 -3.4907,0.830565 0.69,-1.8 1.3897,-3.610687 2.0097,-5.450685 -3.41,1.089998 -4.5594,4.640258 -7.0693,6.760253 -0.4301,-1.44 0.1096,-3.609533 -1.8604,-4.019528 -1.11,0.48 -3.3894,0.799785 -2.8594,2.52978 0.07,1.550003 0.4601,3.089415 0.2901,4.649415 -2.04,2.31 -4.6705,4.030763 -7.0005,6.030765 -2.43,2.259998 -5.9304,1.16871 -8.8404,0.92871 0.66,-1.53 1.4908,-3.008632 2.8008,-4.09863 3.5001,-3.140002 6.7896,-6.53055 10.5996,-9.310552 2.1101,-1.539998 4.1404,-3.229493 5.8404,-5.229488 -7.7,3.579998 -13.8599,9.879923 -21.8598,12.91992 -2.3601,1.010003 -5.1312,1.270058 -7.0812,3.06006 -3.96,3.500003 -5.9899,8.629605 -9.9799,12.099608 -2.28,2.19 -5.2292,3.400313 -8.0991,4.570313 -0.54,-1.119998 -1.0601,-2.230095 -1.5601,-3.3501 -1.46,1.900005 -3.0595,3.819337 -5.2895,4.819342 -2.8001,1.41 -5.9903,1.259805 -9.0103,1.5498 -1.19,-0.06997 -2.0301,0.861 -2.6001,1.770998 -0.66,3.45 0.8604,7.409235 -1.3696,10.469235 -1.8,2.49 -4.2508,5.149771 -7.5909,5.009771 0.4701,-4.909999 3.1197,-9.229121 3.6798,-14.099126 -2.5601,1.510005 -4.8592,3.399262 -7.3491,4.989262 -2.61,1.65 -5.5908,2.54049 -8.2809,4.000485 -3.69994,2.1 -6.51896,5.409749 -10.22891,7.489749 -10.46003,5.86 -21.65048,10.57927 -33.42045,13.00927 -11.06003,2.41001 -21.97013,5.36007 -32.89013,8.31006 -19.17,5.43 -38.33985,10.92071 -57.85987,14.97071 -10.92,2.46 -22.12065,0.70035 -33.14063,0.36035 -6.38002,0.13 -12.81892,0.61953 -18.93892,2.51953 -14.80005,4.66 -29.5599,10.0999 -45.10988,11.64991 -5.94,0.66999 -11.9511,-0.0805 -17.87107,0.78954 -0.70005,2.22 -2.31914,4.08004 -4.57915,4.79004 -8.56999,2.44 -17.65029,4.29078 -25.05029,9.55078 -2.80999,1.90001 -5.76064,3.64007 -8.16064,6.06006 -2.4,2.4 -3.96949,5.44918 -5.97949,8.15918 -2.16,3 -4.76075,5.9309 -5.51075,9.6709 -0.75,3.08001 0.10125,6.31899 1.78125,8.95899 1.54001,2.59 3.43011,5.58021 2.6001,8.72022 -1.86,3.31999 -4.6104,6.14027 -7.92041,8.03027 1.7,2.50999 2.90963,5.36031 3.61963,8.32031 -0.36,8.31 1.77986,16.60922 0.85987,24.94922 -0.35001,2.46999 0.53996,4.84066 1.20996,7.18066 0.47,-0.4 1.41086,-1.18057 1.88085,-1.58056 0.6,2.74999 2.14962,5.37051 1.59961,8.2705 -0.46999,3.43001 0.0695,6.84971 0.78956,10.19971 0.86,-0.82 1.74085,-1.62992 2.63085,-2.41992 0.11001,2.74 -0.2601,5.47045 -0.3501,8.21044 0.31001,2.61 2.07956,4.69985 3.03956,7.08985 1.29,3.69 1.63937,7.66029 1.35937,11.55029 -0.30999,4.53 0.18094,9.05026 0.96094,13.51026 2.09,-1.3 1.43024,-4.20043 2.49023,-6.19043 -0.07,3.99 -1.50054,7.74974 -3.31054,11.23974 -1.39,2.23001 -0.0895,4.67018 0.48046,6.93018 1.54001,6.11 2.11968,12.7098 0.15967,18.7998 0.76001,1.30001 1.55006,2.59967 2.31006,3.90968 -0.13,1.66999 -0.7805,3.46032 -0.0205,5.09032 1.35999,3.3 2.14072,7.22032 0.49072,10.57031 -1.06,2.4 -3.30106,3.9295 -4.83106,5.9795 -0.48999,2.56 -0.59949,5.22068 -1.47949,7.70069 -3.03,8.61999 -5.43053,17.68013 -5.04053,26.89013 0.09,3.66 0.44994,7.33926 -0.0601,10.98926 -0.78,5.55 -2.84955,10.7901 -4.53955,16.10009 -1.58,4.86 -2.22926,9.93989 -3.48926,14.87989 -4,15.89 -8.78109,31.58982 -14.12109,47.06982 -2.67,7.90001 -6.54957,15.29078 -9.55958,23.05079 -2.07999,5.42 -5.68944,10.16031 -7.18944,15.82034 -1.15001,4.39995 -2.3803,8.7795 -4.0503,13.01947 -1.27,3.71003 -3.73947,7.01055 -3.95947,11.04053 -0.12,2.42002 -2.70111,4.91955 -0.39111,7.01955 1.53,-2.00002 3.22107,-4.47998 6.10107,-3.45998 0.35,-0.36 1.03988,-1.07992 1.37988,-1.43992 -0.80999,0.24 -2.43023,0.72975 -3.24023,0.96975 0.88,-2.56005 2.03935,-5.0103 3.83935,-7.0503 -0.70999,1.44 -2.76949,4.19047 0.0205,4.7505 3.1,0.19995 2.53057,-3.31088 3.83057,-5.11088 1.88,-2.61997 5.47896,-2.98995 7.68896,-5.25 3.23,-3.12 4.96975,-7.33927 7.48975,-10.98922 0.48999,0.52995 0.9807,1.07917 1.4707,1.63912 l 0.61963,-1.28902 1.77979,-0.8496 c -0.64001,0.06 -1.92934,0.19927 -2.56934,0.25927 5.35,-4.53 6.26992,-11.9304 10.66992,-17.15041 -1.31,2.41999 -2.44075,4.9198 -3.26074,7.54981 2.58,-2.07 5.62107,-3.66991 7.60107,-6.39991 2.39,2.86 -0.54092,6.70081 1.80909,9.61081 2.97999,-2.29995 4.96056,-5.55045 7.58056,-8.21042 2.14,-2.23 3.92994,-4.7601 5.93994,-7.1001 2.15,-2.57 5.42057,-3.8592 7.58057,-6.4292 1.41,-1.49 2.33986,-3.3507 3.10986,-5.2207 -1.72,0.76 -3.32061,1.75052 -4.8706,2.79053 2.62999,-4.82001 5.86992,-9.2804 8.41992,-14.1504 -0.01,0.99 -0.0103,2.96948 -0.0103,3.95948 2.6,-2.72 4.43012,-6.05893 6.87012,-8.89893 2.88,-3.41 5.80988,-6.78099 8.87988,-10.02099 3.72004,-3.93 8.93044,-6.53883 11.44046,-11.54883 2.04,-4.38 3.0195,-9.27008 5.7495,-13.33008 2.23995,-2.7 5.72093,-4.31088 7.19093,-7.65088 1.71997,-2.89 1.46902,-6.32027 1.749,-9.53027 1.05997,-1.46 2.40112,-0.13946 3.62107,0.31054 -0.40995,1.09 -0.8004,2.20055 -1.17037,3.31055 2.92995,-0.49 4.32,-3.3401 5.76997,-5.60009 -1.09995,0.18999 -3.3006,0.55974 -4.4106,0.73974 0.37995,-4.29 3.60038,-7.43076 5.1504,-11.28076 1.32,-2.79 1.61085,-5.89994 1.65083,-8.93994 2.81002,-3.13001 1.94872,-7.94016 4.90875,-10.91016 2.88,-2.2 6.90097,-2.70965 9.27097,-5.63965 2.70998,-3.33 5.03025,-7.00933 6.99023,-10.81933 0.95002,-1.67001 1.03935,-4.24047 3.08932,-4.98048 2.45003,-0.42 4.94948,-0.11995 7.41945,-0.45996 1.71,-0.51999 2.76053,-2.10003 4.0005,-3.29004 2.49,-2.89 5.8104,-4.86931 9.19043,-6.54931 2.91,-1.49 6.5196,-0.19092 9.32962,-1.94092 1.69995,-1.79 0.62003,-4.40932 0.58005,-6.54932 1.95,-2.12 4.07933,-4.26076 6.83933,-5.28076 7.95,2.53 16.27027,0.19002 24.2403,-0.97998 10.23,-0.99 20.37067,-3.37941 29.74072,-7.64942 4.87995,-2.32999 10.41008,-2.58023 15.35003,-4.74023 2.96002,-1.15 5.41927,-3.22921 8.21925,-4.69921 11.52,-5.61 24.501,-8.30114 35.001,-15.91114 2.87002,-1.9 4.5,-5.6591 8.25,-6.0791 -0.1,0.86 -0.28058,2.58996 -0.37058,3.45996 5.73998,-0.3 7.43025,-7.32981 12.82028,-8.2998 5.63002,-1.33 10.05,-5.40028 15.45997,-7.28028 4.52009,-1.62 9.11959,-3.15003 13.30959,-5.54004 5.4,-3.08 10.1196,-7.18088 14.6396,-11.40087 1.6,-1.54001 3.6,-2.64876 5.88,-2.71875 -1.65,2.91999 -4.1497,5.25929 -5.6397,8.27929 1.76,-0.77 3.5103,-1.5793 5.3203,-2.27929 8.66,-3.19001 16.2206,-8.61108 23.9106,-13.60108 4.35,-2.65 5.7397,-8.16947 10.1397,-10.70947 3.47,-1.93 5.7794,-5.3999 9.3794,-7.14991 3.74,-2.04 7.4407,-4.54994 9.7807,-8.18994 -3.2599,1.55001 -6.1903,3.71964 -9.5302,5.11963 2.55,-4.47 7.5703,-6.98002 9.5903,-11.77002 -6.13,2.85 -11.27,7.39012 -17.1899,10.62012 2.46,-4.61 6.2699,-8.35043 10.4399,-11.44043 3.97,-2.72 7.9087,-5.70899 10.6787,-9.70898 -2.16,1.05 -4.2289,2.26009 -6.3589,3.3501 0.57,-2.32001 1.3694,-4.63002 2.8594,-6.52002 2.02,-1.99001 4.7495,-3.16069 6.4995,-5.45069 1.82,-2.11 2.9301,-5.02074 5.6001,-6.26074 2.98,-1.59 5.1308,-4.26984 7.7608,-6.33984 1.7899,-1.55001 3.8092,-2.88979 5.2792,-4.77979 0.8901,-1.56 1.1903,-3.36022 1.9703,-4.97021 2.3299,-2.37 5.4898,-3.80946 7.6099,-6.43946 3.1699,-3.82 6.3606,-7.64004 9.4306,-11.54004 -2.14,1.15 -4.1301,2.56079 -6.3501,3.55079 -2.17,0.55999 -4.5005,-0.61108 -5.7905,-2.35108 4.3999,-2.65 10.2206,-3.72934 12.8906,-8.56934 1.51,-2.43 3.8401,-4.14967 5.8301,-6.15967 1.29,-0.89 0.3104,-2.68031 1.1704,-3.82031 2,-2.97 4.8188,-5.39066 6.3589,-8.68066 0.64,-2.17 0.4408,-4.4802 0.3808,-6.7002 -0.7599,0.16 -2.29,0.49039 -3.06,0.65039 5.03,-6.05 11.9902,-9.97023 18.7602,-13.74023 2.52,-2.48 4.699,-5.32029 7.2291,-7.8003 4.2,-5.3 9.5901,-9.53986 13.4501,-15.10986 -3.73,2 -6.2401,5.51025 -9.3501,8.26026 -3.28,3.11 -7.49,5.09017 -10.56,8.43017 -2.1,2.21 -3.4501,5.05024 -5.8301,6.99024 -2.6,2.13 -5.4903,3.88056 -8.0303,6.08056 -4.96,4.25 -8.7994,9.66998 -13.9394,13.72998 0.25,-1.61 0.5197,-3.2208 0.7998,-4.8208 -2.8001,0.42 -4.3395,2.96953 -6.2095,4.76953 -2.51,2.84001 -5.7199,4.90032 -8.9399,6.82032 -0.02,-0.71001 -0.061,-2.13912 -0.081,-2.84913 -1,0.05 -3.0003,0.15973 -3.9903,0.21973 3.39,-3.68 6.1812,-8.01965 10.3711,-10.88965 2.73,-1.86 5.2495,-3.99042 7.7095,-6.19043 4.25,-3.82 9.3507,-6.7007 12.9507,-11.2207 3.19,-4.23 8.4696,-5.86959 12.3296,-9.32959 -0.29,-0.52 -0.8909,-1.56008 -1.1909,-2.08008 2.7,-3.27 6.3607,-5.50964 9.2007,-8.63965 -1.73,0.58001 -3.4294,1.18934 -5.1094,1.81934 2.67,-2.84 6.4796,-4.91014 7.6597,-8.89014 -1.67,0.74 -3.2096,1.70084 -4.5997,2.86084 -6.3799,5.19 -12.8805,10.2098 -19.5205,15.04981 -3.03,1.9 -6.5397,4.81949 -10.2597,2.97949 0.7299,-2.07 1.3602,-4.41008 3.1801,-5.83008 2.19,-0.49 5.2197,0.64014 6.6797,-1.60986 1.3401,-2.14 -0.041,-4.62994 -0.8803,-6.68994 0.21,-0.55 0.6205,-1.63995 0.8305,-2.18994 -1.9299,-0.98001 -4.1211,-1.91965 -4.831,-4.13965 1.72,-0.73001 3.56,-1.35985 5.02,-2.58985 2.33,-1.75999 3.661,-4.47016 5.811,-6.41015 2.0601,-1.630006 4.5099,-2.659966 6.6299,-4.209961 3.42,-2.55 6.5392,-5.520645 9.1392,-8.910645 2.19,-2.770005 6.1499,-3.60975 7.96,-6.739748 0.8799,-2.67 -2.7198,-3.880117 -4.7799,-3.87012 -2.0199,-0.24 -2.6601,1.97979 -3.58,3.279788 -2.2301,4.269997 -6.1598,7.200217 -9.0498,10.970212 -1.2701,1.730003 -2.9697,3.060375 -4.9497,3.880373 0.07,-0.9 0.22,-2.70033 0.29,-3.590333 -4.06,2.619998 -7.0606,6.379785 -10.1206,10.029784 -0.02,-0.73 -0.08,-2.189434 -0.1,-2.919431 -2.02,1.370001 -3.7298,3.090681 -5.5298,4.700681 -2.73,0.74 -1.8699,-2.69027 -2.3599,-4.280269 -0.69,-0.190005 -2.0802,-0.591015 -2.7802,-0.791017 1,-3.429998 4.5294,-4.459395 7.1293,-6.379395 -1.0899,-0.72 -2.1792,-1.429883 -3.2592,-2.12988 0.9099,-1.14 1.7793,-2.320808 2.8593,-3.320805 1.3101,-0.830003 2.9599,-0.899805 4.38,-1.5498 1.7199,-1.68 2.6108,-4.109025 4.6508,-5.49903 2.61,-1.95 5.5193,-3.890663 6.5494,-7.180666 -4.35,2.300003 -8.8194,4.340221 -13.2393,6.470221 -5.3001,2.449995 -8.4702,7.59945 -13.1001,10.939455 -3.8601,2.97 -8.2599,5.099955 -12.6299,7.20996 2.65,-2.330003 5.289,-4.799205 6.999,-7.929203 1.19,-2.019997 1.5705,-4.370977 2.5005,-6.500977 2.08,-2.449995 5.5895,-1.868865 8.4595,-2.088863 1.77,0.279998 2.8305,-1.329787 3.7705,-2.529787 1.87,-2.300003 2.1108,-5.351176 3.3808,-7.951171 0.44,1.029998 1.3091,3.090855 1.7491,4.130858 2.65,-3.350003 5.6399,-6.480023 7.6699,-10.27002 1.13,-2.379998 4.0904,-2.71029 6.1304,-4.050293 5.64,-2.930002 7.3198,-10.17057 13.1499,-12.830565 2.91,-1.29 5.9498,-2.479417 8.3598,-4.649415 3.05,-2.67 6.4107,-5.369535 7.9307,-9.269535 -4.69,1.220002 -8.6701,4.030162 -12.8101,6.41016 2.08,-3.93 1.3597,-8.920238 4.6597,-12.240233 0.77,1.29 1.5793,2.59947 2.2793,3.959468 1.36,-0.349995 2.6111,-0.999765 3.6211,-2.00976 -0.03,-1.71 -0.3401,-3.719708 1.1499,-4.949708 4.11,-3.920002 7.5893,-8.49 12.0893,-12 2.29,-1.53 1.5005,-4.8401399 3.4205,-6.6401399 1.3,-1.4199975 2.6494,-2.8107001 3.6694,-4.47070509 L 1200,1.56006 Z M 0,24.81006 v 1.108883 c 4.79,7.100002 11.200664,12.960488 18.430664,17.500493 5.280001,3.57 11.138653,6.1506 16.618653,9.370605 3.2,1.819995 5.570762,4.839727 9.030762,6.219727 8.759999,3.93 17.859864,7.08984 26.359863,11.58984 4,2.180003 8.459902,3.809453 11.649899,7.189456 -5.449995,-1.92 -10.460543,-4.910161 -16.060544,-6.410161 -2.259999,-0.54 -4.549668,-1.758862 -6.909667,-1.338862 -1.39,0.99 -2.480039,2.388907 -4.04004,3.128902 -2.499999,0.560003 -4.779843,-0.849292 -7.089843,-1.529295 -0.82,0.27 -2.479083,0.809588 -3.309082,1.079588 6.739999,4.450005 14.619785,7.260683 20.529785,12.950685 2.09,1.959998 3.119394,4.909455 5.629395,6.439455 2.54,1.789995 5.120471,3.840195 6.480469,6.700193 0.800002,2.790001 -2.620196,3.750491 -4.450196,4.750491 -4.35,-2.48 -5.1,-7.819806 -8.25,-11.299806 -0.36,-0.06997 -1.079942,-0.210998 -1.439942,-0.270998 -0.699999,2.22 0.280215,4.490468 1.220216,6.480473 1.399999,2.740001 3.130214,5.460211 5.720215,7.220211 3.259999,2.34 7.008982,4.52039 8.958982,8.15039 -0.54,2.54 -4.639959,1.07985 -6.459959,1.83984 3.479999,2.96001 7.890276,4.46981 11.780271,6.79981 3.560003,2.09 7.919745,3.65897 9.739748,7.68896 -2.870003,1.09001 -5.679315,0.0109 -8.049315,-1.63915 -1.86,-0.05 -3.749843,0.14052 -5.589848,-0.20948 -2.449995,-0.67 -4.019842,-2.78107 -5.589841,-4.60107 -5.61,0.67 -10.621074,-2.57024 -15.101074,-5.49024 -2.59,-0.60999 -5.288945,-0.11916 -7.918945,-0.13916 -1.24,-2.97 -3.81045,-6.44053 -7.46045,-5.79052 -0.229999,2.76 1.98002,4.94974 2.77002,7.48974 1.08,3.18 3.589902,5.49053 5.649902,8.04053 2.51,3 4.49918,6.43987 7.40918,9.10987 -0.07,-1.93001 -0.149023,-3.84978 -0.249023,-5.75977 2.76,0.28999 4.879472,2.10025 6.959473,3.76025 -0.160001,0.76 -0.469884,2.27955 -0.629883,3.03955 0.84,0.96 1.650859,1.97983 2.630859,2.81983 1.16,-0.35001 2.26959,-0.82039 3.32959,-1.4004 5.030002,4.13001 11.119162,6.73141 15.889162,11.19141 2.019998,1.4 3.029978,3.71992 4.72998,5.41992 1.62,0.97 3.61992,0.88977 5.41992,1.25977 0.05003,4.73 5.040424,6.71981 6.940434,10.5498 -7.840006,-1.18999 -14.459499,-6.99947 -22.479496,-6.95947 l -0.660645,1.02978 c 1.659997,2.89001 5.270707,3.97929 6.720705,7.00929 1.340002,2.58999 2.870212,5.0999 4.970212,7.1499 3.850005,3.87999 7.049144,8.33056 10.119144,12.83056 0.98,1.51001 1.98033,3.12048 2.09033,4.98048 -0.86,1.66999 -2.67985,2.48962 -4.08985,3.61962 -2.059991,-1.74 -4.040246,-3.56088 -6.010249,-5.40087 -0.709995,0.93 -1.40937,1.88007 -2.109375,2.83007 -4.309995,-1.09 -5.370645,-6.01892 -8.910645,-8.14893 -1.639995,-0.38 -3.339255,-0.4305 -4.989255,-0.7705 -2.46,-4.29 3.169433,-7.35981 3.669435,-11.29981 -2.82,0.02 -5.320057,1.27988 -7.56006,2.87988 -1.880001,-0.94 -3.729747,-2.60038 -5.989747,-2.15038 -2.45,0.18 -4.009844,2.38949 -4.839844,4.47948 -0.65,1.72001 -1.080703,4.13076 0.779297,5.28077 2.49,-0.2 4.760273,-1.58004 7.280273,-1.79004 -0.16,4.42 -1.820332,9.36033 0.909668,13.34033 0.999998,2.00001 2.899651,3.2401 4.889648,4.1001 5.510003,2.48 10.400453,6.12909 14.960453,10.05909 1.68,1.66999 3.909532,3.36019 4.019527,5.95019 -0.909997,1.18 -3.048982,1.07082 -3.708982,2.34082 2.930002,2.52 6.579596,3.81955 10.079586,5.28955 6.8,4.41 13.47004,9.05039 19.79004,14.15039 8.25,6.7 17.2298,12.69949 24.04981,20.97949 2.37,2.98 5.19037,5.65037 6.88037,9.13037 -2.37,-0.63 -4.72945,-1.32975 -7.18945,-1.48974 1.60999,2.55 3.87972,4.56945 6.21972,6.43945 3.34,2.64 6.29937,5.71992 9.60938,8.41992 5.41999,4.54 11.19021,8.83029 15.47021,14.55029 2.19,2.72001 4.2107,5.88944 7.47071,7.41944 9.64999,3.87 19.30886,8.131 27.58886,14.521 4.81001,3.82999 9.5111,7.85943 13.3711,12.66943 4.08,3.06 9.57955,2.52986 14.28955,3.85986 2.88,1.25 4.55006,4.34037 7.56006,5.38037 2.69,0.75 5.65044,0.31032 8.21045,1.57032 4.96,2.25 9.37924,5.499 14.21923,7.979 10.56,5.62 20.8502,11.72076 31.4502,17.28076 4.7,2.5 9.45054,4.99027 14.56055,6.53028 3.61,1.06999 7.55956,0.43995 11.05957,1.95996 10.91,5.47999 23.26933,6.63996 34.81933,10.20996 5.44001,1.79 11.37088,1.66953 16.65088,4.01953 9.14,4.19 18.56928,7.69039 28.00928,11.15039 2.77,0.8 5.76094,0.71908 8.46094,1.80908 9.02,5.27 16.59986,12.571 24.10986,19.771 5.57,5.46 11.26913,11.0291 14.84912,18.0791 1.74,3.53 5.47963,5.21996 8.11963,7.95996 4.60001,4.86 7.43082,11.34041 12.84083,15.42041 -0.77001,-1.61 -1.64081,-3.15966 -2.57081,-4.65966 0.98,-0.73001 1.9411,-1.49052 2.8711,-2.27052 1.41,1.53 2.75908,3.12049 4.05908,4.7505 2.16,0.27 4.81082,0.2489 6.09082,2.3789 3.74,5.57 6.56972,11.69033 9.21973,17.84033 2.44999,4.98 6.71964,8.68069 10.88964,12.20069 11.27001,9.24999 23.16984,17.70937 35.58984,25.35937 2.31,1.36 4.52073,3.05957 7.24073,3.55957 -1.05,-1.86 -2.10989,-3.70946 -2.87988,-5.68946 2.8,0.35001 5.36004,1.58046 7.79004,2.96046 6.58,3.78 13.75934,6.53895 19.81934,11.20898 6.07999,4.26997 11.55054,10.10122 19.06054,11.7612 -1.03,-3.12 -2.44082,-6.0705 -3.84082,-9.02048 -2.43,-5.06002 -3.69018,-10.54986 -5.43018,-15.85986 -1.23999,-4.01 -3.08967,-7.83045 -3.90966,-11.96045 -0.6,-2.79 -0.96993,-5.62916 -1.66992,-8.38916 -0.74001,-3.18 -3.22928,-5.58047 -4.00928,-8.73047 -0.91,-3.44 -1.98994,-6.93937 -4.43995,-9.60937 -5.34,-6.2 -9.85091,-13.07014 -13.94092,-20.14014 -1.26999,-2.31 -2.65009,-4.61015 -3.35009,-7.16015 -0.86,-5.57001 0.99045,-11.54106 -1.53955,-16.83106 -1.67,-3.16 -3.29955,-6.34934 -5.28955,-9.31934 l 0.49951,-0.19043 c -1.94,-2.85 -2.97963,-6.15978 -4.36963,-9.27978 -3.43,-8.33 -7.04039,-16.61047 -9.65039,-25.23047 -1.17,-3.6 -1.31014,-7.40982 -2.14014,-11.06982 -1.09,-4.61 -5,-7.77006 -6.75,-12.06006 -1.15,-2.88 -1.26927,-6.0093 -1.75928,-9.0293 -0.58999,-4.03 -2.29045,-7.78053 -2.96044,-11.79053 -1.35,-7.63 -0.8295,-15.40912 -1.4795,-23.09912 -0.76,-8.66 -1.13064,-17.37078 -0.66064,-26.05078 0.12,-2.95 0.78976,-5.86908 2.00976,-8.55908 2.06001,-4.67001 3.58963,-9.56135 5.86963,-14.13135 3.05,-5.97 2.66108,-13.07937 0.85108,-19.35938 -0.95,-3.07 -1.77028,-6.17965 -2.03027,-9.38965 1.06999,0.85001 2.13947,1.72011 3.20946,2.6001 2.46,-3.11 2.15098,-7.44103 1.25098,-11.06103 -1.12,-3.53 -3.4705,-6.51959 -4.5205,-10.07959 0.6,-0.7 1.20933,-1.40033 1.81933,-2.09033 -0.82,-2.62 -2.07885,-5.15895 -2.31885,-7.91895 -0.36,-2.75 1.74911,-4.86074 3.0791,-7.01074 -1.23999,-3.15 -4.30914,-4.34016 -7.11914,-5.66016 -1.99999,-1.02 -0.64019,-3.46892 -0.70019,-5.14892 -3.78,-3.17001 -8.82986,-4.27131 -12.85986,-7.09131 0.37999,-0.57 1.13904,-1.69905 1.51904,-2.26905 -4.46,-6.04 -10.62918,-10.46072 -17.15918,-13.99072 -2.94,-1.16 -6.25031,-1.66906 -8.32031,-4.28907 -6.02001,-0.85999 -12.26942,-0.5005 -18.14942,-2.2705 -1.39999,-0.96 -2.54113,-2.23973 -3.91113,-3.21973 -2.38,-0.94 -5.18899,-0.39006 -7.45898,-1.56006 -2.71001,-3.10999 -6.63006,-4.61965 -9.81006,-7.13965 -3.99,-2.71999 -9.00026,-1.67009 -13.51025,-1.85009 -2.28,-0.4 -4.96962,-1.20041 -6.09962,-3.42041 0.05,-1.67 0.33959,-3.32047 0.3296,-4.98047 -1.74,-2.35 -4.8704,-1.87902 -7.4004,-1.74903 -9.95,0.98001 -19.90968,2.19893 -29.92968,2.14893 -10.38,-0.02 -20.7894,1.67119 -31.1294,0.22119 -3.6,-0.44 -6.84033,-2.19 -10.34033,-3 -4.48,-0.98 -9.00082,-1.87103 -13.59082,-2.06103 -6.38,-0.33 -12.97877,-0.25996 -18.98877,-2.70996 -5.67,-1.73001 -11.19,-4.66975 -17.25,-4.48975 0.28,0.81 0.83914,2.40973 1.11913,3.21973 -3.13999,-0.61 -6.2904,-1.10953 -9.4204,-1.76953 -4.34,-0.94001 -8.26875,-3.07969 -12.46875,-4.42969 -5.39,-1.87 -11.03065,-2.91029 -16.41065,-4.80029 -5.07999,-1.75001 -9.86951,-4.22042 -14.74951,-6.42041 -3.32,-1.47 -6.55052,-3.54989 -10.29053,-3.62989 1.59,2.46 3.7001,4.5007 5.6001,6.7207 -4.47,-2.08999 -7.82969,-5.76048 -11.17968,-9.25048 -2.08001,-2.20001 -5.10106,-2.95049 -7.83106,-4.00049 -6.75,-2.33 -13.4993,-4.64986 -20.2793,-6.85986 -12.47,-4.14 -24.50071,-9.420199 -36.7207,-14.200196 -4.77,-2.04 -9.84004,-3.279983 -14.54004,-5.47998 -9.73,-4.460003 -19.50891,-8.87928 -28.62891,-14.509283 -3.62,-2.229998 -7.44066,-4.390935 -10.18066,-7.710938 -2.1,-2.509995 -4.27907,-5.12982 -7.28906,-6.56982 -2.370004,-0.760005 -4.950844,0.01995 -7.360849,-0.58008 -4.149997,-1.100002 -7.990507,-3.188985 -11.270505,-5.958982 -2.259997,-2.200005 -5.559157,-1.970783 -8.38916,-2.800785 -5.179999,-2.150003 -10.340605,-4.49898 -14.620605,-8.208983 0.61,1.040003 1.190781,2.109495 2.050782,2.979495 6.109999,6.279998 13.429628,11.16978 20.119628,16.77978 2.169998,1.910003 4.600275,3.730215 5.780273,6.47022 -3.06,-1.130002 -5.829585,-2.85006 -8.579588,-4.56006 -5.220001,-3.27 -11.081173,-5.35053 -16.201173,-8.790532 -1.85,-1.249995 -3.749258,-2.43996 -5.739258,-3.45996 0.1,0.880005 0.310156,2.640022 0.410157,3.52002 -4.280001,-1.89 -8.369747,-4.208925 -12.739747,-5.898923 -4.78,-2.050005 -9.901016,-3.82119 -13.541016,-7.72119 -1.29,-1.750005 -3.480312,-1.22916 -5.320312,-0.889162 -2.4,-1.490003 -5.639024,-0.680918 -7.749024,-2.690918 -2.94,-2.73 -6.939648,-3.738848 -10.1396486,-6.06885 C 5.5706446,27.87021 2.85,26.230058 0,24.81006 Z m 1100.7598,11.148923 c -2.37,1.08 -3.8194,3.419925 -5.3394,5.41992 -0.02,0.280005 -0.05,0.851115 -0.06,1.141118 3.18,-0.63 5.2594,-3.381038 5.3994,-6.561038 z m 72.5596,46.620121 c -1.8201,1.059997 -3.5298,2.260777 -5.1798,3.550777 -2.9499,2.030003 -4.629,5.34963 -7.579,7.369628 -1.31,0.770002 -1.7204,2.190337 -1.9205,3.590332 2.6301,-0.259995 4.8597,1.009298 6.4497,3.029299 2.25,-1.000001 4.68,-2.619806 4.96,-5.299804 0.34,-4.250002 1.9796,-8.210235 3.2696,-12.240232 z M 12.490723,88.740234 c 0.04,1.719997 -1.76e-4,3.449182 -0.180176,5.159182 2.88,1.2 4.398965,4.5999 7.688965,4.8999 -1.41,-3.99 -3.818789,-7.829085 -7.508789,-10.059082 z m 11.307129,7.029787 c -1.345642,0.109163 -2.397949,1.811423 -1.647949,3.039548 1.41,2.560001 4.420371,3.190781 6.880371,4.300781 2.28,0.91 4.080273,2.78959 6.530273,3.32959 -1.24,-2.79 -4.050156,-4.17007 -6.410156,-5.83008 -2.01,-1.259999 -3.250078,-3.369839 -5.080078,-4.839839 -0.09187,-0.0075 -0.182752,-0.0075 -0.272461,0 z M 7.9907229,104.729 c 0.2199997,4.53 2.6891801,8.40018 5.9091791,11.43018 1.250001,-0.27 2.5,-0.52929 3.75,-0.7793 -0.459999,-2.50999 -1.450527,-5.07039 -3.540527,-6.65039 -1.92,-1.49 -3.638653,-3.51049 -6.1186521,-4.00049 z m 25.4194341,47.14014 c -1.65,2.13 -2.730547,4.81 -1.810548,7.5 1.02,1.65 2.190509,3.21047 3.020508,4.98047 0.580001,0.22 1.730059,0.67063 2.310059,0.89062 2.920001,-1.17 6.099923,-1.04115 9.169922,-1.43115 -0.399999,-2.62 -3.320586,-3.37914 -5.100585,-4.86914 -3.12,-1.73 -4.409356,-5.4708 -7.589356,-7.0708 z m 43.829592,4.57032 c -1.180005,3.09999 5.090662,4.89084 4.930665,1.36083 -1.47,-0.96999 -3.23067,-1.19084 -4.930665,-1.36083 z m 9.900877,19.63036 c -2.529997,0.58001 -3.601267,3.14985 -5.30127,4.83985 1.269998,1.13 2.500118,2.33035 3.87012,3.36035 2.319998,0.98 4.770855,1.64004 7.130858,2.54004 -0.45,-2.36 -0.520763,-4.75086 -0.780765,-7.13086 -1.05,-0.36 -2.15004,-0.50971 -3.290033,-0.44971 -0.550005,-1.06 -1.08891,-2.10967 -1.62891,-3.15967 z m 1044.177274,18.0044 c -0.7319,-0.0915 -1.6095,0.34736 -2.1783,0.76612 -2.6199,2.01999 -5.1303,4.33995 -6.8202,7.20996 l 0.1801,1.5498 c 3.82,-2.03 8.5604,-4.14041 9.8804,-8.67041 -0.2363,-0.555 -0.6229,-0.80056 -1.062,-0.85547 z M 43.372559,195.99317 c -0.665,-0.0463 -1.287676,0.19648 -1.492675,0.89648 0.02,1.64 1.560449,2.6093 2.960448,3.0293 0.160001,-1 0.959786,-2.10936 0.279786,-3.08936 -0.375,-0.455 -1.082559,-0.79018 -1.747559,-0.83642 z m 8.143067,6.21386 c -0.4825,0.0225 -0.835352,0.30828 -0.735352,1.11329 1.47,1.2 3.049063,2.51964 5.039062,2.63964 -0.679999,-1.28 -1.339062,-2.73003 -2.789062,-3.29004 -0.42,-0.245 -1.032149,-0.48539 -1.514648,-0.46289 z M 1118.9795,218.03028 c -2.79,1.35 -4.9191,3.62883 -7.2891,5.54883 -2.67,2.22 -5.5404,4.30091 -7.5204,7.19091 3.0199,-0.82 5.0702,-3.36969 7.5102,-5.17968 2.56,-2.36001 5.7293,-4.35006 7.2993,-7.56006 z m -595.4502,71.80956 c -2.25,-0.1 -1.73908,2.51928 -1.80908,4.00929 0.45,5.37999 -1.55969,10.65978 -0.67969,16.02978 0.37001,2.58 0.87917,5.52066 3.13916,7.18066 0.08,-4.39999 -0.1198,-8.94964 1.4502,-13.13965 0.79,-2.78 2.34069,-5.87996 0.95068,-8.70996 -1.06,-1.77 -2.31127,-3.43011 -3.05127,-5.37012 z m -0.22998,54.99024 c -0.09,2.02 -0.009,4.0698 0.45117,6.0498 1.44,6.05001 2.6593,12.15961 4.5293,18.09961 0.12,0.9 0.59064,1.5299 1.41065,1.89991 -1.69001,-8.78 -3.32111,-17.63932 -6.39112,-26.04932 z m 27.99023,69.29883 c -1.68999,4.16 0.26069,10.3714 4.70069,11.94141 0.13,-2.25 -1.31069,-3.91137 -2.45069,-5.65137 -0.78999,-1.98 -0.84968,-4.15871 -1.42968,-6.17871 z m 3.39698,13.92481 c -0.14306,0.009 -0.2924,0.0309 -0.44678,0.0659 2.75,6 5.44043,12.03039 8.44043,17.90039 -0.77,-4.76 -2.48965,-9.29004 -4.13965,-13.79004 -0.79687,-1.64062 -1.708,-4.31049 -3.854,-4.17627 z m 7.37402,19.86621 c 1.75001,3.57 3.43969,7.59029 6.67969,10.05029 -1.42999,-3.42 -2.83078,-6.93113 -5.05078,-9.91113 -0.41,-0.03 -1.21891,-0.10916 -1.62891,-0.13916 z m 8.23682,12.60644 c -0.25979,-0.0299 -0.53063,0.0388 -0.79688,0.24316 -0.72999,1.22001 0.68989,3.49034 2.12989,2.84034 0.69875,-0.95875 -0.20725,-2.95365 -1.33301,-3.0835 z m 2.86231,5.51368 c -1.28001,0.12999 -2.55936,0.1491 -3.83936,0.0791 2.5,2.29999 4.46002,5.08074 6.52002,7.76074 -0.95,-2.6 -1.86067,-5.20985 -2.68066,-7.83984 z"/>
</svg>
