<?xml version="1.0" encoding="UTF-8" standalone="no"?>
<svg xmlns="http://www.w3.org/2000/svg" width="740.05957pt" height="810.67529pt" viewBox="0 0 740.05957 810.67529" version="1.1">
  <path d="m 429.36329,0.00441489 c -2.0011,0.05205 -3.98683,0.5579325 -5.94433,0.94043251 -3.69,0.7400025 -7.40946,1.4302725 -10.93946,2.7802725 -6.42,2.4500026 -13.26982,3.4905301 -20.06983,4.2905251 -4.11,0.490005 -8.45034,-0.580605 -12.36034,1.129395 -5.46,2.22 -10.41966,5.580413 -16.13966,7.170413 -3.36,1.239997 -6.97019,0.979942 -10.45019,1.43994 -2.87,0.410002 -5.15047,2.470252 -7.98047,3.010252 -2.91,0.42 -5.2299,2.299845 -7.8999,3.339848 -2.54,0.12 -5.22967,-0.75084 -7.65967,0.139162 -3.61,2.689995 -6.64061,6.27078 -10.87061,8.050778 -1.62999,0.669997 -2.34919,-1.359885 -3.42919,-2.12988 -5.44001,1.359997 -10.94,2.959687 -15.75,5.929687 -2.29001,1.479998 -5.07083,1.60998 -7.59083,2.47998 -2.44999,1.249995 -4.7188,2.840115 -7.27881,3.870113 -4.75999,2.110005 -9.98044,2.699085 -14.96044,4.059083 -4.84001,1.59 -8.94995,4.740585 -12.68994,8.100585 -4.06001,3.63 -9.21035,5.599807 -13.86035,8.299807 -4.42001,2.259998 -8.28942,5.490135 -12.89942,7.39014 -3.35,-1.83 -8.03041,-1.799902 -10.17041,1.850093 0.78,-0.09 2.36062,-0.280605 3.14062,-0.370605 1.88001,1.760002 -0.14093,4.14051 -1.71093,5.270512 -3.01,1.989998 -4.55031,5.470193 -7.57032,7.450193 -3.58999,2.360003 -6.72966,5.390213 -10.65966,7.220213 -1.58001,1.400002 -2.2103,3.569355 -3.3003,5.339355 -1.56999,-1.089998 -2.51923,-2.749103 -2.96923,-4.579103 -0.83,0.670005 -1.64043,1.349318 -2.44043,2.049323 0.71,1.819995 0.85037,3.759705 0.88037,5.699711 -0.43001,0.03 -1.28999,0.0811 -1.72998,0.10107 l 0.0395,0.83935 c -2.38999,0.67001 -0.63035,4.05078 -1.11035,5.80079 -0.97999,1.44 -1.84859,2.9895 -3.05859,4.2495 -1.93,1.33001 -4.23063,2.36052 -5.39063,4.52052 -2.35,3.87 -4.38057,8.18946 -8.33056,10.70946 -2.68001,1.46001 -1.76995,5.80983 -5.18995,6.56983 0.16001,-0.88 0.48014,-2.62951 0.64014,-3.49951 -0.89,1.19 -1.93971,2.26957 -2.69971,3.55957 -1.05,2.68 -1.02058,5.81969 -2.85058,8.17969 -1.01,1.63999 -2.74959,2.56062 -4.07959,3.89062 -0.98,1.25 -1.02913,2.90893 -1.34912,4.39893 -1.24001,1.26 -2.37057,2.64002 -3.08057,4.27002 -1.99,4.35999 -5.60953,7.6709 -7.76953,11.92089 -1.39,2.66001 -1.47002,5.76973 -2.77002,8.46973 -2.2,5.23 -6.72107,9.00989 -9.10107,14.12988 -1.37,3.04001 -1.97922,6.34067 -3.19922,9.43067 -2.99001,7.51 -5.01049,15.34945 -7.75049,22.93945 -1.5,4.23 -1.4398,8.8403 -3.04981,13.0503 -1.08999,2.54 -0.99029,5.37047 -1.80029,7.98047 -2.63,6.33 -2.3593,13.41912 -1.52929,20.09911 -1.31001,4.53 -4.16069,8.42948 -5.45069,12.95948 -1.03,3.29 0.81045,6.87004 -0.78955,10.04004 -1.73,4.42 -4.22041,8.51029 -5.67041,13.05029 -0.67,2.51 -2.15926,4.64057 -3.48926,6.83057 -0.27,2.54 0.62906,5.23043 -0.21094,7.69043 -2.05,2.56 -3.98892,5.21965 -5.898921,7.88965 -2.150003,3.35 -2.63049,7.65031 -5.500485,10.57031 -6.99,7.35 -14.350455,14.34959 -21.710453,21.32959 -2.979998,3.19 -6.019395,6.72027 -7.129395,11.03027 0.39,0.26 1.17006,0.75953 1.56006,1.01953 2.480002,-4.65 4.77012,-9.97054 9.870113,-12.31054 -2.299996,4 -3.640156,8.51023 -6.410153,12.24023 -4.089998,5.79 -8.01027,11.81037 -13.280273,16.63037 -2.97,2.72 -5.41014,5.92963 -8.14014,8.86963 -1.899997,2.09001 -3.79959,4.29999 -4.829587,6.97998 -1.299998,3.26001 -0.860895,7.0908 -2.920898,10.0708 -2.37,3.64001 -4.52883,7.41997 -7.04883,10.95997 -3.96,5.05999 -5.570955,11.39892 -8.230958,17.14892 0.920003,-0.82 2.75994,-2.46883 3.68994,-3.29883 -2.059995,4.81001 -4.340287,9.51891 -6.300292,14.37891 -1.609995,4.21 -4.289063,7.90992 -5.789063,12.16992 -1.899997,5.23 -4.849507,10.01131 -6.499507,15.34131 -0.170003,-0.03 -0.5009029,-0.0708 -0.6708979,-0.0908 -0.2300025,-0.31 -0.68967,-0.92047 -0.9096675,-1.23047 -2.2700025,3.58 -3.7494975,7.63994 -2.979495,11.93994 2.2599975,-2.41999 1.15947,-6.28947 2.459475,-9.20947 0.21,0.08 0.620565,0.24984 0.830565,0.33984 0.24,1.84 -0.66,3.64024 -0.75,5.49024 -1.7300025,20.25 -1.42053,40.85039 -6.5405251,60.65039 -0.280005,1.22 -1.10965499,2.16986 -1.889655000001,3.10986 0.009975,0.55 0.019275,1.65019 0.029325,2.2002 0.88999501,0.76 1.7803125,1.73955 1.5703125,3.03955 -0.340005,6.33 -1.5097275,12.88933 0.5302725,19.06933 1.4199975,7.88001 1.9397251,16.79092 7.7197276,22.94092 0.2099999,-0.10999 0.6398629,-0.32041 0.8598599,-0.4204 1.790003,-2.53001 3.090255,-5.39993 3.760253,-8.41993 0.3,-1.64 1.879725,-2.58959 2.469727,-4.07959 0.39,-2.44999 -0.229335,-5.16084 1.180665,-7.36084 2.420003,-4.52 3.719063,-9.51873 5.789063,-14.19873 0.489997,-0.23 1.45092,-0.70043 1.940917,-0.94043 0.51,-4.75 3.46008,-8.57027 5.83008,-12.53027 1.95,-4.18 3.879278,-8.41973 4.759275,-12.96973 0.170003,-1.99 2.340743,-0.21065 3.260746,0.0893 0.54,-1.23 0.97992,-2.50892 1.66992,-3.64892 0.590002,-0.07 1.749105,-0.19074 2.329102,-0.26074 0.9,-4.07 4.280723,-6.96008 4.990725,-11.08008 0.729998,-2.21 0.929903,-4.72971 2.6499,-6.4497 0.18,1.49999 0.369825,3.00929 0.56982,4.52929 0.99,-1.01 2.049263,-1.98998 2.739263,-3.22998 0.619995,-2.11 0.140152,-4.45875 1.160152,-6.46875 1.420005,-2.76 2.089928,-5.89114 3.919928,-8.41114 0.159997,0.97001 0.490387,2.93114 0.650385,3.91114 1.450005,-2.73 3.660097,-4.90111 6.3501,-6.39112 l -1.999515,-1.95996 c 2.25,-1.74 4.839517,-2.94969 7.249515,-4.42968 -0.05002,-1.42 -0.09012,-2.83047 -0.12012,-4.23047 4.520003,-3.44 6.93981,-8.75959 11.299808,-12.32959 2.900002,-2.52 4.400332,-6.21971 7.340332,-8.69971 2.000003,-1.87 4.450508,-3.80006 4.520505,-6.81005 -0.84,0.51 -2.510092,1.53931 -3.350092,2.04931 0.03997,-3.12 2.040135,-5.62994 4.390132,-7.43994 0.03,0.8 0.0889,2.39043 0.12891,3.19043 4.479999,-3.52 9.660429,-6.35969 12.940429,-11.17969 5.65,-3.65 11.86977,-6.31073 17.75976,-9.49072 4.15,-3.62 9.68094,-4.6201 14.46094,-7.1001 4.46,-2.09 7.98918,-5.76975 12.65918,-7.48975 5.11,-1.82 9.47049,-5.1692 14.50049,-7.1792 3.65,-1.54 7.36918,-2.92035 11.15918,-4.11034 0.33,0.36 0.98103,1.07994 1.31103,1.43994 3.91001,-0.21 7.59015,-1.77055 11.14014,-3.31055 4.17,-1.92 8.89989,-1.61934 13.37988,-1.81934 9.83001,-0.13 19.3296,-2.88084 28.8296,-5.11084 7.75999,-1.68 15.43918,-3.72863 23.15917,-5.59863 7.94001,-2.05 15.43061,-5.45033 22.87061,-8.84033 3.69,-1.82001 7.93975,-2.44098 11.23975,-5.00098 5.69,-4.35 11.52013,-8.57014 17.89014,-11.89014 2.52999,-1.26 4.3499,-3.50924 5.6499,-5.96924 0.29,0.54 0.8699,1.62065 1.1499,2.16065 1.75,-1.86 4.28013,-2.39076 6.64014,-3.03077 -0.26001,1.74 -0.54006,3.50001 -0.81006,5.25 -0.94,0.83001 -3.19028,3.1103 -0.53028,3.3003 1.42,-1.18 5.06131,-1.25986 4.09131,-3.85986 -1.06,-2.61 0.79971,-4.87005 1.94971,-7.04004 1.98,-3.48 3.05937,-7.38055 5.10938,-10.81055 1.89,-3.16 3.72993,-6.35004 5.93994,-9.29004 1.01,-1.2 2.17017,-2.69939 3.93017,-2.62939 -0.15,0.69999 -0.43007,2.08906 -0.58007,2.78906 0.54,2.62 3.96992,3.04131 6.16992,2.59131 2.43999,-1.75001 3.46099,-4.9801 6.27099,-6.3501 1.67,1.16 3.16867,2.68009 5.13867,3.3501 1.28001,-0.93 1.99102,-2.37002 3.04102,-3.52002 2.17,-1.24001 4.68949,-1.79126 6.72949,-3.28125 1.44,-2.20001 -0.55045,-5.09893 0.78955,-7.39893 1.45,-2.31 4.54061,-3.52046 4.87061,-6.48047 0.36,-2.16999 2.73977,-2.92965 4.25977,-4.13964 1.86,-0.95001 2.5495,-2.99094 3.49951,-4.71094 0.84999,-1.89 3.46021,-2.23895 4.22021,-4.16895 0.25,-3.02 -1.15957,-6.67049 0.94043,-9.25049 0.15,1.04001 0.45059,3.10965 0.60059,4.13965 1.89,-2.26 2.39939,-5.22016 3.37939,-7.91015 1.98,-5.87 4.26018,-11.7395 4.68018,-17.9795 l -1.99951,0.89063 c -0.05,-1.89 -0.10089,-3.77137 -0.15088,-5.65137 -0.76001,0.49 -1.49975,0.99 -2.23975,1.5 0,-1.6 -0.25981,-3.13891 -0.79981,-4.6289 -1.59,1.21999 -1.66026,3.25027 -2.03027,5.03027 -0.67999,-0.5 -1.42045,-0.78133 -2.21044,-0.86133 -1.16001,2.23 -2.27883,4.51131 -4.04883,6.34131 -1.84,1.96 -2.6109,4.67867 -4.4209,6.63867 -2.04,0.82 -3.32004,2.62137 -4.79004,4.15137 -0.64,-0.11 -1.91909,-0.33067 -2.55909,-0.43067 -3.32,-0.11 -1.34088,3.83965 -2.40087,5.63965 -1.40001,1.19 -3.14948,1.86053 -4.70948,2.79053 -1.88,-0.75 -2.70088,-3.10002 -4.65088,-3.52002 -0.56,1.91 -0.65011,3.89963 -0.87012,5.86963 -2.07999,-0.69 -4.78994,-0.72014 -5.93994,-2.89014 -0.48999,-2.43 1.60026,-4.43935 1.51026,-6.83935 0.06,-1.69 -0.0998,-3.36053 -0.0498,-5.04053 0.33,-1.87 1.68966,-3.31906 2.40966,-5.03906 -0.72,-1.4 -2.63873,-1.04117 -3.69873,-1.95117 -0.97,-2.36 -3.19015,-1.04009 -4.91016,-0.58008 -1.92,-2.51 -2.86013,-5.64991 -5.14013,-7.89991 -2.65,-2.73 -4.97992,-5.97928 -8.41993,-7.75927 0.07,1.01 0.19954,3.02978 0.26954,4.02978 -2.74,-0.56 -4.81937,-2.5305 -6.60938,-4.52051 1.71,0.59 4.25988,2.50997 5.12988,-0.29003 -1.83,-0.54 -3.63986,-1.15971 -5.35986,-1.94971 0.26,-0.48 0.76979,-1.44041 1.02978,-1.92041 -1.29999,-1.42 -2.79044,-2.66938 -4.46044,-3.60938 -1.73,-0.53 -2.36057,1.21962 -3.08057,2.34961 -1.86,-0.55 -1.32976,-2.5693 -0.50976,-3.77929 -1.76001,-1.41 -3.36989,-2.97963 -5.12988,-4.36963 -2.94,-2.08001 -6.52971,-3.39137 -8.69971,-6.40137 0.48,-2.4 -0.90014,-4.43959 -2.14014,-6.32959 -0.05,0.74 -0.16998,2.23975 -0.22998,2.98975 -0.6,-0.52001 -1.79942,-1.56887 -2.39942,-2.08887 l -0.65039,1.98925 0.8291,0.75 2.84034,-0.0395 c -2.62,2.72 -7.40997,-0.34008 -7.95996,-3.58008 -1.14,-6.08 4.14074,-10.7298 4.76074,-16.5498 1.77,0 3.78941,0.819 5.39942,-0.271 1.42999,-0.91 2.6607,-2.11945 3.72069,-3.43945 1.59,-1.86 1.54975,-4.76993 3.73975,-6.16992 4.22,-3.43001 9.37008,-7.03051 10.33008,-12.77052 0.46,-2.29999 3.25008,-2.28908 5.08008,-2.55908 2.26,-2.86 1.63998,-6.57062 2.47998,-9.89063 2.61,-1.11 3.94959,2.29995 5.57959,3.68995 3.29,-2.17 3.93023,-6.48963 6.99023,-8.86963 4.1,-3.31 7.08911,-8.02041 12.0791,-10.17041 3.17001,-1.27 5.55133,-3.76914 8.36133,-5.61914 2.21001,-1.59 5.04975,-1.48074 7.48975,-2.51075 3.03,-1.51999 4.44008,-4.91988 7.33008,-6.62988 6.71,-4.44999 13.76886,-8.32992 20.83887,-12.16992 6.2,-3.49 13.11021,-5.4406 19.97021,-7.1206 8.32,-1.54001 16.32092,-4.29938 24.44092,-6.60938 9.05,-3.09 18.83934,-1.24996 28.06934,-3.45996 5.73,-1.43 11.67079,-1.92961 17.5708,-1.59961 2.10999,0.28 3.69925,1.90897 5.73925,2.43897 1.46,-0.05 2.93014,-0.18991 4.39014,-0.39991 0.53,0.63 1.07993,1.2501 1.66992,1.8501 2.68001,-0.55 5.39983,-0.9091 8.06983,-1.5791 4.78,-0.29 8.76953,2.73918 13.01953,4.40918 7.14,2.34 14.36032,5.27953 22.0503,4.76953 3.90997,-0.09 7.12042,-2.7899 10.92037,-3.3999 3.29003,1.27 6.36998,3.24129 9.98003,3.57129 6.06,0.61 11.90055,2.46941 17.5605,4.64941 4.44,1.95 8.16945,5.1498 12.37942,7.5498 2.97,1.58001 4.89968,4.40052 7.1997,6.77052 2.01998,2.11999 5.16975,2.13003 7.71975,3.29004 2.04,1.56999 3.54113,3.75897 5.70113,5.20898 2.65005,1.72999 5.6895,2.86111 8.16945,4.89111 5.1,4.21 9.87045,8.84912 13.92045,14.09912 5.83995,6.18 10.97985,13.09016 17.6499,18.41016 1.60995,7.68 8.74965,12.31047 11.92965,19.23047 1.96005,4.7 4.3704,9.20951 6.13042,13.99951 -0.63,1.18 -1.24042,2.36053 -1.86037,3.54053 0.91995,-0.45 1.85932,-0.90084 2.7993,-1.36084 2.76,3.29 3.44055,7.70984 5.04052,11.58984 1.80998,4.41 2.19075,9.18125 3.26078,13.78125 1.45995,4.66 5.10982,8.48014 5.81977,13.39014 -0.36997,1.83 -0.9606,3.72877 0.0894,5.48877 -0.48,0.31 -1.45972,0.92047 -1.9497,1.23047 1.89998,-0.32001 3.81975,-0.59975 5.7597,-0.73975 -0.06,2.21 -0.11025,4.41988 -0.0705,6.62989 1.86998,-1.66001 3.4305,-3.6303 5.04053,-5.5503 1.97002,1.79 1.90042,4.57074 2.1504,7.01074 0.41002,3.40001 -1.48088,6.56973 -1.13085,9.96973 0.18997,2.65 0.88987,5.22914 1.1499,7.86914 0.66,6.38 0.34095,12.81092 1.02097,19.19092 0.0503,0.75 0.30908,1.42931 0.76905,2.04931 0.83003,-1.44 1.23,-3.28894 2.77005,-4.16894 1.38998,5.17 -0.34957,11.21992 2.73045,15.91992 l 0.68993,-2.89014 0.81007,0.73975 c 0.94995,5.02 1.52993,10.12024 1.66988,15.24023 l 1.02982,-0.68994 c 0.45,-2.47 0.64103,-4.99084 1.54103,-7.36084 0.40995,8.41 -2.3802,16.60979 -1.91018,25.02979 2.19998,-1.8 1.7991,-5.27953 4.05908,-7.01953 0.15997,8.09 -2.19968,15.9698 -2.40968,24.0498 -0.08,4.97 -0.97005,9.95959 -2.83005,14.57959 0.21998,0.03 0.6501,0.0813 0.87008,0.11133 1.04002,-2.61 2.55022,-4.99054 4.4502,-7.06054 2.38005,-2.66 2.98927,-6.30084 3.94927,-9.61085 1.21995,-4.14 4.02045,-7.63937 4.98045,-11.85937 0.6,-2.59 1.23975,-5.16948 2.00978,-7.70947 4.08997,-13.09001 5.63062,-26.8307 6.43065,-40.47071 0.63997,-7.28 0.0195,-14.59916 0.31935,-21.88916 0.87,1.54001 1.47022,3.1894 2.03025,4.8794 0.72,-0.83001 1.09987,-1.78963 1.1499,-2.86963 1.01002,-15.32 1.33087,-30.7208 0.67087,-46.0708 -0.96997,-5.95 -1.42065,-12.00025 -0.72067,-18.01026 0.50002,-2.17999 1.48005,-4.21914 2.08005,-6.36913 -2.49998,-2.65001 -3.32048,-6.26026 -3.77048,-9.76026 -0.66997,-3.63 0.87998,-7.24965 0.22995,-10.88965 -0.81997,-4.6 -0.0293,-9.46061 -1.76947,-13.87061 -0.87,-2.11999 -0.50963,-4.44013 -0.84968,-6.64013 -0.78997,-1.42001 -1.95022,-2.59998 -2.78025,-3.97998 -0.75,-2.13 -0.86047,-4.41887 -1.46047,-6.58887 -0.87998,-3.74 -3.3498,-6.81995 -4.5498,-10.43994 -0.67995,-2.05001 -1.82948,-3.86069 -3.26948,-5.45069 -0.08,-2 -0.1197,-3.98949 -0.15967,-5.97949 -5.46,-6.08 -11.41005,-11.92033 -15.06008,-19.34033 0.72,0.07 2.14965,0.19928 2.86965,0.25928 -0.03,-0.73001 -0.0799,-2.18969 -0.10987,-2.92969 l -0.62993,1.5498 c -0.66,-0.57 -1.28085,-1.15953 -1.88085,-1.76953 1.65,-2.54 3.88043,-5.79039 2.38043,-8.90039 -0.68003,-1.42 -2.4795,-1.08951 -3.72953,-1.24951 0.24998,1.61 0.50903,3.21984 0.76905,4.83984 -1.50997,-0.51 -3.31905,-0.37929 -4.51905,-1.52929 -4.23,-3.86 -8.25112,-7.94014 -12.39112,-11.89014 -2.17995,-2.05 -2.76983,-5.14045 -4.5498,-7.46045 -2.37,-2.38 -5.49968,-3.72051 -8.40968,-5.27051 -3.03,-1.429994 -4.27957,-4.760076 -6.0996,-7.330071 -1.02997,-1.850003 -2.8098,-3.58938 -2.52975,-5.859375 -0.93,1.079992 -1.39995,3.949177 -3.3999,2.159175 0.0203,0.440002 0.0593,1.33125 0.0791,1.78125 0.53003,-0.27 1.5999,-0.800543 2.12993,-1.060545 0.0503,0.96 0.15067,2.889862 0.2007,3.85986 -2.09003,-1.269998 -4.26068,-2.479823 -5.91068,-4.31982 -2.82997,-3.170003 -6.13957,-5.850195 -9.03952,-8.950201 -2.31,-2.43 -5.63963,-3.560115 -7.82963,-6.120112 -2.58,-2.800005 -5.17072,-5.739765 -8.74072,-7.259768 -6.15998,-2.829997 -11.36055,-7.239435 -16.81058,-11.169435 -9.40995,-6.319995 -19.29855,-12.150308 -30.05857,-15.820313 1.54005,2.350005 4.37985,3.359393 6.0498,5.629396 -4.21995,-1.380001 -7.79003,-4.059338 -11.54003,-6.319336 -6.71002,-3.06 -13.78042,-5.370255 -20.21047,-9.010252 -4.33995,-0.48 -9.04973,1.789995 -13.02975,-0.75 -2.55,-1.220003 -5.39963,-1.210178 -8.11965,-1.68018 -1.75995,-0.819998 -3.23025,-2.159625 -5.03025,-2.869628 -4.68,-0.799995 -9.58013,0.13992 -14.14013,-1.33008 0.52995,-0.33 1.58963,-0.990075 2.11958,-1.330072 -0.52995,-2.28 -3.2991,-2.7402 -5.09909,-3.7002 -3.62,-1.74 -7.4809,1.48008 -11.1709,-0.16992 l -0.42041,-1.33008 c 0.39,-0.05003 1.18057,-0.150428 1.58057,-0.190425 0.69,-0.78 1.43974,-1.499948 2.23974,-2.18994 -1.68999,0.149992 -3.37956,0.220995 -5.05956,0.27099 0.51999,0.48 1.54982,1.449202 2.06982,1.929202 -1.86,0.159998 -3.71029,0.189608 -5.5503,0.09961 0.08,-0.879998 0.2203,-2.629508 0.3003,-3.499508 -0.53,-0.03998 -1.0398,-0.0699 -1.5498,-0.109867 0.39999,1.329997 0.69933,2.679787 1.06933,4.029787 -3.43,-2.01 -7.32895,-2.8893 -10.91895,-4.529295 -1.63999,-0.790005 -3.45045,-1.159747 -5.21044,-1.489747 0.08,-0.310005 0.22029,-0.930473 0.30029,-1.230473 -2.08,-0.39 -4.12998,-0.9006 -6.22998,-1.120605 l -0.3501,0.64014 0.61963,1.850093 c -1.84,-0.609998 -3.74998,-0.959588 -5.47998,-1.829588 -0.74,-0.8799975 -1.69057,-2.850465 -0.0806,-3.480465 3.19,-0.72 6.1702,0.63027 8.95019,2.0302725 1.03001,0.6999975 3.41075,-0.2796675 2.51075,-1.6596675 -0.64,-1.990005 -3.06961,-1.2898275 -4.59961,-1.3198275 -2.42,0.33 -4.74055,-0.5102325 -7.06054,-0.9902325 -2.05001,0.69 -3.80009,2.02926 -5.83008,2.739255 -2.14001,-0.1299975 -3.88045,-1.6100175 -5.96046,-2.02002 -1.8,-0.139995 -3.51924,0.5109375 -5.21923,0.9609375 -2.92001,-1.29 -5.50028,-3.1598251 -8.03027,-5.0698201 -3.9,0.8799975 -7.90034,0.32937 -11.84034,0.609375 -2.72,0.4599975 -4.61914,-1.97068501 -7.11914,-2.45068501 -0.67,-0.105 -1.33981,-0.13746 -2.00683,-0.12012 z m 90.3545,14.24121011 c -0.92427,-0.04095 -1.877,0.06765 -2.69825,0.18018 -2.05,0.24 -3.40942,1.82883 -4.64941,3.29883 3.42,-1.880002 7.209,-1.979377 10.97902,-1.359375 -0.63127,-1.568752 -2.09092,-2.05137 -3.63136,-2.119635 z m 23.03319,6.020513 c -1.13123,-0.02873 -2.21648,0.323355 -3.00143,1.318357 1.8,0.969998 3.71978,1.7709 5.81978,1.420898 0.11002,-0.439995 0.34995,-1.329533 0.45997,-1.769528 -0.96997,-0.530002 -2.1471,-0.94098 -3.27832,-0.969727 z m 9.126,2.87109 c -0.23753,7.5e-4 -0.52995,0.05977 -0.87743,0.177247 -0.39,1.400003 0.11925,1.86039 1.52925,1.400393 0.2775,-1.0575 0.0607,-1.580453 -0.65182,-1.57764 z m 7.96725,3.046875 c -0.41385,7.5e-4 -0.82733,0.06345 -1.23488,0.210937 -1.62,0.21 -1.15012,2.45961 -0.18015,3.099615 2.37998,1.029998 4.96973,1.43103 7.48973,2.06103 2.65005,0.820005 4.8402,2.65008 7.4502,3.58008 4.15005,1.610003 8.36017,3.10875 12.41017,4.96875 0.08,-0.620002 0.22028,-1.859977 0.3003,-2.47998 -0.80002,-1.959997 -2.96985,-1.529925 -4.60987,-1.66992 -1.94003,0.03998 -3.59018,-1.0392 -5.2002,-1.929202 -4.17,-2.439998 -8.44005,-4.73076 -12.81008,-6.780758 -1.125,-0.51 -2.37345,-1.06383 -3.61522,-1.060552 z m 108.61522,57.291503 c 0.06,0.54 0.1893,1.619183 0.25928,2.159183 2.19,1.659997 3.1611,4.820175 6.1011,5.43018 -0.42,-1.86 -1.28985,-3.540413 -2.58983,-4.920413 -0.6,-0.170002 -1.7904,-0.499432 -2.38035,-0.669435 -0.35002,-0.500002 -1.05015,-1.499512 -1.3902,-1.999515 z m -461.01999,1.28907 c -2.24,0.589995 -4.21045,1.820288 -5.96045,3.300293 -1.57,1.32 -3.439,2.750272 -3.47901,5.030272 2.02001,1.569998 2.95981,-0.840337 3.79981,-2.090332 1.4,-2.480003 3.78965,-4.130235 5.63965,-6.240233 z m 496.53954,30.150874 -0.60937,0.0191 c -0.1,0.36 -0.28965,1.0709 -0.38963,1.4209 -0.63,0.15 -1.89982,0.45963 -2.52982,0.61963 -0.81998,0.75 -0.2712,1.84002 -0.22118,2.77002 1.47998,0.3 2.88045,0.96007 3.94043,2.08008 0.22005,-0.25001 0.6501,-0.76953 0.87015,-1.01954 -1.40003,-0.99999 -3.3297,-4.14119 -0.4497,-4.72119 -0.15,-0.29 -0.46088,-0.87894 -0.61088,-1.16894 z m -195.61962,0.38965 c -0.06,0.32 -0.15973,0.96932 -0.21972,1.29932 -2.88,1.88 -6.52,2.04084 -9.75,2.86083 1.63,-3.85999 6.34973,-4.17015 9.96972,-4.16015 z m -199.39013,99.3003 c -0.20001,2.06 -0.0503,4.12017 -0.0703,6.18017 -1.15,2.7 -3.92932,5.0998 -2.79931,8.29981 0.48,0.04 1.4597,0.11967 1.9497,0.15966 -0.43,1.95 0.50006,5.73989 3.06006,5.12988 0.91,-2.43 -0.58004,-5.74023 -3.29004,-6.24023 1.16,-3.39 1.95015,-6.87988 2.66016,-10.37988 -0.50001,-1.08 -0.94026,-2.12941 -1.51026,-3.14941 z m 49.76073,61.5205 c -0.7987,0.005 -1.14804,0.51581 -1.06054,1.53956 0.22,1.29 1.53934,1.55925 2.56933,1.98925 -0.02,-1.27 0.0104,-2.68951 -1.13964,-3.49951 -0.1325,-0.02 -0.25504,-0.0299 -0.36915,-0.0293 z m 333.87895,6.29883 -0.81008,0.3501 -0.32962,0.84082 0.3399,0.81885 0.81,0.33984 0.83062,-0.33984 0.3501,-0.8291 -0.3501,-0.84082 z m -261.23001,21.79981 c -1.54,0.79999 -3.06903,1.64058 -4.74903,2.10058 -4.26,1.02 -6.64027,5.10932 -9.53027,8.04932 -1.87,2.35 -5.25043,1.59129 -7.69043,2.82129 -2.44,0.99 -3.45008,3.55992 -5.08008,5.41992 -1.3,1.15 -2.94963,1.77951 -4.36963,2.74951 -0.75,3.22 -2.8705,5.7603 -4.5205,8.5503 -1.41,2.31999 -0.44004,5.17972 -1.04004,7.71972 -2.45001,1.79 -5.0097,3.9894 -8.17969,4.1294 -1.8,0.41999 -2.62043,2.93047 -4.69043,2.73046 -0.53,-0.32 -1.59989,-0.96027 -2.12988,-1.28027 -1.69001,1.43 -3.56907,2.61045 -5.78907,2.96045 -0.96,1.6 -1.5601,3.3892 -2.6001,4.9292 -1.7,1.77 -3.8509,3.01027 -5.9209,4.28027 -2.84,1.77 -6.51994,1.70072 -8.93994,4.24073 0.08,-0.75 0.24105,-2.25 0.33105,-3 -0.36999,0.16999 -1.09044,0.50968 -1.46044,0.67968 -1.19,0.92 0.66967,1.94969 0.90967,2.92969 -2.47,0.72 -5.10899,0.83015 -7.45899,1.91015 -4.16,2.00001 -8.78088,2.77036 -12.90088,4.86036 -1.69,0.74 -3.26957,1.77949 -5.05957,2.22949 -2.52,-0.98 1.42908,-5.39992 -1.94092,-5.41992 -2.82999,1.14 0.0203,5.15978 -1.9497,7.02978 -1.25001,1.62 -3.41994,1.44067 -5.18994,1.93067 -1.22001,1.17999 -1.99039,2.71939 -2.9004,4.12939 l -0.92871,-1.16015 c -2.42,-3.64001 3.77959,-5.44994 2.57959,-8.93995 -5.02999,2.66 -3.26017,9.40004 -5.43017,13.79004 -1.1,-0.09 -2.38061,-0.91031 -3.37061,-0.0703 -2.06,1.23 -2.55976,3.69118 -3.50976,5.70117 -1.02,1.83 -3.28022,2.13981 -4.97022,3.04981 -0.93,0.92 -1.62916,2.02031 -2.38916,3.07031 -0.49,-0.34 -1.46092,-1.03109 -1.94092,-1.37109 -2.3,0.08 -1.909,2.72117 -2.729,4.20117 -2.16,2.49 -4.53963,4.82957 -7.36963,6.55957 -1.56,1.55 -3.32062,2.85039 -5.39062,3.65039 -1.52,2.45 -1.20938,6.26994 -4.35938,7.43994 0.44,-1.36 0.88938,-2.71055 1.35938,-4.06055 -3.34001,0.23001 -4.36053,3.43981 -6.54053,5.29981 -0.34,-1.39 -0.69933,-2.76965 -1.06934,-4.13965 -0.96,1.01 -1.76086,2.15023 -2.63086,3.24024 -1.13,0.6 -2.35951,0.93999 -3.49951,1.5 -1.31,1.8 -0.9798,4.18023 -1.5498,6.24023 -1.46,2.68 -4.50941,3.65 -6.89942,5.25 -1.17,1.33 -1.80033,3.21916 -3.59033,3.88916 -0.14,-3.26 3.00974,-5.09916 4.48975,-7.63916 -5.77001,2.25 -8.18989,8.33005 -11.87989,12.81006 -4.12,5.80999 -9.13999,10.98892 -12.75,17.14892 -2.32999,5.06 -6.78089,8.58014 -10.4209,12.64014 -4.00999,3.19 -2.57976,10.31057 -8.00976,12.08057 -0.09,4.17 -4.51996,5.46908 -6.45996,8.55908 -0.88,1.19 -1.79951,2.35072 -2.74951,3.49072 -1.27,-0.04 -2.53981,-0.0706 -3.79981,-0.0806 -0.97999,2.37 -1.82062,4.92059 -3.89062,6.60059 -0.02,-0.83 -0.0503,-2.4908 -0.0703,-3.3208 -1.6,0.96 -2.60974,2.48053 -2.98975,4.29052 -0.48999,2.90001 -3.67026,4.26061 -4.28027,7.12061 -2.05,7 -6.56861,12.84918 -9.57861,19.40918 -1,2.48 -4.3003,3.25025 -4.80029,6.01025 -0.82001,3.08001 -1.71042,6.29954 -4.17042,8.51954 0.13,2.59999 -0.65025,5.11015 -2.26025,7.16015 -2.39,3.12 -3.68029,6.93038 -6.30029,9.88037 -2.45,2.8 -3.90986,6.27967 -4.60987,9.90967 -0.88,4.63 -3.63913,8.5608 -4.86913,13.07081 -1.26,5.1 -3.73102,9.84005 -4.54102,15.06005 -0.55,3.83 -1.1793,7.66942 -2.2793,11.39942 -1.57,4.75 -0.9399,9.8994 -2.6499,14.62939 -1.37,3.53 -1.31057,7.53137 -3.08057,10.90137 -3.97,5.86 -4.19947,13.30892 -3.95947,20.14892 -0.54,-0.6 -1.61943,-1.80968 -2.16943,-2.40968 0.08,12 -0.16002,24 0.22998,36 l -1.88087,-0.48045 c 0.20001,3.60998 4.2e-4,7.22078 -0.32958,10.82078 -0.3,2.99002 0.39009,5.95897 0.3501,8.95897 -1.82001,7.66005 -0.06,15.52005 0.22998,23.25 0.36,0.12 1.06968,0.37073 1.42968,0.49073 0.91,3.27 0.18033,7.6197 2.84034,10.1397 1.61,6.93997 3.43019,13.98082 6.70019,20.34082 0.3,-6.42 -0.80996,-12.8205 -0.45996,-19.23052 0.99,-4.26 2.6692,-8.35965 3.4292,-12.67965 0.61,-0.15998 1.84094,-0.46965 2.46094,-0.61965 1.48,-5.59995 1.48972,-11.58113 3.96973,-16.89113 4.18999,-9.48 7.84953,-19.23922 13.01952,-28.23922 1.27,-4.73003 2.50969,-9.4998 4.42969,-14.00978 0.51,0.15998 1.54103,0.48015 2.06104,0.64013 0.85,-2.98995 0.65971,-6.27105 1.94971,-9.10103 l 1.91894,-1.28032 c 1.46,-3.99 3.09033,-7.91895 5.09033,-11.66895 0.46,0.53002 1.39035,1.60012 1.86035,2.14012 3.02001,-1.77 2.58026,-5.54034 3.76026,-8.38033 1.16,-1.85001 2.79916,-3.36 3.88916,-5.25 1.7,-2.66001 2.43041,-6.21071 5.67041,-7.47071 3.48,-9.45 9.84008,-17.79892 17.83008,-23.89893 2.26,-1.74 4.2698,-3.81064 6.7998,-5.16064 3.85,-1.89 5.12096,-6.41961 8.23096,-9.09961 2.08,-1.2 4.38984,-1.9799 6.33984,-3.3999 3.01001,-2.02 5.48922,-4.70981 8.44922,-6.79981 2.27,-1.69 4.76069,-3.0806 6.95069,-4.8706 1.66999,-1.4 2.56023,-3.45957 3.99023,-5.05957 3.56,-1.19001 7.29955,-3.01053 9.03955,-6.54054 2.8,1.10001 4.05991,-2.07052 6.39991,-2.79052 4.83,-1.77 9.44964,-4.19959 13.13964,-7.82959 4.05,-1.4 8.29047,-2.32908 12.48047,-3.30908 1.39,-1.05 2.55013,-2.54129 4.39014,-2.82129 4.60999,-0.83 7.34015,-5.14892 11.66015,-6.64892 1.93001,-0.62001 3.0292,-2.56069 4.9292,-3.20069 6.22,-2.18 12.75012,-4.42914 17.37012,-9.36914 2.2,-0.43 4.60994,0.19937 6.68994,-0.89063 1.61,-1.07 3.04092,-2.43974 4.94092,-2.98974 2.76,-0.85 4.39998,-3.47088 6.97998,-4.65088 2.35,-1.33 5.06951,-1.95008 7.24951,-3.58008 2.74,-2.16 5.61932,-4.229 8.79932,-5.729 3.26,-0.47001 6.93981,0.249 9.7998,-1.771 4.70001,-3.01 10.22106,-4.22959 15.33106,-6.32959 1.08,0.81 2.18004,1.61993 3.29004,2.41992 0.11,-0.75 0.31895,-2.23949 0.41894,-2.97949 4.96,-2.23 9.89991,-4.51041 14.6499,-7.17041 1.51001,-0.91 2.59026,-2.72002 4.51026,-2.77002 4.72,-0.36 9.01986,-2.56969 12.85986,-5.17969 3.46,-2.46 7.45119,-4.05954 10.72119,-6.78954 -1.05999,-1.14 -2.12088,-2.28067 -3.15087,-3.43067 0.75999,-0.94 1.9198,-1.13912 3.0498,-1.34912 -0.06,0.78 -0.18903,2.3489 -0.24903,3.1289 3.44001,0.82001 4.9188,-4.19971 3.00879,-6.44971 -0.94999,-0.34999 -4.14903,0.29958 -3.01904,-1.69042 0.51,-1.51001 0.78953,-3.08967 1.01954,-4.65967 3.54,-0.69 2.60962,-4.95981 3.61962,-7.54981 -1.68999,0.46 -3.33988,1.89072 -5.12988,1.24073 -0.08,-1.86 0.0203,-3.7103 0.0703,-5.55029 1.99999,0.45999 4.02025,0.81912 6.01025,1.34912 -1.7,-1.8 -3.45986,-3.53912 -5.35987,-5.09912 2.18001,-0.78 4.36995,-1.71098 5.93995,-3.50098 2.9,-3.07 6.56943,-5.42 8.91943,-9 1.59,-2.73 4.76067,-3.92008 6.43066,-6.58008 3.04001,-4.25 7.65909,-7.19969 10.05909,-11.92969 0.84,-2.89 0.78062,-6.089 2.39062,-8.729 2.04,-3.49 3.45983,-7.33076 4.31983,-11.28077 0.27,-2.7 -0.58949,-5.33976 -0.7295,-8.00976 0.62001,-1.72 1.62956,-3.25996 2.28955,-4.95996 0.21,-1.64 0.12997,-3.30016 0.45997,-4.91016 0.82,-2.39 2.28072,-4.55055 2.74072,-7.06054 0.31,-2.41001 0.32934,-4.85003 0.31933,-7.27002 -0.93,0.75999 -1.58019,1.77052 -2.20019,2.79052 -2.45,1.48 -4.21018,3.73952 -6.18017,5.74952 -1.66001,1.86 -4.3795,2.23015 -5.9795,4.16015 -0.86,0.87 -2.0199,2.17109 -3.3999,1.3711 -2.09,-0.23001 -3.09019,-2.37116 -4.4502,-3.68116 1.87001,-2.66 4.23073,-4.899 6.49073,-7.229 1.56,-3.06 1.9991,-6.53025 3.0791,-9.76026 1.01,-1.65999 2.86957,-2.55101 4.30957,-3.79101 1.08,-2.31 1.33109,-5.43967 3.62109,-6.90967 0.79,0.31 2.38896,0.92047 3.18897,1.23047 0.71,-0.43 2.14059,-1.28068 2.85058,-1.70068 -1.08,-1.98 -3.21007,-1.67007 -5.08008,-1.56006 -0.84,-2.88 -0.46006,-5.99958 -1.56005,-8.80957 -1.2,-3.38 -4.53975,-5.31908 -5.98975,-8.55908 2.7,-1.88001 2.30926,-5.18028 1.98926,-8.03028 -1.91,-2.45 -4.76875,-4.54104 -4.21875,-8.06103 -3.34,-2.33001 -7.5209,-0.74913 -11.1709,-2.09913 -1.79,1.64001 -3.92963,0.42009 -5.86963,-0.16992 0.39,-0.78999 0.77041,-1.57107 1.17041,-2.35107 -2.33,-1.08 -4.62053,-2.79939 -7.29053,-2.6294 -1.45,0.71 -2.53935,1.93034 -3.83935,2.84033 -1.75,-0.22999 -3.32041,-1.04972 -4.92041,-1.71972 -2.14,1.8 -5.13016,4.68949 -7.91016,2.22949 0.79,-1.16 1.38012,-2.43031 1.62012,-3.82031 -0.82,0.22 -2.4703,0.67063 -3.30029,0.89062 0.08,-0.63999 0.23959,-1.9308 0.32959,-2.57079 z m 268.51903,25.06347 c -0.34327,0.0231 -0.68145,0.2067 -0.93892,0.6167 -1.13003,1.37 1.1211,3.33023 2.18115,1.74023 0.87,-1.05 -0.2124,-2.4263 -1.24223,-2.35693 z m -391.02831,38.70703 c -1.29,0.7 -1.29051,1.38983 -0.0205,2.06983 1.30001,-0.71 1.31052,-1.39983 0.0205,-2.06983 z m 413.61914,26.87989 c -1.14998,0.78 -2.58998,1.0899 -3.68993,1.8999 -0.49005,1.62 1.03118,1.75002 2.18115,2.02002 0.48,-1.32 0.97875,-2.62992 1.50878,-3.91992 z m -515.15918,9.59033 -0.84083,0.32959 -0.35888,0.83057 0.33984,0.83935 0.8291,0.36036 0.82032,-0.33985 0.3501,-0.81006 -0.32959,-0.84082 z m 253.8999,33.19922 c -4.52,3.05 -7.58929,7.72035 -12.02929,10.86035 -1.01001,0.67 -1.77049,1.61055 -2.5005,2.56055 0.45,0.1 1.34004,0.30895 1.79004,0.41894 4.66001,-4.21999 8.67975,-9.05984 12.73975,-13.83984 z m 83.04638,7.45313 c -0.14685,0.004 -0.28725,0.0141 -0.41603,0.0278 -0.76995,0.62 -1.36995,1.85894 -0.45997,2.66894 0.9,1.11 3.12015,0.55067 2.83012,-1.06933 0.40253,-1.37375 -0.92587,-1.65287 -1.95412,-1.62744 z m -2.90625,5.36718 c -2.49,1.03 -4.09028,3.54055 -6.82028,4.06055 -3.21,0.75 -4.97985,4.46934 -8.5899,4.06933 -1.26997,-1.5 -2.2902,-3.71961 -4.5102,-3.8496 -2.63002,0.44 -5.19037,1.37994 -7.86037,1.43994 -6.45,-2.4 -14.30987,-1.59026 -19.60986,2.98974 -4.19001,2.98 -8.20881,6.55016 -13.27881,7.91016 -2.86001,1.98 -4.61018,5.33965 -7.68018,7.13965 -1.51,0.8 -3.40014,1.10111 -4.39014,2.64111 -2.62,3.28 -4.67996,7.0295 -7.95996,9.7295 0.24,2.01999 0.68901,4.17986 -0.27099,6.10986 -0.87,2.58 -3.58918,3.72037 -5.90919,4.63037 -2.88999,1.21 -6.14082,0.5293 -9.09081,1.52929 -2.16,0.68001 -4.89885,1.46991 -5.31885,4.1499 0.84999,-0.16999 2.54869,-0.50968 3.40869,-0.67968 -0.99,1.46 -1.90965,3.04959 -3.38965,4.07959 -4.83,3.19 -10.59983,4.95101 -14.81982,9.04101 -3.49001,2.85 -6.34994,6.38016 -9.68995,9.41016 -1.93,1.45 -1.44982,4.22885 -2.81982,6.06885 -2,2.85 -4.62012,5.23023 -7.62012,6.99023 -0.04,0.6 -0.10941,1.80088 -0.14941,2.40088 -1.49,1.16 -3.04059,2.26893 -4.35059,3.64893 -1.18999,1.59 -1.12048,3.84056 -2.50048,5.33057 -4.70001,4.78999 -8.06877,10.65036 -12.23877,15.88037 -1.31001,1.5 -2.72057,2.91935 -3.83057,4.58935 -1.13,0.06 -2.2594,0.11088 -3.37939,0.15088 l 0.77929,-1.51025 c -2.88,-0.29 -2.72938,1.41947 -2.10937,3.20947 0.78999,-0.07 2.36967,-0.20953 3.15966,-0.26953 -4.28,3.99 -7.80082,8.79006 -9.84082,14.31006 -2.2,3.59 -1.33983,8.11945 -3.56982,11.68945 -3.56001,6.72 -7.70955,13.16 -10.53955,20.25 -1.26,3.11 -2.8195,6.07975 -4.4795,8.98975 -0.5,-0.44 -1.49072,-1.31928 -1.99072,-1.75928 -3.01,2.85 -1.47056,7.23984 -2.33057,10.83984 -1.77,6.2 -4.69965,12.09001 -5.63964,18.52006 -0.77001,6.21 -1.13967,12.5397 -3.15967,18.5097 -1.45,5.06002 -3.99947,9.81007 -4.70948,15.06007 -0.05,6.64005 -0.30101,13.3206 -1.54101,19.87065 -0.99,4.57995 2.46054,10.12875 -1.18945,14.02875 -1.52,-1.26 -2.34016,-3.0489 -3.41016,-4.62885 -1.04,-0.31005 -1.8005,0.0188 -2.27051,0.98873 -1.23,2.03002 -1.16986,5.0307 0.64014,6.72075 1.49,0.88995 3.25056,1.37932 4.58057,2.56927 -1.97,1.43003 -4.33026,2.39093 -6.01026,4.19093 -0.80999,1.62 0.4495,3.19035 1.47949,4.34032 2.01,-2.07 2.69131,-5.10067 4.84131,-7.0107 l 0.92871,0.6606 c -0.48,6.55005 1.37106,13.32998 -1.16894,19.66995 2.98,1.97003 5.44901,4.82978 5.729,8.52983 -0.66999,2.55998 -1.47931,5.12933 -1.29931,7.81928 1.33999,-0.01 2.69004,-0.0203 4.04004,-0.0105 0.19,2.76 0.12052,5.6412 1.29052,8.24115 1.47,3.72 2.23875,7.72005 4.21875,11.25 3.75,7.08 3.1509,15.5295 6.6709,22.70947 0.48,1.16003 1.4498,2.0202 2.29981,2.9502 0.06,-3.01995 0.71017,-5.98995 0.18017,-9 0.66,-1.54995 1.3201,-3.10012 1.8501,-4.68015 -0.62,-1.59997 -1.18024,-3.19005 -1.74023,-4.79002 0.53999,0.0203 1.62968,0.0503 2.17968,0.0705 3.19,-2.59995 1.08082,-7.99005 4.59082,-10.56 -0.14,-3.64005 -0.9009,-7.35068 0.0791,-10.93073 1.18999,-4.21995 2.42976,-8.52915 5.00976,-12.13912 2.31,-3.74003 5.94027,-6.67021 7.28028,-10.97026 1.68,-5.31 5.82005,-9.51052 6.81005,-15.08055 0.19001,-1.86 2.64032,-2.16915 3.07031,-3.88912 1.67001,-5.67 4.0692,-11.17028 4.92921,-17.03033 2.37,-1.65997 4.55007,-3.6207 5.83008,-6.2607 2.64999,-5.23005 5.72064,-10.2294 8.91064,-15.1494 1.75,-2.89005 4.94008,-4.32007 7.33007,-6.58012 1.38,-1.48995 3.33028,-2.15018 5.03028,-3.18015 1.39,-2.84003 2.3802,-5.93918 4.4502,-8.3892 1.56999,-1.86998 4.2299,-1.79085 6.3999,-2.40083 1.87,-1.87005 3.09873,-4.30927 5.19873,-5.96925 1.25,-0.93 1.98099,-2.28022 2.52099,-3.7002 1.79001,-1.10002 3.45022,-2.39085 4.97022,-3.84082 2.26,-2.1 5.03901,-3.5502 7.22901,-5.72025 1.36999,-1.38 1.50117,-3.40966 1.95117,-5.17966 1.1,-0.21 2.21984,-0.40912 3.33984,-0.59911 2,-2.04 3.75959,-4.29073 5.57959,-6.49073 1.47,-1.99 3.94025,-2.69986 6.01025,-3.85987 3.27,-1.60999 5.97909,-4.12964 9.30909,-5.63964 4.83999,-2.36 10.38095,-3.09 14.98095,-6 2.89,-1.73 5.12949,-4.39078 8.22949,-5.80078 2.85,-1.39001 5.14041,-3.66995 7.92041,-5.18994 4.56,-2.53001 9.44901,-4.41928 13.97901,-7.00928 4.09998,-2.38 8.57103,-4.01992 12.79105,-6.16992 3.64995,-1.85001 6.26003,-5.15016 9.81,-7.16016 2.31,-1.22 3.87015,-3.36971 5.89013,-4.9497 2.81002,-0.38001 5.7192,-0.38077 8.3892,-1.53077 3.33997,-1.28 7.61025,-2.12996 9.24022,-5.70996 -2.37997,0.24 -4.87942,0.99032 -7.18942,0.0703 -1.74,-0.88 -3.2709,-2.10063 -4.88085,-3.14063 -1.37003,0.7 -2.70015,1.47008 -4.1001,2.08008 -1.96005,0.29 -4.0497,-1.44985 -5.6397,0.41015 0.29002,2.29001 1.75035,4.18089 2.84032,6.15088 -1.98997,1.1 -4.03987,2.08887 -6.16987,2.83887 -4.35,-1.41 -9.07005,-1.37916 -13.04003,-3.88916 2.79998,-2.1 5.29935,-5.24082 9.08933,-5.34082 1.14,-0.43 3.05092,0.0907 3.44092,-1.52929 -0.27997,-2.12001 -3.18997,-1.29003 -4.5,-2.02002 5.88,-4.96001 9.35978,-12.3404 16.02975,-16.4004 1.12005,-0.71 2.00025,-1.70914 2.9502,-2.61914 4.59,-1.09 7.69995,-5.3306 9.68993,-9.37061 1.10002,-2.4 3.00967,-4.26054 4.59967,-6.31054 4.02998,-6.37 9.2703,-12.11944 11.6103,-19.41944 2.49,-4.31 6.7302,-8.64976 5.72025,-14.00976 -2.36002,-3.25 -5.4,-5.98092 -7.5,-9.44092 3.33,-1.56 7.02923,-2.60933 9.48923,-5.56934 -0.87998,-0.75999 -1.75035,-1.5205 -2.6103,-2.2705 0.84997,-0.96 1.6602,-1.94969 2.49022,-2.92969 -0.51,-1.2 -0.97995,-2.37982 -1.44,-3.56983 -1.30995,-0.1 -2.59912,-0.18953 -3.88912,-0.26952 -1.44,-1.29 -2.93033,-2.53083 -4.34033,-3.84083 0.1,-1.87 1.02923,-3.52949 1.6992,-5.22949 -0.96997,-1.56 -2.42955,-3.50023 -4.53952,-2.49024 -2.44005,1.41 -0.86985,4.81081 -1.5498,7.07081 -2.15003,1.56 -5.33985,2.0089 -6.56985,4.6289 -0.45998,2.16 0.80032,4.28022 0.82035,6.47022 -2.67,1.59 -4.31138,-1.28963 -3.86138,-3.61963 -1.30995,-1.6 -2.50905,-3.27957 -3.53902,-5.05957 -2.93003,-1.81 -5.38035,-4.25039 -7.8003,-6.65039 l 0.83932,-2.32032 c -2.61997,-3.70999 -6.87892,-5.82966 -9.93892,-9.15966 -0.01,-0.62 -0.0503,-1.84973 -0.0705,-2.46973 -0.81998,-1.31 -1.97963,-2.57021 -1.88963,-4.22021 0.36998,-1.79 1.00973,-3.51051 1.48973,-5.27051 z m 18.1011,123.93165 c -0.531,0.0491 -1.0119,0.41367 -1.18065,1.24804 -0.24,1.31 1.63882,2.38039 2.60887,1.4004 1.1481,-1.33376 -0.26002,-2.75659 -1.42822,-2.64844 z m -222.46144,78.41893 c -2.63001,1.29 -2.97952,4.52018 -4.99952,6.41018 -0.91,1.26 -2.86064,2.19885 -2.16064,4.10887 4.86,-0.93997 7.00015,-6.06907 7.16016,-10.51905 z m -5.1709,30.03075 c -0.2375,0 -0.53417,0.048 -0.88916,0.15825 -0.47001,1.35998 0.01,1.8306 1.43994,1.4106 0.345,-1.035 0.16172,-1.5576 -0.55078,-1.56885 z m -3.18164,1.81643 c -0.30329,0.0398 -0.59014,0.18562 -0.82764,0.47317 -1.52,0.60998 -1.31024,2.51873 -0.24024,3.46875 1.51,1.15995 3.9801,-0.62947 3.3501,-2.39947 -0.315,-0.825 -1.37238,-1.66103 -2.28222,-1.54245 z m 71.5708,40.08547 c -0.40578,0.008 -0.83004,0.15255 -1.22754,0.47753 -0.15,0.6 -0.4611,1.8099 -0.62109,2.41987 1.23,0.47003 2.8407,1.16948 3.7207,-0.3105 0.39,-1.38 -0.65473,-2.60752 -1.87207,-2.5869 z m -34.68604,60.54196 c -0.34828,0.0248 -0.68689,0.19267 -0.94189,0.55522 -1.27001,1.44 1.36056,3.22935 2.33056,1.6494 0.7875,-1.0725 -0.34383,-2.27962 -1.38867,-2.20462 z m -4.16162,0.35452 -0.84082,0.3501 -0.35889,0.83055 0.34863,0.83933 0.83057,0.3399 0.81006,-0.36915 0.33985,-0.84083 -0.3296,-0.81007 z"/>
</svg>
