<?xml version="1.0" encoding="UTF-8" standalone="no"?>
<svg xmlns="http://www.w3.org/2000/svg" width="980.21045pt" height="773.57086pt" viewBox="0 0 980.21045 773.57086" version="1.1">
  <path d="m 439.46045,0 c -2.26,1.26 -4.24949,2.999865 -6.72949,3.8598676 0.53,2.8299975 1.78885,5.4204675 3.06885,7.9804654 l -2.85938,-1.539548 c 0.55001,1.71 0.98942,3.439628 1.64942,5.119628 1.02999,1.730002 3.41043,2.430255 3.94043,4.510252 0.82,2.450003 1.66955,4.9194 3.03955,7.129395 2.4,4.040003 4.12005,8.459595 6.81006,12.329596 2.42,3.51 6.06087,5.97078 8.40087,9.550777 1.47,2.330003 2.19039,5.040135 3.6504,7.39014 3.69999,5.769998 7.99935,11.169435 11.33935,17.169428 -3.15,3.310005 -6.19988,6.73026 -9.62988,9.76026 -3.84,3.36 -8.53969,5.439863 -12.67969,8.35986 -2.17,1.5 -4.36033,2.959373 -6.59033,4.359375 -6.76,4.209994 -13.01014,9.231274 -20.14014,12.801274 -2.69,1.20999 -6.05054,1.5697 -7.81054,4.1997 -1.96,2.52 -4.1601,4.94934 -7.1001,6.31934 -7.39,3.62 -14.24874,8.24072 -21.69873,11.74072 -1.81,2.22 -4.28991,3.72895 -7.1499,4.16895 -0.26001,-1.3 1.3789,-4.8492 -1.3711,-4.1792 -0.54,1.68 -0.0696,3.40007 0.19043,5.08007 -2.08,1.87001 -4.44959,3.41954 -6.32959,5.51954 -1.73,1.8 -3.22984,4.00027 -5.58985,5.03027 -1.44,0.68 -2.73048,1.61959 -4.00048,2.57959 -1.69001,-0.17 -3.37983,-0.329 -5.06983,-0.479 0.89,1.11 1.80901,2.21934 2.729,3.31933 -1.8,2.97 -5.61863,3.26003 -7.84863,5.77002 -0.87999,0.37001 -1.76085,0.74061 -2.63085,1.12061 -1.60001,3.76 -6.12927,4.02002 -9.48927,2.77002 0.07,1.27 0.0189,2.51904 -0.16113,3.76904 -1.29999,0.52 -2.62896,0.93969 -3.93896,1.42969 -0.43,-0.43 -1.28973,-1.27947 -1.71973,-1.70947 -2.32,1.24999 -3.49076,3.70074 -5.28076,5.51074 -1.26,1.15 -3.05949,1.29013 -4.47949,2.14014 -1.61,1.80999 -2.74994,3.99925 -4.43995,5.73925 -2.25999,1.87 -5.26052,2.03057 -8.04052,1.58057 -0.13,1.93 0.75012,3.7299 0.87012,5.6499 -1.17,1.64 -2.98076,2.63891 -4.53077,3.87891 -2.07,1.45 -3.66904,3.53031 -6.01904,4.57031 0.28,-1.82 0.65954,-3.60967 1.01954,-5.40967 -0.51,0.24 -1.53054,0.72999 -2.04054,0.97998 -0.81999,2.39001 -2.07927,4.56024 -4.00927,6.24024 0.84,0.22 2.50984,0.66037 3.33984,0.88037 -1.61,1.54 -3.88013,1.16949 -5.89013,1.47949 -0.89001,1.1 -1.55922,2.34971 -2.44923,3.44971 -1.41999,1.1 -3.33111,1.24033 -4.89111,2.09033 -1.65,1.83 -1.95009,4.48047 -3.3501,6.48047 -1.53,0.17 -3.08935,-0.011 -4.58935,0.41895 -2.12,2.05999 -3.0493,5.03099 -5.2793,7.02099 -0.17,-0.72 -0.51115,-2.17039 -0.68115,-2.90039 -1.72,1.8 -2.57937,4.1401 -3.60937,6.3501 -3.03,-1.43 -0.99996,-4.54961 -0.45996,-6.84961 l -2.32032,1.35937 c -0.2,1.98 0.30981,3.9702 0.0498,5.9502 -1.34,2.16 -4.40037,1.93039 -6.13037,3.65039 -1.7,1.18 -3.14959,3.60881 -5.57959,2.77881 0.75,-1.26 1.5,-2.52955 2.25,-3.78955 -4.73,2.21 -8.57975,5.98012 -11.98975,9.87011 -1.99999,1.10001 -4.30945,-0.26005 -6.43945,-0.0601 -2.3,0.71 -3.14103,3.31031 -5.06103,4.57031 -1.72001,1.17 -3.41926,2.39026 -4.98927,3.76026 -2.07,0.03 -4.13017,0.10889 -6.18017,0.35888 -1.02,-1.25 -1.59013,-3.50943 -3.64014,-2.91943 0.57,3.41 0.3896,6.80043 -1.1704,9.94043 -1.92,-0.4 -3.95901,-0.53968 -5.72901,-1.42969 -1.2,-1.35999 -2.17066,-2.91021 -3.43066,-4.22021 -0.35,0.52 -1.06969,1.54982 -1.42969,2.06982 -1.38,-0.88 -2.7599,-1.7308 -4.14991,-2.5708 0.34001,2.02 0.54921,4.07012 0.42921,6.12012 -1.9,-1.09 -2.79924,-3.10022 -3.71925,-4.97022 -1.71999,0.63 -3.44064,1.23132 -5.16063,1.84131 -0.09,0.75 -0.2496,2.25 -0.3296,3 -1.24,-1.31 -2.43963,-2.64023 -3.61963,-3.99023 0.20001,-1.56 1.39002,-4.08088 -0.97998,-4.65088 -3.04,1.62 -0.87018,5.04012 -0.93017,7.62012 -0.82,0.92 -1.76016,1.71003 -2.66016,2.54004 -1.38,-1.86 -2.93043,-3.68981 -5.44043,-3.79981 0.37,1.8 0.73973,3.61043 0.96972,5.44043 -2.59999,-2.75 -4.19902,-6.28059 -6.99902,-8.85058 -1.3,-1.33001 -2.98015,-2.25969 -4.16015,-3.67969 -0.51,-1.32 -0.84059,-2.70074 -1.35059,-4.01075 -1.04,-0.21999 -2.54902,1.22102 -1.74903,2.29102 0.35001,2.07 1.94003,4.29934 0.52002,6.31934 -0.52999,0.12 -1.59987,0.35021 -2.12988,0.47021 -2.19999,-3.21 -2.93035,-7.14 -4.86035,-10.5 -1.84,2.25 -4.31068,3.85006 -6.20068,6.06006 -1.84,0.14 -3.64989,0.49018 -5.12988,1.68018 -1.88001,-3.5 -3.39951,-7.17055 -4.99952,-10.81055 -0.49,-1.28 -1.51972,-2.21942 -2.46973,-3.14941 0.68001,2.23 1.85903,4.24986 3.24903,6.10986 0.41,2.67 1.04057,5.28945 1.58057,7.93945 -3.13001,-2.3 -4.8404,-5.83965 -7.40039,-8.63964 -2.28,-2.53001 -6.07977,-2.25966 -8.75977,-4.13966 -1.55,-1.06 -3.03935,-2.21048 -4.58936,-3.25048 -0.10999,1.77999 -0.17043,3.55961 -0.19042,5.3496 -1.06001,-2.25 -2.19969,-4.65898 -4.42969,-5.95898 -3.9,-2.42 -7.10998,-5.74978 -10.72999,-8.52979 -1.01999,-0.73999 -2.0199,-1.82088 -3.3999,-1.65087 -0.19999,1.77 -0.22984,3.56082 -0.33984,5.34081 -2.57,-2.53999 -5.62021,-5.24087 -5.72022,-9.15087 -2.039996,0.54 -3.669836,-0.41976 -4.839836,-2.00976 1.44,-0.81 2.699782,-1.87926 3.279787,-3.48927 -1.790002,-0.02 -3.25041,-0.73999 -4.170412,-2.25 1.670002,-0.42 3.42951,-0.64115 4.999511,-1.43115 -0.49,-2.52999 -2.559139,-4.16955 -4.119139,-6.03955 0.549998,-0.64 1.659233,-1.91029 2.219235,-2.55029 -1.970002,0.17 -3.959377,0.41097 -5.859375,-0.24903 -0.819997,0.11001 -2.460037,0.32971 -3.29004,0.44971 -0.369997,-0.49999 -1.119742,-1.50097 -1.489747,-2.00098 0.590002,2.25 -0.26043,4.36047 -0.940425,6.48048 -1.030005,-1.91001 -2.040705,-3.86955 -3.720705,-5.28956 -0.290003,2.12 -0.568688,4.24934 -1.15869,6.31934 -1.719998,-1.68 -3.371175,-3.42975 -4.95117,-5.23974 -2.210003,1.08999 -4.399966,2.23007 -6.459961,3.58007 -0.63,-0.48 -1.899787,-1.41965 -2.529787,-1.88965 0.45,-0.73999 0.90084,-1.46994 1.360837,-2.18994 -1.539997,-0.26 -3.190117,-0.13031 -4.62012,-0.82031 -1.299997,-1.44 -1.96068,-3.32933 -3.200677,-4.81934 -2.930003,-3.64 -3.159083,-9.0407 -7.059083,-11.9707 -3.680002,-2.53 -3.700395,-7.68047 -7.400392,-10.23047 l -0.960938,3.08057 c -0.800002,-0.76 -1.588905,-1.52051 -2.37891,-2.27051 -0.269992,0.52 -0.800542,1.56008 -1.060545,2.08007 -2.599995,-3.84999 -5.699393,-7.52028 -10.129395,-9.30029 1.340002,2.77001 1.629907,5.86073 2.649907,8.74073 0.51,1.59 1.11015,3.17939 1.160153,4.87939 -1.130003,0.73 -2.361038,1.2701 -3.561038,1.8501 -0.979995,-0.71 -1.968982,-1.38957 -2.958982,-2.05957 3.06,6.22 3.489337,13.28986 6.319335,19.60987 -0.81,-0.69 -2.41998,-2.06977 -3.22998,-2.75977 1.420005,3.03 1.810335,6.32059 2.090332,9.60058 0.230003,2.27001 2.349181,3.74919 2.909183,5.90919 0.379995,2.46999 0.15084,5.08962 1.360838,7.36962 3.410002,6.81 6.269865,14.20018 6.109867,21.93018 -2.450002,-1.37 -4.949632,-2.62979 -7.369635,-4.02978 -2.109998,-1.16001 -1.45113,-4.23022 -3.16113,-5.72022 -2.169998,-1.4 -5.16006,0.25017 -6.06006,2.43018 0.87,4.83 3.950917,9.07002 4.190917,14.02002 -0.06997,1.95999 1.64037,3.28091 2.380373,4.94091 -2.360003,-0.38 -4.460018,-1.49111 -6.52002,-2.64111 -0.05002,0.77 -0.14043,2.31057 -0.190425,3.08056 -1.970003,-2.50999 -1.660883,-6.04992 -3.900885,-8.41992 -0.75,0.3 -2.259038,0.8792 -3.019043,1.1792 0.33,-3.05 -1.540897,-5.74932 -1.420897,-8.79931 -0.63,-4.31 2.98131,-8.06061 1.84131,-12.37061 -1.869998,-4.1 -6.321,-5.96881 -10.020998,-8.02881 -3.6899999,4.04 -3.9793724,10.51983 -0.609375,14.81982 1.940003,1.82001 4.549358,2.9397 6.089355,5.17969 -0.349995,3.05 -0.498982,6.72995 -2.958982,8.93994 -2.439998,-1.63999 -4.360215,-3.86988 -6.4702129,-5.87988 -1.240005,1.51 -2.2909425,3.1594 -3.2109375,4.8794 2.209995,2.66 4.8712054,5.08998 5.9912104,8.47998 1.519995,3.27999 0.829942,6.96969 1.43994,10.42968 1.089997,2.45001 2.469667,4.79065 3.159667,7.41065 -2.270002,-2.11 -4.809997,-4.2299 -5.9999999,-7.1499 -0.6200025,-4.11 -0.2307975,-8.32041 -1.0707975,-12.42041 -1.92,-0.02 -3.9690675,-0.54977 -5.7890626,0.24023 -0.69,1.35 -1.2105525,2.7599 -1.8105525,4.14991 -1.72999501,1.32 -0.900405,3.73983 -1.1704050000002,5.58984 L 1.1205975,255.35006 c 0.649995,2.55 1.53021,5.03941 1.9702125,7.64941 0.5799975,3.96 0.080055,7.95995 0.060075,11.93994 -0.1700025,3.21 2.0390626,5.83034 2.7890626,8.84034 0.199995,2.38 -0.16926,4.91035 1.0107375,7.11035 2.0300025,4.56 4.1595899,9.08935 6.3295949,13.58935 5.089995,10.22001 7.51029,21.59082 13.050293,31.59083 -0.75,-3.41 -1.809863,-6.75997 -2.359868,-10.20997 3.6,4.35 5.559788,9.77967 7.029788,15.15967 -0.789998,-0.44 -2.39043,-1.31048 -3.190433,-1.75049 0.760005,2.32 1.480688,5.10043 3.950685,6.19044 2.97,1.38999 4.969493,4.1105 6.729496,6.7705 1.92,2.82 1.889707,6.33002 2.699707,9.52002 0.969998,4.46 3.68082,8.2199 5.340818,12.3999 1.160002,2.79 0.519945,5.92907 1.43994,8.78907 1.030005,2.85 4.820137,3.8613 5.14014,7.09131 0.84,3.99 1.799025,8.22 4.749022,11.25 0.54,-0.01 1.62039,-0.0105 2.150393,-0.0205 0.66,1.78 1.950645,3.61035 1.410645,5.61035 -1.120005,1.31 -2.85018,2.23959 -3.18018,4.07959 -1.369995,4.8 -4.780215,8.88027 -4.970213,14.03027 0.06997,3.86001 -4.6593,6.07005 -3.779295,10.04004 0.96,1.71 2.649083,2.98035 3.309083,4.86036 0.6,4.95999 -2.00043,9.44937 -3.190433,14.10937 -0.680002,1.87 -0.988635,4.45016 -3.34863,4.91015 -0.980002,4.10001 -2.09127,8.29932 -4.55127,11.79932 -1.420005,2.25 -3.538755,4.13102 -4.21875,6.79102 -0.500003,2.06 -0.551213,4.19934 -0.74121,6.31933 -0.710003,-0.31999 -2.149635,-0.96027 -2.869635,-1.28027 0.160005,2.78 0.850432,5.62967 0.190432,8.40967 -0.87,2.9 -3.980662,4.05029 -5.680665,6.30029 -0.84,3.17 -1.92006,6.26096 -3.81006,8.98096 0.15,3.6 -0.379042,7.14936 -1.519042,10.58935 2.7,-1.30999 5.48955,-2.39926 8.289555,-3.48925 2.22,-0.86001 3.179722,-3.53022 5.469727,-4.22022 3.690001,-1.08 6.910388,-3.24099 10.400386,-4.77099 1.5,-0.55001 2.500335,-1.8597 3.590332,-2.92969 0,1.35 0.398775,2.63986 0.98877,3.85986 1.420005,-1.18 3.020513,-2.07941 4.520513,-3.14942 -0.940005,0.08 -2.810003,0.24985 -3.75,0.33985 l -1.000493,1.22021 c 0.06,-1.20999 0.09107,-2.41058 0.101078,-3.60058 l 0.75,1.36084 c 3.559995,0.38 6.49947,-2.16984 8.459467,-4.83984 3.610005,-0.46 7.149983,0.71867 10.72998,0.63867 2.950005,-1.74 4.709513,-5.03889 7.999516,-6.35889 0.560002,0.57 1.681215,1.71981 2.24121,2.2998 1.100002,-0.90999 2.169277,-1.85097 3.259275,-2.75097 2.480002,1.73 1.329435,4.93045 1.419435,7.46045 -1.44,1.36 -2.899845,2.73007 -4.08984,4.33008 3.069997,-1.31 5.79033,-3.26987 8.840332,-4.60987 3.909998,-1.66999 5.940585,-5.74029 9.600589,-7.80029 0.39999,0.87 1.22011,2.62977 1.62011,3.50977 2.01,-1 0.17975,-2.86963 -0.0103,-4.36963 -0.08,-1.79 0.55944,-3.55008 1.41944,-5.08008 0.76,-0.08 2.28076,-0.23909 3.03076,-0.30908 0.01,0.69999 0.0293,2.12007 0.0293,2.83008 0.7,-0.13001 2.10052,-0.37073 2.79052,-0.49073 2.1,-1.06 1.68922,-3.57928 1.69923,-5.50927 -1.39001,0.09 -3.04971,0.86919 -4.19971,-0.32081 0.49999,-3.6 2.65066,-6.59004 4.93066,-9.29004 0.85,0.73001 1.68978,1.47071 2.52978,2.22071 -1.44999,1.26 -2.95962,2.45 -4.36962,3.75 2.1,0.01 4.19908,-0.27024 6.30908,-0.24024 3.2,3 6.39996,6.0193 10.20996,8.2793 -1.02,0.98 -2.0298,1.98096 -3.0498,2.98096 0.40999,0.68 1.23062,2.02996 1.64062,2.70996 -0.58,0.77 -1.21086,1.50898 -1.88086,2.20899 l -0.0395,-2.20899 c -0.63,0.86 -1.25939,1.72914 -1.87939,2.61914 1.68,-0.18 3.34881,-0.34901 5.02881,-0.479 l -0.3999,-0.26075 c 1.45999,-1.93 2.83013,-3.93001 4.39013,-5.77002 2.84,2.22 2.23025,6.21983 4.51025,8.81983 2.27001,3.27 6.00989,4.96003 9.62989,6.29004 -0.02,-0.67001 -0.0694,-2.02997 -0.0893,-2.70996 2.07999,1.87 4.18905,3.71025 6.53906,5.26025 0.52,2.37 -2.05018,4.93973 -0.18018,6.96973 0.43,-0.49001 1.28094,-1.48926 1.71094,-1.98926 1.04,0.54 2.0498,1.11902 3.0498,1.74902 0.55,-0.52 1.6502,-1.54982 2.2002,-2.06982 -0.26001,1.9 -0.85022,3.94975 1.02978,5.23975 0.08,0.36999 0.24959,1.13025 0.32959,1.51025 2.32,0.45 5.02037,1.13977 6.13037,3.50977 1.79001,3.3 4.21998,6.19046 6.97998,8.73046 -0.68,-2.61 -1.98935,-5.5297 -0.0894,-7.94971 1.68,1.44 3.58981,2.57999 5.29981,3.97998 1.15999,1.89 1.86909,4.03918 3.07909,5.90919 1.09001,1.5 2.59975,2.6301 3.73975,4.1001 0.16,1.21999 0.33097,2.44114 0.50098,3.68115 1.38999,1.14 3.33906,1.68933 4.28906,3.31933 2.86,4.48 6.00029,8.87035 10.05029,12.36035 1.46001,1.38 3.5509,1.69963 5.1709,2.86963 2.65001,1.93 4.51938,4.78952 7.35938,6.49952 7.15,3.3 12.33975,9.49015 18.73974,13.91015 l 2.35987,-0.99902 c 0.97,0.75 1.93039,1.5093 2.90039,2.27929 1.26,-1.53999 2.46082,-3.12006 3.84082,-4.56006 0.12,0.98001 0.36926,2.92063 0.48926,3.89063 1.43,-1.08 2.6207,-2.42031 3.7207,-3.82031 1.22,0.91 4.03969,0.87924 3.67969,2.96924 -0.45,0.39 -1.35029,1.18031 -1.80029,1.57031 2.46999,4.96 8.33013,6.01957 12.64013,8.80957 -1.52,-5.22 -6.1707,-8.30981 -9.7207,-12.0498 1.01,-0.01 3.04029,-0.0398 4.05029,-0.0498 2.46,1.85 4.96969,3.64978 7.42969,5.52979 -0.01,-0.89001 -0.019,-2.66958 -0.019,-3.55958 0.97,1.4 1.84016,2.87014 2.66015,4.39014 2.77,0.91 5.42958,2.19026 7.30957,4.51025 6.88001,6.15 12.54006,13.51026 19.56006,19.51026 2.96,2.07 6.06038,4.01961 8.38037,6.8496 0.75,-0.42 1.48975,-0.83046 2.23975,-1.23046 2.68,1.12 5.35981,2.4697 8.29981,2.69971 5.38999,0.33 10.78937,2.43095 14.85937,5.98095 0.05,0.35 0.15069,1.04014 0.20068,1.39014 -2.94,1.28 -6.08072,1.11885 -8.74072,-0.68115 -0.06,2.1 -0.10011,4.20054 -0.12012,6.31054 1.78,0.09 3.56076,-0.11014 5.28077,-0.64013 1.87999,1.83 3.61931,4.13033 6.54931,4.11038 -0.74,-2.44003 -2.73992,-4.13083 -3.91992,-6.32083 1.81,-0.06 3.69024,-0.4 5.49024,0 1.59,1.74 3.07021,3.60053 4.97021,5.04052 2.56,2.00999 3.15007,5.44971 5.08008,7.94969 1.15999,1.12005 2.66978,1.80067 4.02978,2.68072 0.65,-1.11 0.57955,-3.06967 2.28955,-3.09967 2.37,0.68002 0.32055,3.35962 0.31055,5.05957 -0.99,-0.18997 -2.95922,-0.5907 -3.94922,-0.78075 2.39,2.78003 5.81901,4.20983 8.72901,6.33983 2.61999,1.85002 4.09986,4.92135 6.85986,6.63135 -0.68,-1.92 -1.41965,-3.84113 -2.63965,-5.47118 -2,-2.79 -5.00957,-4.74007 -6.55957,-7.8501 1.39,0.21 3.22035,-0.26932 4.11035,1.18065 1.95,2.39003 3.85869,4.8495 6.40869,6.66945 1.84,1.17 1.46992,3.51015 1.66992,5.37015 -1.04,0.48998 -2.05884,1.01003 -3.06885,1.56008 1.94001,1.54995 3.66905,3.3405 3.76905,6.02047 -2.87,-1.58002 -5.33883,-3.7101 -7.79883,-5.83005 -2.39,-2.09002 -5.58033,-2.85 -8.09033,-4.73002 -1.99,-1.47 -3.89095,-3.0699 -5.98096,-4.37985 1.91001,4.11997 6.05064,6.38977 9.66065,8.81977 3.55,2.25 6.28029,5.61008 10.05029,7.56008 1.12,0.78 2.93978,1.08015 3.27979,2.66017 -0.18,0.86003 -0.5395,2.56043 -0.7295,3.42038 2.59,1.65 5.69948,2.56912 7.70948,5.0391 1.77,2.04 4.15988,3.33082 6.62988,4.3608 0.64,2.09002 -0.10053,4.77967 1.70948,6.3897 2.77999,0.18997 1.49984,-2.94083 1.83984,-4.59083 4.17,1.53998 8.0107,3.80055 11.9707,5.79053 -1.36,-3.42 -4.45932,-5.9502 -5.04931,-9.7002 2.16999,0.71002 3.89937,2.17987 5.10937,4.1499 0.21,-0.72 0.62057,-2.15993 0.83057,-2.87993 0.57,1.87005 1.57872,3.53003 2.94873,4.95998 -0.13,0.80002 -0.37977,2.41095 -0.50977,3.21097 0.38,0.15998 1.13026,0.48893 1.51025,0.6489 0.19001,-0.72 0.58051,-2.15985 0.77051,-2.87985 1.18,-0.57 2.33982,-1.17037 3.56982,-1.63042 0.51,0.42 1.54958,1.27072 2.05958,1.7007 0.85,-1.32 1.49982,-2.8197 2.81982,-3.73973 3.32,1.23 4.61077,5.09025 5.28076,8.26028 -1.71,-0.9 -3.12092,-2.33048 -4.94091,-2.96048 -0.49001,0.41003 -1.46997,1.21013 -1.95996,1.62015 0.76999,0.70995 1.55056,1.42913 2.33056,2.15918 0.4,1.21995 0.82951,2.47065 1.24951,3.72067 0.56,0.27 1.67071,0.80963 2.2207,1.07963 -0.84999,2.56995 -1.63965,5.20005 -3.38964,7.33005 1.61,1.41 3.71884,2.44072 4.56885,4.53075 0.57999,0.9 0.96003,2.00977 1.79004,2.75977 1.78999,0.06 3.40058,-0.99997 5.10058,-1.43992 -0.15,1.2 -0.45937,3.60907 -0.60937,4.80907 0.75999,-1.01002 1.54865,-1.98997 2.36865,-2.93992 1.49,0.54 2.95019,1.15995 4.45019,1.72995 0.1,-0.48 0.29086,-1.44945 0.38086,-1.93943 0.58,0.36 1.7298,1.08015 2.2998,1.4502 3.50001,-0.49005 6.15977,-3.31995 8.00977,-6.16995 1.21,0.96998 2.41988,1.96043 3.62988,2.96048 0.03,-0.55005 0.0901,-1.66073 0.12012,-2.22075 0.43,0.54 1.30024,1.62945 1.74023,2.16945 -0.84999,1.07002 -1.18048,2.31022 -1.00048,3.7002 -1.87,1.29997 -3.88992,2.4609 -5.41992,4.19092 -2.69,3.09998 -6.53926,4.78958 -9.48926,7.5996 -2.74,2.67 -6.64038,3.80933 -9.13038,6.77933 -1.48999,1.60995 -2.90089,3.29985 -4.42089,4.8999 1.38,0.84 2.77111,1.7103 4.14111,2.6103 -0.85,0.94005 -1.74041,1.83997 -2.67041,2.70997 -2.26,0.08 -3.83965,-1.92922 -5.63965,-2.96925 -0.87,0.79005 -1.70978,1.599 -2.52978,2.439 1.83,1.74 4.33893,1.38008 6.64893,1.62008 0.73999,0.98002 0.91097,2.4807 2.00097,3.2007 2.11,-0.0398 3.37934,-2.04 4.81934,-3.29003 1.11,-1.46002 3.11043,-1.4703 4.69042,-2.09032 -0.96999,2.37 -1.69041,4.94047 -1.1704,7.52047 0.79,1.15005 1.8306,2.12033 2.6206,3.3003 0.57,1.24005 0.69906,2.83988 2.03907,3.62993 1.68,-1.16003 1.90019,-3.33098 2.95019,-4.94093 2.05,-1.48005 4.65029,-1.5597 7.05029,-1.9497 1.03,1.53998 2.17958,3.03075 3.55958,4.30073 2.13999,-2.88998 5.45038,-4.251 8.90038,-4.83105 0.77,0.70005 1.55961,1.42042 2.34962,2.1504 -0.02,-0.70995 -0.0589,-2.12003 -0.0688,-2.83005 1.14,0.92002 2.36873,1.72065 3.69873,2.39062 -0.96,0.80003 -3.33969,2.26973 -1.42969,3.4497 2.22,1.89 4.59097,5.8203 8.00098,4.0503 -0.36,-1.80997 -2.59011,-2.09032 -3.3501,-3.59032 0.27,-4.40003 4.85006,-6.48045 6.06006,-10.46048 1.77999,0.42 1.49952,2.25998 1.76952,3.68993 3.21,-0.27 6.37964,-0.88013 9.61964,-0.87008 1.84999,-0.03 3.30996,-1.41915 4.95996,-2.09917 0.49999,0.6 1.49047,1.78897 1.98046,2.37892 1.05,-1.11997 2.09967,-2.2398 3.15967,-3.33982 4.14,0.03 7.72952,2.77057 11.74952,3.08055 3.37999,-1.78995 6.88116,-3.3798 10.20117,-5.2998 1.62999,-1.32998 3.5698,-0.17978 5.2998,0.24022 0.37,-0.51 1.08899,-1.53052 1.45899,-2.04052 1.2,0.12 2.42013,0.2499 3.64014,0.3999 -0.10001,-0.69998 -0.2894,-2.08028 -0.3794,-2.78025 1.59,0.45997 3.19029,0.92062 4.80029,1.41067 0.93,-0.77002 1.87887,-1.52002 2.83887,-2.25 1.34,1.2 3.00054,1.69973 4.81054,1.71968 0.46001,1.01002 0.93028,2.0094 1.28028,3.0894 -0.44,1.11 -0.93975,2.20095 -1.48975,3.27097 1.21,0.75 2.5802,1.34933 3.7002,2.27933 1.74,2.13 2.80922,4.75072 4.69922,6.78075 -0.03,-2.32005 -0.16014,-4.66073 0.10986,-6.9507 0.48,0.89002 1.41965,2.69032 1.88965,3.59032 1.22,-0.38002 2.44089,-0.73987 3.67089,-1.08982 0.35001,-2.45003 1.67028,-4.41953 3.53028,-5.97953 0.51,0.48 1.52002,1.42995 2.02002,1.8999 0.54,-0.48 1.60893,-1.45065 2.14893,-1.93065 1.23999,1.89 0.95118,4.12073 0.97119,6.26078 1.14,0.76995 2.32956,1.48942 3.55956,2.16937 -0.36,-0.93997 -1.07994,-2.8407 -1.43994,-3.78075 2.37,1.31003 2.75928,3.98018 3.25929,6.41018 1.77999,1.17997 3.62118,2.23987 5.47119,3.33982 0.08,2.34 -2.26057,2.6709 -3.83057,3.67095 1.87,2.76 4.08933,-0.56092 5.56934,-1.94092 0.4,-1.97003 -0.68951,-4.07918 0.25048,-5.90918 2.92,-0.16005 5.07049,2.45055 7.7505,3.3105 1.62999,2.58 3.52919,6.02978 7.17919,5.46975 1.6,-2.07 2.79104,-4.9707 5.81104,-5.22075 -0.79001,1.17 -1.61018,2.34105 -2.43018,3.501 0.68,0.19005 2.04926,0.5688 2.73926,0.75878 1.12,-1.53 1.94043,-3.41903 3.94043,-3.999 -0.45,-0.54998 -1.34004,-1.63995 -1.79004,-2.18993 1.18,0.78 2.33047,1.60943 3.48047,2.45948 0.04,0.69 0.11967,2.07997 0.15967,2.76997 1.29,0.51 2.57941,0.9993 3.89941,1.52933 -0.87,0.93997 -1.38025,2.0205 -1.51025,3.2505 1.47,0.33 2.6107,-0.68948 3.7207,-1.47953 0.95,1.05 1.61955,2.5692 3.03955,3.1392 4.72,1.98 9.23994,4.47015 14.18994,5.89013 1.9,0.62002 3.31098,2.16067 5.00098,3.2007 0.89,-0.70005 1.78971,-1.40063 2.69971,-2.1006 3.21,1.34002 6.38982,2.79097 9.56982,4.251 -4.66,-5.84003 -10.2309,-10.82063 -15.6709,-15.89063 -0.02,0.75 -0.0398,2.25 -0.0498,3 -5.4,-1.97002 -11.14004,-7.91955 -8.54004,-13.99957 -0.33,-0.16995 -0.99887,-0.51113 -1.33887,-0.68115 -0.24,0.56002 -0.71043,1.69005 -0.94043,2.25 -3.27,0.32002 -5.71053,-2.1993 -8.04053,-4.06928 -2.38,-2.11005 -5.27926,-3.44932 -7.98925,-5.04937 -2.69001,-1.62 -4.26094,-4.56083 -6.96094,-6.15083 -1.85,-1.13002 -3.70998,-2.21947 -5.47998,-3.4395 0.08,-1.74 0.90023,-3.7008 -0.50977,-5.1108 -0.46,0.6 -1.39035,1.8111 -1.86035,2.4111 -3.26,-0.76995 -4.81892,-3.73035 -5.89892,-6.59032 -2.44001,-1.43003 -6.26112,-3.81105 -4.14112,-7.08105 2.32,-1.46003 4.88098,-2.47958 7.25098,-3.8496 0.23,2.07997 0.61971,4.1502 1.1997,6.18015 1.03001,-1.69995 1.3094,-4.14015 3.3794,-4.91018 0.56,0.21 1.69,0.63083 2.25,0.84083 1.66,-1.53 3.17098,-3.25028 5.00098,-4.57028 1.47999,-1.10002 3.24933,-0.10057 4.81933,0.1494 1.07,-0.80002 2.061,-1.72005 3.271,-2.31007 1.61,-0.33998 3.24964,0.21022 4.88965,0.24022 1.47999,-1.23997 2.65947,-2.7897 3.95947,-4.1997 0.68,-0.06 2.02996,-0.15967 2.70996,-0.21967 0.96,0.61995 1.93064,1.24965 2.91065,1.88962 0.75,-2.00002 1.65011,-3.93997 2.37011,-5.93992 1.02,-0.51 2.0491,-1.01003 3.0791,-1.5 -2.32,-1.89 -4.18999,-4.20953 -5.25,-7.01955 1.36001,-1.04003 2.93024,-1.881 3.99024,-3.27098 1.17,-2.26005 2.08074,-4.6494 3.26074,-6.8994 3.13,0.0398 5.93011,-1.1508 8.37012,-3.03082 2.47999,0.01 4.14947,-2.01983 6.20947,-3.1098 1.52,-1.07003 3.42969,-1.11008 5.17968,-1.56008 -2.44999,-2.35005 -3.17021,-6.1092 -1.97021,-9.1992 2.69,-3.04005 6.08032,-5.33962 9.07031,-8.05957 8.02004,-7.30005 16.19946,-14.44058 23.68949,-22.29053 6.13995,-6.20003 13.50112,-11.10955 19.20112,-17.74954 1.74,-2.00001 3.63893,-3.84008 5.37893,-5.83008 -0.48998,-0.51 -1.45973,-1.51002 -1.9497,-2.02002 -0.08,-2.65 1.14952,-4.90041 3.26955,-6.42041 1.81995,-1.17 2.04127,-3.27949 2.30122,-5.22949 -1.77997,-0.87 -3.2703,-2.20112 -4.8003,-3.39111 2.15003,-2.29001 4.5495,-4.91024 7.9995,-4.74024 l 3.1509,-2.75976 c -0.87,-0.25001 -2.63122,-0.74903 -3.5112,-0.99903 0.84,-0.79 1.6803,-1.57032 2.5503,-2.32031 0.60998,-1.12 1.2108,-2.22985 1.82078,-3.33985 1.8,-0.8 3.68895,-1.34974 5.66895,-1.48974 2.01,-0.68 3.56122,-2.23022 5.24122,-3.47022 4.03995,-3.54999 8.73908,-6.45066 11.8491,-10.93066 -0.62002,-0.36 -1.86,-1.0902 -2.47995,-1.4502 6.28995,-6.1 13.41045,-11.50922 18.2505,-18.94922 1.04993,-1.96 3.48915,-1.72023 5.38913,-1.74023 -0.11003,1.54 -0.2088,3.08941 -0.2988,4.64941 2.07,-1.23 4.60927,-2.15943 5.7993,-4.41943 0.84997,-1.71 1.77945,-3.38065 2.45948,-5.16065 -0.36,-1.68 -0.99968,-3.2792 -1.36966,-4.9292 2.28998,-2.52 5.87056,-2.97089 9.02056,-3.6709 -1.22003,2.53001 -2.25975,5.141 -3.21975,7.771 2.52,-0.75 4.80862,-2.12074 6.63862,-4.01074 2.14005,-2.27 4.81005,-3.90906 7.27005,-5.78907 -1.68,-0.09 -3.45,0.33915 -5.02005,-0.38085 -1.23997,-3 2.27093,-4.20928 4.19093,-5.50928 2.23005,-1.12 3.6702,-3.20992 4.68022,-5.41992 1.84995,-0.95 3.67028,-2.15088 5.78025,-2.40088 4.82003,-0.57 9.4593,-2.10893 14.0493,-3.64893 4.57005,-1.95999 8.94945,-4.34123 13.41945,-6.51123 5.48003,-2.6 9.49005,-7.28958 14.31008,-10.82958 2.31,-1.96001 5.61105,-1.37967 8.35102,-0.90967 1.94003,0.37999 2.00933,2.72971 2.79938,4.19971 4.56,0.04 6.9594,-4.4802 10.41937,-6.7002 1.87005,-1.66 4.4808,-1.19893 6.78083,-1.39893 2.20995,-0.07 4.3197,-0.77103 6.4497,-1.31103 -0.37005,2.04999 -0.72938,4.12017 -1.06935,6.18017 0.68002,0.06 2.02995,0.15948 2.70997,0.20947 1.2,4.37001 3.15,8.64048 3.29003,13.23048 0.1,1.62 -1.57118,2.45988 -2.41118,3.62988 2.63003,2.04999 2.75078,5.36992 3.03083,8.41992 1.23,-1.5 2.16,-3.20971 3,-4.94971 2.34,-1.33 4.28955,-3.65927 7.07955,-4.00928 4.23,2.15001 7.14105,6.23928 11.3511,8.50928 5.68995,3.23 10.69852,8.47949 17.53852,8.97949 5.03003,2.1 9.09075,5.92041 13.76078,8.67042 1.77997,1.09999 3.8997,1.17948 5.92965,1.47948 2.1,2.19 4.3899,4.24135 7.37992,5.13135 0.45,-0.63999 1.37078,-1.9308 1.82078,-2.57079 4.35,3.79999 8.679,7.72087 13.689,10.65087 2.05995,-2.95 0.89025,-6.78035 1.74022,-10.11035 5.16998,1.92 10.47045,3.89 14.73045,7.5 0.32003,-0.25 0.9498,-0.76074 1.25978,-1.01074 0.93,0.42 1.91962,0.87078 2.86965,1.30078 -0.68003,-2.13 -1.0689,-4.32047 -1.56885,-6.48047 -1.58003,-5.86 -9.8901,-7.64942 -9.3501,-14.39942 2.15002,-0.3 5.02987,-0.16048 6.10987,-2.50048 1.03995,-1.25 0.25958,-2.84037 -0.6504,-3.88037 -1.43002,-1.84 -3.72975,-2.50965 -5.75977,-3.38965 -1.08998,-4.35 -3.68993,-8.06961 -6.62985,-11.34961 -1.34003,-1.5 -3.42045,-1.8201 -5.1504,-2.6001 0.63997,-2.6 2.6802,-4.47037 3.7002,-6.88037 -0.16005,-0.82 -0.48015,-2.44953 -0.6402,-3.26953 3.27,0.26 5.71057,-2.95014 6.08062,-5.89014 -0.61005,-6 -3.88065,-11.24093 -7.41067,-15.96094 -1.38,-0.87999 -2.9904,-1.26976 -4.4004,-2.00976 -0.36,-1.56 0.19117,-3.18987 1.72117,-3.85986 1.58003,-0.41001 3.2292,-0.46944 4.86915,-0.66944 -2.55,-6.82999 -9.25995,-10.93992 -12.45997,-17.41992 -2.13998,-3.36 -0.32985,-7.56084 -1.8999,-11.11084 1.64002,-0.77 3.4695,-0.27009 5.22952,-0.3501 3.21998,-1.86 5.83103,-4.95984 6.79103,-8.58984 0.63997,-3.48 4.16932,-5.11027 5.7993,-8.03028 -0.54998,-2.76 -1.1295,-5.58963 0.48045,-8.11962 l -1.1601,-1.99951 c 2.83995,-0.92 6.3096,-1.22018 8.11957,-3.93018 1.39005,-1.97 3.13995,-3.61061 5.18993,-4.87061 2.00002,-1.11999 0.6798,-3.5998 0.50977,-5.2998 2.43,-3.8 4.1604,-7.98943 6.36038,-11.91943 1.22002,-2.04 1.14075,-4.52995 2.0508,-6.68995 0.66,-1.66 1.0689,-3.40039 1.3989,-5.15039 0.33,-2.6 2.8701,-4.31043 3.06007,-6.94043 0.32003,-4.32 2.82105,-7.95869 4.83105,-11.65869 0.66998,-0.17 1.34933,-0.34123 2.0493,-0.51123 -1.77997,-0.44 -3.56002,-0.82996 -5.31007,-1.20996 0.10005,-3.02 -0.69015,-6.0598 0.0495,-9.04981 -3.54998,1.28001 -7.3395,1.52985 -11.0595,1.83985 1.56,-1.7 3.73927,-3.15979 4.2993,-5.52979 0.63,-3.02 1.161,-6.05994 2.29102,-8.93994 -1.58002,-0.19 -2.95035,-0.73959 -4.0503,-1.82959 -1.97002,0.44 -4.10032,2.22971 -6.07035,1.19971 -0.36,-3.14 -0.30045,-6.34022 0.0398,-9.47022 0.24,-2.28999 1.1502,-4.54986 0.7002,-6.85986 -0.58005,-2.54 -1.62945,-4.92982 -2.62942,-7.31982 0.99,-2.58 2.90992,-4.53033 4.66995,-6.59034 -0.58005,-1.26 -1.7607,-3.15998 -3.43073,-2.47998 -1.47,0.83001 -2.75962,1.95065 -4.13962,2.91065 -0.68003,-0.34 -2.02995,-1.02084 -2.70998,-1.36084 1.68,-2.47 3.96083,-4.53997 5.34083,-7.20996 1.16002,-2.76 -0.48008,-5.43889 -1.62008,-7.85889 0.33998,-3.67 1.42013,-7.15051 2.89013,-10.5205 -0.93,0.19999 -2.81003,0.58929 -3.75,0.77929 -0.98003,-1.31 -1.94063,-2.64901 -3.37065,-3.479 -0.46995,-1.92 0.17062,-4.42059 -1.41938,-5.85059 -0.77002,0.01 -2.33107,0.0296 -3.1011,0.0395 1.31003,-3.88 1.60995,-7.91949 1.20998,-11.97949 -0.50003,0.03 -1.4802,0.0904 -1.97025,0.13037 0.81,-3.2 0.95992,-6.53988 2.18992,-9.62988 -0.0398,-0.64001 -0.11962,-1.93985 -0.1596,-2.58985 0.63998,-2.05999 1.29105,-4.11068 1.83105,-6.20068 -0.87,0.26 -2.58997,0.78004 -3.45997,1.04004 0.78,-3.88 3.54907,-6.97035 4.28902,-10.86036 0.46005,-2.17999 1.4109,-4.18992 2.4009,-6.16992 -1.62997,-3.16999 -3.9411,-5.90972 -6.39112,-8.46972 -1.46003,-0.15 -2.9196,-0.17031 -4.36965,-0.0703 1.57005,-4.68 4.6308,-8.71925 7.76077,-12.48925 -5.03002,0.27999 -9.5301,-2.01008 -14.37015,-2.83008 -4.02,-1.04 -4.84095,-5.72 -6.27097,-9.00001 -0.80003,-2.32999 -2.8593,-3.75058 -4.75928,-5.10058 -0.54,-1.15 -0.31995,-2.90945 -1.72995,-3.43946 -1.81005,0.67001 -3.56962,1.42964 -5.3496,2.11963 0.08,-0.92999 0.22905,-2.78923 0.30908,-3.71923 -0.54,-0.41001 -1.61918,-1.24113 -2.15918,-1.66113 -1.42005,1.11999 -2.95125,2.1205 -4.49122,3.0205 l 0.88035,-3.52002 c -1.85003,-0.94 -3.53048,-2.17009 -5.21048,-3.3501 -1.65,0.31001 -3.2994,0.60012 -4.93942,0.87012 3.15,-3.74 5.5203,-8.01 8.32035,-12 -1.39005,-1.96 -3.47025,-4.1893 -2.26028,-6.77929 1.68,-0.34001 3.3999,-0.47141 5.12985,-0.69141 0.55005,-2.45 2.06978,-4.4793 2.9898,-6.7793 -0.37005,-1.38 -0.87952,-2.70055 -1.24957,-4.06054 0.69,-2.23001 2.93985,-4.36956 1.5498,-6.78956 -0.30998,0.06 -0.93045,0.16973 -1.23045,0.21973 -3.18998,2.07 -6.27,4.39002 -8.76998,7.27002 -1.59,-1.28 -3.30975,-2.46016 -4.4898,-4.16015 -1.18995,-1.37001 -2.26927,-3.29016 -4.2993,-3.41016 -1.29,0.12 -2.07997,1.22117 -3,1.95117 -1.83997,1.74 -4.04002,3.28004 -5.25,5.54004 -0.42,2.09 -0.51037,4.22959 -0.88035,6.32959 1.13003,1.56 3.61065,2.92969 2.9106,5.17969 -1.20997,2.02 -3.18982,3.41002 -4.83982,5.02002 -1.44,-0.37001 -2.8512,-0.74036 -4.2612,-1.11035 0.99997,-1.92 3.26092,-3.60975 2.75092,-5.98975 -0.96997,-2.56 -3.38055,-5.15936 -6.37057,-4.58936 -2.21003,0.53 -4.1805,1.68959 -6.2505,2.57959 -0.63998,1.49 -1.24958,2.9795 -1.82955,4.4795 -1.31003,-0.11001 -2.56958,-0.36879 -3.7896,-0.75879 0.50002,-1.57 1.28947,-3.03012 1.70947,-4.62012 -0.42997,-0.49 -1.29997,-1.46997 -1.72995,-1.95996 -1.76002,1.68 -2.91952,4.14013 -5.22952,5.14014 -1.24995,-0.43001 -2.19068,-1.36135 -3.20063,-2.13135 -1.81005,0.69999 -3.79972,1.0509 -5.40967,2.17089 -0.42,1.04001 -0.78915,2.10018 -1.11915,3.18018 -1.06005,0.11 -2.12115,0.2301 -3.16118,0.3501 -0.99,0.94 -1.98015,1.88007 -2.9502,2.83008 -1.30995,-0.80001 -3.34905,-0.98041 -3.82905,-2.67042 -0.79005,-1.54999 -1.01085,-3.89046 -3.09082,-4.23046 -1.83,0.33 -3.53985,1.0498 -5.2998,1.5498 -1.63005,-1.8 0.5499,-3.92931 0.91987,-5.79932 -1.60995,0.04 -3.2103,0.0894 -4.8003,0.14942 0.77003,-3.86 4.66065,-5.53895 6.6006,-8.66894 -0.18997,-0.47001 -0.57022,-1.42112 -0.7602,-1.89112 -2.09002,-0.04 -3.40035,1.98109 -5.0904,2.8711 -1.18995,-1.69001 -1.78867,-3.69126 -2.65867,-5.53125 -3.19995,-0.01 -4.36995,3.69021 -6.22995,5.72021 -0.42,-0.32 -1.28093,-0.96027 -1.71098,-1.28027 -1.08,1.05999 -2.2491,2.03023 -3.13912,3.24023 -1.08998,2.02 -1.49063,4.33984 -2.62065,6.33985 -2.53995,2.46 -6.03915,3.46009 -9.1992,4.85009 -1.63995,2.01 -2.71013,4.45049 -4.62008,6.25049 -2.89005,2.68 -5.10007,6.07058 -8.5401,8.10059 -0.46995,-0.43 -1.40032,-1.30024 -1.8603,-1.74024 -5.45002,4.14 -8.84992,10.13998 -12.16995,15.97998 -1.61002,3.37 -5.61007,4.49955 -7.62007,7.53955 -1.79003,2.74001 -3.11085,5.73953 -4.82085,8.51954 -1.83,2.68 -1.3689,6.15011 -0.6489,9.12011 0.69,-0.03 2.05927,-0.0989 2.73922,-0.1289 -0.09,4.16 -4.49985,5.32898 -6.62985,8.20898 -1.40002,1.74 -2.9094,3.4003 -4.6494,4.80029 0.70995,-2.67999 2.11013,-5.1697 2.43015,-7.9497 0.0398,-1.34 -1.21035,-2.11986 -1.86037,-3.10986 1.51005,-4.38 1.29022,-9.04102 2.2002,-13.54102 -1.35998,0.88 -2.27108,2.22078 -3.10103,3.55078 -1.70002,-1.97 -3.67005,-3.70965 -6,-4.88965 -1.99005,-0.96 -2.8587,-3.12031 -4.3887,-4.57032 -1.14998,-0.87999 -2.43105,-1.54992 -3.561,-2.41992 -0.73005,-2.37999 -0.31013,-5.08959 -2.08013,-7.07958 -0.84997,0.42 -1.68952,0.85002 -2.51955,1.27002 -0.16995,-1.41 -0.33945,-2.82048 -0.4995,-4.23048 -0.99,-1.15999 -1.95037,-2.33976 -2.9004,-3.50976 -1.77997,-0.43 -3.10012,-1.60026 -4.1601,-3.01026 -0.21,0.91001 -0.6294,2.72989 -0.8394,3.62989 -1.29,-1.22 -2.42992,-2.58957 -3.91987,-3.55957 -0.61005,0.29 -1.84073,0.84965 -2.4507,1.13965 -0.39,-1.54 -1.02983,-3.05063 -1.02983,-4.64062 -0.28995,-1.24001 0.4305,-2.90013 -0.4995,-3.87012 -0.73995,0 -2.21017,-0.009 -2.9502,-0.019 0.77003,-1.74 1.60935,-3.45096 2.27933,-5.23096 -0.51,-1.84 -2.24933,-2.87889 -3.5493,-4.10889 0.18,2.66 1.60005,5.42977 0.3501,8.00977 -3.54,-1.74 -6.43088,-4.461 -9.38093,-7.021 -3.55995,0.58 -5.35942,-3.02861 -8.22945,-4.32861 -2.40997,-1.01 -4.5507,-2.50139 -6.72067,-3.92139 -0.14003,0.72 -0.4389,2.14084 -0.5889,2.86084 -1.38,-0.77 -2.77995,-0.89035 -4.20998,-0.36035 -0.60997,-0.47 -1.82017,-1.4299 -2.43015,-1.89991 -0.39,0.46001 -1.161,1.37985 -1.54102,1.83985 -2.85998,-2.33 -4.58955,-5.80024 -7.76955,-7.74023 -3.12,-2.07 -5.05928,-5.50994 -8.27925,-7.43995 -2.44005,-1.03999 -4.8603,-2.11017 -7.28033,-3.18017 -2.28,-0.56 -4.65967,0.0499 -6.96967,-0.0601 -1.63005,-0.42 -2.33108,1.36083 -3.1011,2.34083 -1.32998,0.28 -2.64975,0.53955 -3.96975,0.78955 -0.21,-0.76 -0.61005,-2.26026 -0.81008,-3.01026 -2.32995,-0.34 -4.39942,0.4999 -6.2094,1.8999 -2.30004,-0.62 -4.62001,-1.23006 -6.98001,-1.56006 -1.36,-2.20999 -2.82048,-4.40943 -4.98048,-5.91943 0.58001,1.5 1.28053,2.93963 2.04054,4.36963 -0.83001,0.2 -2.50985,0.61006 -3.33985,0.81006 0.52,1.18 1.06936,2.36078 1.58935,3.55078 -2.73,-1.1 -5.76987,-1.56067 -8.12988,-3.43066 -2.39,-0.14001 -4.80041,-0.90934 -7.17041,-0.31934 -3.84,-1.7 -7.33031,-4.11094 -11.32031,-5.46094 l 0.64014,2.96046 c -5.69,-2.38001 -11.98885,-3.08915 -17.31885,-6.36915 -3.59,-2.41 -7.62111,-4.00125 -11.64111,-5.53125 0.3,0.75 0.90117,2.26051 1.20117,3.02051 -2.59,-0.5 -3.80027,-3.02924 -5.78027,-4.46924 -0.33,0.09 -0.98104,0.26889 -1.31104,0.35889 2.1,2.76 6.71092,5.09998 4.94092,9.22998 -2.82,-2.01 -4.8809,-5.07939 -8.1709,-6.3794 -0.59,0.24 -1.75936,0.71043 -2.33936,0.94043 -2.02,-1.71 -4.06002,-3.44095 -6.52002,-4.48095 -2.59,-1.52001 -6.17935,-2.34977 -6.83935,-5.75977 -3.42,-0.769996 -6.91022,-1.199611 -10.22022,-2.349609 -2.93,-1.179997 -5.26017,-3.370057 -7.68018,-5.31006 -4.17,-3.499995 -8.79982,-6.450645 -12.56982,-10.410645 -1.61,-1.719997 -3.78984,-2.729955 -5.58984,-4.20996 -1.31,-2.389995 -2.35116,-4.910018 -3.68115,-7.27002 -2.29,-0.12 -4.53014,-0.549878 -6.64014,-1.37988 1.67,-1.77 3.69037,-3.359453 4.63037,-5.689455 1.53,-3.649995 3.94076,-6.850568 5.28076,-10.580565 l -1.52051,-1.400393 c 1.29,-1.329997 2.80076,-2.519137 3.78077,-4.119135 0.92,-2.07 1.63882,-4.230547 2.54883,-6.310552 l -1.39893,-3.079103 c -0.53,-1.059998 -0.80006,-2.190855 -0.81006,-3.380858 -2.29,1.760003 -4.79084,3.210001 -7.36084,4.500001 -1.42,3.999997 -5.24972,6.101055 -7.71973,9.331057 -2.74,3.51 -5.88056,6.799005 -7.58056,10.979003 -4.51,-4.010003 -7.29945,-9.550178 -11.68946,-13.680173 -2.94,-2.590005 -3.34052,-6.999907 -6.54052,-9.399908 -4.88001,-4.119997 -9.06876,-8.949787 -13.96875,-13.029787 -5.31,-4.119998 -7.84129,-10.620293 -12.57129,-15.3002929 -1.5,-0.3999975 -3.19875,-0.5999025 -4.21875,-1.8999 -1.49014,-1.9599375 -1.86079,-4.7797426 -4.1808,-6.0497476000002 z m 19.83985,8.6308651 c 0.19,1.8199949 -0.99038,4.7593349 1.36963,5.5693349 1.47,-1.5 -0.28963,-4.099335 -1.36963,-5.5693349 z M 573.66505,104.31153 c -0.23516,-0.01 -0.52702,0.0367 -0.87452,0.13916 -0.41,1.4 0.0795,1.88924 1.4795,1.46924 0.3,-1.0425 0.10048,-1.5784 -0.60498,-1.6084 z m -85.78419,2.66894 c 13.06,12.9 25.06977,26.81936 38.00977,39.83936 42.58,43.16 85.97981,85.84022 123.04983,133.97021 3.3,4.39001 6.6897,8.75052 9.4497,13.52052 1.96995,3.15999 1.44975,7.11935 0.73973,10.58935 -1.86,7.27 -5.36985,13.9608 -8.81985,20.5708 -7.2,13.83 -14.47972,27.63018 -21.73972,41.43018 -16.58,26.86 -30.55055,55.21998 -44.56055,83.47998 -3.87,7.69 -7.11902,15.66998 -10.74902,23.47998 -5.85,13.14 -13.48003,25.36998 -20.77003,37.72998 -6.99999,12 -14.50023,23.72978 -20.49023,36.27979 -5.49,10.66 -11.43,21.10022 -16.5,31.97021 -4.98,11.38 -12.02011,21.67901 -18.87012,31.97901 -2.62,3.72 -5.02939,7.60064 -7.87939,11.16064 -3.58,-3.92 -6.06982,-8.68092 -8.81982,-13.19092 -9.37,-15.96 -18.15106,-32.26893 -28.08106,-47.89893 -6.94,-11.24999 -13.82029,-22.53991 -20.55029,-33.91992 -2.94,-4.98 -5.88879,-9.98074 -8.25879,-15.26074 -8.49,-17.75 -16.42983,-35.77945 -26.06982,-52.93945 -12.16,-18.44 -20.37098,-39.08037 -30.50098,-58.63037 -8.84001,-15.71001 -16.74996,-31.92059 -25.20996,-47.85059 -8.21001,-16.49 -16.10952,-33.13869 -23.74952,-49.90869 -0.84,-2.03 -2.17955,-4.12016 -1.53955,-6.41016 1.47,-6.75 6.04998,-12.25109 10.72998,-17.12109 10.09,-10.89 20.2887,-21.68934 30.40869,-32.56934 6.09,-6.91 12.22123,-13.78074 18.51124,-20.51074 14.94,-17.35 31.64958,-33.05994 46.82958,-50.18994 21.68001,-23.32 43.68018,-46.33913 65.43018,-69.59913 z M 103.95117,210.89063 c -2.55,1.49 -0.85,3.66934 0,5.56934 1.3,-1.77 1.07,-3.75934 0,-5.56934 z m -75.210937,41.62939 c 2.79,0.09 3.840217,3.01008 4.970212,5.08008 -1.969995,-0.1 -4.05963,0.0906 -5.869627,-0.83935 -1.029998,-1.19 -1.120583,-4.12073 0.899415,-4.24073 z m -13.43994,14.8506 c 1.86,0.60999 2.870895,2.44888 3.670897,4.10888 1.599998,3.45 3.039488,7.02004 3.729488,10.79004 -2.179995,-3.56 -3.950175,-7.40918 -6.930173,-10.40918 -1.149997,-1.11 -2.400217,-3.48975 -0.470212,-4.48974 z M 105.75,487.83985 c -0.48,1.02 -0.92008,2.07088 -1.33008,3.15088 0.74,-0.27 2.19994,-0.80054 2.93994,-1.06054 -0.41,-0.79 -0.48986,-1.92033 -1.60986,-2.09034 z m -25.376954,13.88819 c -0.170407,0.003 -0.358747,0.0499 -0.5625,0.15234 -1.629997,0.43 -1.02006,3.14911 0.68994,2.3291 1.382498,-0.3675 1.065428,-2.50249 -0.12744,-2.48144 z m 867.077624,17.88281 c 0.67005,1.81 0.20002,3.59885 -0.51998,5.31885 -0.64005,0.14999 -1.91032,0.46988 -2.5503,0.62988 -0.17002,1.95 -0.28005,3.90084 -0.52005,5.86084 -3.09,-0.52 -5.07007,-2.95025 -6.87007,-5.26025 0.52995,-1.5 1.1199,-2.9702 1.66987,-4.4502 2.95005,-0.6 5.98058,-0.90912 8.79053,-2.09912 z m -764.97069,18.48926 c 0.68,1.89 1.9801,3.42965 3.35009,4.88964 0.05,2.08001 0.11106,4.17075 0.33106,6.26075 0.92,-1.26 2.91948,-2.83059 0.20948,-3.60059 0.27,-0.97 0.51045,-1.94943 0.71044,-2.91943 -0.61999,-2.22 -2.47107,-3.87037 -4.60107,-4.63037 z m 1.52051,16.23047 c -1.42,0.19 -2.12959,2.30029 -1.07959,3.30029 1.92,1.03 3.26959,-3.0703 1.07959,-3.30029 z m 105.84961,37.35938 c 3.56,1.75999 6.51051,4.57013 8.27051,8.14013 0.82999,1.83 3.22959,1.52039 4.82959,2.15039 1.92,0.38 2.82099,2.64026 4.77099,3.01025 1.52,-0.37999 2.89912,-1.14998 4.34913,-1.72998 -0.64001,1.71 -0.20932,4.41922 -2.04933,5.44923 -3.81999,-0.71001 -7.44005,-2.34038 -10.56005,-4.63038 -2.32,-1.68 -5.10986,-2.84873 -6.85987,-5.19873 -1.45999,-2.15 -2.06097,-4.74092 -2.75097,-7.19091 z m 25.18945,15.5625 c 1.74959,-0.13509 2.62406,3.07134 1.10156,4.28759 -1.43,-0.63 -4.4499,-2.89928 -1.8999,-4.00928 0.28125,-0.17124 0.5484,-0.25902 0.79834,-0.27831 z m 328.76071,60.88766 c -4.12996,1.57005 -7.77916,4.54072 -12.42916,4.24072 -1.14,3.09 -2.66033,6.00915 -4.34033,8.84918 4.71,-2.97 8.77041,-6.94043 13.92039,-9.13043 1.26,-1.05997 1.9791,-2.58945 2.8491,-3.95947 z m -253.75045,11.94 -0.43946,0.7002 0.38087,0.73972 0.8291,0.0495 0.44971,-0.68992 -0.38966,-0.7398 z m 185.2002,33.73972 c -0.95,2.90003 -1.64016,5.93025 -3.41016,8.49023 1.17,1.23 2.61074,1.6299 4.01074,0.3999 0.59,-2.93003 -0.40059,-5.9601 -0.60058,-8.89013 z"/>
</svg>
